<svg width="32" height="32" viewBox="0 0 32 32" fill="none" xmlns="http://www.w3.org/2000/svg">
<path fill-rule="evenodd" clip-rule="evenodd" d="M1.33398 3.78417C1.33398 3.13421 1.59218 2.51087 2.05177 2.05128C2.51136 1.59169 3.13469 1.3335 3.78465 1.3335H28.214C28.5361 1.33297 28.8551 1.39598 29.1528 1.51892C29.4506 1.64186 29.7211 1.82231 29.949 2.04995C30.1769 2.27758 30.3576 2.54793 30.4809 2.84551C30.6041 3.14309 30.6675 3.46207 30.6673 3.78417V28.2135C30.6677 28.5357 30.6045 28.8547 30.4814 29.1525C30.3583 29.4502 30.1777 29.7207 29.95 29.9486C29.7223 30.1764 29.4518 30.3572 29.1542 30.4804C28.8565 30.6037 28.5375 30.667 28.2153 30.6668H3.78465C3.46271 30.6668 3.14393 30.6034 2.84651 30.4802C2.5491 30.3569 2.27888 30.1763 2.0513 29.9486C1.82371 29.7209 1.64323 29.4506 1.52015 29.1531C1.39707 28.8556 1.33381 28.5368 1.33398 28.2148V3.78417ZM12.9447 12.5175H16.9167V14.5122C17.49 13.3655 18.9567 12.3335 21.1607 12.3335C25.386 12.3335 26.3873 14.6175 26.3873 18.8082V26.5708H22.1113V19.7628C22.1113 17.3762 21.538 16.0295 20.082 16.0295C18.062 16.0295 17.222 17.4815 17.222 19.7628V26.5708H12.9447V12.5175ZM5.61132 26.3882H9.88865V12.3335H5.61132V26.3868V26.3882ZM10.5007 7.7495C10.5087 8.11573 10.4435 8.47988 10.309 8.82059C10.1744 9.16129 9.97312 9.47168 9.71696 9.73354C9.4608 9.99541 9.15492 10.2035 8.81726 10.3455C8.4796 10.4876 8.11697 10.5607 7.75065 10.5607C7.38433 10.5607 7.0217 10.4876 6.68405 10.3455C6.34639 10.2035 6.0405 9.99541 5.78434 9.73354C5.52818 9.47168 5.32691 9.16129 5.19233 8.82059C5.05776 8.47988 4.99259 8.11573 5.00065 7.7495C5.01648 7.03064 5.31316 6.34655 5.82717 5.84375C6.34117 5.34094 7.03162 5.05939 7.75065 5.05939C8.46969 5.05939 9.16014 5.34094 9.67414 5.84375C10.1881 6.34655 10.4848 7.03064 10.5007 7.7495Z" fill="#2b7a78"/>
</svg>
