<svg width="327" height="273" viewBox="0 0 327 273" fill="none" xmlns="http://www.w3.org/2000/svg">
<path d="M260.323 268.043C249.044 261.548 249.044 251.02 260.323 244.526C271.602 238.031 289.889 238.031 301.168 244.526C312.447 251.02 312.447 261.548 301.168 268.043C289.889 274.537 271.602 274.537 260.323 268.043Z" fill="#E0E0E0"/>
<path d="M30.9218 268.945L1.25381 251.865C-0.417936 250.904 -0.417936 249.338 1.25381 248.377L173.823 149.009C174.761 148.535 175.798 148.288 176.849 148.288C177.901 148.288 178.937 148.535 179.875 149.009L209.55 166.09C211.222 167.051 211.222 168.616 209.55 169.577L36.981 268.945C36.0418 269.419 35.004 269.666 33.9514 269.666C32.8988 269.666 31.861 269.419 30.9218 268.945Z" fill="#E0E0E0"/>
<path d="M137.56 238.496L163.067 223.789C165.695 222.275 167.009 220.294 167.009 218.307C167.009 216.319 167.009 214.768 167.009 214.768L140.554 199.886C139.815 199.41 139.199 198.766 138.758 198.006C138.316 197.247 138.061 196.394 138.013 195.518V164.145L93.4819 189.817V221.175C93.5332 222.051 93.7897 222.902 94.231 223.661C94.6722 224.42 95.2858 225.065 96.0223 225.544L118.536 238.475C123.778 241.525 132.304 241.525 137.56 238.496Z" fill="#2B7A78"/>
<g opacity="0.6">
<path d="M137.559 238.496L163.066 223.789C165.694 222.275 167.008 220.294 167.008 218.307C167.008 216.319 167.008 214.768 167.008 214.768L140.552 199.886C139.813 199.41 139.198 198.765 138.756 198.006C138.315 197.247 138.06 196.394 138.012 195.518V164.145L93.4807 189.817V221.175C93.532 222.051 93.7886 222.902 94.2298 223.661C94.671 224.42 95.2846 225.065 96.0212 225.544L118.535 238.474C123.777 241.525 132.303 241.525 137.559 238.496Z" fill="black"/>
</g>
<path opacity="0.3" d="M104.162 226.73V230.254L96 225.558C95.2636 225.079 94.6505 224.435 94.2105 223.676C93.7704 222.917 93.5156 222.065 93.4669 221.19V189.817L101.95 184.931C102.125 187.079 102.315 189.3 102.497 191.484L96.5329 194.906V219.406C96.5802 220.283 96.8351 221.135 97.2767 221.895C97.7183 222.654 98.334 223.298 99.0734 223.774L104.162 226.73Z" fill="black"/>
<path d="M96.5335 219.413C96.5837 220.289 96.8398 221.141 97.2811 221.9C97.7224 222.659 98.3366 223.303 99.074 223.782L118.507 234.95C123.763 237.972 132.29 237.979 137.553 234.95L163.104 220.243C168.367 217.214 168.367 212.307 163.104 209.278L143.656 198.11C142.921 197.63 142.308 196.985 141.868 196.226C141.428 195.467 141.173 194.616 141.123 193.741V169.234L96.5919 194.906L96.5335 219.413Z" fill="#2B7A78"/>
<path opacity="0.3" d="M96.5335 219.413C96.5837 220.289 96.8398 221.141 97.2811 221.9C97.7224 222.659 98.3366 223.303 99.074 223.782L118.507 234.95C123.763 237.972 132.29 237.979 137.553 234.95L163.104 220.243C168.367 217.214 168.367 212.307 163.104 209.278L143.656 198.11C142.921 197.63 142.308 196.985 141.868 196.226C141.428 195.467 141.173 194.616 141.123 193.741V169.234L96.5919 194.906L96.5335 219.413Z" fill="black"/>
<path opacity="0.5" d="M148.803 201.102L143.627 198.124C142.891 197.645 142.279 197 141.839 196.241C141.399 195.482 141.144 194.631 141.094 193.756V169.234L96.5626 194.906V219.413C96.6128 220.289 96.8689 221.141 97.3102 221.9C97.7515 222.659 98.3657 223.303 99.1031 223.782L104.213 226.694L148.803 201.102Z" fill="black"/>
<path d="M167.017 214.776V218.314C167.017 220.302 165.696 222.275 163.075 223.797L137.524 238.497C134.728 239.985 131.605 240.758 128.436 240.746V237.222C131.605 237.234 134.728 236.461 137.524 234.973L163.075 220.258C165.696 218.751 167.017 216.763 167.017 214.776Z" fill="#2B7A78"/>
<path opacity="0.5" d="M167.017 214.776V218.314C167.017 220.302 165.696 222.275 163.075 223.797L137.524 238.497C134.728 239.985 131.605 240.758 128.436 240.746V237.222C131.605 237.234 134.728 236.461 137.524 234.973L163.075 220.258C165.696 218.751 167.017 216.763 167.017 214.776Z" fill="black"/>
<path d="M24.9913 249.869C25.954 250.332 27.0125 250.564 28.0814 250.545C29.1503 250.526 30.1999 250.257 31.1454 249.76L203.43 150.559C204.354 149.958 205.123 149.148 205.674 148.196C206.226 147.243 206.545 146.175 206.606 145.076V6.07171C206.573 5.00316 206.287 3.95751 205.772 3.01996C205.257 2.08241 204.527 1.27949 203.642 0.676648C202.68 0.212393 201.623 -0.0190195 200.554 0.00122234C199.486 0.0214642 198.438 0.292789 197.495 0.793141L25.2103 100.023C24.2898 100.628 23.5256 101.441 22.98 102.396C22.4345 103.351 22.1231 104.422 22.0713 105.52V244.503C22.1038 245.563 22.3849 246.6 22.892 247.532C23.3991 248.464 24.1181 249.264 24.9913 249.869Z" fill="#2B7A78"/>
<path d="M31.1678 249.752L203.453 150.551C204.378 149.952 205.147 149.143 205.699 148.19C206.251 147.237 206.569 146.168 206.628 145.069V6.07157C206.628 4.0548 205.205 3.23207 203.453 4.2441L31.1678 103.445C30.2436 104.045 29.4744 104.855 28.9227 105.807C28.3709 106.76 28.0522 107.829 27.9922 108.927V247.925C27.9922 249.941 29.4158 250.764 31.1678 249.752Z" fill="#2B7A78"/>
<path opacity="0.5" d="M31.1678 249.752L203.453 150.551C204.378 149.952 205.147 149.143 205.699 148.19C206.251 147.237 206.569 146.168 206.628 145.069V6.07157C206.628 4.0548 205.205 3.23207 203.453 4.2441L31.1678 103.445C30.2436 104.045 29.4744 104.855 28.9227 105.807C28.3709 106.76 28.0522 107.829 27.9922 108.927V247.925C27.9922 249.941 29.4158 250.764 31.1678 249.752Z" fill="black"/>
<path d="M30.7001 253.364C29.7967 253.757 28.8185 253.95 27.8329 253.93C26.8474 253.91 25.8779 253.677 24.9913 253.247C24.1162 252.641 23.396 251.838 22.8888 250.904C22.3816 249.969 22.1016 248.929 22.0713 247.867V235.213L28.0209 238.649V251.303C27.9844 253.145 29.1598 253.982 30.7001 253.364Z" fill="#2B7A78"/>
<path opacity="0.5" d="M30.7001 253.364C29.7967 253.757 28.8185 253.95 27.8329 253.93C26.8474 253.91 25.8779 253.677 24.9913 253.247C24.1162 252.641 23.396 251.838 22.8888 250.904C22.3816 249.969 22.1016 248.929 22.0713 247.867V235.213L28.0209 238.649V251.303C27.9844 253.145 29.1598 253.982 30.7001 253.364Z" fill="black"/>
<path d="M27.9847 238.649V251.303C27.9847 253.32 29.4447 254.135 31.1603 253.13L203.445 153.93C204.365 153.332 205.131 152.527 205.683 151.58C206.234 150.632 206.556 149.57 206.621 148.476V135.764L27.9847 238.649Z" fill="#2B7A78"/>
<path opacity="0.3" d="M27.9922 238.62V251.303C27.9922 253.32 29.4523 254.135 31.1678 253.13L203.453 153.93C204.371 153.331 205.136 152.525 205.686 151.578C206.237 150.631 206.557 149.569 206.621 148.476V135.764L27.9922 238.62Z" fill="black"/>
<path d="M33.9414 222.741V110.901C33.9754 110.242 34.165 109.6 34.4949 109.028C34.8247 108.456 35.2855 107.97 35.8395 107.61L198.736 13.7822C199.787 13.1779 200.641 13.6657 200.641 14.8743V126.773C200.606 127.432 200.415 128.074 200.084 128.646C199.753 129.218 199.291 129.703 198.736 130.064L35.8468 223.869C34.7955 224.474 33.9414 223.978 33.9414 222.741Z" fill="#2B7A78"/>
<path d="M33.9414 222.741V110.901C33.9754 110.242 34.165 109.6 34.4949 109.028C34.8247 108.456 35.2855 107.97 35.8395 107.61L198.736 13.7822C199.787 13.1779 200.641 13.6657 200.641 14.8743V126.773C200.606 127.432 200.415 128.074 200.084 128.646C199.753 129.218 199.291 129.703 198.736 130.064L35.8468 223.869C34.7955 224.474 33.9414 223.978 33.9414 222.741Z" fill="#263238"/>
<path d="M117.302 191.237C116.435 191.799 115.713 192.558 115.196 193.451C114.678 194.344 114.379 195.347 114.324 196.377C114.324 198.27 115.66 199.042 117.302 198.095C118.17 197.532 118.893 196.772 119.41 195.877C119.928 194.983 120.226 193.979 120.281 192.948C120.281 191.055 118.945 190.29 117.302 191.237Z" fill="#2B7A78"/>
<path opacity="0.7" d="M28.9261 105.796C28.3604 106.745 28.037 107.818 27.9844 108.92V238.649L22.0713 235.212V105.52C22.1096 104.414 22.4313 103.336 23.0057 102.389L28.9261 105.796Z" fill="black"/>
<path opacity="0.3" d="M206.591 5.54762C206.365 3.91673 205.044 3.36339 203.445 4.24436L31.1601 103.445C30.226 104.028 29.455 104.837 28.9189 105.797L22.9619 102.367C23.5016 101.408 24.2748 100.599 25.2104 100.016L197.495 0.822396C198.44 0.321975 199.489 0.050637 200.558 0.0303969C201.627 0.0101568 202.686 0.241584 203.649 0.705903C204.458 1.25586 205.14 1.97273 205.648 2.80803C206.155 3.64333 206.477 4.57758 206.591 5.54762Z" fill="black"/>
<path d="M215.895 22.6544C215.639 22.5264 215.353 22.4702 215.067 22.492C214.782 22.5138 214.508 22.6128 214.274 22.7782L51.7133 116.438C51.0719 116.861 50.5393 117.429 50.1589 118.096C49.7784 118.762 49.5606 119.509 49.5232 120.275V231.431C49.5005 231.806 49.5752 232.181 49.7401 232.519C49.9051 232.857 50.1548 233.147 50.465 233.36C50.8227 233.557 52.7353 234.664 53.3047 234.969C53.5062 235.072 53.7313 235.119 53.957 235.106C54.1827 235.093 54.401 235.021 54.5896 234.897L217.114 141.237C217.755 140.813 218.288 140.245 218.668 139.579C219.049 138.912 219.267 138.166 219.304 137.4V25.6687C219.337 25.3863 219.29 25.1005 219.168 24.8433C219.047 24.5861 218.857 24.3676 218.618 24.2125C218.253 23.9723 216.304 22.8947 215.895 22.6544Z" fill="#2B7A78"/>
<path d="M54.5533 118.011L217.121 24.3872C218.348 23.6591 219.311 24.2562 219.311 25.6686V137.4C219.274 138.166 219.056 138.912 218.676 139.579C218.295 140.245 217.763 140.813 217.121 141.237L54.5533 234.897C53.3268 235.625 52.3632 234.452 52.3632 233.04V121.848C52.4018 121.082 52.62 120.336 53.0004 119.669C53.3808 119.003 53.9127 118.435 54.5533 118.011Z" fill="#FAFAFA"/>
<path d="M218.114 24.8094C218.545 24.8094 218.611 25.3482 218.611 25.6685V137.399C218.571 138.041 218.383 138.664 218.059 139.221C217.736 139.777 217.288 140.25 216.749 140.603L54.2029 234.263C54.0938 234.333 53.9678 234.374 53.8379 234.379C53.429 234.379 53.1078 233.753 53.1078 233.04V121.848C53.1431 121.206 53.326 120.582 53.6426 120.022C53.9591 119.463 54.4006 118.984 54.9329 118.622L217.486 25.0132C217.674 24.8922 217.891 24.822 218.114 24.8094ZM218.114 24.0813C217.762 24.0962 217.42 24.2016 217.121 24.3871L54.5533 118.011C53.9127 118.435 53.3808 119.003 53.0004 119.669C52.62 120.336 52.4018 121.082 52.3632 121.848V233.04C52.3632 234.161 52.991 235.108 53.8233 235.108C54.081 235.103 54.3329 235.03 54.5533 234.896L217.114 141.236C217.756 140.813 218.288 140.245 218.669 139.579C219.049 138.912 219.267 138.166 219.304 137.399V25.6685C219.304 24.6638 218.808 24.0813 218.078 24.0813H218.114Z" fill="#E0E0E0"/>
<path d="M50.4213 233.36C50.6622 233.484 52.3924 234.467 53.1516 234.904C52.879 234.678 52.6631 234.392 52.5211 234.069C52.3791 233.745 52.315 233.393 52.334 233.04V129.107L49.4869 127.447V231.431C49.4633 231.805 49.5369 232.18 49.7006 232.518C49.8643 232.856 50.1125 233.146 50.4213 233.36Z" fill="#F0F0F0"/>
<path d="M219.341 25.647C219.341 24.2491 218.341 23.6812 217.151 24.3874L54.5533 118.011C53.9127 118.435 53.3808 119.003 53.0004 119.67C52.62 120.336 52.4018 121.082 52.3632 121.848V129.129L219.341 32.9278V25.647Z" fill="#2B7A78"/>
<g opacity="0.4">
<path d="M217.122 24.3865L54.5542 118.003C53.9017 118.413 53.3642 118.982 52.9919 119.656L50.1667 118.017C50.5384 117.367 51.0713 116.823 51.7144 116.437L214.275 22.7775C214.508 22.6109 214.782 22.5107 215.067 22.4876C215.353 22.4645 215.639 22.5194 215.896 22.6464C216.29 22.894 218.137 23.9351 218.612 24.19C218.366 24.0992 218.102 24.0696 217.842 24.1039C217.583 24.1382 217.336 24.2352 217.122 24.3865Z" fill="white"/>
</g>
<path opacity="0.15" d="M49.4873 127.454V120.239C49.5173 119.453 49.7512 118.687 50.1662 118.018L52.9987 119.649C52.5896 120.307 52.3606 121.06 52.3344 121.833V129.114L49.4873 127.454Z" fill="black"/>
<path d="M185.055 109.465L87.692 165.527C87.2185 165.833 86.8243 166.247 86.5414 166.734C86.2585 167.221 86.0949 167.768 86.064 168.33V196.171C86.0949 196.733 86.2585 197.28 86.5414 197.767C86.8243 198.255 87.2185 198.668 87.692 198.975L90.5318 200.605C91.0364 200.86 91.5941 200.993 92.1597 200.993C92.7253 200.993 93.283 200.86 93.7876 200.605L191.136 144.543C191.609 144.235 192.004 143.82 192.286 143.332C192.569 142.844 192.733 142.296 192.764 141.733V113.884C192.733 113.322 192.569 112.775 192.286 112.288C192.004 111.801 191.609 111.387 191.136 111.081L188.289 109.45C187.786 109.2 187.232 109.07 186.67 109.073C186.108 109.075 185.555 109.21 185.055 109.465Z" fill="#2B7A78"/>
<path opacity="0.5" d="M192.764 113.637C192.647 112.799 191.968 112.494 191.151 112.967L93.7878 169.029C93.3077 169.327 92.9128 169.743 92.6417 170.238L86.546 166.728C86.8192 166.241 87.2109 165.831 87.6848 165.534L185.055 109.472C185.558 109.217 186.115 109.084 186.679 109.084C187.244 109.084 187.8 109.217 188.304 109.472L191.151 111.103C191.585 111.387 191.953 111.759 192.231 112.196C192.509 112.633 192.691 113.124 192.764 113.637Z" fill="white"/>
<path d="M93.5102 200.744C93.0335 200.931 92.5226 201.016 92.0107 200.994C91.4987 200.971 90.9973 200.841 90.5391 200.613L87.692 198.982C87.2193 198.675 86.8257 198.261 86.5429 197.774C86.2601 197.287 86.0961 196.741 86.064 196.179V168.337C86.086 167.769 86.2517 167.215 86.5458 166.728L92.6415 170.237C92.3453 170.718 92.1793 171.268 92.1597 171.832V199.681C92.1597 200.605 92.7437 201.035 93.5102 200.744Z" fill="#263238"/>
<path d="M93.7881 169.029L191.151 112.967C192.049 112.45 192.779 112.865 192.779 113.899V141.748C192.748 142.311 192.584 142.859 192.302 143.347C192.019 143.835 191.625 144.25 191.151 144.558L93.8027 200.62C92.9048 201.137 92.1748 200.715 92.1748 199.681V171.839C92.2041 171.278 92.3654 170.731 92.6456 170.242C92.9259 169.754 93.3172 169.339 93.7881 169.029Z" fill="#2B7A78"/>
<path d="M159.242 124.332L87.6999 165.534C87.2259 165.83 86.8343 166.241 86.5611 166.728L92.6568 170.237C92.9279 169.743 93.3227 169.326 93.8029 169.029L165.345 127.834L159.242 124.332Z" fill="#455A64"/>
<path d="M165.33 127.834L93.7877 169.029C93.3141 169.337 92.9199 169.752 92.6371 170.24C92.3542 170.728 92.1907 171.276 92.1598 171.839V199.674C92.1598 200.708 92.8898 201.13 93.7877 200.613L165.33 159.418V127.834Z" fill="#37474F"/>
<path d="M110.286 165.636L147.203 144.383C148.729 143.502 149.97 144.128 149.97 145.781C149.902 146.709 149.615 147.609 149.133 148.406C148.651 149.202 147.987 149.875 147.196 150.368L110.286 171.628C108.76 172.509 107.512 171.883 107.512 170.23C107.581 169.301 107.868 168.401 108.35 167.603C108.831 166.805 109.495 166.131 110.286 165.636Z" fill="#2B7A78"/>
<path d="M117.85 172.677C117.856 172.669 117.865 172.663 117.874 172.658C117.884 172.654 117.894 172.652 117.904 172.652C117.915 172.652 117.925 172.654 117.934 172.658C117.944 172.663 117.952 172.669 117.959 172.677C117.992 172.726 118.007 172.785 118.003 172.844V176.987C118.003 177.387 117.969 177.787 117.901 178.181C117.84 178.541 117.737 178.893 117.594 179.229C117.463 179.537 117.291 179.826 117.083 180.088C116.878 180.332 116.631 180.536 116.353 180.693C116.136 180.834 115.882 180.91 115.623 180.911C115.524 180.903 115.428 180.875 115.34 180.829C115.252 180.783 115.174 180.719 115.112 180.642C114.952 180.428 114.847 180.178 114.805 179.914C114.736 179.561 114.704 179.203 114.711 178.843V174.693C114.71 174.621 114.725 174.549 114.754 174.482C114.772 174.422 114.811 174.371 114.864 174.337L115.324 174.067C115.339 174.053 115.358 174.046 115.379 174.046C115.399 174.046 115.418 174.053 115.433 174.067C115.467 174.116 115.483 174.176 115.477 174.235V178.327C115.471 178.552 115.494 178.777 115.543 178.996C115.563 179.137 115.624 179.268 115.718 179.375C115.751 179.414 115.792 179.445 115.839 179.465C115.886 179.485 115.937 179.494 115.988 179.491C116.113 179.483 116.234 179.443 116.338 179.375C116.468 179.298 116.586 179.202 116.689 179.091C116.803 178.96 116.896 178.813 116.966 178.654C117.049 178.467 117.11 178.272 117.149 178.072C117.191 177.831 117.211 177.588 117.207 177.344V173.245C117.209 173.171 117.227 173.1 117.258 173.033C117.276 172.973 117.315 172.922 117.368 172.888L117.85 172.677Z" fill="#FAFAFA"/>
<path d="M120.711 176.594C120.715 176.54 120.702 176.487 120.675 176.441C120.658 176.422 120.636 176.407 120.612 176.398C120.588 176.389 120.562 176.386 120.536 176.39C120.447 176.378 120.356 176.378 120.266 176.39L119.843 176.47C119.706 176.504 119.563 176.504 119.427 176.47C119.319 176.435 119.227 176.366 119.164 176.273C119.092 176.155 119.045 176.024 119.025 175.887C118.954 175.497 118.954 175.098 119.025 174.708C119.08 174.484 119.158 174.267 119.259 174.06C119.359 173.853 119.481 173.658 119.624 173.477C119.762 173.306 119.93 173.16 120.12 173.048C120.274 172.954 120.445 172.895 120.624 172.873C120.753 172.86 120.884 172.888 120.996 172.953C121.103 173.018 121.187 173.115 121.237 173.23C121.296 173.366 121.328 173.511 121.332 173.659C121.339 173.733 121.324 173.806 121.288 173.871C121.27 173.931 121.231 173.982 121.179 174.016L120.741 174.271C120.721 174.282 120.698 174.289 120.675 174.289C120.652 174.289 120.629 174.282 120.609 174.271L120.514 174.198C120.477 174.168 120.431 174.151 120.383 174.147C120.289 174.158 120.199 174.19 120.12 174.242C120.005 174.311 119.904 174.4 119.821 174.504C119.732 174.619 119.686 174.76 119.689 174.904C119.679 174.96 119.679 175.017 119.689 175.072C119.703 175.092 119.722 175.11 119.743 175.122C119.765 175.135 119.789 175.142 119.813 175.145C119.893 175.158 119.975 175.158 120.054 175.145L120.463 175.072C120.806 175.006 121.04 175.072 121.193 175.261C121.354 175.531 121.428 175.844 121.405 176.157C121.403 176.373 121.374 176.588 121.317 176.797C121.26 177.024 121.176 177.244 121.069 177.453C120.962 177.668 120.827 177.869 120.668 178.05C120.516 178.227 120.336 178.377 120.135 178.494C119.974 178.596 119.791 178.659 119.602 178.676C119.464 178.681 119.329 178.642 119.215 178.567C119.102 178.49 119.016 178.381 118.967 178.254C118.908 178.115 118.878 177.967 118.879 177.817C118.872 177.741 118.887 177.665 118.923 177.598C118.941 177.538 118.98 177.487 119.032 177.453L119.47 177.198C119.529 177.198 119.573 177.161 119.602 177.198L119.697 177.3C119.716 177.321 119.74 177.339 119.766 177.352C119.792 177.364 119.821 177.371 119.85 177.373C119.953 177.373 120.053 177.34 120.135 177.278C120.266 177.203 120.385 177.107 120.485 176.994C120.535 176.934 120.576 176.868 120.609 176.797C120.661 176.74 120.696 176.669 120.711 176.594Z" fill="#FAFAFA"/>
<path d="M122.201 174.62C122.2 174.242 122.231 173.865 122.296 173.492C122.357 173.141 122.452 172.797 122.58 172.465C122.688 172.168 122.835 171.886 123.018 171.628C123.171 171.406 123.371 171.22 123.602 171.082C123.772 170.969 123.978 170.924 124.179 170.958C124.358 170.999 124.514 171.106 124.617 171.257C124.755 171.454 124.851 171.677 124.902 171.912C124.972 172.218 125.006 172.53 125.004 172.844V173.295C125.006 173.371 124.989 173.447 124.953 173.514C124.935 173.574 124.896 173.625 124.844 173.659L122.945 174.759C122.941 174.887 122.958 175.015 122.997 175.137C123.025 175.22 123.075 175.293 123.143 175.348C123.202 175.396 123.278 175.419 123.354 175.414C123.442 175.404 123.527 175.374 123.602 175.327C123.713 175.267 123.812 175.188 123.895 175.094C123.969 175.01 124.033 174.917 124.084 174.817C124.116 174.759 124.15 174.704 124.187 174.65C124.218 174.612 124.255 174.581 124.296 174.555L124.749 174.293C124.764 174.28 124.783 174.274 124.803 174.274C124.823 174.274 124.843 174.28 124.858 174.293C124.877 174.316 124.891 174.343 124.899 174.372C124.906 174.401 124.907 174.431 124.902 174.46C124.894 174.602 124.864 174.742 124.814 174.875C124.751 175.077 124.668 175.272 124.566 175.458C124.452 175.671 124.315 175.871 124.157 176.055C124 176.242 123.813 176.402 123.602 176.528C123.43 176.641 123.223 176.69 123.018 176.666C122.839 176.623 122.682 176.514 122.58 176.36C122.437 176.14 122.34 175.892 122.296 175.632C122.229 175.299 122.198 174.96 122.201 174.62ZM123.602 172.298C123.49 172.358 123.393 172.443 123.318 172.545C123.237 172.647 123.17 172.76 123.121 172.88C123.07 173.001 123.028 173.125 122.997 173.252C122.971 173.367 122.954 173.484 122.945 173.601L124.23 172.873C124.223 172.773 124.208 172.673 124.187 172.575C124.175 172.487 124.14 172.403 124.084 172.334C124.062 172.303 124.034 172.276 124.002 172.256C123.969 172.236 123.932 172.223 123.895 172.218C123.791 172.209 123.687 172.237 123.602 172.298Z" fill="#FAFAFA"/>
<path d="M127.297 170.267C127.075 170.393 126.901 170.587 126.8 170.82C126.687 171.127 126.635 171.454 126.647 171.781V174.409C126.648 174.484 126.633 174.559 126.603 174.628C126.585 174.688 126.546 174.74 126.494 174.773L126.063 175.021C126.056 175.029 126.048 175.035 126.038 175.039C126.029 175.043 126.019 175.046 126.008 175.046C125.998 175.046 125.988 175.043 125.978 175.039C125.969 175.035 125.96 175.029 125.953 175.021C125.921 174.971 125.905 174.913 125.91 174.854V170.143C125.91 170.068 125.925 169.994 125.953 169.924C125.974 169.866 126.012 169.815 126.063 169.779L126.494 169.531C126.509 169.517 126.528 169.51 126.548 169.51C126.569 169.51 126.588 169.517 126.603 169.531C126.637 169.578 126.653 169.635 126.647 169.691V169.924C126.734 169.729 126.842 169.544 126.968 169.371C127.084 169.212 127.233 169.08 127.406 168.985L127.669 168.832C127.683 168.819 127.701 168.812 127.72 168.812C127.739 168.812 127.758 168.819 127.771 168.832C127.806 168.881 127.824 168.94 127.822 169V169.662C127.821 169.738 127.804 169.812 127.771 169.881C127.753 169.939 127.717 169.989 127.669 170.026L127.297 170.267Z" fill="#FAFAFA"/>
<path d="M132.742 169.917C132.748 169.909 132.757 169.903 132.766 169.899C132.776 169.894 132.786 169.892 132.796 169.892C132.807 169.892 132.817 169.894 132.826 169.899C132.836 169.903 132.844 169.909 132.851 169.917C132.884 169.966 132.899 170.025 132.895 170.084V170.812C132.894 170.887 132.88 170.962 132.851 171.031C132.826 171.085 132.788 171.132 132.742 171.169L130.245 172.625C130.23 172.639 130.21 172.647 130.19 172.647C130.17 172.647 130.15 172.639 130.135 172.625C130.103 172.579 130.087 172.522 130.092 172.465V165.912C130.092 165.837 130.107 165.763 130.135 165.694C130.156 165.637 130.194 165.589 130.245 165.556L130.705 165.286C130.72 165.272 130.739 165.265 130.76 165.265C130.78 165.265 130.799 165.272 130.814 165.286C130.847 165.333 130.862 165.39 130.858 165.446V170.987L132.742 169.917Z" fill="#FAFAFA"/>
<path d="M134.983 164.529C135.147 164.416 135.346 164.362 135.545 164.376C135.716 164.39 135.875 164.468 135.99 164.595C136.126 164.751 136.226 164.935 136.282 165.134C136.36 165.391 136.405 165.658 136.414 165.927C136.414 165.986 136.414 166.066 136.414 166.16V166.721C136.414 166.808 136.414 166.888 136.414 166.954C136.399 167.27 136.355 167.585 136.282 167.893C136.215 168.193 136.117 168.486 135.99 168.767C135.875 169.028 135.725 169.273 135.545 169.495C135.391 169.696 135.2 169.867 134.983 169.997C134.814 170.107 134.615 170.16 134.414 170.15C134.245 170.136 134.088 170.057 133.976 169.932C133.836 169.781 133.735 169.599 133.684 169.4C133.606 169.142 133.561 168.876 133.552 168.607C133.552 168.548 133.552 168.476 133.552 168.381V167.82C133.552 167.726 133.552 167.646 133.552 167.587C133.561 167.268 133.602 166.951 133.676 166.641C133.747 166.338 133.848 166.043 133.976 165.76C134.092 165.5 134.239 165.256 134.414 165.032C134.568 164.828 134.762 164.658 134.983 164.529ZM135.669 166.408C135.669 166.247 135.642 166.087 135.589 165.935C135.562 165.842 135.505 165.76 135.428 165.702C135.366 165.66 135.291 165.642 135.217 165.651C135.133 165.666 135.054 165.698 134.983 165.745C134.897 165.792 134.819 165.851 134.749 165.92C134.666 166.007 134.594 166.105 134.538 166.211C134.464 166.344 134.41 166.486 134.377 166.634C134.329 166.819 134.3 167.01 134.289 167.201C134.289 167.26 134.289 167.325 134.289 167.405V167.922C134.289 168.002 134.289 168.068 134.289 168.112C134.296 168.273 134.326 168.432 134.377 168.585C134.404 168.678 134.46 168.76 134.538 168.818C134.568 168.839 134.603 168.854 134.639 168.862C134.675 168.869 134.713 168.869 134.749 168.861C134.832 168.847 134.911 168.818 134.983 168.774C135.068 168.725 135.146 168.667 135.217 168.599C135.298 168.511 135.369 168.413 135.428 168.308C135.499 168.174 135.552 168.032 135.589 167.886C135.637 167.7 135.664 167.51 135.669 167.318C135.674 167.25 135.674 167.182 135.669 167.114V166.604C135.673 166.539 135.673 166.473 135.669 166.408Z" fill="#FAFAFA"/>
<path d="M138.648 168.788C138.742 168.732 138.826 168.66 138.897 168.577C138.984 168.475 139.06 168.362 139.123 168.242C139.195 168.096 139.252 167.942 139.291 167.784C139.336 167.605 139.358 167.422 139.356 167.238V166.866C139.356 166.939 139.283 167.027 139.232 167.128C139.182 167.235 139.124 167.337 139.057 167.434C138.981 167.537 138.898 167.634 138.809 167.725C138.717 167.821 138.611 167.902 138.495 167.966C138.42 168.017 138.335 168.052 138.246 168.07C138.157 168.087 138.066 168.086 137.977 168.068C137.814 168.017 137.675 167.911 137.583 167.769C137.464 167.581 137.377 167.374 137.327 167.158C137.265 166.883 137.231 166.602 137.225 166.32C137.225 166.226 137.225 166.109 137.225 165.971C137.225 165.832 137.225 165.716 137.225 165.614C137.234 165.294 137.268 164.975 137.327 164.66C137.387 164.35 137.472 164.046 137.583 163.75C137.686 163.493 137.818 163.249 137.977 163.022C138.111 162.821 138.288 162.652 138.495 162.527C138.592 162.469 138.698 162.427 138.809 162.403C138.891 162.388 138.975 162.388 139.057 162.403C139.122 162.421 139.182 162.454 139.232 162.498C139.279 162.533 139.321 162.575 139.356 162.622V162.389C139.357 162.314 139.372 162.24 139.4 162.17C139.421 162.113 139.459 162.065 139.51 162.032L139.94 161.777C139.955 161.763 139.975 161.756 139.995 161.756C140.016 161.756 140.035 161.763 140.05 161.777C140.085 161.826 140.103 161.885 140.101 161.945V166.677C140.121 167.386 139.989 168.091 139.714 168.745C139.499 169.259 139.126 169.692 138.648 169.983C138.486 170.083 138.3 170.141 138.108 170.15C137.957 170.159 137.806 170.121 137.677 170.041C137.554 169.949 137.454 169.829 137.385 169.691C137.314 169.525 137.275 169.348 137.269 169.167C137.262 169.092 137.277 169.016 137.312 168.949C137.33 168.889 137.369 168.837 137.422 168.803L137.809 168.585C137.818 168.575 137.828 168.568 137.84 168.562C137.852 168.557 137.865 168.555 137.878 168.555C137.891 168.555 137.904 168.557 137.916 168.562C137.928 168.568 137.939 168.575 137.948 168.585C137.983 168.622 138.015 168.664 138.042 168.708C138.087 168.786 138.16 168.844 138.247 168.869C138.334 168.934 138.466 168.861 138.648 168.788ZM137.962 165.257C137.962 165.451 137.962 165.641 137.962 165.825C137.941 166.116 138.024 166.405 138.196 166.641C138.261 166.696 138.344 166.727 138.429 166.727C138.515 166.727 138.598 166.696 138.663 166.641C138.875 166.503 139.04 166.305 139.137 166.073C139.27 165.769 139.345 165.443 139.356 165.112C139.356 165.002 139.356 164.871 139.356 164.718C139.356 164.566 139.356 164.435 139.356 164.34C139.371 164.079 139.294 163.821 139.137 163.612C139.073 163.552 138.988 163.52 138.9 163.52C138.812 163.52 138.728 163.552 138.663 163.612C138.455 163.749 138.293 163.944 138.196 164.172C138.046 164.515 137.966 164.884 137.962 165.257Z" fill="#FAFAFA"/>
<path d="M141.802 158.792C141.816 158.78 141.834 158.773 141.853 158.773C141.872 158.773 141.89 158.78 141.904 158.792C141.942 158.839 141.961 158.899 141.955 158.959V159.753C141.956 159.829 141.938 159.903 141.904 159.971C141.884 160.026 141.848 160.074 141.802 160.11L141.313 160.394C141.306 160.401 141.298 160.407 141.288 160.412C141.279 160.416 141.268 160.418 141.258 160.418C141.248 160.418 141.237 160.416 141.228 160.412C141.219 160.407 141.21 160.401 141.203 160.394C141.184 160.372 141.17 160.346 141.161 160.319C141.152 160.291 141.149 160.262 141.152 160.233V159.44C141.152 159.364 141.169 159.289 141.203 159.221C141.224 159.165 141.262 159.116 141.313 159.083L141.802 158.792ZM141.926 165.628C141.926 165.701 141.911 165.773 141.882 165.84C141.859 165.897 141.821 165.947 141.773 165.985L141.335 166.233C141.329 166.24 141.321 166.246 141.312 166.251C141.303 166.255 141.293 166.257 141.284 166.257C141.274 166.257 141.264 166.255 141.255 166.251C141.246 166.246 141.239 166.24 141.233 166.233C141.194 166.186 141.176 166.126 141.181 166.065V161.355C141.181 161.279 141.198 161.204 141.233 161.136C141.253 161.079 141.288 161.029 141.335 160.991L141.773 160.743C141.788 160.729 141.807 160.721 141.827 160.721C141.848 160.721 141.867 160.729 141.882 160.743C141.915 160.79 141.93 160.846 141.926 160.903V165.628Z" fill="#FAFAFA"/>
<path d="M145.766 163.408C145.765 163.483 145.75 163.557 145.722 163.626C145.702 163.683 145.663 163.732 145.612 163.765L145.174 164.019C145.161 164.033 145.142 164.04 145.123 164.04C145.104 164.04 145.086 164.033 145.072 164.019C145.034 163.972 145.016 163.912 145.021 163.852V161.289C145.044 160.987 144.988 160.683 144.86 160.408C144.758 160.226 144.598 160.197 144.371 160.328C144.146 160.479 143.978 160.703 143.897 160.962C143.775 161.305 143.716 161.668 143.722 162.032V164.602C143.721 164.677 143.706 164.751 143.678 164.82C143.66 164.88 143.621 164.932 143.568 164.966L143.138 165.214C143.131 165.221 143.122 165.227 143.113 165.232C143.103 165.236 143.093 165.238 143.083 165.238C143.073 165.238 143.062 165.236 143.053 165.232C143.043 165.227 143.035 165.221 143.028 165.214C142.994 165.167 142.979 165.11 142.984 165.053V160.343C142.983 160.268 142.998 160.193 143.028 160.124C143.046 160.064 143.085 160.013 143.138 159.979L143.568 159.731C143.575 159.723 143.584 159.717 143.593 159.713C143.603 159.709 143.613 159.706 143.623 159.706C143.633 159.706 143.644 159.709 143.653 159.713C143.663 159.717 143.671 159.723 143.678 159.731C143.711 159.781 143.726 159.839 143.722 159.899V160.124C143.818 159.902 143.935 159.69 144.072 159.491C144.192 159.307 144.355 159.155 144.547 159.047C144.713 158.926 144.919 158.873 145.123 158.901C145.204 158.921 145.28 158.958 145.345 159.01C145.411 159.061 145.464 159.126 145.503 159.2C145.609 159.397 145.678 159.611 145.707 159.833C145.746 160.123 145.766 160.415 145.766 160.707V163.408Z" fill="#FAFAFA"/>
<path d="M182.588 142.214L175.5 146.291L176.602 136.375C175.748 135.923 175.208 134.824 175.208 133.244C175.208 130.426 176.93 127.157 179.047 125.963C181.164 124.769 182.88 126.036 182.88 128.876C182.836 130.546 182.358 132.177 181.493 133.608L182.588 142.214Z" fill="#455A64"/>
<path d="M182.595 142.214L176.353 138.624L175.499 146.298L182.595 142.214Z" fill="#37474F"/>
<path d="M179.032 125.941C177.489 126.981 176.337 128.506 175.762 130.273L181.478 133.564C182.343 132.133 182.821 130.502 182.865 128.831C182.88 126.014 181.164 124.725 179.032 125.941Z" fill="#37474F"/>
<path d="M144.575 92.9226C142.144 91.5247 138.794 91.7213 135.085 93.8545C127.683 98.1211 121.682 108.482 121.682 117.007C121.682 121.289 123.2 124.288 125.639 125.672L130.362 128.409C132.786 129.807 136.136 129.603 139.852 127.47C147.255 123.211 153.255 112.843 153.255 104.317C153.255 100.058 151.752 97.0362 149.328 95.6747" fill="#2B7A78"/>
<path d="M139.845 96.5995C132.442 100.866 126.442 111.234 126.442 119.752C126.442 128.271 132.442 131.737 139.845 127.47C147.247 123.204 153.255 112.843 153.248 104.317C153.241 95.7914 147.24 92.3403 139.845 96.5995Z" fill="#2B7A78"/>
<path d="M147.24 115.515V116.49C145.467 119.647 142.923 122.307 139.845 124.223C136.961 125.875 134.355 126.057 132.443 125.002V122.992C132.54 120.901 133.139 118.865 134.188 117.052C135.237 115.239 136.706 113.704 138.472 112.573L140.422 111.452C142.144 110.462 143.824 110.331 145.138 111.095C146.452 111.86 147.24 113.469 147.24 115.515Z" fill="#2B7A78"/>
<path opacity="0.4" d="M144.576 92.9227L149.321 95.6748C146.897 94.2696 143.546 94.4662 139.831 96.5995C134.983 99.3953 130.735 104.805 128.384 110.6L123.632 107.856C125.989 102.031 130.202 96.6505 135.078 93.8546C138.801 91.7286 142.152 91.5248 144.576 92.9227Z" fill="white"/>
<path opacity="0.2" d="M130.194 128.3L125.646 125.672C123.208 124.288 121.69 121.303 121.69 117.008L126.442 119.76C126.471 123.91 127.873 126.866 130.194 128.3Z" fill="black"/>
<path opacity="0.1" d="M123.646 107.856L128.398 110.6C127.181 113.502 126.527 116.608 126.471 119.752L121.719 117C121.777 113.858 122.431 110.755 123.646 107.856Z" fill="black"/>
<path d="M138.152 110.994C137.699 110.999 137.253 110.883 136.859 110.659C136.386 110.344 136.006 109.907 135.76 109.394C135.515 108.882 135.413 108.312 135.465 107.747C135.527 106.42 135.907 105.128 136.572 103.977C137.238 102.827 138.17 101.853 139.29 101.136C139.741 100.777 140.289 100.563 140.863 100.52C141.438 100.477 142.011 100.608 142.51 100.896C143.008 101.184 143.408 101.615 143.657 102.134C143.906 102.652 143.992 103.233 143.904 103.8C143.841 105.127 143.461 106.419 142.796 107.569C142.13 108.719 141.199 109.693 140.079 110.411C139.499 110.772 138.834 110.973 138.152 110.994Z" fill="white"/>
<path d="M145.138 111.088C143.824 110.324 142.144 110.455 140.422 111.445L138.472 112.566C136.705 113.697 135.236 115.234 134.186 117.048C133.137 118.862 132.539 120.9 132.443 122.992V125.009C134.355 126.065 136.961 125.883 139.845 124.23C142.923 122.314 145.467 119.655 147.24 116.498V115.522C147.24 113.469 146.481 111.86 145.138 111.088Z" fill="white"/>
<path d="M295.214 237.048C295.214 237.048 296.185 228.544 300.427 221.94C304.668 215.337 310.494 211.223 315.932 210.794C321.371 210.364 325.766 215.359 319.947 218.802C314.129 222.246 303.792 225.727 299.032 238.541L295.214 237.048Z" fill="#2B7A78"/>
<path opacity="0.1" d="M295.214 237.048C295.214 237.048 296.185 228.544 300.427 221.94C304.668 215.337 310.494 211.223 315.932 210.794C321.371 210.364 325.766 215.359 319.947 218.802C314.129 222.246 303.792 225.727 299.032 238.541L295.214 237.048Z" fill="black"/>
<path d="M296.813 234.835H296.755C296.683 234.805 296.626 234.749 296.596 234.678C296.566 234.607 296.565 234.527 296.594 234.456C302.332 220.368 313.253 214.477 318.232 213.342C318.269 213.333 318.308 213.332 318.346 213.338C318.384 213.345 318.42 213.358 318.452 213.379C318.485 213.399 318.513 213.425 318.536 213.456C318.558 213.488 318.574 213.523 318.582 213.56C318.591 213.597 318.592 213.636 318.586 213.674C318.579 213.712 318.566 213.748 318.545 213.78C318.525 213.813 318.499 213.841 318.467 213.863C318.436 213.885 318.401 213.901 318.363 213.91C313.487 215.031 302.777 220.812 297.134 234.682C297.106 234.74 297.059 234.787 297.001 234.814C296.942 234.842 296.876 234.849 296.813 234.835Z" fill="white"/>
<path d="M325.853 235.002C325.364 236.109 324.152 236.691 323.028 237.143C321.904 237.594 320.677 238.082 320.064 239.13C318.837 241.242 320.852 244.227 319.538 246.273C319.229 246.685 318.839 247.03 318.393 247.288C317.946 247.546 317.452 247.71 316.939 247.773C316.1 247.926 315.246 247.926 314.399 247.998C313.993 247.993 313.589 247.961 313.187 247.904C312.007 247.641 310.774 247.772 309.676 248.275C307.989 249.222 307.486 251.34 306.449 252.978C305.816 253.943 304.981 254.76 304.002 255.373C303.023 255.986 301.923 256.381 300.777 256.532C300.047 256.626 298.587 256.764 297.857 256.335C297.8 256.307 297.746 256.273 297.696 256.233C297.587 256.116 297.455 255.964 297.397 255.884C297.393 255.867 297.393 255.849 297.397 255.833C297.097 254.733 297.587 253.597 297.608 252.462V252.258C297.557 250.94 297.521 249.629 297.492 248.319C297.428 245.892 297.404 243.465 297.419 241.038C297.419 239.465 297.243 237.747 297.915 236.269C298.645 234.638 300.485 234.602 301.178 233.007C301.456 232.367 301.602 231.689 301.872 231.041C302.289 230.099 302.958 229.29 303.805 228.7C304.652 228.111 305.645 227.765 306.675 227.7C309.88 227.539 312.749 230.124 315.954 229.884C316.779 229.818 317.589 229.563 318.407 229.418C320.998 228.93 323.999 229.665 325.459 231.857C325.779 232.308 325.983 232.832 326.052 233.38C326.12 233.929 326.052 234.486 325.853 235.002Z" fill="#2B7A78"/>
<path d="M297.076 250.787C297.007 250.767 296.949 250.72 296.913 250.658C296.878 250.595 296.868 250.522 296.886 250.452C301.31 233.896 318.787 231.522 322.897 231.799C322.933 231.801 322.968 231.81 323.001 231.825C323.034 231.841 323.063 231.863 323.086 231.89C323.11 231.918 323.128 231.949 323.14 231.983C323.151 232.018 323.155 232.054 323.152 232.09C323.145 232.161 323.11 232.226 323.056 232.272C323.002 232.318 322.932 232.342 322.86 232.337C318.853 232.054 301.741 234.391 297.412 250.598C297.391 250.667 297.345 250.725 297.282 250.76C297.22 250.795 297.146 250.805 297.076 250.787Z" fill="white"/>
<path d="M316.516 242.4C316.461 242.392 316.41 242.366 316.37 242.327C314.755 240.93 312.85 239.907 310.791 239.329C308.733 238.751 306.573 238.634 304.464 238.985C304.393 238.991 304.322 238.971 304.265 238.928C304.208 238.885 304.17 238.822 304.157 238.752C304.146 238.681 304.164 238.608 304.206 238.549C304.249 238.491 304.312 238.451 304.383 238.439C306.583 238.074 308.836 238.198 310.982 238.804C313.127 239.409 315.112 240.481 316.794 241.941C316.82 241.966 316.84 241.996 316.854 242.029C316.868 242.062 316.875 242.098 316.875 242.134C316.875 242.17 316.868 242.205 316.854 242.239C316.84 242.272 316.82 242.302 316.794 242.327C316.761 242.366 316.716 242.394 316.667 242.407C316.617 242.42 316.564 242.418 316.516 242.4Z" fill="white"/>
<path d="M255.041 37.0807L257.362 37.969V32.8724C257.362 28.8243 260.596 27.856 264.107 29.88C267.626 31.9041 270.473 36.8186 270.473 40.8667V41.5948C270.963 41.4457 271.479 41.4088 271.985 41.487C272.491 41.5652 272.972 41.7563 273.393 42.0462C274.727 42.9133 275.836 44.0819 276.631 45.4571C277.427 46.8322 277.885 48.3751 277.97 49.9604V50.2953L281.212 52.1592C282.089 52.7301 282.818 53.4988 283.342 54.4032C283.866 55.3075 284.169 56.3222 284.227 57.365C284.227 59.2871 282.876 60.0661 281.212 59.1051L255.041 44.0266C254.163 43.457 253.433 42.6885 252.91 41.7837C252.388 40.8789 252.087 39.8636 252.033 38.8208C252.033 36.906 253.369 36.1269 255.041 37.0807Z" fill="#E6E6E6"/>
<path d="M286.132 33.0475L290.344 35.472C290.321 35.2884 290.309 35.1037 290.308 34.9186V33.7028C290.308 31.5185 291.826 30.6594 293.71 31.7442C294.519 32.2384 295.211 32.9016 295.739 33.6882C296.046 30.9652 298.192 29.9532 300.791 31.4457C302.276 32.4095 303.513 33.7087 304.4 35.238C305.288 36.7673 305.802 38.4838 305.901 40.2482V42.0684C305.92 42.7957 305.772 43.5177 305.47 44.1798L308.974 46.1893C309.52 46.5505 309.974 47.0344 310.299 47.6022C310.623 48.1699 310.81 48.8057 310.843 49.4584C310.843 50.6597 309.996 51.1475 308.952 50.5505L286.132 37.4451C285.58 37.0864 285.121 36.6026 284.792 36.0332C284.464 35.4638 284.275 34.8249 284.241 34.1687C284.241 32.9383 285.088 32.4505 286.132 33.0475Z" fill="#E6E6E6"/>
<path d="M269.82 143.546C266.754 148.716 263.805 153.208 261.732 155.363C257.797 157.183 248.555 159.993 244.941 160.459C244.307 160.54 243.664 160.39 243.131 160.037C241.707 159.105 240.605 158.952 239.109 158.435C237.933 158.035 237.437 157.474 237.218 157.707C236.992 157.972 236.878 158.314 236.901 158.661C236.924 159.008 237.082 159.332 237.342 159.564C237.903 160.096 238.526 160.56 239.196 160.947C237.593 161.344 235.921 161.374 234.305 161.035C231.173 160.212 229.699 161.712 231.816 165.105C232.546 166.313 235.553 168.257 241.598 167.733C243.754 167.617 245.902 167.374 248.029 167.005C253.826 165.767 260.272 164.573 264.236 163.364C265.71 162.786 267.03 161.874 268.09 160.7C274.755 153.12 276.967 147.718 279.887 142.811L279.639 134.802C274.909 134.642 272.383 139.221 269.82 143.546Z" fill="#FFA8A7"/>
<path d="M280.45 134.641C279.078 134.449 277.68 134.634 276.406 135.177C275.132 135.72 274.032 136.599 273.223 137.721C269.981 141.864 264.244 151.809 264.244 151.809C264.244 151.809 266.12 156.797 271.186 157.634L279.326 146.669C279.326 146.669 283.18 139.053 280.45 134.641Z" fill="#455A64"/>
<path d="M298.051 246.431H292.744V255.867H298.051V246.431Z" fill="#FFA8A7"/>
<path d="M279.654 245.928L274.354 246.117L274.084 236.128L279.654 235.939V245.928Z" fill="#FFA8A7"/>
<path d="M298.795 164.748C298.795 170.004 298.022 212.357 298.022 212.357C298.138 213.871 299.482 216.667 299.212 222.484C298.81 230.384 298.277 251.149 298.277 251.149C297.366 251.614 296.361 251.866 295.338 251.886C294.315 251.906 293.3 251.694 292.371 251.265C292.371 251.265 288.064 222.142 287.115 214.344C286.283 207.508 284.151 184.879 284.151 184.879L281.282 211.629C281.891 214.499 282.111 217.437 281.939 220.366C281.691 224.006 279.983 242.849 279.983 242.849C279.066 243.388 278.038 243.712 276.977 243.797C275.916 243.881 274.849 243.724 273.858 243.336C273.858 243.336 270.836 214.941 270.777 211.607C270.704 207.821 272.544 164.704 272.544 164.704L298.795 164.748Z" fill="#37474F"/>
<path d="M292.744 253.143V252.357C292.233 252.583 291.058 257.257 288.948 259.252C287.276 260.839 284.998 262.667 284.414 264.436C283.83 266.205 287.59 267.29 289.16 267.006C290.97 266.671 294.124 265.339 294.912 264.094C295.701 262.849 296.073 261.043 296.715 260.14C297.358 259.237 298.84 258.233 299.183 257.184C299.29 256.203 299.188 255.211 298.883 254.272C298.635 253.296 298.372 252.226 298.051 252.321V252.918C297.303 253.53 296.362 253.86 295.394 253.85C294.62 253.915 292.737 253.755 292.744 253.143Z" fill="#263238"/>
<path d="M274.296 244.414C274.019 244.414 273.792 244.829 273.186 245.513C272.285 246.458 271.232 247.246 270.069 247.843C268.083 248.877 264.229 250.464 262.47 251.287C261.375 251.796 261.426 253.165 262.557 253.944C263.689 254.723 266.412 255.284 269.682 254.527C271.463 254.112 273.785 252.401 275.26 252.495C276.734 252.59 279.472 252.561 280.56 251.767C281.647 250.974 281.209 249.328 280.903 247.908C280.567 246.35 280.173 243.926 279.654 244.035V244.581C279.019 245.586 275.727 245.994 274.325 245.258L274.296 244.414Z" fill="#263238"/>
<path d="M284.151 184.879C281.39 183.977 278.866 182.472 276.763 180.474C276.763 180.474 278.223 183.248 282.428 185.833L281.523 209.721L284.151 184.879Z" fill="#263238"/>
<path d="M295.831 135.413C295.831 135.413 300.211 136.418 299.897 144.31L298.984 156.87V175.727C295.086 180.139 277.814 179.819 271.864 175.377C271.864 175.377 272.536 153.062 272.937 144.47C273.222 138.369 274.631 135.297 280.646 134.627L288.041 134.947L295.831 135.413Z" fill="#2B7A78"/>
<path d="M290.254 119.017C290.279 120.074 290.094 121.125 289.71 122.11C289.326 123.095 288.75 123.994 288.016 124.756C287.282 125.519 286.403 126.128 285.432 126.55C284.46 126.972 283.414 127.198 282.355 127.215C277.975 127.215 275.405 123.444 274.456 119.017C272.704 110.913 277.989 110.812 282.355 110.812C284.493 110.855 286.526 111.745 288.007 113.283C289.489 114.822 290.297 116.884 290.254 119.017Z" fill="#263238"/>
<path d="M294.284 122.33C294.284 122.33 293.072 128.242 292.583 129.217C292.275 129.804 291.752 130.25 291.123 130.462L291.21 126.305L294.284 122.33Z" fill="#263238"/>
<path d="M292.759 113.862C292.759 113.862 293.627 113.644 294.554 115.085C295.343 116.316 295.525 119.082 294.284 122.366L291.999 122.643L292.759 113.862Z" fill="#263238"/>
<path d="M293.598 115.063L296.401 115.114C296.42 114.934 296.402 114.751 296.347 114.578C296.292 114.405 296.201 114.245 296.081 114.108C295.961 113.971 295.814 113.861 295.649 113.783C295.485 113.706 295.305 113.663 295.123 113.658C294.74 113.664 294.372 113.81 294.091 114.07C293.809 114.329 293.633 114.683 293.598 115.063Z" fill="#263238"/>
<path d="M293.941 114.401L296.014 112.413C295.895 112.273 295.747 112.158 295.581 112.078C295.415 111.997 295.234 111.951 295.05 111.944C294.865 111.936 294.681 111.967 294.509 112.034C294.337 112.101 294.181 112.203 294.05 112.333C293.775 112.601 293.612 112.963 293.591 113.346C293.571 113.729 293.696 114.105 293.941 114.401Z" fill="#263238"/>
<path d="M291.312 122.607C291.772 122.891 292.422 121.98 292.991 121.362C293.561 120.743 295.327 120.175 296.247 122.184C297.167 124.194 295.598 126.181 294.284 126.837C291.926 128.002 291.181 126.305 291.181 126.305L290.984 135.668C287.67 140.765 280.15 140.605 282.859 135.421V132.574C281.745 132.759 280.613 132.817 279.486 132.749C277.646 132.457 276.493 130.95 275.931 128.883C275.04 125.563 274.697 122.883 275.456 116.352C276.289 109.203 284.304 109.123 288.597 111.984C292.889 114.845 291.312 122.607 291.312 122.607Z" fill="#FFA8A7"/>
<path d="M281.326 115.238C283.239 115.049 285.129 114.656 287.049 114.51C287.463 114.46 287.883 114.48 288.29 114.568C289.75 114.969 289.575 116.672 289.809 117.859C290.21 119.912 290.539 123.385 291.313 123.4C291.546 123.4 292.422 121.893 292.992 121.354C293.305 120.89 293.482 120.348 293.503 119.789C293.649 118.944 293.722 118.078 293.787 117.219C293.846 116.49 293.919 115.762 293.919 115.034C293.952 114.212 293.886 113.388 293.722 112.581C293.539 111.894 293.188 111.264 292.7 110.746L292.554 110.586C291.591 109.582 290.424 108.798 289.13 108.285C287.269 107.59 285.316 107.165 283.334 107.025C281.354 106.886 279.382 106.643 277.428 106.297C277.316 106.265 277.197 106.265 277.085 106.297C277.005 106.341 276.938 106.404 276.89 106.48C276.841 106.557 276.813 106.644 276.807 106.734C276.727 107.187 276.777 107.652 276.952 108.078C277.126 108.503 277.418 108.87 277.793 109.137C276.471 109.239 274.953 108.554 273.683 108.205C273.58 108.161 273.469 108.139 273.358 108.139C273.246 108.139 273.136 108.161 273.033 108.205C272.906 108.294 272.815 108.426 272.777 108.576C272.685 108.918 272.673 109.277 272.741 109.625C272.857 110.678 273.25 111.683 273.88 112.537C274.864 113.815 276.254 114.721 277.822 115.107C278.976 115.329 280.158 115.373 281.326 115.238Z" fill="#263238"/>
<path d="M282.866 132.574C282.866 132.574 286.969 131.715 288.4 130.921C289.252 130.456 289.944 129.745 290.385 128.882C290.17 129.75 289.785 130.566 289.254 131.285C288.21 132.683 282.866 133.702 282.866 133.702V132.574Z" fill="#F28F8F"/>
<path d="M283.851 121.536C283.843 121.761 283.925 121.979 284.078 122.145C284.231 122.31 284.444 122.407 284.669 122.417C284.848 122.432 285.027 122.392 285.183 122.303C285.339 122.215 285.464 122.081 285.543 121.92C285.621 121.76 285.649 121.579 285.623 121.402C285.597 121.225 285.517 121.06 285.396 120.928C285.274 120.797 285.115 120.705 284.94 120.666C284.765 120.626 284.582 120.64 284.415 120.705C284.248 120.771 284.105 120.886 284.004 121.034C283.904 121.182 283.85 121.357 283.851 121.536Z" fill="#263238"/>
<path d="M285.165 118.005L286.924 119.017C287.053 118.767 287.082 118.479 287.006 118.209C286.93 117.939 286.755 117.708 286.516 117.561C286.399 117.495 286.27 117.455 286.137 117.442C286.004 117.429 285.869 117.444 285.742 117.486C285.615 117.528 285.498 117.596 285.399 117.685C285.3 117.774 285.22 117.883 285.165 118.005Z" fill="#263238"/>
<path d="M283.231 127.441L281.355 128.169C281.393 128.297 281.457 128.416 281.543 128.519C281.629 128.622 281.735 128.706 281.855 128.766C281.974 128.826 282.105 128.861 282.239 128.868C282.373 128.876 282.507 128.856 282.633 128.809C282.888 128.7 283.092 128.497 283.203 128.243C283.315 127.989 283.325 127.702 283.231 127.441Z" fill="#F28F8F"/>
<path d="M276.303 118.755L277.909 117.473C277.837 117.362 277.742 117.266 277.631 117.193C277.52 117.12 277.394 117.072 277.263 117.05C277.131 117.029 276.996 117.036 276.868 117.07C276.739 117.104 276.619 117.164 276.515 117.248C276.3 117.429 276.16 117.683 276.121 117.961C276.082 118.239 276.147 118.522 276.303 118.755Z" fill="#263238"/>
<path d="M277.012 121.296C277.024 121.455 277.084 121.607 277.182 121.734C277.28 121.86 277.412 121.955 277.564 122.008C277.715 122.06 277.879 122.067 278.034 122.029C278.19 121.99 278.33 121.907 278.439 121.79C278.548 121.672 278.62 121.526 278.647 121.368C278.674 121.211 278.654 121.049 278.59 120.902C278.527 120.756 278.421 120.631 278.287 120.543C278.154 120.455 277.997 120.408 277.837 120.408C277.724 120.411 277.613 120.437 277.51 120.484C277.408 120.531 277.315 120.598 277.238 120.68C277.162 120.763 277.102 120.86 277.063 120.965C277.024 121.071 277.007 121.183 277.012 121.296Z" fill="#263238"/>
<path d="M281.414 120.612L281.319 125.788L278.37 125.118L281.414 120.612Z" fill="#F28F8F"/>
<path d="M211.376 163.968L215.953 161.333L217.763 159.141L213.193 161.777L211.376 163.968Z" fill="#2B7A78"/>
<path opacity="0.4" d="M211.376 163.968L215.953 161.333L217.763 159.141L213.193 161.777L211.376 163.968Z" fill="black"/>
<path d="M223.822 171.133L228.399 168.497L232.217 165.126L227.647 167.754L223.822 171.133Z" fill="#2B7A78"/>
<path opacity="0.4" d="M223.822 171.133L228.399 168.497L232.217 165.126L227.647 167.754L223.822 171.133Z" fill="black"/>
<path d="M262.703 180.226C263.785 181.673 264.44 183.393 264.594 185.192C263.516 183.742 262.862 182.024 262.703 180.226ZM273.34 180.365C271.799 169.917 266.171 159.585 259.469 155.719C256.25 153.863 253.271 153.797 250.884 155.188L246.577 157.663L246.336 157.809C246.144 157.914 245.959 158.031 245.781 158.158C245.427 158.401 245.095 158.674 244.788 158.974L244.642 159.112C244.511 159.243 244.372 159.396 244.248 159.542C244.124 159.687 243.934 159.913 243.788 160.11C243.478 160.516 243.198 160.945 242.949 161.391C242.817 161.617 242.693 161.857 242.577 162.119L204.959 140.466L200.389 143.094V146.007L200.776 146.225L201.141 146.436V147.019L200.411 147.448V149.137L205.937 160.787L211.397 163.939L213.215 161.755L218.033 164.631L220.8 169.356L223.851 171.111L227.67 167.733L232.356 170.434L233.933 176.921L241.81 181.464C242.199 183.115 242.687 184.742 243.27 186.335C243.321 186.495 243.387 186.663 243.453 186.845C246.066 193.689 250.22 199.55 254.907 202.251C255.468 202.583 256.057 202.868 256.666 203.103C256.988 203.23 257.317 203.34 257.651 203.43C257.943 203.508 258.235 203.573 258.527 203.627C259.449 203.794 260.394 203.794 261.316 203.627L261.696 203.532C261.877 203.496 262.055 203.445 262.229 203.379L262.637 203.219C262.782 203.167 262.922 203.101 263.054 203.023C263.189 202.964 263.32 202.899 263.448 202.826L263.638 202.709C263.672 202.698 263.704 202.681 263.732 202.658C264.776 202.061 267.346 200.576 268.047 200.183C271.522 198.173 273.77 193.092 273.77 185.905C273.764 184.05 273.62 182.198 273.34 180.365Z" fill="#2B7A78"/>
<path d="M261.367 189.043C259.557 188.002 258.097 184.915 258.097 182.149C258.097 179.382 259.557 177.977 261.367 179.011C263.177 180.044 264.63 183.139 264.63 185.913C264.63 188.687 263.17 190.085 261.367 189.043ZM268.762 182.993C267.229 172.552 261.601 162.214 254.892 158.355C251.782 156.564 248.906 156.433 246.57 157.663L246.329 157.809C246.137 157.914 245.952 158.031 245.774 158.158C245.42 158.401 245.088 158.674 244.781 158.974L244.635 159.112C244.504 159.243 244.365 159.396 244.241 159.542C244.117 159.687 243.927 159.913 243.781 160.11C243.471 160.516 243.19 160.945 242.941 161.391C242.81 161.617 242.686 161.857 242.569 162.119C241.888 163.526 241.397 165.017 241.109 166.553L200.381 143.094V146.007L200.768 146.225L201.133 146.436V147.019L200.403 147.448V149.137L205.929 160.787L211.39 163.939L213.208 161.755L218.026 164.631L220.793 169.356L223.844 171.111L227.662 167.733L232.349 170.434L233.926 176.921L241.81 181.464C242.199 183.115 242.687 184.742 243.27 186.335C243.321 186.495 243.387 186.663 243.452 186.845C246.066 193.689 250.22 199.55 254.906 202.251C255.468 202.583 256.057 202.868 256.666 203.103C256.988 203.23 257.317 203.34 257.651 203.43C257.943 203.508 258.235 203.573 258.527 203.627C259.449 203.794 260.394 203.794 261.316 203.627L261.696 203.532C261.877 203.496 262.055 203.445 262.228 203.379L262.637 203.219C262.782 203.167 262.921 203.101 263.053 203.023C263.188 202.964 263.32 202.899 263.448 202.826L263.637 202.709C263.672 202.698 263.704 202.681 263.732 202.659C267.061 200.562 269.2 195.552 269.2 188.541C269.188 186.684 269.042 184.83 268.762 182.993Z" fill="#2B7A78"/>
<path opacity="0.4" d="M264.631 185.906C264.631 188.68 263.171 190.085 261.368 189.044C259.564 188.003 258.097 184.923 258.097 182.149C258.097 179.375 259.557 177.97 261.368 179.011C261.889 179.327 262.343 179.743 262.703 180.234C262.86 182.032 263.515 183.751 264.594 185.199C264.621 185.434 264.633 185.67 264.631 185.906Z" fill="black"/>
<path opacity="0.4" d="M273.756 185.898C273.756 193.084 271.507 198.166 268.032 200.176C267.302 200.569 264.762 202.054 263.718 202.651C267.047 200.554 269.186 195.545 269.186 188.534C269.178 186.679 269.037 184.828 268.763 182.993C267.229 172.552 261.601 162.214 254.892 158.355C251.782 156.564 248.906 156.433 246.57 157.663L250.877 155.188C253.264 153.797 256.243 153.863 259.462 155.719C266.171 159.585 271.799 169.917 273.332 180.365C273.61 182.196 273.752 184.046 273.756 185.898Z" fill="white"/>
<path d="M269.185 188.519C269.185 195.531 267.046 200.54 263.717 202.637C264.761 202.04 267.331 200.554 268.032 200.161C271.507 198.152 273.755 193.07 273.755 185.884C273.755 185.621 273.755 185.352 273.755 185.083L269.185 187.718C269.178 188.002 269.185 188.264 269.185 188.519Z" fill="#2B7A78"/>
<path opacity="0.1" d="M269.185 188.519C269.185 195.531 267.046 200.54 263.717 202.637C264.761 202.04 267.331 200.554 268.032 200.161C271.507 198.152 273.755 193.07 273.755 185.884C273.755 185.621 273.755 185.352 273.755 185.083L269.185 187.718C269.178 188.002 269.185 188.264 269.185 188.519Z" fill="black"/>
<path opacity="0.15" d="M241.284 169.531V171.009L200.389 147.463L201.141 147.026V146.414L241.284 169.531Z" fill="black"/>
<path opacity="0.15" d="M241.284 170.143V171.009L200.389 147.463L201.141 147.026V147.019L241.284 170.143Z" fill="black"/>
<path opacity="0.15" d="M259.068 200.169C257.518 200.129 256.006 199.679 254.688 198.865C248.023 195.028 242.598 183.612 242.598 173.419C242.598 167.471 244.402 163.029 247.548 161.217C249.738 159.95 252.33 160.11 255.053 161.675C261.71 165.512 267.134 176.965 267.134 187.158C267.134 193.099 265.331 197.548 262.185 199.353C261.236 199.894 260.161 200.175 259.068 200.169ZM250.709 161.107C249.736 161.102 248.779 161.353 247.935 161.835C245.066 163.488 243.35 167.82 243.35 173.412C243.35 183.372 248.607 194.526 255.075 198.225C257.549 199.681 259.893 199.812 261.842 198.691C264.711 197.038 266.426 192.713 266.426 187.122C266.426 177.154 261.17 166.007 254.709 162.301C253.502 161.569 252.122 161.167 250.709 161.136V161.107Z" fill="black"/>
<path opacity="0.4" d="M242.54 162.105C241.859 163.512 241.368 165.003 241.08 166.539L200.352 143.08L204.922 140.451L242.54 162.105Z" fill="white"/>
<path d="M295.474 164.384C297.606 160.357 300.044 151.315 301.256 146.75C302.979 140.27 300.19 136.192 297.022 136.025C295.044 136.331 288.524 159.971 288.524 159.971C287.794 160.547 277.888 165.563 274.705 166.823C274.136 167.037 273.508 167.037 272.939 166.823C271.413 166.269 270.369 166.371 268.872 166.226C267.697 166.109 267.106 165.694 266.952 165.942C266.813 166.249 266.795 166.597 266.902 166.917C267.009 167.237 267.233 167.505 267.529 167.667C268.174 168.042 268.86 168.34 269.573 168.555C268.294 168.943 266.96 169.122 265.624 169.087C262.558 169.021 261.455 170.347 263.835 173.455C265.295 175.392 267.712 176.004 273.106 174.147C274.654 173.608 276.757 172.567 278.72 171.861C282.765 170.405 283.83 170.23 286.911 169.189C291.401 167.674 294.525 166.175 295.474 164.384Z" fill="#FFA8A7"/>
<path d="M295.832 135.413C297.693 135.668 299.482 136.083 300.584 137.597C301.687 139.112 302.57 141.238 301.489 147.026C300.662 151.097 299.555 155.106 298.175 159.025C298.175 159.025 293.839 160.874 289.232 156.185L292.401 143.968C292.401 143.968 292.912 136.025 295.832 135.413Z" fill="#455A64"/>
</svg>
