<svg width="345" height="374" viewBox="0 0 345 374" fill="none" xmlns="http://www.w3.org/2000/svg">
<path d="M317.887 372.976C332.488 372.976 344.325 366.418 344.325 358.329C344.325 350.24 332.488 343.682 317.887 343.682C303.286 343.682 291.449 350.24 291.449 358.329C291.449 366.418 303.286 372.976 317.887 372.976Z" fill="#EBEBEB"/>
<path d="M25.0586 360.435L34.412 354.161C39.6342 349.207 43.609 342.704 45.9167 335.341C48.8044 326.085 48.4018 319.049 46.3309 315.518C43.7883 311.171 37.1961 311.933 36.9315 321.082C36.3793 339.113 31.8579 351.62 25.0586 360.435Z" fill="#2B7A78"/>
<path opacity="0.2" d="M25.0586 360.435L34.412 354.161C39.6342 349.207 43.609 342.704 45.9167 335.341C48.8044 326.085 48.4018 319.049 46.3309 315.518C43.7883 311.171 37.1961 311.933 36.9315 321.082C36.3793 339.113 31.8579 351.62 25.0586 360.435Z" fill="black"/>
<path d="M25.0604 361.103C24.9386 361.102 24.8204 361.055 24.7228 360.97C24.6253 360.885 24.5534 360.767 24.5176 360.631C24.4818 360.496 24.4839 360.351 24.5235 360.217C24.5632 360.083 24.6383 359.967 24.7382 359.886C46.3672 342.497 42.1795 318.246 42.1334 318.006C42.1176 317.918 42.1167 317.827 42.131 317.739C42.1452 317.651 42.1743 317.567 42.2165 317.492C42.2587 317.416 42.3132 317.352 42.3769 317.301C42.4407 317.25 42.5123 317.215 42.5879 317.196C42.6634 317.178 42.7414 317.177 42.8172 317.194C42.8931 317.21 42.9654 317.244 43.03 317.293C43.0946 317.342 43.1503 317.405 43.1939 317.479C43.2375 317.554 43.268 317.637 43.2839 317.725C43.2839 317.979 47.7017 343.059 25.4285 360.983C25.3204 361.069 25.1911 361.111 25.0604 361.103Z" fill="white"/>
<path d="M6.32015 373.026C6.32015 373.026 3.06431 369.949 3.84663 365.776C4.62895 361.603 6.73433 358.606 3.13334 353.229C-0.46765 347.852 -1.46857 340.682 2.83421 336.803C6.11307 333.794 11.2327 338.047 13.0734 330.115C14.431 324.31 13.9708 311.456 20.3329 307.175C26.6951 302.895 30.6872 309.342 29.6863 318.063C28.812 325.862 27.5694 333.366 28.5358 335.452C30.3996 339.465 33.5864 338.917 33.4369 346.247C33.3103 353.069 27.7535 358.713 27.7535 358.713L6.32015 373.026Z" fill="#2B7A78"/>
<path d="M17.0083 366.48C16.8677 366.478 16.7322 366.418 16.6266 366.31C16.5211 366.202 16.4524 366.053 16.4331 365.891C14.7879 350.041 18.734 322.673 21.9554 314.541C21.9825 314.45 22.0259 314.368 22.0827 314.299C22.1395 314.23 22.2084 314.176 22.2847 314.14C22.361 314.105 22.443 314.089 22.5251 314.093C22.6072 314.098 22.6875 314.123 22.7607 314.166C22.8294 314.202 22.8911 314.254 22.9424 314.318C22.9936 314.382 23.0333 314.457 23.059 314.54C23.0848 314.622 23.0961 314.709 23.0922 314.797C23.0884 314.884 23.0696 314.97 23.0368 315.049C19.85 323.075 16.0419 350.522 17.6181 365.677C17.6342 365.853 17.5901 366.029 17.4953 366.166C17.4005 366.304 17.2626 366.393 17.1118 366.413L17.0083 366.48Z" fill="white"/>
<path d="M16.6972 354.136C16.6092 354.141 16.5217 354.118 16.4441 354.069C12.452 351.809 9.92093 343.743 9.81739 343.368C9.7892 343.285 9.77564 343.196 9.77752 343.107C9.77939 343.018 9.79667 342.93 9.82833 342.848C9.85998 342.767 9.90537 342.693 9.96182 342.633C10.0183 342.572 10.0846 342.525 10.1569 342.494C10.2292 342.464 10.3061 342.451 10.3829 342.455C10.4597 342.46 10.5349 342.483 10.6041 342.522C10.6732 342.561 10.735 342.616 10.7856 342.683C10.8362 342.75 10.8747 342.829 10.8988 342.914C10.8988 342.994 13.3724 350.806 16.9503 352.825C17.0677 352.891 17.1623 353.002 17.2185 353.139C17.2748 353.276 17.2894 353.43 17.26 353.578C17.2306 353.726 17.1589 353.858 17.0566 353.952C16.9544 354.046 16.8276 354.097 16.6972 354.096V354.136Z" fill="white"/>
<path d="M16.6304 359.485C16.5151 359.485 16.4026 359.444 16.3079 359.368C16.2133 359.291 16.1411 359.183 16.1012 359.057C16.0439 358.894 16.0444 358.711 16.1026 358.548C16.1608 358.385 16.2719 358.256 16.4118 358.188C23.1306 355.058 27.3183 345.761 27.3643 345.654C27.4345 345.497 27.5557 345.378 27.7014 345.324C27.847 345.27 28.0051 345.285 28.1409 345.367C28.2767 345.449 28.379 345.589 28.4254 345.759C28.4718 345.928 28.4584 346.112 28.3882 346.27C28.2042 346.671 23.9589 356.115 16.8835 359.432C16.8046 359.475 16.7173 359.494 16.6304 359.485Z" fill="white"/>
<path d="M251.478 287.525C251.478 287.525 246.451 278.054 245.956 267.768C245.461 257.482 247.406 253.202 250.075 251.971C252.744 250.74 252.951 254.526 254.32 256.76C255.689 258.994 258.485 257.723 259.52 250.754C260.556 243.785 264.329 232.027 272.175 229.74C280.804 227.252 276.179 239.023 274.005 243.611C271.83 248.199 270.151 254.459 271.577 256.158C273.004 257.857 275.224 254.713 277.33 257.629C279.895 261.147 271.922 273.814 267.343 276.877L251.478 287.525Z" fill="#2B7A78"/>
<path d="M258.365 283.55C258.29 283.547 258.215 283.526 258.147 283.489C258.078 283.452 258.016 283.4 257.965 283.336C257.914 283.271 257.874 283.195 257.848 283.113C257.822 283.03 257.81 282.943 257.813 282.855C258.592 266.308 263.03 250.275 270.698 236.306C270.742 236.233 270.797 236.171 270.862 236.124C270.927 236.077 270.999 236.046 271.074 236.032C271.149 236.018 271.226 236.023 271.3 236.044C271.374 236.066 271.443 236.105 271.504 236.159C271.624 236.263 271.705 236.418 271.729 236.59C271.752 236.763 271.717 236.939 271.63 237.082C264.099 250.846 259.741 266.632 258.975 282.922C258.971 283.009 258.951 283.095 258.918 283.175C258.885 283.254 258.839 283.325 258.782 283.383C258.726 283.441 258.66 283.486 258.588 283.515C258.517 283.544 258.441 283.556 258.365 283.55Z" fill="white"/>
<path d="M259.027 275.646C258.931 275.645 258.836 275.617 258.751 275.566C255.53 273.492 253.747 267.339 253.677 267.085C253.652 267.002 253.641 266.913 253.645 266.825C253.65 266.737 253.669 266.65 253.702 266.571C253.735 266.491 253.782 266.42 253.839 266.361C253.896 266.303 253.962 266.258 254.034 266.229C254.179 266.174 254.337 266.189 254.473 266.269C254.609 266.349 254.712 266.489 254.759 266.657C254.759 266.657 256.485 272.583 259.361 274.389C259.491 274.478 259.587 274.623 259.627 274.792C259.668 274.962 259.651 275.143 259.579 275.298C259.527 275.413 259.447 275.508 259.349 275.57C259.25 275.632 259.139 275.658 259.027 275.646Z" fill="white"/>
<path d="M259.586 271.589C259.459 271.587 259.335 271.537 259.235 271.445C259.135 271.353 259.064 271.225 259.034 271.081C259.015 270.996 259.011 270.908 259.021 270.822C259.032 270.736 259.057 270.653 259.096 270.578C259.135 270.504 259.186 270.439 259.246 270.387C259.306 270.335 259.375 270.298 259.448 270.278C267.754 267.83 270.631 262.774 270.654 262.721C270.694 262.646 270.747 262.581 270.81 262.531C270.872 262.48 270.942 262.444 271.016 262.424C271.091 262.405 271.168 262.403 271.242 262.418C271.317 262.434 271.389 262.466 271.453 262.513C271.517 262.561 271.573 262.622 271.617 262.695C271.66 262.767 271.691 262.849 271.708 262.935C271.725 263.022 271.726 263.111 271.713 263.198C271.7 263.285 271.672 263.368 271.632 263.443C271.505 263.67 268.514 268.981 259.736 271.576L259.586 271.589Z" fill="white"/>
<path d="M126.305 266.736C126.305 266.736 115.272 263.606 114.697 239.582C114.087 213.66 117.401 183.403 104.343 180.955C91.2849 178.507 84.0369 197.006 84.1979 218.609C84.3475 237.523 90.9052 278.587 126.259 286.64L126.305 266.736Z" fill="#2B7A78"/>
<path opacity="0.2" d="M126.305 266.736C126.305 266.736 115.272 263.606 114.697 239.582C114.087 213.66 117.401 183.403 104.343 180.955C91.2849 178.507 84.0369 197.006 84.1979 218.609C84.3475 237.523 90.9052 278.587 126.259 286.64L126.305 266.736Z" fill="black"/>
<path d="M126.3 284.179H126.196C118.247 282.493 111.769 277.397 106.949 269.05C92.66 244.265 97.1583 197.983 98.6424 189.904C98.6756 189.732 98.7649 189.582 98.8914 189.484C99.018 189.387 99.172 189.351 99.3212 189.383C99.4702 189.424 99.5997 189.53 99.6832 189.68C99.7667 189.829 99.7977 190.01 99.7699 190.185C98.3088 198.211 93.8334 243.903 107.904 268.301C109.952 272.085 112.654 275.332 115.839 277.838C119.023 280.343 122.621 282.051 126.403 282.854C126.478 282.871 126.55 282.904 126.614 282.952C126.678 283.001 126.733 283.064 126.776 283.137C126.819 283.21 126.848 283.293 126.863 283.38C126.879 283.467 126.879 283.557 126.864 283.644C126.839 283.796 126.769 283.933 126.666 284.031C126.563 284.129 126.433 284.181 126.3 284.179Z" fill="white"/>
<path d="M126.3 345.827C114.899 347.619 96.3876 347.592 85.6997 337.801C75.0117 328.01 77.2436 319.583 81.3508 316.065C85.458 312.547 89.0245 308.534 81.9606 300.723C74.8967 292.911 63.553 280.364 59.8715 261.544C56.1899 242.724 58.0077 230.953 65.2327 227.034C72.2391 223.235 74.0914 229.281 78.3826 241.748C82.6739 254.214 92.3264 243.527 100.587 247.419C108.847 251.311 108.514 259.016 109.031 265.637C109.549 272.258 112.276 274.091 116.958 274.091C121.641 274.091 126.3 277.221 126.3 283.454V345.827Z" fill="#2B7A78"/>
<path d="M126.304 323.97C126.255 323.983 126.204 323.983 126.155 323.97C125.66 323.81 113.868 319.824 96.6909 301.485C78.3983 281.956 69.7698 252.662 69.6777 252.368C69.6336 252.2 69.6473 252.018 69.716 251.861C69.7846 251.704 69.9028 251.583 70.0459 251.525C70.1893 251.47 70.3458 251.482 70.4814 251.56C70.6171 251.638 70.721 251.774 70.7707 251.94C70.8512 252.234 79.3993 281.207 97.4732 300.495C114.408 318.593 126.339 322.646 126.465 322.686C126.538 322.711 126.605 322.752 126.664 322.807C126.723 322.862 126.772 322.93 126.809 323.007C126.845 323.084 126.868 323.168 126.876 323.256C126.884 323.343 126.878 323.431 126.856 323.515C126.819 323.651 126.745 323.768 126.646 323.85C126.546 323.932 126.426 323.974 126.304 323.97Z" fill="white"/>
<path d="M101.487 306.143C101.371 306.145 101.258 306.105 101.163 306.028C101.068 305.951 100.996 305.842 100.958 305.715C97.2645 294.693 96.4246 271.111 96.3556 270.108C96.3524 269.931 96.4081 269.76 96.5111 269.631C96.614 269.501 96.7563 269.423 96.9078 269.412C97.0581 269.415 97.2022 269.482 97.3126 269.6C97.423 269.719 97.4919 269.88 97.5061 270.054C97.5061 270.295 98.3689 294.412 101.993 305.233C102.021 305.316 102.034 305.404 102.032 305.493C102.03 305.581 102.013 305.668 101.982 305.749C101.951 305.83 101.907 305.903 101.851 305.964C101.796 306.024 101.731 306.072 101.659 306.103C101.604 306.126 101.546 306.14 101.487 306.143Z" fill="white"/>
<path d="M101.397 321.994C100.336 322.003 99.2757 321.941 98.2213 321.806C98.1457 321.796 98.0727 321.768 98.0064 321.725C97.9401 321.681 97.8817 321.623 97.8347 321.554C97.7877 321.484 97.753 321.404 97.7324 321.319C97.7119 321.234 97.706 321.145 97.7151 321.057C97.7241 320.969 97.748 320.884 97.7853 320.807C97.8225 320.73 97.8725 320.662 97.9324 320.608C97.9922 320.553 98.0607 320.513 98.1339 320.489C98.2072 320.465 98.2838 320.458 98.3593 320.469C98.4629 320.469 109.174 321.887 114.086 316.068C114.137 315.998 114.201 315.94 114.272 315.899C114.343 315.859 114.42 315.836 114.5 315.831C114.579 315.827 114.658 315.842 114.732 315.875C114.806 315.908 114.873 315.959 114.93 316.023C114.986 316.088 115.03 316.165 115.06 316.251C115.089 316.337 115.103 316.428 115.101 316.52C115.098 316.613 115.079 316.703 115.045 316.786C115.011 316.87 114.963 316.944 114.903 317.004C111.348 321.271 105.147 321.994 101.397 321.994Z" fill="white"/>
<path d="M93.1045 68.6989L91.862 60.3656L85.4654 65.2613C84.8809 63.9237 84.0525 62.7506 83.0379 61.8236L86.0981 52.1928L80.3458 50.7081L76.135 60.0713C74.6116 60.3702 73.1346 60.9291 71.7517 61.73L69.9224 54.6674L63.0886 60.914L63.5373 69.2072C62.1457 71.0196 60.8836 72.9612 59.7637 75.0124L54.1264 74.678L50.1688 84.991L55.0123 87.3987C54.5066 89.5318 54.1867 91.7187 54.0574 93.9262L47.9023 100.507L49.1333 108.854L55.5415 103.958C56.1226 105.295 56.9518 106.464 57.969 107.383L54.9663 117.027L60.7186 118.498L66.7471 111.676C68.1392 111.422 67.7941 108.372 69.3127 107.503L71.1419 114.539L77.9643 108.305L77.7917 105.042C79.1723 103.249 84.3954 99.3034 85.5229 97.2435L86.938 94.5682L90.8956 84.2553L89.0549 80.3762L87.007 75.3201L93.1045 68.6989ZM72.2234 96.1332C66.9772 100.922 65.3205 101.979 64.4347 95.5715C63.5488 89.1643 66.5516 79.4265 71.7977 74.6245C77.0439 69.8225 79.0457 69.4881 79.9891 75.8819C80.9325 82.2756 77.4811 91.3981 72.2234 96.1332Z" fill="#E0E0E0"/>
<path d="M80.3904 50.7081L87.857 55.7107L83.6463 65.0472L76.1797 60.0446L80.3904 50.7081Z" fill="#F5F5F5"/>
<path d="M99.3281 65.3691L92.9314 70.2648L85.4648 65.2621L91.8615 60.3665L99.3281 65.3691Z" fill="#F5F5F5"/>
<path d="M98.3062 89.219L93.4627 86.8247L85.9961 81.8221L90.8396 84.2164L98.3062 89.219Z" fill="#E0E0E0"/>
<path d="M54.9531 117.027L62.4197 122.016L65.48 112.385L58.0134 107.382L54.9531 117.027Z" fill="#E0E0E0"/>
<path d="M78.5383 119.543L71.0832 114.54L69.2539 107.504L76.7205 112.507L78.5383 119.543Z" fill="#E0E0E0"/>
<path d="M100.559 73.7011L99.3277 65.3678L92.9311 70.2634C92.3423 68.9253 91.5101 67.7522 90.4921 66.8258L93.5523 57.195L87.8575 55.7102L83.6352 65.0735C82.1118 65.3723 80.6348 65.9312 79.2519 66.7321L77.4342 59.6963L70.6003 65.9429L71.049 74.2361C69.6559 76.0613 68.3938 78.0163 67.2755 80.0814L61.6266 79.747L57.669 90.06L62.5125 92.4677C62.0114 94.6065 61.6916 96.7973 61.5576 99.0086L55.4141 105.496L56.6451 113.843L63.0417 108.947C63.6306 110.281 64.463 111.45 65.4807 112.371L62.4205 122.002L68.1728 123.487L72.3836 114.124C73.9129 113.828 75.3947 113.264 76.7784 112.452L78.5961 119.487L85.43 113.254L84.9813 104.961C86.3729 103.149 87.635 101.207 88.7548 99.1557L94.4037 99.4767L98.3613 89.1638L93.4488 86.7695C93.9581 84.6322 94.2818 82.441 94.4152 80.2286L100.559 73.7011ZM79.7006 101.189C74.4659 105.978 69.4499 104.68 68.495 98.2863C67.5401 91.8925 71.026 82.8102 76.2722 78.0215C81.5184 73.2329 86.5229 74.5438 87.4778 80.9375C88.4327 87.3313 84.9468 96.4003 79.7006 101.189Z" fill="#EBEBEB"/>
<path d="M77.4332 59.6717L69.9666 54.6691L63.1328 60.9157L70.5994 65.9183L77.4332 59.6717Z" fill="#F5F5F5"/>
<path d="M63.1328 60.9127L63.5815 69.2059L71.0481 74.2086L70.5994 65.9154L63.1328 60.9127Z" fill="#E0E0E0"/>
<path d="M67.2758 80.015L59.8092 75.0123L54.1719 74.6913L61.627 79.694L67.2758 80.015Z" fill="#F5F5F5"/>
<path d="M54.1725 74.6913L50.2148 84.9909L57.6699 89.9935L61.6276 79.694L54.1725 74.6913Z" fill="#E0E0E0"/>
<path d="M61.5593 98.9285L54.1043 93.9258L47.9492 100.507L55.4043 105.509L61.5593 98.9285Z" fill="#F5F5F5"/>
<path d="M56.6468 113.858L49.1802 108.855L47.9492 100.509L55.4043 105.511L56.6468 113.858Z" fill="#E0E0E0"/>
<path d="M87.8572 55.7107L80.3906 50.7081L86.097 52.1928L93.5521 57.1955L87.8572 55.7107Z" fill="#F5F5F5"/>
<path d="M59.6715 30.872V18.4189L51.1464 22.8865C50.6949 20.7736 49.9151 18.7745 48.8455 16.9876L54.2182 4.40073L47.6605 0L40.9647 11.7041C39.0988 11.5145 37.2188 11.7277 35.4194 12.3327L34.4761 1.5115L25.2032 7.74475L24.2713 19.7832C22.2533 21.8623 20.3976 24.1451 18.726 26.605L12.0303 23.9298L5.47257 37.1454L10.8338 42.4958C9.84316 45.4084 9.07325 48.4161 8.53283 51.4845L0.0078125 58.4534V70.9199L8.53283 66.4523C8.98437 68.5652 9.76416 70.5643 10.8338 72.3512L5.49558 84.9514L12.0533 89.3522L18.7491 77.6481C20.615 77.837 22.4949 77.6239 24.2943 77.0194L25.2262 87.8407L34.4991 81.6074L35.4425 69.569C38.3367 68.3412 40.9005 66.2463 42.8745 63.4962L47.6835 65.4625L54.2412 52.2603L50.2146 48.2475C51.0887 44.9013 51.4126 41.3935 51.1695 37.9078L59.6715 30.872ZM29.8396 61.9847C22.7297 66.76 18.3349 63.3223 18.3349 53.812C18.3349 44.3016 24.2138 32.544 31.3353 27.7687C38.4567 22.9935 42.7595 26.4311 42.7595 36.0218C42.7595 45.6124 36.9611 57.1961 29.8396 61.9847Z" fill="#E0E0E0"/>
<path d="M55.1157 4.98928L47.6606 0L40.9648 11.7041L48.4199 16.7067L55.1157 4.98928Z" fill="#F5F5F5"/>
<path d="M67.1362 23.4203L59.6696 18.4177L51.1445 22.8853L58.6111 27.8879L67.1362 23.4203Z" fill="#F5F5F5"/>
<path d="M32.6604 92.8442L25.2053 87.8415L24.2734 77.0203L31.7285 82.0229L32.6604 92.8442Z" fill="#E0E0E0"/>
<path d="M5.46094 84.951L12.9275 89.9536L18.3002 77.3667L10.8337 72.3641L5.46094 84.951Z" fill="#E0E0E0"/>
<path d="M67.1402 35.9413V23.4882L58.6152 27.9157C58.1684 25.801 57.3882 23.8009 56.3143 22.0168L61.687 9.42995L55.1293 5.01584L48.4335 16.7333C46.5675 16.5372 44.6865 16.7504 42.8882 17.362L41.9448 6.51396L32.672 12.7472L31.7286 24.7857C29.7134 26.8682 27.858 29.1508 26.1833 31.6075L19.4875 28.9323L12.9298 42.1478L18.3025 47.4983C17.3067 50.4088 16.5366 53.417 16.0016 56.487L7.47656 63.4559V75.9224L16.0016 71.4548C16.4481 73.5696 17.2283 75.5698 18.3025 77.3537L12.9298 89.9405L19.4875 94.3413L26.1833 82.6372C28.0493 82.8267 29.9293 82.6136 31.7286 82.0085L32.672 92.8298L41.9448 86.5965L42.8767 74.5581C44.8948 72.479 46.7505 70.1961 48.422 67.7363L55.1178 70.4115L61.6755 57.2093L56.3028 51.8589C57.2983 48.9482 58.0684 45.94 58.6037 42.8701L67.1402 35.9413ZM37.3084 67.0541C30.1869 71.8293 24.4116 67.9503 24.4116 58.3997C24.4116 48.8492 30.1639 37.2254 37.3084 32.4368C44.4528 27.6482 50.1937 31.5406 50.1937 41.0911C50.1937 50.6416 44.4183 62.1986 37.3084 66.9872V67.0541Z" fill="#EBEBEB"/>
<path d="M18.727 26.6297L26.1821 31.6324L19.4863 28.917L12.0312 23.901L18.727 26.6297Z" fill="#F0F0F0"/>
<path d="M12.0282 23.915L5.46875 37.135L12.9328 42.1413L19.4923 28.9213L12.0282 23.915Z" fill="#F5F5F5"/>
<path d="M5.46094 37.1196L12.9275 42.1223L18.3002 47.4994L10.8337 42.5102L5.46094 37.1196Z" fill="#E0E0E0"/>
<path d="M8.53283 51.4976L15.9994 56.5002L7.4744 63.4691L0.0078125 58.4665L8.53283 51.4976Z" fill="#F5F5F5"/>
<path d="M0.0078125 58.4673L7.4744 63.47V75.9365L0.0078125 70.9338V58.4673Z" fill="#E0E0E0"/>
<path d="M41.9386 6.51306L34.4721 1.51041L25.1992 7.74365L32.6543 12.7463L41.9386 6.51306Z" fill="#F5F5F5"/>
<path d="M137.66 363.72L245.804 291.115C246.043 291.017 246.249 290.836 246.395 290.597C246.541 290.357 246.619 290.071 246.619 289.777C246.619 289.484 246.541 289.197 246.395 288.958C246.249 288.718 246.043 288.537 245.804 288.44L235.807 281.752C235.187 281.389 234.504 281.201 233.811 281.201C233.117 281.201 232.434 281.389 231.815 281.752L123.635 354.29C123.397 354.387 123.191 354.568 123.045 354.808C122.899 355.048 122.82 355.334 122.82 355.628C122.82 355.921 122.899 356.208 123.045 356.447C123.191 356.687 123.397 356.868 123.635 356.965L133.667 363.653C134.282 364.026 134.964 364.226 135.657 364.238C136.35 364.249 137.036 364.072 137.66 363.72Z" fill="#E0E0E0"/>
<path d="M242.836 10.7914L145.321 76.2539C143.872 77.3538 142.665 78.8352 141.8 80.5781C140.934 82.321 140.434 84.2764 140.34 86.2859V355.239C140.34 358.93 142.572 360.429 145.321 358.583L242.836 293.12C244.287 292.023 245.495 290.542 246.361 288.798C247.226 287.055 247.726 285.098 247.817 283.088V14.1354C247.817 10.4436 245.597 8.94549 242.836 10.7914Z" fill="#455A64"/>
<path d="M145.322 76.2555L242.836 10.793C245.298 9.13437 247.335 10.1643 247.749 13.0402C247.519 11.2321 246.962 9.50106 246.116 7.96102C245.269 6.42099 244.151 5.10681 242.836 4.10496L238.787 1.42975C237.243 0.519108 235.536 0.0445251 233.805 0.0445251C232.074 0.0445251 230.367 0.519108 228.824 1.42975L131.298 66.8388C129.829 67.9096 128.618 69.3961 127.777 71.1592L141.802 80.5225C142.642 78.7733 143.854 77.3041 145.322 76.2555Z" fill="#37474F"/>
<path d="M126.293 345.824C126.387 347.834 126.888 349.789 127.753 351.532C128.619 353.275 129.825 354.756 131.275 355.856L135.336 358.532C136.741 359.349 138.28 359.812 139.85 359.891C141.42 359.969 142.987 359.661 144.447 358.986C142.147 360.03 140.317 358.491 140.317 355.188V86.2883C140.375 84.2703 140.878 82.3034 141.778 80.5768L127.754 71.2135C126.866 72.9271 126.364 74.8729 126.293 76.8716V345.824Z" fill="#263238"/>
<path d="M148 112.092L240.187 50.2277C241.844 49.1308 243.179 50.027 243.179 52.2341V251.297C243.123 252.503 242.823 253.677 242.304 254.723C241.784 255.77 241.059 256.658 240.187 257.316L148.034 319.18C146.378 320.291 145.043 319.394 145.043 317.174V118.111C145.095 116.909 145.39 115.737 145.904 114.692C146.417 113.646 147.135 112.755 148 112.092Z" fill="white"/>
<path d="M194.077 53.7176C193.568 54.106 193.145 54.6279 192.841 55.2412C192.537 55.8545 192.362 56.5422 192.328 57.2489C192.328 58.5865 193.11 59.0814 194.077 58.426C194.588 58.0399 195.012 57.5186 195.316 56.9048C195.62 56.291 195.795 55.6021 195.826 54.8947C195.826 53.5972 195.043 53.0755 194.077 53.7176Z" fill="#37474F"/>
<path d="M194.079 297.762C192.067 299.292 190.394 301.351 189.195 303.772C187.996 306.194 187.304 308.91 187.176 311.7C187.176 316.823 190.271 318.91 194.079 316.341C196.089 314.811 197.762 312.752 198.961 310.33C200.16 307.909 200.852 305.193 200.981 302.403C201.004 297.28 197.898 295.194 194.079 297.762Z" fill="#37474F"/>
<path d="M177.526 74.4243C176.515 75.2047 175.675 76.2504 175.076 77.4772C174.476 78.704 174.133 80.0775 174.074 81.4869C174.074 84.0818 175.639 85.1385 177.526 83.8411C178.547 83.0681 179.398 82.0256 180.008 80.7983C180.617 79.5711 180.969 78.1938 181.035 76.7785C181.035 74.1835 179.47 73.1268 177.526 74.4243Z" fill="#37474F"/>
<path d="M186.117 73.5387C186.117 75.2776 187.268 75.933 188.614 75.01L211.623 59.5339C212.336 59.0164 212.934 58.3105 213.367 57.4738C213.801 56.637 214.059 55.693 214.12 54.7185C214.12 52.993 212.969 52.3376 211.623 53.2605L188.614 68.7367C187.902 69.2529 187.306 69.9566 186.872 70.7909C186.438 71.6252 186.18 72.5665 186.117 73.5387Z" fill="#37474F"/>
<path d="M134.069 120.703C134.886 121.321 135.565 122.155 136.053 123.136C136.541 124.116 136.823 125.217 136.876 126.348C136.876 128.435 135.622 129.277 134.069 128.234C133.255 127.613 132.579 126.779 132.093 125.799C131.607 124.818 131.327 123.719 131.273 122.589C131.273 120.516 132.527 119.673 134.069 120.703Z" fill="#37474F"/>
<path d="M134.069 145.823C134.886 146.441 135.565 147.275 136.053 148.256C136.541 149.236 136.823 150.337 136.876 151.468C136.876 153.541 135.622 154.384 134.069 153.354C133.255 152.733 132.579 151.899 132.093 150.919C131.607 149.938 131.327 148.839 131.273 147.709C131.273 145.623 132.527 144.78 134.069 145.823Z" fill="#37474F"/>
<path d="M133.198 121.213C134.014 121.831 134.694 122.664 135.182 123.645C135.669 124.626 135.951 125.726 136.005 126.857C136.005 128.931 134.751 129.773 133.198 128.743C132.381 128.125 131.702 127.292 131.214 126.311C130.726 125.33 130.444 124.23 130.391 123.099C130.402 121.012 131.656 120.21 133.198 121.213Z" fill="#455A64"/>
<path d="M133.198 146.318C134.016 146.938 134.696 147.773 135.184 148.757C135.672 149.74 135.953 150.843 136.005 151.976C136.005 154.05 134.751 154.892 133.198 153.849C132.379 153.233 131.698 152.4 131.21 151.419C130.722 150.438 130.441 149.336 130.391 148.204C130.402 146.131 131.656 145.288 133.198 146.318Z" fill="#455A64"/>
<path d="M261.843 58.5323C261.843 56.3118 260.508 55.4156 258.851 56.5259L247.818 63.9228L166.698 118.39C165.827 119.048 165.102 119.937 164.582 120.983C164.062 122.029 163.762 123.203 163.707 124.409V323.419C163.707 325.639 165.042 326.535 166.698 325.425L247.853 270.944L258.851 263.561C259.723 262.903 260.448 262.014 260.968 260.968C261.488 259.922 261.787 258.748 261.843 257.542V58.5323Z" fill="white"/>
<path d="M262.99 58.5333C263.062 57.8625 262.963 57.1818 262.704 56.5763C262.446 55.9708 262.039 55.4674 261.536 55.129C261.032 54.7907 260.454 54.6325 259.874 54.6741C259.294 54.7158 258.737 54.9554 258.273 55.3632L247.746 62.4391L166.12 117.281C165.069 118.052 164.195 119.109 163.574 120.361C162.952 121.612 162.602 123.02 162.553 124.464V323.42C162.507 324.088 162.617 324.757 162.873 325.358C163.128 325.959 163.519 326.468 164.003 326.831C164.415 327.109 164.884 327.252 165.36 327.245C166.035 327.221 166.692 326.995 167.27 326.59L248.954 271.748L259.458 264.699C260.503 263.92 261.372 262.861 261.992 261.612C262.613 260.362 262.967 258.957 263.024 257.516L262.99 58.5333ZM247.769 269.461L246.826 270.103L166.166 324.249C166.03 324.37 165.873 324.455 165.706 324.496C165.539 324.538 165.366 324.536 165.199 324.49C165.05 324.383 164.9 324.008 164.9 323.393V124.41C164.96 123.439 165.208 122.496 165.627 121.653C166.045 120.81 166.623 120.088 167.316 119.542L247.896 65.3685L259.4 57.6237C259.536 57.5026 259.693 57.4182 259.86 57.3765C260.027 57.3349 260.2 57.3371 260.367 57.383C260.516 57.49 260.666 57.8645 260.666 58.4798V257.543C260.606 258.514 260.358 259.457 259.939 260.3C259.521 261.143 258.943 261.865 258.25 262.411L247.746 269.461H247.769Z" fill="#2B7A78"/>
<path d="M212.777 104.772C223.132 97.8433 231.472 103.434 231.472 117.332C231.472 131.23 223.097 148.097 212.777 154.972C202.457 161.848 194.082 156.31 194.082 142.426C194.082 128.541 202.457 111.714 212.777 104.772Z" fill="#2B7A78"/>
<path d="M212.778 115.688C216.126 113.441 218.841 115.26 218.841 119.701C218.727 122.148 218.119 124.528 217.065 126.65C216.012 128.772 214.543 130.575 212.778 131.914C209.43 134.161 206.715 132.342 206.715 127.901C206.829 125.454 207.437 123.074 208.49 120.952C209.544 118.83 211.013 117.027 212.778 115.688Z" fill="#2B7A78"/>
<path d="M224.589 139.659C224.589 132.275 220.136 129.279 214.625 132.97L211.174 135.285C205.675 138.976 201.211 147.965 201.211 155.349V157.342C204.398 158.559 208.401 157.903 212.716 154.974C217.495 151.547 221.536 146.893 224.531 141.371L224.589 139.659Z" fill="#2B7A78"/>
<path opacity="0.7" d="M212.778 115.688C216.126 113.441 218.841 115.26 218.841 119.701C218.727 122.148 218.119 124.528 217.065 126.65C216.012 128.772 214.543 130.575 212.778 131.914C209.43 134.161 206.715 132.342 206.715 127.901C206.829 125.454 207.437 123.074 208.49 120.952C209.544 118.83 211.013 117.027 212.778 115.688Z" fill="white"/>
<path opacity="0.7" d="M224.589 139.659C224.589 132.275 220.136 129.279 214.625 132.97L211.174 135.285C205.675 138.976 201.211 147.965 201.211 155.349V157.342C204.398 158.559 208.401 157.903 212.716 154.974C217.495 151.547 221.536 146.893 224.531 141.371L224.589 139.659Z" fill="white"/>
<path d="M176.604 185.536L200.66 169.391C201.811 168.655 202.65 169.244 202.65 170.729V171.652C202.614 172.455 202.415 173.238 202.069 173.935C201.723 174.633 201.24 175.225 200.66 175.664L176.604 191.809C175.511 192.545 174.613 191.943 174.613 190.472V189.549C174.651 188.745 174.85 187.963 175.196 187.266C175.542 186.569 176.024 185.976 176.604 185.536Z" fill="#2B7A78"/>
<path d="M176.604 185.536L200.66 169.391C201.811 168.655 202.65 169.244 202.65 170.729V171.652C202.614 172.455 202.415 173.238 202.069 173.935C201.723 174.633 201.24 175.225 200.66 175.664L176.604 191.809C175.511 192.545 174.613 191.943 174.613 190.472V189.549C174.651 188.745 174.85 187.963 175.196 187.266C175.542 186.569 176.024 185.976 176.604 185.536Z" fill="#95BDBC"/>
<path opacity="0.3" d="M175.614 205.027L248.393 156.178C248.934 155.803 249.383 156.097 249.383 156.846V166.718C249.362 167.119 249.263 167.508 249.091 167.856C248.919 168.205 248.68 168.502 248.393 168.724L175.614 217.574C175.062 217.948 174.613 217.641 174.613 216.905V207.033C174.633 206.631 174.734 206.24 174.908 205.891C175.082 205.543 175.324 205.247 175.614 205.027Z" fill="#979797"/>
<path d="M176.604 229.452L200.66 213.307C201.811 212.571 202.65 213.173 202.65 214.644V215.567C202.615 216.371 202.416 217.154 202.07 217.852C201.724 218.549 201.241 219.142 200.66 219.58L176.604 235.725C175.511 236.474 174.613 235.872 174.613 234.387V233.465C174.652 232.661 174.853 231.88 175.198 231.183C175.544 230.486 176.025 229.893 176.604 229.452Z" fill="#2B7A78"/>
<path d="M176.604 229.452L200.66 213.307C201.811 212.571 202.65 213.173 202.65 214.644V215.567C202.615 216.371 202.416 217.154 202.07 217.852C201.724 218.549 201.241 219.142 200.66 219.58L176.604 235.725C175.511 236.474 174.613 235.872 174.613 234.387V233.465C174.652 232.661 174.853 231.88 175.198 231.183C175.544 230.486 176.025 229.893 176.604 229.452Z" fill="#95BDBC"/>
<path opacity="0.3" d="M175.614 248.941L248.393 200.092C248.934 199.717 249.383 200.025 249.383 200.76V210.632C249.362 211.033 249.263 211.422 249.091 211.77C248.919 212.119 248.68 212.416 248.393 212.638L175.614 261.488C175.062 261.862 174.613 261.568 174.613 260.819V250.947C174.633 250.545 174.734 250.154 174.908 249.805C175.082 249.457 175.324 249.161 175.614 248.941Z" fill="#979797"/>
<path d="M204.639 254.544L233.401 235.269C234.551 234.52 235.402 235.122 235.402 236.607V246.933C235.365 247.738 235.164 248.521 234.816 249.219C234.468 249.916 233.983 250.508 233.401 250.946L204.639 270.234C203.488 270.97 202.648 270.368 202.648 268.896V258.557C202.688 257.754 202.889 256.973 203.235 256.276C203.58 255.58 204.061 254.986 204.639 254.544Z" fill="#2B7A78"/>
<path d="M204.639 254.544L233.401 235.269C234.551 234.52 235.402 235.122 235.402 236.607V246.933C235.365 247.738 235.164 248.521 234.816 249.219C234.468 249.916 233.983 250.508 233.401 250.946L204.639 270.234C203.488 270.97 202.648 270.368 202.648 268.896V258.557C202.688 257.754 202.889 256.973 203.235 256.276C203.58 255.58 204.061 254.986 204.639 254.544Z" fill="#2B7A78"/>
<path d="M272.755 210.969C272.755 210.969 258.627 188.31 257.799 185.555C257.143 183.521 257.799 180.498 258.006 179.094C258.213 177.689 258.397 174.559 258.604 173.743C258.949 172.219 257.258 172.526 256.303 173.917C255.349 175.308 255.026 178.091 254.532 178.545C254.037 179 250.275 172.62 248.308 169.677C246.34 166.734 245.109 164.942 243.901 166.039C243.038 166.828 243.683 168.54 245.109 171.055C245.942 172.409 246.711 173.816 247.41 175.268C247.629 175.817 246.455 175.857 245.823 176.994C245.328 177.877 245.823 179.308 245.132 179.99C244.707 180.366 244.416 180.91 244.315 181.52C244.213 182.129 244.307 182.76 244.58 183.294C245.861 185.632 247.512 187.666 249.447 189.286C251.563 190.985 252.415 191.587 253.669 193.901C254.923 196.215 266.174 219.851 266.934 221.269C267.693 222.686 269.154 225.576 271.375 225.656C273.595 225.736 291.773 207.545 292.704 206.635C295.696 203.733 296.651 203.318 297.157 205.926C297.332 206.854 297.462 207.791 297.548 208.735C297.905 212.053 299.849 223.904 299.849 223.904C299.849 223.904 309.053 229.08 316.611 226.579C324.17 224.078 326.724 220.346 326.724 220.346L322.939 213.176C323.963 210.22 328.691 198.235 330.221 189.848L306.522 185.394C306.038 185.274 305.256 185.046 304.221 184.739C302.921 184.337 299.619 183.013 297.122 185.555C288.977 193.808 272.778 210.969 272.778 210.969" fill="#FFA8A7"/>
<path d="M319.741 350L315.496 356.862C317.425 357.909 319.534 358.435 321.663 358.4C325.471 358.56 326.518 357.062 326.656 356.768C327.3 355.163 326.299 352.274 326.023 349.786L319.741 350Z" fill="#37474F"/>
<path d="M315.736 353.571C315.736 353.571 310.582 353.183 307.027 352.674C303.472 352.166 300.653 354.173 301.482 355.871C302.31 357.57 304.277 358.988 307.338 360.178C309.949 361.208 313.09 361.944 315.805 362.854C318.52 363.763 320.407 364.954 321.983 364.312C323.743 363.603 324.503 362.787 324.353 361.289C323.969 359.158 323.493 357.05 322.927 354.975L315.736 353.571Z" fill="#37474F"/>
<path d="M326.654 343.11C326.654 343.11 326.009 349.343 325.963 350.681C325.917 352.018 320.729 352.446 319.739 349.999L319.578 342.374L326.654 343.11Z" fill="#F28F8F"/>
<path d="M321.431 346.936L323.283 356.406C323.283 356.406 323.455 357.557 319.222 358.292C314.988 359.028 308.338 355.711 307.199 355.042C306.06 354.373 305.934 353.022 310.098 353.29C314.263 353.557 315.736 353.571 315.736 353.571L314.378 349.384L321.431 346.936Z" fill="#FFA8A7"/>
<path d="M330.152 189.766L333.086 188.816C333.086 188.816 339.218 211.382 339.897 213.562C340.575 215.743 341.346 218.043 340.023 220.732C338.447 223.929 330.152 236.783 330.152 236.783L324.883 230.791L330.865 218.057L325.573 205.617L330.152 189.766Z" fill="#F28F8F"/>
<path d="M300.02 160.461C299.332 158.959 298.983 157.28 299.005 155.579C299.027 153.879 299.42 152.212 300.146 150.736C303.068 144.436 309.58 141.373 317.334 142.537C320.924 143.085 325.158 146.549 327.47 151.726C330.024 157.464 330.266 169.021 330.921 173.395L300.02 160.461Z" fill="#37474F"/>
<path d="M299.814 162.936C299.814 162.936 297.974 167.016 298.296 167.39C298.773 167.714 299.294 167.94 299.837 168.059L299.814 162.936Z" fill="#FFA8A7"/>
<path d="M305.411 150.04C303.409 151.551 299.958 154.334 299.808 163.496C299.647 172.859 300.798 175.949 301.994 177.033C302.799 177.768 307.528 177.394 309.553 176.845C311.577 176.297 317.41 172.94 319.516 167.843C321.989 161.851 321.483 153.13 317.813 150.454C315.945 149.17 313.827 148.458 311.658 148.386C309.489 148.313 307.339 148.883 305.411 150.04Z" fill="#FFA8A7"/>
<path d="M326.657 220.292C330.201 226.712 333.56 232.33 334.296 239.58C335.815 254.815 330.845 272.231 329.775 283.507C331.787 286.714 332.947 290.537 333.111 294.502C333.111 299.17 326.657 343.111 326.657 343.111C326.657 343.111 321.963 344.769 319.582 342.375L315.152 261.544L317.453 251.699L326.657 220.292Z" fill="#2B7A78"/>
<path opacity="0.2" d="M326.657 220.292C330.201 226.712 333.56 232.33 334.296 239.58C335.815 254.815 330.845 272.231 329.775 283.507C331.787 286.714 332.947 290.537 333.111 294.502C333.111 299.17 326.657 343.111 326.657 343.111C326.657 343.111 321.963 344.769 319.582 342.375L315.152 261.544L317.453 251.699L326.657 220.292Z" fill="black"/>
<path d="M315.152 261.542L317.453 251.698C321.859 250.349 326.108 248.386 330.109 245.852C330.109 245.852 327.716 250.922 320.836 253.704L317.281 266.344L316.982 295.304L315.152 261.542Z" fill="#2B7A78"/>
<path opacity="0.3" d="M315.152 261.542L317.453 251.698C321.859 250.349 326.108 248.386 330.109 245.852C330.109 245.852 327.716 250.922 320.836 253.704L317.281 266.344L316.982 295.304L315.152 261.542Z" fill="black"/>
<path d="M326.653 220.292C328.551 223.903 333.084 230.056 332.118 235.982C330.967 243.151 327.631 248.194 317.484 251.699L307.958 291.827C307.958 291.827 312.917 297.177 314.435 302.354C315.954 307.531 321.43 346.963 321.43 346.963C321.43 346.963 319.727 350.187 314.378 349.411C314.378 349.411 295.728 299.92 294.417 296.696C292.825 293.431 292.267 289.621 292.841 285.928C293.427 280.738 299.744 223.93 299.744 223.93L326.653 220.292Z" fill="#2B7A78"/>
<path opacity="0.2" d="M326.653 220.292C328.551 223.903 333.084 230.056 332.118 235.982C330.967 243.151 327.631 248.194 317.484 251.699L307.958 291.827C307.958 291.827 312.917 297.177 314.435 302.354C315.954 307.531 321.43 346.963 321.43 346.963C321.43 346.963 319.727 350.187 314.378 349.411C314.378 349.411 295.728 299.92 294.417 296.696C292.825 293.431 292.267 289.621 292.841 285.928C293.427 280.738 299.744 223.93 299.744 223.93L326.653 220.292Z" fill="black"/>
<path d="M330.154 189.767L306.454 185.312C305.971 185.192 305.189 184.965 304.153 184.657C304.153 184.657 303.141 201.939 297.055 205.898C297.204 206.727 297.331 207.65 297.446 208.707C297.802 212.024 299.747 223.876 299.747 223.876C299.747 223.876 308.951 229.052 316.509 226.551C324.068 224.049 326.622 220.317 326.622 220.317L322.837 213.148C323.895 210.165 328.658 198.18 330.154 189.767Z" fill="#2B7A78"/>
<path opacity="0.7" d="M330.154 189.767L306.454 185.312C305.971 185.192 305.189 184.965 304.153 184.657C304.153 184.657 303.141 201.939 297.055 205.898C297.204 206.727 297.331 207.65 297.446 208.707C297.802 212.024 299.747 223.876 299.747 223.876C299.747 223.876 308.951 229.052 316.509 226.551C324.068 224.049 326.622 220.317 326.622 220.317L322.837 213.148C323.895 210.165 328.658 198.18 330.154 189.767Z" fill="white"/>
<path d="M323.903 210.301C320.755 212.499 317.457 214.391 314.043 215.959C317.142 215.887 320.176 214.912 322.867 213.124L323.903 210.301Z" fill="#2B7A78"/>
<path d="M304.816 150.496C304.816 150.496 303.666 159.191 306.381 164.3C306.381 164.3 307.393 160.836 309.913 161.491C312.432 162.147 312.57 166.012 310.799 168.179C310.348 168.787 309.76 169.235 309.101 169.472C308.441 169.708 307.738 169.724 307.071 169.517C307.071 169.517 306.669 175.804 306.45 181.074C306.231 186.344 305.035 197.834 310.132 202.476C315.228 207.117 328.021 208.749 334.015 199.011C337.352 193.594 332.922 184.017 330.863 173.276C328.965 163.404 327.895 148.771 318.887 146.416C309.878 144.062 304.816 150.496 304.816 150.496Z" fill="#37474F"/>
<path d="M337.871 31.7011L335.973 33.0387C336.132 32.2534 336.221 31.451 336.238 30.6444C336.238 26.1634 333.534 24.3576 330.198 26.6315C329.182 27.3436 328.276 28.2478 327.517 29.3068C327.517 23.2875 323.881 20.8397 319.395 23.8493C317.03 25.6421 315.063 28.0576 313.651 30.8999C312.24 33.7422 311.425 36.9312 311.272 40.2083C311.272 40.5159 311.272 40.8102 311.272 41.1045C310.116 40.9354 308.947 41.2482 307.97 41.9873C306.212 43.3192 304.749 45.1143 303.7 47.2269C302.65 49.3395 302.044 51.7101 301.93 54.1461C301.93 54.7124 301.98 55.2773 302.08 55.8315L301.068 56.5137C298.318 58.3596 296.086 61.9578 296.086 64.5393C296.086 67.1209 298.318 67.7362 301.068 65.8769L337.883 41.1981C340.632 39.3522 342.864 35.754 342.864 33.1724C342.864 30.5909 340.621 29.8418 337.871 31.7011Z" fill="#EBEBEB"/>
</svg>
