<svg width="301" height="281" viewBox="0 0 301 281" fill="none" xmlns="http://www.w3.org/2000/svg">
<path d="M113.953 280.828C144.996 280.828 170.161 266.338 170.161 248.465C170.161 230.591 144.996 216.102 113.953 216.102C82.91 216.102 57.7446 230.591 57.7446 248.465C57.7446 266.338 82.91 280.828 113.953 280.828Z" fill="#E0E0E0"/>
<path d="M273.798 207.973L267.204 204.178C267.204 204.178 265.592 190.101 266.665 179.199C268.173 163.88 278.094 145.442 289.926 149.775C301.757 154.109 284.501 169.704 280.661 182.697C276.821 195.691 273.798 207.973 273.798 207.973Z" fill="#2B7A78"/>
<path opacity="0.15" d="M273.798 207.973L267.204 204.178C267.204 204.178 265.592 190.101 266.665 179.199C268.173 163.88 278.094 145.442 289.926 149.775C301.757 154.109 284.501 169.704 280.661 182.697C276.821 195.691 273.798 207.973 273.798 207.973Z" fill="black"/>
<path d="M270.332 206.379C270.437 206.374 270.536 206.327 270.607 206.25C270.678 206.173 270.716 206.07 270.712 205.965C269.557 171.926 286.549 154.799 286.715 154.633C286.791 154.558 286.833 154.456 286.833 154.35C286.833 154.244 286.791 154.142 286.715 154.067C286.679 154.03 286.635 154.001 286.587 153.981C286.539 153.961 286.487 153.951 286.435 153.951C286.383 153.951 286.332 153.961 286.283 153.981C286.235 154.001 286.192 154.03 286.155 154.067C285.975 154.233 268.74 171.608 269.91 205.993C269.911 206.046 269.924 206.098 269.946 206.147C269.968 206.195 270 206.238 270.039 206.274C270.079 206.31 270.125 206.338 270.175 206.356C270.225 206.374 270.278 206.382 270.332 206.379Z" fill="white"/>
<path d="M277.942 210.34L273.251 207.642C273.251 207.642 272.449 197.982 277.202 186.251C281.353 176.038 291.593 167.558 296.755 169.338C301.916 171.118 301.785 174.769 299.266 178.598C296.748 182.428 281.45 191.543 277.942 210.34Z" fill="#2B7A78"/>
<path d="M275.465 209.319C275.571 209.317 275.672 209.274 275.747 209.2C275.822 209.125 275.865 209.024 275.867 208.919C275.77 187.389 296.035 172.843 296.243 172.698C296.286 172.669 296.323 172.631 296.351 172.587C296.379 172.543 296.398 172.493 296.406 172.442C296.414 172.39 296.412 172.337 296.4 172.286C296.387 172.236 296.364 172.188 296.333 172.146C296.271 172.061 296.179 172.003 296.076 171.985C295.972 171.967 295.866 171.99 295.779 172.05C295.571 172.195 274.974 186.989 275.064 208.919C275.064 209.025 275.106 209.127 275.182 209.202C275.257 209.277 275.359 209.319 275.465 209.319Z" fill="white"/>
<path d="M29.827 199.52L35.9156 195.421C35.9156 195.421 38.5931 179.551 36.1024 165.55C32.6015 145.911 18.9922 139.383 14.149 141.453C9.30586 143.524 8.26804 149.368 17.3109 160.574C22.673 167.164 29.6402 181.234 29.827 199.52Z" fill="#2B7A78"/>
<g opacity="0.15">
<path d="M29.827 199.52L35.9156 195.421C35.9156 195.421 38.5931 179.551 36.1024 165.55C32.6015 145.911 18.9922 139.383 14.149 141.453C9.30586 143.524 8.26804 149.368 17.3109 160.574C22.673 167.164 29.6402 181.234 29.827 199.52Z" fill="black"/>
</g>
<path d="M31.9166 191.654H31.8543C31.7921 191.65 31.7315 191.633 31.6763 191.604C31.6211 191.575 31.5727 191.535 31.5342 191.486C31.4956 191.437 31.4679 191.381 31.4527 191.321C31.4375 191.26 31.4353 191.198 31.4461 191.136C33.6463 172.65 25.8211 152.584 17.3041 144.6C17.2221 144.517 17.1761 144.406 17.1761 144.29C17.1761 144.173 17.2221 144.062 17.3041 143.979C17.3447 143.938 17.3931 143.905 17.4466 143.883C17.5 143.86 17.5574 143.849 17.6154 143.849C17.6734 143.849 17.7308 143.86 17.7843 143.883C17.8378 143.905 17.8862 143.938 17.9268 143.979C26.603 152.108 34.5734 172.505 32.3456 191.261C32.3325 191.366 32.2822 191.464 32.2036 191.536C32.125 191.608 32.0233 191.65 31.9166 191.654Z" fill="white"/>
<path d="M13.8862 210.244C12.9175 210.823 10.0946 208.732 9.31283 208.229C7.97292 207.356 6.88146 206.153 6.14402 204.737C5.31672 203.131 5.0097 201.308 5.26533 199.52C5.40703 198.587 5.61277 197.665 5.8811 196.76C6.12326 195.856 6.36542 194.952 6.57298 194.041C6.87982 193.155 6.99765 192.215 6.91892 191.281C6.64909 189.439 4.98166 188.176 3.45952 187.093C1.78517 185.885 0.00012207 184.291 0.00012207 182.069C0.0854729 180.323 0.755419 178.657 1.90279 177.336C2.94061 175.955 4.186 174.755 5.12003 173.313C5.85042 172.313 6.2232 171.098 6.17861 169.862C6.05833 169.101 5.78537 168.371 5.37603 167.716C4.55961 166.281 3.50103 164.956 2.92677 163.431C2.35251 161.906 2.39403 159.947 3.61865 158.808C4.5942 157.876 6.08175 157.725 7.43091 157.787C8.70224 157.913 9.93034 158.316 11.0287 158.967C14.6057 160.864 16.709 165.005 20.4936 166.447C21.9535 166.999 23.5448 167.095 25.06 167.468C26.5752 167.841 28.1389 168.579 28.8654 169.952C30.2975 172.678 27.7999 176.114 28.8238 179.005C29.7371 181.572 32.2832 182.511 33.7224 184.809C34.3064 185.829 34.5488 187.009 34.4142 188.176C34.3331 190.147 33.8898 192.086 33.1066 193.897C32.2057 195.775 31.189 197.595 30.0623 199.348C30.0623 199.348 14.0314 210.154 13.8862 210.244Z" fill="#2B7A78"/>
<path d="M23.2405 204.523C23.1823 204.522 23.1249 204.51 23.0715 204.487C23.0181 204.464 22.9698 204.431 22.9294 204.389C22.8889 204.347 22.857 204.298 22.8356 204.244C22.8142 204.19 22.8037 204.133 22.8046 204.075C23.192 186.603 14.5712 167.502 8.46883 161.982C8.3821 161.904 8.32979 161.795 8.32331 161.679C8.31683 161.562 8.3567 161.448 8.43424 161.361C8.47482 161.32 8.52326 161.287 8.57672 161.265C8.63018 161.242 8.68759 161.231 8.74558 161.231C8.80357 161.231 8.86098 161.242 8.91444 161.265C8.9679 161.287 9.01634 161.32 9.05693 161.361C15.2838 166.95 24.0776 186.382 23.6833 204.095C23.6824 204.152 23.6702 204.209 23.6475 204.261C23.6247 204.314 23.5918 204.361 23.5507 204.401C23.5096 204.44 23.461 204.472 23.4078 204.493C23.3546 204.514 23.2977 204.524 23.2405 204.523Z" fill="white"/>
<path d="M20.0093 183.235C19.9685 183.246 19.9257 183.246 19.8848 183.235C14.2252 181.607 7.20956 181.441 7.14037 181.434C7.08253 181.433 7.02545 181.421 6.97244 181.398C6.91944 181.375 6.87158 181.342 6.83166 181.3C6.79173 181.258 6.76053 181.209 6.73989 181.155C6.71924 181.101 6.70956 181.044 6.7114 180.986C6.71032 180.928 6.72137 180.87 6.74387 180.816C6.76636 180.762 6.7998 180.714 6.84208 180.673C6.88435 180.633 6.93454 180.602 6.98945 180.582C7.04437 180.562 7.10283 180.554 7.16113 180.558C7.23031 180.558 14.3567 180.731 20.127 182.387C20.2385 182.42 20.3322 182.496 20.3879 182.598C20.4436 182.7 20.4567 182.82 20.4245 182.932C20.3975 183.02 20.3425 183.098 20.2676 183.153C20.1928 183.207 20.1022 183.236 20.0093 183.235Z" fill="white"/>
<path d="M183.078 187.507L180.456 185.996C180.019 185.713 179.656 185.331 179.395 184.881C179.134 184.432 178.983 183.927 178.955 183.408V74.7129C178.983 74.195 179.133 73.6911 179.393 73.2416C179.653 72.7921 180.014 72.4098 180.449 72.1253L253.339 30.1571C253.803 29.9224 254.316 29.8002 254.837 29.8002C255.357 29.8002 255.87 29.9224 256.335 30.1571L258.957 31.6682C259.394 31.9512 259.758 32.333 260.018 32.7827C260.279 33.2323 260.43 33.7371 260.458 34.2559V142.951C260.43 143.469 260.28 143.973 260.02 144.422C259.76 144.872 259.399 145.254 258.964 145.539L186.074 187.514C185.61 187.749 185.096 187.871 184.576 187.87C184.055 187.868 183.542 187.744 183.078 187.507Z" fill="#455A64"/>
<path d="M260.458 34.0144C260.355 33.2415 259.725 32.9586 258.971 33.3933L186.074 75.3685C185.634 75.6443 185.269 76.0264 185.016 76.4794L179.391 73.2431C179.642 72.7866 180.007 72.4019 180.449 72.1253L253.339 30.1571C253.803 29.9224 254.316 29.8002 254.837 29.8002C255.357 29.8002 255.87 29.9224 256.335 30.1571L258.957 31.6682C259.362 31.9283 259.706 32.2726 259.965 32.6775C260.224 33.0825 260.392 33.5385 260.458 34.0144Z" fill="#455A64"/>
<path d="M185.818 187.631C185.375 187.81 184.899 187.892 184.422 187.872C183.944 187.852 183.477 187.729 183.051 187.514L180.422 185.996C179.987 185.711 179.625 185.329 179.365 184.879C179.106 184.43 178.956 183.926 178.927 183.408V74.7129C178.945 74.194 179.095 73.6882 179.363 73.2431L184.988 76.4794C184.715 76.9251 184.562 77.4339 184.545 77.9561V186.651C184.573 187.507 185.113 187.9 185.818 187.631Z" fill="#263238"/>
<path d="M184.573 77.9699V186.651C184.573 187.603 185.265 187.99 186.074 187.514L258.964 145.539C259.399 145.254 259.76 144.872 260.02 144.422C260.28 143.973 260.43 143.469 260.458 142.951V34.2558C260.458 33.3036 259.766 32.9172 258.964 33.3933L186.074 75.3684C185.636 75.6527 185.271 76.0367 185.01 76.4889C184.749 76.9412 184.599 77.4487 184.573 77.9699Z" fill="#37474F"/>
<path d="M167.553 119.372C166.612 118.813 162.246 116.336 162.018 116.205C161.84 116.099 161.688 115.955 161.573 115.783C161.459 115.61 161.385 115.415 161.356 115.21C161.328 115.005 161.345 114.797 161.408 114.6C161.471 114.403 161.578 114.223 161.72 114.073L178.955 95.6349L184.573 98.8505L167.345 117.302C167.21 117.446 167.107 117.617 167.043 117.803C166.98 117.99 166.957 118.188 166.977 118.384C166.997 118.58 167.058 118.77 167.157 118.94C167.257 119.111 167.392 119.258 167.553 119.372Z" fill="#455A64"/>
<path d="M184.573 98.8712L167.345 117.302C167.154 117.506 167.029 117.763 166.987 118.039C166.945 118.315 166.988 118.597 167.11 118.848C167.232 119.099 167.428 119.307 167.671 119.445C167.915 119.583 168.194 119.644 168.473 119.621L184.573 118.296V98.8712Z" fill="#37474F"/>
<path d="M222.516 65.6871C231.012 60.7947 237.896 64.7625 237.896 74.5472C237.896 84.332 231.012 96.2214 222.516 101.114C214.019 106.006 207.135 102.038 207.135 92.2606C207.135 82.4827 214.019 70.5795 222.516 65.6871Z" fill="#2B7A78"/>
<path d="M222.405 73.388C225.172 71.8009 227.393 73.0844 227.393 76.2586C227.299 77.984 226.798 79.663 225.932 81.1593C225.065 82.6555 223.857 83.9269 222.405 84.8703C219.637 86.4574 217.41 85.1739 217.41 81.9997C217.505 80.2736 218.006 78.5943 218.874 77.098C219.742 75.6016 220.952 74.3306 222.405 73.388Z" fill="white"/>
<path d="M232.244 90.3078C232.244 85.098 228.57 82.9796 224.045 85.5879L221.215 87.2164C216.69 89.8247 213.016 96.1869 213.016 101.383V102.811C213.871 103.084 214.762 103.221 215.659 103.218C218.087 103.136 220.45 102.423 222.516 101.148C226.449 98.7322 229.776 95.4514 232.244 91.5568V90.3078Z" fill="white"/>
<path d="M212.774 149.548L232.257 138.328C233.088 137.851 233.759 138.238 233.759 139.19V145.449C233.73 145.968 233.58 146.472 233.319 146.922C233.058 147.372 232.694 147.754 232.257 148.036L212.774 159.257C211.944 159.733 211.273 159.346 211.273 158.394V152.135C211.301 151.617 211.452 151.112 211.712 150.662C211.973 150.212 212.337 149.831 212.774 149.548Z" fill="#2B7A78"/>
<path d="M203.233 135.567L241.778 113.362C242.767 112.789 243.577 113.252 243.577 114.397V116.722C243.543 117.345 243.362 117.95 243.05 118.49C242.737 119.029 242.301 119.488 241.778 119.828L203.212 142.033C202.223 142.606 201.42 142.144 201.42 140.998V138.693C201.452 138.066 201.633 137.456 201.948 136.912C202.263 136.368 202.704 135.908 203.233 135.567Z" fill="#FAFAFA"/>
<path d="M207.744 119.496C208.27 119.193 208.678 119.145 208.969 119.358C209.259 119.572 209.405 120.049 209.405 120.78C209.419 121.448 209.27 122.109 208.969 122.705C208.697 123.244 208.271 123.691 207.744 123.989L206.706 124.589V126.818C206.704 126.895 206.685 126.97 206.651 127.039C206.626 127.101 206.583 127.154 206.526 127.19L206.001 127.494C205.983 127.507 205.961 127.515 205.938 127.515C205.916 127.515 205.894 127.507 205.876 127.494C205.839 127.447 205.821 127.388 205.828 127.328V120.877C205.827 120.8 205.843 120.725 205.876 120.656C205.902 120.594 205.945 120.542 206.001 120.504L207.744 119.496ZM206.706 123.34L207.709 122.76C207.952 122.624 208.156 122.43 208.304 122.195C208.462 121.917 208.538 121.602 208.526 121.284C208.526 120.911 208.45 120.697 208.304 120.635C208.202 120.61 208.095 120.609 207.992 120.632C207.889 120.654 207.792 120.7 207.709 120.766L206.706 121.346V123.34Z" fill="#FAFAFA"/>
<path d="M212.303 116.867C212.373 116.826 212.428 116.826 212.463 116.867C212.507 116.929 212.538 117 212.553 117.074L214.151 122.471C214.151 122.471 214.151 122.512 214.151 122.533C214.15 122.61 214.131 122.685 214.095 122.753C214.071 122.816 214.027 122.869 213.971 122.905L213.5 123.174C213.417 123.223 213.355 123.23 213.321 123.174C213.287 123.14 213.263 123.097 213.251 123.05L212.968 122.105L210.892 123.292L210.615 124.561C210.596 124.63 210.57 124.697 210.539 124.761C210.505 124.846 210.441 124.914 210.359 124.955L209.889 125.224C209.871 125.238 209.849 125.246 209.827 125.246C209.804 125.246 209.782 125.238 209.764 125.224C209.728 125.179 209.711 125.122 209.716 125.065C209.712 125.04 209.712 125.014 209.716 124.989L211.307 117.758C211.326 117.651 211.356 117.547 211.397 117.447C211.431 117.375 211.487 117.314 211.556 117.275L212.303 116.867ZM212.663 121.049L211.971 118.613L211.28 121.87L212.663 121.049Z" fill="#FAFAFA"/>
<path d="M216.572 114.307C216.804 114.162 217.068 114.074 217.34 114.052C217.533 114.035 217.727 114.078 217.894 114.176C218.046 114.275 218.164 114.417 218.233 114.583C218.309 114.753 218.351 114.936 218.358 115.122C218.362 115.198 218.345 115.275 218.309 115.342C218.285 115.405 218.241 115.458 218.185 115.494L217.728 115.756C217.652 115.798 217.596 115.805 217.562 115.756C217.519 115.728 217.483 115.691 217.458 115.646C217.43 115.584 217.39 115.528 217.34 115.482C217.29 115.436 217.232 115.4 217.167 115.377C216.957 115.347 216.743 115.401 216.572 115.529C216.46 115.601 216.354 115.682 216.254 115.77C216.151 115.865 216.061 115.971 215.984 116.088C215.911 116.2 215.85 116.32 215.804 116.446C215.764 116.567 215.743 116.692 215.742 116.819C215.734 116.935 215.755 117.052 215.804 117.157C215.826 117.194 215.856 117.226 215.892 117.248C215.928 117.271 215.969 117.285 216.012 117.288C216.14 117.31 216.271 117.31 216.4 117.288L217.001 117.157C217.226 117.091 217.46 117.063 217.693 117.074C217.86 117.074 218.023 117.127 218.157 117.226C218.284 117.333 218.375 117.474 218.42 117.633C218.488 117.857 218.518 118.09 218.51 118.323C218.509 118.632 218.465 118.938 218.378 119.234C218.294 119.539 218.171 119.831 218.012 120.104C217.844 120.383 217.644 120.643 217.417 120.877C217.184 121.117 216.918 121.324 216.628 121.491C216.415 121.62 216.181 121.711 215.936 121.76C215.737 121.798 215.531 121.781 215.341 121.712C215.168 121.631 215.025 121.498 214.933 121.332C214.82 121.119 214.758 120.883 214.753 120.642C214.752 120.563 214.769 120.486 214.801 120.414C214.832 120.355 214.877 120.306 214.933 120.269L215.389 120.007C215.459 119.966 215.514 119.952 215.555 119.973C215.597 119.993 215.625 120.028 215.652 120.09C215.681 120.161 215.718 120.228 215.763 120.29C215.806 120.35 215.866 120.396 215.936 120.421C216.027 120.442 216.122 120.442 216.213 120.421C216.36 120.387 216.5 120.328 216.628 120.249C216.762 120.172 216.889 120.085 217.008 119.986C217.241 119.803 217.426 119.566 217.548 119.296C217.603 119.158 217.632 119.011 217.631 118.862C217.638 118.808 217.633 118.753 217.617 118.701C217.602 118.648 217.576 118.6 217.541 118.558C217.504 118.525 217.46 118.501 217.412 118.486C217.364 118.472 217.314 118.468 217.264 118.475C217.107 118.482 216.952 118.507 216.801 118.551C216.621 118.593 216.413 118.641 216.171 118.682C215.986 118.728 215.794 118.742 215.604 118.724C215.454 118.714 215.312 118.653 215.203 118.551C215.083 118.434 214.999 118.286 214.96 118.123C214.905 117.884 214.879 117.638 214.884 117.392C214.884 117.088 214.928 116.786 215.016 116.495C215.098 116.195 215.219 115.908 215.376 115.639C215.525 115.372 215.706 115.125 215.915 114.901C216.105 114.673 216.326 114.473 216.572 114.307Z" fill="#FAFAFA"/>
<path d="M221.118 111.699C221.348 111.549 221.612 111.459 221.886 111.437C222.079 111.42 222.272 111.464 222.44 111.561C222.587 111.662 222.703 111.803 222.772 111.968C222.847 112.138 222.889 112.321 222.896 112.506C222.904 112.583 222.887 112.661 222.848 112.727C222.823 112.79 222.78 112.843 222.723 112.879L222.267 113.141C222.197 113.183 222.142 113.196 222.101 113.141C222.056 113.114 222.022 113.072 222.004 113.024C221.94 112.903 221.834 112.809 221.706 112.762C221.603 112.747 221.498 112.752 221.397 112.778C221.296 112.804 221.201 112.85 221.118 112.913C221.002 112.984 220.894 113.065 220.793 113.155C220.692 113.249 220.604 113.356 220.53 113.472C220.454 113.583 220.393 113.704 220.35 113.831C220.307 113.951 220.284 114.077 220.281 114.204C220.273 114.32 220.294 114.436 220.343 114.542C220.364 114.579 220.394 114.61 220.431 114.633C220.467 114.656 220.508 114.67 220.551 114.673C220.679 114.695 220.81 114.695 220.938 114.673L221.54 114.542C221.765 114.479 221.998 114.452 222.232 114.459C222.399 114.458 222.562 114.511 222.696 114.611C222.822 114.719 222.916 114.86 222.965 115.018C223.026 115.243 223.054 115.475 223.048 115.708C223.048 116.016 223.004 116.323 222.917 116.619C222.832 116.923 222.709 117.215 222.55 117.488C222.384 117.771 222.184 118.033 221.955 118.268C221.722 118.503 221.459 118.707 221.173 118.875C220.96 119.004 220.726 119.095 220.482 119.145C220.285 119.182 220.081 119.165 219.893 119.096C219.717 119.019 219.571 118.885 219.478 118.717C219.365 118.504 219.305 118.267 219.305 118.027C219.297 117.95 219.314 117.872 219.354 117.806C219.378 117.743 219.422 117.69 219.478 117.654L219.935 117.392C220.004 117.35 220.066 117.337 220.101 117.357C220.125 117.368 220.146 117.384 220.163 117.405C220.18 117.425 220.192 117.449 220.198 117.475C220.229 117.544 220.266 117.611 220.309 117.675C220.354 117.735 220.417 117.781 220.488 117.806C220.58 117.827 220.674 117.827 220.765 117.806C220.912 117.771 221.052 117.713 221.18 117.633C221.311 117.555 221.436 117.468 221.554 117.371C221.675 117.277 221.783 117.165 221.872 117.04C221.962 116.921 222.036 116.791 222.094 116.653C222.149 116.515 222.177 116.368 222.177 116.219C222.183 116.165 222.179 116.11 222.163 116.058C222.148 116.006 222.122 115.957 222.087 115.915C222.049 115.882 222.005 115.858 221.957 115.844C221.91 115.829 221.859 115.825 221.81 115.832C221.656 115.842 221.502 115.867 221.353 115.908C221.173 115.95 220.959 115.998 220.724 116.039C220.536 116.086 220.342 116.1 220.149 116.081C219.999 116.073 219.857 116.012 219.748 115.908C219.631 115.791 219.549 115.642 219.513 115.48C219.451 115.244 219.423 115 219.43 114.756C219.432 114.45 219.477 114.146 219.561 113.852C219.647 113.554 219.768 113.266 219.921 112.996C220.071 112.728 220.255 112.48 220.468 112.258C220.654 112.039 220.873 111.85 221.118 111.699Z" fill="#FAFAFA"/>
<path d="M226.162 112.562L225.601 115.867C225.585 115.966 225.557 116.064 225.518 116.157C225.492 116.231 225.44 116.294 225.373 116.336L224.847 116.64C224.778 116.681 224.73 116.681 224.695 116.64C224.649 116.583 224.622 116.513 224.619 116.44L223.789 110.609C223.789 110.609 223.789 110.554 223.789 110.533C223.791 110.456 223.81 110.381 223.844 110.312C223.87 110.251 223.913 110.198 223.969 110.16L224.446 109.884C224.486 109.868 224.531 109.868 224.571 109.884C224.612 109.884 224.64 109.939 224.654 110.05L225.2 113.976L225.678 111.03C225.69 110.956 225.711 110.884 225.74 110.816C225.767 110.729 225.826 110.655 225.906 110.609L226.439 110.298C226.515 110.257 226.57 110.264 226.605 110.298C226.635 110.342 226.656 110.391 226.667 110.443L227.151 112.838L227.698 108.283C227.704 108.194 227.73 108.107 227.774 108.028C227.806 107.976 227.849 107.932 227.898 107.897L228.376 107.621C228.394 107.607 228.416 107.6 228.438 107.6C228.461 107.6 228.482 107.607 228.5 107.621C228.52 107.644 228.535 107.67 228.545 107.698C228.554 107.727 228.558 107.757 228.556 107.787C228.558 107.814 228.558 107.842 228.556 107.869L227.725 114.652C227.712 114.752 227.686 114.849 227.649 114.942C227.618 115.016 227.565 115.078 227.497 115.122L226.964 115.425C226.902 115.46 226.854 115.46 226.819 115.425C226.784 115.362 226.756 115.295 226.736 115.225L226.162 112.562Z" fill="#FAFAFA"/>
<path d="M229.4 109.636C229.415 109.253 229.462 108.872 229.538 108.497C229.617 108.131 229.738 107.774 229.898 107.435C230.051 107.105 230.246 106.796 230.479 106.517C230.716 106.24 230.999 106.006 231.316 105.827C231.56 105.662 231.845 105.569 232.14 105.558C232.36 105.56 232.57 105.647 232.728 105.799C232.895 105.987 233.016 106.212 233.081 106.455C233.17 106.772 233.219 107.099 233.226 107.428C233.226 107.552 233.226 107.69 233.226 107.842C233.226 107.994 233.226 108.152 233.226 108.318C233.226 108.483 233.226 108.642 233.226 108.794C233.226 108.946 233.226 109.091 233.226 109.222C233.211 109.602 233.165 109.981 233.088 110.353C233.008 110.719 232.889 111.075 232.735 111.416C232.578 111.745 232.38 112.053 232.147 112.334C231.91 112.608 231.63 112.841 231.316 113.024C231.067 113.188 230.778 113.281 230.479 113.293C230.372 113.295 230.264 113.276 230.165 113.235C230.065 113.195 229.974 113.135 229.898 113.058C229.718 112.865 229.593 112.627 229.538 112.368C229.456 112.05 229.409 111.724 229.4 111.395C229.4 111.271 229.4 111.133 229.4 110.981C229.4 110.83 229.4 110.671 229.4 110.505C229.4 110.34 229.4 110.188 229.4 110.029C229.4 109.87 229.393 109.76 229.4 109.636ZM232.347 107.987C232.363 107.818 232.344 107.648 232.291 107.486C232.239 107.325 232.155 107.176 232.043 107.048C231.863 106.889 231.614 106.896 231.316 107.048C230.993 107.237 230.737 107.522 230.583 107.862C230.387 108.265 230.283 108.705 230.279 109.153C230.279 109.408 230.279 109.691 230.279 110.002C230.279 110.312 230.279 110.588 230.279 110.836C230.263 111.005 230.282 111.175 230.335 111.337C230.387 111.498 230.471 111.647 230.583 111.775C230.763 111.927 231.012 111.913 231.316 111.74C231.634 111.55 231.887 111.269 232.043 110.933C232.239 110.533 232.343 110.095 232.347 109.65C232.347 109.387 232.347 109.104 232.347 108.794C232.347 108.483 232.354 108.235 232.347 107.987Z" fill="#FAFAFA"/>
<path d="M236.243 103.074C236.789 102.763 237.197 102.715 237.481 102.942C237.649 103.127 237.774 103.347 237.847 103.585C237.92 103.824 237.939 104.076 237.903 104.322C237.909 104.791 237.836 105.258 237.689 105.703C237.548 106.117 237.33 106.501 237.045 106.834L237.945 108.787C237.948 108.819 237.948 108.852 237.945 108.884C237.945 108.946 237.931 109.007 237.903 109.063C237.884 109.113 237.85 109.156 237.806 109.187L237.253 109.505C237.163 109.553 237.101 109.56 237.059 109.505C237.022 109.468 236.992 109.427 236.969 109.38L236.118 107.538L235.253 108.035V110.367C235.254 110.444 235.237 110.519 235.205 110.588C235.176 110.648 235.134 110.7 235.08 110.74L234.554 111.043C234.537 111.058 234.515 111.066 234.492 111.066C234.469 111.066 234.447 111.058 234.43 111.043C234.41 111.022 234.395 110.997 234.385 110.97C234.376 110.943 234.372 110.914 234.374 110.885V104.433C234.377 104.356 234.395 104.281 234.43 104.212C234.454 104.15 234.498 104.097 234.554 104.06L236.243 103.074ZM235.267 106.786L236.243 106.262C236.481 106.129 236.685 105.942 236.838 105.716C236.998 105.45 237.075 105.143 237.059 104.833C237.059 104.46 236.983 104.253 236.838 104.212C236.627 104.184 236.414 104.238 236.243 104.364L235.302 104.902L235.267 106.786Z" fill="#FAFAFA"/>
<path d="M240.878 100.417C241.129 100.253 241.417 100.154 241.715 100.127C241.932 100.119 242.143 100.196 242.303 100.341C242.487 100.533 242.614 100.772 242.67 101.031C242.763 101.373 242.814 101.725 242.822 102.08C242.822 102.563 242.822 103.06 242.822 103.563C242.808 103.974 242.757 104.383 242.67 104.785C242.591 105.158 242.47 105.522 242.31 105.868C242.156 106.186 241.961 106.483 241.729 106.751C241.498 107.026 241.222 107.259 240.913 107.441L239.273 108.332C239.256 108.346 239.234 108.354 239.211 108.354C239.188 108.354 239.166 108.346 239.148 108.332C239.128 108.311 239.113 108.286 239.103 108.258C239.094 108.231 239.09 108.202 239.093 108.173V101.721C239.095 101.644 239.114 101.569 239.148 101.5C239.173 101.438 239.216 101.385 239.273 101.348L240.878 100.417ZM241.944 102.563C241.941 102.376 241.913 102.19 241.861 102.011C241.828 101.875 241.759 101.751 241.66 101.652C241.617 101.609 241.565 101.575 241.508 101.552C241.45 101.53 241.389 101.519 241.328 101.521C241.155 101.532 240.988 101.59 240.844 101.687L239.972 102.183V106.682L240.878 106.165C241.053 106.063 241.21 105.932 241.342 105.778C241.471 105.627 241.58 105.46 241.667 105.282C241.753 105.092 241.818 104.892 241.861 104.688C241.909 104.475 241.937 104.258 241.944 104.04C241.964 103.536 241.964 103.046 241.944 102.563Z" fill="#FAFAFA"/>
<path d="M145.869 0.264481C147.064 0.529511 148.214 0.961613 149.287 1.54796C150.315 2.0988 151.235 2.82784 152.006 3.70088C152.744 4.5407 153.291 5.52919 153.611 6.59905C153.938 7.74426 153.962 8.95424 153.681 10.1114C153.495 11.0288 153.131 11.9009 152.608 12.6783C152.131 13.3431 151.563 13.9377 150.92 14.4448C150.289 14.9337 149.615 15.3655 148.907 15.7352L146.914 16.7909C146.314 17.1032 145.744 17.4705 145.212 17.8881C144.731 18.2563 144.362 18.7509 144.147 19.3165C144.041 19.5749 143.866 19.7993 143.641 19.9651C143.535 20.0476 143.411 20.1047 143.279 20.1322C143.147 20.1597 143.011 20.1569 142.88 20.1238L139.947 19.4752C139.806 19.4457 139.672 19.3883 139.553 19.3066C139.434 19.2248 139.333 19.1203 139.255 18.9991C139.172 18.8864 139.117 18.7558 139.094 18.6179C139.071 18.4801 139.081 18.3388 139.123 18.2055C139.36 17.2994 139.776 16.4499 140.348 15.7076C140.87 15.0509 141.475 14.4641 142.147 13.9618C142.802 13.4835 143.496 13.0611 144.223 12.699C144.915 12.3471 145.606 12.009 146.208 11.6708C146.768 11.3707 147.295 11.0122 147.779 10.6013C148.204 10.2466 148.498 9.76109 148.616 9.2212C148.726 8.75238 148.721 8.26394 148.6 7.79768C148.48 7.33142 148.248 6.90121 147.924 6.54385C147.115 5.66287 146.034 5.07742 144.852 4.88085C142.666 4.39782 140.821 5.13156 139.317 7.08208C139.172 7.29499 138.989 7.47972 138.778 7.62721C138.539 7.74528 138.263 7.7651 138.01 7.68241L134.889 6.99237C134.667 6.94948 134.47 6.82048 134.343 6.63355C134.275 6.53368 134.229 6.42036 134.208 6.3013C134.188 6.18223 134.194 6.06021 134.225 5.94351C134.49 4.98466 134.984 4.10399 135.664 3.37656C136.431 2.53296 137.342 1.83202 138.356 1.30644C139.463 0.728463 140.657 0.332358 141.891 0.133374C143.213 -0.081097 144.564 -0.0365655 145.869 0.264481ZM142.555 22.47C142.83 22.5342 143.068 22.7031 143.219 22.9403C143.371 23.1776 143.423 23.4645 143.365 23.7396L142.617 27.1208C142.592 27.2624 142.537 27.3971 142.456 27.516C142.375 27.6349 142.27 27.7354 142.147 27.8109C142.031 27.8905 141.9 27.9452 141.762 27.9713C141.624 27.9974 141.481 27.9945 141.344 27.9627L137.996 27.1967C137.853 27.1728 137.718 27.1185 137.598 27.0375C137.479 26.9565 137.379 26.8508 137.304 26.7275C137.226 26.611 137.173 26.4799 137.148 26.3422C137.123 26.2046 137.127 26.0633 137.159 25.9271L137.913 22.5459C137.977 22.2718 138.146 22.0335 138.384 21.8815C138.621 21.7295 138.909 21.6758 139.186 21.7316L142.555 22.47Z" fill="#2B7A78"/>
<path d="M149.564 32.6343C150.397 32.501 151.245 32.4847 152.082 32.586C152.882 32.6808 153.66 32.9144 154.379 33.276C155.064 33.6306 155.668 34.1242 156.15 34.7251C156.584 35.3132 156.89 35.9855 157.047 36.6987C157.204 37.4118 157.21 38.1499 157.064 38.8653C156.932 39.4154 156.72 39.9432 156.434 40.4317C156.159 40.9069 155.839 41.3552 155.479 41.7704C155.126 42.1844 154.787 42.5778 154.476 42.9573C154.171 43.3109 153.9 43.692 153.667 44.0958C153.447 44.4498 153.337 44.8599 153.348 45.2758C153.342 45.4702 153.288 45.6599 153.189 45.8278C153.139 45.9052 153.073 45.9711 152.996 46.021C152.918 46.071 152.831 46.1039 152.739 46.1177L150.664 46.4489C150.567 46.4664 150.467 46.4645 150.371 46.4432C150.275 46.4218 150.184 46.3815 150.103 46.3247C150.022 46.2734 149.953 46.2035 149.904 46.1207C149.855 46.0379 149.826 45.9446 149.82 45.8485C149.733 45.2064 149.78 44.5533 149.958 43.9302C150.121 43.3786 150.353 42.8499 150.65 42.3569C150.941 41.8838 151.274 41.4381 151.646 41.0252C152.013 40.6111 152.338 40.2247 152.656 39.8521C152.941 39.5193 153.187 39.1559 153.39 38.7687C153.57 38.4354 153.636 38.0525 153.577 37.6785C153.525 37.3493 153.394 37.0375 153.195 36.7696C152.996 36.5017 152.735 36.2856 152.435 36.1397C151.691 35.7813 150.849 35.6794 150.041 35.8499C149.309 35.9566 148.629 36.2864 148.092 36.7942C147.556 37.3019 147.19 37.9627 147.045 38.6859C147.005 38.8599 146.935 39.0256 146.838 39.1759C146.714 39.3068 146.547 39.3879 146.367 39.4036L144.181 39.7555C144.027 39.7848 143.868 39.7526 143.738 39.6658C143.671 39.6201 143.615 39.5608 143.574 39.4918C143.532 39.4228 143.505 39.3456 143.496 39.2656C143.431 38.5808 143.538 37.8907 143.807 37.2575C144.081 36.5208 144.484 35.8385 144.997 35.2426C145.56 34.5902 146.223 34.0311 146.962 33.5865C147.76 33.1043 148.643 32.7809 149.564 32.6343ZM153.134 47.7116C153.229 47.6966 153.326 47.7004 153.42 47.7229C153.514 47.7454 153.602 47.7861 153.68 47.8428C153.762 47.8962 153.831 47.9663 153.884 48.0483C153.936 48.1304 153.971 48.2226 153.985 48.3189L154.372 50.6857C154.402 50.8777 154.355 51.0738 154.241 51.2314C154.127 51.3889 153.956 51.4954 153.763 51.5276L151.446 51.9071C151.253 51.9368 151.057 51.8897 150.899 51.776C150.819 51.7218 150.751 51.6515 150.7 51.5694C150.648 51.4874 150.615 51.3956 150.602 51.2999L150.214 48.933C150.197 48.838 150.199 48.7404 150.222 48.6465C150.244 48.5526 150.287 48.4645 150.346 48.3879C150.4 48.3078 150.47 48.2401 150.553 48.189C150.635 48.1378 150.727 48.1045 150.823 48.0912L153.134 47.7116Z" fill="#2B7A78"/>
<g opacity="0.2">
<path d="M149.564 32.6343C150.397 32.501 151.245 32.4847 152.082 32.586C152.882 32.6808 153.66 32.9144 154.379 33.276C155.064 33.6306 155.668 34.1242 156.15 34.7251C156.584 35.3132 156.89 35.9855 157.047 36.6987C157.204 37.4118 157.21 38.1499 157.064 38.8653C156.932 39.4154 156.72 39.9432 156.434 40.4317C156.159 40.9069 155.839 41.3552 155.479 41.7704C155.126 42.1844 154.787 42.5778 154.476 42.9573C154.171 43.3109 153.9 43.692 153.667 44.0958C153.447 44.4498 153.337 44.8599 153.348 45.2758C153.342 45.4702 153.288 45.6599 153.189 45.8278C153.139 45.9052 153.073 45.9711 152.996 46.021C152.918 46.071 152.831 46.1039 152.739 46.1177L150.664 46.4489C150.567 46.4664 150.467 46.4645 150.371 46.4432C150.275 46.4218 150.184 46.3815 150.103 46.3247C150.022 46.2734 149.953 46.2035 149.904 46.1207C149.855 46.0379 149.826 45.9446 149.82 45.8485C149.733 45.2064 149.78 44.5533 149.958 43.9302C150.121 43.3786 150.353 42.8499 150.65 42.3569C150.941 41.8838 151.274 41.4381 151.646 41.0252C152.013 40.6111 152.338 40.2247 152.656 39.8521C152.941 39.5193 153.187 39.1559 153.39 38.7687C153.57 38.4354 153.636 38.0525 153.577 37.6785C153.525 37.3493 153.394 37.0375 153.195 36.7696C152.996 36.5017 152.735 36.2856 152.435 36.1397C151.691 35.7813 150.849 35.6794 150.041 35.8499C149.309 35.9566 148.629 36.2864 148.092 36.7942C147.556 37.3019 147.19 37.9627 147.045 38.6859C147.005 38.8599 146.935 39.0256 146.838 39.1759C146.714 39.3068 146.547 39.3879 146.367 39.4036L144.181 39.7555C144.027 39.7848 143.868 39.7526 143.738 39.6658C143.671 39.6201 143.615 39.5608 143.574 39.4918C143.532 39.4228 143.505 39.3456 143.496 39.2656C143.431 38.5808 143.538 37.8907 143.807 37.2575C144.081 36.5208 144.484 35.8385 144.997 35.2426C145.56 34.5902 146.223 34.0311 146.962 33.5865C147.76 33.1043 148.643 32.7809 149.564 32.6343ZM153.134 47.7116C153.229 47.6966 153.326 47.7004 153.42 47.7229C153.514 47.7454 153.602 47.7861 153.68 47.8428C153.762 47.8962 153.831 47.9663 153.884 48.0483C153.936 48.1304 153.971 48.2226 153.985 48.3189L154.372 50.6857C154.402 50.8777 154.355 51.0738 154.241 51.2314C154.127 51.3889 153.956 51.4954 153.763 51.5276L151.446 51.9071C151.253 51.9368 151.057 51.8897 150.899 51.776C150.819 51.7218 150.751 51.6515 150.7 51.5694C150.648 51.4874 150.615 51.3956 150.602 51.2999L150.214 48.933C150.197 48.838 150.199 48.7404 150.222 48.6465C150.244 48.5526 150.287 48.4645 150.346 48.3879C150.4 48.3078 150.47 48.2401 150.553 48.189C150.635 48.1378 150.727 48.1045 150.823 48.0912L153.134 47.7116Z" fill="black"/>
</g>
<path d="M169.13 36.3536C169.225 36.419 169.304 36.5029 169.365 36.6002C169.426 36.6975 169.466 36.8061 169.483 36.9194C169.505 37.0317 169.504 37.1473 169.479 37.2589C169.454 37.3706 169.406 37.4758 169.338 37.5681L167.691 39.8797C167.626 39.9738 167.541 40.0535 167.444 40.114C167.346 40.1745 167.237 40.2146 167.124 40.2316C167.011 40.2536 166.895 40.252 166.783 40.2271C166.671 40.2022 166.566 40.1544 166.473 40.0867L164.204 38.4789C164.11 38.4144 164.03 38.3306 163.97 38.233C163.911 38.1355 163.872 38.0264 163.858 37.9131C163.836 37.8008 163.838 37.6852 163.863 37.5736C163.888 37.462 163.936 37.3567 164.003 37.2645L165.671 34.9528C165.806 34.7655 166.009 34.6386 166.237 34.5999C166.465 34.5611 166.699 34.6136 166.889 34.7458L169.13 36.3536ZM178.706 20.6966C179.533 21.275 180.27 21.9726 180.892 22.7667C181.499 23.5054 181.968 24.3468 182.276 25.2509C182.563 26.1172 182.66 27.0351 182.56 27.942C182.442 28.9092 182.075 29.8294 181.494 30.6125C181.062 31.2456 180.507 31.7854 179.861 32.1996C179.293 32.5549 178.675 32.8246 178.028 33C177.397 33.1644 176.754 33.2752 176.104 33.3312L174.264 33.4968C173.712 33.5408 173.166 33.6355 172.631 33.7798C172.138 33.8914 171.687 34.1402 171.33 34.4974C171.169 34.6606 170.966 34.7754 170.742 34.8286C170.636 34.859 170.524 34.8636 170.416 34.842C170.307 34.8204 170.206 34.7732 170.12 34.7044L168.113 33.2829C167.921 33.1463 167.79 32.9411 167.746 32.7102C167.721 32.5983 167.722 32.4819 167.749 32.3704C167.777 32.2589 167.83 32.1555 167.906 32.0685C168.374 31.4619 168.96 30.9551 169.628 30.578C170.23 30.2503 170.872 30.0021 171.538 29.8396C172.181 29.6841 172.836 29.5848 173.496 29.5429C174.146 29.5015 174.755 29.4532 175.323 29.398C175.842 29.3523 176.354 29.2505 176.852 29.0944C177.286 28.95 177.661 28.6661 177.917 28.287C178.148 27.967 178.299 27.5959 178.355 27.2055C178.412 26.815 178.373 26.4167 178.242 26.0444C177.915 25.1247 177.289 24.3403 176.464 23.8156C174.97 22.7529 173.339 22.7184 171.573 23.7121C171.395 23.8249 171.198 23.9044 170.991 23.9467C170.884 23.9542 170.776 23.9403 170.674 23.906C170.572 23.8716 170.477 23.8174 170.396 23.7466L168.265 22.2354C168.188 22.1843 168.122 22.1183 168.071 22.0412C168.02 21.9642 167.985 21.8777 167.968 21.7869C167.951 21.693 167.954 21.5967 167.977 21.504C168 21.4114 168.041 21.3244 168.099 21.2486C168.602 20.6061 169.255 20.0967 170.002 19.765C170.85 19.3819 171.758 19.1484 172.686 19.075C173.708 18.9899 174.736 19.0715 175.731 19.3165C176.805 19.5746 177.816 20.0438 178.706 20.6966Z" fill="#2B7A78"/>
<g opacity="0.6">
<path d="M169.13 36.3536C169.224 36.419 169.304 36.5029 169.365 36.6002C169.426 36.6975 169.466 36.8061 169.483 36.9194C169.505 37.0317 169.503 37.1473 169.478 37.2589C169.453 37.3706 169.405 37.4758 169.338 37.5681L167.691 39.8797C167.625 39.9738 167.541 40.0535 167.444 40.114C167.346 40.1745 167.237 40.2146 167.124 40.2316C167.011 40.2536 166.895 40.252 166.783 40.2271C166.671 40.2022 166.566 40.1544 166.473 40.0867L164.204 38.4789C164.109 38.4144 164.03 38.3306 163.97 38.233C163.91 38.1355 163.872 38.0264 163.858 37.9131C163.836 37.8008 163.838 37.6852 163.863 37.5736C163.888 37.462 163.935 37.3567 164.003 37.2645L165.671 34.9528C165.806 34.7655 166.009 34.6386 166.237 34.5999C166.465 34.5611 166.699 34.6136 166.888 34.7458L169.13 36.3536ZM178.706 20.6966C179.533 21.275 180.27 21.9726 180.892 22.7667C181.499 23.5054 181.967 24.3468 182.276 25.2509C182.563 26.1172 182.66 27.0351 182.559 27.942C182.442 28.9092 182.075 29.8294 181.494 30.6125C181.062 31.2456 180.507 31.7854 179.861 32.1996C179.293 32.5549 178.675 32.8246 178.028 33C177.397 33.1644 176.754 33.2752 176.104 33.3312L174.264 33.4968C173.712 33.5408 173.165 33.6355 172.631 33.7798C172.138 33.8914 171.687 34.1402 171.33 34.4974C171.169 34.6606 170.965 34.7754 170.742 34.8286C170.636 34.859 170.524 34.8636 170.416 34.842C170.307 34.8204 170.206 34.7732 170.119 34.7044L168.113 33.2829C167.921 33.1463 167.79 32.9411 167.746 32.7102C167.72 32.5983 167.721 32.4819 167.749 32.3704C167.777 32.2589 167.83 32.1555 167.905 32.0685C168.374 31.4619 168.96 30.9551 169.628 30.578C170.23 30.2503 170.872 30.0021 171.538 29.8396C172.181 29.6841 172.836 29.5848 173.496 29.5429C174.146 29.5015 174.755 29.4532 175.322 29.398C175.842 29.3523 176.354 29.2505 176.851 29.0944C177.286 28.95 177.661 28.6661 177.917 28.287C178.148 27.967 178.299 27.5959 178.355 27.2055C178.412 26.815 178.373 26.4167 178.242 26.0444C177.915 25.1247 177.289 24.3403 176.464 23.8156C174.97 22.7529 173.339 22.7184 171.572 23.7121C171.395 23.8249 171.198 23.9044 170.991 23.9467C170.884 23.9542 170.776 23.9403 170.674 23.906C170.572 23.8716 170.477 23.8174 170.396 23.7466L168.265 22.2354C168.188 22.1843 168.122 22.1183 168.071 22.0412C168.02 21.9642 167.985 21.8777 167.968 21.7869C167.951 21.693 167.954 21.5967 167.977 21.504C168 21.4114 168.041 21.3244 168.099 21.2486C168.602 20.6061 169.255 20.0967 170.002 19.765C170.85 19.3819 171.758 19.1484 172.686 19.075C173.708 18.9899 174.736 19.0715 175.731 19.3165C176.805 19.5746 177.816 20.0438 178.706 20.6966Z" fill="white"/>
</g>
<path d="M117.606 97.4359H93.0233V38.0373C93.0233 32.8783 95.0782 27.9305 98.7359 24.2825C102.394 20.6345 107.355 18.5851 112.527 18.5851H114.797C119.97 18.5851 124.931 20.6345 128.588 24.2825C132.246 27.9305 134.301 32.8783 134.301 38.0373V80.8198C134.292 85.2298 132.529 89.4561 129.399 92.5713C126.269 95.6864 122.028 97.436 117.606 97.4359Z" fill="#263238"/>
<path d="M90.6294 240.433C90.1946 242.894 89.9632 245.386 89.9376 247.885C89.8476 252.412 89.0174 254.02 88.9067 257.732C88.7752 261.976 89.5155 263.563 91.2383 265.951C92.9611 268.338 97.4652 270.498 99.4163 266.468C101.367 262.438 101.084 259.795 100.468 255.634C99.8384 251.329 99.7761 248.948 99.3886 245.67C99.0704 242.779 98.6968 240.578 98.6968 240.578L90.6294 240.433Z" fill="#263238"/>
<path d="M103.512 210.368L88.5676 210.099C88.789 220.049 90.3734 231.097 90.6433 240.46C90.6986 242.22 90.6018 254.116 91.266 257.711C92.2692 263.149 98.7313 262.411 99.0773 259.161C99.4232 255.91 98.6622 242.02 98.6829 240.585C98.6206 234.595 101.45 224.486 102.91 213.735C102.973 213.218 103.443 210.885 103.512 210.368Z" fill="#FFA8A7"/>
<path d="M122.712 232.691C122.712 232.691 122.124 232.373 122.02 233.001C121.875 233.746 121.653 235.285 121.328 236.513C120.899 238.218 120.539 241.026 120.795 242.42C121.051 243.814 124.303 245.594 126.413 246.243C129.014 247.044 131.386 248.451 133.332 250.349C135.408 252.308 139.926 254.158 143.019 254.137C146.651 254.137 149.183 252.929 150.38 250.99C151.577 249.051 149.287 248.817 145.136 246.16L141.919 244.09C135.339 239.805 132.924 237.514 131.077 233.229L122.712 232.691Z" fill="#263238"/>
<path d="M131.132 230.034C131.021 226.956 133.152 200.797 133.152 200.797L118.962 207.249C121.999 225.342 122.65 229.613 122.698 232.573C122.636 232.821 122.61 233.077 122.622 233.332C122.622 236.845 126.614 238.742 129.714 241.088C132.349 243.147 135.157 244.976 138.106 246.554C140.362 247.678 144.942 247.782 145.509 246.34C141.732 243.462 136.238 239.156 133.235 235.872C131.769 234.326 131.243 233.118 131.132 230.034Z" fill="#FFA8A7"/>
<path d="M94.6909 113.272C89.2388 125.203 89.2388 134.436 90.1452 149.665C90.9478 163.638 92.2831 175.955 92.2831 175.955C92.0755 178.433 88.6231 183.27 88.1733 194.228C87.7582 204.468 88.8652 217.489 88.8652 217.489C88.8652 217.489 96.6212 221.774 102.357 217.448C102.357 217.448 107.892 191.095 109.511 178.274C110.895 167.088 113.385 152.798 113.385 152.798L118.623 178.198C117.493 181.802 116.673 185.496 116.174 189.239C115.44 196.781 119.675 211.589 119.675 211.589C119.675 211.589 127.687 213.97 132.578 209.643C132.578 209.643 134.405 185.568 135.09 176.487C136.003 164.321 134.08 131.393 132.578 113.955L94.6909 113.272Z" fill="#455A64"/>
<path d="M113.399 152.777L115.551 133.635C115.551 133.635 125.196 132.352 129.568 128.253C128.317 130.206 126.65 131.86 124.685 133.098C122.72 134.336 120.507 135.127 118.201 135.416L115.087 153.226L118.623 178.198L113.399 152.777Z" fill="#263238"/>
<path d="M152.456 108.566C152.854 105.073 153.03 101.558 152.982 98.0431C152.767 95.0069 152.221 94.5101 147.966 89.1347C142.223 81.8685 137.318 75.3339 132.128 68.8406C128.42 64.2035 124.518 63.4928 120.726 63.6998C118.069 63.8447 123.259 76.5897 125.867 84.1319L140.763 100.127C141.225 100.758 141.436 101.537 141.358 102.314L140.459 115.922L144.921 121.884C144.921 121.884 151.681 116.074 152.456 108.566Z" fill="#FFA8A7"/>
<path d="M106.363 64.1139C103.478 64.314 98.2332 64.8039 98.2332 64.8039C95.2097 66.4876 94.4417 67.8746 93.8813 71.8768C93.6391 73.5881 95.0367 78.1355 96.2337 84.6012L98.503 96.5872L98.254 102.535C97.0778 106.165 94.414 110.671 92.0616 117.316C103.616 123.747 113.302 123.989 122.089 122.836C128.787 121.974 132.336 120.359 133.519 118.758C133.27 112.196 132.827 108.138 132.689 101.279C132.64 98.402 132.813 95.49 132.931 92.1778C137.421 88.493 137.477 82.3654 135.007 78.377C129.312 69.1788 123.771 63.3893 120.104 63.6861L106.363 64.1139Z" fill="#2B7A78"/>
<path opacity="0.6" d="M106.363 64.1139C103.478 64.314 98.2332 64.8039 98.2332 64.8039C95.2097 66.4876 94.4417 67.8746 93.8813 71.8768C93.6391 73.5881 95.0367 78.1355 96.2337 84.6012L98.503 96.5872L98.254 102.535C97.0778 106.165 94.414 110.671 92.0616 117.316C103.616 123.747 113.302 123.989 122.089 122.836C128.787 121.974 132.336 120.359 133.519 118.758C133.27 112.196 132.827 108.138 132.689 101.279C132.64 98.402 132.813 95.49 132.931 92.1778C137.421 88.493 137.477 82.3654 135.007 78.377C129.312 69.1788 123.771 63.3893 120.104 63.6861L106.363 64.1139Z" fill="white"/>
<path opacity="0.1" d="M123.985 92.2675C123.985 92.2675 118.713 96.3526 112.687 94.2203C110.994 93.6885 109.468 92.7301 108.256 91.4379C107.044 90.1456 106.187 88.5632 105.768 86.8438C105.768 86.8438 105.131 93.7097 112.721 96.0489C120.076 98.3054 123.985 92.2675 123.985 92.2675Z" fill="black"/>
<path d="M131.139 45.2689C130.911 55.233 127.68 57.6896 126.047 58.3796C124.414 59.0697 121.287 58.6556 118.242 58.1519V64.1691C118.242 64.1691 121.757 67.8401 121.494 70.5795C121.231 73.319 115.959 73.6295 112.029 70.9452C109.861 69.4597 107.9 67.6939 106.197 65.694C105.87 65.3082 105.691 64.8191 105.692 64.314V50.2371C105.692 50.2371 104.024 51.9967 101.077 49.9818C100.441 49.577 99.8964 49.0447 99.4779 48.4187C99.0593 47.7927 98.776 47.0866 98.6459 46.3455C98.5157 45.6043 98.5416 44.8443 98.7219 44.1137C98.9022 43.383 99.233 42.6978 99.6931 42.1016C100.98 40.5904 104.246 40.4869 105.809 42.7916C106.695 44.5098 106.813 46.2418 107.802 45.5518C110.431 43.6611 109.02 39.3414 112.195 37.2713C113.238 36.7288 114.32 36.2674 115.433 35.8912C121.1 33.9384 126.012 32.2961 127.195 28.4319C129.423 29.7016 131.416 33.5175 131.139 45.2689Z" fill="#FFA8A7"/>
<path d="M119.965 54.1704C120.691 54.1704 121.28 53.5834 121.28 52.8593C121.28 52.1352 120.691 51.5482 119.965 51.5482C119.239 51.5482 118.651 52.1352 118.651 52.8593C118.651 53.5834 119.239 54.1704 119.965 54.1704Z" fill="#B16668"/>
<path d="M119.093 43.7577C119.093 44.0276 119.013 44.2915 118.864 44.5167C118.715 44.742 118.503 44.9186 118.254 45.0248C118.005 45.1309 117.731 45.162 117.464 45.1141C117.198 45.0662 116.951 44.9415 116.755 44.7553C116.559 44.5691 116.422 44.3297 116.361 44.0667C116.301 43.8037 116.318 43.5287 116.412 43.2756C116.507 43.0225 116.673 42.8026 116.891 42.643C117.11 42.4833 117.37 42.3911 117.641 42.3776C117.828 42.3682 118.015 42.397 118.191 42.4621C118.367 42.5273 118.528 42.6275 118.664 42.7566C118.8 42.8857 118.908 43.041 118.982 43.2131C119.056 43.3852 119.094 43.5705 119.093 43.7577Z" fill="#263238"/>
<path d="M129.575 43.8957C129.59 44.0646 129.57 44.2345 129.517 44.3957C129.465 44.5569 129.381 44.706 129.27 44.8345C129.16 44.9629 129.024 45.0681 128.872 45.1439C128.72 45.2197 128.555 45.2645 128.385 45.2758C128.214 45.2916 128.042 45.2709 127.88 45.2151C127.717 45.1593 127.569 45.0697 127.444 44.9522C127.319 44.8347 127.22 44.6921 127.155 44.5337C127.089 44.3754 127.058 44.2049 127.064 44.0338C127.046 43.8637 127.063 43.6918 127.114 43.5285C127.165 43.3653 127.249 43.2142 127.361 43.0845C127.473 42.9548 127.61 42.8492 127.764 42.7743C127.918 42.6993 128.086 42.6565 128.257 42.6485C128.429 42.6405 128.6 42.6674 128.76 42.7277C128.921 42.788 129.067 42.8803 129.19 42.9991C129.314 43.1178 129.412 43.2604 129.478 43.4181C129.544 43.5759 129.577 43.7455 129.575 43.9164V43.8957Z" fill="#263238"/>
<path d="M117.315 47.3045C116.122 47.3045 114.977 46.8322 114.133 45.9912C113.288 45.1503 112.813 44.0095 112.811 42.8193C112.811 39.7693 115.966 39.7693 117.315 39.7693C118.664 39.7693 121.813 39.7693 121.813 42.8193C121.811 44.0083 121.336 45.1481 120.493 45.9888C119.65 46.8296 118.507 47.3027 117.315 47.3045ZM117.315 40.4731C114.548 40.4731 113.524 41.1632 113.524 42.8193C113.524 43.8258 113.925 44.7911 114.638 45.5029C115.352 46.2146 116.32 46.6145 117.329 46.6145C118.338 46.6145 119.306 46.2146 120.02 45.5029C120.734 44.7911 121.134 43.8258 121.134 42.8193C121.107 41.1287 120.041 40.4731 117.315 40.4731Z" fill="#455A64"/>
<path d="M128.738 47.3045C127.545 47.3045 126.4 46.8322 125.556 45.9912C124.711 45.1503 124.236 44.0095 124.234 42.8193C124.234 39.7693 127.389 39.7693 128.738 39.7693C130.087 39.7693 133.235 39.7693 133.235 42.8193C133.234 44.0083 132.759 45.1481 131.916 45.9888C131.073 46.8296 129.93 47.3027 128.738 47.3045ZM128.738 40.4731C126.012 40.4731 124.947 41.1632 124.947 42.8193C124.947 43.8258 125.348 44.7911 126.061 45.5029C126.775 46.2146 127.743 46.6145 128.752 46.6145C129.761 46.6145 130.729 46.2146 131.443 45.5029C132.156 44.7911 132.557 43.8258 132.557 42.8193C132.53 41.1287 131.464 40.4731 128.738 40.4731Z" fill="#455A64"/>
<path d="M122.511 41.3701L122.733 49.7541L127.154 48.3878L122.511 41.3701Z" fill="#F28F8F"/>
<path d="M118.235 58.1727C115.025 57.7517 108.418 55.861 107.387 53.2527C107.802 54.5709 108.61 55.7313 109.705 56.5787C111.676 58.2693 118.235 60.1669 118.235 60.1669V58.1727Z" fill="#F28F8F"/>
<path d="M118.395 37.299L115.461 39.0862C115.23 38.6845 115.163 38.2095 115.273 37.7597C115.384 37.31 115.664 36.9201 116.056 36.671C116.249 36.5539 116.465 36.4771 116.689 36.4453C116.913 36.4136 117.141 36.4274 117.36 36.4861C117.578 36.5448 117.783 36.6471 117.961 36.7868C118.139 36.9265 118.286 37.1008 118.395 37.299Z" fill="#263238"/>
<path d="M130.329 39.2862L127.064 38.1477C127.127 37.9318 127.234 37.7311 127.378 37.558C127.521 37.3848 127.699 37.2428 127.9 37.1407C128.101 37.0385 128.321 36.9785 128.546 36.9642C128.771 36.9498 128.996 36.9816 129.209 37.0574C129.647 37.2144 130.007 37.5333 130.216 37.9483C130.425 38.3632 130.465 38.8422 130.329 39.2862Z" fill="#263238"/>
<path d="M121.46 43.1781C121.413 43.1781 121.366 43.1688 121.323 43.1506C121.28 43.1325 121.24 43.106 121.208 43.0726C121.175 43.0392 121.149 42.9995 121.132 42.956C121.114 42.9126 121.106 42.866 121.107 42.8193C121.107 42.2465 122.241 41.8739 123.265 41.8739C124.289 41.8739 124.947 42.2465 124.947 42.8193C124.925 42.8942 124.88 42.9602 124.817 43.0072C124.755 43.0541 124.679 43.0795 124.601 43.0795C124.523 43.0795 124.447 43.0541 124.384 43.0072C124.322 42.9602 124.276 42.8942 124.255 42.8193C124.255 42.7502 123.902 42.5777 123.286 42.5777C122.79 42.5672 122.297 42.6515 121.833 42.8262C121.833 42.8742 121.824 42.9217 121.805 42.9658C121.786 43.0099 121.758 43.0496 121.723 43.0826C121.688 43.1156 121.646 43.1411 121.601 43.1575C121.556 43.1739 121.508 43.1809 121.46 43.1781Z" fill="#455A64"/>
<path d="M113.178 42.8744H113.136L105.228 42.1844C104.859 41.8191 104.418 41.5327 103.934 41.3425L113.219 42.1982C113.312 42.2103 113.397 42.2582 113.455 42.3317C113.513 42.4051 113.541 42.4984 113.531 42.5915C113.514 42.6724 113.47 42.7451 113.406 42.7968C113.341 42.8486 113.261 42.876 113.178 42.8744Z" fill="#455A64"/>
<path d="M80.708 51.0998C83.2956 47.6496 85.0599 45.0481 87.4192 42.1292C88.7615 40.4524 89.6194 39.2518 90.8786 37.5336C91.7642 36.3467 92.2624 35.3461 93.2725 34.9804C94.3639 34.5344 95.3474 33.8617 96.1577 33.0069C96.6557 32.4574 97.1179 31.8766 97.5414 31.268C99.0244 29.2773 100.786 27.5089 102.772 26.0168C104.848 24.4573 107.165 23.2566 109.303 21.7731C110.576 20.8829 111.939 19.4062 110.39 18.0261C109.914 17.6269 109.345 17.3539 108.736 17.2326C104.965 16.4184 101.686 17.7087 97.9981 18.6472C96.3962 19.0459 94.8297 19.5744 93.314 20.2274C92.5685 20.5214 91.8695 20.9212 91.2384 21.4142C90.3561 22.3015 89.633 23.3331 89.1005 24.4642C87.4884 27.3348 84.029 29.9017 81.6074 32.172C78.7776 34.8286 76.2454 37.2645 73.0143 40.1902C70.1084 42.8331 67.2648 45.262 64.601 48.1464C62.3939 50.527 63.2173 52.3901 63.5078 53.0388C65.3067 56.7236 67.3201 58.0485 69.7348 60.3325C73.886 64.2864 88.2426 75.6652 92.9958 79.4259C94.017 80.2259 94.8191 81.2703 95.3274 82.4621L96.2407 84.5667C101.665 85.5603 105.284 77.4386 100.793 67.6607C100.05 66.0796 98.9137 64.7139 97.493 63.693C91.8196 59.5734 80.708 51.0998 80.708 51.0998Z" fill="#FFA8A7"/>
<path d="M80.7079 51.0997C78.9814 53.218 76.6806 54.7965 74.0797 55.6471C74.0797 55.6471 77.5391 56.5303 82.2785 52.2866L80.7079 51.0997Z" fill="#F28F8F"/>
<path d="M151.044 101.369L150.159 100.61C150.027 100.523 149.876 100.468 149.718 100.45C149.561 100.432 149.401 100.452 149.252 100.507L139.642 103.115C139.158 103.276 138.715 103.539 138.342 103.887C137.97 104.235 137.677 104.659 137.484 105.13L130.565 125.024C130.481 125.186 130.449 125.369 130.471 125.55C130.493 125.731 130.569 125.901 130.689 126.038L131.603 126.825C131.736 126.916 131.889 126.974 132.049 126.993C132.209 127.012 132.372 126.992 132.523 126.935L142.147 124.327C142.631 124.166 143.074 123.902 143.447 123.555C143.82 123.207 144.112 122.783 144.306 122.312C145.689 118.399 149.841 106.33 151.224 102.418C151.39 101.928 151.307 101.555 151.044 101.369Z" fill="#455A64"/>
<path d="M131.471 125.79L138.39 105.896C138.582 105.425 138.875 105.002 139.248 104.655C139.62 104.308 140.064 104.046 140.548 103.888L150.152 101.279C151.044 101.038 151.536 101.548 151.217 102.418C149.834 106.33 145.682 118.399 144.298 122.312C144.105 122.783 143.813 123.207 143.44 123.555C143.067 123.902 142.624 124.166 142.14 124.327L132.537 126.963C131.651 127.17 131.174 126.659 131.471 125.79Z" fill="#2B7A78"/>
<path d="M139.504 104.44C139.004 104.817 138.617 105.323 138.383 105.903L131.464 125.79C131.385 125.948 131.352 126.125 131.369 126.3C131.386 126.476 131.453 126.644 131.561 126.783L130.703 126.052C130.58 125.916 130.502 125.746 130.478 125.565C130.455 125.384 130.487 125.2 130.572 125.037L137.49 105.144C137.709 104.603 138.064 104.127 138.521 103.764L139.504 104.44Z" fill="#37474F"/>
<path d="M148.408 110.436C147.716 112.458 145.316 113.811 141.344 114.749C137.373 115.687 135.18 119.89 135.809 121.166C136.439 122.443 142.859 123.637 145.426 123.271C147.993 122.905 150.567 119.207 151.349 118.061C152.131 116.916 153.03 108.925 152.207 107.828C151.383 106.731 149.647 106.903 149.647 106.903L148.408 110.436Z" fill="#F28F8F"/>
</svg>
