<svg width="24" height="24" viewBox="0 0 24 24" fill="none" xmlns="http://www.w3.org/2000/svg">
<path d="M23.6901 12.2755C23.6901 11.4598 23.6239 10.6397 23.4828 9.83716H12.1641V14.4581H18.6458C18.3768 15.9485 17.5126 17.2669 16.2471 18.1046V21.1029H20.1141C22.3849 19.0129 23.6901 15.9265 23.6901 12.2755Z" fill="#4285F4"/>
<path d="M12.1639 24C15.4004 24 18.1298 22.9373 20.1183 21.103L16.2514 18.1046C15.1755 18.8366 13.7866 19.2511 12.1683 19.2511C9.03771 19.2511 6.3833 17.139 5.43088 14.2994H1.44043V17.3903C3.47755 21.4426 7.62673 24 12.1639 24Z" fill="#34A853"/>
<path d="M5.4266 14.2995C4.92393 12.8091 4.92393 11.1953 5.4266 9.70496V6.61401H1.44056C-0.261438 10.0048 -0.261438 13.9996 1.44056 17.3903L5.4266 14.2995Z" fill="#FBBC04"/>
<path d="M12.1639 4.7488C13.8747 4.72235 15.5282 5.3661 16.7673 6.54782L20.1933 3.12175C18.024 1.08465 15.1446 -0.0353204 12.1639 -4.58293e-05C7.62672 -4.58293e-05 3.47755 2.55737 1.44043 6.61395L5.42647 9.7049C6.37447 6.86087 9.0333 4.7488 12.1639 4.7488Z" fill="#EA4335"/>
</svg>
