<svg width="24" height="24" viewBox="0 0 24 24" fill="none" xmlns="http://www.w3.org/2000/svg">
<path d="M23.6901 12.2756C23.6901 11.4599 23.6239 10.6397 23.4828 9.83722H12.1641V14.4582H18.6458C18.3768 15.9486 17.5126 17.267 16.2471 18.1047V21.103H20.1141C22.3849 19.013 23.6901 15.9265 23.6901 12.2756Z" fill="#4285F4"/>
<path d="M12.1639 24C15.4004 24 18.1298 22.9373 20.1183 21.103L16.2514 18.1047C15.1755 18.8367 13.7866 19.2512 12.1683 19.2512C9.03771 19.2512 6.3833 17.139 5.43088 14.2995H1.44043V17.3903C3.47755 21.4427 7.62673 24 12.1639 24Z" fill="#34A853"/>
<path d="M5.4266 14.2995C4.92393 12.8091 4.92393 11.1953 5.4266 9.70495V6.614H1.44056C-0.261438 10.0048 -0.261438 13.9996 1.44056 17.3903L5.4266 14.2995Z" fill="#FBBC04"/>
<path d="M12.1639 4.74885C13.8747 4.7224 15.5282 5.36615 16.7673 6.54787L20.1933 3.1218C18.024 1.0847 15.1446 -0.0352747 12.1639 -5.29108e-08C7.62672 -5.29108e-08 3.47755 2.55742 1.44043 6.614L5.42647 9.70495C6.37447 6.86092 9.0333 4.74885 12.1639 4.74885Z" fill="#EA4335"/>
</svg>
