<svg width="327" height="274" viewBox="0 0 327 274" fill="none" xmlns="http://www.w3.org/2000/svg">
<path d="M260.778 268.567C249.5 262.072 249.5 251.544 260.778 245.05C272.057 238.555 290.344 238.555 301.623 245.05C312.902 251.544 312.902 262.072 301.623 268.567C290.344 275.061 272.057 275.061 260.778 268.567Z" fill="#E0E0E0"/>
<path d="M31.3769 269.469L1.70889 252.389C0.0371418 251.427 0.0371418 249.862 1.70889 248.901L174.278 149.533C175.216 149.059 176.253 148.812 177.304 148.812C178.356 148.812 179.392 149.059 180.33 149.533L210.005 166.614C211.677 167.575 211.677 169.14 210.005 170.101L37.4361 269.469C36.4969 269.943 35.4591 270.19 34.4065 270.19C33.3539 270.19 32.3161 269.943 31.3769 269.469Z" fill="#E0E0E0"/>
<path d="M138.016 239.02L163.522 224.313C166.151 222.799 167.465 220.818 167.465 218.831C167.465 216.843 167.465 215.292 167.465 215.292L141.009 200.41C140.27 199.934 139.654 199.29 139.213 198.53C138.771 197.771 138.516 196.918 138.468 196.042V164.669L93.937 190.341V221.699C93.9883 222.575 94.2449 223.426 94.6861 224.185C95.1273 224.944 95.7409 225.589 96.4775 226.068L118.991 238.999C124.233 242.049 132.759 242.049 138.016 239.02Z" fill="#2B7A78"/>
<g opacity="0.6">
<path d="M138.015 239.02L163.522 224.313C166.15 222.799 167.464 220.818 167.464 218.831C167.464 216.843 167.464 215.292 167.464 215.292L141.008 200.41C140.269 199.934 139.653 199.289 139.212 198.53C138.77 197.771 138.515 196.918 138.467 196.042V164.669L93.936 190.341V221.699C93.9873 222.575 94.2439 223.426 94.6851 224.185C95.1264 224.944 95.7399 225.588 96.4765 226.068L118.99 238.998C124.232 242.049 132.758 242.049 138.015 239.02Z" fill="black"/>
</g>
<path opacity="0.3" d="M104.617 227.254V230.778L96.455 226.082C95.7186 225.603 95.1056 224.959 94.6655 224.2C94.2254 223.441 93.9706 222.589 93.9219 221.714V190.341L102.405 185.455C102.58 187.603 102.77 189.824 102.952 192.008L96.988 195.43V219.93C97.0352 220.807 97.2901 221.659 97.7317 222.419C98.1733 223.178 98.789 223.822 99.5284 224.298L104.617 227.254Z" fill="black"/>
<path d="M96.9888 219.937C97.0389 220.813 97.295 221.665 97.7364 222.424C98.1777 223.183 98.7919 223.827 99.5292 224.306L118.962 235.474C124.219 238.496 132.745 238.503 138.009 235.474L163.559 220.767C168.823 217.738 168.823 212.831 163.559 209.802L144.112 198.634C143.376 198.154 142.763 197.509 142.324 196.75C141.884 195.991 141.628 195.14 141.578 194.265V169.758L97.0472 195.43L96.9888 219.937Z" fill="#2B7A78"/>
<path opacity="0.3" d="M96.9888 219.937C97.0389 220.813 97.295 221.665 97.7364 222.424C98.1777 223.183 98.7919 223.827 99.5292 224.306L118.962 235.474C124.219 238.496 132.745 238.503 138.009 235.474L163.559 220.767C168.823 217.738 168.823 212.831 163.559 209.802L144.112 198.634C143.376 198.154 142.763 197.509 142.324 196.75C141.884 195.991 141.628 195.14 141.578 194.265V169.758L97.0472 195.43L96.9888 219.937Z" fill="black"/>
<path opacity="0.5" d="M149.258 201.626L144.082 198.648C143.346 198.169 142.734 197.523 142.294 196.765C141.854 196.006 141.599 195.155 141.549 194.28V169.758L97.0176 195.43V219.937C97.0677 220.813 97.3238 221.665 97.7652 222.424C98.2065 223.183 98.8207 223.827 99.5581 224.306L104.668 227.218L149.258 201.626Z" fill="black"/>
<path d="M167.472 215.3V218.838C167.472 220.826 166.151 222.799 163.53 224.321L137.979 239.02C135.183 240.509 132.06 241.282 128.891 241.27V237.746C132.06 237.758 135.183 236.985 137.979 235.497L163.53 220.782C166.151 219.275 167.472 217.287 167.472 215.3Z" fill="#2B7A78"/>
<path opacity="0.5" d="M167.472 215.3V218.838C167.472 220.826 166.151 222.799 163.53 224.321L137.979 239.02C135.183 240.509 132.06 241.282 128.891 241.27V237.746C132.06 237.758 135.183 236.985 137.979 235.497L163.53 220.782C166.151 219.275 167.472 217.287 167.472 215.3Z" fill="black"/>
<path d="M25.4464 250.393C26.4091 250.856 27.4676 251.088 28.5365 251.069C29.6055 251.05 30.655 250.781 31.6005 250.283L203.885 151.083C204.809 150.482 205.578 149.672 206.13 148.72C206.681 147.767 207 146.699 207.061 145.6V6.59563C207.028 5.52709 206.742 4.48143 206.227 3.54388C205.712 2.60633 204.982 1.80342 204.097 1.20057C203.135 0.736319 202.078 0.504906 201.01 0.525148C199.941 0.54539 198.893 0.816715 197.95 1.31707L25.6655 100.547C24.7449 101.152 23.9807 101.965 23.4351 102.92C22.8896 103.875 22.5782 104.946 22.5264 106.044V245.027C22.5589 246.086 22.84 247.124 23.3471 248.056C23.8542 248.988 24.5732 249.788 25.4464 250.393Z" fill="#2B7A78"/>
<path d="M31.6229 250.276L203.908 151.075C204.833 150.476 205.602 149.667 206.154 148.714C206.706 147.761 207.024 146.692 207.083 145.593V6.5955C207.083 4.57872 205.66 3.75599 203.908 4.76802L31.6229 103.969C30.6987 104.569 29.9295 105.379 29.3777 106.331C28.8259 107.284 28.5072 108.353 28.4473 109.451V248.449C28.4473 250.465 29.8708 251.288 31.6229 250.276Z" fill="#2B7A78"/>
<path opacity="0.5" d="M31.6229 250.276L203.908 151.075C204.833 150.476 205.602 149.667 206.154 148.714C206.706 147.761 207.024 146.692 207.083 145.593V6.5955C207.083 4.57872 205.66 3.75599 203.908 4.76802L31.6229 103.969C30.6987 104.569 29.9295 105.379 29.3777 106.331C28.8259 107.284 28.5072 108.353 28.4473 109.451V248.449C28.4473 250.465 29.8708 251.288 31.6229 250.276Z" fill="black"/>
<path d="M31.1552 253.887C30.2518 254.281 29.2736 254.474 28.288 254.454C27.3025 254.434 26.333 254.201 25.4464 253.771C24.5713 253.165 23.8511 252.362 23.3439 251.428C22.8367 250.493 22.5567 249.453 22.5264 248.39V235.736L28.476 239.173V251.827C28.4395 253.669 29.6149 254.506 31.1552 253.887Z" fill="#2B7A78"/>
<path opacity="0.5" d="M31.1552 253.887C30.2518 254.281 29.2736 254.474 28.288 254.454C27.3025 254.434 26.333 254.201 25.4464 253.771C24.5713 253.165 23.8511 252.362 23.3439 251.428C22.8367 250.493 22.5567 249.453 22.5264 248.39V235.736L28.476 239.173V251.827C28.4395 253.669 29.6149 254.506 31.1552 253.887Z" fill="black"/>
<path d="M28.4399 239.173V251.827C28.4399 253.844 29.9 254.659 31.6155 253.654L203.9 154.454C204.82 153.855 205.587 153.051 206.138 152.103C206.69 151.156 207.011 150.094 207.076 149V136.288L28.4399 239.173Z" fill="#2B7A78"/>
<path opacity="0.3" d="M28.4473 239.144V251.827C28.4473 253.844 29.9073 254.659 31.6229 253.654L203.908 154.454C204.826 153.855 205.591 153.049 206.141 152.102C206.692 151.155 207.012 150.093 207.076 149V136.288L28.4473 239.144Z" fill="black"/>
<path d="M34.3965 223.265V111.425C34.4305 110.766 34.6201 110.124 34.95 109.552C35.2798 108.98 35.7405 108.494 36.2945 108.134L199.191 14.3061C200.242 13.7018 201.097 14.1896 201.097 15.3983V127.297C201.061 127.956 200.87 128.598 200.539 129.17C200.208 129.742 199.746 130.227 199.191 130.588L36.3018 224.393C35.2506 224.997 34.3965 224.502 34.3965 223.265Z" fill="#2B7A78"/>
<path d="M34.3965 223.265V111.425C34.4305 110.766 34.6201 110.124 34.95 109.552C35.2798 108.98 35.7405 108.494 36.2945 108.134L199.191 14.3061C200.242 13.7018 201.097 14.1896 201.097 15.3983V127.297C201.061 127.956 200.87 128.598 200.539 129.17C200.208 129.742 199.746 130.227 199.191 130.588L36.3018 224.393C35.2506 224.997 34.3965 224.502 34.3965 223.265Z" fill="#263238"/>
<path d="M117.757 191.76C116.89 192.323 116.168 193.082 115.651 193.975C115.133 194.868 114.835 195.871 114.779 196.901C114.779 198.794 116.115 199.565 117.757 198.619C118.625 198.056 119.348 197.296 119.865 196.401C120.383 195.507 120.681 194.503 120.736 193.471C120.736 191.578 119.4 190.814 117.757 191.76Z" fill="#2B7A78"/>
<path opacity="0.7" d="M29.3813 106.32C28.8155 107.269 28.4921 108.341 28.4395 109.444V239.173L22.5264 235.736V106.044C22.5647 104.938 22.8864 103.86 23.4608 102.913L29.3813 106.32Z" fill="black"/>
<path opacity="0.3" d="M207.046 6.07155C206.82 4.44065 205.499 3.88732 203.9 4.76829L31.6151 103.969C30.681 104.552 29.91 105.361 29.374 106.321L23.417 102.891C23.9566 101.932 24.7299 101.123 25.6655 100.54L197.95 1.34632C198.895 0.845901 199.944 0.574563 201.013 0.554323C202.082 0.534083 203.141 0.76551 204.104 1.22983C204.914 1.77979 205.595 2.49665 206.103 3.33195C206.61 4.16725 206.932 5.10151 207.046 6.07155Z" fill="black"/>
<path d="M216.35 23.1784C216.094 23.0503 215.808 22.9941 215.522 23.0159C215.237 23.0377 214.962 23.1367 214.729 23.3021L52.1682 116.962C51.5267 117.385 50.9942 117.953 50.6138 118.62C50.2333 119.286 50.0155 120.033 49.9781 120.799V231.955C49.9553 232.33 50.0301 232.705 50.195 233.043C50.36 233.381 50.6097 233.671 50.9198 233.884C51.2776 234.081 53.1902 235.188 53.7596 235.493C53.9611 235.596 54.1862 235.643 54.4119 235.63C54.6376 235.617 54.8559 235.545 55.0445 235.421L217.569 141.76C218.21 141.337 218.743 140.769 219.123 140.103C219.504 139.436 219.721 138.69 219.759 137.924V26.1926C219.791 25.9103 219.745 25.6244 219.623 25.3672C219.502 25.11 219.311 24.8916 219.073 24.7365C218.708 24.4962 216.758 23.4186 216.35 23.1784Z" fill="#2B7A78"/>
<path d="M55.0084 118.535L217.577 24.9111C218.803 24.1831 219.767 24.7801 219.767 26.1926V137.923C219.729 138.69 219.511 139.436 219.131 140.103C218.75 140.769 218.218 141.337 217.577 141.76L55.0084 235.42C53.782 236.149 52.8184 234.976 52.8184 233.564V122.372C52.8569 121.606 53.0751 120.86 53.4555 120.193C53.8359 119.527 54.3678 118.959 55.0084 118.535Z" fill="#FAFAFA"/>
<path d="M218.569 25.3333C219 25.3333 219.066 25.8721 219.066 26.1924V137.923C219.026 138.565 218.838 139.188 218.515 139.744C218.191 140.301 217.743 140.774 217.204 141.127L54.658 234.787C54.5489 234.857 54.4229 234.898 54.293 234.903C53.8842 234.903 53.563 234.277 53.563 233.564V122.372C53.5982 121.73 53.7812 121.106 54.0977 120.546C54.4142 119.987 54.8558 119.508 55.388 119.146L217.942 25.5372C218.13 25.4161 218.346 25.3459 218.569 25.3333ZM218.569 24.6052C218.218 24.6202 217.876 24.7255 217.577 24.911L55.0084 118.535C54.3678 118.959 53.8359 119.527 53.4555 120.193C53.0751 120.86 52.8569 121.606 52.8184 122.372V233.564C52.8184 234.685 53.4462 235.631 54.2784 235.631C54.5362 235.627 54.788 235.554 55.0084 235.42L217.569 141.76C218.211 141.337 218.743 140.769 219.124 140.103C219.504 139.436 219.722 138.689 219.759 137.923V26.1924C219.759 25.1877 219.263 24.6052 218.533 24.6052H218.569Z" fill="#E0E0E0"/>
<path d="M50.8762 233.884C51.1171 234.008 52.8473 234.991 53.6065 235.428C53.3339 235.202 53.118 234.916 52.976 234.592C52.834 234.269 52.7699 233.917 52.7889 233.564V129.631L49.9418 127.971V231.955C49.9182 232.329 49.9918 232.704 50.1555 233.042C50.3192 233.38 50.5674 233.67 50.8762 233.884Z" fill="#F0F0F0"/>
<path d="M219.796 26.1709C219.796 24.773 218.796 24.2051 217.606 24.9113L55.0084 118.535C54.3678 118.959 53.8359 119.527 53.4555 120.193C53.0751 120.86 52.8569 121.606 52.8184 122.372V129.653L219.796 33.4517V26.1709Z" fill="#2B7A78"/>
<g opacity="0.4">
<path d="M217.577 24.9105L55.009 118.527C54.3565 118.937 53.8191 119.506 53.4468 120.18L50.6216 118.541C50.9932 117.891 51.5262 117.347 52.1692 116.961L214.73 23.3014C214.963 23.1348 215.237 23.0346 215.522 23.0115C215.808 22.9884 216.094 23.0433 216.351 23.1704C216.745 23.4179 218.592 24.4591 219.066 24.7139C218.821 24.6231 218.557 24.5936 218.297 24.6278C218.038 24.6621 217.79 24.7591 217.577 24.9105Z" fill="white"/>
</g>
<path opacity="0.15" d="M49.9424 127.978V120.763C49.9724 119.976 50.2063 119.211 50.6213 118.542L53.4538 120.173C53.0447 120.831 52.8157 121.584 52.7895 122.357V129.638L49.9424 127.978Z" fill="black"/>
<path d="M185.51 109.989L88.147 166.051C87.6735 166.357 87.2793 166.771 86.9964 167.258C86.7135 167.745 86.55 168.292 86.519 168.854V196.695C86.55 197.257 86.7135 197.804 86.9964 198.291C87.2793 198.779 87.6735 199.192 88.147 199.499L90.9868 201.129C91.4915 201.384 92.0491 201.517 92.6147 201.517C93.1803 201.517 93.738 201.384 94.2427 201.129L191.591 145.067C192.064 144.759 192.459 144.344 192.741 143.856C193.024 143.368 193.188 142.82 193.219 142.257V114.408C193.188 113.846 193.024 113.299 192.741 112.812C192.459 112.325 192.064 111.911 191.591 111.605L188.744 109.974C188.241 109.723 187.687 109.594 187.125 109.597C186.563 109.599 186.01 109.734 185.51 109.989Z" fill="#2B7A78"/>
<path opacity="0.5" d="M193.219 114.161C193.102 113.323 192.423 113.018 191.606 113.491L94.2428 169.553C93.7626 169.851 93.3678 170.267 93.0966 170.762L87.001 167.252C87.2742 166.765 87.6658 166.355 88.1398 166.058L185.51 109.996C186.013 109.741 186.57 109.608 187.134 109.608C187.699 109.608 188.255 109.741 188.758 109.996L191.606 111.627C192.04 111.911 192.408 112.283 192.686 112.72C192.964 113.157 193.146 113.648 193.219 114.161Z" fill="white"/>
<path d="M93.9653 201.268C93.4885 201.455 92.9776 201.54 92.4657 201.518C91.9538 201.495 91.4523 201.365 90.9941 201.137L88.147 199.506C87.6743 199.199 87.2807 198.785 86.9979 198.298C86.7151 197.811 86.5511 197.265 86.519 196.703V168.861C86.541 168.293 86.7067 167.739 87.0009 167.252L93.0965 170.761C92.8003 171.242 92.6343 171.792 92.6147 172.356V200.205C92.6147 201.129 93.1987 201.559 93.9653 201.268Z" fill="#263238"/>
<path d="M94.2432 169.553L191.606 113.491C192.504 112.974 193.234 113.389 193.234 114.423V142.272C193.203 142.835 193.039 143.383 192.757 143.871C192.474 144.359 192.08 144.774 191.606 145.082L94.2578 201.144C93.3599 201.661 92.6299 201.239 92.6299 200.205V172.363C92.6592 171.801 92.8205 171.254 93.1007 170.766C93.3809 170.278 93.7723 169.862 94.2432 169.553Z" fill="#2B7A78"/>
<path d="M159.697 124.856L88.1549 166.058C87.6809 166.354 87.2893 166.765 87.0161 167.252L93.1118 170.761C93.3829 170.267 93.7778 169.85 94.2579 169.553L165.8 128.358L159.697 124.856Z" fill="#455A64"/>
<path d="M165.785 128.358L94.2427 169.553C93.7691 169.861 93.3749 170.276 93.092 170.764C92.8092 171.252 92.6457 171.8 92.6147 172.363V200.198C92.6147 201.232 93.3448 201.654 94.2427 201.137L165.785 159.942V128.358Z" fill="#37474F"/>
<path d="M110.741 166.16L147.658 144.907C149.184 144.026 150.425 144.652 150.425 146.305C150.357 147.233 150.07 148.132 149.588 148.929C149.106 149.726 148.442 150.399 147.651 150.892L110.741 172.152C109.215 173.033 107.967 172.407 107.967 170.754C108.036 169.825 108.323 168.925 108.804 168.127C109.286 167.329 109.95 166.655 110.741 166.16Z" fill="#2B7A78"/>
<path d="M118.305 173.201C118.311 173.193 118.32 173.187 118.329 173.182C118.339 173.178 118.349 173.176 118.359 173.176C118.37 173.176 118.38 173.178 118.389 173.182C118.399 173.187 118.407 173.193 118.414 173.201C118.447 173.25 118.462 173.309 118.458 173.368V177.511C118.458 177.911 118.424 178.31 118.356 178.705C118.295 179.065 118.192 179.417 118.049 179.753C117.918 180.061 117.746 180.35 117.538 180.612C117.333 180.856 117.085 181.06 116.808 181.217C116.591 181.358 116.337 181.434 116.078 181.435C115.979 181.427 115.882 181.399 115.795 181.353C115.707 181.307 115.629 181.243 115.567 181.166C115.407 180.952 115.301 180.702 115.26 180.438C115.19 180.085 115.159 179.726 115.165 179.367V175.217C115.165 175.145 115.18 175.073 115.209 175.006C115.227 174.946 115.266 174.894 115.319 174.861L115.779 174.591C115.794 174.577 115.813 174.57 115.833 174.57C115.854 174.57 115.873 174.577 115.888 174.591C115.922 174.64 115.937 174.699 115.932 174.759V178.85C115.926 179.076 115.948 179.301 115.998 179.52C116.018 179.661 116.079 179.792 116.173 179.899C116.206 179.938 116.247 179.969 116.294 179.989C116.341 180.009 116.392 180.018 116.443 180.015C116.568 180.007 116.689 179.967 116.793 179.899C116.923 179.821 117.041 179.726 117.144 179.615C117.258 179.484 117.351 179.337 117.421 179.178C117.504 178.991 117.565 178.796 117.604 178.596C117.646 178.355 117.666 178.112 117.662 177.868V173.768C117.664 173.695 117.682 173.623 117.713 173.557C117.731 173.497 117.77 173.446 117.823 173.412L118.305 173.201Z" fill="#FAFAFA"/>
<path d="M121.166 177.118C121.17 177.064 121.158 177.011 121.13 176.965C121.113 176.946 121.091 176.931 121.067 176.922C121.043 176.913 121.017 176.91 120.991 176.914C120.902 176.901 120.811 176.901 120.721 176.914L120.298 176.994C120.161 177.028 120.018 177.028 119.882 176.994C119.774 176.959 119.682 176.89 119.619 176.797C119.547 176.679 119.5 176.548 119.48 176.411C119.409 176.021 119.409 175.622 119.48 175.232C119.535 175.008 119.613 174.791 119.714 174.584C119.814 174.377 119.936 174.182 120.079 174.001C120.217 173.83 120.385 173.684 120.575 173.572C120.729 173.478 120.9 173.419 121.079 173.397C121.208 173.384 121.339 173.412 121.451 173.477C121.558 173.542 121.642 173.639 121.692 173.754C121.751 173.89 121.783 174.035 121.787 174.183C121.795 174.257 121.779 174.33 121.743 174.395C121.725 174.455 121.686 174.506 121.634 174.54L121.196 174.795C121.176 174.806 121.153 174.813 121.13 174.813C121.107 174.813 121.084 174.806 121.064 174.795L120.969 174.722C120.932 174.692 120.886 174.675 120.838 174.671C120.744 174.682 120.654 174.714 120.575 174.766C120.461 174.835 120.359 174.924 120.276 175.028C120.187 175.143 120.141 175.284 120.144 175.428C120.134 175.484 120.134 175.541 120.144 175.596C120.158 175.616 120.177 175.634 120.198 175.646C120.22 175.659 120.244 175.666 120.269 175.669C120.348 175.682 120.43 175.682 120.509 175.669L120.918 175.596C121.261 175.53 121.495 175.596 121.648 175.785C121.809 176.055 121.883 176.368 121.86 176.681C121.858 176.897 121.829 177.112 121.772 177.321C121.715 177.548 121.631 177.768 121.524 177.977C121.417 178.192 121.282 178.393 121.123 178.574C120.971 178.751 120.791 178.901 120.59 179.018C120.429 179.12 120.247 179.183 120.057 179.2C119.92 179.205 119.784 179.166 119.67 179.091C119.557 179.014 119.471 178.905 119.422 178.778C119.363 178.639 119.333 178.491 119.334 178.341C119.327 178.265 119.343 178.189 119.378 178.122C119.396 178.062 119.435 178.011 119.487 177.977L119.925 177.722C119.984 177.722 120.028 177.685 120.057 177.722L120.152 177.824C120.171 177.845 120.195 177.863 120.221 177.876C120.247 177.888 120.276 177.895 120.305 177.897C120.408 177.897 120.508 177.864 120.59 177.802C120.722 177.727 120.84 177.631 120.94 177.518C120.99 177.458 121.032 177.392 121.064 177.321C121.116 177.264 121.151 177.193 121.166 177.118Z" fill="#FAFAFA"/>
<path d="M122.656 175.144C122.654 174.766 122.686 174.388 122.75 174.016C122.811 173.665 122.907 173.321 123.035 172.989C123.142 172.692 123.29 172.41 123.473 172.152C123.626 171.93 123.825 171.744 124.057 171.606C124.226 171.492 124.433 171.448 124.634 171.482C124.812 171.523 124.969 171.63 125.072 171.781C125.209 171.978 125.306 172.201 125.357 172.436C125.427 172.742 125.461 173.054 125.459 173.368V173.819C125.461 173.895 125.443 173.971 125.408 174.038C125.39 174.098 125.351 174.149 125.298 174.183L123.4 175.283C123.396 175.411 123.413 175.539 123.451 175.661C123.479 175.744 123.53 175.817 123.597 175.872C123.657 175.92 123.733 175.943 123.809 175.938C123.897 175.928 123.982 175.898 124.057 175.851C124.168 175.791 124.266 175.712 124.349 175.618C124.424 175.534 124.488 175.441 124.539 175.341C124.57 175.283 124.604 175.228 124.641 175.173C124.672 175.136 124.709 175.104 124.751 175.079L125.203 174.817C125.219 174.804 125.238 174.798 125.258 174.798C125.278 174.798 125.297 174.804 125.313 174.817C125.332 174.84 125.346 174.867 125.353 174.896C125.361 174.925 125.362 174.955 125.357 174.984C125.349 175.126 125.319 175.266 125.269 175.399C125.206 175.601 125.123 175.796 125.021 175.982C124.907 176.195 124.769 176.395 124.612 176.579C124.455 176.766 124.267 176.926 124.057 177.052C123.885 177.165 123.678 177.214 123.473 177.19C123.294 177.147 123.137 177.038 123.035 176.884C122.891 176.664 122.795 176.416 122.75 176.156C122.684 175.823 122.652 175.484 122.656 175.144ZM124.057 172.822C123.945 172.882 123.848 172.967 123.772 173.069C123.691 173.171 123.625 173.284 123.575 173.404C123.524 173.525 123.483 173.649 123.451 173.776C123.426 173.891 123.408 174.007 123.4 174.125L124.685 173.397C124.678 173.297 124.663 173.197 124.641 173.098C124.63 173.01 124.595 172.927 124.539 172.858C124.517 172.827 124.489 172.8 124.456 172.78C124.424 172.76 124.387 172.747 124.349 172.742C124.245 172.733 124.142 172.761 124.057 172.822Z" fill="#FAFAFA"/>
<path d="M127.752 170.791C127.53 170.916 127.356 171.111 127.255 171.344C127.141 171.651 127.089 171.978 127.102 172.305V174.933C127.103 175.008 127.088 175.083 127.058 175.152C127.04 175.212 127.001 175.263 126.948 175.297L126.518 175.545C126.511 175.553 126.502 175.559 126.493 175.563C126.484 175.567 126.473 175.57 126.463 175.57C126.453 175.57 126.442 175.567 126.433 175.563C126.424 175.559 126.415 175.553 126.408 175.545C126.376 175.495 126.36 175.437 126.364 175.377V170.667C126.365 170.592 126.38 170.518 126.408 170.448C126.429 170.39 126.467 170.339 126.518 170.303L126.948 170.055C126.963 170.041 126.983 170.034 127.003 170.034C127.024 170.034 127.043 170.041 127.058 170.055C127.092 170.101 127.107 170.158 127.102 170.215V170.448C127.189 170.253 127.296 170.068 127.423 169.895C127.538 169.736 127.688 169.604 127.861 169.509L128.124 169.356C128.137 169.343 128.156 169.335 128.175 169.335C128.194 169.335 128.212 169.343 128.226 169.356C128.261 169.405 128.279 169.464 128.277 169.524V170.186C128.276 170.262 128.258 170.336 128.226 170.405C128.208 170.462 128.172 170.513 128.124 170.55L127.752 170.791Z" fill="#FAFAFA"/>
<path d="M133.197 170.441C133.203 170.433 133.212 170.427 133.221 170.423C133.231 170.418 133.241 170.416 133.251 170.416C133.262 170.416 133.272 170.418 133.281 170.423C133.291 170.427 133.299 170.433 133.306 170.441C133.339 170.49 133.354 170.549 133.35 170.608V171.336C133.35 171.411 133.335 171.485 133.306 171.555C133.281 171.609 133.243 171.656 133.197 171.693L130.7 173.149C130.685 173.163 130.665 173.171 130.645 173.171C130.625 173.171 130.605 173.163 130.59 173.149C130.558 173.102 130.542 173.046 130.547 172.989V166.436C130.547 166.361 130.562 166.287 130.59 166.218C130.611 166.161 130.649 166.113 130.7 166.08L131.16 165.81C131.175 165.796 131.194 165.789 131.215 165.789C131.235 165.789 131.254 165.796 131.269 165.81C131.302 165.857 131.317 165.914 131.313 165.97V171.511L133.197 170.441Z" fill="#FAFAFA"/>
<path d="M135.438 165.053C135.602 164.94 135.8 164.886 136 164.9C136.171 164.914 136.33 164.992 136.445 165.119C136.581 165.275 136.681 165.459 136.737 165.658C136.815 165.915 136.859 166.182 136.869 166.451C136.869 166.509 136.869 166.59 136.869 166.684V167.245C136.869 167.332 136.869 167.412 136.869 167.478C136.854 167.794 136.81 168.109 136.737 168.417C136.67 168.717 136.572 169.01 136.445 169.291C136.329 169.552 136.18 169.797 136 170.019C135.846 170.22 135.655 170.391 135.438 170.521C135.269 170.631 135.069 170.684 134.868 170.674C134.7 170.66 134.543 170.581 134.43 170.456C134.29 170.305 134.19 170.123 134.138 169.924C134.06 169.666 134.016 169.4 134.007 169.131C134.007 169.072 134.007 168.999 134.007 168.905V168.344C134.007 168.25 134.007 168.169 134.007 168.111C134.015 167.792 134.057 167.475 134.131 167.165C134.202 166.862 134.302 166.567 134.43 166.284C134.546 166.024 134.693 165.78 134.868 165.556C135.023 165.352 135.217 165.182 135.438 165.053ZM136.124 166.932C136.124 166.771 136.096 166.611 136.044 166.458C136.016 166.366 135.96 166.284 135.883 166.225C135.821 166.184 135.746 166.166 135.671 166.175C135.588 166.19 135.508 166.222 135.438 166.269C135.352 166.316 135.273 166.375 135.204 166.444C135.12 166.531 135.049 166.629 134.992 166.735C134.919 166.868 134.865 167.01 134.832 167.157C134.784 167.343 134.755 167.534 134.744 167.725C134.744 167.784 134.744 167.849 134.744 167.929V168.446C134.744 168.526 134.744 168.592 134.744 168.635C134.751 168.796 134.78 168.956 134.832 169.109C134.858 169.202 134.915 169.284 134.992 169.342C135.023 169.363 135.057 169.378 135.094 169.386C135.13 169.393 135.168 169.393 135.204 169.385C135.287 169.371 135.366 169.342 135.438 169.298C135.522 169.249 135.601 169.191 135.671 169.123C135.753 169.035 135.824 168.937 135.883 168.832C135.953 168.698 136.007 168.556 136.044 168.41C136.091 168.224 136.118 168.034 136.124 167.842C136.128 167.774 136.128 167.706 136.124 167.638V167.128C136.128 167.063 136.128 166.997 136.124 166.932Z" fill="#FAFAFA"/>
<path d="M139.103 169.312C139.197 169.256 139.28 169.184 139.351 169.101C139.439 168.999 139.515 168.886 139.578 168.766C139.65 168.62 139.707 168.466 139.746 168.308C139.791 168.129 139.813 167.946 139.811 167.762V167.39C139.811 167.463 139.738 167.55 139.687 167.652C139.637 167.759 139.579 167.861 139.512 167.958C139.436 168.061 139.353 168.158 139.264 168.249C139.172 168.345 139.066 168.426 138.95 168.49C138.875 168.541 138.79 168.576 138.701 168.594C138.612 168.611 138.52 168.61 138.432 168.592C138.269 168.541 138.13 168.435 138.037 168.293C137.918 168.105 137.832 167.898 137.782 167.682C137.72 167.407 137.685 167.126 137.68 166.844C137.68 166.75 137.68 166.633 137.68 166.495C137.68 166.356 137.68 166.24 137.68 166.138C137.689 165.818 137.723 165.499 137.782 165.184C137.842 164.874 137.927 164.57 138.037 164.274C138.141 164.017 138.273 163.773 138.432 163.546C138.566 163.345 138.743 163.176 138.95 163.051C139.047 162.993 139.153 162.951 139.264 162.927C139.346 162.912 139.43 162.912 139.512 162.927C139.577 162.945 139.637 162.978 139.687 163.022C139.734 163.057 139.776 163.099 139.811 163.146V162.913C139.812 162.838 139.827 162.764 139.855 162.694C139.876 162.637 139.914 162.589 139.965 162.556L140.395 162.301C140.41 162.287 140.43 162.28 140.45 162.28C140.47 162.28 140.49 162.287 140.505 162.301C140.54 162.35 140.558 162.409 140.556 162.469V167.201C140.576 167.91 140.444 168.615 140.169 169.269C139.954 169.783 139.58 170.216 139.103 170.506C138.94 170.607 138.754 170.665 138.563 170.674C138.412 170.683 138.261 170.645 138.132 170.565C138.009 170.473 137.909 170.353 137.84 170.215C137.769 170.049 137.729 169.872 137.723 169.691C137.717 169.616 137.732 169.54 137.767 169.473C137.785 169.413 137.824 169.361 137.877 169.327L138.264 169.109C138.273 169.099 138.283 169.092 138.295 169.086C138.307 169.081 138.32 169.079 138.333 169.079C138.346 169.079 138.359 169.081 138.371 169.086C138.383 169.092 138.394 169.099 138.402 169.109C138.438 169.146 138.47 169.188 138.497 169.232C138.542 169.31 138.615 169.368 138.702 169.393C138.789 169.458 138.921 169.385 139.103 169.312ZM138.417 165.781C138.417 165.975 138.417 166.165 138.417 166.349C138.396 166.64 138.479 166.929 138.651 167.165C138.716 167.22 138.798 167.251 138.884 167.251C138.97 167.251 139.053 167.22 139.118 167.165C139.33 167.027 139.495 166.829 139.592 166.597C139.725 166.293 139.8 165.967 139.811 165.636C139.811 165.526 139.811 165.395 139.811 165.242C139.811 165.09 139.811 164.959 139.811 164.864C139.826 164.603 139.749 164.345 139.592 164.136C139.528 164.076 139.443 164.044 139.355 164.044C139.267 164.044 139.183 164.076 139.118 164.136C138.91 164.273 138.748 164.468 138.651 164.696C138.501 165.039 138.421 165.408 138.417 165.781Z" fill="#FAFAFA"/>
<path d="M142.257 159.316C142.271 159.304 142.289 159.297 142.308 159.297C142.327 159.297 142.345 159.304 142.359 159.316C142.397 159.363 142.416 159.423 142.41 159.483V160.277C142.411 160.353 142.393 160.427 142.359 160.495C142.338 160.55 142.303 160.598 142.257 160.633L141.768 160.917C141.761 160.925 141.752 160.931 141.743 160.936C141.733 160.94 141.723 160.942 141.713 160.942C141.703 160.942 141.692 160.94 141.683 160.936C141.673 160.931 141.665 160.925 141.658 160.917C141.639 160.896 141.625 160.87 141.616 160.843C141.607 160.815 141.604 160.786 141.607 160.757V159.964C141.607 159.888 141.624 159.813 141.658 159.745C141.679 159.688 141.717 159.64 141.768 159.607L142.257 159.316ZM142.381 166.152C142.381 166.225 142.366 166.297 142.337 166.363C142.314 166.421 142.276 166.471 142.228 166.509L141.79 166.757C141.783 166.764 141.776 166.77 141.767 166.775C141.758 166.779 141.748 166.781 141.738 166.781C141.729 166.781 141.719 166.779 141.71 166.775C141.701 166.77 141.694 166.764 141.687 166.757C141.649 166.71 141.631 166.65 141.636 166.589V161.879C141.636 161.803 141.653 161.728 141.687 161.66C141.708 161.603 141.743 161.553 141.79 161.514L142.228 161.267C142.242 161.253 142.262 161.245 142.282 161.245C142.303 161.245 142.322 161.253 142.337 161.267C142.37 161.314 142.385 161.37 142.381 161.427V166.152Z" fill="#FAFAFA"/>
<path d="M146.22 163.932C146.22 164.007 146.205 164.081 146.177 164.15C146.156 164.207 146.118 164.256 146.067 164.289L145.629 164.543C145.616 164.557 145.597 164.564 145.578 164.564C145.559 164.564 145.541 164.557 145.527 164.543C145.489 164.496 145.47 164.436 145.476 164.376V161.813C145.498 161.511 145.443 161.207 145.315 160.932C145.213 160.75 145.052 160.721 144.826 160.852C144.6 161.003 144.433 161.227 144.352 161.485C144.23 161.829 144.17 162.191 144.176 162.556V165.126C144.176 165.201 144.161 165.275 144.133 165.344C144.115 165.404 144.076 165.456 144.023 165.49L143.592 165.737C143.586 165.745 143.577 165.751 143.568 165.756C143.558 165.76 143.548 165.762 143.538 165.762C143.527 165.762 143.517 165.76 143.508 165.756C143.498 165.751 143.49 165.745 143.483 165.737C143.449 165.691 143.433 165.634 143.439 165.577V160.867C143.438 160.791 143.453 160.717 143.483 160.648C143.501 160.588 143.54 160.536 143.592 160.503L144.023 160.255C144.03 160.247 144.038 160.241 144.048 160.237C144.057 160.233 144.068 160.23 144.078 160.23C144.088 160.23 144.098 160.233 144.108 160.237C144.117 160.241 144.126 160.247 144.133 160.255C144.165 160.304 144.181 160.363 144.176 160.422V160.648C144.272 160.426 144.39 160.214 144.527 160.015C144.647 159.831 144.81 159.679 145.001 159.571C145.167 159.449 145.374 159.397 145.578 159.425C145.659 159.445 145.734 159.482 145.8 159.534C145.865 159.585 145.919 159.65 145.958 159.723C146.064 159.921 146.133 160.135 146.162 160.357C146.201 160.647 146.221 160.938 146.22 161.231V163.932Z" fill="#FAFAFA"/>
<path d="M183.043 142.738L175.955 146.815L177.057 136.899C176.203 136.447 175.663 135.348 175.663 133.768C175.663 130.95 177.385 127.681 179.502 126.487C181.62 125.293 183.335 126.56 183.335 129.399C183.291 131.07 182.813 132.701 181.948 134.132L183.043 142.738Z" fill="#455A64"/>
<path d="M183.049 142.738L176.808 139.148L175.954 146.822L183.049 142.738Z" fill="#37474F"/>
<path d="M179.487 126.465C177.944 127.505 176.792 129.03 176.217 130.797L181.933 134.088C182.798 132.657 183.276 131.026 183.32 129.355C183.334 126.538 181.619 125.249 179.487 126.465Z" fill="#37474F"/>
<path d="M145.03 93.4465C142.599 92.0486 139.248 92.2452 135.54 94.3785C128.137 98.645 122.137 109.006 122.137 117.531C122.137 121.812 123.655 124.812 126.093 126.195L130.817 128.933C133.24 130.331 136.591 130.127 140.307 127.994C147.709 123.735 153.71 113.367 153.71 104.841C153.71 100.582 152.206 97.5602 149.783 96.1987" fill="#2B7A78"/>
<path d="M140.3 97.1235C132.897 101.39 126.896 111.758 126.896 120.276C126.896 128.795 132.897 132.261 140.3 127.994C147.702 123.727 153.71 113.367 153.703 104.841C153.696 96.3153 147.695 92.8642 140.3 97.1235Z" fill="#2B7A78"/>
<path d="M147.695 116.039V117.014C145.922 120.171 143.378 122.831 140.3 124.747C137.416 126.399 134.81 126.581 132.897 125.526V123.516C132.995 121.425 133.594 119.389 134.643 117.576C135.692 115.763 137.161 114.228 138.927 113.097L140.877 111.976C142.599 110.986 144.278 110.855 145.593 111.619C146.907 112.384 147.695 113.993 147.695 116.039Z" fill="#2B7A78"/>
<path opacity="0.4" d="M145.031 93.4466L149.776 96.1988C147.352 94.7936 144.001 94.9902 140.286 97.1234C135.438 99.9192 131.19 105.329 128.839 111.124L124.086 108.38C126.444 102.555 130.657 97.1744 135.533 94.3786C139.256 92.2526 142.607 92.0487 145.031 93.4466Z" fill="white"/>
<path opacity="0.2" d="M130.649 128.824L126.101 126.196C123.663 124.812 122.145 121.827 122.145 117.532L126.897 120.284C126.926 124.434 128.328 127.39 130.649 128.824Z" fill="black"/>
<path opacity="0.1" d="M124.101 108.38L128.853 111.124C127.635 114.026 126.981 117.131 126.926 120.276L122.173 117.524C122.232 114.382 122.886 111.279 124.101 108.38Z" fill="black"/>
<path d="M138.607 111.518C138.154 111.523 137.708 111.407 137.314 111.183C136.84 110.868 136.461 110.431 136.215 109.918C135.97 109.405 135.868 108.836 135.92 108.271C135.982 106.944 136.362 105.652 137.027 104.501C137.693 103.351 138.625 102.377 139.745 101.66C140.196 101.301 140.744 101.087 141.318 101.044C141.892 101.001 142.466 101.132 142.965 101.42C143.463 101.708 143.863 102.139 144.112 102.658C144.361 103.176 144.447 103.757 144.359 104.324C144.296 105.651 143.916 106.943 143.25 108.093C142.585 109.243 141.654 110.217 140.534 110.935C139.954 111.296 139.289 111.497 138.607 111.518Z" fill="white"/>
<path d="M145.593 111.612C144.278 110.848 142.599 110.979 140.877 111.969L138.927 113.09C137.16 114.221 135.69 115.758 134.641 117.572C133.592 119.386 132.994 121.424 132.897 123.516V125.533C134.81 126.589 137.416 126.407 140.3 124.754C143.378 122.838 145.922 120.179 147.695 117.022V116.046C147.695 113.993 146.936 112.384 145.593 111.612Z" fill="white"/>
<path d="M295.669 237.572C295.669 237.572 296.64 229.068 300.882 222.464C305.123 215.861 310.949 211.747 316.387 211.318C321.826 210.888 326.221 215.883 320.403 219.326C314.584 222.77 304.247 226.25 299.487 239.065L295.669 237.572Z" fill="#2B7A78"/>
<path opacity="0.1" d="M295.669 237.572C295.669 237.572 296.64 229.068 300.882 222.464C305.123 215.861 310.949 211.747 316.387 211.318C321.826 210.888 326.221 215.883 320.403 219.326C314.584 222.77 304.247 226.25 299.487 239.065L295.669 237.572Z" fill="black"/>
<path d="M297.268 235.358H297.21C297.138 235.329 297.081 235.273 297.051 235.202C297.021 235.131 297.02 235.051 297.049 234.98C302.787 220.892 313.708 215.001 318.687 213.866C318.724 213.857 318.763 213.856 318.801 213.862C318.839 213.868 318.875 213.882 318.907 213.902C318.94 213.923 318.968 213.949 318.99 213.98C319.013 214.012 319.029 214.047 319.037 214.084C319.046 214.121 319.047 214.16 319.041 214.198C319.034 214.235 319.021 214.272 319 214.304C318.98 214.336 318.953 214.365 318.922 214.387C318.891 214.409 318.856 214.425 318.818 214.434C313.942 215.555 303.232 221.336 297.589 235.206C297.561 235.264 297.514 235.31 297.456 235.338C297.397 235.366 297.331 235.373 297.268 235.358Z" fill="white"/>
<path d="M326.308 235.526C325.819 236.633 324.607 237.215 323.483 237.667C322.359 238.118 321.132 238.606 320.519 239.654C319.293 241.766 321.308 244.751 319.994 246.797C319.684 247.209 319.294 247.554 318.848 247.812C318.401 248.069 317.907 248.234 317.395 248.297C316.555 248.45 315.701 248.45 314.854 248.522C314.449 248.517 314.044 248.485 313.642 248.428C312.463 248.165 311.229 248.296 310.131 248.799C308.445 249.746 307.941 251.864 306.904 253.502C306.271 254.467 305.436 255.284 304.457 255.897C303.478 256.51 302.378 256.905 301.232 257.055C300.502 257.15 299.042 257.288 298.312 256.859C298.255 256.831 298.201 256.797 298.151 256.757C298.042 256.64 297.91 256.488 297.852 256.407C297.848 256.391 297.848 256.373 297.852 256.357C297.553 255.257 298.042 254.121 298.064 252.986V252.782C298.013 251.464 297.976 250.153 297.947 248.843C297.884 246.416 297.859 243.989 297.874 241.562C297.874 239.989 297.699 238.271 298.37 236.793C299.1 235.162 300.94 235.126 301.634 233.531C301.911 232.891 302.057 232.213 302.327 231.565C302.744 230.623 303.413 229.814 304.26 229.224C305.107 228.635 306.1 228.289 307.131 228.224C310.335 228.063 313.204 230.648 316.409 230.408C317.234 230.342 318.044 230.087 318.862 229.942C321.454 229.454 324.454 230.189 325.914 232.381C326.234 232.832 326.438 233.356 326.507 233.904C326.576 234.453 326.507 235.01 326.308 235.526Z" fill="#2B7A78"/>
<path d="M297.531 251.311C297.462 251.291 297.404 251.244 297.368 251.182C297.333 251.119 297.323 251.045 297.341 250.976C301.765 234.419 319.242 232.046 323.352 232.323C323.388 232.324 323.424 232.333 323.456 232.349C323.489 232.365 323.518 232.387 323.542 232.414C323.565 232.441 323.584 232.473 323.595 232.507C323.606 232.542 323.611 232.578 323.608 232.614C323.6 232.685 323.566 232.75 323.511 232.796C323.457 232.842 323.387 232.866 323.316 232.861C319.308 232.577 302.196 234.915 297.867 251.122C297.847 251.19 297.8 251.249 297.738 251.284C297.675 251.319 297.601 251.329 297.531 251.311Z" fill="white"/>
<path d="M316.972 242.924C316.916 242.916 316.865 242.89 316.826 242.851C315.21 241.454 313.305 240.431 311.247 239.853C309.189 239.275 307.028 239.158 304.919 239.509C304.848 239.515 304.777 239.495 304.72 239.452C304.663 239.409 304.625 239.346 304.612 239.276C304.602 239.205 304.62 239.132 304.662 239.073C304.704 239.015 304.768 238.975 304.839 238.963C307.038 238.598 309.292 238.722 311.437 239.328C313.583 239.933 315.567 241.005 317.249 242.465C317.275 242.49 317.295 242.52 317.309 242.553C317.323 242.586 317.331 242.622 317.331 242.658C317.331 242.694 317.323 242.729 317.309 242.763C317.295 242.796 317.275 242.826 317.249 242.851C317.216 242.89 317.172 242.918 317.122 242.931C317.072 242.944 317.02 242.942 316.972 242.924Z" fill="white"/>
<path d="M255.495 37.6046L257.817 38.4929V33.3963C257.817 29.3482 261.051 28.3799 264.562 30.4039C268.081 32.428 270.928 37.3425 270.928 41.3906V42.1187C271.417 41.9696 271.934 41.9327 272.44 42.0109C272.946 42.0891 273.427 42.2803 273.848 42.5701C275.182 43.4372 276.291 44.6058 277.086 45.981C277.882 47.3562 278.34 48.8991 278.425 50.4843V50.8193L281.667 52.6831C282.544 53.254 283.273 54.0227 283.797 54.9271C284.321 55.8315 284.624 56.8461 284.682 57.8889C284.682 59.811 283.331 60.5901 281.667 59.629L255.495 44.5505C254.618 43.981 253.888 43.2124 253.365 42.3076C252.842 41.4029 252.542 40.3876 252.488 39.3447C252.488 37.4299 253.824 36.6509 255.495 37.6046Z" fill="#E6E6E6"/>
<path d="M286.587 33.5714L290.799 35.9959C290.776 35.8123 290.764 35.6276 290.763 35.4426V34.2267C290.763 32.0425 292.281 31.1833 294.165 32.2682C294.974 32.7624 295.666 33.4256 296.194 34.2121C296.501 31.4891 298.647 30.4771 301.246 31.9696C302.731 32.9334 303.968 34.2326 304.855 35.7619C305.743 37.2913 306.257 39.0077 306.356 40.7721V42.5923C306.375 43.3196 306.227 44.0416 305.925 44.7037L309.429 46.7132C309.975 47.0744 310.429 47.5584 310.754 48.1261C311.078 48.6939 311.265 49.3296 311.298 49.9823C311.298 51.1836 310.451 51.6714 309.407 51.0744L286.587 37.969C286.035 37.6104 285.576 37.1265 285.247 36.5571C284.919 35.9877 284.73 35.3488 284.696 34.6927C284.696 33.4622 285.543 32.9744 286.587 33.5714Z" fill="#E6E6E6"/>
<path d="M270.276 144.07C267.21 149.239 264.26 153.732 262.187 155.887C258.252 157.707 249.01 160.517 245.397 160.983C244.762 161.064 244.119 160.914 243.586 160.561C242.163 159.629 241.06 159.476 239.564 158.959C238.388 158.559 237.892 157.998 237.673 158.231C237.447 158.496 237.333 158.838 237.356 159.185C237.379 159.532 237.538 159.856 237.797 160.088C238.359 160.62 238.981 161.084 239.651 161.471C238.048 161.868 236.376 161.898 234.76 161.559C231.628 160.736 230.154 162.236 232.271 165.628C233.001 166.837 236.008 168.781 242.053 168.257C244.209 168.141 246.357 167.898 248.485 167.529C254.281 166.291 260.727 165.097 264.691 163.888C266.166 163.31 267.485 162.398 268.545 161.224C275.211 153.644 277.423 148.242 280.343 143.335L280.094 135.326C275.364 135.166 272.838 139.745 270.276 144.07Z" fill="#FFA8A7"/>
<path d="M280.905 135.165C279.533 134.973 278.135 135.158 276.861 135.701C275.588 136.244 274.487 137.123 273.678 138.245C270.437 142.388 264.699 152.333 264.699 152.333C264.699 152.333 266.575 157.321 271.641 158.158L279.781 147.193C279.781 147.193 283.635 139.577 280.905 135.165Z" fill="#455A64"/>
<path d="M298.506 246.955H293.199V256.391H298.506V246.955Z" fill="#FFA8A7"/>
<path d="M280.11 246.452L274.81 246.641L274.54 236.652L280.11 236.463V246.452Z" fill="#FFA8A7"/>
<path d="M299.251 165.272C299.251 170.528 298.477 212.881 298.477 212.881C298.594 214.395 299.937 217.191 299.667 223.008C299.265 230.908 298.732 251.673 298.732 251.673C297.821 252.138 296.816 252.39 295.793 252.41C294.77 252.43 293.755 252.218 292.827 251.789C292.827 251.789 288.519 222.666 287.57 214.868C286.738 208.032 284.607 185.403 284.607 185.403L281.738 212.153C282.346 215.023 282.567 217.961 282.395 220.889C282.146 224.53 280.438 243.373 280.438 243.373C279.521 243.912 278.493 244.236 277.432 244.321C276.371 244.405 275.304 244.248 274.313 243.86C274.313 243.86 271.291 215.465 271.233 212.131C271.16 208.345 272.999 165.228 272.999 165.228L299.251 165.272Z" fill="#37474F"/>
<path d="M293.199 253.667V252.881C292.688 253.107 291.513 257.781 289.403 259.776C287.731 261.363 285.454 263.191 284.87 264.96C284.286 266.729 288.045 267.814 289.615 267.53C291.425 267.195 294.579 265.863 295.367 264.618C296.156 263.373 296.528 261.567 297.17 260.664C297.813 259.761 299.295 258.757 299.638 257.708C299.745 256.727 299.643 255.735 299.339 254.796C299.09 253.82 298.828 252.75 298.506 252.845V253.442C297.758 254.054 296.817 254.384 295.849 254.374C295.075 254.439 293.192 254.279 293.199 253.667Z" fill="#263238"/>
<path d="M274.751 244.938C274.474 244.938 274.247 245.353 273.641 246.037C272.741 246.982 271.687 247.77 270.524 248.367C268.539 249.401 264.684 250.988 262.925 251.811C261.83 252.32 261.881 253.689 263.012 254.468C264.144 255.247 266.867 255.808 270.137 255.051C271.919 254.636 274.24 252.925 275.715 253.019C277.189 253.114 279.927 253.085 281.015 252.291C282.102 251.498 281.664 249.852 281.358 248.432C281.022 246.874 280.628 244.45 280.109 244.559V245.105C279.474 246.11 276.182 246.518 274.78 245.782L274.751 244.938Z" fill="#263238"/>
<path d="M284.606 185.403C281.845 184.501 279.321 182.996 277.218 180.998C277.218 180.998 278.678 183.772 282.883 186.356L281.977 210.245L284.606 185.403Z" fill="#263238"/>
<path d="M296.286 135.937C296.286 135.937 300.666 136.942 300.352 144.834L299.44 157.394V176.251C295.541 180.663 278.269 180.343 272.319 175.901C272.319 175.901 272.991 153.586 273.392 144.994C273.677 138.893 275.086 135.821 281.101 135.151L288.497 135.471L296.286 135.937Z" fill="#2B7A78"/>
<path d="M290.708 119.541C290.734 120.598 290.549 121.649 290.165 122.634C289.781 123.619 289.205 124.518 288.471 125.28C287.736 126.042 286.858 126.652 285.887 127.074C284.915 127.496 283.869 127.722 282.81 127.739C278.429 127.739 275.86 123.968 274.911 119.541C273.159 111.437 278.444 111.335 282.81 111.335C284.948 111.379 286.981 112.268 288.462 113.807C289.944 115.346 290.751 117.408 290.708 119.541Z" fill="#263238"/>
<path d="M294.739 122.854C294.739 122.854 293.527 128.766 293.038 129.741C292.731 130.328 292.208 130.774 291.578 130.986L291.666 126.829L294.739 122.854Z" fill="#263238"/>
<path d="M293.214 114.386C293.214 114.386 294.083 114.168 295.01 115.609C295.798 116.84 295.981 119.606 294.74 122.89L292.455 123.167L293.214 114.386Z" fill="#263238"/>
<path d="M294.053 115.587L296.856 115.638C296.875 115.458 296.857 115.275 296.802 115.102C296.747 114.928 296.656 114.768 296.536 114.632C296.416 114.495 296.269 114.384 296.105 114.307C295.94 114.23 295.761 114.187 295.578 114.182C295.195 114.188 294.828 114.334 294.546 114.593C294.264 114.853 294.089 115.207 294.053 115.587Z" fill="#263238"/>
<path d="M294.396 114.925L296.469 112.937C296.349 112.797 296.202 112.682 296.036 112.601C295.87 112.521 295.689 112.475 295.505 112.468C295.32 112.46 295.136 112.491 294.964 112.558C294.792 112.625 294.636 112.727 294.505 112.857C294.23 113.125 294.066 113.486 294.046 113.869C294.026 114.253 294.151 114.629 294.396 114.925Z" fill="#263238"/>
<path d="M291.768 123.13C292.228 123.414 292.877 122.504 293.447 121.885C294.016 121.267 295.783 120.699 296.703 122.708C297.622 124.718 296.053 126.705 294.739 127.361C292.381 128.526 291.636 126.829 291.636 126.829L291.439 136.192C288.125 141.289 280.606 141.129 283.314 135.945V133.098C282.2 133.283 281.069 133.341 279.941 133.273C278.102 132.981 276.948 131.474 276.386 129.406C275.495 126.086 275.152 123.407 275.912 116.876C276.744 109.727 284.759 109.646 289.052 112.508C293.344 115.369 291.768 123.13 291.768 123.13Z" fill="#FFA8A7"/>
<path d="M281.781 115.762C283.694 115.573 285.584 115.18 287.504 115.034C287.918 114.984 288.338 115.004 288.745 115.092C290.205 115.493 290.03 117.196 290.264 118.383C290.665 120.436 290.994 123.909 291.768 123.924C292.001 123.924 292.877 122.417 293.447 121.878C293.76 121.414 293.937 120.872 293.958 120.313C294.104 119.468 294.177 118.602 294.242 117.742C294.301 117.014 294.374 116.286 294.374 115.558C294.407 114.735 294.341 113.912 294.177 113.105C293.994 112.418 293.642 111.788 293.155 111.27L293.009 111.11C292.046 110.106 290.879 109.322 289.585 108.809C287.723 108.113 285.771 107.689 283.788 107.549C281.808 107.41 279.837 107.166 277.883 106.821C277.771 106.789 277.651 106.789 277.539 106.821C277.46 106.865 277.393 106.928 277.345 107.004C277.296 107.081 277.268 107.168 277.262 107.258C277.182 107.711 277.232 108.176 277.406 108.602C277.581 109.027 277.872 109.394 278.248 109.661C276.926 109.763 275.408 109.078 274.138 108.729C274.035 108.685 273.924 108.663 273.813 108.663C273.701 108.663 273.591 108.685 273.488 108.729C273.36 108.818 273.27 108.95 273.232 109.1C273.14 109.442 273.127 109.801 273.196 110.149C273.312 111.202 273.705 112.207 274.335 113.061C275.319 114.339 276.709 115.245 278.277 115.631C279.431 115.853 280.613 115.897 281.781 115.762Z" fill="#263238"/>
<path d="M283.321 133.098C283.321 133.098 287.424 132.238 288.855 131.445C289.707 130.98 290.399 130.269 290.841 129.406C290.625 130.273 290.241 131.09 289.709 131.809C288.665 133.207 283.321 134.226 283.321 134.226V133.098Z" fill="#F28F8F"/>
<path d="M284.306 122.06C284.298 122.285 284.38 122.503 284.533 122.668C284.686 122.833 284.899 122.931 285.124 122.941C285.303 122.956 285.482 122.916 285.638 122.827C285.794 122.739 285.919 122.605 285.998 122.444C286.076 122.283 286.104 122.103 286.078 121.926C286.052 121.749 285.972 121.584 285.85 121.452C285.729 121.321 285.57 121.229 285.395 121.19C285.22 121.15 285.037 121.164 284.87 121.229C284.703 121.295 284.56 121.409 284.459 121.558C284.359 121.706 284.305 121.881 284.306 122.06Z" fill="#263238"/>
<path d="M285.62 118.529L287.379 119.541C287.507 119.291 287.537 119.003 287.461 118.733C287.385 118.463 287.21 118.232 286.971 118.085C286.854 118.019 286.725 117.979 286.592 117.966C286.459 117.953 286.324 117.968 286.197 118.01C286.07 118.052 285.953 118.119 285.854 118.209C285.755 118.298 285.675 118.407 285.62 118.529Z" fill="#263238"/>
<path d="M283.687 127.965L281.811 128.693C281.848 128.821 281.912 128.94 281.998 129.043C282.084 129.146 282.19 129.23 282.31 129.29C282.43 129.35 282.56 129.385 282.694 129.392C282.828 129.4 282.962 129.38 283.088 129.333C283.343 129.224 283.547 129.021 283.659 128.767C283.77 128.513 283.78 128.226 283.687 127.965Z" fill="#F28F8F"/>
<path d="M276.758 119.279L278.364 117.997C278.292 117.885 278.198 117.79 278.086 117.717C277.975 117.644 277.849 117.596 277.718 117.574C277.586 117.553 277.451 117.56 277.323 117.594C277.194 117.628 277.074 117.688 276.97 117.772C276.755 117.953 276.615 118.207 276.576 118.485C276.537 118.763 276.602 119.045 276.758 119.279Z" fill="#263238"/>
<path d="M277.467 121.82C277.479 121.979 277.538 122.131 277.636 122.258C277.734 122.384 277.867 122.479 278.019 122.532C278.17 122.584 278.334 122.591 278.489 122.553C278.644 122.514 278.785 122.431 278.894 122.313C279.003 122.196 279.075 122.05 279.102 121.892C279.129 121.735 279.109 121.573 279.045 121.426C278.981 121.28 278.876 121.155 278.742 121.067C278.608 120.979 278.452 120.932 278.292 120.932C278.179 120.935 278.068 120.961 277.965 121.008C277.862 121.055 277.77 121.122 277.693 121.204C277.617 121.287 277.557 121.384 277.518 121.489C277.479 121.595 277.462 121.707 277.467 121.82Z" fill="#263238"/>
<path d="M281.869 121.135L281.774 126.312L278.825 125.642L281.869 121.135Z" fill="#F28F8F"/>
<path d="M211.831 164.492L216.408 161.857L218.218 159.665L213.648 162.301L211.831 164.492Z" fill="#2B7A78"/>
<path opacity="0.4" d="M211.831 164.492L216.408 161.857L218.218 159.665L213.648 162.301L211.831 164.492Z" fill="black"/>
<path d="M224.277 171.657L228.854 169.021L232.672 165.65L228.102 168.278L224.277 171.657Z" fill="#2B7A78"/>
<path opacity="0.4" d="M224.277 171.657L228.854 169.021L232.672 165.65L228.102 168.278L224.277 171.657Z" fill="black"/>
<path d="M263.158 180.75C264.241 182.197 264.895 183.917 265.049 185.716C263.971 184.266 263.317 182.548 263.158 180.75ZM273.795 180.889C272.254 170.441 266.626 160.109 259.924 156.243C256.705 154.387 253.726 154.321 251.339 155.712L247.032 158.187L246.791 158.333C246.599 158.438 246.414 158.555 246.236 158.682C245.883 158.925 245.55 159.198 245.244 159.498L245.098 159.636C244.966 159.767 244.827 159.92 244.703 160.066C244.579 160.211 244.389 160.437 244.243 160.634C243.934 161.04 243.653 161.469 243.404 161.915C243.272 162.141 243.148 162.381 243.032 162.643L205.414 140.99L200.844 143.618V146.531L201.231 146.749L201.596 146.96V147.543L200.866 147.972V149.661L206.392 161.311L211.852 164.463L213.67 162.279L218.488 165.155L221.255 169.88L224.307 171.635L228.125 168.257L232.811 170.958L234.388 177.445L242.265 181.988C242.654 183.639 243.142 185.266 243.725 186.859C243.776 187.019 243.842 187.187 243.908 187.369C246.521 194.213 250.675 200.074 255.362 202.775C255.923 203.107 256.512 203.392 257.121 203.627C257.443 203.754 257.772 203.864 258.107 203.954C258.399 204.032 258.691 204.097 258.983 204.151C259.904 204.318 260.849 204.318 261.771 204.151L262.151 204.056C262.332 204.02 262.511 203.969 262.684 203.903L263.093 203.743C263.237 203.691 263.377 203.625 263.509 203.546C263.644 203.488 263.775 203.423 263.903 203.35L264.093 203.233C264.127 203.222 264.159 203.205 264.188 203.182C265.231 202.585 267.801 201.1 268.502 200.707C271.977 198.697 274.225 193.615 274.225 186.429C274.219 184.574 274.076 182.722 273.795 180.889Z" fill="#2B7A78"/>
<path d="M261.822 189.567C260.012 188.526 258.552 185.439 258.552 182.673C258.552 179.906 260.012 178.501 261.822 179.535C263.633 180.568 265.085 183.663 265.085 186.437C265.085 189.211 263.625 190.609 261.822 189.567ZM269.217 183.517C267.684 173.076 262.056 162.738 255.347 158.879C252.237 157.088 249.361 156.957 247.025 158.187L246.784 158.333C246.592 158.438 246.407 158.555 246.229 158.682C245.875 158.925 245.543 159.198 245.236 159.498L245.09 159.636C244.959 159.767 244.82 159.92 244.696 160.066C244.572 160.211 244.382 160.437 244.236 160.634C243.926 161.04 243.646 161.469 243.397 161.915C243.265 162.141 243.141 162.381 243.024 162.643C242.344 164.05 241.853 165.541 241.564 167.077L200.836 143.618V146.531L201.223 146.749L201.588 146.96V147.543L200.858 147.972V149.661L206.385 161.311L211.845 164.463L213.663 162.279L218.481 165.155L221.248 169.88L224.299 171.635L228.117 168.257L232.804 170.958L234.381 177.445L242.265 181.988C242.654 183.639 243.142 185.266 243.725 186.859C243.776 187.019 243.842 187.187 243.908 187.369C246.521 194.213 250.675 200.074 255.362 202.775C255.923 203.107 256.512 203.392 257.121 203.627C257.443 203.754 257.772 203.864 258.106 203.954C258.399 204.032 258.691 204.097 258.983 204.151C259.904 204.318 260.849 204.318 261.771 204.151L262.151 204.056C262.332 204.02 262.511 203.969 262.684 203.903L263.093 203.743C263.237 203.691 263.377 203.625 263.509 203.547C263.644 203.488 263.775 203.423 263.903 203.35L264.093 203.233C264.127 203.222 264.159 203.205 264.188 203.183C267.516 201.086 269.655 196.076 269.655 189.065C269.643 187.208 269.497 185.354 269.217 183.517Z" fill="#2B7A78"/>
<path opacity="0.4" d="M265.086 186.43C265.086 189.204 263.626 190.609 261.823 189.568C260.02 188.526 258.552 185.447 258.552 182.673C258.552 179.899 260.012 178.494 261.823 179.535C262.344 179.851 262.798 180.267 263.159 180.758C263.316 182.556 263.97 184.275 265.049 185.723C265.076 185.958 265.088 186.194 265.086 186.43Z" fill="black"/>
<path opacity="0.4" d="M274.211 186.422C274.211 193.608 271.962 198.69 268.488 200.7C267.757 201.093 265.217 202.578 264.173 203.175C267.502 201.078 269.641 196.069 269.641 189.058C269.633 187.203 269.492 185.351 269.218 183.517C267.684 173.076 262.056 162.738 255.347 158.879C252.237 157.088 249.361 156.957 247.025 158.187L251.332 155.712C253.719 154.321 256.698 154.387 259.917 156.243C266.626 160.109 272.254 170.441 273.787 180.889C274.066 182.72 274.207 184.57 274.211 186.422Z" fill="white"/>
<path d="M269.64 189.043C269.64 196.055 267.501 201.064 264.172 203.161C265.216 202.564 267.786 201.078 268.487 200.685C271.962 198.676 274.21 193.594 274.21 186.408C274.21 186.145 274.21 185.876 274.21 185.607L269.64 188.242C269.633 188.526 269.64 188.788 269.64 189.043Z" fill="#2B7A78"/>
<path opacity="0.1" d="M269.64 189.043C269.64 196.055 267.501 201.064 264.172 203.161C265.216 202.564 267.786 201.078 268.487 200.685C271.962 198.676 274.21 193.594 274.21 186.408C274.21 186.145 274.21 185.876 274.21 185.607L269.64 188.242C269.633 188.526 269.64 188.788 269.64 189.043Z" fill="black"/>
<path opacity="0.15" d="M241.739 170.055V171.533L200.844 147.987L201.596 147.55V146.938L241.739 170.055Z" fill="black"/>
<path opacity="0.15" d="M241.739 170.667V171.533L200.844 147.987L201.596 147.55V147.543L241.739 170.667Z" fill="black"/>
<path opacity="0.15" d="M259.523 200.693C257.973 200.652 256.462 200.203 255.143 199.389C248.478 195.552 243.054 184.136 243.054 173.943C243.054 167.995 244.857 163.553 248.003 161.74C250.193 160.474 252.785 160.634 255.508 162.199C262.166 166.036 267.59 177.489 267.59 187.682C267.59 193.623 265.787 198.072 262.64 199.877C261.691 200.418 260.616 200.699 259.523 200.693ZM251.164 161.631C250.191 161.626 249.234 161.877 248.39 162.359C245.521 164.012 243.806 168.344 243.806 173.936C243.806 183.896 249.062 195.05 255.53 198.749C258.005 200.205 260.348 200.336 262.297 199.215C265.166 197.562 266.882 193.237 266.882 187.645C266.882 177.678 261.625 166.531 255.165 162.825C253.957 162.093 252.577 161.691 251.164 161.66V161.631Z" fill="black"/>
<path opacity="0.4" d="M242.995 162.629C242.314 164.036 241.823 165.527 241.535 167.063L200.807 143.604L205.377 140.975L242.995 162.629Z" fill="white"/>
<path d="M295.929 164.907C298.061 160.881 300.499 151.838 301.711 147.273C303.434 140.794 300.645 136.716 297.477 136.549C295.499 136.855 288.98 160.495 288.98 160.495C288.25 161.071 278.343 166.087 275.16 167.347C274.591 167.561 273.963 167.561 273.394 167.347C271.868 166.793 270.824 166.895 269.328 166.75C268.152 166.633 267.561 166.218 267.408 166.466C267.268 166.773 267.25 167.121 267.357 167.441C267.464 167.761 267.688 168.029 267.984 168.191C268.629 168.565 269.315 168.864 270.028 169.079C268.749 169.466 267.415 169.646 266.079 169.611C263.013 169.545 261.911 170.87 264.29 173.979C265.75 175.916 268.167 176.528 273.562 174.671C275.109 174.132 277.212 173.091 279.176 172.385C283.22 170.929 284.286 170.754 287.366 169.713C291.856 168.198 294.98 166.699 295.929 164.907Z" fill="#FFA8A7"/>
<path d="M296.287 135.937C298.148 136.192 299.937 136.607 301.039 138.121C302.142 139.636 303.025 141.762 301.945 147.55C301.117 151.621 300.01 155.63 298.63 159.549C298.63 159.549 294.294 161.398 289.688 156.709L292.856 144.492C292.856 144.492 293.367 136.549 296.287 135.937Z" fill="#455A64"/>
</svg>
