<svg width="350" height="218" viewBox="0 0 350 218" fill="none" xmlns="http://www.w3.org/2000/svg">
<path d="M52.1008 102.194L30.0938 156.786L124.116 184.911L146.123 130.32L52.1008 102.194Z" fill="#EBEBEB"/>
<path d="M146.117 130.307C145.746 130.494 145.356 130.651 144.951 130.775L141.537 131.964L128.909 136.219L87.0305 150.027L86.6824 150.138L86.487 149.87L86.0046 149.217L61.8717 116.046L54.6416 105.947L52.7181 103.18C52.48 102.865 52.2757 102.532 52.1074 102.186C52.3958 102.467 52.6515 102.771 52.8707 103.096L54.9408 105.784L62.4091 115.773L86.774 148.823C86.9328 149.049 87.0977 149.27 87.2503 149.475L86.7068 149.317L128.683 135.73L141.415 131.685L144.89 130.633C145.285 130.49 145.696 130.381 146.117 130.307Z" fill="#E0E0E0"/>
<path d="M30.093 156.802C29.9648 156.618 40.0527 151.253 52.6199 144.814C65.187 138.376 75.4826 133.31 75.6108 133.494C75.7391 133.678 65.6511 139.044 53.0779 145.482C40.5046 151.921 30.2212 156.96 30.093 156.802Z" fill="#E0E0E0"/>
<path d="M107.138 142.132C107.37 142.063 111.364 151.6 116.054 163.388C120.743 175.177 124.352 184.829 124.114 184.898C123.876 184.966 119.888 175.429 115.199 163.641C110.509 151.853 106.9 142.2 107.138 142.132Z" fill="#E0E0E0"/>
<path d="M329.558 87.9853L236.521 101.569L247.151 155.59L340.187 142.006L329.558 87.9853Z" fill="#E0E0E0"/>
<path d="M329.55 88.009C329.341 88.3101 329.099 88.5936 328.829 88.8559L326.625 91.1862L318.381 99.6868C311.303 106.878 301.618 116.719 290.902 127.619L290.676 127.85L290.37 127.703L289.625 127.35L251.997 109.266L240.645 103.711L237.592 102.17C237.223 102.006 236.876 101.811 236.554 101.586C236.943 101.709 237.319 101.86 237.677 102.038L240.822 103.464L252.308 108.808L290.059 126.693L290.804 127.045L290.273 127.129L317.959 99.3396L326.405 90.9916C327.376 90.0605 328.145 89.3136 328.731 88.7455C328.981 88.4817 329.255 88.2354 329.55 88.009Z" fill="#EBEBEB"/>
<path d="M247.142 155.608C246.941 155.503 252.479 147.076 259.514 136.787C266.549 126.498 272.423 118.24 272.624 118.345C272.826 118.45 267.287 126.872 260.253 137.166C253.218 147.46 247.344 155.708 247.142 155.608Z" fill="#EBEBEB"/>
<path d="M303.419 113.143C303.578 112.995 311.968 119.334 322.087 127.308C332.205 135.283 340.339 141.869 340.174 142.037C340.009 142.206 331.662 135.835 321.506 127.871C311.351 119.907 303.236 113.306 303.419 113.143Z" fill="#EBEBEB"/>
<path d="M236.562 2.11827L219.801 38.8276L283.027 60.2488L299.788 23.5394L236.562 2.11827Z" fill="#EBEBEB"/>
<path d="M299.769 24.0287C299.512 24.152 299.239 24.2491 298.956 24.318L296.593 25.0545L287.843 27.6583L258.831 36.0747L258.593 36.1431L258.47 35.9537L258.165 35.5013L242.783 12.2984C240.859 9.35789 239.296 6.95922 238.179 5.23912L236.957 3.30861C236.802 3.08819 236.671 2.85572 236.566 2.61426C236.756 2.81271 236.923 3.02577 237.067 3.25075C237.397 3.72943 237.837 4.3554 238.392 5.13391L243.168 12.1143C247.173 18.0741 252.663 26.2275 258.721 35.2593L259.026 35.717L258.666 35.596L287.727 27.3269L296.52 24.8598L298.92 24.2444C299.196 24.1532 299.48 24.0811 299.769 24.0287Z" fill="#E0E0E0"/>
<path d="M219.786 39.3251C219.7 39.1989 226.753 35.7745 235.535 31.682C244.316 27.5895 251.497 24.3808 251.576 24.507C251.656 24.6333 244.615 28.0577 235.828 32.1344C227.04 36.2111 219.865 39.4566 219.786 39.3251Z" fill="#E0E0E0"/>
<path d="M272.802 31.1667C272.967 31.1246 275.385 37.7157 278.2 45.8954C281.015 54.0751 283.177 60.7188 283.012 60.7608C282.847 60.8029 280.429 54.2171 277.614 46.0322C274.799 37.8472 272.637 31.2088 272.802 31.1667Z" fill="#E0E0E0"/>
<path d="M350 217.863C350 217.937 271.641 218 175.006 218C78.3708 218 0 217.937 0 217.863C0 217.79 78.3403 217.727 175.006 217.727C271.672 217.727 350 217.784 350 217.863Z" fill="#263238"/>
<path d="M113.47 90.4705L257.504 89.571L261.516 173.924L112.371 172.736L113.47 90.4705Z" fill="#B8D3D2"/>
<path d="M113.464 90.4706L181.637 42.9548C183.037 41.9796 184.786 41.4504 186.587 41.4561C188.387 41.4619 190.131 42.0023 191.523 42.9863L257.504 89.5711" fill="#81CCAA"/>
<g opacity="0.3">
<path d="M113.464 90.4706L181.637 42.9548C183.037 41.9796 184.786 41.4504 186.587 41.4561C188.387 41.4619 190.131 42.0023 191.523 42.9863L257.504 89.5711" fill="black"/>
</g>
<path d="M112.371 172.736C112.194 172.588 123.723 161.742 138.128 148.512C152.534 135.283 164.35 124.673 164.533 124.815C164.716 124.957 153.181 135.804 138.776 149.038C124.37 162.273 112.554 172.878 112.371 172.736Z" fill="#263238"/>
<path d="M261.516 173.925C261.333 174.067 250.103 163.441 236.437 150.196C222.77 136.95 211.84 126.093 212.011 125.951C212.182 125.809 223.424 136.435 237.09 149.685C250.756 162.936 261.712 173.783 261.516 173.925Z" fill="#263238"/>
<g opacity="0.5">
<path d="M257.505 89.571L185.173 139.343L113.471 90.4705" fill="black"/>
</g>
<path d="M120.719 95.0785L120.499 56.3315L246.617 55.0427L248.039 95.8149L185.167 138.691L120.719 95.0785Z" fill="#FAFAFA"/>
<path d="M120.718 95.0789C120.718 95.0789 121.127 95.3419 121.903 95.8626L125.322 98.1561L138.36 106.925L185.264 138.602H185.105L247.959 95.7101L247.898 95.8206C247.629 88.0459 247.342 79.882 247.049 71.5813C246.86 65.9897 246.665 60.4664 246.475 55.0484L246.634 55.1799L120.517 56.4161L120.614 56.3319C120.663 68.5199 120.706 78.204 120.73 84.8424C120.73 88.1616 120.73 90.7181 120.73 92.4487V94.4108C120.73 94.8527 120.73 95.0789 120.73 95.0789C120.73 95.0789 120.73 94.8579 120.73 94.4213C120.73 93.9847 120.73 93.3272 120.73 92.4698C120.73 90.7392 120.688 88.1879 120.657 84.874C120.608 78.225 120.535 68.5357 120.443 56.3319V56.2425H120.541L246.665 54.9116H246.817V55.0484C247.007 60.4612 247.196 65.9844 247.391 71.5761C247.684 79.882 247.965 88.0407 248.24 95.8206V95.8889L248.179 95.931L185.282 138.786L185.203 138.839L185.123 138.786L138.25 107.004L125.292 98.1929L121.872 95.8784C121.103 95.3524 120.718 95.0789 120.718 95.0789Z" fill="#263238"/>
<path d="M226.685 74.5583C226.685 74.6319 207.394 74.795 183.61 74.916C159.825 75.037 140.528 75.0843 140.528 75.0054C140.528 74.9265 159.813 74.7687 183.61 74.6425C207.407 74.5162 226.685 74.4794 226.685 74.5583Z" fill="#263238"/>
<path d="M226.685 85.4998C226.685 85.5787 207.394 85.7418 183.61 85.8628C159.825 85.9837 140.528 86.0258 140.528 85.9522C140.528 85.8785 159.813 85.7155 183.61 85.5892C207.407 85.463 226.685 85.4262 226.685 85.4998Z" fill="#263238"/>
<path d="M226.685 98.1193C226.685 98.193 207.394 98.3561 183.61 98.4823C159.825 98.6085 140.528 98.6454 140.528 98.5665C140.528 98.4876 159.813 98.3297 183.61 98.2088C207.407 98.0878 226.685 98.0404 226.685 98.1193Z" fill="#263238"/>
<path d="M226.685 110.733C226.685 110.812 208.286 110.965 185.588 111.086C162.89 111.207 144.491 111.238 144.485 111.165C144.479 111.091 162.884 110.933 185.588 110.812C208.292 110.691 226.685 110.66 226.685 110.733Z" fill="#263238"/>
<path d="M210.551 121.806C210.386 121.83 210.218 121.841 210.051 121.837L208.597 121.874L203.272 121.948L185.692 122.164C178.828 122.263 172.606 122.295 168.105 122.3H162.78H161.327C161.159 122.303 160.992 122.294 160.826 122.274C160.992 122.25 161.159 122.239 161.327 122.242L162.78 122.211L168.105 122.132L185.686 121.916C192.549 121.816 198.772 121.785 203.266 121.78H208.597H210.051C210.218 121.779 210.385 121.788 210.551 121.806Z" fill="#263238"/>
<path d="M194.315 132.453C194.315 132.526 190.205 132.589 185.155 132.589C180.105 132.589 175.995 132.526 175.995 132.453C175.995 132.379 180.111 132.316 185.155 132.316C190.199 132.316 194.315 132.374 194.315 132.453Z" fill="#263238"/>
<path d="M236.767 123.858C245.181 123.858 252.003 117.982 252.003 110.733C252.003 103.485 245.181 97.6089 236.767 97.6089C228.352 97.6089 221.531 103.485 221.531 110.733C221.531 117.982 228.352 123.858 236.767 123.858Z" fill="#263238"/>
<path d="M232.804 123.858C241.219 123.858 248.04 117.982 248.04 110.733C248.04 103.485 241.219 97.6089 232.804 97.6089C224.39 97.6089 217.568 103.485 217.568 110.733C217.568 117.982 224.39 123.858 232.804 123.858Z" fill="#455A64"/>
<path d="M234.739 104.626V115.536H232.4V106.304H229.72V104.605L234.739 104.626Z" fill="#EBEBEB"/>
<path d="M121.708 38.6304H135.643L133.756 36.7683V32.3023C133.756 31.1416 133.221 30.0284 132.268 29.2076C131.315 28.3869 130.023 27.9258 128.676 27.9258C128.009 27.9258 127.348 28.039 126.732 28.259C126.116 28.479 125.556 28.8015 125.085 29.208C124.614 29.6144 124.24 30.0969 123.986 30.6279C123.731 31.1588 123.6 31.7278 123.601 32.3023V36.5473L121.708 38.6304Z" fill="#81CCAA"/>
<path d="M126.758 38.0416C126.773 38.303 126.853 38.5585 126.991 38.7915C127.13 39.0244 127.324 39.2294 127.561 39.393C127.798 39.5566 128.073 39.675 128.367 39.7404C128.661 39.8059 128.968 39.8169 129.267 39.7727C129.567 39.7286 129.852 39.6302 130.104 39.4842C130.356 39.3381 130.569 39.1477 130.73 38.9255C130.89 38.7033 130.994 38.4543 131.035 38.1949C131.075 37.9356 131.052 37.6718 130.965 37.4209" fill="#81CCAA"/>
<path d="M129.451 26.106H128.083V28.6098H129.451V26.106Z" fill="#81CCAA"/>
<path d="M148.992 30.4194C148.95 30.3163 148.918 30.2109 148.894 30.1038C148.833 29.8776 148.754 29.5777 148.65 29.1779C148.522 28.6748 148.357 28.1793 148.155 27.6946C148.033 27.4105 147.948 27.0896 147.783 26.7688L147.264 25.7483C146.324 24.0244 145.078 22.4377 143.569 21.0456C141.588 19.2464 139.189 17.8269 136.528 16.8795C135.013 16.3301 133.426 15.9415 131.802 15.7222C130.05 15.5023 128.273 15.4776 126.514 15.6486C125.588 15.7325 124.67 15.8695 123.766 16.0589C123.308 16.1431 122.862 16.2956 122.398 16.4166C121.932 16.528 121.477 16.6704 121.036 16.8427C119.165 17.4944 117.424 18.3943 115.876 19.5096C112.441 21.9498 110.019 25.2858 108.976 29.0149C108.427 31.0127 108.292 33.0786 108.579 35.1168C108.83 37.2252 109.541 39.2739 110.674 41.1555L111.028 41.7289L111.07 41.8025V41.8814C109.941 45.0376 108.842 48.1937 107.767 51.2079L107.48 50.9817L116.206 47.0628L116.31 47.0154L116.408 47.0786C120.056 49.502 124.552 50.7847 129.159 50.7158C133.765 50.647 138.207 49.2308 141.756 46.6998C143.575 45.3895 145.125 43.8246 146.342 42.0708C147.314 40.6062 148.063 39.0398 148.57 37.4102C148.913 36.1726 149.117 34.9097 149.181 33.6386C149.181 33.1126 149.181 32.6602 149.181 32.2552C149.181 31.8502 149.108 31.5293 149.083 31.2505C149.059 30.9717 149.035 30.7876 149.022 30.635C149.013 30.5651 149.013 30.4945 149.022 30.4246C149.044 30.4917 149.058 30.5604 149.065 30.6298C149.065 30.7841 149.096 30.9892 149.157 31.2452C149.193 31.524 149.236 31.8554 149.291 32.2552C149.346 32.655 149.291 33.1231 149.291 33.6439C149.257 34.9261 149.073 36.202 148.741 37.4523C148.254 39.1069 147.515 40.6988 146.543 42.1865C145.327 43.9785 143.766 45.5794 141.927 46.9208C139.675 48.5399 137.049 49.7274 134.223 50.404C131.396 51.0806 128.436 51.2309 125.537 50.8449C122.125 50.3781 118.9 49.1908 116.151 47.3889H116.359L107.645 51.3183L107.205 51.5182L107.352 51.0921L110.649 41.7657V41.9183L110.289 41.3344C109.134 39.4112 108.409 37.3181 108.152 35.1641C107.853 33.0782 107.993 30.963 108.567 28.9202C109.635 25.1182 112.111 21.7189 115.62 19.2361C117.204 18.1072 118.982 17.1968 120.89 16.5376C121.338 16.3627 121.801 16.2185 122.276 16.1062C122.746 15.9905 123.198 15.838 123.668 15.7538C124.586 15.5593 125.518 15.4222 126.459 15.3435C128.247 15.1739 130.054 15.2057 131.833 15.4382C133.478 15.6732 135.085 16.0758 136.62 16.6375C139.309 17.6129 141.728 19.0688 143.716 20.9088C145.225 22.3266 146.461 23.9425 147.38 25.6957C147.557 26.0639 147.728 26.4058 147.88 26.7477C148.033 27.0896 148.125 27.4 148.241 27.6893C148.439 28.1779 148.592 28.6792 148.699 29.1885C148.784 29.583 148.857 29.8933 148.906 30.1248C148.942 30.2213 148.971 30.3197 148.992 30.4194Z" fill="#263238"/>
</svg>
