<svg width="326" height="316" viewBox="0 0 326 316" fill="none" xmlns="http://www.w3.org/2000/svg">
<path d="M140.63 315.524C209.204 315.524 264.794 312.07 264.794 307.81C264.794 303.549 209.204 300.095 140.63 300.095C72.0562 300.095 16.4659 303.549 16.4659 307.81C16.4659 312.07 72.0562 315.524 140.63 315.524Z" fill="#2B7A78"/>
<path opacity="0.8" d="M140.63 315.524C209.204 315.524 264.794 312.07 264.794 307.81C264.794 303.549 209.204 300.095 140.63 300.095C72.0562 300.095 16.4659 303.549 16.4659 307.81C16.4659 312.07 72.0562 315.524 140.63 315.524Z" fill="white"/>
<path d="M233.934 14.455H109.087C100.468 14.455 93.4806 21.4238 93.4806 30.0203V292.893C93.4806 301.49 100.468 308.459 109.087 308.459H233.934C242.554 308.459 249.541 301.49 249.541 292.893V30.0203C249.541 21.4238 242.554 14.455 233.934 14.455Z" fill="#263238"/>
<path d="M242.601 46.7393H100.412V276.174H242.601V46.7393Z" fill="white" stroke="#263238" stroke-width="1.33739" stroke-miterlimit="10"/>
<path d="M193.304 139.644C205.34 127.64 205.34 108.178 193.304 96.1738C181.268 84.1698 161.754 84.1698 149.718 96.1738C137.682 108.178 137.682 127.64 149.718 139.644C161.754 151.648 181.268 151.648 193.304 139.644Z" fill="#2B7A78"/>
<path d="M211.974 261.747H131.056C130.874 261.748 130.693 261.713 130.525 261.644C130.356 261.575 130.203 261.474 130.074 261.346C129.945 261.218 129.842 261.066 129.772 260.898C129.702 260.73 129.666 260.55 129.666 260.369C129.665 260.186 129.7 260.006 129.77 259.837C129.839 259.668 129.942 259.515 130.071 259.386C130.2 259.257 130.354 259.155 130.523 259.086C130.692 259.017 130.873 258.982 131.056 258.983H211.974C212.156 258.983 212.336 259.019 212.504 259.088C212.673 259.158 212.825 259.26 212.954 259.389C213.082 259.518 213.184 259.671 213.253 259.839C213.322 260.007 213.357 260.187 213.355 260.369C213.355 260.734 213.21 261.085 212.951 261.343C212.692 261.601 212.34 261.747 211.974 261.747Z" fill="#2B7A78"/>
<path d="M214.609 165.927H128.413C126.635 165.927 125.193 167.365 125.193 169.139V179.273C125.193 181.047 126.635 182.486 128.413 182.486H214.609C216.388 182.486 217.83 181.047 217.83 179.273V169.139C217.83 167.365 216.388 165.927 214.609 165.927Z" fill="#2B7A78"/>
<path d="M214.609 196.897H128.413C126.635 196.897 125.193 198.336 125.193 200.11V210.244C125.193 212.018 126.635 213.456 128.413 213.456H214.609C216.388 213.456 217.83 212.018 217.83 210.244V200.11C217.83 198.336 216.388 196.897 214.609 196.897Z" fill="#2B7A78"/>
<path d="M186.857 133.242L177.788 128.035V123.733C179.101 122.149 180.052 120.298 180.575 118.31C180.887 118.42 181.216 118.477 181.547 118.478C182.672 118.478 183.387 115.001 183.507 112.518C184.816 109.754 183.033 108.136 183.033 108.136C183.033 108.136 183.772 107.399 184.262 104.443C184.752 101.487 182.535 102.72 180.808 100.013C179.081 97.3048 177.844 94.3567 172.173 94.3567C170.611 94.3055 169.069 94.7243 167.748 95.5586C166.427 96.393 165.389 97.6043 164.768 99.0352C163.356 99.0402 161.95 99.2042 160.575 99.5238C158.84 100.013 158.35 105.676 159.828 107.895C160.489 109.108 160.842 110.464 160.856 111.845C160.462 111.364 160.053 111.236 159.828 112.325C159.338 114.785 161.314 118.23 161.314 118.23L162.334 117.941C162.848 120.066 163.839 122.047 165.234 123.733V128.035L156.165 133.242C155.106 133.852 154.226 134.729 153.614 135.785C153.003 136.841 152.68 138.039 152.679 139.258V142.238C158.072 146.394 164.695 148.648 171.511 148.648C178.326 148.648 184.949 146.394 190.343 142.238V139.258C190.343 138.038 190.021 136.84 189.409 135.784C188.797 134.727 187.917 133.851 186.857 133.242Z" fill="#263238"/>
<path d="M136.928 209.339C136.72 209.336 136.521 209.252 136.374 209.106C136.295 209.036 136.231 208.949 136.189 208.853C136.146 208.756 136.124 208.651 136.125 208.545C136.127 208.401 136.169 208.26 136.245 208.137L137.691 205.83L134.872 205.918C134.765 205.924 134.659 205.909 134.559 205.871C134.459 205.834 134.369 205.776 134.293 205.702C134.162 205.555 134.09 205.365 134.09 205.169C134.09 204.972 134.162 204.783 134.293 204.636C134.367 204.559 134.457 204.498 134.557 204.46C134.657 204.421 134.765 204.405 134.872 204.412L137.651 204.516L136.221 202.217C136.143 202.092 136.101 201.947 136.1 201.8C136.1 201.694 136.122 201.59 136.164 201.493C136.207 201.396 136.27 201.31 136.349 201.239C136.497 201.093 136.696 201.01 136.904 201.007C137.041 201.008 137.174 201.048 137.29 201.121C137.405 201.195 137.497 201.3 137.554 201.424L138.928 203.899L140.285 201.44C140.35 201.308 140.449 201.197 140.572 201.118C140.695 201.039 140.838 200.995 140.984 200.991C141.086 200.992 141.186 201.013 141.279 201.055C141.371 201.096 141.454 201.156 141.522 201.231C141.67 201.384 141.751 201.588 141.747 201.8C141.747 201.938 141.711 202.073 141.643 202.193L140.189 204.516L143.008 204.412C143.115 204.405 143.223 204.421 143.323 204.46C143.422 204.498 143.513 204.559 143.587 204.636C143.724 204.778 143.799 204.968 143.795 205.165C143.795 205.363 143.721 205.555 143.587 205.702C143.511 205.776 143.42 205.834 143.321 205.871C143.221 205.909 143.115 205.924 143.008 205.918L140.173 205.83L141.587 208.113C141.666 208.24 141.708 208.387 141.707 208.537C141.707 208.75 141.622 208.954 141.472 209.104C141.321 209.254 141.117 209.339 140.904 209.339C140.766 209.337 140.632 209.295 140.518 209.218C140.404 209.141 140.314 209.033 140.261 208.906L138.92 206.503L137.586 208.906C137.527 209.032 137.435 209.138 137.318 209.215C137.202 209.291 137.067 209.334 136.928 209.339Z" fill="#263238"/>
<path d="M149.956 209.339C149.748 209.336 149.55 209.252 149.402 209.106C149.323 209.036 149.26 208.949 149.217 208.853C149.174 208.756 149.152 208.651 149.153 208.545C149.156 208.401 149.197 208.26 149.274 208.137L150.719 205.83L147.908 205.918C147.801 205.923 147.694 205.906 147.593 205.869C147.492 205.832 147.4 205.775 147.322 205.702C147.215 205.592 147.144 205.453 147.118 205.302C147.092 205.152 147.111 204.997 147.175 204.858C147.238 204.718 147.342 204.602 147.473 204.522C147.603 204.443 147.755 204.404 147.908 204.412L150.679 204.516L149.249 202.217C149.172 202.092 149.13 201.947 149.129 201.8C149.128 201.694 149.15 201.59 149.193 201.493C149.236 201.396 149.299 201.31 149.378 201.239C149.526 201.093 149.724 201.01 149.932 201.007C150.069 201.008 150.203 201.048 150.318 201.121C150.433 201.195 150.525 201.3 150.583 201.424L151.956 203.899L153.314 201.44C153.378 201.308 153.477 201.197 153.601 201.118C153.724 201.039 153.866 200.995 154.013 200.991C154.114 200.991 154.215 201.012 154.308 201.053C154.401 201.095 154.483 201.156 154.551 201.231C154.625 201.306 154.684 201.395 154.724 201.493C154.764 201.59 154.784 201.695 154.784 201.8C154.781 201.939 154.742 202.074 154.671 202.193L153.217 204.516L156.045 204.428C156.151 204.421 156.257 204.437 156.355 204.476C156.454 204.515 156.543 204.575 156.615 204.652C156.752 204.794 156.827 204.984 156.824 205.181C156.823 205.379 156.749 205.571 156.615 205.718C156.541 205.792 156.452 205.85 156.353 205.887C156.255 205.924 156.15 205.94 156.045 205.934L153.201 205.846L154.615 208.129C154.694 208.256 154.736 208.403 154.736 208.553C154.736 208.766 154.651 208.97 154.5 209.12C154.35 209.27 154.145 209.355 153.932 209.355C153.795 209.353 153.66 209.311 153.546 209.234C153.432 209.157 153.343 209.049 153.29 208.922L151.948 206.519L150.615 208.922C150.554 209.045 150.46 209.148 150.344 209.222C150.228 209.295 150.094 209.335 149.956 209.339Z" fill="#263238"/>
<path d="M162.993 209.339C162.782 209.338 162.58 209.254 162.431 209.106C162.352 209.036 162.288 208.949 162.246 208.853C162.203 208.756 162.181 208.651 162.182 208.545C162.184 208.401 162.226 208.26 162.302 208.137L163.748 205.83L160.937 205.918C160.785 205.924 160.635 205.885 160.506 205.806C160.377 205.726 160.275 205.611 160.212 205.473C160.149 205.336 160.129 205.183 160.153 205.034C160.178 204.885 160.246 204.746 160.35 204.636C160.426 204.559 160.518 204.499 160.619 204.46C160.72 204.422 160.828 204.405 160.937 204.412L163.708 204.516L162.278 202.217C162.2 202.092 162.159 201.947 162.157 201.8C162.16 201.695 162.183 201.591 162.226 201.495C162.269 201.399 162.33 201.312 162.406 201.239C162.556 201.091 162.758 201.008 162.969 201.007C163.104 201.01 163.236 201.05 163.35 201.124C163.464 201.197 163.554 201.301 163.611 201.424L164.985 203.899L166.342 201.44C166.407 201.308 166.506 201.197 166.629 201.118C166.752 201.039 166.895 200.995 167.041 200.991C167.143 200.991 167.243 201.012 167.336 201.053C167.429 201.095 167.512 201.156 167.579 201.231C167.654 201.306 167.713 201.395 167.753 201.493C167.793 201.59 167.813 201.695 167.812 201.8C167.809 201.939 167.771 202.074 167.7 202.193L166.246 204.516L169.073 204.412C169.177 204.401 169.282 204.413 169.381 204.447C169.48 204.48 169.571 204.535 169.647 204.606C169.723 204.677 169.783 204.764 169.822 204.861C169.862 204.957 169.881 205.061 169.877 205.165C169.878 205.362 169.807 205.553 169.676 205.702C169.6 205.776 169.509 205.834 169.41 205.871C169.31 205.909 169.204 205.924 169.097 205.918L166.262 205.83L167.668 208.113C167.747 208.24 167.789 208.387 167.788 208.537C167.786 208.643 167.762 208.746 167.72 208.843C167.677 208.939 167.616 209.026 167.539 209.098C167.469 209.173 167.385 209.233 167.291 209.275C167.197 209.316 167.096 209.338 166.993 209.339C166.856 209.336 166.723 209.294 166.611 209.217C166.498 209.14 166.41 209.032 166.358 208.906L165.009 206.503L163.676 208.906C163.615 209.036 163.519 209.146 163.398 209.222C163.277 209.299 163.136 209.339 162.993 209.339Z" fill="#263238"/>
<path d="M176.021 209.339C175.811 209.338 175.609 209.254 175.459 209.106C175.308 208.958 175.221 208.757 175.218 208.545C175.216 208.401 175.255 208.26 175.331 208.137L176.776 205.83L173.965 205.918C173.858 205.923 173.751 205.906 173.65 205.869C173.549 205.832 173.457 205.775 173.379 205.702C173.248 205.555 173.175 205.365 173.175 205.169C173.175 204.972 173.248 204.783 173.379 204.636C173.456 204.561 173.548 204.503 173.649 204.464C173.75 204.426 173.857 204.408 173.965 204.412L176.744 204.516L175.322 202.217C175.245 202.092 175.203 201.947 175.202 201.8C175.205 201.695 175.228 201.591 175.271 201.495C175.313 201.399 175.375 201.312 175.451 201.239C175.601 201.091 175.803 201.008 176.013 201.007C176.15 201.008 176.284 201.048 176.399 201.121C176.514 201.195 176.606 201.3 176.664 201.424L178.029 203.899L179.387 201.44C179.451 201.308 179.55 201.197 179.674 201.118C179.797 201.039 179.939 200.995 180.086 200.991C180.187 200.991 180.288 201.012 180.381 201.053C180.474 201.095 180.556 201.156 180.624 201.231C180.698 201.306 180.757 201.395 180.797 201.493C180.837 201.59 180.857 201.695 180.857 201.8C180.854 201.939 180.815 202.074 180.744 202.193L179.29 204.516L182.118 204.412C182.222 204.401 182.327 204.413 182.426 204.447C182.525 204.48 182.615 204.535 182.691 204.606C182.767 204.677 182.827 204.764 182.867 204.861C182.907 204.957 182.925 205.061 182.921 205.165C182.923 205.362 182.851 205.553 182.72 205.702C182.645 205.776 182.554 205.834 182.454 205.871C182.355 205.909 182.248 205.924 182.142 205.918L179.307 205.83L180.712 208.113C180.791 208.24 180.833 208.387 180.833 208.537C180.833 208.643 180.812 208.748 180.769 208.845C180.726 208.941 180.663 209.028 180.584 209.098C180.514 209.173 180.429 209.233 180.335 209.275C180.241 209.316 180.14 209.338 180.037 209.339C179.901 209.336 179.768 209.294 179.655 209.217C179.542 209.14 179.455 209.032 179.403 208.906L178.053 206.503L176.72 208.906C176.659 209.038 176.56 209.15 176.436 209.227C176.312 209.304 176.167 209.343 176.021 209.339Z" fill="#263238"/>
<path d="M189.05 209.339C188.839 209.338 188.637 209.254 188.487 209.106C188.363 208.981 188.284 208.817 188.262 208.642C188.24 208.467 188.277 208.289 188.367 208.137L189.805 205.83L186.993 205.918C186.886 205.923 186.779 205.906 186.678 205.869C186.577 205.832 186.485 205.775 186.407 205.702C186.276 205.555 186.204 205.365 186.204 205.169C186.204 204.972 186.276 204.783 186.407 204.636C186.485 204.561 186.577 204.503 186.677 204.464C186.778 204.426 186.885 204.408 186.993 204.412L189.773 204.516L188.343 202.217C188.265 202.092 188.223 201.947 188.222 201.8C188.225 201.589 188.312 201.387 188.463 201.239C188.613 201.091 188.815 201.008 189.026 201.007C189.162 201.008 189.296 201.048 189.411 201.121C189.527 201.195 189.618 201.3 189.676 201.424L191.042 203.899L192.399 201.44C192.464 201.308 192.563 201.197 192.686 201.118C192.809 201.039 192.951 200.995 193.098 200.991C193.201 200.991 193.303 201.012 193.397 201.053C193.491 201.095 193.575 201.155 193.644 201.231C193.792 201.384 193.872 201.588 193.869 201.8C193.866 201.939 193.827 202.074 193.757 202.193L192.303 204.516L195.13 204.412C195.234 204.401 195.339 204.413 195.438 204.447C195.537 204.48 195.627 204.535 195.704 204.606C195.78 204.677 195.84 204.764 195.879 204.861C195.919 204.957 195.937 205.061 195.933 205.165C195.935 205.362 195.864 205.553 195.733 205.702C195.657 205.776 195.566 205.834 195.467 205.871C195.367 205.909 195.26 205.925 195.154 205.918L192.319 205.83L193.724 208.113C193.804 208.24 193.845 208.387 193.845 208.537C193.846 208.643 193.824 208.748 193.781 208.845C193.738 208.941 193.675 209.028 193.596 209.098C193.526 209.173 193.442 209.233 193.348 209.275C193.254 209.316 193.152 209.338 193.05 209.339C192.913 209.336 192.78 209.294 192.667 209.217C192.555 209.14 192.467 209.032 192.415 208.906L191.066 206.503L189.732 208.906C189.672 209.036 189.576 209.146 189.455 209.222C189.334 209.299 189.193 209.339 189.05 209.339Z" fill="#263238"/>
<path d="M202.078 209.339C201.871 209.336 201.672 209.252 201.524 209.106C201.445 209.036 201.382 208.949 201.339 208.853C201.296 208.756 201.274 208.651 201.275 208.545C201.278 208.401 201.319 208.26 201.396 208.137L202.834 205.83L200.022 205.918C199.919 205.926 199.815 205.912 199.717 205.877C199.619 205.843 199.53 205.789 199.454 205.718C199.379 205.647 199.319 205.561 199.278 205.466C199.238 205.371 199.218 205.268 199.219 205.165C199.218 205.067 199.237 204.97 199.275 204.879C199.312 204.788 199.367 204.706 199.436 204.636C199.51 204.559 199.6 204.498 199.7 204.46C199.8 204.421 199.907 204.405 200.014 204.412L202.793 204.516L201.364 202.217C201.286 202.092 201.244 201.947 201.243 201.8C201.246 201.589 201.333 201.387 201.484 201.239C201.634 201.091 201.836 201.008 202.046 201.007C202.183 201.008 202.317 201.048 202.432 201.121C202.547 201.195 202.639 201.3 202.697 201.424L204.062 203.899L205.428 201.44C205.492 201.31 205.59 201.199 205.711 201.12C205.833 201.041 205.974 200.997 206.119 200.991C206.222 200.991 206.323 201.012 206.418 201.053C206.512 201.095 206.596 201.155 206.665 201.231C206.812 201.384 206.893 201.588 206.89 201.8C206.889 201.938 206.853 202.073 206.785 202.193L205.332 204.516L208.151 204.412C208.258 204.405 208.365 204.421 208.465 204.46C208.565 204.498 208.655 204.559 208.729 204.636C208.866 204.778 208.941 204.968 208.938 205.165C208.938 205.363 208.863 205.555 208.729 205.702C208.654 205.776 208.563 205.834 208.463 205.871C208.364 205.909 208.257 205.925 208.151 205.918L205.315 205.83L206.721 208.113C206.8 208.24 206.842 208.387 206.842 208.537C206.839 208.749 206.752 208.95 206.601 209.098C206.454 209.247 206.256 209.333 206.046 209.339C205.91 209.336 205.777 209.294 205.664 209.217C205.551 209.14 205.464 209.032 205.412 208.906L204.062 206.503L202.729 208.906C202.671 209.031 202.58 209.138 202.465 209.214C202.35 209.29 202.216 209.333 202.078 209.339Z" fill="#263238"/>
<g style="mix-blend-mode:multiply">
<path d="M242.601 47.0437H100.412V55.9279H242.601V47.0437Z" fill="#2B7A78"/>
</g>
<path d="M186.969 30.6773H156.045C155.486 30.6773 154.951 30.4561 154.556 30.0625C154.162 29.6689 153.94 29.135 153.94 28.5784C153.94 28.0217 154.162 27.4879 154.556 27.0942C154.951 26.7006 155.486 26.4795 156.045 26.4795H186.969C187.527 26.4795 188.063 26.7006 188.457 27.0942C188.852 27.4879 189.074 28.0217 189.074 28.5784C189.074 29.135 188.852 29.6689 188.457 30.0625C188.063 30.4561 187.527 30.6773 186.969 30.6773Z" fill="#2B7A78" stroke="#263238" stroke-width="1.33739" stroke-linecap="round" stroke-linejoin="round"/>
<path d="M179.941 289.136C179.942 287.472 179.449 285.844 178.523 284.46C177.597 283.075 176.28 281.996 174.738 281.358C173.197 280.721 171.5 280.553 169.863 280.878C168.227 281.202 166.723 282.003 165.543 283.18C164.363 284.357 163.56 285.857 163.235 287.489C162.909 289.121 163.077 290.813 163.716 292.351C164.356 293.888 165.438 295.202 166.826 296.125C168.214 297.049 169.846 297.541 171.515 297.54C173.749 297.538 175.891 296.651 177.471 295.076C179.05 293.5 179.939 291.364 179.941 289.136Z" fill="#2B7A78"/>
<path d="M175.788 284.874H167.242V293.398H175.788V284.874Z" fill="#2B7A78" stroke="#263238" stroke-width="1.33739" stroke-linecap="round" stroke-linejoin="round"/>
<path d="M273.317 192.411C273.317 192.411 262.12 164.036 272.089 160.664C282.466 157.147 282.008 175.885 281.607 185.017C280.763 204.532 278.603 208.161 276.988 203.394L273.317 192.411ZM269.952 214.546C273.028 218.551 273.896 214.401 268.345 195.664C265.743 186.852 260.088 169.027 251.413 175.716C243.084 182.125 262.908 205.357 262.908 205.357L269.952 214.546ZM264.008 230.808C266.94 233.404 266.996 230.127 260.032 216.597C256.763 210.26 249.847 197.434 244.184 203.779C238.746 209.899 257.277 224.776 257.277 224.776L264.008 230.808ZM257.582 250.147C260.514 252.75 260.57 249.466 253.606 235.943C250.337 229.606 243.421 216.773 237.758 223.125C232.352 229.262 250.827 244.138 250.827 244.138L257.582 250.147ZM276.137 210.781C271.446 212.607 275.173 214.594 294.764 214.538C303.953 214.538 322.716 214.121 318.716 203.939C314.885 194.158 286.981 206.615 286.981 206.615L276.137 210.781ZM270.795 223.79C265.831 224.648 269.092 227.339 288.306 231.169C297.31 232.971 315.777 236.296 313.889 225.561C312.082 215.211 282.249 221.892 282.249 221.892L270.795 223.79ZM264.819 239.676C260.594 240.285 263.293 242.632 279.446 246.317C287.021 248.048 302.563 251.292 301.214 242.136C299.929 233.323 274.546 238.306 274.546 238.306L264.819 239.676ZM260.281 254.392C256.144 255.442 259.076 257.493 275.542 259.447C283.254 260.361 299.053 261.947 296.748 252.982C294.523 244.379 269.815 251.997 269.815 251.997L260.281 254.392ZM284.49 194.815C282.081 200.198 287.085 199.381 304.097 184.577C312.066 177.631 328.05 163.099 315.391 155.865C303.238 148.912 290.169 182.462 290.169 182.462L284.49 194.815ZM260.907 273.563C258.361 275.045 260.859 275.622 272.538 273.298C278.016 272.217 289.157 269.814 285.39 265.071C281.743 260.505 266.803 270.118 266.803 270.118L260.907 273.563Z" fill="#2B7A78"/>
<path opacity="0.3" d="M273.317 192.411C273.317 192.411 262.12 164.036 272.089 160.664C282.466 157.147 282.008 175.885 281.607 185.017C280.763 204.532 278.603 208.161 276.988 203.394L273.317 192.411ZM269.952 214.546C273.028 218.551 273.896 214.401 268.345 195.664C265.743 186.852 260.088 169.027 251.413 175.716C243.084 182.125 262.908 205.357 262.908 205.357L269.952 214.546ZM264.008 230.808C266.94 233.404 266.996 230.127 260.032 216.597C256.763 210.26 249.847 197.434 244.184 203.779C238.746 209.899 257.277 224.776 257.277 224.776L264.008 230.808ZM257.582 250.147C260.514 252.75 260.57 249.466 253.606 235.943C250.337 229.606 243.421 216.773 237.758 223.125C232.352 229.262 250.827 244.138 250.827 244.138L257.582 250.147ZM276.137 210.781C271.446 212.607 275.173 214.594 294.764 214.538C303.953 214.538 322.716 214.121 318.716 203.939C314.885 194.158 286.981 206.615 286.981 206.615L276.137 210.781ZM270.795 223.79C265.831 224.648 269.092 227.339 288.306 231.169C297.31 232.971 315.777 236.296 313.889 225.561C312.082 215.211 282.249 221.892 282.249 221.892L270.795 223.79ZM264.819 239.676C260.594 240.285 263.293 242.632 279.446 246.317C287.021 248.048 302.563 251.292 301.214 242.136C299.929 233.323 274.546 238.306 274.546 238.306L264.819 239.676ZM260.281 254.392C256.144 255.442 259.076 257.493 275.542 259.447C283.254 260.361 299.053 261.947 296.748 252.982C294.523 244.379 269.815 251.997 269.815 251.997L260.281 254.392ZM284.49 194.815C282.081 200.198 287.085 199.381 304.097 184.577C312.066 177.631 328.05 163.099 315.391 155.865C303.238 148.912 290.169 182.462 290.169 182.462L284.49 194.815ZM260.907 273.563C258.361 275.045 260.859 275.622 272.538 273.298C278.016 272.217 289.157 269.814 285.39 265.071C281.743 260.505 266.803 270.118 266.803 270.118L260.907 273.563Z" fill="white"/>
<path d="M278.257 205.621L276.306 173.233L278.257 205.621ZM272.081 216.308L259.743 188.454L272.081 216.308ZM303.921 208.209L274.354 212.439L303.921 208.209ZM265.687 231.321L249.678 210.837L265.687 231.321ZM268.498 225.04L290.555 226.146L268.498 225.04ZM263.277 240.75L280.145 242.416L263.277 240.75ZM259.205 250.731L250.827 238.162L259.205 250.731ZM258.241 255.169L278.073 255.354L258.241 255.169ZM254.225 292.276C254.357 292.266 254.481 292.204 254.568 292.104C254.655 292.003 254.699 291.872 254.69 291.74C253.429 272.85 260.755 241.911 272.506 216.516C280.017 200.286 309.455 168.386 309.768 168.066C309.863 167.971 309.916 167.843 309.916 167.709C309.916 167.576 309.863 167.447 309.768 167.353C309.722 167.306 309.667 167.269 309.606 167.244C309.546 167.219 309.481 167.206 309.415 167.206C309.349 167.206 309.284 167.219 309.224 167.244C309.163 167.269 309.108 167.306 309.062 167.353C308.764 167.673 279.205 199.693 271.631 216.068C259.663 242.079 252.433 272.457 253.719 291.804C253.729 291.931 253.786 292.051 253.88 292.138C253.973 292.225 254.096 292.275 254.225 292.276ZM278.249 206.118C278.382 206.11 278.506 206.05 278.595 205.951C278.684 205.852 278.73 205.722 278.723 205.589L276.804 173.185C276.801 173.119 276.784 173.054 276.756 172.995C276.727 172.935 276.687 172.882 276.638 172.838C276.589 172.794 276.531 172.76 276.468 172.738C276.406 172.717 276.339 172.708 276.273 172.712C276.141 172.721 276.016 172.781 275.928 172.88C275.839 172.979 275.793 173.108 275.8 173.241L277.751 205.629C277.758 205.757 277.813 205.877 277.906 205.965C277.998 206.053 278.121 206.102 278.249 206.102V206.118ZM272.257 216.765C272.378 216.71 272.472 216.611 272.52 216.488C272.568 216.366 272.566 216.229 272.514 216.108L260.169 188.254C260.115 188.132 260.016 188.037 259.892 187.989C259.769 187.941 259.631 187.944 259.51 187.997C259.388 188.05 259.293 188.149 259.245 188.273C259.197 188.396 259.2 188.533 259.253 188.654L271.591 216.508C271.629 216.598 271.693 216.674 271.774 216.728C271.856 216.782 271.951 216.811 272.048 216.813C272.132 216.817 272.214 216.801 272.289 216.765H272.257ZM274.394 212.919L303.945 208.706C304.016 208.704 304.087 208.688 304.151 208.657C304.216 208.627 304.273 208.583 304.319 208.529C304.366 208.475 304.4 208.411 304.42 208.343C304.44 208.275 304.445 208.203 304.436 208.133C304.426 208.062 304.402 207.994 304.364 207.934C304.326 207.874 304.276 207.822 304.217 207.782C304.157 207.742 304.09 207.716 304.02 207.704C303.95 207.692 303.877 207.695 303.808 207.712L274.257 211.926C274.125 211.935 274.002 211.995 273.915 212.094C273.827 212.193 273.783 212.323 273.791 212.455C273.8 212.587 273.861 212.709 273.96 212.797C274.059 212.884 274.189 212.928 274.322 212.919H274.394ZM265.968 231.721C266.073 231.639 266.141 231.519 266.158 231.387C266.174 231.255 266.138 231.122 266.056 231.016L250.04 210.492C249.958 210.386 249.837 210.316 249.703 210.299C249.57 210.282 249.435 210.318 249.329 210.4C249.222 210.482 249.153 210.602 249.135 210.735C249.118 210.868 249.154 211.003 249.236 211.109L265.285 231.665C265.332 231.725 265.391 231.773 265.46 231.807C265.528 231.84 265.603 231.857 265.679 231.857C265.799 231.851 265.913 231.803 266 231.721H265.968ZM290.997 226.17C291.001 226.037 290.953 225.908 290.863 225.811C290.773 225.713 290.648 225.655 290.515 225.649L268.498 224.535C268.374 224.544 268.258 224.597 268.171 224.686C268.085 224.774 268.033 224.891 268.027 225.015C268.021 225.138 268.061 225.26 268.139 225.356C268.217 225.452 268.328 225.517 268.45 225.537L290.507 226.65C290.64 226.655 290.769 226.607 290.867 226.517C290.964 226.427 291.023 226.302 291.029 226.17H290.997ZM280.611 242.464C280.619 242.398 280.613 242.331 280.595 242.268C280.576 242.204 280.545 242.144 280.503 242.093C280.461 242.041 280.409 241.999 280.35 241.968C280.292 241.936 280.227 241.917 280.161 241.911L263.293 240.253C263.228 240.246 263.162 240.253 263.099 240.272C263.036 240.291 262.977 240.322 262.926 240.364C262.875 240.405 262.833 240.457 262.803 240.515C262.772 240.573 262.753 240.636 262.747 240.702C262.736 240.833 262.776 240.964 262.861 241.065C262.945 241.167 263.065 241.232 263.197 241.246L280.065 242.913H280.113C280.242 242.922 280.37 242.88 280.469 242.796C280.568 242.712 280.631 242.593 280.643 242.464H280.611ZM259.446 251.148C259.557 251.074 259.635 250.96 259.662 250.829C259.689 250.699 259.663 250.563 259.59 250.451L251.253 237.882C251.176 237.773 251.061 237.699 250.931 237.673C250.8 237.648 250.665 237.674 250.554 237.746C250.442 237.819 250.364 237.934 250.337 238.064C250.31 238.195 250.336 238.331 250.409 238.442L258.747 251.012C258.795 251.08 258.858 251.137 258.932 251.176C259.006 251.215 259.089 251.235 259.173 251.236C259.281 251.242 259.389 251.211 259.478 251.148H259.446ZM278.579 255.354C278.577 255.222 278.524 255.096 278.431 255.002C278.338 254.908 278.213 254.853 278.081 254.849L258.249 254.665C258.117 254.665 257.99 254.717 257.897 254.81C257.803 254.903 257.751 255.03 257.751 255.161C257.749 255.228 257.76 255.294 257.784 255.355C257.808 255.417 257.845 255.473 257.891 255.52C257.938 255.567 257.994 255.605 258.055 255.63C258.116 255.655 258.182 255.667 258.249 255.666L278.081 255.85C278.148 255.854 278.216 255.843 278.28 255.82C278.344 255.796 278.402 255.76 278.451 255.714C278.501 255.668 278.54 255.612 278.568 255.55C278.595 255.488 278.61 255.421 278.611 255.354H278.579ZM251.968 284.93C252.008 284.842 255.389 275.549 265.558 273.33C265.689 273.302 265.803 273.222 265.876 273.11C265.948 272.997 265.973 272.86 265.944 272.73C265.911 272.601 265.831 272.491 265.718 272.421C265.606 272.351 265.471 272.326 265.341 272.353C254.618 274.692 251.06 284.506 251.02 284.602C250.978 284.728 250.988 284.866 251.046 284.986C251.105 285.105 251.208 285.197 251.333 285.243H251.494C251.6 285.252 251.707 285.227 251.799 285.17C251.89 285.114 251.96 285.03 252 284.93H251.968ZM254.225 292.276C254.357 292.266 254.481 292.204 254.568 292.104C254.655 292.003 254.699 291.872 254.69 291.74C253.429 272.85 260.755 241.911 272.506 216.516C280.017 200.286 309.455 168.386 309.768 168.066C309.863 167.971 309.916 167.843 309.916 167.709C309.916 167.576 309.863 167.447 309.768 167.353C309.722 167.306 309.667 167.269 309.606 167.244C309.546 167.219 309.481 167.206 309.415 167.206C309.349 167.206 309.284 167.219 309.224 167.244C309.163 167.269 309.108 167.306 309.062 167.353C308.764 167.673 279.205 199.693 271.631 216.068C259.663 242.079 252.433 272.457 253.719 291.804C253.729 291.931 253.786 292.051 253.88 292.138C253.973 292.225 254.096 292.275 254.225 292.276ZM278.249 206.118C278.382 206.11 278.506 206.05 278.595 205.951C278.684 205.852 278.73 205.722 278.723 205.589L276.804 173.185C276.801 173.119 276.784 173.054 276.756 172.995C276.727 172.935 276.687 172.882 276.638 172.838C276.589 172.794 276.531 172.76 276.468 172.738C276.406 172.717 276.339 172.708 276.273 172.712C276.141 172.721 276.016 172.781 275.928 172.88C275.839 172.979 275.793 173.108 275.8 173.241L277.751 205.629C277.758 205.757 277.813 205.877 277.906 205.965C277.998 206.053 278.121 206.102 278.249 206.102V206.118ZM272.257 216.765C272.378 216.71 272.472 216.611 272.52 216.488C272.568 216.366 272.566 216.229 272.514 216.108L260.169 188.254C260.115 188.132 260.016 188.037 259.892 187.989C259.769 187.941 259.631 187.944 259.51 187.997C259.388 188.05 259.293 188.149 259.245 188.273C259.197 188.396 259.2 188.533 259.253 188.654L271.591 216.508C271.629 216.598 271.693 216.674 271.774 216.728C271.856 216.782 271.951 216.811 272.048 216.813C272.132 216.817 272.214 216.801 272.289 216.765H272.257ZM274.394 212.919L303.945 208.706C304.016 208.704 304.087 208.688 304.151 208.657C304.216 208.627 304.273 208.583 304.319 208.529C304.366 208.475 304.4 208.411 304.42 208.343C304.44 208.275 304.445 208.203 304.436 208.133C304.426 208.062 304.402 207.994 304.364 207.934C304.326 207.874 304.276 207.822 304.217 207.782C304.157 207.742 304.09 207.716 304.02 207.704C303.95 207.692 303.877 207.695 303.808 207.712L274.257 211.926C274.125 211.935 274.002 211.995 273.915 212.094C273.827 212.193 273.783 212.323 273.791 212.455C273.8 212.587 273.861 212.709 273.96 212.797C274.059 212.884 274.189 212.928 274.322 212.919H274.394ZM265.968 231.721C266.073 231.639 266.141 231.519 266.158 231.387C266.174 231.255 266.138 231.122 266.056 231.016L250.04 210.492C249.999 210.44 249.949 210.395 249.891 210.362C249.833 210.329 249.769 210.308 249.703 210.299C249.637 210.291 249.57 210.295 249.506 210.312C249.442 210.33 249.382 210.359 249.329 210.4C249.276 210.44 249.232 210.491 249.199 210.548C249.166 210.606 249.144 210.67 249.135 210.735C249.127 210.801 249.131 210.868 249.149 210.932C249.166 210.996 249.196 211.056 249.236 211.109L265.285 231.665C265.332 231.725 265.391 231.773 265.46 231.807C265.528 231.84 265.603 231.857 265.679 231.857C265.799 231.851 265.913 231.803 266 231.721H265.968ZM290.997 226.17C291.001 226.037 290.953 225.908 290.863 225.811C290.773 225.713 290.648 225.655 290.515 225.649L268.498 224.535C268.374 224.544 268.258 224.597 268.171 224.686C268.085 224.774 268.033 224.891 268.027 225.015C268.021 225.138 268.061 225.26 268.139 225.356C268.217 225.452 268.328 225.517 268.45 225.537L290.507 226.65C290.64 226.655 290.769 226.607 290.867 226.517C290.964 226.427 291.023 226.302 291.029 226.17H290.997ZM280.611 242.464C280.619 242.398 280.613 242.331 280.595 242.268C280.576 242.204 280.545 242.144 280.503 242.093C280.461 242.041 280.409 241.999 280.35 241.968C280.292 241.936 280.227 241.917 280.161 241.911L263.293 240.253C263.228 240.246 263.162 240.253 263.099 240.272C263.036 240.291 262.977 240.322 262.926 240.364C262.875 240.405 262.833 240.457 262.803 240.515C262.772 240.573 262.753 240.636 262.747 240.702C262.736 240.833 262.776 240.964 262.861 241.065C262.945 241.167 263.065 241.232 263.197 241.246L280.065 242.913H280.113C280.242 242.922 280.37 242.88 280.469 242.796C280.568 242.712 280.631 242.593 280.643 242.464H280.611ZM259.446 251.148C259.557 251.074 259.635 250.96 259.662 250.829C259.689 250.699 259.663 250.563 259.59 250.451L251.253 237.882C251.176 237.773 251.061 237.699 250.931 237.673C250.8 237.648 250.665 237.674 250.554 237.746C250.442 237.819 250.364 237.934 250.337 238.064C250.31 238.195 250.336 238.331 250.409 238.442L258.747 251.012C258.795 251.08 258.858 251.137 258.932 251.176C259.006 251.215 259.089 251.235 259.173 251.236C259.281 251.242 259.389 251.211 259.478 251.148H259.446ZM278.579 255.354C278.577 255.222 278.524 255.096 278.431 255.002C278.338 254.908 278.213 254.853 278.081 254.849L258.249 254.665C258.117 254.665 257.99 254.717 257.897 254.81C257.803 254.903 257.751 255.03 257.751 255.161C257.749 255.228 257.76 255.294 257.784 255.355C257.808 255.417 257.845 255.473 257.891 255.52C257.938 255.567 257.994 255.605 258.055 255.63C258.116 255.655 258.182 255.667 258.249 255.666L278.081 255.85C278.148 255.854 278.216 255.843 278.28 255.82C278.344 255.796 278.402 255.76 278.451 255.714C278.501 255.668 278.54 255.612 278.568 255.55C278.595 255.488 278.61 255.421 278.611 255.354H278.579ZM251.968 284.93C252.008 284.842 255.389 275.549 265.558 273.33C265.689 273.302 265.803 273.222 265.876 273.11C265.948 272.997 265.973 272.86 265.944 272.73C265.911 272.601 265.831 272.491 265.718 272.421C265.606 272.351 265.471 272.326 265.341 272.353C254.618 274.692 251.06 284.506 251.02 284.602C250.978 284.728 250.988 284.866 251.046 284.986C251.105 285.105 251.208 285.197 251.333 285.243H251.494C251.6 285.252 251.707 285.227 251.799 285.17C251.89 285.114 251.96 285.03 252 284.93H251.968Z" fill="#2B7A78"/>
<path opacity="0.2" d="M278.257 205.621L276.306 173.233L278.257 205.621ZM272.081 216.308L259.743 188.454L272.081 216.308ZM303.921 208.209L274.354 212.439L303.921 208.209ZM265.687 231.321L249.678 210.837L265.687 231.321ZM268.498 225.04L290.555 226.146L268.498 225.04ZM263.277 240.75L280.145 242.416L263.277 240.75ZM259.205 250.731L250.827 238.162L259.205 250.731ZM258.241 255.169L278.073 255.354L258.241 255.169ZM254.225 292.276C254.357 292.266 254.481 292.204 254.568 292.104C254.655 292.003 254.699 291.872 254.69 291.74C253.429 272.85 260.755 241.911 272.506 216.516C280.017 200.286 309.455 168.386 309.768 168.066C309.863 167.971 309.916 167.843 309.916 167.709C309.916 167.576 309.863 167.447 309.768 167.353C309.722 167.306 309.667 167.269 309.606 167.244C309.546 167.219 309.481 167.206 309.415 167.206C309.349 167.206 309.284 167.219 309.224 167.244C309.163 167.269 309.108 167.306 309.062 167.353C308.764 167.673 279.205 199.693 271.631 216.068C259.663 242.079 252.433 272.457 253.719 291.804C253.729 291.931 253.786 292.051 253.88 292.138C253.973 292.225 254.096 292.275 254.225 292.276ZM278.249 206.118C278.382 206.11 278.506 206.05 278.595 205.951C278.684 205.852 278.73 205.722 278.723 205.589L276.804 173.185C276.801 173.119 276.784 173.054 276.756 172.995C276.727 172.935 276.687 172.882 276.638 172.838C276.589 172.794 276.531 172.76 276.468 172.738C276.406 172.717 276.339 172.708 276.273 172.712C276.141 172.721 276.016 172.781 275.928 172.88C275.839 172.979 275.793 173.108 275.8 173.241L277.751 205.629C277.758 205.757 277.813 205.877 277.906 205.965C277.998 206.053 278.121 206.102 278.249 206.102V206.118ZM272.257 216.765C272.378 216.71 272.472 216.611 272.52 216.488C272.568 216.366 272.566 216.229 272.514 216.108L260.169 188.254C260.115 188.132 260.016 188.037 259.892 187.989C259.769 187.941 259.631 187.944 259.51 187.997C259.388 188.05 259.293 188.149 259.245 188.273C259.197 188.396 259.2 188.533 259.253 188.654L271.591 216.508C271.629 216.598 271.693 216.674 271.774 216.728C271.856 216.782 271.951 216.811 272.048 216.813C272.132 216.817 272.214 216.801 272.289 216.765H272.257ZM274.394 212.919L303.945 208.706C304.016 208.704 304.087 208.688 304.151 208.657C304.216 208.627 304.273 208.583 304.319 208.529C304.366 208.475 304.4 208.411 304.42 208.343C304.44 208.275 304.445 208.203 304.436 208.133C304.426 208.062 304.402 207.994 304.364 207.934C304.326 207.874 304.276 207.822 304.217 207.782C304.157 207.742 304.09 207.716 304.02 207.704C303.95 207.692 303.877 207.695 303.808 207.712L274.257 211.926C274.125 211.935 274.002 211.995 273.915 212.094C273.827 212.193 273.783 212.323 273.791 212.455C273.8 212.587 273.861 212.709 273.96 212.797C274.059 212.884 274.189 212.928 274.322 212.919H274.394ZM265.968 231.721C266.073 231.639 266.141 231.519 266.158 231.387C266.174 231.255 266.138 231.122 266.056 231.016L250.04 210.492C249.958 210.386 249.837 210.316 249.703 210.299C249.57 210.282 249.435 210.318 249.329 210.4C249.222 210.482 249.153 210.602 249.135 210.735C249.118 210.868 249.154 211.003 249.236 211.109L265.285 231.665C265.332 231.725 265.391 231.773 265.46 231.807C265.528 231.84 265.603 231.857 265.679 231.857C265.799 231.851 265.913 231.803 266 231.721H265.968ZM290.997 226.17C291.001 226.037 290.953 225.908 290.863 225.811C290.773 225.713 290.648 225.655 290.515 225.649L268.498 224.535C268.374 224.544 268.258 224.597 268.171 224.686C268.085 224.774 268.033 224.891 268.027 225.015C268.021 225.138 268.061 225.26 268.139 225.356C268.217 225.452 268.328 225.517 268.45 225.537L290.507 226.65C290.64 226.655 290.769 226.607 290.867 226.517C290.964 226.427 291.023 226.302 291.029 226.17H290.997ZM280.611 242.464C280.619 242.398 280.613 242.331 280.595 242.268C280.576 242.204 280.545 242.144 280.503 242.093C280.461 242.041 280.409 241.999 280.35 241.968C280.292 241.936 280.227 241.917 280.161 241.911L263.293 240.253C263.228 240.246 263.162 240.253 263.099 240.272C263.036 240.291 262.977 240.322 262.926 240.364C262.875 240.405 262.833 240.457 262.803 240.515C262.772 240.573 262.753 240.636 262.747 240.702C262.736 240.833 262.776 240.964 262.861 241.065C262.945 241.167 263.065 241.232 263.197 241.246L280.065 242.913H280.113C280.242 242.922 280.37 242.88 280.469 242.796C280.568 242.712 280.631 242.593 280.643 242.464H280.611ZM259.446 251.148C259.557 251.074 259.635 250.96 259.662 250.829C259.689 250.699 259.663 250.563 259.59 250.451L251.253 237.882C251.176 237.773 251.061 237.699 250.931 237.673C250.8 237.648 250.665 237.674 250.554 237.746C250.442 237.819 250.364 237.934 250.337 238.064C250.31 238.195 250.336 238.331 250.409 238.442L258.747 251.012C258.795 251.08 258.858 251.137 258.932 251.176C259.006 251.215 259.089 251.235 259.173 251.236C259.281 251.242 259.389 251.211 259.478 251.148H259.446ZM278.579 255.354C278.577 255.222 278.524 255.096 278.431 255.002C278.338 254.908 278.213 254.853 278.081 254.849L258.249 254.665C258.117 254.665 257.99 254.717 257.897 254.81C257.803 254.903 257.751 255.03 257.751 255.161C257.749 255.228 257.76 255.294 257.784 255.355C257.808 255.417 257.845 255.473 257.891 255.52C257.938 255.567 257.994 255.605 258.055 255.63C258.116 255.655 258.182 255.667 258.249 255.666L278.081 255.85C278.148 255.854 278.216 255.843 278.28 255.82C278.344 255.796 278.402 255.76 278.451 255.714C278.501 255.668 278.54 255.612 278.568 255.55C278.595 255.488 278.61 255.421 278.611 255.354H278.579ZM251.968 284.93C252.008 284.842 255.389 275.549 265.558 273.33C265.689 273.302 265.803 273.222 265.876 273.11C265.948 272.997 265.973 272.86 265.944 272.73C265.911 272.601 265.831 272.491 265.718 272.421C265.606 272.351 265.471 272.326 265.341 272.353C254.618 274.692 251.06 284.506 251.02 284.602C250.978 284.728 250.988 284.866 251.046 284.986C251.105 285.105 251.208 285.197 251.333 285.243H251.494C251.6 285.252 251.707 285.227 251.799 285.17C251.89 285.114 251.96 285.03 252 284.93H251.968ZM254.225 292.276C254.357 292.266 254.481 292.204 254.568 292.104C254.655 292.003 254.699 291.872 254.69 291.74C253.429 272.85 260.755 241.911 272.506 216.516C280.017 200.286 309.455 168.386 309.768 168.066C309.863 167.971 309.916 167.843 309.916 167.709C309.916 167.576 309.863 167.447 309.768 167.353C309.722 167.306 309.667 167.269 309.606 167.244C309.546 167.219 309.481 167.206 309.415 167.206C309.349 167.206 309.284 167.219 309.224 167.244C309.163 167.269 309.108 167.306 309.062 167.353C308.764 167.673 279.205 199.693 271.631 216.068C259.663 242.079 252.433 272.457 253.719 291.804C253.729 291.931 253.786 292.051 253.88 292.138C253.973 292.225 254.096 292.275 254.225 292.276ZM278.249 206.118C278.382 206.11 278.506 206.05 278.595 205.951C278.684 205.852 278.73 205.722 278.723 205.589L276.804 173.185C276.801 173.119 276.784 173.054 276.756 172.995C276.727 172.935 276.687 172.882 276.638 172.838C276.589 172.794 276.531 172.76 276.468 172.738C276.406 172.717 276.339 172.708 276.273 172.712C276.141 172.721 276.016 172.781 275.928 172.88C275.839 172.979 275.793 173.108 275.8 173.241L277.751 205.629C277.758 205.757 277.813 205.877 277.906 205.965C277.998 206.053 278.121 206.102 278.249 206.102V206.118ZM272.257 216.765C272.378 216.71 272.472 216.611 272.52 216.488C272.568 216.366 272.566 216.229 272.514 216.108L260.169 188.254C260.115 188.132 260.016 188.037 259.892 187.989C259.769 187.941 259.631 187.944 259.51 187.997C259.388 188.05 259.293 188.149 259.245 188.273C259.197 188.396 259.2 188.533 259.253 188.654L271.591 216.508C271.629 216.598 271.693 216.674 271.774 216.728C271.856 216.782 271.951 216.811 272.048 216.813C272.132 216.817 272.214 216.801 272.289 216.765H272.257ZM274.394 212.919L303.945 208.706C304.016 208.704 304.087 208.688 304.151 208.657C304.216 208.627 304.273 208.583 304.319 208.529C304.366 208.475 304.4 208.411 304.42 208.343C304.44 208.275 304.445 208.203 304.436 208.133C304.426 208.062 304.402 207.994 304.364 207.934C304.326 207.874 304.276 207.822 304.217 207.782C304.157 207.742 304.09 207.716 304.02 207.704C303.95 207.692 303.877 207.695 303.808 207.712L274.257 211.926C274.125 211.935 274.002 211.995 273.915 212.094C273.827 212.193 273.783 212.323 273.791 212.455C273.8 212.587 273.861 212.709 273.96 212.797C274.059 212.884 274.189 212.928 274.322 212.919H274.394ZM265.968 231.721C266.073 231.639 266.141 231.519 266.158 231.387C266.174 231.255 266.138 231.122 266.056 231.016L250.04 210.492C249.999 210.44 249.949 210.395 249.891 210.362C249.833 210.329 249.769 210.308 249.703 210.299C249.637 210.291 249.57 210.295 249.506 210.312C249.442 210.33 249.382 210.359 249.329 210.4C249.276 210.44 249.232 210.491 249.199 210.548C249.166 210.606 249.144 210.67 249.135 210.735C249.127 210.801 249.131 210.868 249.149 210.932C249.166 210.996 249.196 211.056 249.236 211.109L265.285 231.665C265.332 231.725 265.391 231.773 265.46 231.807C265.528 231.84 265.603 231.857 265.679 231.857C265.799 231.851 265.913 231.803 266 231.721H265.968ZM290.997 226.17C291.001 226.037 290.953 225.908 290.863 225.811C290.773 225.713 290.648 225.655 290.515 225.649L268.498 224.535C268.374 224.544 268.258 224.597 268.171 224.686C268.085 224.774 268.033 224.891 268.027 225.015C268.021 225.138 268.061 225.26 268.139 225.356C268.217 225.452 268.328 225.517 268.45 225.537L290.507 226.65C290.64 226.655 290.769 226.607 290.867 226.517C290.964 226.427 291.023 226.302 291.029 226.17H290.997ZM280.611 242.464C280.619 242.398 280.613 242.331 280.595 242.268C280.576 242.204 280.545 242.144 280.503 242.093C280.461 242.041 280.409 241.999 280.35 241.968C280.292 241.936 280.227 241.917 280.161 241.911L263.293 240.253C263.228 240.246 263.162 240.253 263.099 240.272C263.036 240.291 262.977 240.322 262.926 240.364C262.875 240.405 262.833 240.457 262.803 240.515C262.772 240.573 262.753 240.636 262.747 240.702C262.736 240.833 262.776 240.964 262.861 241.065C262.945 241.167 263.065 241.232 263.197 241.246L280.065 242.913H280.113C280.242 242.922 280.37 242.88 280.469 242.796C280.568 242.712 280.631 242.593 280.643 242.464H280.611ZM259.446 251.148C259.557 251.074 259.635 250.96 259.662 250.829C259.689 250.699 259.663 250.563 259.59 250.451L251.253 237.882C251.176 237.773 251.061 237.699 250.931 237.673C250.8 237.648 250.665 237.674 250.554 237.746C250.442 237.819 250.364 237.934 250.337 238.064C250.31 238.195 250.336 238.331 250.409 238.442L258.747 251.012C258.795 251.08 258.858 251.137 258.932 251.176C259.006 251.215 259.089 251.235 259.173 251.236C259.281 251.242 259.389 251.211 259.478 251.148H259.446ZM278.579 255.354C278.577 255.222 278.524 255.096 278.431 255.002C278.338 254.908 278.213 254.853 278.081 254.849L258.249 254.665C258.117 254.665 257.99 254.717 257.897 254.81C257.803 254.903 257.751 255.03 257.751 255.161C257.749 255.228 257.76 255.294 257.784 255.355C257.808 255.417 257.845 255.473 257.891 255.52C257.938 255.567 257.994 255.605 258.055 255.63C258.116 255.655 258.182 255.667 258.249 255.666L278.081 255.85C278.148 255.854 278.216 255.843 278.28 255.82C278.344 255.796 278.402 255.76 278.451 255.714C278.501 255.668 278.54 255.612 278.568 255.55C278.595 255.488 278.61 255.421 278.611 255.354H278.579ZM251.968 284.93C252.008 284.842 255.389 275.549 265.558 273.33C265.689 273.302 265.803 273.222 265.876 273.11C265.948 272.997 265.973 272.86 265.944 272.73C265.911 272.601 265.831 272.491 265.718 272.421C265.606 272.351 265.471 272.326 265.341 272.353C254.618 274.692 251.06 284.506 251.02 284.602C250.978 284.728 250.988 284.866 251.046 284.986C251.105 285.105 251.208 285.197 251.333 285.243H251.494C251.6 285.252 251.707 285.227 251.799 285.17C251.89 285.114 251.96 285.03 252 284.93H251.968Z" fill="black"/>
<path d="M267.341 278.153H244.602V282.847H246.586L250.69 308.459H261.253L265.357 282.847H267.341V278.153Z" fill="#2B7A78"/>
<path opacity="0.3" d="M267.341 278.153H244.602V282.847H246.586L250.69 308.459H261.253L265.357 282.847H267.341V278.153Z" fill="white"/>
<path d="M62.6116 136.198L36.161 127.586L33.8076 121.386L28.4339 121.218L18.6826 119.375L19.8553 121.386L32.1288 130.27L35.157 131.776L62.8204 146.188L62.6116 136.198Z" fill="white" stroke="#263238" stroke-width="1.00396" stroke-miterlimit="10"/>
<path d="M33.8077 121.386L31.2856 119.88L26.2493 121.722L27.0846 122.724L33.8077 121.386Z" fill="white" stroke="#263238" stroke-width="1.00396" stroke-linejoin="round"/>
<path d="M62.6116 136.198L36.161 127.586L33.8076 121.386L28.4339 121.218L18.6826 119.375L19.8553 121.386L32.1288 130.27L35.157 131.776L62.8204 146.188L62.6116 136.198Z" fill="white"/>
<path opacity="0.5" d="M62.612 136.198L36.1614 127.586L33.8079 121.386L28.4343 121.218L18.683 119.375L19.8557 121.386L32.1292 130.27L35.1574 131.776L62.8208 146.188L62.612 136.198Z" fill="#2B7A78" stroke="#263238" stroke-width="1.00396" stroke-miterlimit="10"/>
<path d="M62.6116 136.198L36.161 127.586L33.8076 121.386L28.4339 121.218L18.6826 119.375L19.8553 121.386L32.1288 130.27L35.157 131.776L62.8204 146.188L62.6116 136.198Z" stroke="#263238" stroke-width="1.00396" stroke-miterlimit="10"/>
<path d="M33.8077 121.386L31.2856 119.88L26.2493 121.722L27.0846 122.724L33.8077 121.386Z" fill="white"/>
<path opacity="0.5" d="M33.8072 121.386L31.2851 119.88L26.2488 121.722L27.0841 122.724L33.8072 121.386Z" fill="#2B7A78" stroke="#263238" stroke-width="1.00396" stroke-linejoin="round"/>
<path d="M33.8077 121.386L31.2856 119.88L26.2493 121.722L27.0846 122.724L33.8077 121.386Z" stroke="#263238" stroke-width="1.00396" stroke-linejoin="round"/>
<path d="M68.2265 80.3054C68.2265 80.3054 67.8169 83.9103 68.837 86.2255C69.8571 88.5407 75.5199 96.3834 75.5199 96.3834L64.9493 104.835C64.9493 104.835 60.5637 96.0229 59.7283 94.597C58.8929 93.171 57.8889 87.0346 60.6119 82.6366C63.3348 78.2385 67.2546 77.0529 68.2265 80.3054Z" fill="white"/>
<g style="mix-blend-mode:multiply" opacity="0.5">
<path d="M62.796 91.8893L67.3825 101.374L64.9407 104.843L60.3301 96.6318L62.796 91.8893Z" fill="#2B7A78"/>
</g>
<path d="M68.2265 80.3054C68.2265 80.3054 67.8169 83.9103 68.837 86.2255C69.8571 88.5407 75.5199 96.3834 75.5199 96.3834L64.9493 104.835C64.9493 104.835 60.5637 96.0229 59.7283 94.597C58.8929 93.171 57.8889 87.0346 60.6119 82.6366C63.3348 78.2385 67.2546 77.0529 68.2265 80.3054Z" stroke="#263238" stroke-width="1.00396" stroke-miterlimit="10"/>
<path d="M71.5034 73.7043C70.8528 69.6988 66.2503 61.5517 58.9488 61.8641C54.2098 62.0724 51.9928 63.0257 49.9365 64.1873C48.2604 65.1722 46.6981 66.3381 45.2778 67.664C41.7114 71.9339 40.4583 73.1035 41.1491 76.372C41.0925 77.6757 41.2973 78.9775 41.7516 80.2013C42.844 83.1092 43.591 85.0079 44.5388 86.3938C44.2496 87.7476 43.4946 91.3205 43.4544 92.1376C43.4143 92.9548 45.8641 92.386 47.1011 92.0736C49.3984 97.2006 53.6073 100.757 54.9166 101.166C57.1978 101.879 60.8043 98.1379 62.716 95.2379C64.6277 92.3379 63.1819 89.0774 63.1899 87.7797C63.198 86.4819 67.4872 83.63 69.0776 82.7247C70.6681 81.8195 72.146 77.7018 71.5034 73.7043Z" fill="white"/>
<g style="mix-blend-mode:multiply" opacity="0.5">
<path d="M41.1819 76.372C41.1253 77.6757 41.3301 78.9776 41.7844 80.2013C42.8768 83.1093 43.6238 85.0079 44.5716 86.3938C44.2824 87.7476 43.5274 91.3206 43.4872 92.1377C43.4471 92.9548 45.8969 92.386 47.1339 92.0736C49.4312 97.2006 53.6401 100.758 54.9494 101.166C57.2306 101.879 60.8371 98.1379 62.7488 95.2379C63.2264 94.5139 63.5365 93.693 63.6565 92.8346C63.5521 92.4581 63.4798 92.2258 63.4798 92.2258C63.4798 92.2258 62.4034 96.3515 60.2668 95.8147C58.1302 95.278 54.8611 91.0081 53.0377 89.5341C51.2144 88.0601 51.9614 86.1214 51.5999 83.9264C51.2385 81.7314 45.8407 79.8007 45.4793 78.543C45.1178 77.2853 46.3789 72.0781 46.3789 72.0781C46.3789 72.0781 48.4271 69.3544 47.9854 70.4759C47.6731 71.4484 47.5598 72.4735 47.6523 73.4904C47.7447 74.5074 48.041 75.4954 48.5235 76.3961C48.8621 77.1067 49.3992 77.7047 50.0704 78.1182C50.7415 78.5318 51.518 78.7432 52.3068 78.7273L54.2667 69.042L50.13 65.6293L45.3106 67.632C41.7121 71.9339 40.4831 73.1035 41.1819 76.372Z" fill="#2B7A78"/>
</g>
<path d="M71.5034 73.7043C70.8528 69.6988 66.2503 61.5517 58.9488 61.8641C54.2098 62.0724 51.9928 63.0257 49.9365 64.1873C48.2604 65.1722 46.6981 66.3381 45.2778 67.664C41.7114 71.9339 40.4583 73.1035 41.1491 76.372C41.0925 77.6757 41.2973 78.9775 41.7516 80.2013C42.844 83.1092 43.591 85.0079 44.5388 86.3938C44.2496 87.7476 43.4946 91.3205 43.4544 92.1376C43.4143 92.9548 45.8641 92.386 47.1011 92.0736C49.3984 97.2006 53.6073 100.757 54.9166 101.166C57.1978 101.879 60.8043 98.1379 62.716 95.2379C64.6277 92.3379 63.1819 89.0774 63.1899 87.7797C63.198 86.4819 67.4872 83.63 69.0776 82.7247C70.6681 81.8195 72.146 77.7018 71.5034 73.7043Z" stroke="#263238" stroke-miterlimit="10"/>
<path d="M45.5352 83.9745L46.3384 86.2656C46.3384 86.2656 48.0654 86.8344 50.1698 84.5433" stroke="#263238" stroke-miterlimit="10" stroke-linecap="round"/>
<path d="M51.4708 94.6771C51.4708 94.6771 53.3825 94.4849 54.1536 91.8092" stroke="#263238" stroke-miterlimit="10" stroke-linecap="round"/>
<path d="M44.1934 82.0599C44.1934 82.0599 44.7637 80.3375 48.2095 80.3375" stroke="#263238" stroke-miterlimit="10" stroke-linecap="round"/>
<path d="M61.8568 58.6757C59.3529 58.3166 56.8278 58.1239 54.2983 58.0989C54.2983 58.0989 46.7318 53.7489 39.4625 58.3873C32.1932 63.0257 35.6873 71.1488 35.6873 73.1756C35.6873 75.2024 33.3579 75.2104 34.8118 77.822C36.2657 80.4336 41.1815 78.9916 41.1815 78.9916C41.2334 78.0066 41.4944 77.0438 41.9472 76.1669C42.4 75.29 43.0342 74.5189 43.808 73.9046C46.4266 71.8778 48.515 71.4372 49.3825 72.022C49.3825 72.022 48.8042 76.372 49.6717 78.1104C49.6717 78.1104 52.5794 79.5604 53.4549 79.5604C54.3304 79.5604 52.8846 80.7861 55.7843 81.8756C56.3126 82.0648 56.8777 82.1293 57.4351 82.0639C57.9926 81.9986 58.5273 81.8052 58.9972 81.499C59.4229 79.7366 60.3547 77.085 62.0897 77.7018C64.6359 78.6071 66.9573 84.8556 63.5114 86.9866C67.6561 87.7396 72.6763 80.4256 72.9735 73.7604C73.2707 67.0953 66.1621 59.4287 61.8568 58.6757Z" fill="#263238"/>
<path d="M49.511 69.1621C49.511 69.1621 51.6476 68.0166 54.2661 70.4679C56.8847 72.9193 61.9772 76.1958 68.7244 74.3933" stroke="white" stroke-width="0.5" stroke-linecap="round" stroke-linejoin="round"/>
<path d="M49.2136 67.1995C49.2136 67.1995 50.6835 64.9083 53.1414 64.9083C55.5993 64.9083 61.3425 68.3451 65.929 68.3451" stroke="white" stroke-width="0.5" stroke-linecap="round" stroke-linejoin="round"/>
<path d="M47.5431 71.6134C47.5431 71.6134 44.7558 68.1847 42.1373 70.9645C39.5187 73.7444 41.1814 76.372 41.1814 76.372" stroke="white" stroke-width="0.5" stroke-linecap="round" stroke-linejoin="round"/>
<path d="M36.4023 73.9046C37.9996 72.468 38.9925 70.4818 39.1815 68.345C39.5109 64.7481 44.4347 61.6398 47.5432 64.5878" stroke="white" stroke-width="0.5" stroke-linecap="round" stroke-linejoin="round"/>
<path d="M41.4786 60.8226C41.4786 60.8226 46.4025 56.0801 50.499 62.1284" stroke="white" stroke-width="0.5" stroke-linecap="round" stroke-linejoin="round"/>
<path d="M81.5523 293.999C81.5523 293.999 84.5805 298.693 84.2431 301.713L83.9138 304.734C83.9138 304.734 72.805 307.77 70.4516 307.77C68.0981 307.77 55.6399 306.592 55.6399 306.592L55.1017 304.461C55.064 304.304 55.0818 304.138 55.152 303.992C55.2222 303.847 55.3406 303.729 55.4873 303.66L66.596 298.493L70.0981 294.672L81.5523 293.999Z" fill="white" stroke="#263238" stroke-width="1.00396" stroke-miterlimit="10"/>
<path d="M72.1382 305.407C75.1503 305.639 80.8693 303.804 84.1867 302.635L83.9538 304.734C83.9538 304.734 72.8049 307.77 70.4514 307.77C68.0979 307.77 55.6397 306.592 55.6397 306.592L55.2542 305.07C57.2462 305.078 68.1541 305.102 72.1382 305.407Z" fill="#2B7A78" stroke="#263238" stroke-width="1.00396" stroke-miterlimit="10"/>
<path d="M66.6118 298.493L50.4426 305.511C50.4426 305.511 49.0611 308.963 50.4426 309.652C51.8242 310.341 81.9456 309.652 81.9456 309.652C81.9456 309.652 84.0259 304.197 80.7407 300.536C77.4555 296.875 66.6118 298.493 66.6118 298.493Z" fill="white" stroke="#263238" stroke-width="1.00396" stroke-miterlimit="10"/>
<path d="M81.9458 309.652C81.9458 309.652 51.8245 310.341 50.4429 309.652C49.7762 309.316 49.7521 308.347 49.9048 307.425H82.476C82.3695 308.183 82.192 308.928 81.9458 309.652Z" fill="#2B7A78" stroke="#263238" stroke-width="1.00396" stroke-miterlimit="10"/>
<path d="M58.9653 176.558C58.9653 176.558 54.7403 195.231 53.1419 206.911C51.5434 218.591 50.6037 241.991 50.941 244.675C51.2784 247.359 68.0981 292.325 68.0981 292.325L69.7769 296.33L81.5523 293.983C81.5523 293.983 76.1707 276.871 74.1545 267.474C72.1384 258.077 67.7286 242.64 67.7286 239.957C67.7286 237.273 78.1707 186.019 78.9177 182.654C79.6647 179.289 83.0544 174.122 83.0544 174.122L60.5076 173.666L58.9653 176.558Z" fill="#2B7A78" stroke="#263238" stroke-width="1.00396" stroke-miterlimit="10"/>
<path d="M58.9652 176.558C58.9652 176.558 56.4912 193.613 57.5113 205.469C58.5314 217.325 60.7242 242.568 60.7242 246.325C60.7242 250.082 66.8047 272.521 67.1501 279.571C67.6883 289.753 66.9333 294.792 66.9333 294.792L66.5718 298.485C66.5718 298.485 73.6644 299.494 75.2146 299.935C77.0051 300.395 78.8529 300.595 80.7007 300.528C80.7007 300.528 83.2791 289.208 83.2791 279.563C83.2791 269.918 81.1345 250.066 80.0662 242.023C78.9979 233.98 82.3634 202.954 84.2751 197.162C86.1868 191.37 90.3636 179.105 87.5523 172.84C84.741 166.576 58.9652 176.558 58.9652 176.558Z" fill="#2B7A78" stroke="#263238" stroke-width="1.00396" stroke-miterlimit="10"/>
<path d="M90.6769 169.7L90.4198 177.327C90.4198 177.327 85.8414 178.232 79.6725 179.297C74.58 180.179 61.7925 179.065 57.4872 178.648C57.0948 178.614 56.7321 178.426 56.4779 178.126C56.2236 177.826 56.0985 177.438 56.1297 177.046L56.5474 170.157L90.6769 169.7Z" fill="#263238"/>
<path d="M72.7807 93.6758C72.7807 93.6758 65.5515 101.47 62.8286 106.317C60.1056 111.164 59.0293 118.59 58.0092 124.438C56.9891 130.286 59.7522 144.017 58.973 150.322L56.5071 170.181C56.5071 170.181 55.977 171.527 57.7521 173.001C59.5273 174.475 68.1942 175.011 76.0258 175.404C78.8853 175.548 87.4237 173.714 88.8213 173.626C90.5081 173.521 90.5643 171.382 90.6366 169.7C90.974 161.793 92.4037 140.716 93.3435 131.536C95.2793 112.814 84.6846 94.7412 72.7807 93.6758Z" fill="white" stroke="#263238" stroke-width="1.00396" stroke-miterlimit="10"/>
<g style="mix-blend-mode:multiply">
<path d="M92.4598 142.182C92.7811 138.025 93.1024 134.251 93.3836 131.536C93.4639 130.735 93.5121 129.934 93.5522 129.132L74.3469 132.337L57.8484 126.729C57.8502 130.134 58.0433 133.536 58.4267 136.919L74.6119 141.437L92.4598 142.182Z" fill="#2B7A78"/>
</g>
<g style="mix-blend-mode:multiply">
<path d="M72.0658 94.4608C70.9734 95.6705 68.8047 98.1299 66.7404 100.741L78.9335 113.102L82.9497 111.5L72.0658 94.4608Z" fill="#2B7A78"/>
</g>
<path d="M72.7808 93.6758C72.7808 93.6758 65.5517 101.47 62.8287 106.317C62.0213 107.79 61.3672 109.342 60.8768 110.947L75.4154 94.1965C74.5565 93.937 73.674 93.7626 72.7808 93.6758Z" fill="#263238"/>
<g style="mix-blend-mode:multiply">
<path d="M58.5713 121.282L74.3468 126.457L93.504 124.262C93.2038 119.502 92.1435 114.821 90.3634 110.395L74.9171 116.571L61.1095 110.331C59.9805 113.91 59.1319 117.571 58.5713 121.282Z" fill="#2B7A78"/>
</g>
<g style="mix-blend-mode:multiply">
<path d="M85.7287 161.793C77.7274 163.133 69.5175 162.464 61.8405 159.847L57.993 158.533L56.7961 168.146L61.1818 169.372C69.5192 171.697 78.2331 172.366 86.8291 171.342L90.3714 170.918C90.5558 170.529 90.6596 170.106 90.6766 169.676C90.773 167.537 90.9417 164.429 91.1586 160.864L85.7287 161.793Z" fill="#2B7A78"/>
</g>
<g style="mix-blend-mode:multiply">
<path d="M87.8737 148.703C79.8721 150.048 71.6602 149.376 63.9854 146.749L59.0857 145.074C59.2072 146.82 59.1831 148.572 59.0134 150.314L58.4431 154.936L63.3268 156.298C71.6609 158.625 80.3722 159.297 88.9661 158.276L91.3758 157.988C91.5766 154.784 91.8095 151.371 92.0585 147.998L87.8737 148.703Z" fill="#2B7A78"/>
</g>
<path d="M12.5148 114.826L28.0457 127.28L28.7151 126.45L13.1842 113.996L12.5148 114.826Z" fill="#263238"/>
<path d="M80.2589 102.32C80.2589 102.32 85.9539 106.189 86.0824 115.33C86.1386 119.335 85.721 123.076 84.7972 129.637C83.8735 136.198 78.1384 157.564 73.6724 160.159C69.2064 162.755 62.2745 157.852 62.2745 157.852L28.7474 135.653L20.6428 129.124L16.6266 121.562L17.8877 119.159L27.7755 126.721L22.45 121.81L23.4943 120.489L25.422 121.826L31.0447 123.925L32.2736 131.936L34.0086 133.122L66.0818 144.81C66.0818 144.81 65.6802 127.594 65.9774 124.302C66.2746 121.009 66.6843 112.734 70.2185 106.734" fill="white"/>
<g style="mix-blend-mode:multiply" opacity="0.5">
<path d="M65.857 131.8C65.857 137.744 66.0578 144.81 66.0578 144.81L34.0167 133.17L32.2817 131.984L31.0528 123.973L25.4301 121.874L23.5104 120.513L22.4662 121.834L27.7756 126.721L17.8877 119.159L16.6909 121.522L20.7071 129.084L28.8117 135.653L30.852 137.007L75.1504 151.243L65.857 131.8Z" fill="#2B7A78"/>
</g>
<path d="M80.2589 102.32C80.2589 102.32 85.9539 106.189 86.0824 115.33C86.1386 119.335 85.721 123.076 84.7972 129.637C83.8735 136.198 78.1384 157.564 73.6724 160.159C69.2064 162.755 62.2745 157.852 62.2745 157.852L28.7474 135.653L20.6428 129.124L16.6266 121.562L17.8877 119.159L27.7755 126.721L22.45 121.81L23.4943 120.489L25.422 121.826L31.0447 123.925L32.2736 131.936L34.0086 133.122L66.0818 144.81C66.0818 144.81 65.6802 127.594 65.9774 124.302C66.2746 121.009 66.6843 112.734 70.2185 106.734" stroke="#263238" stroke-width="1.00396" stroke-miterlimit="10"/>
<path d="M66.0816 144.81L78.323 153.622L81.4957 148.014C81.4957 148.014 83.6886 146.292 84.0099 144.994C84.3312 143.696 83.9215 141.59 84.2508 140.292C84.5802 138.994 86.2188 137.776 86.3714 134.636C86.524 131.496 86.3714 128.876 86.3714 128.876C86.3714 128.876 89.0221 118.005 88.7329 113.279C88.4437 108.552 83.8733 100.197 80.2106 100.012C76.5478 99.8282 71.7846 100.381 68.0897 105.957C64.3948 111.532 65.1499 127.811 64.5716 128.828C63.9932 129.845 64.7965 134.868 64.7965 134.868C64.4754 135.107 64.2091 135.411 64.0152 135.761C63.8213 136.11 63.7043 136.497 63.6719 136.895C63.6077 138.201 65.0214 141.413 65.0214 141.413L66.0816 144.81Z" fill="white" stroke="#263238" stroke-width="1.00396" stroke-miterlimit="10"/>
<g style="mix-blend-mode:multiply">
<path d="M64.8929 124.646C64.9181 126.044 64.8132 127.441 64.5796 128.82C64.0655 129.733 64.6519 133.859 64.7804 134.7C71.6656 136.833 78.9461 137.381 86.0742 136.302C86.2273 135.745 86.3189 135.173 86.3473 134.596C86.508 131.464 86.3473 128.836 86.3473 128.836C86.3473 128.836 86.5802 127.867 86.9015 126.393C79.5194 126.861 72.108 126.273 64.8929 124.646Z" fill="#2B7A78"/>
</g>
<g style="mix-blend-mode:multiply">
<path d="M67.5916 106.846C66.443 109.145 65.8004 112.598 65.4309 116.099C72.7228 118.874 80.5847 119.828 88.3312 118.878C88.6402 117.026 88.7774 115.148 88.7408 113.271C88.6017 111.786 88.2501 110.33 87.6966 108.945C80.9327 109.102 74.1763 108.397 67.5916 106.846Z" fill="#2B7A78"/>
</g>
<path d="M65.0214 141.501L66.0575 144.81L78.2989 153.622L81.4716 148.014C81.4716 148.014 83.6645 146.292 83.9858 144.994C84.0431 144.769 84.0781 144.538 84.0902 144.305C77.6393 144.194 71.2299 143.252 65.0214 141.501Z" fill="#263238"/>
<path d="M73.8811 299.831C73.8811 299.831 74.1542 292.893 75.4876 282.751C76.8209 272.609 73.616 258.206 73.0779 255.802C72.5397 253.399 73.351 248.064 72.8128 246.189C72.2746 244.315 69.6721 236.32 71.2063 227.043C72.7405 217.766 73.9855 193.244 73.9855 193.244C73.9855 193.244 70.1219 190.112 68.9894 186.035C67.8568 181.957 68.7243 180.675 68.7243 180.675" stroke="#263238" stroke-width="1.00396" stroke-miterlimit="10"/>
<path d="M75.6725 181.052L74.1865 189.255" stroke="#263238" stroke-width="1.00396" stroke-miterlimit="10"/>
</svg>
