<svg width="64" height="64" viewBox="0 0 64 64" fill="none" xmlns="http://www.w3.org/2000/svg">
<path d="M45.3333 9.33301H18.6666C10.6666 9.33301 5.33325 13.333 5.33325 22.6663V41.333C5.33325 50.6663 10.6666 54.6663 18.6666 54.6663H45.3333C53.3333 54.6663 58.6666 50.6663 58.6666 41.333V22.6663C58.6666 13.333 53.3333 9.33301 45.3333 9.33301ZM46.5866 25.573L38.2399 32.2397C36.4799 33.653 34.2399 34.3463 31.9999 34.3463C29.7599 34.3463 27.4933 33.653 25.7599 32.2397L17.4133 25.573C16.5599 24.8797 16.4266 23.5997 17.0933 22.7463C17.7866 21.893 19.0399 21.733 19.8933 22.4263L28.2399 29.093C30.2666 30.7197 33.7066 30.7197 35.7333 29.093L44.0799 22.4263C44.9333 21.733 46.2133 21.8663 46.8799 22.7463C47.5733 23.5997 47.4399 24.8797 46.5866 25.573Z" fill="#2B7A78"/>
</svg>
