<svg width="72" height="72" viewBox="0 0 72 72" fill="none" xmlns="http://www.w3.org/2000/svg">
<g clip-path="url(#clip0_1158_38788)">
<path d="M65.1077 18.084C65.1513 18.7152 65.1513 19.3464 65.1513 19.9834C65.1513 39.3942 50.4029 61.7808 23.4348 61.7808V61.7692C15.4684 61.7808 7.66739 59.4944 0.960938 55.1835C2.11932 55.3231 3.28352 55.3929 4.45061 55.3959C11.0526 55.4017 17.4658 53.1822 22.6596 49.0953C16.3858 48.976 10.8842 44.8774 8.96223 38.8939C11.16 39.3186 13.4245 39.2313 15.5816 38.6408C8.74158 37.2562 3.82062 31.2349 3.82062 24.242C3.82062 24.178 3.82062 24.1169 3.82062 24.0558C5.85868 25.1932 8.14061 25.8244 10.4748 25.8942C4.03255 21.5804 2.04674 12.9935 5.93707 6.27983C13.3809 15.4573 24.3638 21.0365 36.1538 21.6269C34.9722 16.5248 36.5864 11.1783 40.3955 7.59172C46.3006 2.02999 55.588 2.31506 61.139 8.22876C64.4225 7.58008 67.5696 6.37291 70.4496 4.6625C69.3551 8.06295 67.0645 10.9514 64.0045 12.7869C66.9106 12.4437 69.75 11.6641 72.4238 10.4744C70.4555 13.4298 67.9761 16.0041 65.1077 18.084Z" fill="#2b7a78"/>
</g>
<defs>
<clipPath id="clip0_1158_38788">
<rect width="72" height="72" fill="white"/>
</clipPath>
</defs>
</svg>
