<svg width="171" height="24" viewBox="0 0 171 24" fill="none" xmlns="http://www.w3.org/2000/svg">
<path d="M6.10057 14.9883V14.9063L14.21 3.52745V0.949249H2.11621V3.97265H9.73342V4.0547L1.78809 15.3633V18H14.2334V14.9883H6.10057ZM24.4756 6.2813V11.9649C24.4756 13.0547 24.2177 13.8984 23.7256 14.4843C23.2217 15.0821 22.6006 15.375 21.874 15.375C21.124 15.375 20.585 15.1641 20.2568 14.7422C19.9288 14.3204 19.7764 13.5704 19.7764 12.5157V6.2813H16.6358V13.3359C16.6358 14.2149 16.7294 14.9649 16.9405 15.5976C17.1514 16.2305 17.4443 16.7343 17.8427 17.1093C18.2413 17.4843 18.6865 17.7657 19.2022 17.9414C19.706 18.1172 20.2919 18.1992 20.9483 18.1992C21.6163 18.1992 22.249 18.0704 22.8467 17.7892C23.4443 17.5079 23.9717 17.1094 24.4288 16.5704H24.4756V18H27.6163V6.2813H24.4756ZM37.4131 6.0821C36.71 6.0821 36.0655 6.25789 35.456 6.58595C34.8467 6.91414 34.3193 7.3946 33.874 8.0039H33.8389V6.2813H30.6983V18H33.8389V12.5625C33.8389 11.6718 34.0967 10.9337 34.624 10.3593C35.1514 9.79685 35.8897 9.5039 36.8272 9.5039C37.0615 9.5039 37.3427 9.51575 37.6592 9.53915V6.0938C37.6123 6.0938 37.5302 6.0821 37.4131 6.0821ZM41.4092 4.6289C41.9365 4.6289 42.3935 4.4414 42.7802 4.0664C43.1552 3.6914 43.3544 3.2462 43.3544 2.7071C43.3544 2.1914 43.1552 1.73435 42.7802 1.35935C42.3935 0.984348 41.9365 0.796848 41.4092 0.796848C40.8701 0.796848 40.4014 0.984348 40.0264 1.35935C39.6514 1.73435 39.4639 2.1914 39.4639 2.7071C39.4639 3.0587 39.5459 3.38675 39.7217 3.6797C39.8858 3.97265 40.1201 4.2071 40.4248 4.3712C40.7294 4.54685 41.0576 4.6289 41.4092 4.6289ZM39.8389 18H42.9794V6.2813H39.8389V18ZM59.3506 18H62.749V0.949249H59.3506V18ZM73.2608 6.0821C72.5342 6.0821 71.8427 6.23435 71.1865 6.52745C70.5302 6.8204 69.9677 7.2422 69.499 7.793H69.4639V6.2813H66.3233V18H69.4639V12.1055C69.4639 11.0859 69.6983 10.3008 70.1788 9.73835C70.6592 9.18755 71.3038 8.9063 72.124 8.9063C72.8858 8.9063 73.4483 9.1289 73.8233 9.56255C74.1865 10.0079 74.374 10.7579 74.374 11.8359V18.0117H77.5147V11.0508C77.5147 10.1718 77.4092 9.41015 77.21 8.7539C76.999 8.10935 76.706 7.5938 76.3193 7.2071C75.9326 6.8321 75.4873 6.55085 74.9834 6.36335C74.4794 6.17585 73.9052 6.0821 73.2608 6.0821ZM84.1709 18.1992C84.8858 18.1992 85.4717 18.1407 85.9288 18.0117C86.374 17.8946 86.831 17.7071 87.2764 17.4609L86.4677 14.9532C85.9288 15.2343 85.4365 15.3633 84.9913 15.3633C84.6163 15.3633 84.3584 15.2462 84.1943 15C84.0302 14.7657 83.96 14.3789 83.96 13.8633V8.8829H87.1475V6.2813H83.96V2.10935L80.8193 2.44925V6.2813H79.4365V8.8829H80.8193V14.2968C80.8193 15.5859 81.1123 16.5587 81.71 17.2149C82.3076 17.8712 83.128 18.1992 84.1709 18.1992ZM99.8155 12.0351C99.8155 10.8984 99.5693 9.8789 99.1006 8.97665C98.6201 8.07425 97.9405 7.3712 97.0733 6.8555C96.1943 6.33995 95.1865 6.0821 94.0615 6.0821C93.2413 6.0821 92.4677 6.23435 91.753 6.52745C91.0264 6.8321 90.4169 7.2422 89.9014 7.7696C89.3858 8.29685 88.9873 8.9414 88.6943 9.6914C88.3897 10.4414 88.249 11.2617 88.249 12.1289C88.249 13.3242 88.5068 14.3907 89.0342 15.3164C89.5615 16.2539 90.2881 16.9688 91.2022 17.4609C92.1163 17.9532 93.1358 18.1992 94.2842 18.1992C95.4092 18.1992 96.3935 18 97.2608 17.6017C98.1163 17.2033 98.8076 16.6641 99.3467 15.9843L97.3076 14.0859C96.5693 14.9766 95.6318 15.4218 94.5068 15.4101C93.7568 15.4101 93.1123 15.1992 92.585 14.8008C92.0576 14.4024 91.706 13.8633 91.5185 13.1601H99.7334C99.7802 12.9726 99.8155 12.5976 99.8155 12.0351ZM94.1669 8.84765C94.8233 8.84765 95.374 9.03514 95.8076 9.39845C96.2294 9.76175 96.5342 10.2657 96.6983 10.8984H91.5302C91.706 10.2422 92.0225 9.72665 92.4913 9.37505C92.96 9.02345 93.5108 8.84765 94.1669 8.84765ZM109.038 6.0821C108.335 6.0821 107.69 6.25789 107.081 6.58595C106.472 6.91414 105.944 7.3946 105.499 8.0039H105.464V6.2813H102.323V18H105.464V12.5625C105.464 11.6718 105.722 10.9337 106.249 10.3593C106.776 9.79685 107.515 9.5039 108.452 9.5039C108.686 9.5039 108.968 9.51575 109.284 9.53915V6.0938C109.237 6.0938 109.155 6.0821 109.038 6.0821ZM118.261 6.0821C117.534 6.0821 116.843 6.23435 116.186 6.52745C115.53 6.8204 114.968 7.2422 114.499 7.793H114.464V6.2813H111.323V18H114.464V12.1055C114.464 11.0859 114.698 10.3008 115.179 9.73835C115.659 9.18755 116.304 8.9063 117.124 8.9063C117.886 8.9063 118.448 9.1289 118.823 9.56255C119.186 10.0079 119.374 10.7579 119.374 11.8359V18.0117H122.515V11.0508C122.515 10.1718 122.409 9.41015 122.21 8.7539C121.999 8.10935 121.706 7.5938 121.319 7.2071C120.933 6.8321 120.487 6.55085 119.983 6.36335C119.479 6.17585 118.905 6.0821 118.261 6.0821ZM129.311 18.1992C130.788 18.1992 131.913 17.8712 132.686 17.1914C133.46 16.5234 133.858 15.6446 133.858 14.5547C133.858 14.2734 133.835 14.0039 133.788 13.7696C133.636 12.9962 133.179 12.3633 132.429 11.8946C131.983 11.6133 131.116 11.2383 129.827 10.7579C129.206 10.5234 128.761 10.3125 128.479 10.125C128.198 9.93755 128.069 9.72665 128.069 9.4922C128.069 9.21095 128.186 9.00005 128.421 8.84765C128.655 8.6954 128.913 8.61335 129.218 8.61335C129.663 8.61335 130.132 8.71879 130.624 8.9297C131.116 9.14075 131.573 9.4454 132.019 9.8555L133.542 7.5587C132.874 7.043 132.194 6.668 131.515 6.4337C130.823 6.19925 130.073 6.0821 129.253 6.0821C128.456 6.0821 127.729 6.23435 127.097 6.51575C126.464 6.8087 125.96 7.2188 125.585 7.7579C125.21 8.29685 125.034 8.9063 125.034 9.59765C125.034 9.97265 125.069 10.3125 125.163 10.6172C125.245 10.9337 125.374 11.2149 125.538 11.4492C125.702 11.6954 125.89 11.918 126.101 12.1055C126.311 12.3047 126.558 12.4805 126.851 12.6446C127.132 12.8087 127.413 12.9375 127.694 13.0547C127.976 13.1718 128.292 13.2891 128.644 13.4063C129.194 13.5938 129.604 13.7344 129.886 13.8517C130.167 13.9688 130.378 14.0976 130.542 14.2383C130.694 14.3789 130.776 14.5313 130.776 14.7071C130.776 15 130.648 15.2343 130.39 15.4101C130.132 15.5976 129.78 15.6797 129.335 15.6797C128.14 15.6797 127.061 15.2226 126.089 14.3087L124.565 16.4767C125.866 17.625 127.448 18.1992 129.311 18.1992ZM143.28 6.0821C142.519 6.0821 141.816 6.22265 141.159 6.4922C140.503 6.77345 139.941 7.17185 139.471 7.69925H139.425V0.328247H136.284V18H139.425V12.0587C139.425 11.0274 139.659 10.2539 140.151 9.71495C140.632 9.17585 141.3 8.9063 142.167 8.9063C142.941 8.9063 143.515 9.1289 143.89 9.55085C144.265 9.98435 144.453 10.7226 144.453 11.7539V18.0117H147.604V10.9571C147.604 10.0899 147.499 9.32825 147.288 8.6954C147.078 8.06255 146.773 7.54685 146.386 7.17185C145.987 6.79685 145.542 6.52745 145.026 6.35165C144.511 6.17585 143.937 6.0821 143.28 6.0821ZM152.316 4.6289C152.842 4.6289 153.3 4.4414 153.687 4.0664C154.062 3.6914 154.261 3.2462 154.261 2.7071C154.261 2.1914 154.062 1.73435 153.687 1.35935C153.3 0.984348 152.842 0.796848 152.316 0.796848C151.776 0.796848 151.308 0.984348 150.933 1.35935C150.558 1.73435 150.37 2.1914 150.37 2.7071C150.37 3.0587 150.453 3.38675 150.628 3.6797C150.792 3.97265 151.026 4.2071 151.332 4.3712C151.636 4.54685 151.965 4.6289 152.316 4.6289ZM150.745 18H153.886V6.2813H150.745V18ZM163.953 6.0821C162.453 6.0821 161.269 6.59765 160.401 7.6289H160.354V6.2813H157.215V22.7462H160.354V16.6875H160.401C161.233 17.6954 162.382 18.1992 163.858 18.1992C164.655 18.1992 165.405 18.0587 166.096 17.7657C166.788 17.4843 167.386 17.0742 167.878 16.5587C168.37 16.043 168.769 15.3984 169.05 14.6484C169.332 13.8984 169.471 13.0664 169.471 12.1758C169.471 11.4726 169.378 10.8164 169.203 10.1837C169.015 9.55085 168.757 8.98835 168.429 8.4962C168.1 8.0039 167.703 7.5704 167.257 7.2071C166.8 6.8438 166.284 6.56255 165.721 6.37505C165.159 6.18755 164.562 6.0821 163.953 6.0821ZM163.284 15.3867C162.711 15.3867 162.195 15.2579 161.725 15C161.257 14.7422 160.894 14.3555 160.624 13.8633C160.354 13.3712 160.225 12.8204 160.225 12.1875C160.225 11.7305 160.296 11.2968 160.449 10.8867C160.6 10.4883 160.812 10.1367 161.082 9.8438C161.34 9.56255 161.667 9.32825 162.042 9.16415C162.417 9.00005 162.84 8.9063 163.284 8.9063C164.14 8.9063 164.854 9.21095 165.429 9.8087C165.991 10.418 166.284 11.2032 166.284 12.1875C166.284 13.1367 166.003 13.9101 165.441 14.4962C164.878 15.0938 164.163 15.3867 163.284 15.3867Z" fill="#1F1F1F"/>
<path d="M51.9267 18.2988C52.7177 18.2988 53.4033 18.0175 53.9658 17.455C54.5283 16.8925 54.8271 16.2246 54.8271 15.4336C54.8271 14.6601 54.5283 13.9746 53.9658 13.4121C53.4033 12.8496 52.7177 12.5508 51.9267 12.5508C51.1005 12.5508 50.3975 12.832 49.835 13.3945C49.2725 13.957 48.9912 14.6425 48.9912 15.4336C48.9912 16.2421 49.2725 16.9101 49.835 17.4726C50.3975 18.0351 51.1005 18.2988 51.9267 18.2988Z" fill="#E7332B"/>
</svg>
