<svg width="117" height="20" viewBox="0 0 117 20" fill="none" xmlns="http://www.w3.org/2000/svg">
<g clip-path="url(#clip0_1017_47907)">
<path d="M4.74773 16.2088V16.1719L13.7029 3.35523V0.999146H1.27406V3.73763H9.69958V3.78698L0.879883 16.5543V18.9473H13.7399V16.2088H4.74773ZM24.8876 6.62415V12.5205C24.8876 13.162 24.8014 13.7541 24.6289 14.2722C24.4566 14.7903 24.2225 15.222 23.9269 15.5427C23.6312 15.8758 23.2863 16.1348 22.9168 16.3075C22.535 16.4802 22.1408 16.5666 21.7219 16.5666C21.2785 16.5666 20.9213 16.5172 20.6256 16.4186C20.33 16.3199 20.0713 16.1348 19.8742 15.8882C19.6649 15.6414 19.5171 15.3207 19.4185 14.9012C19.32 14.4942 19.283 13.9761 19.283 13.3593V6.62415H16.4621V14.1242C16.4621 15.0246 16.573 15.8018 16.7947 16.4555C17.0165 17.1093 17.3244 17.6274 17.7433 18.0099C18.162 18.4046 18.6424 18.6883 19.1845 18.8733C19.7264 19.0584 20.3546 19.1447 21.0568 19.1447C21.7835 19.1447 22.4734 18.9967 23.1385 18.6883C23.7914 18.3799 24.358 17.9359 24.8507 17.3438H24.8876V18.9473H27.7085V6.62415H24.8876ZM37.9693 6.43911C37.218 6.43911 36.5158 6.62415 35.8507 6.96954C35.1855 7.31494 34.6189 7.82069 34.1385 8.47447H34.1016V6.62415H31.2808V18.9473H34.1016V13.1003C34.1016 12.4342 34.2248 11.8298 34.4834 11.2993C34.742 10.7689 35.1239 10.3495 35.6413 10.0287C36.1587 9.72037 36.7622 9.56 37.4644 9.56C37.7108 9.56 37.994 9.57234 38.3143 9.59701V6.45145C38.2404 6.45145 38.1295 6.43911 37.9693 6.43911ZM42.2807 4.78616C42.6133 4.78616 42.9212 4.71214 43.2168 4.53944C43.5125 4.36675 43.7465 4.1447 43.919 3.84865C44.0915 3.56494 44.1777 3.25655 44.1777 2.91115C44.1777 2.4054 43.9806 1.96131 43.611 1.59125C43.2415 1.22119 42.7981 1.03615 42.2807 1.03615C41.7387 1.03615 41.2952 1.22119 40.9258 1.59125C40.5562 1.96131 40.3714 2.39306 40.3714 2.91115C40.3714 3.42924 40.5562 3.87333 40.9258 4.24339C41.2952 4.61345 41.7387 4.78616 42.2807 4.78616ZM40.8518 18.9473H43.6726V6.62415H40.8518V18.9473ZM58.3926 18.9473H61.4352V3.73763H66.5718V0.999146H53.3053V3.73763H58.3926V18.9473ZM78.1753 12.6439C78.1753 11.4597 77.929 10.3865 77.4485 9.44898C76.9559 8.51148 76.266 7.78368 75.3546 7.24093C74.443 6.71049 73.3837 6.43911 72.2012 6.43911C71.3512 6.43911 70.5629 6.59947 69.8237 6.90786C69.0847 7.21625 68.4441 7.64799 67.9144 8.19076C67.3725 8.74585 66.9537 9.41198 66.658 10.2015C66.35 10.9909 66.2022 11.8544 66.2022 12.7795C66.2022 14.0378 66.4732 15.1603 67.0276 16.1348C67.5695 17.1093 68.3209 17.8494 69.2817 18.3675C70.2303 18.8857 71.3019 19.1447 72.4967 19.1447C73.6424 19.1447 74.6524 18.935 75.527 18.5155C76.4016 18.0962 77.116 17.5287 77.6826 16.8133L75.7118 15.1233C74.9357 16.0979 73.9134 16.5789 72.6445 16.5789C71.733 16.5789 70.9694 16.3322 70.3411 15.8265C69.7129 15.333 69.3064 14.6423 69.134 13.7664H78.1014C78.1507 13.4704 78.1753 13.1003 78.1753 12.6439ZM72.349 9.0049C72.8663 9.0049 73.3344 9.11592 73.7532 9.32563C74.1721 9.53533 74.5046 9.81904 74.7633 10.1891C75.0219 10.5591 75.2191 10.9909 75.3422 11.4844H69.1833C69.3803 10.6949 69.7621 10.0904 70.3288 9.65868C70.8955 9.22694 71.5606 9.0049 72.349 9.0049ZM90.1362 6.62415V8.10441H90.0869C89.1507 6.99421 87.8819 6.43911 86.2806 6.43911C85.443 6.43911 84.6546 6.59947 83.9279 6.9202C83.1888 7.24092 82.5605 7.685 82.0432 8.24009C81.5135 8.80754 81.0947 9.48599 80.799 10.2755C80.4912 11.0772 80.3434 11.9284 80.3434 12.8412C80.3434 13.5938 80.4296 14.2968 80.6267 14.9629C80.8237 15.6291 81.0947 16.2088 81.4519 16.7146C81.8092 17.2204 82.228 17.6521 82.7207 18.0222C83.2134 18.3923 83.7554 18.676 84.3713 18.861C84.9872 19.0584 85.6278 19.1447 86.3052 19.1447C87.9805 19.1447 89.2862 18.528 90.2224 17.2944H90.2593V18.9473H92.957V6.62415H90.1362ZM86.7487 16.5789C85.7017 16.5789 84.8517 16.2335 84.1988 15.5427C83.5337 14.852 83.2134 13.9514 83.2134 12.8535C83.2134 12.2862 83.2996 11.7558 83.4844 11.2623C83.6692 10.7689 83.9279 10.3618 84.2481 10.0411C84.5684 9.72037 84.9379 9.46131 85.3691 9.27628C85.8003 9.10359 86.2683 9.0049 86.761 9.0049C87.7587 9.0049 88.5841 9.37497 89.2492 10.1151C89.9144 10.8552 90.247 11.7681 90.247 12.8535C90.247 13.9514 89.9021 14.852 89.2246 15.5427C88.5471 16.2335 87.7218 16.5789 86.7487 16.5789ZM111.348 6.43911C110.437 6.43911 109.599 6.62415 108.847 6.96954C108.083 7.31494 107.456 7.82069 106.938 8.48681H106.889C106.15 7.1299 104.93 6.43911 103.218 6.43911C102.491 6.43911 101.789 6.61181 101.124 6.93254C100.459 7.25325 99.8674 7.72201 99.3746 8.32645H99.3377V6.62415H96.5169V18.9473H99.3377V12.8043C99.3377 11.6324 99.6087 10.7072 100.163 10.0287C100.717 9.35029 101.432 9.0049 102.294 9.0049C103.92 9.0049 104.745 10.1891 104.745 12.5328V18.9597H107.566V12.8043C107.566 11.6324 107.837 10.7072 108.38 10.0287C108.921 9.35029 109.61 9.0049 110.437 9.0049C112.037 9.0049 112.851 10.1891 112.851 12.5328V18.9597H115.671V11.8174C115.671 10.0164 115.29 8.67184 114.551 7.78368C113.799 6.89552 112.727 6.43911 111.348 6.43911Z" fill="#1F1F1F"/>
<path d="M49.1179 19.1448C49.6352 19.1448 50.0787 18.972 50.4482 18.602C50.8178 18.2319 51.0149 17.7878 51.0149 17.2697C51.0149 16.7517 50.8178 16.3076 50.4482 15.9375C50.0787 15.5675 49.6352 15.3824 49.1179 15.3824C48.7607 15.3824 48.4404 15.4688 48.1447 15.6415C47.8491 15.8141 47.6151 16.0362 47.4427 16.3322C47.2702 16.6283 47.1963 16.9367 47.1963 17.2697C47.1963 17.7878 47.3811 18.2319 47.7506 18.602C48.1201 18.972 48.5759 19.1448 49.1179 19.1448Z" fill="#F8444F"/>
</g>
<defs>
<clipPath id="clip0_1017_47907">
<rect width="115.625" height="20" fill="white" transform="translate(0.490234)"/>
</clipPath>
</defs>
</svg>
