<svg width="149" height="24" viewBox="0 0 149 24" fill="none" xmlns="http://www.w3.org/2000/svg">
<path d="M6.04297 14.9883V14.9062L14.1524 3.52735V0.949154H2.05867V3.97255H9.67582V4.0546L1.73047 15.3633V18H14.1758V14.9883H6.04297ZM24.418 6.2812V11.9649C24.418 13.0546 24.1601 13.8984 23.668 14.4843C23.1641 15.082 22.543 15.375 21.8164 15.375C21.0664 15.375 20.5274 15.1641 20.1992 14.7421C19.8712 14.3203 19.7188 13.5703 19.7188 12.5157V6.2812H16.5782V13.3358C16.5782 14.2148 16.6718 14.9649 16.8829 15.5976C17.0938 16.2304 17.3867 16.7343 17.7851 17.1093C18.1837 17.4843 18.6289 17.7657 19.1446 17.9413C19.6484 18.1171 20.2343 18.1992 20.8907 18.1992C21.5587 18.1992 22.1914 18.0703 22.7891 17.7891C23.3867 17.5078 23.9141 17.1093 24.3712 16.5703H24.418V18H27.5587V6.2812H24.418ZM37.3555 6.082C36.6524 6.082 36.0079 6.2578 35.3984 6.58585C34.7891 6.91405 34.2617 7.3945 33.8164 8.0038H33.7813V6.2812H30.6407V18H33.7813V12.5625C33.7813 11.6718 34.0391 10.9336 34.5664 10.3593C35.0938 9.79675 35.8321 9.5038 36.7696 9.5038C37.0039 9.5038 37.2851 9.51565 37.6016 9.53905V6.0937C37.5547 6.0937 37.4726 6.082 37.3555 6.082ZM41.3516 4.6288C41.8789 4.6288 42.3359 4.4413 42.7226 4.0663C43.0976 3.6913 43.2968 3.2461 43.2968 2.707C43.2968 2.1913 43.0976 1.73425 42.7226 1.35925C42.3359 0.984253 41.8789 0.796753 41.3516 0.796753C40.8125 0.796753 40.3438 0.984253 39.9688 1.35925C39.5938 1.73425 39.4063 2.1913 39.4063 2.707C39.4063 3.0586 39.4883 3.38665 39.6641 3.6796C39.8282 3.97255 40.0625 4.207 40.3672 4.3711C40.6718 4.54675 41 4.6288 41.3516 4.6288ZM39.7813 18H42.9218V6.2812H39.7813V18ZM62.7149 18H66.0782V3.97255H70.8008V0.949154H58.0157V3.97255H62.7149V18ZM78.0664 6.082C77.3633 6.082 76.7188 6.2578 76.1093 6.58585C75.5 6.91405 74.9726 7.3945 74.5274 8.0038H74.4922V6.2812H71.3516V18H74.4922V12.5625C74.4922 11.6718 74.75 10.9336 75.2774 10.3593C75.8047 9.79675 76.543 9.5038 77.4805 9.5038C77.7149 9.5038 77.9962 9.51565 78.3125 9.53905V6.0937C78.2657 6.0937 78.1837 6.082 78.0664 6.082ZM88.4492 6.2812V7.6054H88.4024C87.5234 6.59755 86.375 6.082 84.9454 6.082C84.1718 6.082 83.4337 6.23425 82.7539 6.53905C82.0742 6.8437 81.4883 7.26565 80.9962 7.7929C80.5039 8.332 80.1289 8.97655 79.8476 9.72655C79.5664 10.4883 79.4258 11.3086 79.4258 12.1758C79.4258 13.0663 79.5664 13.8983 79.8476 14.6483C80.1289 15.3983 80.5157 16.0429 81.0079 16.5586C81.5 17.0742 82.0976 17.4843 82.7891 17.7657C83.4805 18.0586 84.2305 18.1992 85.0391 18.1992C86.5391 18.1992 87.6992 17.6601 88.543 16.582H88.6016V18H91.5899V6.2812H88.4492ZM85.6133 15.3867C84.7226 15.3867 84.0079 15.0937 83.4454 14.4961C82.8829 13.9101 82.6133 13.1367 82.6133 12.1875C82.6133 11.2032 82.8946 10.4179 83.4688 9.8086C84.043 9.21085 84.7579 8.9062 85.625 8.9062C86.4688 8.9062 87.1718 9.22255 87.7343 9.8437C88.2968 10.4766 88.5782 11.25 88.5782 12.1875C88.5782 13.1367 88.2851 13.9101 87.7226 14.4961C87.1484 15.0937 86.4454 15.3867 85.6133 15.3867ZM96.3829 4.6288C96.9101 4.6288 97.3672 4.4413 97.7539 4.0663C98.1289 3.6913 98.3282 3.2461 98.3282 2.707C98.3282 2.1913 98.1289 1.73425 97.7539 1.35925C97.3672 0.984253 96.9101 0.796753 96.3829 0.796753C95.8438 0.796753 95.375 0.984253 95 1.35925C94.625 1.73425 94.4375 2.1913 94.4375 2.707C94.4375 3.0586 94.5196 3.38665 94.6954 3.6796C94.8593 3.97255 95.0938 4.207 95.3984 4.3711C95.7032 4.54675 96.0313 4.6288 96.3829 4.6288ZM94.8125 18H97.9532V6.2812H94.8125V18ZM108.219 6.082C107.492 6.082 106.801 6.23425 106.145 6.52735C105.488 6.8203 104.926 7.2421 104.457 7.7929H104.422V6.2812H101.281V18H104.422V12.1054C104.422 11.0859 104.656 10.3008 105.137 9.73825C105.617 9.18745 106.262 8.9062 107.082 8.9062C107.844 8.9062 108.406 9.1288 108.781 9.56245C109.145 10.0078 109.332 10.7578 109.332 11.8358V18.0117H112.473V11.0508C112.473 10.1718 112.367 9.41005 112.168 8.7538C111.957 8.10925 111.664 7.5937 111.277 7.207C110.891 6.832 110.445 6.55075 109.941 6.36325C109.438 6.17575 108.863 6.082 108.219 6.082ZM117.195 4.6288C117.723 4.6288 118.18 4.4413 118.566 4.0663C118.941 3.6913 119.141 3.2461 119.141 2.707C119.141 2.1913 118.941 1.73425 118.566 1.35925C118.18 0.984253 117.723 0.796753 117.195 0.796753C116.656 0.796753 116.188 0.984253 115.813 1.35925C115.438 1.73425 115.25 2.1913 115.25 2.707C115.25 3.0586 115.332 3.38665 115.508 3.6796C115.672 3.97255 115.906 4.207 116.211 4.3711C116.516 4.54675 116.844 4.6288 117.195 4.6288ZM115.625 18H118.766V6.2812H115.625V18ZM129.031 6.082C128.305 6.082 127.613 6.23425 126.957 6.52735C126.301 6.8203 125.738 7.2421 125.27 7.7929H125.234V6.2812H122.094V18H125.234V12.1054C125.234 11.0859 125.469 10.3008 125.949 9.73825C126.43 9.18745 127.074 8.9062 127.895 8.9062C128.656 8.9062 129.219 9.1288 129.594 9.56245C129.957 10.0078 130.145 10.7578 130.145 11.8358V18.0117H133.285V11.0508C133.285 10.1718 133.18 9.41005 132.98 8.7538C132.77 8.10925 132.477 7.5937 132.09 7.207C131.703 6.832 131.258 6.55075 130.754 6.36325C130.25 6.17575 129.676 6.082 129.031 6.082ZM144.605 6.2812V7.48825H144.547C144.091 7.0312 143.563 6.67961 142.954 6.4453C142.343 6.21086 141.712 6.082 141.043 6.082C140.012 6.082 139.075 6.33985 138.254 6.8437C137.422 7.35925 136.778 8.06245 136.309 8.96485C135.841 9.8788 135.617 10.8983 135.617 12.0233C135.617 13.1483 135.851 14.1445 136.333 15.0233C136.813 15.9023 137.48 16.582 138.325 17.0625C139.168 17.5546 140.129 17.7891 141.208 17.7891C142.613 17.7891 143.75 17.332 144.617 16.4179H144.676V17.6016C144.676 18.3516 144.383 18.9726 143.809 19.4649C143.222 19.957 142.414 20.2032 141.359 20.2032C140.657 20.2032 140.012 20.1093 139.414 19.9218C138.805 19.7343 138.184 19.4649 137.551 19.1133L136.825 21.7617C138.196 22.5586 139.801 22.9453 141.629 22.9453C142.508 22.9453 143.293 22.8516 143.984 22.6407C144.676 22.4413 145.262 22.1601 145.73 21.7851C146.2 21.4218 146.587 20.9766 146.891 20.4492C147.196 19.9218 147.407 19.3476 147.547 18.7149C147.676 18.0937 147.746 17.4024 147.746 16.6524V6.2812H144.605ZM141.782 14.9413C141.442 14.9413 141.125 14.9062 140.821 14.8125C140.516 14.7187 140.246 14.5899 140 14.4141C139.754 14.25 139.543 14.0391 139.367 13.7929C139.18 13.5586 139.039 13.2773 138.946 12.9608C138.851 12.6445 138.805 12.3046 138.805 11.9296C138.805 11.0507 139.075 10.3358 139.637 9.77335C140.188 9.22255 140.903 8.9413 141.782 8.9413C142.625 8.9413 143.329 9.22255 143.891 9.76165C144.454 10.3125 144.746 11.0274 144.746 11.9062C144.746 12.7968 144.466 13.5233 143.914 14.0858C143.351 14.66 142.649 14.9413 141.782 14.9413Z" fill="#1F1F1F"/>
<path d="M53.3691 18.2988C54.16 18.2988 54.8457 18.0175 55.4082 17.455C55.9707 16.8925 56.2695 16.2246 56.2695 15.4336C56.2695 14.6601 55.9707 13.9746 55.4082 13.4121C54.8457 12.8496 54.16 12.5508 53.3691 12.5508C52.5429 12.5508 51.8398 12.832 51.2773 13.3945C50.7148 13.957 50.4336 14.6425 50.4336 15.4336C50.4336 16.2421 50.7148 16.9101 51.2773 17.4726C51.8398 18.0351 52.5429 18.2988 53.3691 18.2988Z" fill="#E7332B"/>
</svg>
