<svg width="21" height="20" viewBox="0 0 21 20" fill="none" xmlns="http://www.w3.org/2000/svg">
<path d="M18 18.334H3C2.65833 18.334 2.375 18.0507 2.375 17.709C2.375 17.3673 2.65833 17.084 3 17.084H18C18.3417 17.084 18.625 17.3673 18.625 17.709C18.625 18.0507 18.3417 18.334 18 18.334Z" fill="#FEFEFE"/>
<path d="M16.3495 2.90005C14.7328 1.28338 13.1495 1.24172 11.4912 2.90005L10.4828 3.90838C10.3995 3.99172 10.3662 4.12505 10.3995 4.24172C11.0328 6.45005 12.7995 8.21672 15.0078 8.85005C15.0412 8.85838 15.0745 8.86672 15.1078 8.86672C15.1995 8.86672 15.2828 8.83338 15.3495 8.76672L16.3495 7.75838C17.1745 6.94172 17.5745 6.15005 17.5745 5.35005C17.5828 4.52505 17.1828 3.72505 16.3495 2.90005Z" fill="#FEFEFE"/>
<path d="M13.5089 9.60768C13.2673 9.49101 13.0339 9.37435 12.8089 9.24102C12.6256 9.13268 12.4506 9.01602 12.2756 8.89102C12.1339 8.79935 11.9673 8.66602 11.8089 8.53268C11.7923 8.52435 11.7339 8.47435 11.6673 8.40768C11.3923 8.17435 11.0839 7.87435 10.8089 7.54102C10.7839 7.52435 10.7423 7.46602 10.6839 7.39102C10.6006 7.29102 10.4589 7.12435 10.3339 6.93268C10.2339 6.80768 10.1173 6.62435 10.0089 6.44102C9.87559 6.21602 9.75892 5.99102 9.64226 5.75768C9.48929 5.4299 9.05908 5.33253 8.80331 5.5883L4.11726 10.2743C4.00892 10.3827 3.90892 10.591 3.88392 10.7327L3.43392 13.9243C3.35059 14.491 3.50892 15.0243 3.85892 15.3827C4.15892 15.6743 4.57559 15.8327 5.02559 15.8327C5.12559 15.8327 5.22559 15.8243 5.32559 15.8077L8.52559 15.3577C8.67559 15.3327 8.88392 15.2327 8.98392 15.1243L13.6777 10.4306C13.9284 10.1799 13.8342 9.74863 13.5089 9.60768Z" fill="#FEFEFE"/>
</svg>
