<svg width="21" height="20" viewBox="0 0 21 20" fill="none" xmlns="http://www.w3.org/2000/svg">
<path d="M18.2077 7.62409C16.2827 4.59909 13.466 2.85742 10.4993 2.85742C9.01602 2.85742 7.57435 3.29076 6.25768 4.09909C4.94102 4.91576 3.75768 6.10742 2.79102 7.62409C1.95768 8.93242 1.95768 11.0574 2.79102 12.3658C4.71602 15.3991 7.53268 17.1324 10.4993 17.1324C11.9827 17.1324 13.4243 16.6991 14.741 15.8908C16.0577 15.0741 17.241 13.8824 18.2077 12.3658C19.041 11.0658 19.041 8.93242 18.2077 7.62409ZM10.4993 13.3658C8.63268 13.3658 7.13268 11.8574 7.13268 9.99909C7.13268 8.14076 8.63268 6.63242 10.4993 6.63242C12.366 6.63242 13.866 8.14076 13.866 9.99909C13.866 11.8574 12.366 13.3658 10.4993 13.3658Z" fill="#FEFEFE"/>
<path d="M10.5 7.61719C9.19167 7.61719 8.125 8.68385 8.125 10.0005C8.125 11.3089 9.19167 12.3755 10.5 12.3755C11.8083 12.3755 12.8833 11.3089 12.8833 10.0005C12.8833 8.69219 11.8083 7.61719 10.5 7.61719Z" fill="#FEFEFE"/>
</svg>
