<svg width="20" height="20" viewBox="0 0 20 20" fill="none" xmlns="http://www.w3.org/2000/svg">
<path d="M10.0013 1.66602C5.40964 1.66602 1.66797 5.40768 1.66797 9.99935C1.66797 14.591 5.40964 18.3327 10.0013 18.3327C14.593 18.3327 18.3346 14.591 18.3346 9.99935C18.3346 5.40768 14.593 1.66602 10.0013 1.66602ZM12.3263 10.441L9.38464 13.3827C9.25964 13.5077 9.1013 13.566 8.94297 13.566C8.78464 13.566 8.6263 13.5077 8.5013 13.3827C8.25964 13.141 8.25964 12.741 8.5013 12.4993L11.0013 9.99935L8.5013 7.49935C8.25964 7.25768 8.25964 6.85768 8.5013 6.61602C8.74297 6.37435 9.14297 6.37435 9.38464 6.61602L12.3263 9.55768C12.5763 9.79935 12.5763 10.1993 12.3263 10.441Z" fill="#FEFEFE"/>
</svg>
