<svg width="28" height="28" viewBox="0 0 28 28" fill="none" xmlns="http://www.w3.org/2000/svg">
<path d="M13.9987 0.666016C21.3454 0.666016 27.332 6.65268 27.332 13.9993C27.332 21.346 21.3454 27.3327 13.9987 27.3327C6.65203 27.3327 0.665363 21.346 0.665363 13.9993C0.665363 6.65268 6.65203 0.666016 13.9987 0.666016ZM11.612 17.9993C11.2254 18.386 11.2254 19.026 11.612 19.4127C11.812 19.6127 12.0654 19.706 12.3187 19.706C12.572 19.706 12.8254 19.6127 13.0254 19.4127L17.732 14.706C18.1187 14.3193 18.1187 13.6793 17.732 13.2927L13.0254 8.58602C12.6387 8.19935 11.9987 8.19935 11.612 8.58602C11.2254 8.97268 11.2254 9.61268 11.612 9.99935L15.612 13.9993L11.612 17.9993Z" fill="#1D5150"/>
</svg>
