<svg width="18" height="18" viewBox="0 0 18 18" fill="none" xmlns="http://www.w3.org/2000/svg">
<path d="M8.9974 0.667969C4.3974 0.667969 0.664062 4.4013 0.664062 9.0013C0.664062 13.6013 4.3974 17.3346 8.9974 17.3346C13.5974 17.3346 17.3307 13.6013 17.3307 9.0013C17.3307 4.4013 13.5974 0.667969 8.9974 0.667969ZM6.10573 10.2263C6.3474 10.468 6.3474 10.868 6.10573 11.1096C5.98073 11.2346 5.8224 11.293 5.66406 11.293C5.50573 11.293 5.3474 11.2346 5.2224 11.1096L3.55573 9.44297C3.31406 9.2013 3.31406 8.8013 3.55573 8.55964L5.2224 6.89297C5.46406 6.6513 5.86406 6.6513 6.10573 6.89297C6.3474 7.13464 6.3474 7.53464 6.10573 7.7763L4.88073 9.0013L6.10573 10.2263ZM10.4057 7.3013L8.73906 11.193C8.63906 11.4263 8.40573 11.568 8.16406 11.568C8.08073 11.568 7.9974 11.5513 7.9224 11.518C7.60573 11.3846 7.45573 11.018 7.5974 10.693L9.26406 6.8013C9.3974 6.48464 9.76406 6.33464 10.0807 6.4763C10.3974 6.61797 10.5391 6.98464 10.4057 7.3013ZM14.4391 9.44297L12.7724 11.1096C12.6474 11.2346 12.4891 11.293 12.3307 11.293C12.1724 11.293 12.0141 11.2346 11.8891 11.1096C11.6474 10.868 11.6474 10.468 11.8891 10.2263L13.1141 9.0013L11.8891 7.7763C11.6474 7.53464 11.6474 7.13464 11.8891 6.89297C12.1307 6.6513 12.5307 6.6513 12.7724 6.89297L14.4391 8.55964C14.6807 8.8013 14.6807 9.2013 14.4391 9.44297Z" fill="#2B7A78"/>
</svg>
