<svg width="18" height="18" viewBox="0 0 18 18" fill="none" xmlns="http://www.w3.org/2000/svg">
<rect width="18" height="18" rx="9" fill="#2B7A78"/>
<g clip-path="url(#clip0_2724_4947)">
<path d="M8.81539 5.37891V9.95738V5.37891ZM8.81539 5.37891L7.28924 6.90506L8.81539 5.37891ZM8.81539 5.37891L10.3416 6.90506L8.81539 5.37891ZM5 10.7205L5.23694 11.6686C5.2782 11.8337 5.37346 11.9802 5.50757 12.085C5.64169 12.1897 5.80696 12.2466 5.97712 12.2466H11.6537C11.8238 12.2466 11.9891 12.1897 12.1232 12.085C12.2573 11.9802 12.3526 11.8337 12.3939 11.6686L12.6308 10.7205" fill="#2B7A78"/>
<path d="M5 10.7205L5.23694 11.6686C5.2782 11.8337 5.37346 11.9802 5.50757 12.085C5.64169 12.1897 5.80696 12.2466 5.97712 12.2466H11.6537C11.8238 12.2466 11.9891 12.1897 12.1232 12.085C12.2573 11.9802 12.3526 11.8337 12.3939 11.6686L12.6308 10.7205M8.81539 5.37891V9.95738V5.37891ZM8.81539 5.37891L7.28924 6.90506L8.81539 5.37891ZM8.81539 5.37891L10.3416 6.90506L8.81539 5.37891Z" stroke="#FEFEFE" stroke-width="0.720685" stroke-linecap="round" stroke-linejoin="round"/>
</g>
<defs>
<clipPath id="clip0_2724_4947">
<rect width="9.15695" height="9.15695" fill="white" transform="translate(4.23438 4.23438)"/>
</clipPath>
</defs>
</svg>
