<svg width="16" height="16" viewBox="0 0 16 16" fill="none" xmlns="http://www.w3.org/2000/svg">
<rect width="16" height="16" rx="3.22059" fill="#2B7A78"/>
<path d="M5.464 10V6.406H4.066V5.77H7.636V6.406H6.238V10H5.464ZM8.18284 10V5.77H10.0368C10.4968 5.77 10.8508 5.868 11.0988 6.064C11.3468 6.256 11.4708 6.524 11.4708 6.868C11.4708 7.124 11.3948 7.34 11.2428 7.516C11.0908 7.692 10.8808 7.81 10.6128 7.87V7.78C10.9208 7.824 11.1588 7.936 11.3268 8.116C11.4988 8.292 11.5848 8.526 11.5848 8.818C11.5848 9.194 11.4548 9.486 11.1948 9.694C10.9348 9.898 10.5728 10 10.1088 10H8.18284ZM8.92684 9.412H10.0188C10.2788 9.412 10.4808 9.364 10.6248 9.268C10.7688 9.168 10.8408 9.006 10.8408 8.782C10.8408 8.554 10.7688 8.392 10.6248 8.296C10.4808 8.196 10.2788 8.146 10.0188 8.146H8.92684V9.412ZM8.92684 7.564H9.90484C10.1808 7.564 10.3848 7.514 10.5168 7.414C10.6528 7.31 10.7208 7.158 10.7208 6.958C10.7208 6.758 10.6528 6.608 10.5168 6.508C10.3848 6.404 10.1808 6.352 9.90484 6.352H8.92684V7.564Z" fill="#FEFEFE"/>
</svg>
