<svg width="22" height="20" viewBox="0 0 22 20" fill="none" xmlns="http://www.w3.org/2000/svg">
<path d="M19.0402 4.81969L13.2802 0.789694C11.7102 -0.310306 9.30023 -0.250306 7.79023 0.919694L2.78023 4.82969C1.78023 5.60969 0.990234 7.20969 0.990234 8.46969V15.3697C0.990234 17.9197 3.06023 19.9997 5.61023 19.9997H16.3902C18.9402 19.9997 21.0102 17.9297 21.0102 15.3797V8.59969C21.0102 7.24969 20.1402 5.58969 19.0402 4.81969ZM11.7502 15.9997C11.7502 16.4097 11.4102 16.7497 11.0002 16.7497C10.5902 16.7497 10.2502 16.4097 10.2502 15.9997V12.9997C10.2502 12.5897 10.5902 12.2497 11.0002 12.2497C11.4102 12.2497 11.7502 12.5897 11.7502 12.9997V15.9997Z" fill="#272727"/>
</svg>
