<svg width="54" height="54" viewBox="0 0 54 54" fill="none" xmlns="http://www.w3.org/2000/svg">
<path d="M26.9987 0.333984C12.3054 0.333984 0.332031 12.3073 0.332031 27.0007C0.332031 41.694 12.3054 53.6673 26.9987 53.6673C41.692 53.6673 53.6654 41.694 53.6654 27.0007C53.6654 12.3073 41.692 0.333984 26.9987 0.333984ZM37.6654 29.0007H28.9987V37.6673C28.9987 38.7607 28.092 39.6673 26.9987 39.6673C25.9054 39.6673 24.9987 38.7607 24.9987 37.6673V29.0007H16.332C15.2387 29.0007 14.332 28.094 14.332 27.0007C14.332 25.9073 15.2387 25.0007 16.332 25.0007H24.9987V16.334C24.9987 15.2407 25.9054 14.334 26.9987 14.334C28.092 14.334 28.9987 15.2407 28.9987 16.334V25.0007H37.6654C38.7587 25.0007 39.6654 25.9073 39.6654 27.0007C39.6654 28.094 38.7587 29.0007 37.6654 29.0007Z" fill="#2B7A78"/>
</svg>
