<svg width="18" height="18" viewBox="0 0 18 18" fill="none" xmlns="http://www.w3.org/2000/svg">
<rect width="18" height="18" rx="9" fill="#2B7A78"/>
<path d="M5.29688 9.52803C5.29688 10.1118 5.77193 10.5869 6.3557 10.5869C6.63593 10.5869 6.88935 10.4757 7.07887 10.2974L9.19335 11.5059C9.18699 11.5518 9.17923 11.5977 9.17923 11.6457C9.17923 12.2294 9.65429 12.7045 10.2381 12.7045C10.8218 12.7045 11.2969 12.2294 11.2969 11.6457C11.2969 11.0619 10.8218 10.5869 10.2381 10.5869C9.95782 10.5869 9.7044 10.698 9.51488 10.8763L7.4004 9.66815C7.40676 9.62192 7.41452 9.57603 7.41452 9.52803C7.41452 9.48003 7.40676 9.43415 7.4004 9.38792L9.51488 8.1798C9.7044 8.35803 9.95782 8.46921 10.2381 8.46921C10.8218 8.46921 11.2969 7.99415 11.2969 7.41039C11.2969 6.82662 10.8218 6.35156 10.2381 6.35156C9.65429 6.35156 9.17923 6.82662 9.17923 7.41039C9.17923 7.45839 9.18699 7.50427 9.19335 7.5505L7.07887 8.75862C6.8837 8.57321 6.6249 8.46964 6.3557 8.46921C5.77193 8.46921 5.29688 8.94427 5.29688 9.52803Z" fill="#FEFEFE"/>
</svg>
