<svg width="72" height="73" viewBox="0 0 72 73" fill="none" xmlns="http://www.w3.org/2000/svg">
<g clip-path="url(#clip0_2958_10925)">
<circle cx="36" cy="40.0938" r="36" fill="#FEFEFE"/>
<g clip-path="url(#clip1_2958_10925)">
<circle cx="36.3158" cy="40.4095" r="27.2842" fill="white" stroke="#525252" stroke-width="6.06316"/>
<path d="M29.5848 52.2207V49.3407L36.6787 41.9436C37.568 41.014 38.2248 40.155 38.6493 39.3668C39.0737 38.5786 39.2859 37.7702 39.2859 36.9415C39.2859 35.9108 38.9625 35.1327 38.3158 34.6072C37.6691 34.0818 36.7293 33.819 35.4964 33.819C34.5061 33.819 33.5562 34.0009 32.6467 34.3647C31.7373 34.7083 30.848 35.254 29.979 36.0018L28.7057 33.0914C29.5747 32.3234 30.6459 31.707 31.9192 31.2422C33.2126 30.7773 34.5667 30.5449 35.9815 30.5449C38.2855 30.5449 40.0539 31.0603 41.2867 32.091C42.5196 33.1218 43.136 34.5971 43.136 36.5171C43.136 37.851 42.8227 39.1243 42.1962 40.3369C41.5697 41.5293 40.5996 42.7824 39.2859 44.0961L33.3743 50.0077V48.9769H43.9848V52.2207H29.5848Z" fill="#525252"/>
</g>
</g>
<defs>
<clipPath id="clip0_2958_10925">
<rect width="72" height="72" fill="white" transform="translate(0 0.09375)"/>
</clipPath>
<clipPath id="clip1_2958_10925">
<rect width="60.6316" height="60.6316" fill="white" transform="translate(6 10.0938)"/>
</clipPath>
</defs>
</svg>
