<svg width="72" height="73" viewBox="0 0 72 73" fill="none" xmlns="http://www.w3.org/2000/svg">
<g clip-path="url(#clip0_2958_6246)">
<circle cx="36" cy="40.0938" r="36" fill="#FEFEFE"/>
<g clip-path="url(#clip1_2958_6246)">
<circle cx="36.3158" cy="40.4095" r="27.2842" fill="white" stroke="#525252" stroke-width="6.06316"/>
<path d="M35.9815 52.5239C34.5061 52.5239 33.0914 52.3117 31.7373 51.8872C30.3832 51.4426 29.2716 50.8363 28.4025 50.0683L29.6758 47.1276C30.6257 47.8552 31.6059 48.3908 32.6164 48.7344C33.6472 49.078 34.7284 49.2498 35.8602 49.2498C37.2345 49.2498 38.2754 48.9769 38.9827 48.4312C39.6901 47.8855 40.0438 47.0872 40.0438 46.0363C40.0438 45.0258 39.6901 44.2679 38.9827 43.7626C38.2956 43.2371 37.2851 42.9744 35.9512 42.9744H32.4952V39.8519H35.6177C36.7697 39.8519 37.6893 39.5689 38.3764 39.003C39.0636 38.4371 39.4072 37.659 39.4072 36.6687C39.4072 35.739 39.0838 35.0316 38.4371 34.5466C37.8105 34.0615 36.9011 33.819 35.7086 33.819C33.5663 33.819 31.6766 34.5466 30.0396 36.0018L28.7663 33.0914C29.6354 32.283 30.7065 31.6565 31.9798 31.2119C33.2733 30.7672 34.6274 30.5449 36.0421 30.5449C38.2653 30.5449 40.0034 31.0502 41.2564 32.0607C42.5297 33.051 43.1663 34.4354 43.1663 36.214C43.1663 37.4872 42.8025 38.5887 42.075 39.5184C41.3676 40.4279 40.3874 41.0342 39.1343 41.3373V40.9735C40.6097 41.2161 41.7516 41.8224 42.56 42.7925C43.3886 43.7424 43.803 44.9348 43.803 46.3698C43.803 48.2695 43.1057 49.7752 41.7112 50.8868C40.3166 51.9782 38.4067 52.5239 35.9815 52.5239Z" fill="#525252"/>
</g>
</g>
<defs>
<clipPath id="clip0_2958_6246">
<rect width="72" height="72" fill="white" transform="translate(0 0.09375)"/>
</clipPath>
<clipPath id="clip1_2958_6246">
<rect width="60.6316" height="60.6316" fill="white" transform="translate(6 10.0938)"/>
</clipPath>
</defs>
</svg>
