<svg width="32" height="32" viewBox="0 0 32 32" fill="none" xmlns="http://www.w3.org/2000/svg">
<path d="M28.9992 7.94689C28.043 8.35939 27.0023 8.65626 25.9305 8.77189C27.0433 8.11075 27.8767 7.06626 28.2742 5.83439C27.2299 6.4556 26.0859 6.89121 24.893 7.12189C24.3944 6.58885 23.7913 6.1642 23.1214 5.87441C22.4515 5.58462 21.7291 5.4359 20.9992 5.43751C18.0461 5.43751 15.6711 7.83126 15.6711 10.7688C15.6711 11.1813 15.7211 11.5938 15.8023 11.9906C11.3805 11.7594 7.43672 9.64689 4.81484 6.41251C4.33711 7.2285 4.08676 8.15759 4.08984 9.10314C4.08984 10.9531 5.03047 12.5844 6.46484 13.5438C5.61954 13.5105 4.79404 13.2781 4.05547 12.8656V12.9313C4.05547 15.5219 5.88672 17.6688 8.32734 18.1625C7.86909 18.2815 7.39768 18.3424 6.92422 18.3438C6.57734 18.3438 6.24922 18.3094 5.91797 18.2625C6.59297 20.375 8.55859 21.9094 10.8992 21.9594C9.06797 23.3938 6.77422 24.2375 4.28359 24.2375C3.83672 24.2375 3.42422 24.2219 2.99609 24.1719C5.35859 25.6875 8.16172 26.5625 11.1805 26.5625C20.9805 26.5625 26.343 18.4438 26.343 11.3969C26.343 11.1656 26.343 10.9344 26.3273 10.7031C27.3648 9.94376 28.2742 9.00314 28.9992 7.94689Z" fill="#FEFEFE"/>
</svg>
