<svg width="21" height="25" viewBox="0 0 21 25" fill="none" xmlns="http://www.w3.org/2000/svg">
<path d="M17.1815 23.04C15.8807 24.3023 14.4455 24.1057 13.0775 23.5103C11.6231 22.9032 10.2935 22.8648 8.75747 23.5103C6.84467 24.336 5.82947 24.096 4.67747 23.04C-1.82653 16.344 -0.866535 6.144 6.52547 5.76C8.31827 5.856 9.57347 6.7512 10.6295 6.8256C12.1991 6.5064 13.7015 5.592 15.3815 5.712C17.3998 5.8752 18.9095 6.672 19.9175 8.1048C15.7655 10.6008 16.7495 16.0728 20.5631 17.6088C19.7998 19.6128 18.8206 21.5928 17.1791 23.0568L17.1815 23.04ZM10.4855 5.688C10.2911 2.712 12.7031 0.264002 15.4775 0.0240021C15.8591 3.456 12.3575 6.024 10.4855 5.688Z" fill="#423E3E"/>
</svg>
