<svg width="21" height="25" viewBox="0 0 21 25" fill="none" xmlns="http://www.w3.org/2000/svg">
<path d="M17.1815 23.0401C15.8807 24.3024 14.4455 24.1057 13.0775 23.5104C11.6231 22.9032 10.2935 22.8649 8.75747 23.5104C6.84467 24.336 5.82947 24.0961 4.67747 23.0401C-1.82653 16.344 -0.866535 6.14405 6.52547 5.76005C8.31827 5.85605 9.57347 6.75125 10.6295 6.82565C12.1991 6.50645 13.7015 5.59205 15.3815 5.71205C17.3998 5.87525 18.9095 6.67205 19.9175 8.10485C15.7655 10.6008 16.7495 16.0728 20.5631 17.6089C19.7998 19.6129 18.8206 21.5929 17.1791 23.0569L17.1815 23.0401ZM10.4855 5.68805C10.2911 2.71205 12.7031 0.264048 15.4775 0.0240479C15.8591 3.45605 12.3575 6.02405 10.4855 5.68805Z" fill="#423E3E"/>
</svg>
