<svg width="20" height="20" viewBox="0 0 20 20" fill="none" xmlns="http://www.w3.org/2000/svg">
<path d="M10.0013 1.66602C5.40964 1.66602 1.66797 5.40768 1.66797 9.99935C1.66797 14.591 5.40964 18.3327 10.0013 18.3327C14.593 18.3327 18.3346 14.591 18.3346 9.99935C18.3346 5.40768 14.593 1.66602 10.0013 1.66602ZM11.493 12.4993C11.7346 12.741 11.7346 13.141 11.493 13.3827C11.368 13.5077 11.2096 13.566 11.0513 13.566C10.893 13.566 10.7346 13.5077 10.6096 13.3827L7.66797 10.441C7.4263 10.1993 7.4263 9.79935 7.66797 9.55768L10.6096 6.61602C10.8513 6.37435 11.2513 6.37435 11.493 6.61602C11.7346 6.85768 11.7346 7.25768 11.493 7.49935L8.99297 9.99935L11.493 12.4993Z" fill="#2B7A78"/>
</svg>
