<svg width="360" height="352" viewBox="0 0 360 352" fill="none" xmlns="http://www.w3.org/2000/svg">
<path d="M196.621 351.495C286.853 351.495 360 346.608 360 340.58C360 334.552 286.853 329.665 196.621 329.665C106.389 329.665 33.2412 334.552 33.2412 340.58C33.2412 346.608 106.389 351.495 196.621 351.495Z" fill="#CDEADD"/>
<path opacity="0.5" d="M196.621 351.495C286.853 351.495 360 346.608 360 340.58C360 334.552 286.853 329.665 196.621 329.665C106.389 329.665 33.2412 334.552 33.2412 340.58C33.2412 346.608 106.389 351.495 196.621 351.495Z" fill="white"/>
<path d="M158.918 49.6557H143.279V53.068V73.1083V76.5207H176.447V53.068H160.03L158.918 49.6557Z" fill="#CDEADD"/>
<path d="M158.918 100.785H143.279V104.197V124.237V127.65H176.447V104.197H160.03L158.918 100.785Z" fill="#CDEADD"/>
<path d="M158.918 151.914H143.279V155.326V175.366V178.779H176.447V155.326H160.03L158.918 151.914Z" fill="#CDEADD"/>
<path d="M158.918 203.043H143.279V206.455V226.496V229.908H176.447V206.455H160.03L158.918 203.043Z" fill="#CDEADD"/>
<path d="M158.918 254.172H143.279V257.584V277.625V281.037H176.447V257.584H160.03L158.918 254.172Z" fill="#CDEADD"/>
<path d="M259.131 49.6557H243.503V53.068V73.1083V76.5207H276.659V53.068H260.242L259.131 49.6557Z" fill="#CDEADD"/>
<path d="M324.154 53.068L323.043 49.6557H307.415V53.068V73.1083V76.5207H340.571V53.068H324.154Z" fill="#CDEADD"/>
<path d="M259.131 100.785H243.503V104.197V124.237V127.65H276.659V104.197H260.242L259.131 100.785Z" fill="#CDEADD"/>
<path d="M323.043 151.914H307.415V155.326V175.366V178.779H340.571V155.326H324.154L323.043 151.914Z" fill="#CDEADD"/>
<path d="M323.043 100.785H307.415V104.197V124.237V127.65H340.571V104.197H324.154L323.043 100.785Z" fill="#CDEADD"/>
<path d="M259.131 151.914H243.503V155.326V175.366V178.779H276.659V155.326H260.242L259.131 151.914Z" fill="#CDEADD"/>
<path d="M259.131 203.043H243.503V206.455V226.496V229.908H276.659V206.455H260.242L259.131 203.043Z" fill="#CDEADD"/>
<path d="M323.043 203.043H307.415V206.455V226.496V229.908H340.571V206.455H324.154L323.043 203.043Z" fill="#CDEADD"/>
<path d="M259.131 254.172H243.503V257.584V277.625V281.037H276.659V257.584H260.242L259.131 254.172Z" fill="#CDEADD"/>
<path d="M323.043 254.172H307.415V257.584V277.625V281.037H340.571V257.584H324.154L323.043 254.172Z" fill="#CDEADD"/>
<g opacity="0.5">
<path d="M158.918 49.6558H143.279V53.0682V73.1085V76.5208H176.447V53.0682H160.03L158.918 49.6558Z" fill="white"/>
<path d="M158.918 100.785H143.279V104.197V124.237V127.65H176.447V104.197H160.03L158.918 100.785Z" fill="white"/>
<path d="M158.918 151.914H143.279V155.326V175.366V178.779H176.447V155.326H160.03L158.918 151.914Z" fill="white"/>
<path d="M158.918 203.043H143.279V206.455V226.496V229.908H176.447V206.455H160.03L158.918 203.043Z" fill="white"/>
<path d="M158.918 254.172H143.279V257.584V277.625V281.037H176.447V257.584H160.03L158.918 254.172Z" fill="white"/>
<path d="M259.132 49.6557H243.504V53.068V73.1084V76.5207H276.66V53.068H260.243L259.132 49.6557Z" fill="white"/>
<path d="M324.154 53.068L323.043 49.6557H307.415V53.068V73.1084V76.5207H340.571V53.068H324.154Z" fill="white"/>
<path d="M259.132 100.785H243.504V104.197V124.237V127.65H276.66V104.197H260.243L259.132 100.785Z" fill="white"/>
<path d="M323.043 151.914H307.415V155.326V175.366V178.779H340.571V155.326H324.154L323.043 151.914Z" fill="white"/>
<path d="M323.043 100.785H307.415V104.197V124.237V127.65H340.571V104.197H324.154L323.043 100.785Z" fill="white"/>
<path d="M259.132 151.914H243.504V155.326V175.366V178.779H276.66V155.326H260.243L259.132 151.914Z" fill="white"/>
<path d="M259.132 203.043H243.504V206.455V226.496V229.908H276.66V206.455H260.243L259.132 203.043Z" fill="white"/>
<path d="M323.043 203.043H307.415V206.455V226.496V229.908H340.571V206.455H324.154L323.043 203.043Z" fill="white"/>
<path d="M259.132 254.172H243.504V257.584V277.625V281.037H276.66V257.584H260.243L259.132 254.172Z" fill="white"/>
<path d="M323.043 254.172H307.415V257.584V277.625V281.037H340.571V257.584H324.154L323.043 254.172Z" fill="white"/>
</g>
<path d="M71.1428 126.083C71.1428 126.083 70.1425 132.941 73.4548 137.631C76.767 142.322 100.931 161.973 103.087 163.107C105.244 164.241 114.514 161.817 111.713 154.326C108.912 146.834 88.5601 130.984 84.4808 126.694C80.4016 122.404 76.6003 123.026 76.6003 123.026" fill="#CDEADD"/>
<path d="M71.1428 126.083C71.1428 126.083 70.1425 132.941 73.4548 137.631C76.767 142.322 100.931 161.973 103.087 163.107C105.244 164.241 114.514 161.817 111.713 154.326C108.912 146.834 88.5601 130.984 84.4808 126.694C80.4016 122.404 76.6003 123.026 76.6003 123.026" stroke="#263238" stroke-miterlimit="10"/>
<path d="M108.1 151.091C108.1 151.091 112.735 151.414 121.338 151.091C129.941 150.769 151.46 152.081 154.772 152.081H158.106L157.784 159.694C157.784 159.694 141.556 161.017 130.308 162.673C119.059 164.329 109.789 166.319 100.52 161.684" fill="#CDEADD"/>
<path d="M108.1 151.091C108.1 151.091 112.735 151.414 121.338 151.091C129.941 150.769 151.46 152.081 154.772 152.081H158.106L157.784 159.694C157.784 159.694 141.556 161.017 130.308 162.673C119.059 164.329 109.789 166.319 100.52 161.684" stroke="#263238" stroke-linecap="round" stroke-linejoin="round"/>
<path d="M158.073 152.081L158.651 150.736C159.566 148.599 161.119 146.798 163.097 145.578C164.84 145.068 166.505 144.32 168.043 143.355L168.321 143.189C168.321 143.189 170.389 143.789 169.177 145.412C168.872 145.884 168.449 146.267 167.95 146.525C167.451 146.782 166.893 146.904 166.332 146.879L164.675 149.524L176.068 150.447C176.068 150.447 177.713 151.102 176.391 152.092C175.068 153.081 168.61 152.836 168.61 152.836L176.824 154.281C176.824 154.281 177.758 155.215 177.358 156.004C176.958 156.793 168.343 155.737 168.343 155.737L175.635 157.727C175.932 157.952 176.145 158.271 176.239 158.632C176.334 158.992 176.305 159.374 176.157 159.717C175.902 160.383 174.312 160.117 173.645 159.85C172.978 159.583 168.21 158.794 168.21 158.794L173.512 161.706C173.46 162.021 173.331 162.319 173.137 162.572C172.943 162.826 172.69 163.029 172.4 163.162C171.619 163.38 170.792 163.38 170.011 163.162L163.119 160.384C163.119 160.384 162.753 161.306 157.64 159.783L158.073 152.081Z" fill="white" stroke="#263238" stroke-linecap="round" stroke-linejoin="round"/>
<path d="M164.697 149.435C164.697 149.435 165.353 154.326 162.83 155.26L164.697 149.435Z" fill="white"/>
<path d="M164.697 149.435C164.697 149.435 165.353 154.326 162.83 155.26" stroke="#263238" stroke-linecap="round" stroke-linejoin="round"/>
<path d="M226.919 136.797L226.63 135.364C226.161 133.081 224.996 131 223.296 129.406C221.693 128.535 220.216 127.451 218.906 126.183L218.683 125.96C218.683 125.96 216.527 126.127 217.405 127.917C217.604 128.441 217.938 128.903 218.373 129.256C218.809 129.609 219.33 129.841 219.884 129.928L220.995 132.863L209.658 131.44C209.658 131.44 207.902 131.751 209.002 132.985C210.102 134.219 216.438 135.286 216.438 135.286L208.102 135.041C208.102 135.041 206.99 135.753 207.224 136.62C207.457 137.487 216.116 138.198 216.116 138.198L208.58 138.654C208.243 138.812 207.968 139.079 207.799 139.411C207.63 139.743 207.576 140.122 207.646 140.488C207.779 141.199 209.391 141.255 210.091 141.132C210.792 141.01 215.649 141.21 215.649 141.21L209.858 142.977C209.843 143.291 209.902 143.604 210.032 143.89C210.161 144.176 210.357 144.427 210.603 144.622C211.322 144.995 212.129 145.164 212.937 145.111L220.25 143.789C220.25 143.789 220.428 144.767 225.741 144.322L226.919 136.797Z" fill="white" stroke="#263238" stroke-linecap="round" stroke-linejoin="round"/>
<path d="M220.973 132.863C220.973 132.863 219.339 137.52 221.606 138.943L220.973 132.863Z" fill="white"/>
<path d="M220.973 132.863C220.973 132.863 219.339 137.52 221.606 138.943" stroke="#263238" stroke-linecap="round" stroke-linejoin="round"/>
<path d="M228.798 180.902H165.665V96.35H210.003L228.798 113.567V180.902Z" fill="white" stroke="#263238" stroke-linecap="round" stroke-linejoin="round"/>
<path d="M210.003 96.35V113.567H228.798L210.003 96.35Z" fill="#263238" stroke="#263238" stroke-linecap="round" stroke-linejoin="round"/>
<path d="M235.29 181.701C241.762 174.853 241.457 164.054 234.608 157.582C227.759 151.11 216.961 151.416 210.489 158.264C204.017 165.113 204.322 175.912 211.171 182.383C218.02 188.855 228.818 188.55 235.29 181.701Z" fill="#263238"/>
<path d="M232.077 168.008H224.852V160.795H220.918V168.008H213.704V171.954H220.918V179.168H224.852V171.954H232.077V168.008Z" fill="white"/>
<path d="M259.72 276.724H138.244L124.239 183.103H259.72V276.724Z" fill="#263238" stroke="#263238" stroke-linecap="round" stroke-linejoin="round"/>
<path d="M196.42 183.103L194.597 177.856C194.108 176.451 193.194 175.232 191.981 174.37C190.768 173.507 189.317 173.044 187.828 173.043H138.678V276.724H260.165L274.159 183.103H196.42Z" fill="#81CCAA" stroke="#263238" stroke-linecap="round" stroke-linejoin="round"/>
<path d="M63.6623 321.852C63.6623 321.852 66.3632 327.909 69.0531 329.932C71.7429 331.955 76.8336 331.622 77.4783 334.99C78.1229 338.357 75.4553 338.691 73.0989 338.691C70.7425 338.691 63.3288 338.691 61.9839 338.357C57.7362 336.867 53.7548 334.705 50.1909 331.955C46.1562 328.621 45.1447 328.921 48.1791 322.518C51.2135 316.116 63.6623 321.852 63.6623 321.852Z" fill="#CDEADD" stroke="#263238" stroke-miterlimit="10"/>
<path d="M77.5672 335.634C74.2994 336.212 67.8972 337.001 62.2618 335.634C56.6265 334.267 49.9686 329.198 46.6008 326.42C45.9005 329.043 47.2232 329.521 50.1909 331.977C53.7586 334.708 57.7398 336.85 61.984 338.324C63.3289 338.657 70.7426 338.657 73.099 338.657C75.4554 338.657 77.7784 338.39 77.5672 335.634Z" fill="white" stroke="#263238" stroke-miterlimit="10"/>
<path d="M73.7656 211.835C73.7656 211.835 69.1418 250.626 65.4405 260.397C61.7392 270.167 56.1594 276.347 54.8145 283.738C53.4696 291.13 48.1455 322.507 48.1455 322.507C48.1455 322.507 51.48 325.842 53.8697 325.542C56.2595 325.241 63.2953 326.22 65.3182 322.507C67.3411 318.795 67.8413 312.793 68.1748 311.781C68.5082 310.77 82.6243 283.46 86.0366 272.679C89.4489 261.897 100.253 217.37 99.9192 211.979" fill="#263238"/>
<path d="M73.7656 211.835C73.7656 211.835 69.1418 250.626 65.4405 260.397C61.7392 270.167 56.1594 276.347 54.8145 283.738C53.4696 291.13 48.1455 322.507 48.1455 322.507C48.1455 322.507 51.48 325.842 53.8697 325.542C56.2595 325.241 63.2953 326.22 65.3182 322.507C67.3411 318.795 67.8413 312.793 68.1748 311.781C68.5082 310.77 82.6243 283.46 86.0366 272.679C89.4489 261.897 100.253 217.37 99.9192 211.979" stroke="#263238" stroke-miterlimit="10"/>
<path d="M71.2981 185.226C71.2981 185.226 67.1745 197.352 68.7195 208.189C70.2644 219.026 82.402 224.45 90.9495 222.894C99.4969 221.338 101.787 215.414 101.787 205.11C101.759 198.734 101.317 192.367 100.464 186.048C90.9309 189.095 80.6443 188.805 71.2981 185.226Z" fill="#263238" stroke="#263238" stroke-miterlimit="10"/>
<path d="M74.1435 106.265C74.1435 106.265 66.363 120.714 65.885 132.318C65.4071 143.922 71.298 185.226 71.298 185.226C71.298 185.226 73.6211 189.872 84.7249 190.383C95.8288 190.894 100.464 187.049 100.464 187.049C100.464 187.049 104.332 160.728 104.332 146.79C104.332 132.852 93.4947 112.211 93.4947 112.211L74.1435 106.265Z" fill="#CDEADD" stroke="#263238" stroke-miterlimit="10"/>
<path d="M68.1641 138.398C68.1641 138.398 68.8421 146.568 78.7233 147.59" stroke="#263238" stroke-linecap="round" stroke-linejoin="round"/>
<path d="M70.8867 149.291C74.488 151.415 78.744 152.143 82.8465 151.336" stroke="#263238" stroke-linecap="round" stroke-linejoin="round"/>
<path d="M74.6328 185.715C74.6328 185.715 84.5029 177.212 89.6158 169.376" stroke="#263238" stroke-linecap="round" stroke-linejoin="round"/>
<path d="M88.5936 177.545C88.5936 177.545 80.0795 186.437 77.0117 187.426" stroke="#263238" stroke-linecap="round" stroke-linejoin="round"/>
<path d="M79.8121 87.1244C79.8121 87.1244 79.5565 94.3492 78.7896 99.2509C78.0226 104.153 77.7559 106.22 77.7559 106.22L91.9497 111.633C91.9497 111.633 90.6493 101.83 92.461 97.6948C93.4821 95.4873 94.1784 93.1437 94.5284 90.7368C94.5284 90.7368 89.8823 79.3773 84.9806 78.5992C80.0789 77.8212 79.8121 87.1244 79.8121 87.1244Z" fill="white" stroke="#263238" stroke-miterlimit="10"/>
<path d="M99.175 66.2617C99.175 66.2617 101.754 63.9386 98.3969 56.2582C95.0402 48.5777 78.7901 49.0334 71.0429 55.9914C63.2957 62.9494 60.717 75.3538 67.4305 83.3454C74.144 91.3371 82.1357 92.3819 87.3041 89.2809C92.4726 86.1798 92.9728 80.2555 92.9728 77.9324C92.9728 75.6094 91.1722 69.9296 93.7509 68.3846C95.4319 67.3876 97.2638 66.6706 99.175 66.2617Z" fill="#263238" stroke="#263238" stroke-miterlimit="10"/>
<path d="M72.5879 106.776L95.5626 116.068L94.2733 108.588L73.8772 100.062L72.5879 106.776Z" fill="white" stroke="#263238" stroke-miterlimit="10"/>
<path d="M102.065 330.944C102.065 330.944 108.8 334.989 112.502 336.668C116.203 338.346 116.548 338.013 116.548 340.369C116.548 342.725 116.881 343.07 110.812 343.07C104.743 343.07 87.2373 343.403 85.5589 342.059C83.8805 340.714 99.7083 329.932 102.065 330.944Z" fill="#CDEADD" stroke="#263238" stroke-miterlimit="10"/>
<path d="M110.812 343.07C116.492 343.07 116.558 342.77 116.547 340.847C99.2855 341.369 90.8714 340.714 86.7811 339.958C85.6696 340.991 85.1694 341.792 85.5585 342.103C87.2924 343.403 104.754 343.07 110.812 343.07Z" fill="white" stroke="#263238" stroke-miterlimit="10"/>
<path d="M98.4082 64.4501C98.4082 64.4501 86.2817 70.1298 86.2817 72.2306C86.2817 74.3313 91.439 75.0649 89.8941 77.6547C89.1596 78.9386 88.2875 80.1387 87.2931 81.2337C87.2931 81.2337 89.3494 84.8461 87.5488 85.3574C85.7482 85.8687 84.9701 85.8687 83.1028 83.29C81.2355 80.7113 79.4904 79.422 78.9791 83.8124C78.4678 88.2028 80.5241 88.9698 82.0691 89.2254C83.269 89.3681 84.4816 89.3681 85.6815 89.2254C85.6815 89.2254 88.2713 95.4165 90.0719 96.1945C91.8725 96.9726 100.653 98.0063 102.454 95.9389C104.255 93.8715 102.976 84.5793 102.976 84.5793C102.976 84.5793 105.555 84.0681 105.555 81.745C105.555 79.422 101.431 76.0652 101.431 76.0652C101.431 76.0652 102.454 74.5203 101.687 70.9079C101.106 68.5316 99.9835 66.3216 98.4082 64.4501Z" fill="white" stroke="#263238" stroke-miterlimit="10"/>
<path d="M98.7523 77.21C98.7523 78.0214 98.43 78.6883 98.0187 78.6883C97.6075 78.6883 97.2852 78.0214 97.2852 77.21C97.2852 76.3986 97.6075 75.7428 98.0187 75.7428C98.43 75.7428 98.7523 76.3986 98.7523 77.21Z" fill="#263238"/>
<path d="M95.4844 74.5757C95.4844 74.5757 95.8623 72.3527 99.2079 72.7862" stroke="#263238" stroke-linecap="round" stroke-linejoin="round"/>
<path d="M99.8529 87.936C98.6036 87.8275 97.4484 87.2279 96.6406 86.2688" stroke="#263238" stroke-linecap="round" stroke-linejoin="round"/>
<path d="M71.7314 212.502C71.7314 212.502 74.0878 235.743 77.1111 245.847C80.1344 255.95 80.1455 260.296 79.134 269.088C78.1226 277.88 74.7547 285.928 77.1111 294.008C79.4675 302.089 84.1914 336.668 84.1914 338.013C84.1914 339.357 83.8468 341.347 85.5363 342.058C87.2258 342.77 101.698 332.966 102.042 330.943C102.387 328.92 99.6857 322.863 99.6857 317.472C99.6857 312.081 101.364 280.537 101.364 265.387C101.364 250.237 103.054 221.26 97.6628 207.789" fill="#263238"/>
<path d="M71.7314 212.502C71.7314 212.502 74.0878 235.743 77.1111 245.847C80.1344 255.95 80.1455 260.296 79.134 269.088C78.1226 277.88 74.7547 285.928 77.1111 294.008C79.4675 302.089 84.1914 336.668 84.1914 338.013C84.1914 339.357 83.8468 341.347 85.5363 342.058C87.2258 342.77 101.698 332.966 102.042 330.943C102.387 328.92 99.6857 322.863 99.6857 317.472C99.6857 312.081 101.364 280.537 101.364 265.387C101.364 250.237 103.054 221.26 97.6628 207.789" stroke="#263238" stroke-miterlimit="10"/>
<path d="M73.666 227.174C73.666 227.174 75.2555 238.478 77.1339 245.847C79.0123 253.216 80.9352 256.673 78.6455 265.854C76.3558 275.035 75.5778 278.08 76.7226 282.704" stroke="white" stroke-linecap="round" stroke-linejoin="round"/>
<path d="M77.1336 120.225C77.1336 120.225 72.4209 126.961 73.4323 133.696C74.4438 140.432 89.6047 174.11 91.283 176.467C92.9614 178.823 104.076 181.191 105.088 171.754C106.099 162.317 92.9725 134.708 90.9496 127.972C88.9266 121.236 84.5473 119.891 84.5473 119.891" fill="#CDEADD"/>
<path d="M77.1336 120.225C77.1336 120.225 72.4209 126.961 73.4323 133.696C74.4438 140.432 89.6047 174.11 91.283 176.467C92.9614 178.823 104.076 181.191 105.088 171.754C106.099 162.317 92.9725 134.708 90.9496 127.972C88.9266 121.236 84.5473 119.891 84.5473 119.891" stroke="#263238" stroke-miterlimit="10"/>
<path d="M102.587 164.707C102.587 164.707 112.457 165.963 119.37 170.143C126.284 174.322 148.269 182.147 148.269 182.147L146.691 188.671C146.691 188.671 122.494 185.881 112.235 183.992C101.975 182.102 95.3176 181.202 91.5273 175.756" fill="#CDEADD"/>
<path d="M102.587 164.707C102.587 164.707 112.457 165.963 119.37 170.143C126.284 174.322 148.269 182.147 148.269 182.147L146.691 188.671C146.691 188.671 122.494 185.881 112.235 183.992C101.975 182.102 95.3176 181.202 91.5273 175.756" stroke="#263238" stroke-miterlimit="10"/>
<path d="M168.266 190.416L159.285 187.604L159.385 186.659C159.385 186.659 167.043 188.138 167.877 188.238C168.71 188.338 168.988 187.927 168.988 187.404C168.934 187.008 168.75 186.641 168.466 186.359L155.906 181.847L163.12 180.491C164.164 179.657 163.008 178.823 163.008 178.823L154.539 179.023L148.292 182.147L146.714 188.671C146.714 188.671 158.307 198.675 158.829 198.997C159.352 199.319 159.663 199.831 160.496 199.308C161.33 198.786 161.019 198.197 161.019 198.197L157.318 194.395L163.698 196.274C164.42 196.485 164.531 196.696 165.054 196.485C165.576 196.274 165.676 194.918 165.676 194.918L158.251 191.472L158.574 190.739C158.574 190.739 166.81 192.717 167.321 192.717C167.832 192.717 168.155 192.717 168.577 191.783C168.709 191.559 168.751 191.292 168.693 191.038C168.635 190.784 168.482 190.562 168.266 190.416Z" fill="white" stroke="#263238" stroke-linecap="round" stroke-linejoin="round"/>
</svg>
