<svg width="64" height="64" viewBox="0 0 64 64" fill="none" xmlns="http://www.w3.org/2000/svg">
<path d="M29.4666 39.8663L24.5333 44.7997C23.4932 45.8397 21.8399 45.8397 20.7733 44.8263C20.4799 44.533 20.1866 44.2663 19.8933 43.973C17.1466 41.1997 14.6666 38.293 12.4533 35.253C10.2666 32.213 8.50659 29.173 7.22659 26.1597C5.97325 23.1197 5.33325 20.213 5.33325 17.4397C5.33325 15.6263 5.65325 13.893 6.29325 12.293C6.93325 10.6663 7.94659 9.17301 9.35992 7.83967C11.0666 6.15967 12.9333 5.33301 14.9066 5.33301C15.6533 5.33301 16.3999 5.49301 17.0666 5.81301C17.7599 6.13301 18.3733 6.61301 18.8533 7.30634L25.0399 16.0263C25.5199 16.693 25.8666 17.3063 26.1066 17.893C26.3466 18.453 26.4799 19.013 26.4799 19.5197C26.4799 20.1597 26.2933 20.7997 25.9199 21.413C25.5733 22.0263 25.0666 22.6663 24.4266 23.3063L22.3999 25.413C22.1066 25.7063 21.9732 26.053 21.9732 26.4797C21.9732 26.693 21.9999 26.8797 22.0533 27.093C22.1333 27.3063 22.2133 27.4663 22.2666 27.6263C22.7466 28.5063 23.5732 29.653 24.7466 31.0397C25.9466 32.4263 27.2266 33.8397 28.6132 35.253C28.8799 35.5197 29.1733 35.7863 29.4399 36.053C30.5066 37.093 30.5333 38.7997 29.4666 39.8663Z" fill="#2B7A78"/>
<path d="M58.5868 48.8804C58.5868 49.6271 58.4534 50.4004 58.1868 51.1471C58.1068 51.3604 58.0268 51.5738 57.9201 51.7871C57.4668 52.7471 56.8801 53.6538 56.1068 54.5071C54.8001 55.9471 53.3601 56.9871 51.7334 57.6538C51.7068 57.6538 51.6801 57.6804 51.6534 57.6804C50.0801 58.3204 48.3734 58.6671 46.5334 58.6671C43.8134 58.6671 40.9068 58.0271 37.8401 56.7204C34.7734 55.4138 31.7068 53.6538 28.6668 51.4404C27.6268 50.6671 26.5868 49.8938 25.6001 49.0671L34.3201 40.3471C35.0668 40.9071 35.7334 41.3338 36.2934 41.6271C36.4268 41.6804 36.5868 41.7604 36.7734 41.8404C36.9868 41.9204 37.2001 41.9471 37.4401 41.9471C37.8934 41.9471 38.2401 41.7871 38.5334 41.4938L40.5601 39.4938C41.2268 38.8271 41.8668 38.3204 42.4801 38.0004C43.0934 37.6271 43.7068 37.4404 44.3734 37.4404C44.8801 37.4404 45.4134 37.5471 46.0001 37.7871C46.5868 38.0271 47.2001 38.3738 47.8668 38.8271L56.6934 45.0938C57.3868 45.5738 57.8668 46.1338 58.1601 46.8004C58.4268 47.4671 58.5868 48.1338 58.5868 48.8804Z" fill="#2B7A78"/>
</svg>
