<svg width="28" height="28" viewBox="0 0 28 28" fill="none" xmlns="http://www.w3.org/2000/svg">
<path d="M19.588 0.666016H8.41464C3.5613 0.666016 0.667969 3.55935 0.667969 8.41268V19.5727C0.667969 24.4394 3.5613 27.3327 8.41464 27.3327H19.5746C24.428 27.3327 27.3213 24.4394 27.3213 19.586V8.41268C27.3346 3.55935 24.4413 0.666016 19.588 0.666016ZM18.4813 17.066C18.868 17.4527 18.868 18.0927 18.4813 18.4793C18.2813 18.6793 18.028 18.7727 17.7746 18.7727C17.5213 18.7727 17.268 18.6793 17.068 18.4793L14.0013 15.4127L10.9346 18.4793C10.7346 18.6793 10.4813 18.7727 10.228 18.7727C9.97464 18.7727 9.7213 18.6793 9.5213 18.4793C9.13464 18.0927 9.13464 17.4527 9.5213 17.066L12.588 13.9993L9.5213 10.9327C9.13464 10.546 9.13464 9.90602 9.5213 9.51935C9.90797 9.13268 10.548 9.13268 10.9346 9.51935L14.0013 12.586L17.068 9.51935C17.4546 9.13268 18.0946 9.13268 18.4813 9.51935C18.868 9.90602 18.868 10.546 18.4813 10.9327L15.4146 13.9993L18.4813 17.066Z" fill="#B5261B"/>
</svg>
