<svg width="486" height="312" viewBox="0 0 486 312" fill="none" xmlns="http://www.w3.org/2000/svg">
<path d="M486 273.896H0V274.105H486V273.896Z" fill="#EBEBEB"/>
<path d="M437.303 287.338H405.11V287.547H437.303V287.338Z" fill="#EBEBEB"/>
<path d="M321.946 289.611H313.499V289.82H321.946V289.611Z" fill="#EBEBEB"/>
<path d="M404.138 279.584H385.486V279.793H404.138V279.584Z" fill="#EBEBEB"/>
<path d="M92.9717 280.988H50.991V281.197H92.9717V280.988Z" fill="#EBEBEB"/>
<path d="M107.785 280.988H101.632V281.197H107.785V280.988Z" fill="#EBEBEB"/>
<path d="M218.846 284.514H127.789V284.723H218.846V284.514Z" fill="#EBEBEB"/>
<path d="M230.364 236.635H42.6808C41.2105 236.633 39.8013 236.13 38.7625 235.235C37.7238 234.341 37.1404 233.129 37.1404 231.865V5.10355C37.1532 3.84708 37.7422 2.64569 38.7796 1.76033C39.817 0.874972 41.2189 0.377152 42.6808 0.375H230.364C231.836 0.375 233.248 0.877586 234.289 1.7722C235.33 2.6668 235.914 3.88015 235.914 5.14532V231.865C235.914 233.13 235.33 234.344 234.289 235.238C233.248 236.133 231.836 236.635 230.364 236.635ZM42.6808 0.542087C41.2749 0.5443 39.9275 1.02586 38.9344 1.88106C37.9412 2.73626 37.3834 3.89522 37.3834 5.10355V231.865C37.3834 233.073 37.9412 234.232 38.9344 235.088C39.9275 235.943 41.2749 236.424 42.6808 236.427H230.364C231.771 236.424 233.119 235.943 234.114 235.088C235.109 234.233 235.669 233.074 235.671 231.865V5.10355C235.669 3.89445 235.109 2.73551 234.114 1.88055C233.119 1.02559 231.771 0.544296 230.364 0.542087H42.6808Z" fill="#EBEBEB"/>
<path d="M440.617 236.635H252.924C251.453 236.633 250.043 236.13 249.002 235.236C247.962 234.342 247.377 233.13 247.374 231.865V5.10355C247.389 3.84632 247.981 2.64494 249.019 1.75981C250.058 0.87468 251.461 0.377129 252.924 0.375H440.617C442.078 0.379348 443.477 0.878139 444.512 1.76326C445.548 2.64839 446.135 3.84852 446.148 5.10355V231.865C446.148 233.127 445.566 234.338 444.529 235.232C443.493 236.126 442.086 236.631 440.617 236.635ZM252.924 0.542087C251.517 0.544296 250.169 1.02559 249.174 1.88055C248.18 2.73551 247.62 3.89445 247.617 5.10355V231.865C247.62 233.074 248.18 234.233 249.174 235.088C250.169 235.943 251.517 236.424 252.924 236.427H440.617C442.024 236.424 443.372 235.943 444.367 235.088C445.362 234.233 445.922 233.074 445.924 231.865V5.10355C445.922 3.89445 445.362 2.73551 444.367 1.88055C443.372 1.02559 442.024 0.544296 440.617 0.542087H252.924Z" fill="#EBEBEB"/>
<path d="M432.948 52.3223H197.452V247.429H432.948V52.3223Z" fill="#E0E0E0"/>
<path d="M432.948 55.8633H201.233V244.019H432.948V55.8633Z" fill="#F5F5F5"/>
<path d="M202.944 198.456V141.856H209.777V134.378L225.173 128.196V120.544H227.739V141.856H230.305V198.456H233.727V169.049H241.425V153.618H243.991V198.456H249.969V181.547H254.246V177.136H263.655V161.705H268.787V151.413H274.774V135.974H277.34V151.413H283.328V161.705H288.45V177.136H297.859V181.547H302.136V198.456H307.268V177.136H316.677V130.101H319.243V124.955H339.762V130.101H344.039V163.911H361.146V167.579H367.124V169.784H361.146V183.017H379.099V138.915H382.521V130.101H391.074V96.291H393.64V130.101H399.628V138.915H432.948V244.021H201.233V198.456H202.944Z" fill="#E6E6E6"/>
<path d="M415.141 141.221H412.721V143.301H415.141V141.221Z" fill="#F0F0F0"/>
<path d="M415.141 144.711H412.721V146.791H415.141V144.711Z" fill="#F0F0F0"/>
<path d="M415.141 158.682H412.721V160.762H415.141V158.682Z" fill="#F0F0F0"/>
<path d="M415.141 162.164H412.721V164.244H415.141V162.164Z" fill="#F0F0F0"/>
<path d="M415.141 165.658H412.721V167.738H415.141V165.658Z" fill="#F0F0F0"/>
<path d="M415.141 176.135H412.721V178.215H415.141V176.135Z" fill="#F0F0F0"/>
<path d="M415.141 179.625H412.721V181.705H415.141V179.625Z" fill="#F0F0F0"/>
<path d="M411.292 155.189H408.872V157.27H411.292V155.189Z" fill="#F0F0F0"/>
<path d="M411.292 158.682H408.872V160.762H411.292V158.682Z" fill="#F0F0F0"/>
<path d="M411.292 162.164H408.872V164.244H411.292V162.164Z" fill="#F0F0F0"/>
<path d="M411.292 165.658H408.872V167.738H411.292V165.658Z" fill="#F0F0F0"/>
<path d="M411.292 169.148H408.872V171.229H411.292V169.148Z" fill="#F0F0F0"/>
<path d="M411.292 176.135H408.872V178.215H411.292V176.135Z" fill="#F0F0F0"/>
<path d="M411.292 179.625H408.872V181.705H411.292V179.625Z" fill="#F0F0F0"/>
<path d="M407.443 141.221H405.022V143.301H407.443V141.221Z" fill="#F0F0F0"/>
<path d="M407.443 144.711H405.022V146.791H407.443V144.711Z" fill="#F0F0F0"/>
<path d="M407.443 148.207H405.022V150.287H407.443V148.207Z" fill="#F0F0F0"/>
<path d="M407.443 151.697H405.022V153.777H407.443V151.697Z" fill="#F0F0F0"/>
<path d="M407.443 155.189H405.022V157.27H407.443V155.189Z" fill="#F0F0F0"/>
<path d="M407.443 158.682H405.022V160.762H407.443V158.682Z" fill="#F0F0F0"/>
<path d="M407.443 162.164H405.022V164.244H407.443V162.164Z" fill="#F0F0F0"/>
<path d="M407.443 165.658H405.022V167.738H407.443V165.658Z" fill="#F0F0F0"/>
<path d="M407.443 169.148H405.022V171.229H407.443V169.148Z" fill="#F0F0F0"/>
<path d="M407.443 172.641H405.022V174.721H407.443V172.641Z" fill="#F0F0F0"/>
<path d="M407.443 179.625H405.022V181.705H407.443V179.625Z" fill="#F0F0F0"/>
<path d="M403.594 141.221H401.174V143.301H403.594V141.221Z" fill="#F0F0F0"/>
<path d="M403.594 144.711H401.174V146.791H403.594V144.711Z" fill="#F0F0F0"/>
<path d="M403.594 148.207H401.174V150.287H403.594V148.207Z" fill="#F0F0F0"/>
<path d="M403.594 151.697H401.174V153.777H403.594V151.697Z" fill="#F0F0F0"/>
<path d="M403.594 155.189H401.174V157.27H403.594V155.189Z" fill="#F0F0F0"/>
<path d="M403.594 158.682H401.174V160.762H403.594V158.682Z" fill="#F0F0F0"/>
<path d="M403.594 162.164H401.174V164.244H403.594V162.164Z" fill="#F0F0F0"/>
<path d="M403.594 193.594H401.174V195.674H403.594V193.594Z" fill="#F0F0F0"/>
<path d="M399.745 141.221H397.324V143.301H399.745V141.221Z" fill="#F0F0F0"/>
<path d="M399.745 144.711H397.324V146.791H399.745V144.711Z" fill="#F0F0F0"/>
<path d="M399.745 148.207H397.324V150.287H399.745V148.207Z" fill="#F0F0F0"/>
<path d="M399.745 151.697H397.324V153.777H399.745V151.697Z" fill="#F0F0F0"/>
<path d="M399.745 155.189H397.324V157.27H399.745V155.189Z" fill="#F0F0F0"/>
<path d="M399.745 158.682H397.324V160.762H399.745V158.682Z" fill="#F0F0F0"/>
<path d="M399.745 162.164H397.324V164.244H399.745V162.164Z" fill="#F0F0F0"/>
<path d="M399.745 165.658H397.324V167.738H399.745V165.658Z" fill="#F0F0F0"/>
<path d="M399.745 186.609H397.324V188.69H399.745V186.609Z" fill="#F0F0F0"/>
<path d="M399.745 190.1H397.324V192.18H399.745V190.1Z" fill="#F0F0F0"/>
<path d="M399.745 193.594H397.324V195.674H399.745V193.594Z" fill="#F0F0F0"/>
<path d="M399.745 197.076H397.324V199.156H399.745V197.076Z" fill="#F0F0F0"/>
<path d="M399.745 211.047H397.324V213.127H399.745V211.047Z" fill="#F0F0F0"/>
<path d="M395.895 141.221H393.475V143.301H395.895V141.221Z" fill="#F0F0F0"/>
<path d="M395.895 144.711H393.475V146.791H395.895V144.711Z" fill="#F0F0F0"/>
<path d="M395.895 148.207H393.475V150.287H395.895V148.207Z" fill="#F0F0F0"/>
<path d="M395.895 151.697H393.475V153.777H395.895V151.697Z" fill="#F0F0F0"/>
<path d="M395.895 155.189H393.475V157.27H395.895V155.189Z" fill="#F0F0F0"/>
<path d="M395.895 158.682H393.475V160.762H395.895V158.682Z" fill="#F0F0F0"/>
<path d="M395.895 162.164H393.475V164.244H395.895V162.164Z" fill="#F0F0F0"/>
<path d="M395.895 165.658H393.475V167.738H395.895V165.658Z" fill="#F0F0F0"/>
<path d="M395.895 169.148H393.475V171.229H395.895V169.148Z" fill="#F0F0F0"/>
<path d="M395.895 172.641H393.475V174.721H395.895V172.641Z" fill="#F0F0F0"/>
<path d="M395.895 183.119H393.475V185.199H395.895V183.119Z" fill="#F0F0F0"/>
<path d="M395.895 186.609H393.475V188.69H395.895V186.609Z" fill="#F0F0F0"/>
<path d="M395.895 190.1H393.475V192.18H395.895V190.1Z" fill="#F0F0F0"/>
<path d="M395.895 193.594H393.475V195.674H395.895V193.594Z" fill="#F0F0F0"/>
<path d="M395.895 197.076H393.475V199.156H395.895V197.076Z" fill="#F0F0F0"/>
<path d="M395.895 211.047H393.475V213.127H395.895V211.047Z" fill="#F0F0F0"/>
<path d="M392.046 141.221H389.626V143.301H392.046V141.221Z" fill="#F0F0F0"/>
<path d="M392.046 144.711H389.626V146.791H392.046V144.711Z" fill="#F0F0F0"/>
<path d="M392.046 148.207H389.626V150.287H392.046V148.207Z" fill="#F0F0F0"/>
<path d="M392.046 151.697H389.626V153.777H392.046V151.697Z" fill="#F0F0F0"/>
<path d="M392.046 155.189H389.626V157.27H392.046V155.189Z" fill="#F0F0F0"/>
<path d="M392.046 158.682H389.626V160.762H392.046V158.682Z" fill="#F0F0F0"/>
<path d="M392.046 162.164H389.626V164.244H392.046V162.164Z" fill="#F0F0F0"/>
<path d="M392.046 165.658H389.626V167.738H392.046V165.658Z" fill="#F0F0F0"/>
<path d="M392.046 169.148H389.626V171.229H392.046V169.148Z" fill="#F0F0F0"/>
<path d="M392.046 172.641H389.626V174.721H392.046V172.641Z" fill="#F0F0F0"/>
<path d="M392.046 176.135H389.626V178.215H392.046V176.135Z" fill="#F0F0F0"/>
<path d="M392.046 179.625H389.626V181.705H392.046V179.625Z" fill="#F0F0F0"/>
<path d="M392.046 183.119H389.626V185.199H392.046V183.119Z" fill="#F0F0F0"/>
<path d="M392.046 186.609H389.626V188.69H392.046V186.609Z" fill="#F0F0F0"/>
<path d="M392.046 190.1H389.626V192.18H392.046V190.1Z" fill="#F0F0F0"/>
<path d="M392.046 193.594H389.626V195.674H392.046V193.594Z" fill="#F0F0F0"/>
<path d="M392.046 197.076H389.626V199.156H392.046V197.076Z" fill="#F0F0F0"/>
<path d="M392.046 200.57H389.626V202.651H392.046V200.57Z" fill="#F0F0F0"/>
<path d="M388.197 141.221H385.777V143.301H388.197V141.221Z" fill="#F0F0F0"/>
<path d="M388.197 144.711H385.777V146.791H388.197V144.711Z" fill="#F0F0F0"/>
<path d="M388.197 148.207H385.777V150.287H388.197V148.207Z" fill="#F0F0F0"/>
<path d="M388.197 151.697H385.777V153.777H388.197V151.697Z" fill="#F0F0F0"/>
<path d="M388.197 155.189H385.777V157.27H388.197V155.189Z" fill="#F0F0F0"/>
<path d="M388.197 158.682H385.777V160.762H388.197V158.682Z" fill="#F0F0F0"/>
<path d="M388.197 162.164H385.777V164.244H388.197V162.164Z" fill="#F0F0F0"/>
<path d="M388.197 165.658H385.777V167.738H388.197V165.658Z" fill="#F0F0F0"/>
<path d="M388.197 169.148H385.777V171.229H388.197V169.148Z" fill="#F0F0F0"/>
<path d="M388.197 172.641H385.777V174.721H388.197V172.641Z" fill="#F0F0F0"/>
<path d="M388.197 183.119H385.777V185.199H388.197V183.119Z" fill="#F0F0F0"/>
<path d="M388.197 186.609H385.777V188.69H388.197V186.609Z" fill="#F0F0F0"/>
<path d="M388.197 190.1H385.777V192.18H388.197V190.1Z" fill="#F0F0F0"/>
<path d="M388.197 193.594H385.777V195.674H388.197V193.594Z" fill="#F0F0F0"/>
<path d="M384.358 141.221H381.938V143.301H384.358V141.221Z" fill="#F0F0F0"/>
<path d="M384.358 144.711H381.938V146.791H384.358V144.711Z" fill="#F0F0F0"/>
<path d="M384.358 148.207H381.938V150.287H384.358V148.207Z" fill="#F0F0F0"/>
<path d="M384.358 151.697H381.938V153.777H384.358V151.697Z" fill="#F0F0F0"/>
<path d="M384.358 155.189H381.938V157.27H384.358V155.189Z" fill="#F0F0F0"/>
<path d="M384.358 158.682H381.938V160.762H384.358V158.682Z" fill="#F0F0F0"/>
<path d="M384.358 162.164H381.938V164.244H384.358V162.164Z" fill="#F0F0F0"/>
<path d="M384.358 165.658H381.938V167.738H384.358V165.658Z" fill="#F0F0F0"/>
<path d="M384.358 169.148H381.938V171.229H384.358V169.148Z" fill="#F0F0F0"/>
<path d="M384.358 172.641H381.938V174.721H384.358V172.641Z" fill="#F0F0F0"/>
<path d="M384.358 183.119H381.938V185.199H384.358V183.119Z" fill="#F0F0F0"/>
<path d="M384.358 186.609H381.938V188.69H384.358V186.609Z" fill="#F0F0F0"/>
<path d="M384.358 190.1H381.938V192.18H384.358V190.1Z" fill="#F0F0F0"/>
<path d="M341.026 132.156H338.606V134.236H341.026V132.156Z" fill="#F0F0F0"/>
<path d="M341.026 135.65H338.606V137.731H341.026V135.65Z" fill="#F0F0F0"/>
<path d="M341.026 139.141H338.606V141.221H341.026V139.141Z" fill="#F0F0F0"/>
<path d="M341.026 142.633H338.606V144.713H341.026V142.633Z" fill="#F0F0F0"/>
<path d="M341.026 146.125H338.606V148.205H341.026V146.125Z" fill="#F0F0F0"/>
<path d="M341.026 149.617H338.606V151.697H341.026V149.617Z" fill="#F0F0F0"/>
<path d="M341.026 153.1H338.606V155.18H341.026V153.1Z" fill="#F0F0F0"/>
<path d="M341.026 156.594H338.606V158.674H341.026V156.594Z" fill="#F0F0F0"/>
<path d="M341.026 167.068H338.606V169.149H341.026V167.068Z" fill="#F0F0F0"/>
<path d="M341.026 170.561H338.606V172.641H341.026V170.561Z" fill="#F0F0F0"/>
<path d="M337.177 132.156H334.757V134.236H337.177V132.156Z" fill="#F0F0F0"/>
<path d="M337.177 135.65H334.757V137.731H337.177V135.65Z" fill="#F0F0F0"/>
<path d="M337.177 139.141H334.757V141.221H337.177V139.141Z" fill="#F0F0F0"/>
<path d="M337.177 142.633H334.757V144.713H337.177V142.633Z" fill="#F0F0F0"/>
<path d="M337.177 146.125H334.757V148.205H337.177V146.125Z" fill="#F0F0F0"/>
<path d="M337.177 149.617H334.757V151.697H337.177V149.617Z" fill="#F0F0F0"/>
<path d="M337.177 153.1H334.757V155.18H337.177V153.1Z" fill="#F0F0F0"/>
<path d="M337.177 156.594H334.757V158.674H337.177V156.594Z" fill="#F0F0F0"/>
<path d="M337.177 170.561H334.757V172.641H337.177V170.561Z" fill="#F0F0F0"/>
<path d="M333.328 132.156H330.908V134.236H333.328V132.156Z" fill="#F0F0F0"/>
<path d="M333.328 135.65H330.908V137.731H333.328V135.65Z" fill="#F0F0F0"/>
<path d="M333.328 139.141H330.908V141.221H333.328V139.141Z" fill="#F0F0F0"/>
<path d="M333.328 142.633H330.908V144.713H333.328V142.633Z" fill="#F0F0F0"/>
<path d="M333.328 146.125H330.908V148.205H333.328V146.125Z" fill="#F0F0F0"/>
<path d="M333.328 149.617H330.908V151.697H333.328V149.617Z" fill="#F0F0F0"/>
<path d="M333.328 153.1H330.908V155.18H333.328V153.1Z" fill="#F0F0F0"/>
<path d="M333.328 156.594H330.908V158.674H333.328V156.594Z" fill="#F0F0F0"/>
<path d="M329.479 132.156H327.058V134.236H329.479V132.156Z" fill="#F0F0F0"/>
<path d="M329.479 135.65H327.058V137.731H329.479V135.65Z" fill="#F0F0F0"/>
<path d="M329.479 139.141H327.058V141.221H329.479V139.141Z" fill="#F0F0F0"/>
<path d="M329.479 142.633H327.058V144.713H329.479V142.633Z" fill="#F0F0F0"/>
<path d="M329.479 146.125H327.058V148.205H329.479V146.125Z" fill="#F0F0F0"/>
<path d="M329.479 149.617H327.058V151.697H329.479V149.617Z" fill="#F0F0F0"/>
<path d="M329.479 156.594H327.058V158.674H329.479V156.594Z" fill="#F0F0F0"/>
<path d="M329.479 160.086H327.058V162.166H329.479V160.086Z" fill="#F0F0F0"/>
<path d="M329.479 170.561H327.058V172.641H329.479V170.561Z" fill="#F0F0F0"/>
<path d="M329.479 174.053H327.058V176.133H329.479V174.053Z" fill="#F0F0F0"/>
<path d="M329.479 177.547H327.058V179.627H329.479V177.547Z" fill="#F0F0F0"/>
<path d="M329.479 181.037H327.058V183.117H329.479V181.037Z" fill="#F0F0F0"/>
<path d="M329.479 184.529H327.058V186.61H329.479V184.529Z" fill="#F0F0F0"/>
<path d="M329.479 188.014H327.058V190.094H329.479V188.014Z" fill="#F0F0F0"/>
<path d="M329.479 191.506H327.058V193.586H329.479V191.506Z" fill="#F0F0F0"/>
<path d="M325.63 132.156H323.209V134.236H325.63V132.156Z" fill="#F0F0F0"/>
<path d="M325.63 135.65H323.209V137.731H325.63V135.65Z" fill="#F0F0F0"/>
<path d="M325.63 139.141H323.209V141.221H325.63V139.141Z" fill="#F0F0F0"/>
<path d="M325.63 142.633H323.209V144.713H325.63V142.633Z" fill="#F0F0F0"/>
<path d="M325.63 146.125H323.209V148.205H325.63V146.125Z" fill="#F0F0F0"/>
<path d="M325.63 149.617H323.209V151.697H325.63V149.617Z" fill="#F0F0F0"/>
<path d="M325.63 160.086H323.209V162.166H325.63V160.086Z" fill="#F0F0F0"/>
<path d="M325.63 163.576H323.209V165.656H325.63V163.576Z" fill="#F0F0F0"/>
<path d="M325.63 167.068H323.209V169.149H325.63V167.068Z" fill="#F0F0F0"/>
<path d="M325.63 170.561H323.209V172.641H325.63V170.561Z" fill="#F0F0F0"/>
<path d="M325.63 174.053H323.209V176.133H325.63V174.053Z" fill="#F0F0F0"/>
<path d="M325.63 177.547H323.209V179.627H325.63V177.547Z" fill="#F0F0F0"/>
<path d="M325.63 181.037H323.209V183.117H325.63V181.037Z" fill="#F0F0F0"/>
<path d="M325.63 184.529H323.209V186.61H325.63V184.529Z" fill="#F0F0F0"/>
<path d="M325.63 188.014H323.209V190.094H325.63V188.014Z" fill="#F0F0F0"/>
<path d="M325.63 191.506H323.209V193.586H325.63V191.506Z" fill="#F0F0F0"/>
<path d="M325.63 194.998H323.209V197.078H325.63V194.998Z" fill="#F0F0F0"/>
<path d="M325.63 201.98H323.209V204.061H325.63V201.98Z" fill="#F0F0F0"/>
<path d="M321.781 132.156H319.36V134.236H321.781V132.156Z" fill="#F0F0F0"/>
<path d="M321.781 135.65H319.36V137.731H321.781V135.65Z" fill="#F0F0F0"/>
<path d="M321.781 139.141H319.36V141.221H321.781V139.141Z" fill="#F0F0F0"/>
<path d="M321.781 142.633H319.36V144.713H321.781V142.633Z" fill="#F0F0F0"/>
<path d="M321.781 146.125H319.36V148.205H321.781V146.125Z" fill="#F0F0F0"/>
<path d="M321.781 149.617H319.36V151.697H321.781V149.617Z" fill="#F0F0F0"/>
<path d="M321.781 160.086H319.36V162.166H321.781V160.086Z" fill="#F0F0F0"/>
<path d="M321.781 163.576H319.36V165.656H321.781V163.576Z" fill="#F0F0F0"/>
<path d="M321.781 167.068H319.36V169.149H321.781V167.068Z" fill="#F0F0F0"/>
<path d="M321.781 170.561H319.36V172.641H321.781V170.561Z" fill="#F0F0F0"/>
<path d="M321.781 181.037H319.36V183.117H321.781V181.037Z" fill="#F0F0F0"/>
<path d="M321.781 184.529H319.36V186.61H321.781V184.529Z" fill="#F0F0F0"/>
<path d="M321.781 188.014H319.36V190.094H321.781V188.014Z" fill="#F0F0F0"/>
<path d="M321.781 191.506H319.36V193.586H321.781V191.506Z" fill="#F0F0F0"/>
<path d="M321.781 194.998H319.36V197.078H321.781V194.998Z" fill="#F0F0F0"/>
<path d="M321.781 201.98H319.36V204.061H321.781V201.98Z" fill="#F0F0F0"/>
<path d="M321.781 205.475H319.36V207.555H321.781V205.475Z" fill="#F0F0F0"/>
<path d="M286.867 164.621H284.446V166.701H286.867V164.621Z" fill="#F0F0F0"/>
<path d="M286.867 168.113H284.446V170.194H286.867V168.113Z" fill="#F0F0F0"/>
<path d="M286.867 171.605H284.446V173.686H286.867V171.605Z" fill="#F0F0F0"/>
<path d="M286.867 175.088H284.446V177.168H286.867V175.088Z" fill="#F0F0F0"/>
<path d="M286.867 178.582H284.446V180.662H286.867V178.582Z" fill="#F0F0F0"/>
<path d="M286.867 182.074H284.446V184.154H286.867V182.074Z" fill="#F0F0F0"/>
<path d="M286.867 185.566H284.446V187.647H286.867V185.566Z" fill="#F0F0F0"/>
<path d="M286.867 196.039H284.446V198.119H286.867V196.039Z" fill="#F0F0F0"/>
<path d="M286.867 199.535H284.446V201.615H286.867V199.535Z" fill="#F0F0F0"/>
<path d="M286.867 203.025H284.446V205.106H286.867V203.025Z" fill="#F0F0F0"/>
<path d="M283.017 164.621H280.597V166.701H283.017V164.621Z" fill="#F0F0F0"/>
<path d="M283.017 168.113H280.597V170.194H283.017V168.113Z" fill="#F0F0F0"/>
<path d="M283.017 171.605H280.597V173.686H283.017V171.605Z" fill="#F0F0F0"/>
<path d="M283.017 175.088H280.597V177.168H283.017V175.088Z" fill="#F0F0F0"/>
<path d="M283.017 178.582H280.597V180.662H283.017V178.582Z" fill="#F0F0F0"/>
<path d="M283.017 182.074H280.597V184.154H283.017V182.074Z" fill="#F0F0F0"/>
<path d="M283.017 185.566H280.597V187.647H283.017V185.566Z" fill="#F0F0F0"/>
<path d="M279.168 164.621H276.748V166.701H279.168V164.621Z" fill="#F0F0F0"/>
<path d="M279.168 168.113H276.748V170.194H279.168V168.113Z" fill="#F0F0F0"/>
<path d="M279.168 171.605H276.748V173.686H279.168V171.605Z" fill="#F0F0F0"/>
<path d="M279.168 175.088H276.748V177.168H279.168V175.088Z" fill="#F0F0F0"/>
<path d="M279.168 178.582H276.748V180.662H279.168V178.582Z" fill="#F0F0F0"/>
<path d="M279.168 182.074H276.748V184.154H279.168V182.074Z" fill="#F0F0F0"/>
<path d="M279.168 185.566H276.748V187.647H279.168V185.566Z" fill="#F0F0F0"/>
<path d="M275.319 164.621H272.899V166.701H275.319V164.621Z" fill="#F0F0F0"/>
<path d="M275.319 168.113H272.899V170.194H275.319V168.113Z" fill="#F0F0F0"/>
<path d="M275.319 171.605H272.899V173.686H275.319V171.605Z" fill="#F0F0F0"/>
<path d="M275.319 175.088H272.899V177.168H275.319V175.088Z" fill="#F0F0F0"/>
<path d="M275.319 178.582H272.899V180.662H275.319V178.582Z" fill="#F0F0F0"/>
<path d="M275.319 182.074H272.899V184.154H275.319V182.074Z" fill="#F0F0F0"/>
<path d="M275.319 185.566H272.899V187.647H275.319V185.566Z" fill="#F0F0F0"/>
<path d="M275.319 189.057H272.899V191.137H275.319V189.057Z" fill="#F0F0F0"/>
<path d="M275.319 192.551H272.899V194.631H275.319V192.551Z" fill="#F0F0F0"/>
<path d="M275.319 196.039H272.899V198.119H275.319V196.039Z" fill="#F0F0F0"/>
<path d="M275.319 199.535H272.899V201.615H275.319V199.535Z" fill="#F0F0F0"/>
<path d="M271.47 164.621H269.05V166.701H271.47V164.621Z" fill="#F0F0F0"/>
<path d="M271.47 168.113H269.05V170.194H271.47V168.113Z" fill="#F0F0F0"/>
<path d="M271.47 171.605H269.05V173.686H271.47V171.605Z" fill="#F0F0F0"/>
<path d="M271.47 175.088H269.05V177.168H271.47V175.088Z" fill="#F0F0F0"/>
<path d="M271.47 178.582H269.05V180.662H271.47V178.582Z" fill="#F0F0F0"/>
<path d="M271.47 182.074H269.05V184.154H271.47V182.074Z" fill="#F0F0F0"/>
<path d="M271.47 185.566H269.05V187.647H271.47V185.566Z" fill="#F0F0F0"/>
<path d="M271.47 189.057H269.05V191.137H271.47V189.057Z" fill="#F0F0F0"/>
<path d="M271.47 192.551H269.05V194.631H271.47V192.551Z" fill="#F0F0F0"/>
<path d="M271.47 196.039H269.05V198.119H271.47V196.039Z" fill="#F0F0F0"/>
<path d="M271.47 199.535H269.05V201.615H271.47V199.535Z" fill="#F0F0F0"/>
<path d="M271.47 203.025H269.05V205.106H271.47V203.025Z" fill="#F0F0F0"/>
<path d="M271.47 213.494H269.05V215.574H271.47V213.494Z" fill="#F0F0F0"/>
<path d="M271.47 216.986H269.05V219.067H271.47V216.986Z" fill="#F0F0F0"/>
<path d="M267.62 164.621H265.2V166.701H267.62V164.621Z" fill="#F0F0F0"/>
<path d="M267.62 168.113H265.2V170.194H267.62V168.113Z" fill="#F0F0F0"/>
<path d="M267.62 171.605H265.2V173.686H267.62V171.605Z" fill="#F0F0F0"/>
<path d="M267.62 182.074H265.2V184.154H267.62V182.074Z" fill="#F0F0F0"/>
<path d="M267.62 185.566H265.2V187.647H267.62V185.566Z" fill="#F0F0F0"/>
<path d="M267.62 189.057H265.2V191.137H267.62V189.057Z" fill="#F0F0F0"/>
<path d="M267.62 192.551H265.2V194.631H267.62V192.551Z" fill="#F0F0F0"/>
<path d="M267.62 196.039H265.2V198.119H267.62V196.039Z" fill="#F0F0F0"/>
<path d="M267.62 199.535H265.2V201.615H267.62V199.535Z" fill="#F0F0F0"/>
<path d="M267.62 203.025H265.2V205.106H267.62V203.025Z" fill="#F0F0F0"/>
<path d="M267.62 213.494H265.2V215.574H267.62V213.494Z" fill="#F0F0F0"/>
<path d="M267.62 216.986H265.2V219.067H267.62V216.986Z" fill="#F0F0F0"/>
<path d="M267.62 220.479H265.2V222.559H267.62V220.479Z" fill="#F0F0F0"/>
<path d="M227.292 143.668H224.872V145.748H227.292V143.668Z" fill="#F0F0F0"/>
<path d="M227.292 147.16H224.872V149.24H227.292V147.16Z" fill="#F0F0F0"/>
<path d="M227.292 150.652H224.872V152.733H227.292V150.652Z" fill="#F0F0F0"/>
<path d="M227.292 154.146H224.872V156.227H227.292V154.146Z" fill="#F0F0F0"/>
<path d="M227.292 157.637H224.872V159.717H227.292V157.637Z" fill="#F0F0F0"/>
<path d="M227.292 161.129H224.872V163.209H227.292V161.129Z" fill="#F0F0F0"/>
<path d="M227.292 164.621H224.872V166.701H227.292V164.621Z" fill="#F0F0F0"/>
<path d="M227.292 168.113H224.872V170.194H227.292V168.113Z" fill="#F0F0F0"/>
<path d="M227.292 171.605H224.872V173.686H227.292V171.605Z" fill="#F0F0F0"/>
<path d="M227.292 175.088H224.872V177.168H227.292V175.088Z" fill="#F0F0F0"/>
<path d="M227.292 178.582H224.872V180.662H227.292V178.582Z" fill="#F0F0F0"/>
<path d="M227.292 182.074H224.872V184.154H227.292V182.074Z" fill="#F0F0F0"/>
<path d="M227.292 185.566H224.872V187.647H227.292V185.566Z" fill="#F0F0F0"/>
<path d="M227.292 189.057H224.872V191.137H227.292V189.057Z" fill="#F0F0F0"/>
<path d="M227.292 192.551H224.872V194.631H227.292V192.551Z" fill="#F0F0F0"/>
<path d="M227.292 196.039H224.872V198.119H227.292V196.039Z" fill="#F0F0F0"/>
<path d="M227.292 199.535H224.872V201.615H227.292V199.535Z" fill="#F0F0F0"/>
<path d="M227.292 203.025H224.872V205.106H227.292V203.025Z" fill="#F0F0F0"/>
<path d="M227.292 206.518H224.872V208.598H227.292V206.518Z" fill="#F0F0F0"/>
<path d="M227.292 210.002H224.872V212.082H227.292V210.002Z" fill="#F0F0F0"/>
<path d="M227.292 213.494H224.872V215.574H227.292V213.494Z" fill="#F0F0F0"/>
<path d="M227.292 216.986H224.872V219.067H227.292V216.986Z" fill="#F0F0F0"/>
<path d="M227.292 220.479H224.872V222.559H227.292V220.479Z" fill="#F0F0F0"/>
<path d="M223.443 143.668H221.023V145.748H223.443V143.668Z" fill="#F0F0F0"/>
<path d="M223.443 147.16H221.023V149.24H223.443V147.16Z" fill="#F0F0F0"/>
<path d="M223.443 150.652H221.023V152.733H223.443V150.652Z" fill="#F0F0F0"/>
<path d="M223.443 154.146H221.023V156.227H223.443V154.146Z" fill="#F0F0F0"/>
<path d="M223.443 157.637H221.023V159.717H223.443V157.637Z" fill="#F0F0F0"/>
<path d="M223.443 161.129H221.023V163.209H223.443V161.129Z" fill="#F0F0F0"/>
<path d="M223.443 164.621H221.023V166.701H223.443V164.621Z" fill="#F0F0F0"/>
<path d="M223.443 168.113H221.023V170.194H223.443V168.113Z" fill="#F0F0F0"/>
<path d="M223.443 171.605H221.023V173.686H223.443V171.605Z" fill="#F0F0F0"/>
<path d="M223.443 175.088H221.023V177.168H223.443V175.088Z" fill="#F0F0F0"/>
<path d="M223.443 178.582H221.023V180.662H223.443V178.582Z" fill="#F0F0F0"/>
<path d="M223.443 182.074H221.023V184.154H223.443V182.074Z" fill="#F0F0F0"/>
<path d="M223.443 185.566H221.023V187.647H223.443V185.566Z" fill="#F0F0F0"/>
<path d="M223.443 189.057H221.023V191.137H223.443V189.057Z" fill="#F0F0F0"/>
<path d="M223.443 192.551H221.023V194.631H223.443V192.551Z" fill="#F0F0F0"/>
<path d="M223.443 196.039H221.023V198.119H223.443V196.039Z" fill="#F0F0F0"/>
<path d="M223.443 199.535H221.023V201.615H223.443V199.535Z" fill="#F0F0F0"/>
<path d="M223.443 203.025H221.023V205.106H223.443V203.025Z" fill="#F0F0F0"/>
<path d="M223.443 206.518H221.023V208.598H223.443V206.518Z" fill="#F0F0F0"/>
<path d="M219.594 143.668H217.174V145.748H219.594V143.668Z" fill="#F0F0F0"/>
<path d="M219.594 147.16H217.174V149.24H219.594V147.16Z" fill="#F0F0F0"/>
<path d="M219.594 150.652H217.174V152.733H219.594V150.652Z" fill="#F0F0F0"/>
<path d="M219.594 154.146H217.174V156.227H219.594V154.146Z" fill="#F0F0F0"/>
<path d="M219.594 157.637H217.174V159.717H219.594V157.637Z" fill="#F0F0F0"/>
<path d="M219.594 161.129H217.174V163.209H219.594V161.129Z" fill="#F0F0F0"/>
<path d="M219.594 164.621H217.174V166.701H219.594V164.621Z" fill="#F0F0F0"/>
<path d="M219.594 168.113H217.174V170.194H219.594V168.113Z" fill="#F0F0F0"/>
<path d="M219.594 171.605H217.174V173.686H219.594V171.605Z" fill="#F0F0F0"/>
<path d="M219.594 175.088H217.174V177.168H219.594V175.088Z" fill="#F0F0F0"/>
<path d="M219.594 178.582H217.174V180.662H219.594V178.582Z" fill="#F0F0F0"/>
<path d="M219.594 182.074H217.174V184.154H219.594V182.074Z" fill="#F0F0F0"/>
<path d="M219.594 185.566H217.174V187.647H219.594V185.566Z" fill="#F0F0F0"/>
<path d="M219.594 189.057H217.174V191.137H219.594V189.057Z" fill="#F0F0F0"/>
<path d="M219.594 192.551H217.174V194.631H219.594V192.551Z" fill="#F0F0F0"/>
<path d="M219.594 196.039H217.174V198.119H219.594V196.039Z" fill="#F0F0F0"/>
<path d="M219.594 199.535H217.174V201.615H219.594V199.535Z" fill="#F0F0F0"/>
<path d="M219.594 203.025H217.174V205.106H219.594V203.025Z" fill="#F0F0F0"/>
<path d="M219.594 206.518H217.174V208.598H219.594V206.518Z" fill="#F0F0F0"/>
<path d="M215.745 143.668H213.325V145.748H215.745V143.668Z" fill="#F0F0F0"/>
<path d="M215.745 147.16H213.325V149.24H215.745V147.16Z" fill="#F0F0F0"/>
<path d="M215.745 150.652H213.325V152.733H215.745V150.652Z" fill="#F0F0F0"/>
<path d="M215.745 154.146H213.325V156.227H215.745V154.146Z" fill="#F0F0F0"/>
<path d="M215.745 157.637H213.325V159.717H215.745V157.637Z" fill="#F0F0F0"/>
<path d="M215.745 161.129H213.325V163.209H215.745V161.129Z" fill="#F0F0F0"/>
<path d="M215.745 164.621H213.325V166.701H215.745V164.621Z" fill="#F0F0F0"/>
<path d="M215.745 168.113H213.325V170.194H215.745V168.113Z" fill="#F0F0F0"/>
<path d="M215.745 171.605H213.325V173.686H215.745V171.605Z" fill="#F0F0F0"/>
<path d="M215.745 175.088H213.325V177.168H215.745V175.088Z" fill="#F0F0F0"/>
<path d="M215.745 178.582H213.325V180.662H215.745V178.582Z" fill="#F0F0F0"/>
<path d="M215.745 182.074H213.325V184.154H215.745V182.074Z" fill="#F0F0F0"/>
<path d="M215.745 185.566H213.325V187.647H215.745V185.566Z" fill="#F0F0F0"/>
<path d="M215.745 189.057H213.325V191.137H215.745V189.057Z" fill="#F0F0F0"/>
<path d="M215.745 192.551H213.325V194.631H215.745V192.551Z" fill="#F0F0F0"/>
<path d="M211.896 143.668H209.476V145.748H211.896V143.668Z" fill="#F0F0F0"/>
<path d="M211.896 147.16H209.476V149.24H211.896V147.16Z" fill="#F0F0F0"/>
<path d="M211.896 150.652H209.476V152.733H211.896V150.652Z" fill="#F0F0F0"/>
<path d="M211.896 154.146H209.476V156.227H211.896V154.146Z" fill="#F0F0F0"/>
<path d="M211.896 157.637H209.476V159.717H211.896V157.637Z" fill="#F0F0F0"/>
<path d="M211.896 161.129H209.476V163.209H211.896V161.129Z" fill="#F0F0F0"/>
<path d="M211.896 164.621H209.476V166.701H211.896V164.621Z" fill="#F0F0F0"/>
<path d="M211.896 168.113H209.476V170.194H211.896V168.113Z" fill="#F0F0F0"/>
<path d="M211.896 171.605H209.476V173.686H211.896V171.605Z" fill="#F0F0F0"/>
<path d="M211.896 175.088H209.476V177.168H211.896V175.088Z" fill="#F0F0F0"/>
<path d="M211.896 178.582H209.476V180.662H211.896V178.582Z" fill="#F0F0F0"/>
<path d="M211.896 182.074H209.476V184.154H211.896V182.074Z" fill="#F0F0F0"/>
<path d="M211.896 185.566H209.476V187.647H211.896V185.566Z" fill="#F0F0F0"/>
<path d="M208.046 143.668H205.626V145.748H208.046V143.668Z" fill="#F0F0F0"/>
<path d="M208.046 147.16H205.626V149.24H208.046V147.16Z" fill="#F0F0F0"/>
<path d="M208.046 150.652H205.626V152.733H208.046V150.652Z" fill="#F0F0F0"/>
<path d="M208.046 154.146H205.626V156.227H208.046V154.146Z" fill="#F0F0F0"/>
<path d="M208.046 157.637H205.626V159.717H208.046V157.637Z" fill="#F0F0F0"/>
<path d="M208.046 161.129H205.626V163.209H208.046V161.129Z" fill="#F0F0F0"/>
<path d="M208.046 164.621H205.626V166.701H208.046V164.621Z" fill="#F0F0F0"/>
<path d="M208.046 168.113H205.626V170.194H208.046V168.113Z" fill="#F0F0F0"/>
<path d="M208.046 171.605H205.626V173.686H208.046V171.605Z" fill="#F0F0F0"/>
<path d="M208.046 175.088H205.626V177.168H208.046V175.088Z" fill="#F0F0F0"/>
<path d="M208.046 178.582H205.626V180.662H208.046V178.582Z" fill="#F0F0F0"/>
<path d="M208.046 182.074H205.626V184.154H208.046V182.074Z" fill="#F0F0F0"/>
<path d="M432.666 142.633H430.246V144.713H432.666V142.633Z" fill="#F0F0F0"/>
<path d="M432.666 146.125H430.246V148.205H432.666V146.125Z" fill="#F0F0F0"/>
<path d="M432.666 149.617H430.246V151.697H432.666V149.617Z" fill="#F0F0F0"/>
<path d="M432.666 153.1H430.246V155.18H432.666V153.1Z" fill="#F0F0F0"/>
<path d="M432.666 156.594H430.246V158.674H432.666V156.594Z" fill="#F0F0F0"/>
<path d="M432.666 160.086H430.246V162.166H432.666V160.086Z" fill="#F0F0F0"/>
<path d="M432.666 163.576H430.246V165.656H432.666V163.576Z" fill="#F0F0F0"/>
<path d="M432.666 167.068H430.246V169.149H432.666V167.068Z" fill="#F0F0F0"/>
<path d="M432.666 170.561H430.246V172.641H432.666V170.561Z" fill="#F0F0F0"/>
<path d="M432.666 174.053H430.246V176.133H432.666V174.053Z" fill="#F0F0F0"/>
<path d="M432.666 177.547H430.246V179.627H432.666V177.547Z" fill="#F0F0F0"/>
<path d="M432.666 181.037H430.246V183.117H432.666V181.037Z" fill="#F0F0F0"/>
<path d="M432.666 184.529H430.246V186.61H432.666V184.529Z" fill="#F0F0F0"/>
<path d="M432.666 188.014H430.246V190.094H432.666V188.014Z" fill="#F0F0F0"/>
<path d="M432.666 191.506H430.246V193.586H432.666V191.506Z" fill="#F0F0F0"/>
<path d="M432.666 194.998H430.246V197.078H432.666V194.998Z" fill="#F0F0F0"/>
<path d="M432.666 198.49H430.246V200.57H432.666V198.49Z" fill="#F0F0F0"/>
<path d="M432.666 205.475H430.246V207.555H432.666V205.475Z" fill="#F0F0F0"/>
<path d="M432.666 208.965H430.246V211.045H432.666V208.965Z" fill="#F0F0F0"/>
<path d="M432.666 212.457H430.246V214.537H432.666V212.457Z" fill="#F0F0F0"/>
<path d="M432.666 215.951H430.246V218.031H432.666V215.951Z" fill="#F0F0F0"/>
<path d="M432.666 219.434H430.246V221.514H432.666V219.434Z" fill="#F0F0F0"/>
<path d="M428.817 142.633H426.397V144.713H428.817V142.633Z" fill="#F0F0F0"/>
<path d="M428.817 146.125H426.397V148.205H428.817V146.125Z" fill="#F0F0F0"/>
<path d="M428.817 149.617H426.397V151.697H428.817V149.617Z" fill="#F0F0F0"/>
<path d="M428.817 153.1H426.397V155.18H428.817V153.1Z" fill="#F0F0F0"/>
<path d="M428.817 156.594H426.397V158.674H428.817V156.594Z" fill="#F0F0F0"/>
<path d="M428.817 160.086H426.397V162.166H428.817V160.086Z" fill="#F0F0F0"/>
<path d="M428.817 163.576H426.397V165.656H428.817V163.576Z" fill="#F0F0F0"/>
<path d="M428.817 167.068H426.397V169.149H428.817V167.068Z" fill="#F0F0F0"/>
<path d="M428.817 170.561H426.397V172.641H428.817V170.561Z" fill="#F0F0F0"/>
<path d="M428.817 174.053H426.397V176.133H428.817V174.053Z" fill="#F0F0F0"/>
<path d="M428.817 177.547H426.397V179.627H428.817V177.547Z" fill="#F0F0F0"/>
<path d="M428.817 181.037H426.397V183.117H428.817V181.037Z" fill="#F0F0F0"/>
<path d="M428.817 184.529H426.397V186.61H428.817V184.529Z" fill="#F0F0F0"/>
<path d="M428.817 188.014H426.397V190.094H428.817V188.014Z" fill="#F0F0F0"/>
<path d="M428.817 191.506H426.397V193.586H428.817V191.506Z" fill="#F0F0F0"/>
<path d="M428.817 194.998H426.397V197.078H428.817V194.998Z" fill="#F0F0F0"/>
<path d="M428.817 215.951H426.397V218.031H428.817V215.951Z" fill="#F0F0F0"/>
<path d="M428.817 219.434H426.397V221.514H428.817V219.434Z" fill="#F0F0F0"/>
<path d="M424.978 142.633H422.558V144.713H424.978V142.633Z" fill="#F0F0F0"/>
<path d="M424.978 146.125H422.558V148.205H424.978V146.125Z" fill="#F0F0F0"/>
<path d="M424.978 149.617H422.558V151.697H424.978V149.617Z" fill="#F0F0F0"/>
<path d="M424.978 153.1H422.558V155.18H424.978V153.1Z" fill="#F0F0F0"/>
<path d="M424.978 156.594H422.558V158.674H424.978V156.594Z" fill="#F0F0F0"/>
<path d="M424.978 160.086H422.558V162.166H424.978V160.086Z" fill="#F0F0F0"/>
<path d="M424.978 163.576H422.558V165.656H424.978V163.576Z" fill="#F0F0F0"/>
<path d="M424.978 167.068H422.558V169.149H424.978V167.068Z" fill="#F0F0F0"/>
<path d="M424.978 170.561H422.558V172.641H424.978V170.561Z" fill="#F0F0F0"/>
<path d="M424.978 174.053H422.558V176.133H424.978V174.053Z" fill="#F0F0F0"/>
<path d="M424.978 177.547H422.558V179.627H424.978V177.547Z" fill="#F0F0F0"/>
<path d="M424.978 181.037H422.558V183.117H424.978V181.037Z" fill="#F0F0F0"/>
<path d="M424.978 184.529H422.558V186.61H424.978V184.529Z" fill="#F0F0F0"/>
<path d="M424.978 188.014H422.558V190.094H424.978V188.014Z" fill="#F0F0F0"/>
<path d="M424.978 191.506H422.558V193.586H424.978V191.506Z" fill="#F0F0F0"/>
<path d="M424.978 194.998H422.558V197.078H424.978V194.998Z" fill="#F0F0F0"/>
<path d="M424.978 201.98H422.558V204.061H424.978V201.98Z" fill="#F0F0F0"/>
<path d="M424.978 205.475H422.558V207.555H424.978V205.475Z" fill="#F0F0F0"/>
<path d="M424.978 208.965H422.558V211.045H424.978V208.965Z" fill="#F0F0F0"/>
<path d="M424.978 212.457H422.558V214.537H424.978V212.457Z" fill="#F0F0F0"/>
<path d="M424.978 219.434H422.558V221.514H424.978V219.434Z" fill="#F0F0F0"/>
<path d="M357.842 167.068H355.422V169.149H357.842V167.068Z" fill="#F0F0F0"/>
<path d="M357.842 170.561H355.422V172.641H357.842V170.561Z" fill="#F0F0F0"/>
<path d="M357.842 174.053H355.422V176.133H357.842V174.053Z" fill="#F0F0F0"/>
<path d="M357.842 177.547H355.422V179.627H357.842V177.547Z" fill="#F0F0F0"/>
<path d="M357.842 181.037H355.422V183.117H357.842V181.037Z" fill="#F0F0F0"/>
<path d="M357.842 184.529H355.422V186.61H357.842V184.529Z" fill="#F0F0F0"/>
<path d="M357.842 188.014H355.422V190.094H357.842V188.014Z" fill="#F0F0F0"/>
<path d="M357.842 191.506H355.422V193.586H357.842V191.506Z" fill="#F0F0F0"/>
<path d="M357.842 194.998H355.422V197.078H357.842V194.998Z" fill="#F0F0F0"/>
<path d="M357.842 198.49H355.422V200.57H357.842V198.49Z" fill="#F0F0F0"/>
<path d="M357.842 201.98H355.422V204.061H357.842V201.98Z" fill="#F0F0F0"/>
<path d="M357.842 205.475H355.422V207.555H357.842V205.475Z" fill="#F0F0F0"/>
<path d="M357.842 208.965H355.422V211.045H357.842V208.965Z" fill="#F0F0F0"/>
<path d="M357.842 215.951H355.422V218.031H357.842V215.951Z" fill="#F0F0F0"/>
<path d="M357.842 219.434H355.422V221.514H357.842V219.434Z" fill="#F0F0F0"/>
<path d="M357.842 222.928H355.422V225.008H357.842V222.928Z" fill="#F0F0F0"/>
<path d="M357.842 226.418H355.422V228.498H357.842V226.418Z" fill="#F0F0F0"/>
<path d="M357.842 233.402H355.422V235.483H357.842V233.402Z" fill="#F0F0F0"/>
<path d="M357.842 236.895H355.422V238.975H357.842V236.895Z" fill="#F0F0F0"/>
<path d="M357.842 240.387H355.422V242.467H357.842V240.387Z" fill="#F0F0F0"/>
<path d="M353.993 167.068H351.573V169.149H353.993V167.068Z" fill="#F0F0F0"/>
<path d="M353.993 170.561H351.573V172.641H353.993V170.561Z" fill="#F0F0F0"/>
<path d="M353.993 174.053H351.573V176.133H353.993V174.053Z" fill="#F0F0F0"/>
<path d="M353.993 177.547H351.573V179.627H353.993V177.547Z" fill="#F0F0F0"/>
<path d="M353.993 181.037H351.573V183.117H353.993V181.037Z" fill="#F0F0F0"/>
<path d="M353.993 184.529H351.573V186.61H353.993V184.529Z" fill="#F0F0F0"/>
<path d="M353.993 188.014H351.573V190.094H353.993V188.014Z" fill="#F0F0F0"/>
<path d="M353.993 191.506H351.573V193.586H353.993V191.506Z" fill="#F0F0F0"/>
<path d="M353.993 194.998H351.573V197.078H353.993V194.998Z" fill="#F0F0F0"/>
<path d="M353.993 198.49H351.573V200.57H353.993V198.49Z" fill="#F0F0F0"/>
<path d="M353.993 201.98H351.573V204.061H353.993V201.98Z" fill="#F0F0F0"/>
<path d="M353.993 205.475H351.573V207.555H353.993V205.475Z" fill="#F0F0F0"/>
<path d="M353.993 208.965H351.573V211.045H353.993V208.965Z" fill="#F0F0F0"/>
<path d="M353.993 219.434H351.573V221.514H353.993V219.434Z" fill="#F0F0F0"/>
<path d="M353.993 222.928H351.573V225.008H353.993V222.928Z" fill="#F0F0F0"/>
<path d="M353.993 229.912H351.573V231.992H353.993V229.912Z" fill="#F0F0F0"/>
<path d="M353.993 233.402H351.573V235.483H353.993V233.402Z" fill="#F0F0F0"/>
<path d="M353.993 236.895H351.573V238.975H353.993V236.895Z" fill="#F0F0F0"/>
<path d="M353.993 240.387H351.573V242.467H353.993V240.387Z" fill="#F0F0F0"/>
<path d="M350.143 167.068H347.723V169.149H350.143V167.068Z" fill="#F0F0F0"/>
<path d="M350.143 170.561H347.723V172.641H350.143V170.561Z" fill="#F0F0F0"/>
<path d="M350.143 174.053H347.723V176.133H350.143V174.053Z" fill="#F0F0F0"/>
<path d="M350.143 177.547H347.723V179.627H350.143V177.547Z" fill="#F0F0F0"/>
<path d="M350.143 181.037H347.723V183.117H350.143V181.037Z" fill="#F0F0F0"/>
<path d="M350.143 184.529H347.723V186.61H350.143V184.529Z" fill="#F0F0F0"/>
<path d="M350.143 188.014H347.723V190.094H350.143V188.014Z" fill="#F0F0F0"/>
<path d="M350.143 191.506H347.723V193.586H350.143V191.506Z" fill="#F0F0F0"/>
<path d="M350.143 194.998H347.723V197.078H350.143V194.998Z" fill="#F0F0F0"/>
<path d="M350.143 198.49H347.723V200.57H350.143V198.49Z" fill="#F0F0F0"/>
<path d="M350.143 201.98H347.723V204.061H350.143V201.98Z" fill="#F0F0F0"/>
<path d="M350.143 205.475H347.723V207.555H350.143V205.475Z" fill="#F0F0F0"/>
<path d="M350.143 208.965H347.723V211.045H350.143V208.965Z" fill="#F0F0F0"/>
<path d="M350.143 212.457H347.723V214.537H350.143V212.457Z" fill="#F0F0F0"/>
<path d="M350.143 219.434H347.723V221.514H350.143V219.434Z" fill="#F0F0F0"/>
<path d="M350.143 226.418H347.723V228.498H350.143V226.418Z" fill="#F0F0F0"/>
<path d="M350.143 229.912H347.723V231.992H350.143V229.912Z" fill="#F0F0F0"/>
<path d="M350.143 233.402H347.723V235.483H350.143V233.402Z" fill="#F0F0F0"/>
<path d="M350.143 236.895H347.723V238.975H350.143V236.895Z" fill="#F0F0F0"/>
<path d="M350.143 240.387H347.723V242.467H350.143V240.387Z" fill="#F0F0F0"/>
<path d="M373.52 186.977H371.1V189.057H373.52V186.977Z" fill="#F0F0F0"/>
<path d="M373.52 190.469H371.1V192.549H373.52V190.469Z" fill="#F0F0F0"/>
<path d="M373.52 193.961H371.1V196.041H373.52V193.961Z" fill="#F0F0F0"/>
<path d="M373.52 197.445H371.1V199.526H373.52V197.445Z" fill="#F0F0F0"/>
<path d="M373.52 200.938H371.1V203.018H373.52V200.938Z" fill="#F0F0F0"/>
<path d="M373.52 204.43H371.1V206.51H373.52V204.43Z" fill="#F0F0F0"/>
<path d="M373.52 214.904H371.1V216.985H373.52V214.904Z" fill="#F0F0F0"/>
<path d="M373.52 218.396H371.1V220.477H373.52V218.396Z" fill="#F0F0F0"/>
<path d="M373.52 221.891H371.1V223.971H373.52V221.891Z" fill="#F0F0F0"/>
<path d="M373.52 225.383H371.1V227.463H373.52V225.383Z" fill="#F0F0F0"/>
<path d="M373.52 228.875H371.1V230.955H373.52V228.875Z" fill="#F0F0F0"/>
<path d="M373.52 232.357H371.1V234.438H373.52V232.357Z" fill="#F0F0F0"/>
<path d="M373.52 235.85H371.1V237.93H373.52V235.85Z" fill="#F0F0F0"/>
<path d="M369.671 186.977H367.25V189.057H369.671V186.977Z" fill="#F0F0F0"/>
<path d="M369.671 190.469H367.25V192.549H369.671V190.469Z" fill="#F0F0F0"/>
<path d="M369.671 193.961H367.25V196.041H369.671V193.961Z" fill="#F0F0F0"/>
<path d="M369.671 197.445H367.25V199.526H369.671V197.445Z" fill="#F0F0F0"/>
<path d="M369.671 200.938H367.25V203.018H369.671V200.938Z" fill="#F0F0F0"/>
<path d="M369.671 204.43H367.25V206.51H369.671V204.43Z" fill="#F0F0F0"/>
<path d="M369.671 214.904H367.25V216.985H369.671V214.904Z" fill="#F0F0F0"/>
<path d="M369.671 218.396H367.25V220.477H369.671V218.396Z" fill="#F0F0F0"/>
<path d="M369.671 221.891H367.25V223.971H369.671V221.891Z" fill="#F0F0F0"/>
<path d="M369.671 225.383H367.25V227.463H369.671V225.383Z" fill="#F0F0F0"/>
<path d="M369.671 228.875H367.25V230.955H369.671V228.875Z" fill="#F0F0F0"/>
<path d="M369.671 232.357H367.25V234.438H369.671V232.357Z" fill="#F0F0F0"/>
<path d="M369.671 239.342H367.25V241.422H369.671V239.342Z" fill="#F0F0F0"/>
<path d="M241.824 171.605H239.404V173.686H241.824V171.605Z" fill="#F0F0F0"/>
<path d="M241.824 175.088H239.404V177.168H241.824V175.088Z" fill="#F0F0F0"/>
<path d="M241.824 178.582H239.404V180.662H241.824V178.582Z" fill="#F0F0F0"/>
<path d="M241.824 182.074H239.404V184.154H241.824V182.074Z" fill="#F0F0F0"/>
<path d="M241.824 185.566H239.404V187.647H241.824V185.566Z" fill="#F0F0F0"/>
<path d="M241.824 189.057H239.404V191.137H241.824V189.057Z" fill="#F0F0F0"/>
<path d="M241.824 192.551H239.404V194.631H241.824V192.551Z" fill="#F0F0F0"/>
<path d="M241.824 196.039H239.404V198.119H241.824V196.039Z" fill="#F0F0F0"/>
<path d="M241.824 199.535H239.404V201.615H241.824V199.535Z" fill="#F0F0F0"/>
<path d="M241.824 203.025H239.404V205.106H241.824V203.025Z" fill="#F0F0F0"/>
<path d="M241.824 206.518H239.404V208.598H241.824V206.518Z" fill="#F0F0F0"/>
<path d="M241.824 213.494H239.404V215.574H241.824V213.494Z" fill="#F0F0F0"/>
<path d="M241.824 216.986H239.404V219.067H241.824V216.986Z" fill="#F0F0F0"/>
<path d="M241.824 220.479H239.404V222.559H241.824V220.479Z" fill="#F0F0F0"/>
<path d="M241.824 223.971H239.404V226.051H241.824V223.971Z" fill="#F0F0F0"/>
<path d="M241.824 227.463H239.404V229.543H241.824V227.463Z" fill="#F0F0F0"/>
<path d="M241.824 230.955H239.404V233.035H241.824V230.955Z" fill="#F0F0F0"/>
<path d="M241.824 234.445H239.404V236.526H241.824V234.445Z" fill="#F0F0F0"/>
<path d="M241.824 237.938H239.404V240.018H241.824V237.938Z" fill="#F0F0F0"/>
<path d="M237.984 171.605H235.564V173.686H237.984V171.605Z" fill="#F0F0F0"/>
<path d="M237.984 175.088H235.564V177.168H237.984V175.088Z" fill="#F0F0F0"/>
<path d="M237.984 178.582H235.564V180.662H237.984V178.582Z" fill="#F0F0F0"/>
<path d="M237.984 182.074H235.564V184.154H237.984V182.074Z" fill="#F0F0F0"/>
<path d="M237.984 185.566H235.564V187.647H237.984V185.566Z" fill="#F0F0F0"/>
<path d="M237.984 189.057H235.564V191.137H237.984V189.057Z" fill="#F0F0F0"/>
<path d="M237.984 192.551H235.564V194.631H237.984V192.551Z" fill="#F0F0F0"/>
<path d="M237.984 196.039H235.564V198.119H237.984V196.039Z" fill="#F0F0F0"/>
<path d="M237.984 199.535H235.564V201.615H237.984V199.535Z" fill="#F0F0F0"/>
<path d="M237.984 203.025H235.564V205.106H237.984V203.025Z" fill="#F0F0F0"/>
<path d="M237.984 206.518H235.564V208.598H237.984V206.518Z" fill="#F0F0F0"/>
<path d="M237.984 210.002H235.564V212.082H237.984V210.002Z" fill="#F0F0F0"/>
<path d="M237.984 213.494H235.564V215.574H237.984V213.494Z" fill="#F0F0F0"/>
<path d="M237.984 216.986H235.564V219.067H237.984V216.986Z" fill="#F0F0F0"/>
<path d="M237.984 220.479H235.564V222.559H237.984V220.479Z" fill="#F0F0F0"/>
<path d="M237.984 223.971H235.564V226.051H237.984V223.971Z" fill="#F0F0F0"/>
<path d="M237.984 227.463H235.564V229.543H237.984V227.463Z" fill="#F0F0F0"/>
<path d="M237.984 230.955H235.564V233.035H237.984V230.955Z" fill="#F0F0F0"/>
<path d="M237.984 234.445H235.564V236.526H237.984V234.445Z" fill="#F0F0F0"/>
<path d="M237.984 237.938H235.564V240.018H237.984V237.938Z" fill="#F0F0F0"/>
<path d="M260.787 185.197H258.367V187.277H260.787V185.197Z" fill="#F0F0F0"/>
<path d="M260.787 188.689H258.367V190.77H260.787V188.689Z" fill="#F0F0F0"/>
<path d="M260.787 192.182H258.367V194.262H260.787V192.182Z" fill="#F0F0F0"/>
<path d="M260.787 195.674H258.367V197.754H260.787V195.674Z" fill="#F0F0F0"/>
<path d="M260.787 199.166H258.367V201.246H260.787V199.166Z" fill="#F0F0F0"/>
<path d="M260.787 202.658H258.367V204.738H260.787V202.658Z" fill="#F0F0F0"/>
<path d="M260.787 206.15H258.367V208.231H260.787V206.15Z" fill="#F0F0F0"/>
<path d="M260.787 209.633H258.367V211.713H260.787V209.633Z" fill="#F0F0F0"/>
<path d="M260.787 213.127H258.367V215.207H260.787V213.127Z" fill="#F0F0F0"/>
<path d="M260.787 216.617H258.367V218.697H260.787V216.617Z" fill="#F0F0F0"/>
<path d="M256.938 185.197H254.518V187.277H256.938V185.197Z" fill="#F0F0F0"/>
<path d="M256.938 188.689H254.518V190.77H256.938V188.689Z" fill="#F0F0F0"/>
<path d="M256.938 192.182H254.518V194.262H256.938V192.182Z" fill="#F0F0F0"/>
<path d="M256.938 195.674H254.518V197.754H256.938V195.674Z" fill="#F0F0F0"/>
<path d="M256.938 199.166H254.518V201.246H256.938V199.166Z" fill="#F0F0F0"/>
<path d="M256.938 202.658H254.518V204.738H256.938V202.658Z" fill="#F0F0F0"/>
<path d="M256.938 206.15H254.518V208.231H256.938V206.15Z" fill="#F0F0F0"/>
<path d="M256.938 209.633H254.518V211.713H256.938V209.633Z" fill="#F0F0F0"/>
<path d="M256.938 213.127H254.518V215.207H256.938V213.127Z" fill="#F0F0F0"/>
<path d="M279.829 52.707H275.766V247.43H279.829V52.707Z" fill="#E0E0E0"/>
<path d="M356.335 52.707H352.272V247.43H356.335V52.707Z" fill="#E0E0E0"/>
<path d="M432.832 52.707H428.769V247.43H432.832V52.707Z" fill="#E0E0E0"/>
<path d="M143.681 228.447H168.739C169.876 228.447 170.966 228.835 171.77 229.526C172.574 230.217 173.025 231.154 173.025 232.132V273.761H139.404V232.165C139.399 231.679 139.506 231.197 139.718 230.747C139.931 230.296 140.245 229.887 140.642 229.541C141.04 229.196 141.513 228.921 142.034 228.733C142.556 228.546 143.115 228.448 143.681 228.447Z" fill="#F0F0F0"/>
<path d="M173.026 234.613H139.404V237.863H173.026V234.613Z" fill="#E6E6E6"/>
<path d="M158.523 268.307H166.902C167.513 268.307 168.099 268.515 168.531 268.887C168.963 269.258 169.206 269.762 169.206 270.287V273.795H156.21V270.287C156.21 270.026 156.27 269.768 156.386 269.527C156.503 269.286 156.673 269.068 156.888 268.884C157.103 268.7 157.358 268.554 157.639 268.455C157.919 268.356 158.22 268.306 158.523 268.307Z" fill="#E0E0E0"/>
<path d="M169.245 273.795H159.933C159.536 273.795 159.155 273.66 158.874 273.418C158.594 273.177 158.436 272.85 158.436 272.509C158.439 272.169 158.597 271.844 158.878 271.604C159.158 271.365 159.538 271.23 159.933 271.23H169.245C169.64 271.23 170.019 271.365 170.3 271.604C170.58 271.844 170.739 272.169 170.742 272.509C170.742 272.85 170.584 273.177 170.303 273.418C170.022 273.66 169.642 273.795 169.245 273.795Z" fill="#E6E6E6"/>
<path d="M318.538 43.5702C330.842 41.0742 338.462 30.4778 335.558 19.9025C332.654 9.32713 320.326 2.77755 308.022 5.27355C295.718 7.76956 288.097 18.366 291.001 28.9413C293.905 39.5166 306.234 46.0662 318.538 43.5702Z" fill="#E0E0E0"/>
<path d="M316.393 40.9164C327.007 39.4356 334.214 30.8401 332.491 21.7177C330.768 12.5953 320.768 6.40056 310.154 7.88133C299.541 9.3621 292.333 17.9576 294.056 27.08C295.779 36.2024 305.779 42.3972 316.393 40.9164Z" fill="#F0F0F0"/>
<path d="M314.199 12.9297V24.6257L323.209 20.2397" fill="#F0F0F0"/>
<path d="M314.199 25.4392C314.025 25.4391 313.853 25.3987 313.703 25.3222C313.558 25.2483 313.438 25.1432 313.355 25.0172C313.271 24.8912 313.227 24.7487 313.227 24.6038V12.9077C313.227 12.6861 313.329 12.4736 313.512 12.317C313.694 12.1603 313.941 12.0723 314.199 12.0723C314.457 12.0723 314.704 12.1603 314.886 12.317C315.069 12.4736 315.171 12.6861 315.171 12.9077V23.1919L322.733 19.516C322.958 19.4077 323.223 19.3804 323.471 19.4399C323.718 19.4994 323.929 19.6409 324.055 19.8334C324.182 20.0253 324.215 20.2524 324.148 20.4652C324.08 20.6781 323.918 20.8594 323.695 20.9696L314.675 25.3556C314.526 25.4148 314.363 25.4434 314.199 25.4392Z" fill="#E0E0E0"/>
<path d="M94.216 216.451C92.4664 213.945 89.5893 216.125 89.5893 216.125C89.9975 211.38 84.9237 208.139 84.9237 208.139C84.9237 208.139 90.8237 208.139 91.6402 203.302C92.4567 198.464 89.5893 200.712 86.8871 200.678C84.185 200.645 81.3564 207.429 84.9431 211.247C88.5298 215.064 87.5481 221.581 79.3152 227.847C77.3465 229.43 75.8696 231.412 75.019 233.611C75.6411 227.855 75.991 219.743 74.047 214.329C70.7033 205.14 77.0796 202.633 78.907 198.055C80.7344 193.477 74.047 189.567 74.047 189.567C74.047 189.567 80.3747 187.061 77.2838 184.262C74.1928 181.463 67.8165 181.814 67.8165 185.515C67.8165 189.216 72.1419 190.628 72.1419 190.628C72.1419 190.628 77.0796 195.047 77.0796 197.312C77.0796 199.576 72.1419 204.563 72.1419 204.563C72.1419 204.563 74.4066 200.327 69.8771 200.152C65.3476 199.977 63.909 205.098 65.7656 207.395C67.6221 209.693 70.7033 207.754 70.7033 207.754C70.8966 210.436 71.3683 213.098 72.1127 215.708C72.5793 217.036 72.3654 222.224 71.9766 227.621C71.1171 225.673 69.7429 223.922 67.9623 222.508C59.7294 216.242 58.7769 209.726 62.3441 205.908C65.9114 202.09 63.0828 195.306 60.4001 195.34C57.7174 195.373 54.8111 193.118 55.6373 197.955C56.4635 202.792 62.3636 202.8 62.3636 202.8C62.3636 202.8 57.28 206.042 57.6882 210.787C57.6882 210.787 54.7722 208.632 53.0615 211.113C49.9414 215.532 57.1828 218.273 58.3978 216.125C58.3978 216.125 73.7457 225.466 70.0618 238.908L70.9172 240.002C70.8102 241.088 70.7422 241.74 70.7422 241.74L71.9378 241.297L73.3083 243.026C73.2604 244.98 73.3773 246.935 73.6582 248.874L77.3226 244.213C73.6193 230.771 88.9866 221.43 88.9866 221.43C90.1044 223.619 97.3361 220.871 94.216 216.451Z" fill="#E0E0E0"/>
<path opacity="0.2" d="M94.216 216.451C92.4664 213.945 89.5893 216.125 89.5893 216.125C89.9975 211.38 84.9237 208.139 84.9237 208.139C84.9237 208.139 90.8237 208.139 91.6402 203.302C92.4567 198.464 89.5893 200.712 86.8871 200.678C84.185 200.645 81.3564 207.429 84.9431 211.247C88.5298 215.064 87.5481 221.581 79.3152 227.847C77.3465 229.43 75.8696 231.412 75.019 233.611C75.6411 227.855 75.991 219.743 74.047 214.329C70.7033 205.14 77.0796 202.633 78.907 198.055C80.7344 193.477 74.047 189.567 74.047 189.567C74.047 189.567 80.3747 187.061 77.2838 184.262C74.1928 181.463 67.8165 181.814 67.8165 185.515C67.8165 189.216 72.1419 190.628 72.1419 190.628C72.1419 190.628 77.0796 195.047 77.0796 197.312C77.0796 199.576 72.1419 204.563 72.1419 204.563C72.1419 204.563 74.4066 200.327 69.8771 200.152C65.3476 199.977 63.909 205.098 65.7656 207.395C67.6221 209.693 70.7033 207.754 70.7033 207.754C70.8966 210.436 71.3683 213.098 72.1127 215.708C72.5793 217.036 72.3654 222.224 71.9766 227.621C71.1171 225.673 69.7429 223.922 67.9623 222.508C59.7294 216.242 58.7769 209.726 62.3441 205.908C65.9114 202.09 63.0828 195.306 60.4001 195.34C57.7174 195.373 54.8111 193.118 55.6373 197.955C56.4635 202.792 62.3636 202.8 62.3636 202.8C62.3636 202.8 57.28 206.042 57.6882 210.787C57.6882 210.787 54.7722 208.632 53.0615 211.113C49.9414 215.532 57.1828 218.273 58.3978 216.125C58.3978 216.125 73.7457 225.466 70.0618 238.908L70.9172 240.002C70.8102 241.088 70.7422 241.74 70.7422 241.74L71.9378 241.297L73.3083 243.026C73.2604 244.98 73.3773 246.935 73.6582 248.874L77.3226 244.213C73.6193 230.771 88.9866 221.43 88.9866 221.43C90.1044 223.619 97.3361 220.871 94.216 216.451Z" fill="#E0E0E0"/>
<path d="M91.2124 273.796H56.0552L52.2644 240.713H95.013L91.2124 273.796Z" fill="#E6E6E6"/>
<path d="M96.8789 237.062H50.3784V244.364H96.8789V237.062Z" fill="#F0F0F0"/>
<path d="M243 311.625C347.084 311.625 431.461 307.391 431.461 302.168C431.461 296.945 347.084 292.711 243 292.711C138.915 292.711 54.5386 296.945 54.5386 302.168C54.5386 307.391 138.915 311.625 243 311.625Z" fill="#F5F5F5"/>
<path d="M352.953 283.863L324.949 281.499V247.664H313.849V281.482L285.768 283.863C284.421 283.977 283.172 284.518 282.263 285.379C281.354 286.241 280.85 287.362 280.85 288.525V292.142H357.91V288.525C357.91 287.356 357.402 286.23 356.484 285.367C355.567 284.504 354.307 283.968 352.953 283.863Z" fill="#263238"/>
<path opacity="0.2" d="M352.953 283.863L324.949 281.499V247.664H313.849V281.482L285.768 283.863C284.421 283.977 283.172 284.518 282.263 285.379C281.354 286.241 280.85 287.362 280.85 288.525V292.142H357.91V288.525C357.91 287.356 357.402 286.23 356.484 285.367C355.567 284.504 354.307 283.968 352.953 283.863Z" fill="white"/>
<path d="M283.775 302.868C287.786 302.868 291.036 300.074 291.036 296.627C291.036 293.181 287.786 290.387 283.775 290.387C279.765 290.387 276.515 293.181 276.515 296.627C276.515 300.074 279.765 302.868 283.775 302.868Z" fill="#263238"/>
<path d="M354.916 302.868C358.926 302.868 362.177 300.074 362.177 296.627C362.177 293.181 358.926 290.387 354.916 290.387C350.906 290.387 347.655 293.181 347.655 296.627C347.655 300.074 350.906 302.868 354.916 302.868Z" fill="#263238"/>
<path d="M311.944 224.807H326.864V251.482C326.864 252.397 326.441 253.275 325.688 253.922C324.935 254.569 323.914 254.932 322.85 254.932H315.958C314.894 254.932 313.872 254.569 313.12 253.922C312.367 253.275 311.944 252.397 311.944 251.482V224.807Z" fill="#263238"/>
<path opacity="0.3" d="M311.944 224.807H326.864V251.482C326.864 252.397 326.441 253.275 325.688 253.922C324.935 254.569 323.914 254.932 322.85 254.932H315.958C314.894 254.932 313.872 254.569 313.12 253.922C312.367 253.275 311.944 252.397 311.944 251.482V224.807Z" fill="white"/>
<path d="M345.935 171.932C345.935 171.932 348.054 217.045 333.435 224.806H350.124C350.124 224.806 363.052 209.443 359.397 171.932H345.935Z" fill="#263238"/>
<path opacity="0.3" d="M345.935 171.932C345.935 171.932 348.054 217.045 333.435 224.806H350.124C350.124 224.806 363.052 209.443 359.397 171.932H345.935Z" fill="white"/>
<path d="M355.801 228.266H281.035V222.677C281.035 221.569 281.547 220.506 282.458 219.723C283.369 218.94 284.606 218.499 285.895 218.499H350.941C352.23 218.499 353.466 218.94 354.377 219.723C355.289 220.506 355.801 221.569 355.801 222.677V228.266Z" fill="#263238"/>
<path d="M279.868 228.266H356.957C358.036 228.266 358.911 227.514 358.911 226.586V225.066C358.911 224.139 358.036 223.387 356.957 223.387H279.868C278.789 223.387 277.914 224.139 277.914 225.066V226.586C277.914 227.514 278.789 228.266 279.868 228.266Z" fill="#263238"/>
<path opacity="0.6" d="M279.868 228.266H356.957C358.036 228.266 358.911 227.514 358.911 226.586V225.066C358.911 224.139 358.036 223.387 356.957 223.387H279.868C278.789 223.387 277.914 224.139 277.914 225.066V226.586C277.914 227.514 278.789 228.266 279.868 228.266Z" fill="white"/>
<path d="M363.489 147.746H336.759C328.932 147.746 322.587 153.2 322.587 159.927V168.916C322.587 175.643 328.932 181.097 336.759 181.097H363.489C371.316 181.097 377.661 175.643 377.661 168.916V159.927C377.661 153.2 371.316 147.746 363.489 147.746Z" fill="#263238"/>
<path d="M255.684 110.887L250.348 98.798C250.348 98.798 252.642 96.9767 251.067 95.1304C249.492 93.2841 239.656 88.0961 237.867 89.0067C236.079 89.9173 232.084 93.3593 234.242 95.2724C236.399 97.1856 245.906 100.369 245.906 100.369L250.629 116.242L255.684 110.887Z" fill="#E4897B"/>
<path d="M292.941 133.869C292.941 133.869 268.641 129.583 266.046 128.556C263.451 127.528 253.692 102.941 253.692 102.941L246.198 105.949C246.198 105.949 252.224 130.628 258.386 136.492C264.549 142.357 290.851 147.353 290.851 147.353L292.941 133.869Z" fill="#2B7A78"/>
<path opacity="0.2" d="M290.793 147.328L290.346 147.236C289.024 146.977 284.873 146.142 279.945 144.897C271.946 142.9 261.856 139.884 258.338 136.501C252.185 130.653 246.149 105.949 246.149 105.949L253.633 102.941C253.633 102.941 263.402 127.537 266.046 128.556C268.689 129.575 292.941 133.869 292.941 133.869L290.793 147.328Z" fill="black"/>
<path d="M253.759 102.457L255.305 105.022L245.682 107.871L246.051 104.738L253.759 102.457Z" fill="#2B7A78"/>
<path opacity="0.2" d="M290.977 146.986C289.636 146.819 285.427 146.259 280.392 145.315C283.259 141.054 291.658 138.865 291.658 138.865L290.977 146.986Z" fill="black"/>
<path d="M327.155 116.844C327.155 116.844 328.584 128.398 323.607 131.238C318.631 134.079 294.126 130.754 291.347 126.1C288.567 121.447 299.025 108.832 299.025 108.832L327.155 116.844Z" fill="#263238"/>
<path d="M228.021 268.876L234.417 270.204L237.653 262.618L240.589 255.718L233.308 253.053L230.509 261.424L228.021 268.876Z" fill="#E4897B"/>
<path opacity="0.2" d="M230.509 261.424L237.653 262.618L240.589 255.718L233.309 253.053L230.509 261.424Z" fill="black"/>
<path d="M231.151 257.421L240.016 260.253C240.016 260.253 263.665 209.433 268.525 209.291C273.385 209.149 322.869 228.665 335.272 217.821C347.674 206.977 329.741 180.828 329.741 180.828C329.741 180.828 299.91 177.169 297.665 182.958C297.112 184.665 296.69 186.401 296.401 188.155C296.061 189.926 295.828 191.413 295.828 191.413C294.905 191.213 264.957 184.571 253.157 191.413C241.153 198.372 231.151 257.421 231.151 257.421Z" fill="#2B7A78"/>
<path opacity="0.6" d="M231.151 257.421L240.016 260.253C240.016 260.253 263.665 209.433 268.525 209.291C273.385 209.149 322.869 228.665 335.272 217.821C347.674 206.977 329.741 180.828 329.741 180.828C329.741 180.828 299.91 177.169 297.665 182.958C297.112 184.665 296.69 186.401 296.401 188.155C296.061 189.926 295.828 191.413 295.828 191.413C294.905 191.213 264.957 184.571 253.157 191.413C241.153 198.372 231.151 257.421 231.151 257.421Z" fill="white"/>
<path d="M282.142 290.554L288.509 289.159L287.284 281.297L286.147 274.096L278.273 274.706L280.315 283.102L282.142 290.554Z" fill="#E4897B"/>
<path opacity="0.2" d="M280.363 283.27L287.323 281.448L286.166 274.172L278.283 274.748L280.363 283.27Z" fill="black"/>
<path d="M243.68 257.43L230.762 253.662L230.208 258.207L240.006 261.181L243.68 257.43Z" fill="#2B7A78"/>
<path d="M313.849 220.395C313.849 220.395 311.827 220.436 280.538 219.183C280.538 219.183 285.213 252.801 287.77 277.973L278.409 279.343C278.409 279.343 256.053 225.449 256.296 216.886C256.539 208.323 267.96 205.816 267.96 205.816C267.96 205.816 290.248 216.886 313.849 220.395Z" fill="#2B7A78"/>
<path opacity="0.6" d="M313.849 220.395C313.849 220.395 311.827 220.436 280.538 219.183C280.538 219.183 285.213 252.801 287.77 277.973L278.409 279.343C278.409 279.343 256.053 225.449 256.296 216.886C256.539 208.323 267.96 205.816 267.96 205.816C267.96 205.816 290.248 216.886 313.849 220.395Z" fill="white"/>
<path opacity="0.1" d="M313.849 220.395C313.849 220.395 311.827 220.436 280.538 219.183C280.538 219.183 285.213 252.801 287.77 277.973L278.409 279.343C278.409 279.343 256.053 225.449 256.296 216.886C256.539 208.323 267.96 205.816 267.96 205.816C267.96 205.816 290.248 216.886 313.849 220.395Z" fill="black"/>
<path d="M289.13 275.533L276.271 276.795L278.759 281.122L289.169 279.978L289.13 275.533Z" fill="#2B7A78"/>
<path opacity="0.1" d="M295.828 191.414L313.275 194.539C313.275 194.539 303.633 189.961 296.401 188.156C296.061 189.927 295.828 191.414 295.828 191.414Z" fill="black"/>
<path d="M329.022 176.844L329.741 180.829L297.665 182.959L296.819 178.239L329.022 176.844Z" fill="#263238"/>
<path opacity="0.2" d="M329.022 176.844L329.741 180.829L297.665 182.959L296.819 178.239L329.022 176.844Z" fill="black"/>
<path d="M318.905 183.519L320.49 183.379L319.66 176.44L318.075 176.58L318.905 183.519Z" fill="#2B7A78"/>
<path d="M304.654 182.828L311.677 182.439L311.335 177.862L304.312 178.251L304.654 182.828Z" fill="white"/>
<path d="M299.225 184.248L300.81 184.107L299.98 177.168L298.395 177.308L299.225 184.248Z" fill="#2B7A78"/>
<path opacity="0.6" d="M318.905 183.519L320.49 183.379L319.66 176.44L318.075 176.58L318.905 183.519Z" fill="white"/>
<path opacity="0.6" d="M299.225 184.248L300.81 184.107L299.98 177.168L298.395 177.308L299.225 184.248Z" fill="white"/>
<path d="M292.357 133.492C298.365 134.919 304.6 135.508 310.825 135.238C321.128 134.787 333.395 139.056 333.395 139.056L328.982 176.818L296.77 178.213C296.77 178.213 285.991 146.709 292.357 133.492Z" fill="#2B7A78"/>
<path d="M297.538 112.166C297.538 112.166 299.346 93.8368 317.172 100.47C339.528 108.824 321.76 131.164 310.825 126.586C299.89 122.008 297.538 112.166 297.538 112.166Z" fill="#263238"/>
<path opacity="0.2" d="M302.534 136.267L303.05 146.627L307.045 141.756C307.045 141.756 305.616 153.21 306.452 159.451C306.452 159.451 307.219 148.264 309.027 141.756L313.275 146.627L319.369 136.334C319.369 136.334 309.504 133.285 302.534 136.267Z" fill="black"/>
<path d="M308.055 138.223L317.28 135.984C311.594 132.642 314.461 125.123 314.461 125.123L305.324 127.88C305.744 128.972 306.069 130.089 306.296 131.222C307.268 136.117 304.683 136.51 304.683 136.51L308.055 138.223Z" fill="#E4897B"/>
<path opacity="0.2" d="M305.324 127.838C305.744 128.93 306.069 130.047 306.296 131.18C310.67 129.668 314.451 125.064 314.451 125.064L305.324 127.838Z" fill="black"/>
<path d="M311.292 104.344C303.196 102.807 299.628 106.015 297.198 113.083C294.156 121.897 294.827 128.697 305.431 128.714C319.836 128.73 324.725 106.901 311.292 104.344Z" fill="#E4897B"/>
<path d="M302.525 113.693C301.613 114.609 300.575 115.425 299.434 116.124C299.597 116.459 299.865 116.748 300.209 116.959C300.552 117.17 300.957 117.295 301.378 117.319L302.525 113.693Z" fill="#DE5753"/>
<path d="M307.628 114.061C307.463 114.629 307.686 115.172 308.133 115.264C308.58 115.356 309.057 114.971 309.222 114.428C309.387 113.885 309.164 113.326 308.716 113.225C308.269 113.125 307.793 113.493 307.628 114.061Z" fill="#263238"/>
<path d="M308.891 113.268L307.599 112.482C307.599 112.482 308.017 113.677 308.891 113.268Z" fill="#263238"/>
<path d="M299.444 112.205C299.278 112.773 299.502 113.317 299.949 113.408C300.396 113.5 300.921 113.116 301.038 112.573C301.154 112.03 300.979 111.47 300.532 111.37C300.085 111.27 299.609 111.637 299.444 112.205Z" fill="#263238"/>
<path d="M300.707 111.413L299.375 110.652C299.375 110.652 299.832 111.814 300.707 111.413Z" fill="#263238"/>
<path d="M312.187 111.296C312.121 111.297 312.057 111.283 312.001 111.255C311.944 111.227 311.898 111.187 311.866 111.138C311.546 110.708 311.118 110.345 310.613 110.076C310.108 109.807 309.54 109.639 308.95 109.584C308.857 109.573 308.772 109.533 308.713 109.471C308.653 109.409 308.623 109.33 308.629 109.25C308.639 109.169 308.685 109.095 308.758 109.043C308.831 108.992 308.924 108.967 309.018 108.974C309.734 109.033 310.425 109.235 311.035 109.562C311.646 109.89 312.16 110.335 312.537 110.862C312.558 110.897 312.571 110.936 312.575 110.976C312.579 111.016 312.574 111.057 312.559 111.095C312.545 111.133 312.521 111.168 312.491 111.198C312.46 111.229 312.423 111.254 312.381 111.271C312.319 111.292 312.253 111.301 312.187 111.296Z" fill="#263238"/>
<path d="M303.137 108.145C303.071 108.144 303.007 108.127 302.953 108.095C302.475 107.898 301.952 107.796 301.422 107.796C300.892 107.796 300.369 107.898 299.891 108.095C299.849 108.11 299.804 108.117 299.758 108.117C299.713 108.117 299.668 108.108 299.626 108.093C299.585 108.077 299.547 108.055 299.516 108.026C299.484 107.998 299.46 107.965 299.444 107.928C299.426 107.891 299.418 107.852 299.418 107.812C299.418 107.773 299.428 107.733 299.446 107.697C299.464 107.661 299.49 107.627 299.523 107.6C299.556 107.572 299.595 107.55 299.638 107.535C300.219 107.303 300.854 107.188 301.494 107.2C302.134 107.212 302.763 107.349 303.332 107.602C303.371 107.624 303.405 107.651 303.431 107.684C303.458 107.716 303.477 107.753 303.487 107.792C303.497 107.831 303.497 107.871 303.489 107.91C303.481 107.949 303.464 107.987 303.439 108.02C303.404 108.06 303.359 108.093 303.306 108.115C303.254 108.136 303.196 108.147 303.137 108.145Z" fill="#263238"/>
<path d="M317.114 117.746C317.114 117.746 314.801 111.313 316.512 107.01C316.512 107.01 301.932 98.3303 297.538 112.165C297.538 112.165 299.161 99.4498 313.148 101.822C327.136 104.195 322.557 121.664 314.033 125.507C314.033 125.507 318.533 121.764 317.114 117.746Z" fill="#263238"/>
<path d="M315.413 119.006C315.698 118.215 316.335 117.554 317.186 117.167C318.037 116.78 319.032 116.699 319.952 116.942C322.402 117.652 322.45 122.306 315.948 122.18C315.005 122.122 314.694 121.278 315.413 119.006Z" fill="#E4897B"/>
<path d="M299.91 119.959C300.126 120.812 300.269 121.678 300.338 122.549H300.863C303.283 122.724 304.469 122.115 305.052 121.396C305.331 121.039 305.504 120.629 305.557 120.201C305.599 119.96 305.599 119.716 305.557 119.475C303.997 119.936 302.34 120.105 300.697 119.968C300.231 119.993 299.91 119.959 299.91 119.959Z" fill="#263238"/>
<path d="M300.736 120.009L300.882 120.769C303.157 120.928 304.77 120.769 305.557 120.242C305.599 120.001 305.599 119.757 305.557 119.516C304.009 119.973 302.366 120.141 300.736 120.009Z" fill="white"/>
<path d="M300.863 122.591C303.283 122.766 304.469 122.157 305.052 121.438C304.134 121.387 303.213 121.474 302.33 121.697C301.744 121.855 301.23 122.168 300.863 122.591Z" fill="#DE5753"/>
<path d="M311.321 104.905C311.321 104.905 311.632 116.961 320.069 118.414C328.506 119.868 319.292 102.909 319.292 102.909C319.292 102.909 306.753 95.8743 298.394 100.837C290.035 105.799 297.558 112.165 297.558 112.165C297.558 112.165 299.298 103.209 311.321 104.905Z" fill="#263238"/>
<path d="M314.539 115.941C314.482 115.94 314.427 115.922 314.384 115.89C308.396 111.847 311.351 104.111 311.38 104.036C311.402 103.983 311.447 103.94 311.505 103.916C311.562 103.891 311.629 103.886 311.691 103.902C311.752 103.921 311.801 103.96 311.828 104.01C311.856 104.06 311.859 104.117 311.837 104.169C311.837 104.245 308.969 111.688 314.685 115.565C314.708 115.583 314.727 115.606 314.739 115.631C314.752 115.656 314.758 115.683 314.758 115.711C314.758 115.738 314.752 115.765 314.739 115.79C314.727 115.816 314.708 115.838 314.685 115.857C314.669 115.879 314.647 115.898 314.622 115.912C314.597 115.927 314.569 115.936 314.539 115.941Z" fill="#263238"/>
<path d="M322.509 120.887C321.44 123.344 318.689 124.722 316.366 123.978C314.043 123.235 313.032 120.637 314.101 118.181C315.17 115.724 317.921 114.346 320.244 115.098C322.567 115.85 323.578 118.44 322.509 120.887Z" fill="#2B7A78"/>
<path opacity="0.4" d="M322.509 120.887C321.44 123.344 318.689 124.722 316.366 123.978C314.043 123.235 313.032 120.637 314.101 118.181C315.17 115.724 317.921 114.346 320.244 115.098C322.567 115.85 323.578 118.44 322.509 120.887Z" fill="black"/>
<path d="M319.788 116.868C319.788 116.868 323.277 103.443 315.453 99.9258C316.344 100.026 317.227 100.174 318.096 100.369C319.068 100.619 325.357 106.066 322.198 118.13L319.788 116.868Z" fill="#2B7A78"/>
<path opacity="0.2" d="M319.788 116.868C319.788 116.868 323.277 103.443 315.453 99.9258C316.344 100.026 317.227 100.174 318.096 100.369C319.068 100.619 325.357 106.066 322.198 118.13L319.788 116.868Z" fill="black"/>
<path d="M305.207 124.554L304.624 124.479L304.78 123.644C309.072 124.211 313.458 123.412 317.114 121.396L317.688 122.065C314.012 124.159 309.58 125.043 305.207 124.554Z" fill="#2B7A78"/>
<g opacity="0.2">
<path d="M305.207 124.554L304.624 124.479L304.78 123.644C309.073 124.211 313.459 123.412 317.114 121.396L317.688 122.065C314.012 124.159 309.581 125.043 305.207 124.554Z" fill="black"/>
</g>
<path d="M322.179 120.553C321.479 122.173 319.652 123.059 318.126 122.591C316.599 122.123 315.919 120.385 316.629 118.765C317.338 117.144 319.156 116.258 320.682 116.726C322.208 117.194 322.888 118.932 322.179 120.553Z" fill="#2B7A78"/>
<path d="M304.294 124.854L303.507 124.762C303.369 124.747 303.237 124.708 303.117 124.649C302.997 124.589 302.891 124.509 302.807 124.415C302.723 124.32 302.662 124.212 302.627 124.096C302.592 123.981 302.583 123.861 302.603 123.743C302.619 123.624 302.663 123.509 302.732 123.405C302.801 123.301 302.894 123.21 303.004 123.137C303.114 123.064 303.241 123.01 303.375 122.979C303.51 122.949 303.65 122.941 303.788 122.958L304.566 123.05C304.843 123.083 305.094 123.208 305.265 123.399C305.436 123.589 305.513 123.83 305.48 124.069C305.441 124.307 305.295 124.523 305.073 124.67C304.852 124.816 304.572 124.883 304.294 124.854Z" fill="#2B7A78"/>
<path opacity="0.4" d="M304.294 124.854L303.507 124.762C303.369 124.747 303.237 124.708 303.117 124.649C302.997 124.589 302.891 124.509 302.807 124.415C302.723 124.32 302.662 124.212 302.627 124.096C302.592 123.981 302.583 123.861 302.603 123.743C302.619 123.624 302.663 123.509 302.732 123.405C302.801 123.301 302.894 123.21 303.004 123.137C303.114 123.064 303.241 123.01 303.375 122.979C303.51 122.949 303.65 122.941 303.788 122.958L304.566 123.05C304.843 123.083 305.094 123.208 305.265 123.399C305.436 123.589 305.513 123.83 305.48 124.069C305.441 124.307 305.295 124.523 305.073 124.67C304.852 124.816 304.572 124.883 304.294 124.854Z" fill="black"/>
<path d="M314.802 133.086L309.028 137.956L311.341 143.938L319.37 136.336L314.802 133.086Z" fill="#2B7A78"/>
<path d="M306.452 134.104L307.385 137.855L304.401 143.16L302.534 136.267L306.452 134.104Z" fill="#2B7A78"/>
<path d="M313.567 137.312L316.92 126.76C316.92 126.76 315.297 124.137 315.647 123.586C315.997 123.034 317.746 115.95 318.99 115.181C320.235 114.413 325.357 115.724 325.872 116.443C326.387 117.161 320.964 126.76 320.964 126.76L319.02 138.197L313.567 137.312Z" fill="#E4897B"/>
<path d="M333.396 139.057C342.63 147.177 324.133 165.573 313.528 164.788C302.924 164.003 313.8 130.652 313.8 130.652L320.604 131.613C320.604 131.613 318.223 146.049 318.971 147.177C319.72 148.305 330.334 136.358 333.396 139.057Z" fill="#2B7A78"/>
<path opacity="0.2" d="M333.396 139.057C342.63 147.177 324.133 165.573 313.528 164.788C302.924 164.003 313.8 130.652 313.8 130.652L320.604 131.613C320.604 131.613 318.223 146.049 318.971 147.177C319.72 148.305 330.334 136.358 333.396 139.057Z" fill="black"/>
<path d="M313.275 129.607L312.274 132.364L321.732 133.083V130.677L313.275 129.607Z" fill="#2B7A78"/>
<path opacity="0.6" d="M298.938 151.422H295.109C294.685 151.422 294.341 151.717 294.341 152.082V158.297C294.341 158.662 294.685 158.957 295.109 158.957H298.938C299.362 158.957 299.706 158.662 299.706 158.297V152.082C299.706 151.717 299.362 151.422 298.938 151.422Z" fill="white"/>
<path opacity="0.2" d="M299.016 151.924H294.661V157.045H299.016V151.924Z" fill="black"/>
<path d="M297.422 149.609H296.46V152.625H297.422V149.609Z" fill="#263238"/>
<path d="M217.446 279.552C218.415 279.164 219.46 278.934 220.527 278.875C220.527 278.875 224.22 277.012 227.875 269.752H231.987C232.684 269.756 233.363 269.945 233.93 270.294C234.497 270.642 234.925 271.133 235.155 271.699C235.224 271.854 235.263 272.017 235.272 272.183C235.223 273.037 235.116 273.888 234.951 274.731C234.35 277.555 233.548 280.345 232.551 283.085L231.851 282.935L233.114 277.655C233.542 275.867 231.345 277.597 230.334 279.401C229.323 281.206 227.759 283.035 223.21 282.141C217.912 281.022 215.784 280.37 217.446 279.552Z" fill="#2B7A78"/>
<path d="M228.624 267.856C228.624 267.856 223.482 277.096 220.527 278.875C220.527 278.875 224.493 280.905 228.624 276.369C233.96 270.521 235.272 272.15 235.272 272.15C235.16 271.141 234.942 270.143 234.621 269.167C233.824 267.296 228.624 267.856 228.624 267.856Z" fill="#E4897B"/>
<path d="M274.035 301.565C274.875 300.996 275.827 300.561 276.844 300.279C276.844 300.279 279.916 297.714 281.461 289.92L285.456 289.084C286.134 288.95 286.844 288.998 287.489 289.222C288.134 289.447 288.683 289.836 289.062 290.337C289.172 290.476 289.257 290.628 289.315 290.788C289.51 291.616 289.643 292.453 289.714 293.295C289.9 296.15 289.884 299.013 289.665 301.866H288.946L288.722 296.486C288.635 294.656 286.992 296.787 286.496 298.75C286.001 300.713 285 302.794 280.334 302.852C274.9 302.902 272.645 302.702 274.035 301.565Z" fill="#2B7A78"/>
<path d="M281.665 287.922C281.665 287.922 279.226 297.947 276.805 300.278C276.805 300.278 281.218 301.447 283.979 296.209C287.556 289.442 289.276 290.762 289.276 290.762C288.892 289.805 288.407 288.879 287.828 287.997C286.564 286.326 281.665 287.922 281.665 287.922Z" fill="#E4897B"/>
<path d="M372.043 85.7148H338.11C335.388 85.7148 333.182 87.6112 333.182 89.9505V102.424C333.182 104.763 335.388 106.659 338.11 106.659H372.043C374.764 106.659 376.971 104.763 376.971 102.424V89.9505C376.971 87.6112 374.764 85.7148 372.043 85.7148Z" fill="#2B7A78"/>
<path d="M344.914 104.27L334.689 116.216L351.184 105.072L344.914 104.27Z" fill="#2B7A78"/>
<path d="M345.294 96.1832C345.296 96.4284 345.213 96.6686 345.055 96.8732C344.898 97.0778 344.673 97.2376 344.41 97.3322C344.147 97.4268 343.857 97.452 343.577 97.4046C343.297 97.3572 343.04 97.2392 342.838 97.0658C342.636 96.8924 342.499 96.6713 342.444 96.4307C342.388 96.1901 342.418 95.9408 342.528 95.7145C342.638 95.4882 342.824 95.2952 343.062 95.16C343.3 95.0248 343.579 94.9535 343.865 94.9551C344.244 94.9551 344.607 95.0845 344.875 95.3148C345.143 95.5451 345.294 95.8575 345.294 96.1832Z" fill="white"/>
<path d="M352.768 96.1832C352.77 96.4284 352.687 96.6686 352.53 96.8732C352.372 97.0778 352.148 97.2376 351.884 97.3322C351.621 97.4268 351.331 97.452 351.051 97.4046C350.771 97.3572 350.514 97.2392 350.312 97.0658C350.11 96.8924 349.973 96.6713 349.918 96.4307C349.863 96.1901 349.892 95.9408 350.002 95.7145C350.112 95.4882 350.298 95.2952 350.536 95.16C350.774 95.0248 351.054 94.9535 351.339 94.9551C351.718 94.9551 352.082 95.0845 352.349 95.3148C352.617 95.5451 352.768 95.8575 352.768 96.1832Z" fill="white"/>
<path d="M360.243 96.1832C360.245 96.4284 360.162 96.6686 360.004 96.8732C359.847 97.0778 359.623 97.2376 359.359 97.3322C359.096 97.4268 358.806 97.452 358.526 97.4046C358.246 97.3572 357.989 97.2392 357.787 97.0658C357.585 96.8924 357.448 96.6713 357.393 96.4307C357.338 96.1901 357.367 95.9408 357.477 95.7145C357.587 95.4882 357.773 95.2952 358.011 95.16C358.249 95.0248 358.529 94.9535 358.814 94.9551C359.193 94.9551 359.556 95.0845 359.824 95.3148C360.092 95.5451 360.243 95.8575 360.243 96.1832Z" fill="white"/>
<path d="M367.717 96.1832C367.719 96.4284 367.636 96.6686 367.479 96.8732C367.321 97.0778 367.097 97.2376 366.834 97.3322C366.57 97.4268 366.28 97.452 366 97.4046C365.72 97.3572 365.463 97.2392 365.261 97.0658C365.06 96.8924 364.922 96.6713 364.867 96.4307C364.812 96.1901 364.841 95.9408 364.951 95.7145C365.062 95.4882 365.247 95.2952 365.485 95.16C365.724 95.0248 366.003 94.9535 366.288 94.9551C366.667 94.9551 367.031 95.0845 367.299 95.3148C367.567 95.5451 367.717 95.8575 367.717 96.1832Z" fill="white"/>
<path d="M244.627 75.8352L220.418 64.6268C219.766 64.3249 218.952 64.5345 218.601 65.0951L210.875 77.4222C210.524 77.9828 210.768 78.682 211.42 78.984L235.629 90.1924C236.281 90.4944 237.094 90.2847 237.446 89.7242L245.172 77.397C245.523 76.8364 245.279 76.1372 244.627 75.8352Z" fill="#2B7A78"/>
<path opacity="0.7" d="M244.627 75.8352L220.418 64.6268C219.766 64.3249 218.952 64.5345 218.601 65.0951L210.875 77.4222C210.524 77.9828 210.768 78.682 211.42 78.984L235.629 90.1924C236.281 90.4944 237.094 90.2847 237.446 89.7242L245.172 77.397C245.523 76.8364 245.279 76.1372 244.627 75.8352Z" fill="#95BDBC"/>
<path opacity="0.2" d="M217.971 66.1133L225.504 78.2688C225.793 78.7319 226.236 79.1108 226.775 79.3577C227.315 79.6045 227.928 79.7082 228.537 79.6556L244.293 78.319L228.255 80.3491C227.554 80.4381 226.838 80.3301 226.215 80.041C225.591 79.7519 225.093 79.2973 224.794 78.745L217.971 66.1133Z" fill="black"/>
<path d="M199.59 63.8669C199.853 59.2219 203.858 49.8567 208.727 46.9912C213.597 44.1257 210.389 48.094 210.389 48.094C210.389 48.094 215.006 44.2343 217.436 44.3512C219.866 44.4682 217.436 46.8575 217.436 46.8575C217.436 46.8575 222.442 44.2092 224.746 44.3512C227.049 44.4932 224.746 46.7823 224.746 46.7823C224.746 46.7823 228.848 44.276 230.51 45.454C232.172 46.6319 209.233 59.6564 206.676 64.953C204.12 70.2496 199.328 68.5537 199.59 63.8669Z" fill="#2B7A78"/>
<path opacity="0.4" d="M199.59 63.8669C199.853 59.2219 203.858 49.8567 208.727 46.9912C213.597 44.1257 210.389 48.094 210.389 48.094C210.389 48.094 215.006 44.2343 217.436 44.3512C219.866 44.4682 217.436 46.8575 217.436 46.8575C217.436 46.8575 222.442 44.2092 224.746 44.3512C227.049 44.4932 224.746 46.7823 224.746 46.7823C224.746 46.7823 228.848 44.276 230.51 45.454C232.172 46.6319 209.233 59.6564 206.676 64.953C204.12 70.2496 199.328 68.5537 199.59 63.8669Z" fill="white"/>
<path d="M219.303 63.1641L222.365 64.8349C222.413 64.8607 222.45 64.8997 222.469 64.9457C222.489 64.9916 222.49 65.0419 222.472 65.0883C222.454 65.1346 222.418 65.1745 222.37 65.2013C222.323 65.2281 222.266 65.2403 222.209 65.2359L218.992 65.0187L219.264 67.1407C219.272 67.1907 219.261 67.2416 219.232 67.2858C219.204 67.3299 219.16 67.365 219.106 67.3856C219.052 67.4063 218.992 67.4115 218.935 67.4005C218.878 67.3895 218.826 67.3628 218.788 67.3245L216.931 65.5367L219.303 63.1641Z" fill="#2B7A78"/>
<path opacity="0.3" d="M219.303 63.1641L222.365 64.8349C222.413 64.8607 222.45 64.8997 222.469 64.9457C222.489 64.9916 222.49 65.0419 222.472 65.0883C222.454 65.1346 222.418 65.1745 222.37 65.2013C222.323 65.2281 222.266 65.2403 222.209 65.2359L218.992 65.0187L219.264 67.1407C219.272 67.1907 219.261 67.2416 219.232 67.2858C219.204 67.3299 219.16 67.365 219.106 67.3856C219.052 67.4063 218.992 67.4115 218.935 67.4005C218.878 67.3895 218.826 67.3628 218.788 67.3245L216.931 65.5367L219.303 63.1641Z" fill="white"/>
<path d="M176.292 52.7066C176.292 52.7066 180.529 50.2003 186.935 51.821C186.935 51.821 188.772 59.0976 193.817 61.5204C196.587 62.8487 203.362 62.7318 208.727 61.2447C215.094 59.4736 218.204 59.4736 219.361 61.5204C220.518 63.5672 219.234 65.6976 214.365 66.6917C209.495 67.6859 205.617 74.9542 196.801 75.046C187.985 75.1379 183.3 67.5271 185.526 60.8437C183.418 57.427 180.213 54.6026 176.292 52.7066Z" fill="#2B7A78"/>
<path opacity="0.5" d="M176.292 52.7066C176.292 52.7066 180.529 50.2003 186.935 51.821C186.935 51.821 188.772 59.0976 193.817 61.5204C196.587 62.8487 203.362 62.7318 208.727 61.2447C215.094 59.4736 218.204 59.4736 219.361 61.5204C220.518 63.5672 219.234 65.6976 214.365 66.6917C209.495 67.6859 205.617 74.9542 196.801 75.046C187.985 75.1379 183.3 67.5271 185.526 60.8437C183.418 57.427 180.213 54.6026 176.292 52.7066Z" fill="white"/>
<path d="M216.93 62.8974C216.93 62.9718 216.905 63.0445 216.857 63.1063C216.809 63.1681 216.74 63.2163 216.66 63.2448C216.581 63.2732 216.493 63.2807 216.408 63.2662C216.323 63.2516 216.245 63.2158 216.184 63.1633C216.123 63.1107 216.081 63.0437 216.064 62.9708C216.047 62.8979 216.056 62.8223 216.089 62.7536C216.122 62.6849 216.178 62.6261 216.25 62.5848C216.322 62.5435 216.407 62.5215 216.493 62.5215C216.609 62.5215 216.72 62.5611 216.802 62.6316C216.884 62.7021 216.93 62.7977 216.93 62.8974Z" fill="#263238"/>
<path d="M194.75 69.013C189.53 70.2327 177.924 69.8484 173.259 66.7573C168.593 63.6662 173.959 65.0864 173.959 65.0864C173.959 65.0864 168.272 62.5049 167.641 60.4832C167.009 58.4614 170.44 59.6979 170.44 59.6979C170.44 59.6979 165.969 56.4314 165.386 54.5099C164.802 52.5884 168.068 53.758 168.068 53.758C168.068 53.758 163.996 51.1848 164.822 49.4555C165.648 47.7261 187.119 62.4632 193.758 62.9227C200.397 63.3821 200.037 67.7765 194.75 69.013Z" fill="#2B7A78"/>
<path opacity="0.4" d="M194.75 69.013C189.53 70.2327 177.924 69.8484 173.259 66.7573C168.593 63.6662 173.959 65.0864 173.959 65.0864C173.959 65.0864 168.272 62.5049 167.641 60.4832C167.009 58.4614 170.44 59.6979 170.44 59.6979C170.44 59.6979 165.969 56.4314 165.386 54.5099C164.802 52.5884 168.068 53.758 168.068 53.758C168.068 53.758 163.996 51.1848 164.822 49.4555C165.648 47.7261 187.119 62.4632 193.758 62.9227C200.397 63.3821 200.037 67.7765 194.75 69.013Z" fill="white"/>
<path d="M160.535 48.6864C160.497 48.6945 160.457 48.6945 160.419 48.6864C159.515 48.4107 158.591 48.1517 157.658 47.9094C157.566 47.8844 157.489 47.8292 157.443 47.7558C157.398 47.6824 157.388 47.5965 157.415 47.5168C157.444 47.4375 157.508 47.3712 157.594 47.3321C157.679 47.293 157.779 47.2844 157.872 47.3079C158.844 47.5502 159.748 47.8175 160.662 48.1434C160.743 48.1673 160.812 48.2155 160.855 48.2792C160.899 48.343 160.915 48.418 160.899 48.4908C160.884 48.5636 160.839 48.6292 160.772 48.6758C160.705 48.7225 160.621 48.747 160.535 48.7449V48.6864Z" fill="#2B7A78"/>
<path d="M101.788 116.498C101.691 116.499 101.599 116.466 101.53 116.408C101.461 116.351 101.421 116.272 101.418 116.189C101.418 116.107 101.456 116.027 101.523 115.968C101.59 115.908 101.682 115.874 101.778 115.872C103.712 115.848 105.64 115.686 107.542 115.387C107.637 115.373 107.735 115.391 107.815 115.438C107.895 115.484 107.951 115.556 107.97 115.638C107.979 115.679 107.98 115.721 107.97 115.761C107.961 115.802 107.942 115.841 107.915 115.875C107.887 115.909 107.852 115.939 107.812 115.961C107.771 115.983 107.726 115.999 107.678 116.006C105.734 116.311 103.764 116.476 101.788 116.498ZM95.9557 116.231C93.9943 116.051 92.0469 115.772 90.1237 115.396C90.0285 115.378 89.9454 115.328 89.8926 115.258C89.8398 115.187 89.8216 115.102 89.8418 115.02C89.8649 114.939 89.9235 114.87 90.0052 114.826C90.0869 114.783 90.1852 114.768 90.2792 114.786C92.172 115.152 94.0864 115.431 96.014 115.621C96.1005 115.633 96.1791 115.672 96.2358 115.729C96.2925 115.786 96.3236 115.859 96.3236 115.935C96.3236 116.01 96.2925 116.083 96.2358 116.14C96.1791 116.197 96.1005 116.236 96.014 116.248L95.9557 116.231ZM113.228 114.56C113.158 114.561 113.09 114.543 113.031 114.511C112.972 114.478 112.926 114.431 112.898 114.376C112.877 114.339 112.865 114.298 112.863 114.256C112.861 114.214 112.869 114.173 112.886 114.134C112.903 114.095 112.93 114.059 112.963 114.029C112.997 113.999 113.038 113.975 113.082 113.959C114.848 113.305 116.487 112.423 117.942 111.344C118.017 111.295 118.11 111.272 118.203 111.28C118.296 111.288 118.382 111.326 118.444 111.387C118.506 111.447 118.538 111.526 118.536 111.606C118.533 111.687 118.494 111.763 118.428 111.82C116.914 112.937 115.214 113.852 113.384 114.535C113.33 114.561 113.27 114.575 113.209 114.577L113.228 114.56ZM84.5638 113.992C84.5255 114 84.4855 114 84.4472 113.992C82.6004 113.466 80.7439 112.848 78.9457 112.171C78.866 112.132 78.8061 112.069 78.7777 111.994C78.7493 111.919 78.7544 111.837 78.792 111.765C78.8296 111.693 78.897 111.636 78.9812 111.604C79.0653 111.573 79.16 111.569 79.247 111.594C81.016 112.263 82.8434 112.873 84.6805 113.399C84.7714 113.427 84.8458 113.485 84.8876 113.56C84.9294 113.635 84.9353 113.721 84.904 113.8C84.8766 113.858 84.8293 113.907 84.7686 113.941C84.7079 113.976 84.6365 113.993 84.5638 113.992ZM73.8718 109.932C73.8148 109.947 73.7539 109.947 73.6969 109.932C71.957 109.097 70.2657 108.194 68.6911 107.25C68.6521 107.227 68.619 107.197 68.5935 107.162C68.5681 107.128 68.5508 107.089 68.5427 107.049C68.5345 107.008 68.5357 106.967 68.5462 106.927C68.5566 106.887 68.5762 106.849 68.6036 106.816C68.631 106.782 68.6659 106.754 68.7061 106.732C68.7464 106.71 68.7913 106.695 68.8382 106.688C68.8851 106.681 68.9332 106.682 68.9797 106.691C69.0262 106.7 69.0701 106.717 69.109 106.741C70.6642 107.668 72.3264 108.562 74.0565 109.389C74.0984 109.409 74.1352 109.436 74.1648 109.468C74.1944 109.501 74.2161 109.538 74.2288 109.577C74.2415 109.617 74.2448 109.659 74.2386 109.699C74.2324 109.74 74.2167 109.779 74.1926 109.815C74.1515 109.869 74.0926 109.912 74.0233 109.937C73.9541 109.962 73.8777 109.969 73.8038 109.957L73.8718 109.932ZM121.928 108.019C121.87 108.034 121.81 108.034 121.753 108.019C121.711 107.999 121.674 107.972 121.644 107.94C121.615 107.907 121.593 107.87 121.58 107.83C121.568 107.791 121.564 107.749 121.57 107.708C121.577 107.668 121.592 107.628 121.616 107.593C121.918 107.142 122.2 106.674 122.452 106.189C122.993 105.166 123.417 104.1 123.716 103.006C123.741 102.925 123.802 102.856 123.885 102.812C123.968 102.769 124.068 102.754 124.163 102.772C124.257 102.794 124.337 102.846 124.386 102.918C124.435 102.99 124.449 103.076 124.426 103.157C124.108 104.287 123.669 105.389 123.113 106.448C122.851 106.949 122.559 107.442 122.248 107.91C122.207 107.964 122.147 108.005 122.078 108.029C122.009 108.053 121.932 108.058 121.859 108.044L121.928 108.019ZM64.2879 104.159C64.2024 104.158 64.1199 104.131 64.0546 104.084C62.5744 102.96 61.1875 101.749 59.9042 100.458C59.8371 100.399 59.7996 100.319 59.7996 100.237C59.7996 100.154 59.8371 100.075 59.9042 100.015C59.9715 99.9583 60.0623 99.9262 60.1569 99.9262C60.2515 99.9262 60.3423 99.9583 60.4096 100.015C61.6697 101.279 63.0306 102.465 64.4823 103.566C64.5494 103.625 64.5869 103.705 64.5869 103.787C64.5869 103.87 64.5494 103.949 64.4823 104.009C64.4582 104.054 64.4218 104.094 64.3761 104.124C64.3304 104.155 64.2768 104.175 64.2199 104.184L64.2879 104.159ZM124.727 98.3612C124.679 98.3612 124.631 98.353 124.587 98.3369C124.543 98.3209 124.503 98.2974 124.469 98.2678C124.436 98.2382 124.409 98.2031 124.392 98.1646C124.374 98.1262 124.366 98.0851 124.367 98.0438C124.353 96.3823 124.174 94.725 123.833 93.0896C123.816 93.0078 123.836 92.9233 123.891 92.8546C123.946 92.7859 124.029 92.7383 124.124 92.722C124.221 92.7097 124.319 92.7298 124.398 92.778C124.478 92.8262 124.533 92.8989 124.552 92.981C124.902 94.6521 125.084 96.3459 125.096 98.0438C125.096 98.128 125.057 98.2087 124.988 98.2682C124.919 98.3278 124.825 98.3612 124.727 98.3612ZM122.783 88.453C122.704 88.4523 122.628 88.4301 122.565 88.3895C122.502 88.3489 122.456 88.2922 122.433 88.2274C121.937 86.7654 121.325 85.2115 120.576 83.4738C120.558 83.435 120.549 83.3933 120.549 83.3513C120.55 83.3093 120.561 83.2679 120.581 83.2296C120.601 83.1913 120.63 83.1569 120.666 83.1285C120.702 83.1001 120.744 83.0783 120.79 83.0644C120.881 83.0371 120.98 83.041 121.067 83.0753C121.154 83.1096 121.222 83.1716 121.257 83.2482C122.015 85.0027 122.627 86.59 123.133 88.0436C123.16 88.1234 123.15 88.2092 123.105 88.2826C123.059 88.3561 122.982 88.4112 122.89 88.4363L122.783 88.453ZM118.759 78.9708C118.691 78.9713 118.625 78.9549 118.568 78.9238C118.511 78.8927 118.466 78.8481 118.438 78.7954C117.816 77.4587 116.97 75.9215 116.086 74.2924V74.2089C116.06 74.136 116.066 74.0578 116.102 73.9884C116.139 73.919 116.202 73.8631 116.282 73.8307C116.362 73.7983 116.453 73.7917 116.539 73.8121C116.624 73.8324 116.698 73.8783 116.747 73.9415V74.0251C117.641 75.6959 118.477 77.2081 119.099 78.5197C119.138 78.5984 119.14 78.6873 119.103 78.767C119.067 78.8467 118.996 78.911 118.905 78.9458L118.759 78.9708ZM113.899 69.7811C113.827 69.783 113.757 69.7666 113.696 69.7338C113.635 69.7011 113.588 69.6535 113.559 69.5973C112.684 67.8512 111.984 66.3057 111.43 64.8771C111.399 64.7984 111.405 64.7123 111.446 64.6373C111.488 64.5623 111.563 64.5044 111.653 64.4761C111.746 64.4496 111.848 64.4558 111.935 64.4934C112.022 64.531 112.089 64.5969 112.12 64.6766C112.664 66.0885 113.354 67.6173 114.229 69.3466C114.248 69.3844 114.258 69.4251 114.259 69.4663C114.259 69.5075 114.25 69.5484 114.232 69.5865C114.214 69.6246 114.187 69.6593 114.154 69.6884C114.12 69.7175 114.079 69.7405 114.035 69.756C114.002 69.7856 113.963 69.8085 113.918 69.8228L113.899 69.7811ZM110.341 60.207C110.254 60.206 110.171 60.1786 110.105 60.1297C110.039 60.0808 109.995 60.0135 109.982 59.9397C109.815 59.0445 109.73 58.1394 109.729 57.2329C109.721 56.4229 109.806 55.6142 109.982 54.8185C110.01 54.7443 110.068 54.6817 110.147 54.6424C110.225 54.6031 110.317 54.59 110.406 54.6054C110.495 54.6209 110.574 54.664 110.629 54.7264C110.683 54.7887 110.709 54.8661 110.701 54.9438C110.533 55.6981 110.451 56.4648 110.458 57.2329C110.461 58.1086 110.542 58.9827 110.701 59.8478C110.713 59.9293 110.688 60.0116 110.632 60.0782C110.576 60.1448 110.493 60.1908 110.4 60.207H110.341ZM112.878 50.7165C112.794 50.7185 112.711 50.6948 112.645 50.6497C112.578 50.5904 112.54 50.511 112.54 50.4283C112.54 50.3456 112.578 50.2661 112.645 50.2069C113.95 48.8966 115.537 47.8157 117.32 47.0239C117.406 46.9849 117.505 46.9762 117.598 46.9996C117.691 47.0231 117.769 47.0767 117.816 47.1492C117.858 47.2239 117.865 47.3096 117.836 47.3887C117.808 47.4679 117.745 47.5346 117.66 47.5753C115.963 48.3298 114.451 49.3596 113.209 50.6079C113.177 50.654 113.131 50.6922 113.076 50.7186C113.022 50.7449 112.96 50.7586 112.898 50.7583L112.878 50.7165ZM152.069 46.6229H151.991C150.125 46.2887 148.191 46.0047 146.237 45.7874C146.19 45.7823 146.144 45.7691 146.103 45.7486C146.061 45.7281 146.025 45.7007 145.996 45.6681C145.967 45.6354 145.946 45.5981 145.934 45.5584C145.922 45.5186 145.919 45.4772 145.926 45.4366C145.932 45.3958 145.948 45.3565 145.971 45.3209C145.995 45.2853 146.027 45.2542 146.065 45.2293C146.103 45.2044 146.146 45.1863 146.193 45.1759C146.239 45.1656 146.287 45.1633 146.334 45.1692C148.278 45.3864 150.222 45.6705 152.166 46.0047C152.254 46.0219 152.331 46.0658 152.383 46.1281C152.435 46.1904 152.46 46.267 152.451 46.3435C152.443 46.4201 152.403 46.4914 152.338 46.5444C152.273 46.5973 152.188 46.6281 152.098 46.6312L152.069 46.6229ZM122.909 45.9128C122.862 45.9171 122.814 45.9135 122.769 45.902C122.723 45.8905 122.681 45.8714 122.644 45.8458C122.607 45.8202 122.576 45.7886 122.553 45.7528C122.53 45.717 122.516 45.6777 122.511 45.6371C122.506 45.5965 122.51 45.5554 122.523 45.5162C122.537 45.477 122.559 45.4405 122.589 45.4087C122.618 45.3769 122.655 45.3504 122.697 45.3308C122.738 45.3113 122.784 45.2989 122.831 45.2945C124.751 44.9244 126.701 44.6814 128.663 44.5677C128.76 44.5631 128.855 44.5911 128.927 44.6458C129 44.7004 129.045 44.7774 129.052 44.8601C129.056 44.9014 129.051 44.9429 129.035 44.9823C129.02 45.0216 128.996 45.0579 128.965 45.0891C128.933 45.1203 128.894 45.1457 128.851 45.1637C128.807 45.1818 128.76 45.1922 128.712 45.1943C126.782 45.3016 124.864 45.539 122.977 45.9044L122.909 45.9128ZM140.405 45.3279C138.714 45.2277 136.702 45.1191 134.573 45.0857C134.477 45.0835 134.386 45.0491 134.318 44.9898C134.251 44.9305 134.214 44.851 134.214 44.7682C134.214 44.7269 134.223 44.686 134.242 44.648C134.261 44.6099 134.288 44.5754 134.322 44.5466C134.357 44.5178 134.398 44.4952 134.442 44.4802C134.487 44.4652 134.535 44.458 134.583 44.4591C136.731 44.5009 138.763 44.6011 140.415 44.7014C140.463 44.7035 140.51 44.7139 140.554 44.7319C140.597 44.75 140.636 44.7754 140.667 44.8065C140.699 44.8377 140.723 44.874 140.738 44.9134C140.753 44.9527 140.759 44.9943 140.755 45.0355C140.762 45.111 140.738 45.1861 140.686 45.2474C140.634 45.3087 140.559 45.352 140.473 45.3697L140.405 45.3279Z" fill="#2B7A78"/>
<path d="M56.7259 96.4494C56.6607 96.4504 56.5964 96.4362 56.5399 96.4082C56.4835 96.3802 56.4369 96.3396 56.4051 96.2906C55.9136 95.5572 55.4754 94.7983 55.093 94.0183C55.0739 93.9805 55.0638 93.9398 55.0633 93.8986C55.0627 93.8574 55.0718 93.8166 55.0899 93.7784C55.108 93.7403 55.1348 93.7056 55.1687 93.6765C55.2026 93.6474 55.243 93.6244 55.2874 93.6089C55.3764 93.5781 55.476 93.5783 55.5649 93.6095C55.6538 93.6407 55.7251 93.7004 55.7636 93.776C56.139 94.5314 56.5641 95.2677 57.037 95.9815C57.0733 96.0281 57.0938 96.0824 57.0961 96.1383C57.0984 96.1943 57.0825 96.2497 57.0502 96.2984C57.0179 96.347 56.9704 96.3869 56.9131 96.4136C56.8558 96.4403 56.791 96.4527 56.7259 96.4494Z" fill="#2B7A78"/>
<path d="M174.776 162.482H137.878V168.982H174.776V162.482Z" fill="white"/>
<path opacity="0.1" d="M174.776 162.482H137.878V168.982H174.776V162.482Z" fill="black"/>
<path opacity="0.1" d="M153.421 162.482H137.878V168.982H153.421V162.482Z" fill="black"/>
<path opacity="0.1" d="M137.878 163.418H170.722L137.878 164.22V163.418Z" fill="black"/>
<path opacity="0.1" d="M174.776 164.547L146.306 165.157H174.776V164.547Z" fill="black"/>
<path opacity="0.1" d="M139.385 166.366L153.42 165.873L174.056 166.366L153.42 166.642L139.385 166.366Z" fill="black"/>
<path opacity="0.1" d="M137.878 167.746H162.198L137.878 168.239V167.746Z" fill="black"/>
<path opacity="0.1" d="M174.717 168.238L158.475 168.497H174.776L174.717 168.238Z" fill="black"/>
<path d="M169.643 155.982H132.746V162.482H169.643V155.982Z" fill="white"/>
<path opacity="0.1" d="M169.643 155.982H132.746V162.482H169.643V155.982Z" fill="black"/>
<path opacity="0.1" d="M148.289 155.982H132.746V162.482H148.289V155.982Z" fill="black"/>
<path opacity="0.1" d="M132.746 156.918H165.59L132.746 157.712V156.918Z" fill="black"/>
<path opacity="0.1" d="M169.643 158.047L141.174 158.657H169.643V158.047Z" fill="black"/>
<path opacity="0.1" d="M134.243 159.866L148.279 159.365L168.914 159.866L148.279 160.142L134.243 159.866Z" fill="black"/>
<path opacity="0.1" d="M132.746 161.236H157.066L132.746 161.738V161.236Z" fill="black"/>
<path opacity="0.1" d="M169.585 161.738L153.343 161.997H169.643L169.585 161.738Z" fill="black"/>
<path d="M173.852 149.475H136.955V155.974H173.852V149.475Z" fill="white"/>
<path opacity="0.1" d="M173.852 149.475H136.955V155.974H173.852V149.475Z" fill="black"/>
<path opacity="0.1" d="M152.497 149.475H136.955V155.974H152.497V149.475Z" fill="black"/>
<path opacity="0.1" d="M136.955 150.41H169.799L136.955 151.212V150.41Z" fill="black"/>
<path opacity="0.1" d="M173.852 151.537L145.382 152.147H173.852V151.537Z" fill="black"/>
<path opacity="0.1" d="M138.461 153.36L152.497 152.867L173.133 153.36L152.497 153.636L138.461 153.36Z" fill="black"/>
<path opacity="0.1" d="M136.955 154.736H161.275L136.955 155.229V154.736Z" fill="black"/>
<path opacity="0.1" d="M173.803 155.23L157.561 155.489H173.852L173.803 155.23Z" fill="black"/>
<path d="M198.434 168.849L199.386 165.732H238.811L256.958 167.295L257.648 168.849H198.434Z" fill="#263238"/>
<path opacity="0.4" d="M238.811 165.732V168.849H198.434L199.386 165.732H238.811Z" fill="black"/>
<path d="M230.889 150.819C230.942 151.197 230.9 151.58 230.766 151.943C230.632 152.306 230.41 152.64 230.113 152.922C229.817 153.205 229.453 153.43 229.047 153.581C228.641 153.733 228.202 153.808 227.759 153.802H167.379C166.435 153.784 165.53 153.472 164.834 152.923C164.139 152.374 163.699 151.627 163.598 150.819L160.011 117.594C159.972 117.27 159.999 116.942 160.089 116.625C160.256 116.042 160.65 115.525 161.204 115.159C161.759 114.793 162.442 114.6 163.141 114.612H223.56C224.505 114.629 225.409 114.942 226.105 115.491C226.801 116.04 227.24 116.787 227.341 117.594L230.889 150.819Z" fill="#263238"/>
<path opacity="0.4" d="M227.546 153.804H167.379C166.435 153.786 165.53 153.474 164.834 152.925C164.139 152.376 163.699 151.628 163.598 150.821L160.011 117.596C159.972 117.272 159.999 116.944 160.089 116.627H220.256C221.2 116.645 222.104 116.957 222.8 117.506C223.496 118.055 223.935 118.802 224.037 119.609L227.623 152.835C227.662 153.159 227.636 153.487 227.546 153.804Z" fill="black"/>
<path d="M186.061 133.426H198.551L195.227 164.161L214.978 166.709V168.848H173.376V166.709L181.9 164.161L186.061 133.426Z" fill="#263238"/>
<path opacity="0.1" d="M198.551 133.426L189.298 168.364L181.901 168.171L186.061 133.426H198.551Z" fill="white"/>
<path d="M198.492 302.86H192.544L181.842 174.83H189.744L198.492 302.86Z" fill="#263238"/>
<path opacity="0.4" d="M198.502 302.86H192.544L182.367 181.196L181.842 175.039H189.744L190.172 181.196L198.502 302.86Z" fill="white"/>
<path opacity="0.2" d="M190.172 180.887H182.367L181.842 175.039H189.744L190.172 180.887Z" fill="black"/>
<path d="M242.193 302.86H236.244L235.272 174.83H243.165L242.193 302.86Z" fill="#263238"/>
<path opacity="0.5" d="M243.175 175.039L243.019 195.699L242.203 302.86H236.244L235.428 195.699L235.272 175.039H243.175Z" fill="white"/>
<path opacity="0.2" d="M243.175 175.039L243.019 195.925H235.428L235.272 175.039H243.175Z" fill="black"/>
<path d="M305.413 302.86H299.464L288.762 174.83H296.665L305.413 302.86Z" fill="#263238"/>
<path opacity="0.5" d="M305.422 302.86H299.464L289.287 181.196L288.762 175.039H296.665L297.092 181.196L305.422 302.86Z" fill="white"/>
<path opacity="0.2" d="M297.092 180.887H289.287L288.762 175.039H296.665L297.092 180.887Z" fill="black"/>
<path d="M130.374 302.86H124.426L133.174 174.83H141.076L130.374 302.86Z" fill="#263238"/>
<path opacity="0.5" d="M141.076 175.039L140.551 181.196L130.374 302.86H124.426L132.746 181.196L133.174 175.039H141.076Z" fill="white"/>
<path opacity="0.2" d="M133.174 175.039H141.076L140.551 180.887H132.746L133.174 175.039Z" fill="black"/>
<path d="M126.914 171.639H302.924V176.242C302.924 176.479 302.87 176.714 302.764 176.932C302.659 177.151 302.504 177.35 302.309 177.518C302.114 177.685 301.883 177.818 301.628 177.909C301.373 178 301.1 178.046 300.825 178.046H129.014C128.457 178.046 127.923 177.856 127.529 177.518C127.136 177.179 126.914 176.721 126.914 176.242V171.639Z" fill="#2B7A78"/>
<path opacity="0.6" d="M126.914 171.639H302.924V176.242C302.924 176.479 302.87 176.714 302.764 176.932C302.659 177.151 302.504 177.35 302.309 177.518C302.114 177.685 301.883 177.818 301.628 177.909C301.373 178 301.1 178.046 300.825 178.046H129.014C128.457 178.046 127.923 177.856 127.529 177.518C127.136 177.179 126.914 176.721 126.914 176.242V171.639Z" fill="white"/>
<path opacity="0.2" d="M302.924 171.631H126.914V174.839H302.924V171.631Z" fill="black"/>
<path d="M306.617 172.473H123.22C122.664 172.473 122.13 172.283 121.736 171.944C121.342 171.606 121.121 171.147 121.121 170.668C121.121 170.189 121.342 169.729 121.735 169.389C122.129 169.05 122.663 168.858 123.22 168.855H306.617C307.175 168.858 307.709 169.05 308.103 169.389C308.496 169.729 308.717 170.189 308.717 170.668C308.717 171.147 308.496 171.606 308.102 171.944C307.708 172.283 307.174 172.473 306.617 172.473Z" fill="#2B7A78"/>
<path opacity="0.6" d="M306.617 172.473H123.22C122.664 172.473 122.13 172.283 121.736 171.944C121.342 171.606 121.121 171.147 121.121 170.668C121.121 170.189 121.342 169.729 121.735 169.389C122.129 169.05 122.663 168.858 123.22 168.855H306.617C307.175 168.858 307.709 169.05 308.103 169.389C308.496 169.729 308.717 170.189 308.717 170.668C308.717 171.147 308.496 171.606 308.102 171.944C307.708 172.283 307.174 172.473 306.617 172.473Z" fill="white"/>
<path d="M263.227 163.284L265.482 160.377C265.705 160.091 266.005 159.857 266.358 159.695C266.711 159.533 267.104 159.449 267.504 159.449H270.362C270.599 159.45 270.835 159.481 271.062 159.541L281.258 162.198C281.837 162.346 282.33 162.678 282.638 163.125L284.106 165.239L263.227 163.284Z" fill="#2B7A78"/>
<path opacity="0.2" d="M284.106 165.239L269.244 163.852L263.208 163.284L265.463 160.377C265.685 160.091 265.986 159.857 266.338 159.695C266.691 159.533 267.085 159.449 267.484 159.449H270.342C270.582 159.45 270.821 159.481 271.052 159.541L271.275 159.6L281.238 162.198C281.821 162.345 282.317 162.677 282.628 163.125L284.106 165.239Z" fill="black"/>
<path opacity="0.2" d="M284.106 165.239L269.244 163.852L271.276 159.6L281.239 162.198C281.821 162.345 282.318 162.677 282.629 163.125L284.106 165.239Z" fill="black"/>
<path d="M291.163 168.573V168.848H259.65L260.817 164.93C261.033 164.21 261.522 163.573 262.207 163.119C262.892 162.665 263.733 162.421 264.598 162.424H278.575C279.04 162.422 279.501 162.493 279.936 162.633L281.686 163.192L288.626 165.415C289.375 165.653 290.02 166.084 290.474 166.649C290.928 167.215 291.168 167.886 291.163 168.573Z" fill="#2B7A78"/>
<path opacity="0.2" d="M291.163 168.573V168.849H278.225L278.915 164.613C278.96 164.351 279.072 164.1 279.244 163.879C279.416 163.659 279.643 163.474 279.908 163.339C280.174 163.203 280.471 163.121 280.779 163.097C281.086 163.073 281.396 163.109 281.686 163.201L288.626 165.424C289.373 165.662 290.018 166.092 290.471 166.655C290.925 167.218 291.166 167.888 291.163 168.573Z" fill="black"/>
<path d="M280.238 165.972L284.359 155.353C284.399 155.245 284.466 155.146 284.556 155.062C284.646 154.979 284.755 154.913 284.878 154.87C285 154.827 285.132 154.808 285.264 154.813C285.396 154.819 285.525 154.849 285.642 154.902C285.821 154.991 285.963 155.126 286.047 155.288C286.131 155.45 286.152 155.631 286.108 155.805L282.638 167.133C282.638 167.133 280.335 167.935 280.238 165.972Z" fill="#263238"/>
<path opacity="0.2" d="M263.227 167.973H261.4L261.75 166.428H263.577L263.227 167.973Z" fill="black"/>
<path opacity="0.2" d="M265.949 167.913H264.121L264.471 166.367H266.299L265.949 167.913Z" fill="black"/>
</svg>
