<svg width="65" height="65" viewBox="0 0 65 65" fill="none" xmlns="http://www.w3.org/2000/svg">
<path d="M43.1667 5.92773H21.8333C12.5 5.92773 8.5 11.2611 8.5 19.2611V45.9277C8.5 53.9277 12.5 59.2611 21.8333 59.2611H43.1667C52.5 59.2611 56.5 53.9277 56.5 45.9277V19.2611C56.5 11.2611 52.5 5.92773 43.1667 5.92773ZM21.8333 33.2611H32.5C33.5933 33.2611 34.5 34.1677 34.5 35.2611C34.5 36.3544 33.5933 37.2611 32.5 37.2611H21.8333C20.74 37.2611 19.8333 36.3544 19.8333 35.2611C19.8333 34.1677 20.74 33.2611 21.8333 33.2611ZM43.1667 47.9277H21.8333C20.74 47.9277 19.8333 47.0211 19.8333 45.9277C19.8333 44.8344 20.74 43.9277 21.8333 43.9277H43.1667C44.26 43.9277 45.1667 44.8344 45.1667 45.9277C45.1667 47.0211 44.26 47.9277 43.1667 47.9277ZM49.8333 25.2611H44.5C40.4467 25.2611 37.1667 21.9811 37.1667 17.9277V12.5944C37.1667 11.5011 38.0733 10.5944 39.1667 10.5944C40.26 10.5944 41.1667 11.5011 41.1667 12.5944V17.9277C41.1667 19.7677 42.66 21.2611 44.5 21.2611H49.8333C50.9267 21.2611 51.8333 22.1677 51.8333 23.2611C51.8333 24.3544 50.9267 25.2611 49.8333 25.2611Z" fill="#2B7A78"/>
</svg>
