<svg width="18" height="18" viewBox="0 0 18 18" fill="none" xmlns="http://www.w3.org/2000/svg">
<rect width="18" height="18" rx="9" fill="#2B7A78"/>
<path d="M8.75676 10.5105V5.40234V10.5105ZM8.75676 10.5105L7.05405 8.80775L8.75676 10.5105ZM8.75676 10.5105L10.4595 8.80775L8.75676 10.5105ZM4.5 11.3618L4.76434 12.4196C4.81038 12.6038 4.91666 12.7673 5.06629 12.8841C5.21592 13.001 5.40031 13.0645 5.59016 13.0645H11.9234C12.1132 13.0645 12.2976 13.001 12.4472 12.8841C12.5969 12.7673 12.7031 12.6038 12.7492 12.4196L13.0135 11.3618" fill="#2B7A78"/>
<path d="M4.5 11.3618L4.76434 12.4196C4.81038 12.6038 4.91666 12.7673 5.06629 12.8841C5.21592 13.001 5.40031 13.0645 5.59016 13.0645H11.9234C12.1132 13.0645 12.2976 13.001 12.4472 12.8841C12.5969 12.7673 12.7031 12.6038 12.7492 12.4196L13.0135 11.3618M8.75676 10.5105V5.40234V10.5105ZM8.75676 10.5105L7.05405 8.80775L8.75676 10.5105ZM8.75676 10.5105L10.4595 8.80775L8.75676 10.5105Z" stroke="#FEFEFE" stroke-width="0.804054" stroke-linecap="round" stroke-linejoin="round"/>
</svg>
