<svg width="65" height="65" viewBox="0 0 65 65" fill="none" xmlns="http://www.w3.org/2000/svg">
<path d="M43.6735 5.92773H21.3268C11.6202 5.92773 5.8335 11.7144 5.8335 21.4211V43.7411C5.8335 53.4744 11.6202 59.2611 21.3268 59.2611H43.6468C53.3535 59.2611 59.1402 53.4744 59.1402 43.7677V21.4211C59.1668 11.7144 53.3802 5.92773 43.6735 5.92773ZM29.7002 47.2877C28.9268 48.0611 27.4602 48.8077 26.3935 48.9677L19.8335 49.9011C19.5935 49.9277 19.3535 49.9544 19.1135 49.9544C18.0202 49.9544 17.0068 49.5811 16.2868 48.8611C15.4068 47.9811 15.0335 46.7011 15.2468 45.2877L16.1802 38.7277C16.3402 37.6344 17.0602 36.1944 17.8602 35.4211L29.7535 23.5277C29.9668 24.0877 30.1802 24.6477 30.4735 25.2877C30.7402 25.8477 31.0335 26.4344 31.3535 26.9677C31.6202 27.4211 31.9135 27.8477 32.1535 28.1677C32.4468 28.6211 32.7935 29.0477 33.0068 29.2877C33.1402 29.4744 33.2468 29.6077 33.3002 29.6611C33.9668 30.4611 34.7402 31.2077 35.4068 31.7677C35.5935 31.9544 35.7002 32.0611 35.7535 32.0877C36.1535 32.4077 36.5535 32.7277 36.9002 32.9677C37.3268 33.2877 37.7535 33.5811 38.2068 33.8211C38.7402 34.1411 39.3268 34.4344 39.9135 34.7277C40.5268 34.9944 41.0868 35.2344 41.6468 35.4211L29.7002 47.2877ZM46.8202 30.1677L44.3668 32.6477C44.2068 32.8077 43.9935 32.8877 43.7802 32.8877C43.7002 32.8877 43.5935 32.8877 43.5402 32.8611C38.1268 31.3144 33.8068 26.9944 32.2602 21.5811C32.1802 21.2877 32.2602 20.9677 32.4735 20.7811L34.9535 18.3011C39.0068 14.2477 42.8735 14.3277 46.8468 18.3011C48.8735 20.3277 49.8602 22.2744 49.8602 24.3011C49.8335 26.2211 48.8468 28.1411 46.8202 30.1677Z" fill="#2B7A78"/>
</svg>
