<svg width="360" height="276" viewBox="0 0 360 276" fill="none" xmlns="http://www.w3.org/2000/svg">
<path d="M360 241.897H0V242.081H360V241.897Z" fill="#EBEBEB"/>
<path d="M323.928 253.743H284.162V253.927H323.928V253.743Z" fill="#EBEBEB"/>
<path d="M237.96 249.885H231.703V250.069H237.96V249.885Z" fill="#EBEBEB"/>
<path d="M281.996 246.911H268.179V247.095H281.996V246.911Z" fill="#EBEBEB"/>
<path d="M68.8683 248.147H37.7715V248.332H68.8683V248.147Z" fill="#EBEBEB"/>
<path d="M187.955 252.903H155.037V253.087H187.955V252.903Z" fill="#EBEBEB"/>
<path d="M168.58 249.79H101.131V249.974H168.58V249.79Z" fill="#EBEBEB"/>
<path d="M174.759 204.857C174.759 205.41 174.652 205.957 174.445 206.468C174.238 206.978 173.935 207.442 173.552 207.832C173.17 208.223 172.716 208.532 172.216 208.743C171.716 208.954 171.181 209.062 170.641 209.061H31.6157C30.5266 209.059 29.4828 208.615 28.7133 207.827C27.9439 207.039 27.5117 205.971 27.5117 204.857V5.02204C27.5212 3.91477 27.9575 2.85604 28.726 2.07581C29.4944 1.29558 30.5328 0.856877 31.6157 0.85498H170.641C171.731 0.85498 172.777 1.29789 173.548 2.08627C174.319 2.87465 174.752 3.94392 174.752 5.05886L174.759 204.857ZM174.572 5.05886C174.576 4.52814 174.477 4.0019 174.281 3.51038C174.085 3.01885 173.796 2.57175 173.431 2.19476C173.066 1.81778 172.631 1.51835 172.152 1.31369C171.673 1.10903 171.16 1.00318 170.641 1.00223H31.6157C30.5743 1.00418 29.5763 1.42855 28.8406 2.1822C28.1049 2.93585 27.6917 3.9572 27.6917 5.02204V204.857C27.6917 205.922 28.1049 206.943 28.8406 207.697C29.5763 208.451 30.5743 208.875 31.6157 208.877H170.641C171.683 208.875 172.681 208.451 173.418 207.697C174.155 206.944 174.57 205.923 174.572 204.857" fill="#EBEBEB"/>
<path d="M326.383 209.061H187.351C186.262 209.059 185.217 208.615 184.446 207.828C183.676 207.04 183.242 205.971 183.24 204.857V5.02204C183.252 3.9141 183.69 2.85538 184.459 2.07535C185.229 1.29533 186.268 0.856857 187.351 0.85498H326.383C327.465 0.858812 328.502 1.29837 329.269 2.0784C330.035 2.85842 330.471 3.91604 330.48 5.02204V204.857C330.48 205.969 330.049 207.036 329.281 207.824C328.513 208.612 327.471 209.057 326.383 209.061ZM187.351 1.00223C186.309 1.00417 185.311 1.42831 184.574 2.18175C183.837 2.93519 183.422 3.95652 183.42 5.02204V204.857C183.422 205.923 183.837 206.944 184.574 207.697C185.311 208.451 186.309 208.875 187.351 208.877H326.383C327.425 208.875 328.424 208.451 329.161 207.697C329.898 206.944 330.313 205.923 330.315 204.857V5.02204C330.313 3.95652 329.898 2.93519 329.161 2.18175C328.424 1.42831 327.425 1.00417 326.383 1.00223H187.351Z" fill="#EBEBEB"/>
<path d="M50.8756 241.897H94.1836L94.1836 148.86H50.8756L50.8756 241.897Z" fill="#E6E6E6"/>
<path d="M55.2388 241.897H50.8828V229.226H59.8036L55.2388 241.897Z" fill="#F0F0F0"/>
<path d="M165.391 241.897H208.699V148.859H165.391V241.897Z" fill="#E6E6E6"/>
<path d="M50.8751 234.122L169.186 234.122V148.859H50.8751L50.8751 234.122Z" fill="#F0F0F0"/>
<path d="M54.2518 176.019H165.809V152.636H54.2518V176.019Z" fill="#E6E6E6"/>
<path d="M102.139 159.881H117.936C121.329 159.884 124.688 159.181 127.808 157.814C130.927 156.447 133.742 154.445 136.08 151.929H84.002C86.3379 154.445 89.151 156.448 92.2694 157.815C95.3877 159.182 98.7459 159.885 102.139 159.881Z" fill="#F0F0F0"/>
<path d="M164.837 241.897H169.193V229.226H160.265L164.837 241.897Z" fill="#F0F0F0"/>
<path d="M54.2518 203.179H165.809V179.796H54.2518V203.179Z" fill="#E6E6E6"/>
<path d="M102.139 187.07H117.936C121.331 187.069 124.692 186.361 127.811 184.989C130.931 183.617 133.744 181.61 136.08 179.089H84.002C86.3357 181.61 89.1477 183.618 92.2661 184.99C95.3845 186.362 98.7439 187.07 102.139 187.07Z" fill="#F0F0F0"/>
<path d="M54.2518 230.338H165.809V206.955H54.2518V230.338Z" fill="#E6E6E6"/>
<path d="M102.139 214.229H117.936C121.33 214.231 124.69 213.525 127.809 212.156C130.929 210.786 133.743 208.781 136.08 206.263H84.002C86.3369 208.782 89.1495 210.787 92.2679 212.157C95.3862 213.526 98.7449 214.231 102.139 214.229Z" fill="#F0F0F0"/>
<path d="M63.4609 118.291H60.3721C60.1375 118.291 59.9473 118.486 59.9473 118.725V148.425C59.9473 148.665 60.1375 148.859 60.3721 148.859H63.4609C63.6955 148.859 63.8857 148.665 63.8857 148.425V118.725C63.8857 118.486 63.6955 118.291 63.4609 118.291Z" fill="#EBEBEB"/>
<path d="M63.8857 121.442H59.9473V132.567H63.8857V121.442Z" fill="#FAFAFA"/>
<path d="M63.8857 135.998H59.9473V142.859H63.8857V135.998Z" fill="#FAFAFA"/>
<path d="M80.2441 118.291H64.3105C64.0759 118.291 63.8857 118.486 63.8857 118.725V148.425C63.8857 148.665 64.0759 148.859 64.3105 148.859H80.2441C80.4787 148.859 80.6689 148.665 80.6689 148.425V118.725C80.6689 118.486 80.4787 118.291 80.2441 118.291Z" fill="#E0E0E0"/>
<path d="M69.746 115.14H66.3332C66.0748 115.14 65.8652 115.354 65.8652 115.619V148.381C65.8652 148.645 66.0748 148.859 66.3332 148.859H69.746C70.0045 148.859 70.214 148.645 70.214 148.381V115.619C70.214 115.354 70.0045 115.14 69.746 115.14Z" fill="#EBEBEB"/>
<path d="M70.2072 119.55H65.8584V122.561H70.2072V119.55Z" fill="#FAFAFA"/>
<path d="M70.2072 128.282H65.8584V131.293H70.2072V128.282Z" fill="#FAFAFA"/>
<path d="M70.2072 137.021H65.8584V140.032H70.2072V137.021Z" fill="#FAFAFA"/>
<path d="M88.2864 115.14H70.7112C70.4527 115.14 70.2432 115.354 70.2432 115.619V148.381C70.2432 148.645 70.4527 148.859 70.7112 148.859H88.2864C88.5448 148.859 88.7544 148.645 88.7544 148.381V115.619C88.7544 115.354 88.5448 115.14 88.2864 115.14Z" fill="#E0E0E0"/>
<path d="M75.7011 118.291H72.6123C72.3777 118.291 72.1875 118.486 72.1875 118.725V148.425C72.1875 148.665 72.3777 148.859 72.6123 148.859H75.7011C75.9357 148.859 76.1259 148.665 76.1259 148.425V118.725C76.1259 118.486 75.9357 118.291 75.7011 118.291Z" fill="#EBEBEB"/>
<path d="M76.1259 124.299H72.1875V130.005H76.1259V124.299Z" fill="#FAFAFA"/>
<path d="M76.1259 131.764H72.1875V135.283H76.1259V131.764Z" fill="#FAFAFA"/>
<path d="M92.4912 118.291H76.5576C76.323 118.291 76.1328 118.486 76.1328 118.725V148.425C76.1328 148.665 76.323 148.859 76.5576 148.859H92.4912C92.7258 148.859 92.916 148.665 92.916 148.425V118.725C92.916 118.486 92.7258 118.291 92.4912 118.291Z" fill="#E0E0E0"/>
<path d="M81.497 122.561H78.0842C77.8257 122.561 77.6162 122.775 77.6162 123.04V148.388C77.6162 148.652 77.8257 148.867 78.0842 148.867H81.497C81.7555 148.867 81.965 148.652 81.965 148.388V123.04C81.965 122.775 81.7555 122.561 81.497 122.561Z" fill="#EBEBEB"/>
<path d="M81.9582 128.473H77.6094V133.34H81.9582V128.473Z" fill="#FAFAFA"/>
<path d="M81.9582 144.435H77.6094V145.59H81.9582V144.435Z" fill="#FAFAFA"/>
<path d="M81.9582 134.422H77.6094V139.289H81.9582V134.422Z" fill="#FAFAFA"/>
<path d="M100.037 122.561H82.4621C82.2037 122.561 81.9941 122.775 81.9941 123.04V148.388C81.9941 148.652 82.2037 148.867 82.4621 148.867H100.037C100.296 148.867 100.505 148.652 100.505 148.388V123.04C100.505 122.775 100.296 122.561 100.037 122.561Z" fill="#E0E0E0"/>
<path d="M87.2642 117.43H84.1898C83.9512 117.43 83.7578 117.627 83.7578 117.871V148.425C83.7578 148.669 83.9512 148.867 84.1898 148.867H87.2642C87.5028 148.867 87.6962 148.669 87.6962 148.425V117.871C87.6962 117.627 87.5028 117.43 87.2642 117.43Z" fill="#EBEBEB"/>
<path d="M87.6962 120.669H83.7578V132.11H87.6962V120.669Z" fill="#FAFAFA"/>
<path d="M87.6962 135.629H83.7578V142.682H87.6962V135.629Z" fill="#FAFAFA"/>
<path d="M104.047 117.43H88.1283C87.8897 117.43 87.6963 117.627 87.6963 117.871V148.425C87.6963 148.669 87.8897 148.867 88.1283 148.867H104.047C104.286 148.867 104.479 148.669 104.479 148.425V117.871C104.479 117.627 104.286 117.43 104.047 117.43Z" fill="#E0E0E0"/>
<path d="M93.5857 120.75H90.1009C89.8624 120.75 89.6689 120.948 89.6689 121.192V148.418C89.6689 148.662 89.8624 148.859 90.1009 148.859H93.5857C93.8243 148.859 94.0177 148.662 94.0177 148.418V121.192C94.0177 120.948 93.8243 120.75 93.5857 120.75Z" fill="#EBEBEB"/>
<path d="M94.0177 124.424H89.6689V126.934H94.0177V124.424Z" fill="#FAFAFA"/>
<path d="M94.0177 131.705H89.6689V134.216H94.0177V131.705Z" fill="#FAFAFA"/>
<path d="M94.0177 138.987H89.6689V141.497H94.0177V138.987Z" fill="#FAFAFA"/>
<path d="M112.133 120.75H94.4857C94.2471 120.75 94.0537 120.948 94.0537 121.192V148.418C94.0537 148.661 94.2471 148.859 94.4857 148.859H112.133C112.372 148.859 112.565 148.661 112.565 148.418V121.192C112.565 120.948 112.372 120.75 112.133 120.75Z" fill="#E0E0E0"/>
<path d="M99.5117 118.291H96.4228C96.1882 118.291 95.998 118.486 95.998 118.725V148.425C95.998 148.665 96.1882 148.859 96.4228 148.859H99.5117C99.7463 148.859 99.9364 148.665 99.9364 148.425V118.725C99.9364 118.486 99.7463 118.291 99.5117 118.291Z" fill="#EBEBEB"/>
<path d="M99.9364 124.299H95.998V130.005H99.9364V124.299Z" fill="#FAFAFA"/>
<path d="M99.9364 131.764H95.998V135.283H99.9364V131.764Z" fill="#FAFAFA"/>
<path d="M116.294 118.291H100.36C100.126 118.291 99.9355 118.486 99.9355 118.725V148.425C99.9355 148.665 100.126 148.859 100.36 148.859H116.294C116.529 148.859 116.719 148.665 116.719 148.425V118.725C116.719 118.486 116.529 118.291 116.294 118.291Z" fill="#E0E0E0"/>
<path d="M105.307 122.561H101.894C101.635 122.561 101.426 122.775 101.426 123.04V148.388C101.426 148.652 101.635 148.867 101.894 148.867H105.307C105.565 148.867 105.775 148.652 105.775 148.388V123.04C105.775 122.775 105.565 122.561 105.307 122.561Z" fill="#EBEBEB"/>
<path d="M105.768 128.473H101.419V133.34H105.768V128.473Z" fill="#FAFAFA"/>
<path d="M105.768 144.435H101.419V145.59H105.768V144.435Z" fill="#FAFAFA"/>
<path d="M105.768 134.422H101.419V139.288H105.768V134.422Z" fill="#FAFAFA"/>
<path d="M123.848 122.561H106.273C106.014 122.561 105.805 122.775 105.805 123.04V148.388C105.805 148.652 106.014 148.867 106.273 148.867H123.848C124.106 148.867 124.316 148.652 124.316 148.388V123.04C124.316 122.775 124.106 122.561 123.848 122.561Z" fill="#E0E0E0"/>
<path d="M50.0044 82.8344L207.533 82.8344V34.3388L50.0044 34.3388V82.8344Z" fill="#E6E6E6"/>
<path d="M46.6635 82.8345L205.971 82.8345V34.339L46.6635 34.339V82.8345Z" fill="#F0F0F0"/>
<path d="M50.0044 89.1878L207.533 89.1878V82.8415L50.0044 82.8415V89.1878Z" fill="#E6E6E6"/>
<path d="M41.0971 89.1878L200.404 89.1878V82.8415L41.0971 82.8415V89.1878Z" fill="#F0F0F0"/>
<path d="M201.291 78.0558V39.1239L51.3366 39.1239V78.0558H201.291Z" fill="#FAFAFA"/>
<path d="M161.611 78.0559L134.158 39.124H106.063L133.517 78.0559H161.611Z" fill="white"/>
<path d="M199.123 74.3235C199.213 74.3235 199.299 74.2871 199.362 74.2222C199.426 74.1573 199.462 74.0693 199.462 73.9775V42.2386C199.45 42.1565 199.409 42.0814 199.348 42.0271C199.287 41.9728 199.208 41.9429 199.127 41.9429C199.046 41.9429 198.967 41.9728 198.906 42.0271C198.844 42.0814 198.804 42.1565 198.792 42.2386V73.9775C198.792 74.068 198.827 74.1549 198.889 74.2196C198.95 74.2843 199.035 74.3216 199.123 74.3235Z" fill="#F0F0F0"/>
<path d="M122.954 78.0559L95.4934 39.124H85.7734L113.227 78.0559H122.954Z" fill="white"/>
<path d="M51.9336 78.0558V39.1239H51.336V78.0558H51.9336Z" fill="#E6E6E6"/>
<path opacity="0.4" d="M45.5547 43.9465H203.083L203.515 40.9868H45.9867L45.5547 43.9465Z" fill="#E6E6E6"/>
<path opacity="0.4" d="M45.5547 48.8351H203.083L203.515 45.8755H45.9867L45.5547 48.8351Z" fill="#E6E6E6"/>
<path opacity="0.4" d="M45.5547 53.7311H203.083L203.515 50.7715H45.9867L45.5547 53.7311Z" fill="#E6E6E6"/>
<path opacity="0.4" d="M45.5547 58.6193H203.083L203.515 55.6597H45.9867L45.5547 58.6193Z" fill="#E6E6E6"/>
<path opacity="0.4" d="M45.5547 63.5153H203.083L203.515 60.5483H45.9867L45.5547 63.5153Z" fill="#E6E6E6"/>
<path opacity="0.4" d="M45.5547 68.404H203.083L203.515 65.4443H45.9867L45.5547 68.404Z" fill="#E6E6E6"/>
<path d="M233.064 144.464H293.839V34.339L233.064 34.339V144.464Z" fill="#E6E6E6"/>
<path d="M240.559 37.3572C240.65 37.3579 240.74 37.3324 240.818 37.2836C240.962 37.1953 255.261 28.5004 259.768 28.5004C264.275 28.5004 277.905 37.1879 278.042 37.2762C278.099 37.3164 278.163 37.3441 278.231 37.3577C278.299 37.3713 278.369 37.3705 278.436 37.3553C278.504 37.3401 278.568 37.3109 278.624 37.2694C278.68 37.228 278.727 37.1751 278.762 37.1143C278.799 37.0554 278.825 36.9896 278.837 36.9206C278.849 36.8516 278.848 36.7808 278.833 36.7123C278.818 36.6439 278.79 36.5791 278.751 36.5217C278.712 36.4643 278.661 36.4155 278.603 36.378C278.027 36.0173 264.578 27.4476 259.79 27.4476C255.002 27.4476 240.919 36.0099 240.35 36.378C240.255 36.4361 240.182 36.5241 240.141 36.6287C240.101 36.7334 240.094 36.8488 240.124 36.9573C240.153 37.0659 240.217 37.1616 240.304 37.2298C240.392 37.2981 240.499 37.3351 240.609 37.3351L240.559 37.3572Z" fill="#F0F0F0"/>
<path d="M226.476 144.464H289.253V34.3389L226.476 34.3389V144.464Z" fill="#F0F0F0"/>
<path d="M284.004 139.09V39.7206H231.746V139.09H284.004Z" fill="white"/>
<path d="M300.326 195.492H262.454V241.897H300.326V195.492Z" fill="#E0E0E0"/>
<path d="M300.319 195.492H262.447L270.05 181.651H307.922L300.319 195.492Z" fill="#E0E0E0"/>
<path d="M225.533 181.651H187.661L195.264 195.492H233.136L225.533 181.651Z" fill="#F5F5F5"/>
<path d="M195.257 241.897H262.447V195.492H195.257V241.897Z" fill="#F5F5F5"/>
<path d="M241.308 229.506H262.447V207.89H241.308V229.506Z" fill="#F0F0F0"/>
<path d="M204.322 220.325H216.482V207.89H204.322V220.325Z" fill="#F0F0F0"/>
<path d="M204.322 235.72H216.482V223.285H204.322V235.72Z" fill="#F0F0F0"/>
<path d="M273.362 207.883H262.454V229.499H273.362V207.883Z" fill="#E6E6E6"/>
<path d="M179.999 275.145C257.099 275.145 319.6 271.414 319.6 266.811C319.6 262.208 257.099 258.477 179.999 258.477C102.9 258.477 40.3984 262.208 40.3984 266.811C40.3984 271.414 102.9 275.145 179.999 275.145Z" fill="#F5F5F5"/>
<path d="M100.124 65.3359C105.05 61.8896 106.312 55.0124 102.941 49.9754C99.5708 44.9384 92.8453 43.6489 87.9193 47.0952C82.9933 50.5416 81.7322 57.4187 85.1026 62.4557C88.473 67.4928 95.1985 68.7823 100.124 65.3359Z" fill="#81CCAA"/>
<g clip-path="url(#clip0_1005_46181)">
<path d="M94.3307 54.4753H93.6107V52.0503L92.3372 53.3525C92.2698 53.4221 92.1781 53.4614 92.0823 53.4618C91.9865 53.4623 91.8945 53.4238 91.8265 53.3548C91.7585 53.2859 91.72 53.1921 91.7196 53.0942C91.7192 52.9962 91.7568 52.9021 91.8242 52.8326L93.7142 50.9C93.7825 50.8308 93.8747 50.7921 93.9707 50.7921C94.0668 50.7921 94.159 50.8308 94.2272 50.9L96.1172 52.8326C96.1846 52.9016 96.2224 52.9951 96.2224 53.0925C96.2224 53.19 96.1846 53.2835 96.1172 53.3525C96.0837 53.3873 96.0438 53.4149 95.9998 53.4338C95.9557 53.4526 95.9085 53.4623 95.8607 53.4623C95.813 53.4623 95.7657 53.4526 95.7217 53.4338C95.6777 53.4149 95.6377 53.3873 95.6042 53.3525L94.3307 52.0503V54.4753ZM97.2107 54.4753H94.3307V56.3159C94.3307 56.4135 94.2928 56.5071 94.2253 56.5761C94.1578 56.6452 94.0662 56.684 93.9707 56.684C93.8753 56.684 93.7837 56.6452 93.7162 56.5761C93.6487 56.5071 93.6107 56.4135 93.6107 56.3159V54.4753H90.7307C90.5398 54.4753 90.3567 54.5528 90.2216 54.6909C90.0866 54.829 90.0107 55.0162 90.0107 55.2115V59.997C90.0107 60.1923 90.0866 60.3795 90.2216 60.5176C90.3567 60.6557 90.5398 60.7332 90.7307 60.7332H97.2107C97.4017 60.7332 97.5848 60.6557 97.7199 60.5176C97.8549 60.3795 97.9307 60.1923 97.9307 59.997V55.2115C97.9307 55.0162 97.8549 54.829 97.7199 54.6909C97.5848 54.5528 97.4017 54.4753 97.2107 54.4753Z" fill="#FEFEFE"/>
</g>
<path d="M150.124 34.3359C155.05 30.8896 156.312 24.0124 152.941 18.9754C149.571 13.9384 142.845 12.6489 137.919 16.0952C132.993 19.5416 131.732 26.4187 135.103 31.4557C138.473 36.4928 145.199 37.7823 150.124 34.3359Z" fill="#81CCAA"/>
<g clip-path="url(#clip1_1005_46181)">
<path d="M146.851 23.5489H145.123V20.015H142.819V23.5489H141.091L143.971 26.4938L146.851 23.5489ZM149.349 27.3962C149.229 27.2642 148.422 26.3813 148.191 26.1511C148.03 25.9928 147.815 25.9046 147.591 25.9049H146.579L148.344 27.6683H146.302C146.275 27.6678 146.247 27.6747 146.223 27.6885C146.199 27.7022 146.178 27.7223 146.164 27.7466L145.694 28.8498H142.247L141.777 27.7466C141.763 27.7224 141.743 27.7024 141.718 27.6886C141.694 27.6749 141.667 27.6679 141.639 27.6683H139.598L141.362 25.9049H140.351C140.122 25.9049 139.904 25.9985 139.75 26.1511C139.52 26.3819 138.713 27.2648 138.592 27.3962C138.31 27.703 138.155 27.9475 138.229 28.2496L138.552 30.0601C138.626 30.3629 138.95 30.6114 139.274 30.6114H148.669C148.992 30.6114 149.317 30.3629 149.39 30.0601L149.714 28.2496C149.786 27.9475 149.632 27.703 149.349 27.3962Z" fill="#FEFEFE"/>
</g>
<path d="M220.124 35.3359C225.05 31.8896 226.312 25.0124 222.941 19.9754C219.571 14.9384 212.845 13.6489 207.919 17.0952C202.993 20.5416 201.732 27.4187 205.103 32.4557C208.473 37.4928 215.199 38.7823 220.124 35.3359Z" fill="#81CCAA"/>
<path d="M219.011 22.2666V30.3652C219.011 30.9751 218.535 31.4695 217.947 31.4695H210.144C209.556 31.4695 209.08 30.9751 209.08 30.3652V22.2666C209.08 21.6567 209.556 21.1623 210.144 21.1623H217.947C218.535 21.1623 219.011 21.6567 219.011 22.2666ZM215.819 27.2362C215.496 27.2362 215.202 27.3641 214.981 27.5737L213.475 26.6356C213.526 26.4258 213.526 26.206 213.475 25.9962L214.981 25.0581C215.202 25.2677 215.496 25.3956 215.819 25.3956C216.505 25.3956 217.06 24.8188 217.06 24.1072C217.06 23.3956 216.505 22.8188 215.819 22.8188C215.133 22.8188 214.578 23.3956 214.578 24.1072C214.578 24.2176 214.591 24.3247 214.616 24.4269L213.11 25.3651C212.889 25.1554 212.595 25.0275 212.272 25.0275C211.587 25.0275 211.031 25.6043 211.031 26.3159C211.031 27.0275 211.587 27.6043 212.272 27.6043C212.595 27.6043 212.889 27.4764 213.11 27.2668L214.616 28.2049C214.591 28.3094 214.578 28.4168 214.578 28.5246C214.578 29.2362 215.133 29.813 215.819 29.813C216.505 29.813 217.06 29.2362 217.06 28.5246C217.06 27.813 216.505 27.2362 215.819 27.2362Z" fill="#FEFEFE"/>
<path d="M275.124 83.3359C280.05 79.8896 281.312 73.0124 277.941 67.9754C274.571 62.9384 267.845 61.6489 262.919 65.0952C257.993 68.5416 256.732 75.4187 260.103 80.4557C263.473 85.4928 270.199 86.7823 275.124 83.3359Z" fill="#81CCAA"/>
<path d="M271.131 76.8927L272.211 77.997L275.811 74.3159L272.211 70.6347L271.131 71.7391L273.651 74.3159L271.131 76.8927ZM266.811 71.7391L265.731 70.6347L262.131 74.3159L265.731 77.997L266.811 76.8927L264.291 74.3159L266.811 71.7391ZM269.661 70.1577L270.442 70.3756L268.282 78.4741L267.501 78.2562L269.661 70.1577Z" fill="#FEFEFE"/>
<path d="M173.541 260.464H167.99L167.752 247.315H173.303L173.541 260.464Z" fill="#B55B52"/>
<path d="M206.884 260.464H201.333L198.856 247.315H204.408L206.884 260.464Z" fill="#B55B52"/>
<path d="M200.952 259.809H207.194C207.303 259.809 207.409 259.848 207.493 259.919C207.578 259.99 207.635 260.09 207.655 260.199L208.634 265.243C208.656 265.367 208.651 265.495 208.62 265.618C208.588 265.741 208.53 265.854 208.45 265.951C208.37 266.048 208.271 266.126 208.158 266.179C208.045 266.232 207.923 266.259 207.799 266.259C205.639 266.214 204.566 266.089 201.823 266.089C200.131 266.089 196.653 266.266 194.32 266.266C191.988 266.266 191.743 263.91 192.7 263.696C197.02 262.739 198.648 261.421 200.044 260.163C200.294 259.935 200.617 259.81 200.952 259.809Z" fill="#263238"/>
<path d="M168.04 259.809H174.11C174.219 259.809 174.325 259.848 174.409 259.919C174.493 259.99 174.55 260.089 174.571 260.199L175.543 265.242C175.567 265.366 175.565 265.494 175.535 265.617C175.505 265.739 175.448 265.854 175.37 265.951C175.291 266.048 175.192 266.127 175.08 266.18C174.968 266.233 174.845 266.26 174.722 266.258C172.562 266.214 169.379 266.089 166.629 266.089C163.411 266.089 160.631 266.266 156.859 266.266C154.583 266.266 153.979 263.91 154.965 263.696C159.335 262.725 162.885 262.621 166.694 260.251C167.094 259.98 167.56 259.827 168.04 259.809Z" fill="#263238"/>
<path d="M167.875 82.2449L161.949 76.8115C161.949 76.8115 147.398 90.476 144.547 90.4318C140.659 90.3655 132.581 89.9532 128.073 88.9593C127.267 89.46 125.611 91.3668 125.445 92.2208C130.608 96.3953 144.057 99.3843 147.434 98.2211C155.124 95.5854 167.875 82.2449 167.875 82.2449Z" fill="#B55B52"/>
<path d="M171.201 79.0938C171.158 84.5198 157.053 95.3498 157.053 95.3498L148.853 85.7199C152.047 81.9149 155.621 78.4605 159.516 75.4127C165.29 71.1204 171.245 73.1377 171.201 79.0938Z" fill="#263238"/>
<path opacity="0.2" d="M157.053 95.3499C157.053 95.3499 170.078 85.3519 171.129 79.7566C169.466 78.0117 160.559 83.0034 157.053 95.3499Z" fill="black"/>
<path d="M128.959 89.2539L124.042 84.623L119.628 90.4098C121.837 91.6389 124.216 92.5153 126.684 93.0087L128.959 89.2539Z" fill="#B55B52"/>
<path d="M118.18 81.899L116.661 86.2649L119.628 90.4099L124.041 84.6231L118.18 81.899Z" fill="#B55B52"/>
<path opacity="0.2" d="M167.752 247.323L167.874 254.096H173.433L173.31 247.323H167.752Z" fill="black"/>
<path opacity="0.2" d="M204.415 247.323H198.856L200.138 254.096H205.689L204.415 247.323Z" fill="black"/>
<path d="M164.001 73.3661C164.001 73.3661 157.031 90.5203 162.496 122.451H192.196C192.513 117.79 190.195 95.0481 195.119 73.079C191.845 72.4308 188.534 72.0005 185.205 71.7906C181.001 71.5438 176.787 71.5438 172.583 71.7906C169.687 72.0898 166.818 72.6165 164.001 73.3661Z" fill="#263238"/>
<path opacity="0.2" d="M188.539 78.4977C187.956 82.1199 188.863 90.7633 191.995 100.761C192.145 92.1994 193.035 83.6677 194.652 75.2656V75.2141C192.701 75.0153 189.093 75.111 188.539 78.4977Z" fill="black"/>
<path d="M183.845 59.7534C182.952 63.9058 182.405 69.0594 185.205 71.8276C185.205 71.8276 183.477 76.0462 175.925 76.0462C169.027 76.0462 172.584 71.8276 172.584 71.8276C177.134 70.7232 177.041 64.9954 176.328 61.7707L183.845 59.7534Z" fill="#B55B52"/>
<path d="M175.564 75.6704L173.93 77.5257C173.874 77.5896 173.835 77.6674 173.817 77.7513C173.8 77.8352 173.804 77.9224 173.829 78.0043L174.355 79.6313C174.382 79.7235 174.437 79.8044 174.512 79.8626C174.587 79.9208 174.678 79.9532 174.772 79.9553L176.529 80.0436C176.614 80.0474 176.698 80.0291 176.773 79.9905C176.849 79.9518 176.914 79.8941 176.961 79.8228L178.012 78.2472C178.076 78.1614 178.111 78.0567 178.111 77.9491C178.111 77.8414 178.076 77.7367 178.012 77.6509L176.306 75.6704C176.261 75.6148 176.204 75.57 176.14 75.5393C176.076 75.5086 176.006 75.4927 175.935 75.4927C175.864 75.4927 175.795 75.5086 175.73 75.5393C175.666 75.57 175.61 75.6148 175.564 75.6704Z" fill="#CDEADD"/>
<path d="M175.932 75.2654C176.766 76.7009 177.23 78.3301 177.278 79.9994C177.278 79.9994 186.811 76.5833 186.494 71.5916C186.494 71.5916 185.169 70.7744 184.334 70.1192C184.32 70.1118 183.938 73.2629 175.932 75.2654Z" fill="white"/>
<path d="M175.931 75.2657C175.033 76.6101 174.373 78.1053 173.98 79.6831C173.98 79.6831 169.768 76.7382 171.172 71.776C171.965 71.4512 172.781 71.1903 173.613 70.9956C173.613 70.9956 172.972 74.1982 175.931 75.2657Z" fill="white"/>
<path d="M175.154 79.6979C175.154 79.6979 172.454 100.025 172.396 103.559C172.433 106.906 172.947 110.23 173.923 113.425C173.923 113.425 175.773 109.832 176.083 103.412C176.392 96.992 176.018 83.2981 176.155 79.6979H175.154Z" fill="#CDEADD"/>
<path opacity="0.2" d="M176.32 61.7337C176.745 63.6258 176.954 66.3793 176.126 68.5512C176.834 68.4438 177.523 68.2305 178.171 67.918C180.756 66.6885 182.059 64.7523 183.434 61.8736C183.556 61.1374 183.693 60.4011 183.844 59.7164L176.32 61.7337Z" fill="black"/>
<path d="M170.215 56.2565C170.335 56.9381 170.588 57.588 170.959 58.1673C171.33 58.7467 171.812 59.2436 172.375 59.6284C173.901 60.6444 175.255 59.3633 175.305 57.5817C175.356 55.9767 174.636 53.5177 172.872 53.2232C172.483 53.1709 172.087 53.2164 171.719 53.3558C171.352 53.4952 171.023 53.7242 170.761 54.023C170.499 54.3219 170.313 54.6815 170.217 55.0707C170.122 55.4598 170.122 55.8669 170.215 56.2565Z" fill="#B55B52"/>
<path opacity="0.2" d="M170.215 56.2565C170.335 56.9381 170.588 57.588 170.959 58.1673C171.33 58.7467 171.812 59.2436 172.375 59.6284C173.901 60.6444 175.255 59.3633 175.305 57.5817C175.356 55.9767 174.636 53.5177 172.872 53.2232C172.483 53.1709 172.087 53.2164 171.719 53.3558C171.352 53.4952 171.023 53.7242 170.761 54.023C170.499 54.3219 170.313 54.6815 170.217 55.0707C170.122 55.4598 170.122 55.8669 170.215 56.2565Z" fill="black"/>
<path d="M177.66 45.3968C174.686 45.5367 170.46 52.3615 173.081 55.2917C175.701 58.2219 183.276 45.1318 177.66 45.3968Z" fill="#263238"/>
<path d="M187.755 56.2634C185.407 61.4171 184.284 64.5534 180.663 66.2835C175.205 68.8751 169.863 64.0749 170.633 58.3175C171.353 53.1639 175.075 45.5955 180.886 45.4041C182.161 45.3531 183.427 45.6424 184.56 46.2436C185.692 46.8448 186.652 47.7372 187.346 48.8329C188.039 49.9286 188.441 51.1899 188.513 52.4928C188.584 53.7956 188.323 55.0951 187.755 56.2634Z" fill="#B55B52"/>
<path d="M191.678 49.6376C194.558 51.5371 190.476 59.9448 186.775 59.7166C185.14 59.6135 185.443 55.5348 187.077 52.023C184.096 51.8905 174.276 49.667 174.6 44.9183C174.7 43.387 176.234 42.4593 178.43 41.2961C179.026 41.0389 179.508 40.564 179.781 39.9639C180.053 39.3638 180.098 38.6813 179.906 38.0493C180.395 38.5398 180.733 39.165 180.88 39.8487C181.027 40.5324 180.976 41.245 180.734 41.8998C179.899 44.2263 184.456 43.306 187.084 43.2397C191.779 43.1072 194.472 46.6927 191.678 49.6376Z" fill="#263238"/>
<path d="M191.03 49.6375C191.03 49.6375 193.341 48.7467 194.126 50.8155C193.203 50.1725 192.14 49.7682 191.03 49.6375Z" fill="#263238"/>
<path d="M187.818 62.9633C186.708 63.8228 185.312 64.2033 183.931 64.0235C182.116 63.7658 181.979 61.9252 183.131 60.5558C184.161 59.3263 186.357 57.979 187.862 58.9287C189.367 59.8785 189.186 61.8884 187.818 62.9633Z" fill="#B55B52"/>
<path d="M162.497 122.451C162.497 122.451 160.711 164.909 160.899 182.225C161.1 200.241 165.838 252.786 165.838 252.786H175.248C175.248 252.786 176.976 201.294 177.819 183.58C178.74 164.298 182.023 122.429 182.023 122.429L162.497 122.451Z" fill="#CDEADD"/>
<path d="M175.938 249.84C175.982 249.84 175.859 252.984 175.859 252.984H165.016L164.642 249.45L175.938 249.84Z" fill="#263238"/>
<path opacity="0.2" d="M175.219 133.693C174.895 154.756 175.831 167.559 178.099 177.867C178.667 167.817 179.596 154.528 180.41 143.492L175.219 133.693Z" fill="black"/>
<path d="M173.029 122.451C173.029 122.451 178.292 165.888 181.367 182.085C184.722 199.887 197.581 252.763 197.581 252.763H207.748C207.748 252.763 199.727 201.352 197.999 183.72C196.112 164.578 192.239 122.451 192.239 122.451H173.029Z" fill="#CDEADD"/>
<path d="M207.814 250.076C207.857 250.076 208.253 252.984 208.253 252.984H197.071L196.164 249.642L207.814 250.076Z" fill="#263238"/>
<path opacity="0.2" d="M203.795 246.638C203.774 246.638 203.753 246.63 203.737 246.615C203.721 246.6 203.711 246.579 203.709 246.557C203.637 246.034 196.394 200.218 194.831 184.382C193.139 167.199 189.611 129.091 189.575 128.708C189.573 128.695 189.574 128.682 189.577 128.669C189.581 128.656 189.587 128.644 189.595 128.634C189.603 128.623 189.613 128.615 189.625 128.609C189.636 128.602 189.649 128.599 189.662 128.598C189.674 128.597 189.686 128.598 189.698 128.602C189.71 128.606 189.721 128.612 189.73 128.621C189.74 128.629 189.747 128.639 189.753 128.65C189.758 128.661 189.762 128.674 189.763 128.686C189.799 129.069 193.327 167.169 195.019 184.36C196.581 200.189 203.824 246.005 203.896 246.527C203.898 246.54 203.898 246.553 203.895 246.565C203.892 246.578 203.887 246.589 203.879 246.6C203.872 246.61 203.863 246.619 203.852 246.625C203.841 246.632 203.829 246.636 203.817 246.638H203.795Z" fill="black"/>
<path d="M179.424 54.7837C179.258 55.2181 178.905 55.4758 178.632 55.3727C178.358 55.2697 178.279 54.8426 178.444 54.4083C178.61 53.9739 178.963 53.7162 179.236 53.8193C179.51 53.9224 179.589 54.3567 179.424 54.7837Z" fill="#263238"/>
<path d="M174.722 52.9946C174.557 53.4217 174.197 53.6867 173.93 53.5836C173.664 53.4806 173.57 53.0462 173.736 52.6192C173.901 52.1922 174.254 51.8829 174.528 52.0228C174.801 52.1627 174.888 52.5603 174.722 52.9946Z" fill="#263238"/>
<path d="M176.133 53.7749C175.134 54.9098 173.988 55.9005 172.728 56.7198C172.932 57.0389 173.204 57.3075 173.523 57.5061C173.842 57.7047 174.2 57.8285 174.571 57.8683L176.133 53.7749Z" fill="#A02724"/>
<path d="M175.327 59.4809C175.311 59.4753 175.296 59.4663 175.283 59.4545C175.271 59.4427 175.261 59.4284 175.254 59.4125C175.248 59.3965 175.244 59.3793 175.244 59.362C175.244 59.3446 175.248 59.3274 175.255 59.3116C175.269 59.2789 175.294 59.2527 175.326 59.2378C175.358 59.2229 175.394 59.2203 175.428 59.2306C175.947 59.4366 176.506 59.5166 177.061 59.4642C177.615 59.4118 178.151 59.2285 178.624 58.9287C178.65 58.9044 178.683 58.8909 178.718 58.8909C178.753 58.8909 178.786 58.9044 178.812 58.9287C178.835 58.9547 178.849 58.9889 178.849 59.0244C178.849 59.06 178.835 59.0942 178.812 59.1202C178.302 59.4633 177.719 59.6754 177.112 59.7382C176.506 59.801 175.893 59.7127 175.327 59.4809Z" fill="#263238"/>
<path d="M181.44 53.7601C181.403 53.7436 181.369 53.7194 181.342 53.6889C181.315 53.6585 181.294 53.6225 181.281 53.5834C181.21 53.2523 181.06 52.9444 180.844 52.6874C180.628 52.4304 180.352 52.2323 180.043 52.1109C179.976 52.0889 179.921 52.0411 179.889 51.9777C179.856 51.9144 179.85 51.8406 179.87 51.7722C179.893 51.705 179.94 51.6489 180.001 51.6149C180.062 51.5809 180.133 51.5714 180.201 51.5882C180.591 51.7319 180.94 51.9717 181.218 52.2863C181.495 52.6009 181.693 52.9807 181.792 53.3919C181.81 53.4612 181.8 53.5349 181.765 53.5969C181.73 53.6589 181.673 53.7043 181.605 53.7232C181.556 53.7541 181.497 53.7671 181.44 53.7601Z" fill="#263238"/>
<path d="M173.267 50.4617C173.225 50.4443 173.189 50.4156 173.162 50.3788C173.134 50.342 173.117 50.2983 173.112 50.2524C173.107 50.2065 173.114 50.16 173.132 50.1178C173.151 50.0756 173.18 50.0393 173.217 50.0126C173.533 49.7302 173.909 49.5283 174.316 49.4234C174.723 49.3184 175.148 49.3135 175.557 49.4089C175.59 49.4189 175.622 49.4358 175.648 49.4584C175.675 49.481 175.698 49.509 175.714 49.5406C175.73 49.5722 175.74 49.6069 175.742 49.6424C175.745 49.678 175.741 49.7137 175.73 49.7475C175.707 49.8144 175.66 49.8699 175.598 49.9027C175.537 49.9355 175.465 49.9432 175.399 49.9242C175.073 49.8567 174.737 49.8667 174.416 49.9535C174.095 50.0404 173.798 50.2016 173.548 50.4249C173.509 50.4574 173.463 50.4781 173.413 50.4846C173.363 50.4911 173.313 50.4832 173.267 50.4617Z" fill="#263238"/>
<path d="M190.267 82.422L197.999 79.8525C197.999 79.8525 205.099 98.3614 207.734 99.4289C211.334 100.901 218.584 104.789 223.106 105.716C223.624 106.497 224.315 108.897 224.099 109.743C217.619 111.466 204.429 107.837 201.83 105.451C195.89 100.018 190.267 82.422 190.267 82.422Z" fill="#B55B52"/>
<path d="M195.119 73.0792C200.354 73.8596 205.919 92.4789 205.919 92.4789L194.731 98.8473C194.731 98.8473 190.087 90.0125 187.847 83.3865C185.507 76.5321 189.503 72.2694 195.119 73.0792Z" fill="#263238"/>
<path d="M199.094 260.803C198.719 260.834 198.346 260.732 198.035 260.516C197.932 260.428 197.854 260.313 197.809 260.184C197.763 260.054 197.752 259.915 197.776 259.78C197.779 259.7 197.802 259.623 197.844 259.555C197.886 259.488 197.944 259.434 198.014 259.397C198.626 259.08 200.397 260.199 200.598 260.332C200.619 260.346 200.636 260.366 200.646 260.389C200.657 260.413 200.66 260.439 200.656 260.465C200.65 260.491 200.638 260.515 200.62 260.534C200.603 260.553 200.58 260.568 200.555 260.575C200.078 260.706 199.588 260.783 199.094 260.803ZM198.294 259.625C198.24 259.613 198.183 259.613 198.129 259.625C198.093 259.625 198.05 259.677 198.042 259.78C198.025 259.87 198.032 259.963 198.061 260.049C198.09 260.136 198.141 260.213 198.208 260.273C198.827 260.561 199.531 260.595 200.174 260.369C199.6 259.999 198.962 259.746 198.294 259.625Z" fill="#CDEADD"/>
<path d="M200.519 260.604H200.462C199.893 260.28 198.813 259.036 198.942 258.396C198.966 258.297 199.02 258.21 199.097 258.146C199.173 258.082 199.268 258.046 199.367 258.042C199.468 258.03 199.57 258.039 199.666 258.069C199.763 258.1 199.853 258.151 199.929 258.219C200.555 258.756 200.649 260.428 200.649 260.464C200.649 260.489 200.643 260.514 200.632 260.535C200.621 260.557 200.604 260.576 200.584 260.59C200.564 260.6 200.542 260.606 200.519 260.604ZM199.439 258.3H199.382C199.209 258.3 199.194 258.396 199.187 258.432C199.108 258.808 199.792 259.743 200.354 260.192C200.332 259.548 200.118 258.927 199.742 258.41C199.657 258.337 199.55 258.298 199.439 258.3Z" fill="#CDEADD"/>
<path d="M165.707 260.803C165.235 260.846 164.763 260.724 164.368 260.457C164.28 260.376 164.213 260.273 164.172 260.159C164.132 260.045 164.12 259.922 164.138 259.802C164.142 259.727 164.165 259.655 164.204 259.592C164.243 259.529 164.297 259.477 164.361 259.441C165.045 259.051 167.241 260.177 167.5 260.347C167.524 260.36 167.543 260.381 167.555 260.406C167.566 260.431 167.57 260.459 167.565 260.486C167.562 260.515 167.549 260.541 167.53 260.561C167.51 260.581 167.484 260.594 167.457 260.597C166.881 260.721 166.295 260.79 165.707 260.803ZM164.728 259.625C164.644 259.621 164.559 259.638 164.483 259.677C164.458 259.69 164.437 259.71 164.422 259.735C164.407 259.759 164.398 259.788 164.397 259.816C164.386 259.896 164.394 259.977 164.421 260.053C164.447 260.128 164.491 260.196 164.548 260.251C164.879 260.56 165.794 260.619 167.025 260.405C166.309 260.012 165.532 259.748 164.728 259.625Z" fill="#CDEADD"/>
<path d="M167.435 260.604H167.378C166.715 260.295 165.419 259.073 165.535 258.396C165.535 258.248 165.671 258.057 166.031 258.02C166.161 258.006 166.292 258.02 166.416 258.06C166.54 258.101 166.654 258.167 166.751 258.256C167.471 258.845 167.558 260.376 167.558 260.464C167.561 260.488 167.557 260.511 167.547 260.532C167.536 260.553 167.52 260.571 167.5 260.582C167.482 260.597 167.459 260.605 167.435 260.604ZM166.132 258.3H166.053C165.815 258.3 165.801 258.418 165.794 258.447C165.722 258.83 166.6 259.794 167.277 260.221C167.225 259.574 166.973 258.96 166.557 258.469C166.437 258.367 166.288 258.308 166.132 258.3Z" fill="#CDEADD"/>
<path d="M223.589 109.868L228.874 110.126L226.066 104.236C226.066 104.236 221.436 104.162 220.673 107.807L223.589 109.868Z" fill="#B55B52"/>
<path d="M233.157 107.277L230.357 102.072L226.065 104.237L228.873 110.127L233.157 107.277Z" fill="#B55B52"/>
<defs>
<clipPath id="clip0_1005_46181">
<rect width="11.52" height="11.7797" fill="white" transform="translate(88.2109 50.426)"/>
</clipPath>
<clipPath id="clip1_1005_46181">
<rect width="11.52" height="11.7797" fill="white" transform="translate(138.211 19.426)"/>
</clipPath>
</defs>
</svg>
