<svg width="48" height="48" viewBox="0 0 48 48" fill="none" xmlns="http://www.w3.org/2000/svg">
<path d="M48 24.0005C48 10.7457 37.2548 0.000545502 24 0.000545502C10.7452 0.000545502 0 10.7457 0 24.0005C0 35.9796 8.77645 45.9085 20.25 47.709V30.938H14.1563V24.0005H20.25V18.713C20.25 12.698 23.833 9.37555 29.3152 9.37555C31.941 9.37555 34.6875 9.8443 34.6875 9.8443V15.7505H31.6612C28.6798 15.7505 27.75 17.6006 27.75 19.4985V24.0005H34.4062L33.3422 30.938H27.75V47.709C39.2235 45.9085 48 35.9796 48 24.0005Z" fill="#1877F2"/>
<path d="M33.3422 30.9375L34.4063 24H27.75V19.498C27.75 17.6 28.6798 15.75 31.6612 15.75H34.6875V9.84375C34.6875 9.84375 31.941 9.375 29.3152 9.375C23.833 9.375 20.25 12.6975 20.25 18.7125V24H14.1562V30.9375H20.25V47.7084C21.4719 47.9002 22.7243 48 24 48C25.2758 48 26.5281 47.9002 27.75 47.7084V30.9375H33.3422Z" fill="white"/>
</svg>
