<svg width="20" height="20" viewBox="0 0 20 20" fill="none" xmlns="http://www.w3.org/2000/svg">
<path d="M17.3731 6.47085C17.8005 7.0155 17.3292 7.70964 16.6369 7.70964H2.66699C2.11471 7.70964 1.66699 7.26192 1.66699 6.70964V5.3513C1.66699 3.31797 3.31699 1.66797 5.35033 1.66797H7.28366C8.64199 1.66797 9.06699 2.10964 9.60866 2.83464L10.7753 4.38464C11.0337 4.7263 11.067 4.76797 11.5503 4.76797H13.8753C15.2942 4.76797 16.5591 5.43348 17.3731 6.47085Z" fill="#FEFEFE"/>
<path d="M18.3204 9.95366C18.3185 9.40269 17.8713 8.95704 17.3204 8.95705L2.66697 8.95731C2.1147 8.95732 1.66699 9.40503 1.66699 9.95731V13.874C1.66699 16.3323 3.66699 18.3323 6.12533 18.3323H13.8753C16.3337 18.3323 18.3337 16.3323 18.3337 13.874L18.3204 9.95366ZM12.0837 13.9573H10.6753V15.4157C10.6753 15.7573 10.392 16.0407 10.0503 16.0407C9.70033 16.0407 9.42533 15.7573 9.42533 15.4157V13.9573H7.91699C7.57533 13.9573 7.29199 13.674 7.29199 13.3323C7.29199 12.9907 7.57533 12.7073 7.91699 12.7073H9.42533V11.249C9.42533 10.9073 9.70033 10.624 10.0503 10.624C10.392 10.624 10.6753 10.9073 10.6753 11.249V12.7073H12.0837C12.4253 12.7073 12.7087 12.9907 12.7087 13.3323C12.7087 13.674 12.4253 13.9573 12.0837 13.9573Z" fill="#FEFEFE"/>
</svg>
