<svg width="301" height="267" viewBox="0 0 301 267" fill="none" xmlns="http://www.w3.org/2000/svg">
<path d="M113.953 266.599C144.996 266.599 170.162 252.843 170.162 235.875C170.162 218.908 144.996 205.152 113.953 205.152C82.9104 205.152 57.7451 218.908 57.7451 235.875C57.7451 252.843 82.9104 266.599 113.953 266.599Z" fill="#E0E0E0"/>
<path d="M273.798 197.434L267.205 193.831C267.205 193.831 265.593 180.467 266.665 170.117C268.173 155.574 278.095 138.071 289.926 142.184C301.757 146.298 284.502 161.103 280.662 173.438C276.822 185.773 273.798 197.434 273.798 197.434Z" fill="#2B7A78"/>
<path opacity="0.15" d="M273.798 197.434L267.205 193.831C267.205 193.831 265.593 180.467 266.665 170.117C268.173 155.574 278.095 138.071 289.926 142.184C301.757 146.298 284.502 161.103 280.662 173.438C276.822 185.773 273.798 197.434 273.798 197.434Z" fill="black"/>
<path d="M270.332 195.921C270.438 195.915 270.537 195.871 270.608 195.798C270.679 195.724 270.717 195.627 270.713 195.527C269.558 163.212 286.55 146.953 286.716 146.796C286.791 146.725 286.834 146.628 286.834 146.528C286.834 146.427 286.791 146.33 286.716 146.259C286.68 146.224 286.636 146.196 286.588 146.177C286.54 146.158 286.488 146.148 286.436 146.148C286.384 146.148 286.332 146.158 286.284 146.177C286.236 146.196 286.192 146.224 286.156 146.259C285.976 146.416 268.741 162.911 269.91 195.554C269.912 195.604 269.925 195.654 269.947 195.7C269.969 195.746 270.001 195.787 270.04 195.821C270.079 195.855 270.126 195.882 270.176 195.899C270.226 195.916 270.279 195.923 270.332 195.921Z" fill="white"/>
<path d="M277.942 199.681L273.251 197.12C273.251 197.12 272.449 187.949 277.202 176.813C281.353 167.118 291.593 159.067 296.755 160.757C301.916 162.447 301.784 165.912 299.266 169.548C296.748 173.184 281.45 181.837 277.942 199.681Z" fill="#2B7A78"/>
<path d="M275.466 198.709C275.572 198.708 275.673 198.667 275.748 198.596C275.823 198.525 275.866 198.43 275.867 198.329C275.77 177.891 296.036 164.082 296.243 163.944C296.286 163.916 296.323 163.88 296.351 163.838C296.379 163.796 296.398 163.75 296.407 163.701C296.415 163.652 296.413 163.601 296.4 163.553C296.388 163.505 296.365 163.46 296.333 163.42C296.272 163.339 296.18 163.285 296.076 163.267C295.973 163.25 295.866 163.272 295.78 163.329C295.572 163.466 274.975 177.511 275.065 198.329C275.065 198.43 275.107 198.527 275.182 198.598C275.258 198.669 275.36 198.709 275.466 198.709Z" fill="white"/>
<path d="M29.8273 189.41L35.9159 185.519C35.9159 185.519 38.5934 170.452 36.1027 157.161C32.6018 138.517 18.9925 132.32 14.1493 134.285C9.30616 136.25 8.26834 141.799 17.3112 152.437C22.6733 158.693 29.6405 172.05 29.8273 189.41Z" fill="#2B7A78"/>
<g opacity="0.15">
<path d="M29.8273 189.41L35.9159 185.519C35.9159 185.519 38.5934 170.452 36.1027 157.161C32.6018 138.517 18.9925 132.32 14.1493 134.285C9.30616 136.25 8.26834 141.799 17.3112 152.437C22.6733 158.693 29.6405 172.05 29.8273 189.41Z" fill="black"/>
</g>
<path d="M31.9162 181.942H31.854C31.7918 181.938 31.7311 181.922 31.6759 181.895C31.6207 181.867 31.5723 181.829 31.5338 181.783C31.4953 181.736 31.4675 181.683 31.4523 181.625C31.4372 181.568 31.4349 181.509 31.4457 181.45C33.6459 163.901 25.8208 144.851 17.3037 137.272C17.2218 137.194 17.1758 137.088 17.1758 136.977C17.1758 136.867 17.2218 136.761 17.3037 136.682C17.3443 136.643 17.3927 136.612 17.4462 136.591C17.4997 136.57 17.5571 136.559 17.6151 136.559C17.6731 136.559 17.7305 136.57 17.7839 136.591C17.8374 136.612 17.8858 136.643 17.9264 136.682C26.6026 144.399 34.573 163.763 32.3452 181.568C32.3321 181.669 32.2818 181.761 32.2032 181.83C32.1246 181.898 32.0229 181.938 31.9162 181.942Z" fill="white"/>
<path d="M13.886 199.592C12.9174 200.142 10.0945 198.157 9.3127 197.679C7.97279 196.851 6.88133 195.709 6.14389 194.364C5.3166 192.839 5.00958 191.109 5.26521 189.412C5.40691 188.526 5.61265 187.651 5.88098 186.792C6.12314 185.933 6.3653 185.075 6.57286 184.211C6.8797 183.369 6.99753 182.477 6.9188 181.59C6.64897 179.841 4.98154 178.642 3.4594 177.614C1.78505 176.468 0 174.954 0 172.845C0.0853508 171.188 0.755297 169.605 1.90267 168.351C2.94049 167.041 4.18587 165.901 5.11991 164.532C5.8503 163.583 6.22308 162.43 6.17849 161.257C6.0582 160.533 5.78525 159.841 5.37591 159.219C4.55949 157.857 3.50091 156.599 2.92665 155.151C2.35239 153.704 2.3939 151.843 3.61853 150.762C4.59408 149.878 6.08163 149.734 7.43079 149.793C8.70212 149.913 9.93022 150.295 11.0286 150.913C14.6056 152.714 16.7089 156.645 20.4935 158.014C21.9534 158.538 23.5447 158.63 25.0599 158.984C26.5751 159.337 28.1388 160.038 28.8652 161.342C30.2974 163.929 27.7997 167.192 28.8237 169.936C29.737 172.373 32.2831 173.264 33.7222 175.446C34.3063 176.414 34.5487 177.534 34.4141 178.642C34.3329 180.513 33.8897 182.354 33.1065 184.073C32.2056 185.856 31.1889 187.584 30.0622 189.248C30.0622 189.248 14.0313 199.507 13.886 199.592Z" fill="#2B7A78"/>
<path d="M23.2401 194.158C23.1819 194.157 23.1245 194.145 23.0712 194.123C23.0178 194.101 22.9695 194.07 22.929 194.03C22.8885 193.991 22.8567 193.944 22.8353 193.893C22.8138 193.842 22.8033 193.787 22.8042 193.732C23.1917 177.145 14.5708 159.013 8.46846 153.772C8.38173 153.698 8.32943 153.594 8.32295 153.484C8.31647 153.374 8.35634 153.265 8.43387 153.182C8.47445 153.143 8.52289 153.112 8.57636 153.091C8.62982 153.07 8.68722 153.059 8.74521 153.059C8.8032 153.059 8.86061 153.07 8.91407 153.091C8.96753 153.112 9.01598 153.143 9.05656 153.182C15.2835 158.489 24.0773 176.936 23.6829 193.751C23.682 193.806 23.6698 193.859 23.6471 193.909C23.6243 193.959 23.5915 194.004 23.5504 194.041C23.5092 194.079 23.4607 194.109 23.4074 194.129C23.3542 194.149 23.2973 194.158 23.2401 194.158Z" fill="white"/>
<path d="M20.0091 173.949C19.9682 173.959 19.9254 173.959 19.8846 173.949C14.225 172.403 7.20931 172.246 7.14012 172.239C7.08228 172.238 7.0252 172.226 6.9722 172.205C6.9192 172.183 6.87134 172.151 6.83141 172.111C6.79148 172.072 6.76029 172.025 6.73964 171.974C6.719 171.923 6.70932 171.868 6.71116 171.813C6.71007 171.758 6.72113 171.703 6.74362 171.652C6.76612 171.601 6.79956 171.555 6.84183 171.517C6.88411 171.479 6.93429 171.449 6.98921 171.43C7.04413 171.411 7.10259 171.403 7.16088 171.407C7.23007 171.407 14.3564 171.571 20.1267 173.143C20.2382 173.175 20.332 173.247 20.3877 173.344C20.4434 173.441 20.4565 173.555 20.4242 173.661C20.3973 173.745 20.3422 173.818 20.2674 173.87C20.1925 173.922 20.1019 173.95 20.0091 173.949Z" fill="white"/>
<path d="M183.079 178.005L180.456 176.571C180.02 176.302 179.656 175.94 179.395 175.513C179.134 175.086 178.983 174.607 178.955 174.114V70.9262C178.984 70.4346 179.134 69.9561 179.393 69.5295C179.653 69.1028 180.015 68.7398 180.45 68.4697L253.339 28.6279C253.803 28.4051 254.317 28.2891 254.837 28.2891C255.357 28.2891 255.871 28.4051 256.335 28.6279L258.957 30.0625C259.394 30.3311 259.758 30.6936 260.019 31.1204C260.28 31.5473 260.43 32.0265 260.459 32.519V135.707C260.43 136.199 260.28 136.677 260.02 137.104C259.761 137.53 259.399 137.893 258.964 138.163L186.075 178.012C185.61 178.235 185.097 178.351 184.576 178.35C184.055 178.349 183.542 178.231 183.079 178.005Z" fill="#455A64"/>
<path d="M260.458 32.2897C260.354 31.5561 259.725 31.2875 258.971 31.7002L186.074 71.5486C185.633 71.8104 185.269 72.1731 185.016 72.6032L179.391 69.5309C179.642 69.0976 180.007 68.7323 180.449 68.4697L253.339 28.6279C253.803 28.4051 254.316 28.2891 254.837 28.2891C255.357 28.2891 255.87 28.4051 256.335 28.6279L258.957 30.0625C259.362 30.3094 259.706 30.6362 259.965 31.0206C260.224 31.4051 260.392 31.838 260.458 32.2897Z" fill="#455A64"/>
<path d="M185.818 178.124C185.375 178.293 184.899 178.371 184.421 178.352C183.944 178.333 183.476 178.217 183.05 178.012L180.421 176.571C179.986 176.301 179.625 175.938 179.365 175.511C179.105 175.085 178.955 174.606 178.927 174.114V70.9266C178.945 70.434 179.095 69.9538 179.363 69.5312L184.988 72.6036C184.714 73.0266 184.562 73.5097 184.545 74.0054V177.193C184.572 178.006 185.112 178.379 185.818 178.124Z" fill="#263238"/>
<path d="M184.572 74.0194V177.194C184.572 178.098 185.264 178.465 186.074 178.013L258.963 138.165C259.398 137.895 259.76 137.531 260.019 137.105C260.279 136.678 260.429 136.2 260.458 135.708V32.5202C260.458 31.6162 259.766 31.2493 258.963 31.7013L186.074 71.5497C185.635 71.8196 185.27 72.1841 185.009 72.6135C184.748 73.0428 184.598 73.5246 184.572 74.0194Z" fill="#37474F"/>
<path d="M167.553 113.324C166.612 112.793 162.246 110.441 162.018 110.317C161.84 110.216 161.688 110.079 161.573 109.916C161.459 109.752 161.385 109.567 161.356 109.372C161.327 109.178 161.345 108.98 161.408 108.793C161.471 108.606 161.578 108.435 161.72 108.293L178.955 90.7891L184.573 93.8417L167.345 111.358C167.21 111.495 167.107 111.657 167.043 111.834C166.98 112.012 166.957 112.2 166.977 112.386C166.996 112.572 167.058 112.752 167.157 112.914C167.257 113.076 167.391 113.215 167.553 113.324Z" fill="#455A64"/>
<path d="M184.572 93.8594L167.345 111.357C167.153 111.55 167.028 111.794 166.986 112.056C166.944 112.318 166.987 112.586 167.109 112.824C167.232 113.062 167.427 113.26 167.671 113.391C167.914 113.522 168.193 113.58 168.472 113.558L184.572 112.3V93.8594Z" fill="#37474F"/>
<path d="M222.515 62.3562C231.012 57.7117 237.896 61.4784 237.896 70.7674C237.896 80.0564 231.012 91.3434 222.515 95.9879C214.019 100.632 207.135 96.8657 207.135 87.5833C207.135 78.3008 214.019 67.0007 222.515 62.3562Z" fill="#2B7A78"/>
<path d="M222.405 69.6694C225.172 68.1627 227.393 69.3812 227.393 72.3945C227.299 74.0325 226.798 75.6265 225.931 77.0469C225.064 78.4674 223.856 79.6743 222.405 80.5699C219.637 82.0766 217.409 80.8581 217.409 77.8448C217.504 76.2061 218.006 74.6119 218.874 73.1914C219.742 71.7709 220.952 70.5642 222.405 69.6694Z" fill="white"/>
<path d="M232.243 85.7322C232.243 80.7863 228.569 78.7752 224.044 81.2514L221.214 82.7974C216.69 85.2736 213.016 91.3134 213.016 96.2462V97.6022C213.87 97.8607 214.762 97.9911 215.659 97.9887C218.086 97.9105 220.45 97.2331 222.515 96.0234C226.448 93.7297 229.776 90.6152 232.243 86.9178V85.7322Z" fill="white"/>
<path d="M212.774 141.97L232.257 131.319C233.087 130.867 233.759 131.233 233.759 132.137V138.079C233.73 138.571 233.58 139.051 233.319 139.477C233.058 139.904 232.694 140.267 232.257 140.535L212.774 151.187C211.944 151.639 211.272 151.272 211.272 150.368V144.427C211.301 143.934 211.451 143.455 211.712 143.028C211.973 142.601 212.337 142.239 212.774 141.97Z" fill="#2B7A78"/>
<path d="M203.233 128.696L241.777 107.616C242.767 107.072 243.576 107.511 243.576 108.599V110.806C243.542 111.397 243.362 111.972 243.049 112.484C242.737 112.996 242.301 113.431 241.777 113.754L203.212 134.835C202.223 135.378 201.42 134.939 201.42 133.852V131.664C201.451 131.069 201.632 130.489 201.948 129.973C202.263 129.457 202.703 129.019 203.233 128.696Z" fill="#FAFAFA"/>
<path d="M207.744 113.439C208.27 113.151 208.678 113.105 208.969 113.308C209.259 113.511 209.404 113.963 209.404 114.658C209.419 115.292 209.269 115.919 208.969 116.485C208.697 116.997 208.27 117.421 207.744 117.704L206.706 118.274V120.39C206.704 120.463 206.685 120.534 206.651 120.599C206.626 120.659 206.583 120.709 206.526 120.743L206 121.032C205.982 121.044 205.961 121.051 205.938 121.051C205.916 121.051 205.894 121.044 205.876 121.032C205.839 120.987 205.821 120.931 205.827 120.874V114.749C205.827 114.677 205.843 114.605 205.876 114.54C205.902 114.482 205.945 114.432 206 114.396L207.744 113.439ZM206.706 117.088L207.709 116.538C207.952 116.408 208.156 116.224 208.304 116.001C208.462 115.738 208.538 115.438 208.526 115.136C208.526 114.782 208.45 114.579 208.304 114.52C208.202 114.497 208.095 114.495 207.992 114.517C207.888 114.539 207.792 114.582 207.709 114.645L206.706 115.195V117.088Z" fill="#FAFAFA"/>
<path d="M212.303 110.944C212.373 110.904 212.428 110.904 212.462 110.944C212.507 111.002 212.537 111.069 212.552 111.14L214.151 116.263C214.151 116.263 214.151 116.302 214.151 116.322C214.15 116.395 214.131 116.466 214.095 116.531C214.071 116.591 214.027 116.641 213.971 116.675L213.5 116.931C213.417 116.977 213.355 116.983 213.32 116.931C213.287 116.898 213.263 116.857 213.251 116.813L212.968 115.916L210.892 117.042L210.615 118.248C210.596 118.313 210.57 118.376 210.539 118.438C210.505 118.517 210.441 118.583 210.359 118.621L209.889 118.877C209.871 118.89 209.849 118.898 209.826 118.898C209.804 118.898 209.782 118.89 209.764 118.877C209.728 118.834 209.711 118.78 209.716 118.726C209.712 118.702 209.712 118.678 209.716 118.654L211.307 111.789C211.326 111.688 211.356 111.589 211.397 111.494C211.431 111.425 211.486 111.368 211.556 111.33L212.303 110.944ZM212.663 114.913L211.971 112.601L211.279 115.693L212.663 114.913Z" fill="#FAFAFA"/>
<path d="M216.573 108.515C216.804 108.377 217.068 108.294 217.341 108.273C217.534 108.257 217.727 108.298 217.894 108.391C218.046 108.484 218.164 108.619 218.233 108.777C218.309 108.939 218.351 109.112 218.358 109.288C218.362 109.361 218.346 109.434 218.309 109.498C218.285 109.557 218.241 109.608 218.185 109.642L217.728 109.891C217.652 109.93 217.597 109.937 217.562 109.891C217.519 109.864 217.484 109.828 217.458 109.786C217.43 109.727 217.39 109.674 217.34 109.63C217.291 109.587 217.232 109.553 217.168 109.531C216.957 109.502 216.743 109.554 216.573 109.675C216.46 109.743 216.354 109.82 216.254 109.904C216.152 109.994 216.061 110.095 215.984 110.206C215.911 110.312 215.851 110.426 215.805 110.546C215.764 110.66 215.743 110.78 215.742 110.9C215.734 111.01 215.756 111.121 215.805 111.221C215.826 111.256 215.856 111.286 215.892 111.308C215.928 111.329 215.969 111.342 216.012 111.345C216.14 111.366 216.271 111.366 216.4 111.345L217.002 111.221C217.226 111.158 217.46 111.131 217.693 111.142C217.86 111.142 218.023 111.192 218.157 111.286C218.284 111.387 218.375 111.522 218.42 111.673C218.488 111.885 218.518 112.106 218.51 112.328C218.509 112.621 218.465 112.912 218.378 113.193C218.294 113.482 218.171 113.759 218.012 114.018C217.844 114.284 217.644 114.53 217.417 114.752C217.184 114.98 216.919 115.177 216.628 115.335C216.415 115.458 216.181 115.544 215.936 115.59C215.737 115.627 215.531 115.611 215.341 115.544C215.168 115.468 215.025 115.342 214.933 115.184C214.82 114.982 214.758 114.758 214.753 114.529C214.752 114.455 214.769 114.381 214.801 114.313C214.832 114.257 214.877 114.21 214.933 114.175L215.389 113.926C215.459 113.887 215.514 113.874 215.556 113.894C215.597 113.913 215.625 113.946 215.652 114.005C215.681 114.072 215.718 114.136 215.763 114.195C215.806 114.252 215.866 114.295 215.936 114.319C216.027 114.339 216.122 114.339 216.213 114.319C216.36 114.287 216.5 114.231 216.628 114.156C216.762 114.083 216.889 114 217.008 113.907C217.241 113.732 217.426 113.508 217.548 113.252C217.604 113.12 217.632 112.98 217.631 112.839C217.638 112.788 217.633 112.736 217.618 112.686C217.602 112.636 217.576 112.59 217.541 112.551C217.504 112.52 217.46 112.496 217.412 112.483C217.364 112.469 217.314 112.466 217.264 112.472C217.107 112.478 216.952 112.502 216.801 112.544C216.621 112.583 216.413 112.629 216.171 112.669C215.986 112.713 215.794 112.726 215.604 112.708C215.454 112.699 215.312 112.641 215.203 112.544C215.083 112.433 214.999 112.292 214.961 112.138C214.905 111.91 214.879 111.677 214.884 111.444C214.884 111.155 214.928 110.868 215.016 110.592C215.098 110.308 215.219 110.035 215.376 109.78C215.525 109.527 215.706 109.291 215.915 109.079C216.105 108.862 216.326 108.673 216.573 108.515Z" fill="#FAFAFA"/>
<path d="M221.117 106.037C221.347 105.895 221.611 105.809 221.885 105.788C222.078 105.773 222.272 105.814 222.439 105.906C222.587 106.002 222.702 106.136 222.771 106.293C222.847 106.454 222.889 106.627 222.896 106.804C222.904 106.877 222.887 106.95 222.847 107.013C222.823 107.073 222.779 107.123 222.723 107.157L222.266 107.406C222.197 107.446 222.141 107.459 222.1 107.406C222.056 107.38 222.022 107.341 222.003 107.295C221.94 107.18 221.834 107.091 221.706 107.046C221.602 107.032 221.497 107.037 221.396 107.062C221.295 107.087 221.2 107.13 221.117 107.19C221.002 107.257 220.893 107.334 220.792 107.42C220.692 107.509 220.603 107.61 220.529 107.721C220.453 107.826 220.393 107.941 220.349 108.061C220.306 108.175 220.283 108.295 220.28 108.415C220.272 108.525 220.294 108.636 220.343 108.736C220.364 108.771 220.394 108.801 220.43 108.823C220.466 108.845 220.507 108.858 220.55 108.861C220.678 108.882 220.809 108.882 220.938 108.861L221.539 108.736C221.765 108.677 221.998 108.65 222.231 108.658C222.398 108.656 222.561 108.707 222.695 108.802C222.821 108.904 222.915 109.038 222.965 109.188C223.026 109.402 223.054 109.622 223.048 109.843C223.047 110.136 223.003 110.427 222.916 110.708C222.832 110.997 222.709 111.274 222.55 111.533C222.383 111.802 222.183 112.05 221.955 112.274C221.721 112.497 221.458 112.69 221.173 112.85C220.959 112.972 220.725 113.059 220.481 113.106C220.284 113.141 220.081 113.125 219.893 113.06C219.716 112.986 219.571 112.859 219.478 112.699C219.364 112.498 219.305 112.273 219.305 112.044C219.297 111.971 219.314 111.898 219.353 111.835C219.378 111.775 219.421 111.725 219.478 111.691L219.934 111.442C220.004 111.402 220.066 111.389 220.1 111.409C220.124 111.419 220.146 111.435 220.162 111.454C220.179 111.473 220.191 111.496 220.197 111.52C220.229 111.586 220.266 111.65 220.308 111.71C220.353 111.768 220.416 111.811 220.488 111.835C220.579 111.855 220.674 111.855 220.765 111.835C220.911 111.802 221.052 111.747 221.18 111.671C221.311 111.597 221.435 111.514 221.553 111.422C221.675 111.332 221.782 111.226 221.872 111.108C221.961 110.994 222.035 110.871 222.093 110.741C222.148 110.61 222.177 110.469 222.176 110.328C222.183 110.277 222.178 110.225 222.162 110.175C222.147 110.126 222.121 110.08 222.086 110.04C222.049 110.009 222.005 109.985 221.957 109.972C221.909 109.958 221.859 109.955 221.809 109.961C221.655 109.97 221.502 109.994 221.353 110.033C221.173 110.073 220.958 110.118 220.723 110.158C220.535 110.202 220.341 110.215 220.149 110.197C219.999 110.19 219.856 110.131 219.748 110.033C219.63 109.922 219.549 109.781 219.512 109.627C219.451 109.403 219.423 109.171 219.429 108.939C219.432 108.649 219.476 108.36 219.561 108.081C219.646 107.798 219.767 107.525 219.921 107.269C220.07 107.014 220.254 106.778 220.467 106.568C220.653 106.36 220.873 106.181 221.117 106.037Z" fill="#FAFAFA"/>
<path d="M226.161 106.858L225.601 109.996C225.584 110.091 225.556 110.183 225.518 110.271C225.491 110.342 225.44 110.402 225.372 110.442L224.847 110.73C224.777 110.769 224.729 110.769 224.694 110.73C224.648 110.676 224.621 110.609 224.618 110.54L223.788 105.005C223.788 105.005 223.788 104.952 223.788 104.933C223.79 104.86 223.809 104.788 223.843 104.723C223.87 104.665 223.913 104.615 223.968 104.579L224.445 104.317C224.485 104.301 224.53 104.301 224.57 104.317C224.611 104.317 224.639 104.369 224.653 104.474L225.2 108.201L225.677 105.404C225.689 105.334 225.71 105.266 225.739 105.201C225.767 105.118 225.826 105.048 225.905 105.005L226.438 104.71C226.514 104.67 226.569 104.677 226.604 104.71C226.634 104.751 226.655 104.798 226.666 104.847L227.151 107.12L227.697 102.797C227.704 102.712 227.73 102.629 227.773 102.555C227.806 102.506 227.848 102.463 227.898 102.43L228.375 102.168C228.393 102.155 228.415 102.148 228.438 102.148C228.46 102.148 228.482 102.155 228.5 102.168C228.519 102.19 228.535 102.214 228.544 102.241C228.553 102.268 228.557 102.297 228.555 102.325C228.558 102.351 228.558 102.378 228.555 102.404L227.725 108.843C227.711 108.938 227.685 109.03 227.649 109.118C227.617 109.188 227.564 109.248 227.497 109.289L226.964 109.577C226.902 109.61 226.853 109.61 226.819 109.577C226.783 109.517 226.756 109.453 226.736 109.387L226.161 106.858Z" fill="#FAFAFA"/>
<path d="M229.4 104.079C229.415 103.715 229.461 103.354 229.538 102.998C229.617 102.65 229.738 102.311 229.898 101.989C230.05 101.676 230.246 101.383 230.479 101.118C230.715 100.855 230.999 100.633 231.316 100.463C231.56 100.306 231.845 100.217 232.139 100.207C232.359 100.209 232.57 100.291 232.728 100.436C232.895 100.615 233.016 100.828 233.08 101.059C233.17 101.36 233.218 101.67 233.226 101.982C233.226 102.1 233.226 102.231 233.226 102.375C233.226 102.519 233.226 102.67 233.226 102.827C233.226 102.985 233.226 103.135 233.226 103.279C233.226 103.423 233.226 103.561 233.226 103.685C233.211 104.047 233.164 104.406 233.087 104.76C233.007 105.107 232.889 105.445 232.734 105.769C232.577 106.081 232.38 106.374 232.146 106.64C231.91 106.9 231.629 107.122 231.316 107.295C231.067 107.45 230.777 107.539 230.479 107.55C230.371 107.553 230.264 107.534 230.164 107.496C230.064 107.457 229.974 107.4 229.898 107.328C229.717 107.144 229.593 106.918 229.538 106.673C229.456 106.371 229.409 106.061 229.4 105.749C229.4 105.631 229.4 105.5 229.4 105.356C229.4 105.212 229.4 105.061 229.4 104.904C229.4 104.747 229.4 104.603 229.4 104.452C229.4 104.301 229.393 104.196 229.4 104.079ZM232.347 102.513C232.362 102.353 232.343 102.191 232.291 102.038C232.239 101.885 232.154 101.743 232.043 101.622C231.863 101.471 231.614 101.478 231.316 101.622C230.993 101.802 230.737 102.072 230.583 102.395C230.387 102.777 230.283 103.195 230.278 103.62C230.278 103.862 230.278 104.131 230.278 104.426C230.278 104.721 230.278 104.983 230.278 105.218C230.263 105.379 230.282 105.54 230.334 105.693C230.387 105.846 230.471 105.988 230.583 106.109C230.763 106.253 231.012 106.24 231.316 106.077C231.634 105.896 231.887 105.629 232.043 105.31C232.239 104.931 232.343 104.514 232.347 104.092C232.347 103.843 232.347 103.574 232.347 103.279C232.347 102.985 232.354 102.749 232.347 102.513Z" fill="#FAFAFA"/>
<path d="M236.243 97.849C236.789 97.5542 237.198 97.5084 237.481 97.7245C237.649 97.8999 237.774 98.1083 237.847 98.3348C237.92 98.5614 237.939 98.8004 237.903 99.0347C237.909 99.4796 237.837 99.9224 237.689 100.345C237.548 100.738 237.33 101.103 237.045 101.419L237.945 103.273C237.948 103.304 237.948 103.334 237.945 103.365C237.945 103.424 237.931 103.482 237.903 103.535C237.884 103.583 237.85 103.624 237.806 103.653L237.253 103.954C237.163 104 237.101 104.007 237.059 103.954C237.023 103.92 236.992 103.88 236.969 103.836L236.118 102.087L235.253 102.559V104.773C235.254 104.846 235.237 104.917 235.205 104.983C235.177 105.04 235.134 105.089 235.08 105.127L234.555 105.415C234.537 105.429 234.515 105.437 234.492 105.437C234.47 105.437 234.448 105.429 234.43 105.415C234.41 105.395 234.395 105.371 234.386 105.345C234.376 105.319 234.372 105.292 234.375 105.264V99.1395C234.377 99.0666 234.396 98.9951 234.43 98.9299C234.455 98.8706 234.498 98.8201 234.555 98.7858L236.243 97.849ZM235.267 101.373L236.243 100.875C236.481 100.749 236.685 100.572 236.838 100.358C236.998 100.106 237.075 99.8136 237.059 99.5194C237.059 99.1657 236.983 98.9692 236.838 98.9299C236.627 98.9028 236.414 98.9545 236.243 99.074L235.302 99.585L235.267 101.373Z" fill="#FAFAFA"/>
<path d="M240.878 95.3264C241.129 95.1713 241.416 95.0768 241.715 95.0513C241.932 95.0438 242.143 95.1166 242.303 95.2544C242.486 95.4369 242.613 95.6634 242.67 95.9095C242.763 96.2343 242.814 96.5687 242.822 96.9052C242.822 97.3637 242.822 97.8354 242.822 98.3136C242.808 98.7036 242.757 99.0917 242.67 99.4731C242.591 99.8275 242.47 100.172 242.31 100.502C242.156 100.804 241.96 101.086 241.729 101.34C241.498 101.6 241.222 101.822 240.912 101.995L239.273 102.84C239.255 102.854 239.233 102.862 239.21 102.862C239.188 102.862 239.166 102.854 239.148 102.84C239.128 102.82 239.112 102.797 239.103 102.771C239.093 102.745 239.09 102.717 239.093 102.69V96.5645C239.095 96.4917 239.114 96.4201 239.148 96.3549C239.173 96.2956 239.216 96.2452 239.273 96.2108L240.878 95.3264ZM241.943 97.3637C241.94 97.1863 241.912 97.0101 241.86 96.8397C241.828 96.7107 241.759 96.5928 241.66 96.499C241.616 96.4579 241.564 96.4257 241.507 96.4043C241.45 96.3828 241.389 96.3727 241.328 96.3746C241.154 96.3855 240.987 96.4398 240.843 96.5318L239.971 97.0034V101.275L240.878 100.783C241.053 100.687 241.21 100.563 241.341 100.416C241.47 100.273 241.579 100.114 241.667 99.9447C241.753 99.7643 241.818 99.5753 241.86 99.3814C241.908 99.1791 241.936 98.9729 241.943 98.7656C241.964 98.2874 241.964 97.8223 241.943 97.3637Z" fill="#FAFAFA"/>
<path d="M145.869 0.251081C147.063 0.502683 148.214 0.912891 149.287 1.46953C150.314 1.99246 151.235 2.68456 152.006 3.51337C152.744 4.31064 153.291 5.24905 153.611 6.2647C153.938 7.35188 153.962 8.50055 153.68 9.59904C153.495 10.47 153.13 11.2979 152.608 12.0359C152.131 12.667 151.563 13.2315 150.92 13.7129C150.288 14.1771 149.615 14.587 148.906 14.9379L146.914 15.9402C146.314 16.2366 145.744 16.5853 145.212 16.9818C144.731 17.3313 144.362 17.8009 144.146 18.3378C144.041 18.5831 143.866 18.7961 143.641 18.9536C143.535 19.0318 143.411 19.0861 143.279 19.1122C143.147 19.1383 143.011 19.1356 142.88 19.1042L139.947 18.4885C139.805 18.4604 139.671 18.406 139.553 18.3284C139.434 18.2508 139.333 18.1515 139.255 18.0364C139.172 17.9295 139.117 17.8055 139.094 17.6746C139.071 17.5438 139.081 17.4096 139.123 17.2831C139.359 16.4229 139.776 15.6165 140.348 14.9117C140.87 14.2883 141.474 13.7313 142.147 13.2544C142.802 12.8003 143.496 12.3993 144.222 12.0556C144.914 11.7215 145.606 11.4005 146.208 11.0795C146.768 10.7946 147.295 10.4542 147.779 10.0641C148.203 9.72742 148.498 9.26653 148.616 8.75399C148.726 8.30892 148.72 7.84524 148.6 7.4026C148.479 6.95996 148.248 6.55155 147.924 6.21229C147.115 5.37595 146.033 4.82016 144.852 4.63355C142.666 4.175 140.821 4.87156 139.317 6.72325C139.172 6.92537 138.989 7.10074 138.777 7.24076C138.538 7.35285 138.263 7.37167 138.009 7.29317L134.889 6.63809C134.666 6.59737 134.47 6.47491 134.342 6.29745C134.274 6.20264 134.229 6.09506 134.208 5.98203C134.188 5.869 134.194 5.75316 134.225 5.64237C134.49 4.73211 134.984 3.89605 135.664 3.20548C136.431 2.40462 137.342 1.7392 138.355 1.24025C139.463 0.691555 140.657 0.315519 141.891 0.126617C143.213 -0.0769881 144.564 -0.0347128 145.869 0.251081ZM142.555 21.3315C142.829 21.3925 143.068 21.5528 143.219 21.778C143.37 22.0033 143.423 22.2756 143.364 22.5368L142.617 25.7467C142.592 25.8811 142.537 26.0089 142.456 26.1218C142.375 26.2347 142.269 26.3301 142.147 26.4018C142.031 26.4774 141.9 26.5293 141.762 26.5541C141.623 26.5789 141.481 26.5761 141.344 26.5459L137.995 25.8188C137.853 25.796 137.718 25.7445 137.598 25.6676C137.479 25.5907 137.378 25.4903 137.304 25.3733C137.226 25.2627 137.173 25.1382 137.148 25.0076C137.123 24.8769 137.127 24.7428 137.158 24.6134L137.912 21.4035C137.977 21.1433 138.146 20.9171 138.384 20.7728C138.621 20.6285 138.909 20.5775 139.186 20.6306L142.555 21.3315Z" fill="#2B7A78"/>
<path d="M149.564 30.9791C150.397 30.8526 151.245 30.8371 152.082 30.9332C152.882 31.0233 153.66 31.245 154.379 31.5883C155.065 31.9249 155.668 32.3935 156.151 32.964C156.584 33.5223 156.89 34.1606 157.047 34.8376C157.205 35.5146 157.21 36.2153 157.064 36.8945C156.932 37.4166 156.72 37.9177 156.434 38.3815C156.159 38.8326 155.839 39.2581 155.479 39.6523C155.127 40.0454 154.788 40.4188 154.476 40.7791C154.171 41.1147 153.9 41.4766 153.667 41.8599C153.447 42.1959 153.337 42.5853 153.348 42.9801C153.342 43.1646 153.288 43.3448 153.189 43.5042C153.139 43.5776 153.073 43.6402 152.996 43.6876C152.918 43.735 152.831 43.7663 152.74 43.7793L150.664 44.0938C150.567 44.1104 150.467 44.1086 150.371 44.0883C150.275 44.0681 150.184 44.0298 150.104 43.9758C150.022 43.9272 149.953 43.8608 149.904 43.7822C149.855 43.7037 149.826 43.6151 149.82 43.5238C149.733 42.9143 149.78 42.2942 149.958 41.7027C150.121 41.1791 150.353 40.6772 150.65 40.2091C150.941 39.76 151.275 39.3368 151.646 38.9448C152.013 38.5518 152.338 38.185 152.657 37.8312C152.941 37.5153 153.187 37.1703 153.39 36.8027C153.57 36.4863 153.636 36.1228 153.577 35.7677C153.525 35.4552 153.394 35.1592 153.195 34.9049C152.996 34.6505 152.736 34.4454 152.435 34.3069C151.691 33.9667 150.849 33.8699 150.041 34.0318C149.31 34.1331 148.629 34.4462 148.092 34.9282C147.556 35.4102 147.19 36.0376 147.045 36.7241C147.005 36.8893 146.935 37.0466 146.838 37.1892C146.714 37.3136 146.547 37.3905 146.367 37.4054L144.181 37.7395C144.027 37.7673 143.868 37.7367 143.738 37.6543C143.672 37.611 143.616 37.5547 143.574 37.4891C143.532 37.4236 143.506 37.3504 143.496 37.2744C143.431 36.6244 143.538 35.9692 143.807 35.3681C144.081 34.6687 144.484 34.021 144.997 33.4553C145.56 32.8359 146.223 32.3052 146.962 31.8831C147.76 31.4253 148.643 31.1183 149.564 30.9791ZM153.134 45.2925C153.229 45.2782 153.327 45.2819 153.42 45.3032C153.514 45.3246 153.603 45.3632 153.681 45.417C153.762 45.4678 153.831 45.5343 153.884 45.6122C153.936 45.6901 153.971 45.7776 153.985 45.869L154.372 48.1159C154.402 48.2982 154.355 48.4843 154.241 48.6339C154.127 48.7835 153.956 48.8846 153.764 48.9151L151.446 49.2754C151.253 49.3036 151.057 49.2589 150.899 49.151C150.819 49.0995 150.751 49.0327 150.7 48.9549C150.648 48.877 150.615 48.7898 150.602 48.699L150.214 46.452C150.197 46.3619 150.199 46.2692 150.222 46.1801C150.245 46.0909 150.287 46.0073 150.346 45.9345C150.4 45.8585 150.471 45.7942 150.553 45.7457C150.635 45.6971 150.727 45.6655 150.823 45.6528L153.134 45.2925Z" fill="#2B7A78"/>
<g opacity="0.2">
<path d="M149.564 30.9791C150.397 30.8526 151.245 30.8371 152.082 30.9332C152.882 31.0233 153.66 31.245 154.379 31.5883C155.065 31.9249 155.668 32.3935 156.151 32.964C156.584 33.5223 156.89 34.1606 157.047 34.8376C157.205 35.5146 157.21 36.2153 157.064 36.8945C156.932 37.4166 156.72 37.9177 156.434 38.3815C156.159 38.8326 155.839 39.2581 155.479 39.6523C155.127 40.0454 154.788 40.4188 154.476 40.7791C154.171 41.1147 153.9 41.4766 153.667 41.8599C153.447 42.1959 153.337 42.5853 153.348 42.9801C153.342 43.1646 153.288 43.3448 153.189 43.5042C153.139 43.5776 153.073 43.6402 152.996 43.6876C152.918 43.735 152.831 43.7663 152.74 43.7793L150.664 44.0938C150.567 44.1104 150.467 44.1086 150.371 44.0883C150.275 44.0681 150.184 44.0298 150.104 43.9758C150.022 43.9272 149.953 43.8608 149.904 43.7822C149.855 43.7037 149.826 43.6151 149.82 43.5238C149.733 42.9143 149.78 42.2942 149.958 41.7027C150.121 41.1791 150.353 40.6772 150.65 40.2091C150.941 39.76 151.275 39.3368 151.646 38.9448C152.013 38.5518 152.338 38.185 152.657 37.8312C152.941 37.5153 153.187 37.1703 153.39 36.8027C153.57 36.4863 153.636 36.1228 153.577 35.7677C153.525 35.4552 153.394 35.1592 153.195 34.9049C152.996 34.6505 152.736 34.4454 152.435 34.3069C151.691 33.9667 150.849 33.8699 150.041 34.0318C149.31 34.1331 148.629 34.4462 148.092 34.9282C147.556 35.4102 147.19 36.0376 147.045 36.7241C147.005 36.8893 146.935 37.0466 146.838 37.1892C146.714 37.3136 146.547 37.3905 146.367 37.4054L144.181 37.7395C144.027 37.7673 143.868 37.7367 143.738 37.6543C143.672 37.611 143.616 37.5547 143.574 37.4891C143.532 37.4236 143.506 37.3504 143.496 37.2744C143.431 36.6244 143.538 35.9692 143.807 35.3681C144.081 34.6687 144.484 34.021 144.997 33.4553C145.56 32.8359 146.223 32.3052 146.962 31.8831C147.76 31.4253 148.643 31.1183 149.564 30.9791ZM153.134 45.2925C153.229 45.2782 153.327 45.2819 153.42 45.3032C153.514 45.3246 153.603 45.3632 153.681 45.417C153.762 45.4678 153.831 45.5343 153.884 45.6122C153.936 45.6901 153.971 45.7776 153.985 45.869L154.372 48.1159C154.402 48.2982 154.355 48.4843 154.241 48.6339C154.127 48.7835 153.956 48.8846 153.764 48.9151L151.446 49.2754C151.253 49.3036 151.057 49.2589 150.899 49.151C150.819 49.0995 150.751 49.0327 150.7 48.9549C150.648 48.877 150.615 48.7898 150.602 48.699L150.214 46.452C150.197 46.3619 150.199 46.2692 150.222 46.1801C150.245 46.0909 150.287 46.0073 150.346 45.9345C150.4 45.8585 150.471 45.7942 150.553 45.7457C150.635 45.6971 150.727 45.6655 150.823 45.6528L153.134 45.2925Z" fill="black"/>
</g>
<path d="M169.13 34.5123C169.225 34.5744 169.305 34.654 169.365 34.7464C169.426 34.8388 169.466 34.9419 169.483 35.0494C169.505 35.156 169.504 35.2657 169.479 35.3717C169.454 35.4777 169.406 35.5776 169.338 35.6652L167.691 37.8597C167.626 37.949 167.542 38.0247 167.444 38.0822C167.346 38.1396 167.237 38.1776 167.124 38.1938C167.011 38.2146 166.895 38.2132 166.783 38.1895C166.672 38.1658 166.566 38.1205 166.474 38.0562L164.204 36.5299C164.11 36.4686 164.03 36.3891 163.97 36.2965C163.911 36.2039 163.872 36.1004 163.858 35.9927C163.836 35.8862 163.838 35.7764 163.863 35.6705C163.888 35.5645 163.936 35.4645 164.004 35.377L165.671 33.1825C165.806 33.0046 166.009 32.8842 166.237 32.8474C166.465 32.8106 166.699 32.8604 166.889 32.9859L169.13 34.5123ZM178.706 19.6486C179.533 20.1976 180.27 20.8599 180.892 21.6138C181.499 22.315 181.968 23.1138 182.276 23.9721C182.563 24.7945 182.66 25.6659 182.56 26.5269C182.442 27.445 182.075 28.3186 181.494 29.062C181.063 29.6631 180.507 30.1756 179.861 30.5687C179.293 30.906 178.675 31.1621 178.028 31.3286C177.397 31.4846 176.754 31.5898 176.104 31.643L174.264 31.8002C173.712 31.842 173.166 31.9319 172.631 32.0688C172.138 32.1748 171.687 32.411 171.331 32.7501C171.169 32.905 170.966 33.014 170.742 33.0645C170.636 33.0934 170.524 33.0977 170.416 33.0772C170.308 33.0567 170.206 33.0119 170.12 32.9466L168.113 31.5972C167.922 31.4675 167.79 31.2727 167.747 31.0535C167.721 30.9472 167.722 30.8367 167.749 30.7309C167.777 30.625 167.831 30.5268 167.906 30.4442C168.374 29.8684 168.96 29.3873 169.628 29.0293C170.23 28.7182 170.872 28.4825 171.538 28.3283C172.181 28.1807 172.836 28.0864 173.496 28.0466C174.146 28.0073 174.755 27.9615 175.323 27.9091C175.842 27.8657 176.355 27.769 176.852 27.6208C177.287 27.4837 177.661 27.2142 177.917 26.8544C178.148 26.5506 178.299 26.1983 178.355 25.8276C178.412 25.457 178.373 25.0788 178.242 24.7254C177.915 23.8523 177.289 23.1076 176.464 22.6095C174.97 21.6007 173.339 21.5679 171.573 22.5112C171.395 22.6184 171.198 22.6939 170.991 22.734C170.884 22.7411 170.776 22.7279 170.674 22.6953C170.572 22.6627 170.477 22.6113 170.396 22.544L168.265 21.1094C168.188 21.0609 168.122 20.9982 168.071 20.925C168.02 20.8519 167.985 20.7698 167.968 20.6836C167.951 20.5944 167.955 20.503 167.977 20.4151C168 20.3271 168.041 20.2446 168.099 20.1726C168.602 19.5627 169.256 19.079 170.002 18.7642C170.85 18.4004 171.758 18.1788 172.687 18.1091C173.708 18.0283 174.736 18.1058 175.731 18.3384C176.805 18.5834 177.816 19.0288 178.706 19.6486Z" fill="#2B7A78"/>
<g opacity="0.6">
<path d="M169.129 34.5123C169.224 34.5744 169.304 34.654 169.364 34.7464C169.425 34.8388 169.465 34.9419 169.482 35.0494C169.504 35.156 169.503 35.2657 169.478 35.3717C169.453 35.4777 169.405 35.5776 169.337 35.6652L167.69 37.8597C167.625 37.949 167.541 38.0247 167.443 38.0822C167.345 38.1396 167.237 38.1776 167.123 38.1938C167.01 38.2146 166.894 38.2132 166.783 38.1895C166.671 38.1658 166.565 38.1205 166.473 38.0562L164.203 36.5299C164.109 36.4686 164.029 36.3891 163.969 36.2965C163.91 36.2039 163.871 36.1004 163.857 35.9927C163.835 35.8862 163.837 35.7764 163.862 35.6705C163.887 35.5645 163.935 35.4645 164.003 35.377L165.67 33.1825C165.805 33.0046 166.008 32.8842 166.236 32.8474C166.464 32.8106 166.698 32.8604 166.888 32.9859L169.129 34.5123ZM178.705 19.6486C179.532 20.1976 180.269 20.8599 180.891 21.6138C181.498 22.315 181.967 23.1138 182.275 23.9721C182.562 24.7945 182.659 25.6659 182.559 26.5269C182.441 27.445 182.074 28.3186 181.493 29.062C181.062 29.6631 180.506 30.1756 179.86 30.5687C179.292 30.906 178.674 31.1621 178.027 31.3286C177.396 31.4846 176.753 31.5898 176.103 31.643L174.263 31.8002C173.711 31.842 173.165 31.9319 172.63 32.0688C172.137 32.1748 171.686 32.411 171.33 32.7501C171.169 32.905 170.965 33.014 170.741 33.0645C170.635 33.0934 170.523 33.0977 170.415 33.0772C170.307 33.0567 170.205 33.0119 170.119 32.9466L168.112 31.5972C167.921 31.4675 167.789 31.2727 167.746 31.0535C167.72 30.9472 167.721 30.8367 167.748 30.7309C167.776 30.625 167.83 30.5268 167.905 30.4442C168.373 29.8684 168.959 29.3873 169.628 29.0293C170.229 28.7182 170.871 28.4825 171.537 28.3283C172.18 28.1807 172.835 28.0864 173.495 28.0466C174.145 28.0073 174.754 27.9615 175.322 27.9091C175.841 27.8657 176.354 27.769 176.851 27.6208C177.286 27.4837 177.66 27.2142 177.916 26.8544C178.148 26.5506 178.298 26.1983 178.354 25.8276C178.411 25.457 178.372 25.0788 178.241 24.7254C177.914 23.8523 177.288 23.1076 176.463 22.6095C174.969 21.6007 173.338 21.5679 171.572 22.5112C171.394 22.6184 171.197 22.6939 170.991 22.734C170.883 22.7411 170.775 22.7279 170.673 22.6953C170.571 22.6627 170.477 22.6113 170.395 22.544L168.265 21.1094C168.187 21.0609 168.121 20.9982 168.07 20.925C168.019 20.8519 167.984 20.7698 167.967 20.6836C167.95 20.5944 167.954 20.503 167.976 20.4151C167.999 20.3271 168.04 20.2446 168.098 20.1726C168.601 19.5627 169.255 19.079 170.001 18.7642C170.849 18.4004 171.758 18.1788 172.686 18.1091C173.707 18.0283 174.735 18.1058 175.73 18.3384C176.804 18.5834 177.815 19.0288 178.705 19.6486Z" fill="white"/>
</g>
<path d="M117.606 92.4964H93.0234V36.1073C93.0234 31.2096 95.0783 26.5125 98.7361 23.0494C102.394 19.5862 107.355 17.6406 112.528 17.6406H114.797C119.97 17.6406 124.931 19.5862 128.588 23.0494C132.246 26.5125 134.301 31.2096 134.301 36.1073V76.7221C134.292 80.9087 132.529 84.9209 129.399 87.8782C126.269 90.8355 122.028 92.4964 117.606 92.4964Z" fill="#263238"/>
<path d="M90.6302 228.25C90.1954 230.586 89.964 232.953 89.9383 235.325C89.8483 239.622 89.0181 241.148 88.9074 244.673C88.7759 248.702 89.5162 250.208 91.239 252.475C92.9618 254.741 97.466 256.792 99.4171 252.966C101.368 249.14 101.084 246.631 100.469 242.681C99.8391 238.594 99.7768 236.334 99.3894 233.222C99.0711 230.477 98.6975 228.388 98.6975 228.388L90.6302 228.25Z" fill="#263238"/>
<path d="M103.513 199.709L88.5684 199.453C88.7898 208.899 90.3742 219.387 90.644 228.277C90.6993 229.947 90.6025 241.241 91.2667 244.653C92.2699 249.816 98.7321 249.115 99.078 246.029C99.424 242.944 98.6629 229.757 98.6836 228.394C98.6214 222.708 101.451 213.111 102.911 202.905C102.973 202.414 103.444 200.2 103.513 199.709Z" fill="#FFA8A7"/>
<path d="M122.712 220.9C122.712 220.9 122.124 220.599 122.02 221.195C121.875 221.903 121.653 223.363 121.328 224.53C120.899 226.148 120.54 228.814 120.796 230.137C121.052 231.46 124.303 233.15 126.414 233.766C129.014 234.526 131.386 235.862 133.332 237.664C135.408 239.524 139.926 241.28 143.019 241.26C146.651 241.26 149.183 240.114 150.38 238.273C151.577 236.432 149.287 236.21 145.136 233.687L141.919 231.722C135.339 227.654 132.924 225.479 131.077 221.411L122.712 220.9Z" fill="#263238"/>
<path d="M131.132 218.377C131.021 215.455 133.152 190.621 133.152 190.621L118.962 196.746C121.999 213.922 122.65 217.977 122.698 220.787C122.636 221.023 122.61 221.266 122.622 221.508C122.622 224.842 126.614 226.644 129.714 228.871C132.349 230.825 135.157 232.561 138.106 234.059C140.362 235.127 144.942 235.225 145.509 233.856C141.732 231.125 136.238 227.037 133.235 223.919C131.769 222.451 131.243 221.305 131.132 218.377Z" fill="#FFA8A7"/>
<path d="M94.6907 107.531C89.2387 118.858 89.2387 127.622 90.1451 142.08C90.9477 155.345 92.283 167.039 92.283 167.039C92.0754 169.39 88.6229 173.982 88.1732 184.385C87.7581 194.106 88.8651 206.468 88.8651 206.468C88.8651 206.468 96.6211 210.536 102.357 206.428C102.357 206.428 107.892 181.411 109.511 169.24C110.895 158.621 113.385 145.054 113.385 145.054L118.623 169.168C117.492 172.589 116.673 176.095 116.174 179.649C115.44 186.809 119.675 200.867 119.675 200.867C119.675 200.867 127.686 203.127 132.578 199.019C132.578 199.019 134.405 176.164 135.09 167.543C136.003 155.994 134.079 124.734 132.578 108.18L94.6907 107.531Z" fill="#455A64"/>
<path d="M113.399 145.035L115.551 126.864C115.551 126.864 125.196 125.645 129.569 121.754C128.317 123.608 126.65 125.178 124.685 126.353C122.721 127.528 120.507 128.28 118.201 128.554L115.088 145.461L118.623 169.168L113.399 145.035Z" fill="#263238"/>
<path d="M152.456 103.065C152.855 99.7485 153.03 96.4118 152.982 93.0746C152.768 90.1923 152.221 89.7206 147.966 84.6176C142.223 77.7196 137.318 71.516 132.129 65.3517C128.42 60.9496 124.518 60.2749 120.727 60.4714C118.07 60.609 123.259 72.7082 125.867 79.8682L140.764 95.0529C141.225 95.6522 141.437 96.3916 141.359 97.1295L140.459 110.048L144.922 115.708C144.922 115.708 151.681 110.192 152.456 103.065Z" fill="#FFA8A7"/>
<path d="M106.363 60.8657C103.478 61.0557 98.2331 61.5208 98.2331 61.5208C95.2096 63.1192 94.4416 64.4359 93.8812 68.2353C93.639 69.8599 95.0366 74.1769 96.2336 80.315L98.5029 91.6937L98.2538 97.3404C97.0777 100.786 94.4139 105.064 92.0615 111.372C103.616 117.478 113.302 117.707 122.089 116.613C128.787 115.794 132.336 114.261 133.519 112.741C133.27 106.512 132.827 102.66 132.689 96.1482C132.64 93.4165 132.813 90.6521 132.931 87.5077C137.421 84.0096 137.477 78.1925 135.007 74.4062C129.312 65.674 123.77 60.1779 120.103 60.4596L106.363 60.8657Z" fill="#2B7A78"/>
<path opacity="0.6" d="M106.363 60.8657C103.478 61.0557 98.2331 61.5208 98.2331 61.5208C95.2096 63.1192 94.4416 64.4359 93.8812 68.2353C93.639 69.8599 95.0366 74.1769 96.2336 80.315L98.5029 91.6937L98.2538 97.3404C97.0777 100.786 94.4139 105.064 92.0615 111.372C103.616 117.478 113.302 117.707 122.089 116.613C128.787 115.794 132.336 114.261 133.519 112.741C133.27 106.512 132.827 102.66 132.689 96.1482C132.64 93.4165 132.813 90.6521 132.931 87.5077C137.421 84.0096 137.477 78.1925 135.007 74.4062C129.312 65.674 123.77 60.1779 120.103 60.4596L106.363 60.8657Z" fill="white"/>
<path opacity="0.1" d="M123.985 87.5903C123.985 87.5903 118.713 91.4684 112.687 89.4442C110.995 88.9393 109.469 88.0295 108.257 86.8027C107.044 85.5759 106.187 84.0737 105.768 82.4414C105.768 82.4414 105.131 88.9594 112.721 91.1801C120.076 93.3222 123.985 87.5903 123.985 87.5903Z" fill="black"/>
<path d="M131.139 42.9722C130.911 52.4315 127.68 54.7636 126.047 55.4187C124.414 56.0737 121.287 55.6807 118.243 55.2025V60.9148C118.243 60.9148 121.757 64.3998 121.494 67.0004C121.231 69.6011 115.959 69.8959 112.029 67.3476C109.861 65.9374 107.9 64.261 106.197 62.3625C105.87 61.9962 105.691 61.5319 105.692 61.0523V47.6887C105.692 47.6887 104.024 49.3592 101.077 47.4464C100.441 47.0621 99.8965 46.5567 99.478 45.9624C99.0595 45.3681 98.7761 44.6978 98.646 43.9943C98.5158 43.2907 98.5417 42.5691 98.722 41.8755C98.9023 41.1819 99.2331 40.5314 99.6933 39.9654C100.98 38.5308 104.246 38.4325 105.809 40.6204C106.695 42.2516 106.813 43.8958 107.802 43.2408C110.431 41.4458 109.02 37.3451 112.196 35.3798C113.238 34.8648 114.32 34.4268 115.434 34.0697C121.1 32.2158 126.012 30.6567 127.196 26.9883C129.423 28.1936 131.416 31.8162 131.139 42.9722Z" fill="#FFA8A7"/>
<path d="M119.965 51.4229C120.691 51.4229 121.28 50.8656 121.28 50.1782C121.28 49.4908 120.691 48.9336 119.965 48.9336C119.239 48.9336 118.65 49.4908 118.65 50.1782C118.65 50.8656 119.239 51.4229 119.965 51.4229Z" fill="#B16668"/>
<path d="M119.094 41.5384C119.093 41.7946 119.014 42.0452 118.864 42.259C118.715 42.4728 118.503 42.6405 118.254 42.7413C118.005 42.8421 117.731 42.8716 117.464 42.8261C117.198 42.7806 116.952 42.6622 116.756 42.4855C116.56 42.3087 116.423 42.0814 116.362 41.8318C116.301 41.5821 116.318 41.321 116.413 41.0807C116.507 40.8405 116.673 40.6317 116.892 40.4801C117.11 40.3286 117.37 40.241 117.641 40.2282C117.828 40.2193 118.016 40.2466 118.192 40.3085C118.368 40.3703 118.528 40.4654 118.664 40.588C118.8 40.7105 118.908 40.858 118.982 41.0214C119.056 41.1848 119.094 41.3607 119.094 41.5384Z" fill="#263238"/>
<path d="M129.576 41.6698C129.59 41.83 129.57 41.9914 129.518 42.1444C129.466 42.2974 129.382 42.439 129.271 42.5609C129.16 42.6829 129.025 42.7827 128.873 42.8547C128.721 42.9266 128.555 42.9692 128.386 42.9799C128.215 42.9949 128.043 42.9752 127.88 42.9222C127.718 42.8693 127.569 42.7842 127.444 42.6727C127.319 42.5612 127.221 42.4257 127.155 42.2754C127.09 42.1251 127.059 41.9633 127.064 41.8008C127.047 41.6393 127.064 41.4761 127.115 41.3212C127.166 41.1662 127.25 41.0228 127.362 40.8996C127.474 40.7765 127.611 40.6763 127.765 40.6051C127.919 40.5339 128.087 40.4933 128.258 40.4857C128.429 40.4781 128.6 40.5037 128.761 40.5609C128.921 40.6182 129.068 40.7058 129.191 40.8185C129.314 40.9312 129.412 41.0666 129.478 41.2163C129.545 41.3661 129.578 41.5271 129.576 41.6894V41.6698Z" fill="#263238"/>
<path d="M117.316 44.9074C116.122 44.9074 114.978 44.459 114.133 43.6606C113.289 42.8623 112.813 41.7792 112.812 40.6493C112.812 37.7539 115.966 37.7539 117.316 37.7539C118.665 37.7539 121.813 37.7539 121.813 40.6493C121.811 41.7781 121.337 42.8601 120.494 43.6583C119.651 44.4565 118.508 44.9056 117.316 44.9074ZM117.316 38.4221C114.548 38.4221 113.524 39.0772 113.524 40.6493C113.524 41.6049 113.925 42.5213 114.639 43.197C115.352 43.8727 116.32 44.2523 117.329 44.2523C118.339 44.2523 119.307 43.8727 120.02 43.197C120.734 42.5213 121.135 41.6049 121.135 40.6493C121.107 39.0444 120.042 38.4221 117.316 38.4221Z" fill="#455A64"/>
<path d="M128.739 44.9074C127.545 44.9074 126.401 44.459 125.556 43.6606C124.712 42.8623 124.236 41.7792 124.234 40.6493C124.234 37.7539 127.389 37.7539 128.739 37.7539C130.088 37.7539 133.236 37.7539 133.236 40.6493C133.234 41.7781 132.76 42.8601 131.917 43.6583C131.074 44.4565 129.931 44.9056 128.739 44.9074ZM128.739 38.4221C126.013 38.4221 124.947 39.0772 124.947 40.6493C124.947 41.6049 125.348 42.5213 126.062 43.197C126.775 43.8727 127.743 44.2523 128.752 44.2523C129.762 44.2523 130.729 43.8727 131.443 43.197C132.157 42.5213 132.558 41.6049 132.558 40.6493C132.53 39.0444 131.465 38.4221 128.739 38.4221Z" fill="#455A64"/>
<path d="M122.512 39.2734L122.733 47.2326L127.154 45.9356L122.512 39.2734Z" fill="#F28F8F"/>
<path d="M118.235 55.2254C115.025 54.8258 108.418 53.0309 107.387 50.5547C107.802 51.8061 108.61 52.9077 109.705 53.7122C111.676 55.3171 118.235 57.1186 118.235 57.1186V55.2254Z" fill="#F28F8F"/>
<path d="M118.395 35.4082L115.461 37.1048C115.23 36.7235 115.163 36.2726 115.274 35.8456C115.385 35.4186 115.665 35.0485 116.056 34.8121C116.25 34.7009 116.465 34.628 116.689 34.5978C116.914 34.5676 117.142 34.5808 117.36 34.6365C117.579 34.6923 117.783 34.7894 117.961 34.922C118.139 35.0546 118.287 35.22 118.395 35.4082Z" fill="#263238"/>
<path d="M130.33 37.2935L127.064 36.2126C127.128 36.0077 127.234 35.8172 127.378 35.6528C127.522 35.4884 127.7 35.3536 127.901 35.2567C128.102 35.1597 128.321 35.1027 128.546 35.0891C128.771 35.0755 128.997 35.1056 129.209 35.1776C129.647 35.3266 130.008 35.6295 130.217 36.0233C130.425 36.4172 130.466 36.872 130.33 37.2935Z" fill="#263238"/>
<path d="M121.459 40.9881C121.412 40.9881 121.366 40.9793 121.323 40.9621C121.279 40.9449 121.24 40.9197 121.207 40.8879C121.175 40.8562 121.149 40.8186 121.131 40.7773C121.114 40.736 121.106 40.6919 121.107 40.6475C121.107 40.1037 122.241 39.75 123.265 39.75C124.289 39.75 124.946 40.1037 124.946 40.6475C124.925 40.7186 124.88 40.7813 124.817 40.8258C124.755 40.8704 124.679 40.8945 124.601 40.8945C124.522 40.8945 124.446 40.8704 124.384 40.8258C124.321 40.7813 124.276 40.7186 124.255 40.6475C124.255 40.5819 123.902 40.4182 123.286 40.4182C122.79 40.4082 122.297 40.4882 121.833 40.654C121.833 40.6996 121.823 40.7447 121.804 40.7866C121.785 40.8284 121.757 40.8662 121.722 40.8975C121.687 40.9288 121.646 40.953 121.601 40.9685C121.556 40.9841 121.507 40.9908 121.459 40.9881Z" fill="#455A64"/>
<path d="M113.178 40.7004H113.137L105.228 40.0453C104.859 39.6985 104.419 39.4266 103.935 39.2461L113.22 40.0584C113.313 40.0699 113.397 40.1153 113.456 40.1851C113.514 40.2549 113.541 40.3434 113.531 40.4318C113.515 40.5086 113.471 40.5776 113.406 40.6267C113.342 40.6758 113.261 40.7019 113.178 40.7004Z" fill="#455A64"/>
<path d="M80.7082 48.5094C83.2959 45.234 85.0601 42.7644 87.4195 39.9934C88.7617 38.4016 89.6196 37.2617 90.8789 35.6306C91.7645 34.5039 92.2626 33.554 93.2728 33.2068C94.3641 32.7834 95.3477 32.1447 96.1579 31.3333C96.656 30.8116 97.1182 30.2602 97.5417 29.6825C99.0246 27.7926 100.786 26.1138 102.772 24.6973C104.848 23.2169 107.166 22.077 109.304 20.6686C110.577 19.8236 111.94 18.4217 110.39 17.1115C109.915 16.7325 109.346 16.4734 108.736 16.3582C104.966 15.5852 101.686 16.8102 97.9983 17.7011C96.3965 18.0797 94.8299 18.5814 93.3143 19.2012C92.5688 19.4804 91.8697 19.8599 91.2386 20.328C90.3563 21.1702 89.6332 22.1496 89.1007 23.2234C87.4887 25.9485 84.0293 28.3854 81.6077 30.5406C78.7779 33.0627 76.2456 35.3751 73.0145 38.1526C70.1086 40.6616 67.265 42.9675 64.6013 45.7057C62.3942 47.9657 63.2175 49.7344 63.5081 50.3502C65.307 53.8483 67.3203 55.1061 69.735 57.2744C73.8863 61.028 88.2428 71.8302 92.996 75.4004C94.0173 76.1598 94.8193 77.1513 95.3277 78.2827L96.2409 80.2807C101.665 81.224 105.284 73.5137 100.793 64.2313C100.05 62.7303 98.914 61.4338 97.4932 60.4646C91.8198 56.5538 80.7082 48.5094 80.7082 48.5094Z" fill="#FFA8A7"/>
<path d="M80.7083 48.5078C78.9818 50.5188 76.681 52.0173 74.0801 52.8248C74.0801 52.8248 77.5395 53.6633 82.2789 49.6345L80.7083 48.5078Z" fill="#F28F8F"/>
<path d="M151.045 96.2299L150.159 95.5093C150.027 95.4267 149.876 95.3748 149.719 95.3578C149.561 95.3407 149.402 95.359 149.253 95.411L139.643 97.8872C139.159 98.04 138.715 98.2901 138.343 98.6202C137.97 98.9504 137.677 99.3528 137.484 99.8001L130.565 118.686C130.482 118.84 130.449 119.014 130.472 119.186C130.494 119.357 130.57 119.519 130.69 119.649L131.603 120.396C131.736 120.482 131.889 120.537 132.05 120.556C132.21 120.574 132.373 120.555 132.523 120.501L142.147 118.024C142.632 117.872 143.075 117.621 143.448 117.291C143.82 116.961 144.113 116.559 144.306 116.111C145.69 112.397 149.841 100.94 151.225 97.2256C151.391 96.7605 151.308 96.4068 151.045 96.2299Z" fill="#455A64"/>
<path d="M131.471 119.415L138.39 100.529C138.582 100.082 138.875 99.6802 139.248 99.3511C139.621 99.0219 140.064 98.7734 140.549 98.6229L150.152 96.1467C151.045 95.9174 151.536 96.4022 151.218 97.2276C149.834 100.942 145.682 112.399 144.299 116.113C144.106 116.561 143.813 116.963 143.44 117.293C143.068 117.623 142.624 117.873 142.14 118.026L132.537 120.529C131.651 120.725 131.174 120.24 131.471 119.415Z" fill="#2B7A78"/>
<path d="M139.504 99.1459C139.004 99.5041 138.617 99.9841 138.383 100.535L131.464 119.414C131.385 119.564 131.352 119.732 131.369 119.899C131.386 120.066 131.453 120.225 131.561 120.357L130.703 119.663C130.58 119.534 130.502 119.373 130.478 119.201C130.455 119.029 130.487 118.854 130.572 118.7L137.49 99.8141C137.709 99.3006 138.064 98.8493 138.521 98.5039L139.504 99.1459Z" fill="#37474F"/>
<path d="M148.409 104.84C147.717 106.759 145.316 108.043 141.345 108.934C137.374 109.825 135.18 113.815 135.81 115.026C136.44 116.238 142.86 117.372 145.427 117.024C147.994 116.677 150.568 113.166 151.35 112.079C152.131 110.991 153.031 103.405 152.208 102.364C151.384 101.322 149.648 101.486 149.648 101.486L148.409 104.84Z" fill="#F28F8F"/>
</svg>
