<svg width="64" height="64" viewBox="0 0 64 64" fill="none" xmlns="http://www.w3.org/2000/svg">
<path d="M53.44 18.1872L38.08 7.44048C33.8933 4.50715 27.4666 4.66715 23.44 7.78715L10.08 18.2138C7.41331 20.2938 5.30664 24.5605 5.30664 27.9205V46.3205C5.30664 53.1205 10.8266 58.6671 17.6266 58.6671H46.3733C53.1733 58.6671 58.6933 53.1471 58.6933 46.3471V28.2672C58.6933 24.6672 56.3733 20.2405 53.44 18.1872ZM34 48.0005C34 49.0938 33.0933 50.0005 32 50.0005C30.9066 50.0005 30 49.0938 30 48.0005V40.0005C30 38.9072 30.9066 38.0005 32 38.0005C33.0933 38.0005 34 38.9072 34 40.0005V48.0005Z" fill="#2B7A78"/>
</svg>
