<svg width="48" height="48" viewBox="0 0 48 48" fill="none" xmlns="http://www.w3.org/2000/svg">
<g clip-path="url(#clip0_2356_57174)">
<path d="M26.1969 0H29.3057L31.3368 0.0414508L32.9948 0.0829016L33.8653 0.124352C36.4352 0.248705 38.1762 0.663212 39.6684 1.24352C41.2435 1.86528 42.5699 2.6943 43.9378 4.02073C45.2642 5.34715 46.0933 6.71503 46.715 8.29016C47.2539 9.65803 47.6269 11.1917 47.7927 13.3057L47.9171 15.5855L47.9585 17.7409L48 21.8446V29.5544L47.9585 31.9585L47.8756 33.9482C47.7513 36.5181 47.3368 38.2591 46.7565 39.7927C46.1347 41.3679 45.3057 42.6943 43.9793 44.0622C42.6528 45.3886 41.3264 46.2176 39.7098 46.8394C38.342 47.3782 36.8083 47.7513 34.6943 47.9171L32.1244 48.0414L29.8446 48.0829L26.1554 48.1243H18.4456L16.0415 48.0829L14.0518 48C11.4819 47.8756 9.74093 47.4611 8.2487 46.8808C6.67357 46.2591 5.34715 45.43 3.97927 44.1036C2.65285 42.7772 1.82383 41.4093 1.20207 39.8342C0.663212 38.4663 0.290155 36.9326 0.124352 34.8186L0.0414508 33.1192L0 31.4611L0 29.3057V25.4922V18.6528L0.0414508 16.6218L0.0829016 14.9637L0.124352 14.0933C0.248705 11.5648 0.663212 9.82383 1.24352 8.29016C1.86528 6.71503 2.6943 5.3886 4.02073 4.02073C5.34715 2.6943 6.71503 1.86528 8.29016 1.24352C9.65803 0.704663 11.1917 0.331606 13.3057 0.165803L15.0052 0.0829016L16.6632 0.0414508L18.6528 0H21.7617C21.8031 0 26.1969 0 26.1969 0ZM29.2228 4.35233H18.7358L16.9119 4.39378L14.2591 4.47668C13.5959 4.51813 12.9326 4.55959 12.2694 4.64249L11.8964 4.68394C11.6477 4.72539 11.3575 4.76684 11.1088 4.84974L10.8187 4.93264C10.7358 4.97409 10.6528 4.97409 10.5699 5.01554L10.0311 5.18135L9.78238 5.26425C8.66321 5.72021 7.87565 6.21762 7.00518 7.04663C6.17617 7.87565 5.63731 8.70466 5.2228 9.82383L5.09845 10.3627L5.01554 10.6114C4.80829 11.3161 4.60104 12.3109 4.47668 13.6788L4.43523 14.715L4.35233 16.8705L4.31088 20.5596V29.0984L4.35233 31.7513L4.43523 33.6995C4.47668 34.4041 4.51813 35.1088 4.64249 35.8135L4.68394 36.1451C4.68394 36.1865 4.68394 36.2694 4.72539 36.3109L4.80829 36.601L4.89119 36.8912C4.89119 36.9326 4.93264 36.9741 4.93264 37.0155L5.01554 37.2642L5.09845 37.513L5.1399 37.6373L5.3057 38.1347C5.72021 39.2539 6.25907 40.0414 7.08808 40.9119C7.9171 41.7409 8.74611 42.2798 9.86528 42.6943L10.3627 42.8601L10.5699 42.943L10.6943 42.9845L10.943 43.0674C10.9845 43.0674 11.0259 43.1088 11.0674 43.1088L11.3575 43.1917L11.6477 43.2746L11.9793 43.3161C12.601 43.4404 13.3471 43.5233 14.2591 43.5648L17.2021 43.6891L21.0984 43.7306H29.5544L31.7098 43.6891L33.658 43.6062C34.5699 43.5648 35.3161 43.4819 35.9378 43.3575L36.2694 43.3161L36.5596 43.2332L36.8912 43.1088L37.0155 43.0674L37.2642 42.9845L37.513 42.9016L37.6373 42.8601L38.1347 42.6943C39.2539 42.2798 40.0414 41.7409 40.9119 40.9119C41.7409 40.0829 42.2798 39.2539 42.6943 38.1347L42.8601 37.6373C43.1088 36.8912 43.3575 35.8549 43.4819 34.2798L43.6062 31.7513L43.6477 29.1813V25.4922V18.8187L43.6062 16.2487L43.5233 14.3005C43.4819 13.7202 43.4404 13.0984 43.3575 12.5181L43.3161 12.1451C43.2746 11.9793 43.2746 11.8135 43.2332 11.6477L43.1503 11.3575C43.1088 11.2746 43.1088 11.1503 43.0674 11.0674L42.9845 10.8187L42.943 10.6943L42.7357 10.0311L42.6943 9.90674C42.2383 8.78756 41.7409 8 40.9119 7.12953C40.0829 6.25907 39.2539 5.76166 38.1347 5.34715L37.886 5.26425L37.3471 5.09845L37.2228 4.97409L36.8912 4.89119C36.228 4.72539 35.399 4.55959 34.2798 4.47668L32.4974 4.39378L31.0466 4.35233H29.2228Z" fill="url(#paint0_linear_2356_57174)"/>
<path d="M24.0001 11.6886C30.798 11.6886 36.311 17.2015 36.311 23.9994C36.311 30.7974 30.798 36.3103 24.0001 36.3103C17.2022 36.3103 11.6892 30.7974 11.6892 23.9994C11.6892 17.2015 17.2022 11.6886 24.0001 11.6886ZM24.0001 15.9994C19.5649 15.9994 16.0001 19.5642 16.0001 23.9994C16.0001 28.4347 19.5649 31.9994 24.0001 31.9994C28.4353 31.9994 32.0001 28.4347 32.0001 23.9994C32.0001 19.5642 28.3939 15.9994 24.0001 15.9994ZM39.6685 11.1912C39.7099 12.7663 38.4664 14.0927 36.8913 14.1342C35.3162 14.1756 33.9897 12.9321 33.9483 11.357C33.9483 11.3155 33.9483 11.2326 33.9483 11.1912C33.9897 9.61603 35.3162 8.33105 36.8913 8.41396C38.425 8.41396 39.627 9.65748 39.6685 11.1912Z" fill="url(#paint1_linear_2356_57174)"/>
</g>
<defs>
<linearGradient id="paint0_linear_2356_57174" x1="9.69732" y1="48.2623" x2="37.9899" y2="0.271572" gradientUnits="userSpaceOnUse">
<stop stop-color="#FDD074"/>
<stop offset="0.25" stop-color="#F77F34"/>
<stop offset="0.5" stop-color="#DD326E"/>
<stop offset="0.75" stop-color="#D82B7E"/>
<stop offset="1" stop-color="#A432B1"/>
</linearGradient>
<linearGradient id="paint1_linear_2356_57174" x1="16.8031" y1="36.1678" x2="33.2457" y2="8.19706" gradientUnits="userSpaceOnUse">
<stop stop-color="#FDD074"/>
<stop offset="0.25" stop-color="#F77F34"/>
<stop offset="0.5" stop-color="#DD326E"/>
<stop offset="0.75" stop-color="#D82B7E"/>
<stop offset="1" stop-color="#A432B1"/>
</linearGradient>
<clipPath id="clip0_2356_57174">
<rect width="48" height="48" rx="8" fill="white"/>
</clipPath>
</defs>
</svg>
