<svg width="72" height="72" viewBox="0 0 72 72" fill="none" xmlns="http://www.w3.org/2000/svg">
<g clip-path="url(#clip0_1158_38796)">
<path d="M39.2953 0H43.9585L47.0052 0.0621762L49.4922 0.124352L50.7979 0.186528C54.6528 0.373057 57.2642 0.994819 59.5026 1.86528C61.8653 2.79793 63.8549 4.04145 65.9067 6.03109C67.8964 8.02073 69.1399 10.0725 70.0725 12.4352C70.8808 14.487 71.4404 16.7876 71.6891 19.9585L71.8756 23.3782L71.9378 26.6114L72 32.7668V44.3316L71.9378 47.9378L71.8135 50.9223C71.6269 54.7772 71.0052 57.3886 70.1347 59.6891C69.2021 62.0518 67.9585 64.0415 65.9689 66.0933C63.9793 68.0829 61.9896 69.3264 59.5648 70.2591C57.513 71.0674 55.2124 71.6269 52.0414 71.8756L48.1865 72.0622L44.7668 72.1244L39.2332 72.1865H27.6684L24.0622 72.1244L21.0777 72C17.2228 71.8135 14.6114 71.1917 12.3731 70.3212C10.0104 69.3886 8.02073 68.1451 5.96891 66.1554C3.97927 64.1658 2.73575 62.114 1.80311 59.7513C0.994819 57.6995 0.435233 55.399 0.186528 52.228L0.0621762 49.6788L0 47.1917L0 43.9585V38.2383V27.9793L0.0621762 24.9326L0.124352 22.4456L0.186528 21.1399C0.373057 17.3471 0.994819 14.7358 1.86528 12.4352C2.79793 10.0725 4.04145 8.0829 6.03109 6.03109C8.02073 4.04145 10.0725 2.79793 12.4352 1.86528C14.487 1.05699 16.7876 0.497409 19.9585 0.248705L22.5078 0.124352L24.9948 0.0621762L27.9793 0H32.6425C32.7047 0 39.2953 0 39.2953 0ZM43.8342 6.5285H28.1036L25.3679 6.59067L21.3886 6.71503C20.3938 6.7772 19.399 6.83938 18.4041 6.96373L17.8446 7.02591C17.4715 7.08808 17.0363 7.15026 16.6632 7.27461L16.228 7.39896C16.1036 7.46114 15.9793 7.46114 15.8549 7.52332L15.0466 7.77202L14.6736 7.89637C12.9948 8.58031 11.8135 9.32642 10.5078 10.5699C9.26425 11.8135 8.45596 13.057 7.8342 14.7358L7.64767 15.544L7.52332 15.9171C7.21244 16.9741 6.90155 18.4663 6.71503 20.5181L6.65285 22.0725L6.5285 25.3057L6.46632 30.8394V43.6477L6.5285 47.6269L6.65285 50.5492C6.71503 51.6062 6.7772 52.6632 6.96373 53.7202L7.02591 54.2176C7.02591 54.2798 7.02591 54.4041 7.08808 54.4663L7.21244 54.9016L7.33679 55.3368C7.33679 55.399 7.39896 55.4611 7.39896 55.5233L7.52332 55.8964L7.64767 56.2694L7.70984 56.456L7.95855 57.2021C8.58031 58.8808 9.3886 60.0622 10.6321 61.3679C11.8756 62.6114 13.1192 63.4197 14.7979 64.0415L15.544 64.2902L15.8549 64.4145L16.0414 64.4767L16.4145 64.601C16.4767 64.601 16.5389 64.6632 16.601 64.6632L17.0363 64.7876L17.4715 64.9119L17.9689 64.9741C18.9016 65.1606 20.0207 65.285 21.3886 65.3471L25.8031 65.5337L31.6477 65.5958H44.3316L47.5648 65.5337L50.487 65.4093C51.8549 65.3471 52.9741 65.2228 53.9067 65.0363L54.4041 64.9741L54.8394 64.8497L55.3368 64.6632L55.5233 64.601L55.8964 64.4767L56.2694 64.3523L56.456 64.2902L57.2021 64.0415C58.8808 63.4197 60.0622 62.6114 61.3679 61.3679C62.6114 60.1243 63.4197 58.8808 64.0415 57.2021L64.2902 56.456C64.6632 55.3368 65.0363 53.7824 65.2228 51.4197L65.4093 47.6269L65.4715 43.772V38.2383V28.228L65.4093 24.3731L65.285 21.4508C65.2228 20.5803 65.1606 19.6477 65.0363 18.7772L64.9741 18.2176C64.9119 17.9689 64.9119 17.7202 64.8497 17.4715L64.7254 17.0363C64.6632 16.9119 64.6632 16.7254 64.601 16.601L64.4767 16.228L64.4145 16.0414L64.1036 15.0466L64.0415 14.8601C63.3575 13.1813 62.6114 12 61.3679 10.6943C60.1243 9.3886 58.8808 8.64249 57.2021 8.02072L56.829 7.89637L56.0207 7.64767L55.8342 7.46114L55.3368 7.33679C54.342 7.08808 53.0984 6.83938 51.4197 6.71503L48.7461 6.59067L46.5699 6.5285H43.8342Z" fill="#2b7a78"/>
<path d="M36 17.5338C46.1969 17.5338 54.4663 25.8033 54.4663 36.0001C54.4663 46.197 46.1969 54.4665 36 54.4665C25.8031 54.4665 17.5337 46.197 17.5337 36.0001C17.5337 25.8033 25.8031 17.5338 36 17.5338ZM36 24.0001C29.3472 24.0001 24 29.3473 24 36.0001C24 42.653 29.3472 48.0001 36 48.0001C42.6529 48.0001 48 42.653 48 36.0001C48 29.3473 42.5907 24.0001 36 24.0001ZM59.5026 16.7877C59.5648 19.1504 57.6995 21.14 55.3368 21.2022C52.9741 21.2644 50.9845 19.3991 50.9223 17.0364C50.9223 16.9742 50.9223 16.8499 50.9223 16.7877C50.9845 14.425 52.9741 12.4976 55.3368 12.6219C57.6373 12.6219 59.4404 14.4872 59.5026 16.7877Z" fill="url(#paint1_linear_1158_38796)"/>
</g>
<defs>
<linearGradient id="paint0_linear_1158_38796" x1="14.546" y1="72.3935" x2="56.9848" y2="0.407358" gradientUnits="userSpaceOnUse">
<stop stop-color="#FDD074"/>
<stop offset="0.25" stop-color="#2b7a78"/>
<stop offset="0.5" stop-color="#2b7a78"/>
<stop offset="0.75" stop-color="#2b7a78"/>
<stop offset="1" stop-color="#2b7a78"/>
</linearGradient>
<linearGradient id="paint1_linear_1158_38796" x1="25.2045" y1="54.2527" x2="49.8685" y2="12.2966" gradientUnits="userSpaceOnUse">
<stop stop-color="#2b7a78"/>
<stop offset="0.25" stop-color="#2b7a78"/>
<stop offset="0.5" stop-color="#2b7a78"/>
<stop offset="0.75" stop-color="#2b7a78"/>
<stop offset="1" stop-color="#2b7a78"/>
</linearGradient>
<clipPath id="clip0_1158_38796">
<rect width="72" height="72" rx="8" fill="white"/>
</clipPath>
</defs>
</svg>
