<svg width="20" height="20" viewBox="0 0 20 20" fill="none" xmlns="http://www.w3.org/2000/svg">
<path d="M9.99913 6.87579C8.27882 6.87579 6.87492 8.2797 6.87492 10C6.87492 11.7203 8.27882 13.1242 9.99913 13.1242C11.7194 13.1242 13.1234 11.7203 13.1234 10C13.1234 8.2797 11.7194 6.87579 9.99913 6.87579ZM19.3694 10C19.3694 8.70626 19.3812 7.42423 19.3085 6.13283C19.2359 4.63283 18.8937 3.30158 17.7968 2.2047C16.6976 1.10548 15.3687 0.765639 13.8687 0.692982C12.5749 0.620326 11.2929 0.632045 10.0015 0.632045C8.70773 0.632045 7.4257 0.620326 6.13429 0.692982C4.63429 0.765639 3.30304 1.10783 2.20617 2.2047C1.10695 3.30392 0.767103 4.63283 0.694447 6.13283C0.621791 7.42658 0.63351 8.70861 0.63351 10C0.63351 11.2914 0.621791 12.5758 0.694447 13.8672C0.767103 15.3672 1.10929 16.6985 2.20617 17.7953C3.30538 18.8945 4.63429 19.2344 6.13429 19.307C7.42804 19.3797 8.71007 19.368 10.0015 19.368C11.2952 19.368 12.5773 19.3797 13.8687 19.307C15.3687 19.2344 16.6999 18.8922 17.7968 17.7953C18.896 16.6961 19.2359 15.3672 19.3085 13.8672C19.3835 12.5758 19.3694 11.2938 19.3694 10ZM9.99913 14.807C7.33898 14.807 5.1921 12.6602 5.1921 10C5.1921 7.33986 7.33898 5.19298 9.99913 5.19298C12.6593 5.19298 14.8062 7.33986 14.8062 10C14.8062 12.6602 12.6593 14.807 9.99913 14.807ZM15.003 6.11876C14.3819 6.11876 13.8804 5.6172 13.8804 4.99611C13.8804 4.37501 14.3819 3.87345 15.003 3.87345C15.6241 3.87345 16.1257 4.37501 16.1257 4.99611C16.1259 5.14359 16.097 5.28966 16.0406 5.42595C15.9843 5.56224 15.9016 5.68607 15.7973 5.79036C15.693 5.89464 15.5692 5.97733 15.4329 6.03368C15.2966 6.09004 15.1505 6.11895 15.003 6.11876Z" fill="#FEFEFE"/>
</svg>
