<svg width="72" height="72" viewBox="0 0 72 72" fill="none" xmlns="http://www.w3.org/2000/svg">
<path d="M61.3487 56.0154C61.348 58.9612 58.9598 61.3489 56.014 61.3489C53.0677 61.3489 50.6793 58.9604 50.6793 56.0142V44.6415C50.6793 40.6575 50.6082 35.5288 45.1307 35.5288C39.5744 35.5288 38.7243 39.8696 38.7243 44.3515V56.0136C38.7243 58.9596 36.3361 61.3477 33.3902 61.3477C30.4442 61.3477 28.0561 58.9596 28.0561 56.0136V32.1114C28.0561 29.2833 30.3487 26.9907 33.1768 26.9907H35.9499C37.2464 26.9907 38.2975 28.0418 38.2975 29.3383V31.5948C38.2975 31.6451 38.3383 31.6859 38.3886 31.6859C38.421 31.6859 38.4509 31.6687 38.4674 31.6409C39.4913 29.9087 40.9622 28.4834 42.7263 27.5145C44.5057 26.5372 46.5169 26.0608 48.5457 26.1361C59.3583 26.1361 61.3519 33.2484 61.3519 42.5011L61.3487 56.0154ZM-nan -nanL16.0189 22.2943C14.7944 22.2945 13.5974 21.9317 12.5792 21.2516C11.561 20.5715 10.7674 19.6047 10.2986 18.4735C9.82984 17.3423 9.70698 16.0975 9.94564 14.8965C10.1843 13.6955 10.7737 12.5923 11.6394 11.7263C12.5051 10.8603 13.6081 10.2705 14.8089 10.0314C16.0098 9.79225 17.2546 9.91463 18.3859 10.383C19.5172 10.8514 20.4842 11.6448 21.1647 12.6627C21.8451 13.6807 22.2084 14.8777 22.2086 16.1021C22.2088 16.9152 22.0488 17.7202 21.7378 18.4714C21.4268 19.2226 20.971 19.9052 20.3962 20.4802C19.8214 21.0552 19.139 21.5114 18.3879 21.8226C17.6369 22.1339 16.8319 22.2942 16.0189 22.2943L-nan -nanZM21.3529 56.0092C21.3529 58.9582 18.9623 61.3489 16.0133 61.3489C13.0643 61.3489 10.6737 58.9582 10.6737 56.0092V32.3303C10.6737 29.3813 13.0643 26.9907 16.0133 26.9907C18.9623 26.9907 21.3529 29.3813 21.3529 32.3303V56.0092ZM66.6659 0.00490548H5.31297C3.92043 -0.0108099 2.57855 0.52699 1.58232 1.50013C0.586086 2.47326 0.0169952 3.80212 0 5.19469V66.8042C0.0164135 68.1975 0.585171 69.5273 1.58137 70.5014C2.57757 71.4756 3.91974 72.0144 5.31297 71.9996H66.6659C68.0619 72.0171 69.4078 71.4798 70.408 70.5057C71.4081 69.5315 71.9807 68.2003 72 66.8042V5.19025C71.9801 3.79491 71.4071 2.46455 70.407 1.49143C69.4068 0.518319 68.0612 -0.0179443 66.6659 0.000458465" fill="#2b7a78"/>
</svg>
