<svg width="48" height="48" viewBox="0 0 48 48" fill="none" xmlns="http://www.w3.org/2000/svg">
<path d="M40.8991 37.3436C40.8986 39.3075 39.3065 40.8992 37.3426 40.8992V40.8992C35.3785 40.8992 33.7862 39.3069 33.7862 37.3428V29.761C33.7862 27.105 33.7388 23.6859 30.0872 23.6859C26.3829 23.6859 25.8162 26.5797 25.8162 29.5676V37.3424C25.8162 39.3064 24.2241 40.8985 22.2601 40.8985V40.8985C20.2962 40.8985 18.7041 39.3064 18.7041 37.3424V21.4076C18.7041 19.5222 20.2325 17.9938 22.1179 17.9938H23.9666C24.831 17.9938 25.5317 18.6945 25.5317 19.5589V21.0632C25.5317 21.0968 25.5589 21.124 25.5924 21.124V21.124C25.614 21.124 25.634 21.1125 25.6449 21.0939C26.3275 19.9392 27.3081 18.9889 28.4842 18.343C29.6705 17.6914 31.0113 17.3739 32.3638 17.4241C39.5722 17.4241 40.9013 22.1656 40.9013 28.3341L40.8991 37.3436ZM10.6793 14.8629C9.86296 14.863 9.06494 14.6211 8.38614 14.1677C7.70733 13.7143 7.17826 13.0698 6.86574 12.3157C6.55322 11.5615 6.47132 10.7317 6.63043 9.93101C6.78954 9.13035 7.1825 8.39485 7.7596 7.81752C8.3367 7.2402 9.07204 6.84697 9.87262 6.68757C10.6732 6.52817 11.503 6.60976 12.2573 6.92201C13.0115 7.23427 13.6561 7.76317 14.1098 8.44183C14.5634 9.12049 14.8056 9.91844 14.8058 10.7348C14.8059 11.2768 14.6992 11.8135 14.4919 12.3143C14.2845 12.8151 13.9806 13.2701 13.5975 13.6535C13.2143 14.0368 12.7593 14.3409 12.2586 14.5484C11.7579 14.7559 11.2212 14.8628 10.6793 14.8629ZM14.2353 37.3395C14.2353 39.3055 12.6415 40.8992 10.6755 40.8992V40.8992C8.70955 40.8992 7.11579 39.3055 7.11579 37.3395V21.5535C7.11579 19.5875 8.70955 17.9938 10.6755 17.9938V17.9938C12.6415 17.9938 14.2353 19.5875 14.2353 21.5535V37.3395ZM44.444 0.00327032H3.54198C2.61362 -0.00720657 1.71904 0.351327 1.05488 1.00008C0.390724 1.64884 0.0113301 2.53475 0 3.46313V44.5362C0.0109423 45.465 0.390114 46.3515 1.05425 47.0009C1.71838 47.6504 2.61316 48.0096 3.54198 47.9997H44.444C45.3746 48.0114 46.2719 47.6532 46.9387 47.0038C47.6054 46.3544 47.9871 45.4668 48 44.5362V3.46017C47.9867 2.52994 47.6048 1.64303 46.938 0.994288C46.2712 0.345546 45.3742 -0.0119629 44.444 0.000305644" fill="#0A66C2"/>
</svg>
