<svg width="130" height="24" viewBox="0 0 130 24" fill="none" xmlns="http://www.w3.org/2000/svg">
<path d="M5.856 18V3.624H0.264V1.08H14.544V3.624H8.952V18H5.856ZM20.4724 18.24C18.4404 18.24 16.8484 17.68 15.6964 16.56C14.5444 15.44 13.9684 13.904 13.9684 11.952C13.9684 10.688 14.2164 9.584 14.7124 8.64C15.2084 7.696 15.8964 6.96 16.7764 6.432C17.6724 5.904 18.7124 5.64 19.8964 5.64C21.0644 5.64 22.0404 5.888 22.8244 6.384C23.6084 6.88 24.2004 7.576 24.6004 8.472C25.0164 9.368 25.2244 10.416 25.2244 11.616V12.408H16.3924V10.824H23.0884L22.6804 11.16C22.6804 10.04 22.4404 9.184 21.9604 8.592C21.4964 8 20.8164 7.704 19.9204 7.704C18.9284 7.704 18.1604 8.056 17.6164 8.76C17.0884 9.464 16.8244 10.448 16.8244 11.712V12.024C16.8244 13.336 17.1444 14.32 17.7844 14.976C18.4404 15.616 19.3604 15.936 20.5444 15.936C21.2324 15.936 21.8724 15.848 22.4644 15.672C23.0724 15.48 23.6484 15.176 24.1924 14.76L25.0804 16.776C24.5044 17.24 23.8164 17.6 23.0164 17.856C22.2164 18.112 21.3684 18.24 20.4724 18.24ZM27.7408 18V8.976C27.7408 8.464 27.7248 7.944 27.6928 7.416C27.6768 6.888 27.6368 6.376 27.5728 5.88H30.4768L30.8128 9.192H30.3328C30.4928 8.392 30.7568 7.728 31.1248 7.2C31.5088 6.672 31.9728 6.28 32.5168 6.024C33.0608 5.768 33.6528 5.64 34.2928 5.64C34.5808 5.64 34.8128 5.656 34.9888 5.688C35.1648 5.704 35.3408 5.744 35.5168 5.808L35.4928 8.448C35.1888 8.32 34.9248 8.24 34.7008 8.208C34.4928 8.176 34.2288 8.16 33.9088 8.16C33.2208 8.16 32.6368 8.304 32.1568 8.592C31.6928 8.88 31.3408 9.28 31.1008 9.792C30.8768 10.304 30.7648 10.888 30.7648 11.544V18H27.7408ZM37.1867 18V8.904C37.1867 8.408 37.1707 7.904 37.1387 7.392C37.1067 6.88 37.0587 6.376 36.9947 5.88H39.8987L40.1387 8.28H39.8507C40.1867 7.448 40.6987 6.8 41.3867 6.336C42.0907 5.872 42.9227 5.64 43.8827 5.64C44.8427 5.64 45.6347 5.872 46.2587 6.336C46.8987 6.784 47.3467 7.488 47.6027 8.448H47.2187C47.5547 7.584 48.1067 6.904 48.8747 6.408C49.6427 5.896 50.5227 5.64 51.5147 5.64C52.8747 5.64 53.8907 6.04 54.5627 6.84C55.2347 7.64 55.5707 8.888 55.5707 10.584V18H52.5707V10.704C52.5707 9.744 52.4107 9.056 52.0907 8.64C51.7707 8.208 51.2587 7.992 50.5547 7.992C49.7227 7.992 49.0667 8.288 48.5867 8.88C48.1067 9.456 47.8667 10.24 47.8667 11.232V18H44.8667V10.704C44.8667 9.744 44.7067 9.056 44.3867 8.64C44.0667 8.208 43.5547 7.992 42.8507 7.992C42.0187 7.992 41.3627 8.288 40.8827 8.88C40.4187 9.456 40.1867 10.24 40.1867 11.232V18H37.1867ZM65.7086 18.24C64.6846 18.24 63.7886 17.992 63.0206 17.496C62.2526 16.984 61.7406 16.296 61.4846 15.432H61.7486V18H58.7726V0.335999H61.7726V8.352H61.4846C61.7566 7.52 62.2766 6.864 63.0446 6.384C63.8126 5.888 64.7006 5.64 65.7086 5.64C66.7806 5.64 67.7166 5.896 68.5166 6.408C69.3166 6.92 69.9406 7.648 70.3886 8.592C70.8366 9.52 71.0606 10.64 71.0606 11.952C71.0606 13.264 70.8366 14.392 70.3886 15.336C69.9406 16.264 69.3086 16.984 68.4926 17.496C67.6926 17.992 66.7646 18.24 65.7086 18.24ZM64.8686 15.936C65.8126 15.936 66.5726 15.608 67.1486 14.952C67.7406 14.296 68.0366 13.296 68.0366 11.952C68.0366 10.608 67.7406 9.608 67.1486 8.952C66.5726 8.28 65.8126 7.944 64.8686 7.944C63.9246 7.944 63.1646 8.272 62.5886 8.928C62.0126 9.584 61.7246 10.584 61.7246 11.928C61.7246 13.272 62.0126 14.28 62.5886 14.952C63.1646 15.608 63.9246 15.936 64.8686 15.936ZM78.0234 18.24C76.5354 18.24 75.4234 17.832 74.6874 17.016C73.9514 16.2 73.5834 14.952 73.5834 13.272V5.88H76.5834V13.248C76.5834 14.144 76.7674 14.808 77.1354 15.24C77.5034 15.656 78.0634 15.864 78.8154 15.864C79.6634 15.864 80.3514 15.576 80.8794 15C81.4234 14.424 81.6954 13.664 81.6954 12.72V5.88H84.6954V18H81.7674V15.528H82.1034C81.7514 16.392 81.2154 17.064 80.4954 17.544C79.7914 18.008 78.9674 18.24 78.0234 18.24ZM92.6563 18.24C91.6003 18.24 90.6643 17.992 89.8483 17.496C89.0483 16.984 88.4243 16.256 87.9763 15.312C87.5283 14.368 87.3043 13.24 87.3043 11.928C87.3043 10.616 87.5283 9.496 87.9763 8.568C88.4243 7.624 89.0483 6.904 89.8483 6.408C90.6643 5.896 91.6003 5.64 92.6563 5.64C93.6643 5.64 94.5523 5.888 95.3203 6.384C96.1043 6.864 96.6243 7.52 96.8803 8.352H96.5683V0.335999H99.5683V18H96.6163V15.432H96.9043C96.6483 16.296 96.1283 16.984 95.3443 17.496C94.5763 17.992 93.6803 18.24 92.6563 18.24ZM93.4963 15.936C94.4403 15.936 95.2003 15.608 95.7763 14.952C96.3523 14.28 96.6403 13.272 96.6403 11.928C96.6403 10.584 96.3523 9.584 95.7763 8.928C95.2003 8.272 94.4403 7.944 93.4963 7.944C92.5523 7.944 91.7843 8.272 91.1923 8.928C90.6163 9.584 90.3283 10.584 90.3283 11.928C90.3283 13.272 90.6163 14.28 91.1923 14.952C91.7843 15.608 92.5523 15.936 93.4963 15.936ZM107.539 18.24C106.483 18.24 105.547 17.992 104.731 17.496C103.931 16.984 103.307 16.256 102.859 15.312C102.411 14.368 102.187 13.24 102.187 11.928C102.187 10.616 102.411 9.496 102.859 8.568C103.307 7.624 103.931 6.904 104.731 6.408C105.547 5.896 106.483 5.64 107.539 5.64C108.547 5.64 109.435 5.888 110.203 6.384C110.987 6.864 111.507 7.52 111.763 8.352H111.451V0.335999H114.451V18H111.499V15.432H111.787C111.531 16.296 111.011 16.984 110.227 17.496C109.459 17.992 108.563 18.24 107.539 18.24ZM108.379 15.936C109.323 15.936 110.083 15.608 110.659 14.952C111.235 14.28 111.523 13.272 111.523 11.928C111.523 10.584 111.235 9.584 110.659 8.928C110.083 8.272 109.323 7.944 108.379 7.944C107.435 7.944 106.667 8.272 106.075 8.928C105.499 9.584 105.211 10.584 105.211 11.928C105.211 13.272 105.499 14.28 106.075 14.952C106.667 15.608 107.435 15.936 108.379 15.936ZM117.478 23.448L116.782 21.072C117.534 20.912 118.166 20.728 118.678 20.52C119.19 20.312 119.614 20.04 119.95 19.704C120.286 19.368 120.566 18.936 120.79 18.408L121.39 16.992L121.318 18.168L116.038 5.88H119.23L123.022 15.336H122.326L126.142 5.88H129.166L123.646 18.672C123.278 19.536 122.878 20.248 122.446 20.808C122.014 21.384 121.55 21.84 121.054 22.176C120.558 22.528 120.014 22.8 119.422 22.992C118.83 23.184 118.182 23.336 117.478 23.448Z" fill="#2B7A78"/>
</svg>
