<svg width="311" height="174" viewBox="0 0 311 174" fill="none" xmlns="http://www.w3.org/2000/svg">
<path d="M22.1008 95.6315L0.09375 146.717L94.1159 173.036L116.123 121.951L22.1008 95.6315Z" fill="#EBEBEB"/>
<path d="M116.117 121.938C115.746 122.114 115.356 122.26 114.951 122.376L111.537 123.489L98.9088 127.471L57.0305 140.393L56.6824 140.496L56.487 140.245L56.0046 139.635L31.8717 108.594L24.6416 99.1426L22.7181 96.5534C22.48 96.2588 22.2757 95.9474 22.1074 95.623C22.3958 95.8861 22.6515 96.1713 22.8707 96.4746L24.9408 98.99L32.4091 108.338L56.774 139.265C56.9328 139.477 57.0977 139.684 57.2503 139.876L56.7068 139.728L98.6829 127.013L111.415 123.228L114.89 122.244C115.285 122.11 115.696 122.008 116.117 121.938V121.938Z" fill="#E0E0E0"/>
<path d="M0.093006 146.732C-0.0352304 146.56 10.0527 141.539 22.6199 135.514C35.187 129.489 45.4826 124.749 45.6108 124.921C45.7391 125.093 35.6511 130.114 23.0779 136.139C10.5046 142.164 0.221242 146.88 0.093006 146.732Z" fill="#E0E0E0"/>
<path d="M77.1381 133.004C77.3701 132.94 81.3638 141.864 86.0536 152.896C90.7434 163.927 94.3523 172.959 94.1142 173.023C93.876 173.087 89.8885 164.163 85.1987 153.132C80.5089 142.101 76.8999 133.068 77.1381 133.004Z" fill="#E0E0E0"/>
<path d="M299.558 82.335L206.521 95.0466L217.151 145.598L310.187 132.886L299.558 82.335Z" fill="#E0E0E0"/>
<path d="M299.55 82.3572C299.341 82.6389 299.099 82.9042 298.829 83.1497L296.625 85.3303L288.381 93.285C281.303 100.014 271.618 109.224 260.902 119.423L260.676 119.64L260.37 119.502L259.625 119.172L221.997 102.249L210.645 97.0506L207.592 95.6084C207.223 95.4555 206.876 95.2724 206.554 95.062C206.943 95.1769 207.319 95.3185 207.677 95.4853L210.822 96.8193L222.308 101.82L260.059 118.557L260.804 118.887L260.273 118.965L287.959 92.9601L296.405 85.1482C297.376 84.2769 298.145 83.5779 298.731 83.0463C298.981 82.7994 299.255 82.569 299.55 82.3572V82.3572Z" fill="#EBEBEB"/>
<path d="M217.142 145.615C216.941 145.517 222.479 137.631 229.514 128.003C236.549 118.374 242.423 110.646 242.624 110.745C242.826 110.843 237.287 118.724 230.253 128.357C223.218 137.99 217.344 145.709 217.142 145.615Z" fill="#EBEBEB"/>
<path d="M273.419 105.877C273.578 105.739 281.968 111.67 292.087 119.133C302.205 126.595 310.339 132.758 310.174 132.916C310.009 133.073 301.662 127.112 291.506 119.659C281.351 112.207 273.236 106.029 273.419 105.877Z" fill="#EBEBEB"/>
<path d="M206.562 1.98234L189.801 36.3342L253.027 56.3797L269.788 22.0278L206.562 1.98234Z" fill="#EBEBEB"/>
<path d="M269.769 22.4855C269.512 22.6009 269.239 22.6918 268.956 22.7562L266.593 23.4454L257.843 25.882L228.831 33.7579L228.593 33.8219L228.47 33.6447L228.165 33.2213L212.783 11.5085C210.859 8.75685 209.296 6.51222 208.179 4.90258L206.957 3.09605C206.802 2.88979 206.671 2.67225 206.566 2.44629C206.756 2.63199 206.923 2.83138 207.067 3.0419C207.397 3.48984 207.837 4.07561 208.392 4.80413L213.168 11.3362C217.173 16.9133 222.663 24.5431 228.721 32.9949L229.026 33.4232L228.666 33.3099L257.727 25.5719L266.52 23.2633L268.92 22.6873C269.196 22.602 269.48 22.5345 269.769 22.4855V22.4855Z" fill="#E0E0E0"/>
<path d="M189.786 36.7995C189.7 36.6814 196.753 33.4769 205.535 29.6473C214.316 25.8176 221.497 22.8149 221.576 22.9331C221.656 23.0512 214.615 26.2557 205.828 30.0706C197.04 33.8855 189.865 36.9226 189.786 36.7995Z" fill="#E0E0E0"/>
<path d="M242.802 29.1652C242.967 29.1258 245.385 35.2937 248.2 42.948C251.015 50.6024 253.177 56.8194 253.012 56.8588C252.847 56.8982 250.429 50.7353 247.614 43.076C244.799 35.4167 242.637 29.2046 242.802 29.1652Z" fill="#E0E0E0"/>
<path d="M83.4703 84.6606L227.504 83.8188L231.516 162.755L82.3711 161.643L83.4703 84.6606Z" fill="#B8D3D2"/>
<path d="M83.4639 84.6605L151.637 40.1962C153.037 39.2837 154.786 38.7884 156.587 38.7937C158.387 38.7991 160.131 39.3049 161.523 40.2257L227.504 83.8188" fill="#81CCAA"/>
<g opacity="0.3">
<path d="M83.4639 84.6605L151.637 40.1962C153.037 39.2837 154.786 38.7884 156.587 38.7937C158.387 38.7991 160.131 39.3049 161.523 40.2257L227.504 83.8188" fill="black"/>
</g>
<path d="M82.3712 161.643C82.1941 161.505 93.7231 151.355 108.128 138.975C122.534 126.595 134.35 116.666 134.533 116.799C134.716 116.932 123.181 127.082 108.776 139.467C94.3704 151.852 82.5543 161.775 82.3712 161.643Z" fill="#263238"/>
<path d="M231.516 162.755C231.333 162.888 220.103 152.945 206.437 140.55C192.77 128.155 181.84 117.995 182.011 117.862C182.182 117.729 193.424 127.673 207.09 140.072C220.756 152.472 231.712 162.622 231.516 162.755Z" fill="#263238"/>
<g opacity="0.5">
<path d="M227.505 83.8188L155.173 130.395L83.4707 84.6606" fill="black"/>
</g>
<path d="M90.7188 88.9724L90.499 52.7138L216.617 51.5078L218.039 89.6616L155.167 129.784L90.7188 88.9724Z" fill="#FAFAFA"/>
<path d="M90.7181 88.9729C90.7181 88.9729 91.1273 89.2191 91.9028 89.7064L95.3224 91.8526L108.36 100.058L155.264 129.701H155.105L217.959 89.5636L217.898 89.667C217.629 82.3917 217.342 74.752 217.049 66.9844C216.86 61.7519 216.665 56.5833 216.475 51.5132L216.634 51.6363L90.5166 52.7931L90.6143 52.7143C90.6632 64.1196 90.7059 73.1818 90.7304 79.3939C90.7304 82.4999 90.7304 84.8923 90.7304 86.5117V88.3478C90.7304 88.7613 90.7304 88.9729 90.7304 88.9729C90.7304 88.9729 90.7304 88.7662 90.7304 88.3576C90.7304 87.9491 90.7304 87.3338 90.7304 86.5314C90.7304 84.9119 90.6876 82.5246 90.6571 79.4234C90.6082 73.2015 90.535 64.1344 90.4434 52.7143V52.6306H90.5411L216.665 51.3853H216.817V51.5132C217.007 56.5784 217.196 61.747 217.391 66.9795C217.684 74.752 217.965 82.3867 218.24 89.667V89.731L218.179 89.7704L155.282 129.873L155.203 129.923L155.123 129.873L108.25 100.132L95.2919 91.887L91.8723 89.7212C91.1029 89.2289 90.7181 88.9729 90.7181 88.9729Z" fill="#263238"/>
<path d="M196.685 69.7702C196.685 69.8392 177.394 69.9918 153.61 70.105C129.825 70.2182 110.528 70.2625 110.528 70.1886C110.528 70.1148 129.813 69.9671 153.61 69.849C177.407 69.7309 196.685 69.6964 196.685 69.7702Z" fill="#263238"/>
<path d="M196.685 80.0091C196.685 80.0829 177.394 80.2355 153.61 80.3487C129.825 80.462 110.528 80.5013 110.528 80.4324C110.528 80.3635 129.813 80.2109 153.61 80.0928C177.407 79.9746 196.685 79.9402 196.685 80.0091Z" fill="#263238"/>
<path d="M196.685 91.818C196.685 91.8869 177.394 92.0395 153.61 92.1577C129.825 92.2758 110.528 92.3103 110.528 92.2364C110.528 92.1626 129.813 92.0149 153.61 91.9017C177.407 91.7885 196.685 91.7442 196.685 91.818Z" fill="#263238"/>
<path d="M196.685 103.622C196.685 103.696 178.286 103.838 155.588 103.952C132.89 104.065 114.491 104.094 114.485 104.025C114.479 103.957 132.884 103.809 155.588 103.696C178.292 103.582 196.685 103.553 196.685 103.622Z" fill="#263238"/>
<path d="M180.551 113.983C180.386 114.006 180.218 114.016 180.051 114.013L178.597 114.047L173.272 114.116L155.692 114.318C148.828 114.412 142.606 114.441 138.105 114.446H132.78H131.327C131.159 114.449 130.992 114.44 130.826 114.421C130.992 114.399 131.159 114.389 131.327 114.392L132.78 114.362L138.105 114.289L155.686 114.087C162.549 113.993 168.772 113.964 173.266 113.959H178.597H180.051C180.218 113.958 180.385 113.967 180.551 113.983V113.983Z" fill="#263238"/>
<path d="M164.315 123.947C164.315 124.015 160.205 124.075 155.155 124.075C150.105 124.075 145.995 124.015 145.995 123.947C145.995 123.878 150.111 123.819 155.155 123.819C160.199 123.819 164.315 123.873 164.315 123.947Z" fill="#263238"/>
<path d="M206.767 115.903C215.181 115.903 222.003 110.405 222.003 103.622C222.003 96.8389 215.181 91.3403 206.767 91.3403C198.352 91.3403 191.531 96.8389 191.531 103.622C191.531 110.405 198.352 115.903 206.767 115.903Z" fill="#263238"/>
<path d="M202.804 115.903C211.219 115.903 218.04 110.405 218.04 103.622C218.04 96.8389 211.219 91.3403 202.804 91.3403C194.39 91.3403 187.568 96.8389 187.568 103.622C187.568 110.405 194.39 115.903 202.804 115.903Z" fill="#455A64"/>
<path d="M204.739 97.9069V108.116H202.4V99.4772H199.72V97.8872L204.739 97.9069Z" fill="#EBEBEB"/>
<path d="M91.708 36.1495H105.643L103.756 34.4069V30.2278C103.756 29.1416 103.221 28.0999 102.268 27.3319C101.315 26.5638 100.023 26.1323 98.6755 26.1323V26.1323C98.0086 26.1323 97.3482 26.2383 96.7322 26.4442C96.1161 26.65 95.5564 26.9518 95.0851 27.3322C94.6139 27.7125 94.2402 28.164 93.9855 28.6609C93.7309 29.1578 93.6002 29.6902 93.601 30.2278V34.2002L91.708 36.1495Z" fill="#81CCAA"/>
<path d="M96.7578 35.5987C96.7732 35.8432 96.8528 36.0824 96.9912 36.3004C97.1296 36.5184 97.3238 36.7102 97.5609 36.8633C97.7981 37.0163 98.0728 37.1272 98.3669 37.1884C98.6611 37.2497 98.9679 37.26 99.2674 37.2186C99.5668 37.1773 99.852 37.0852 100.104 36.9486C100.356 36.8119 100.569 36.6338 100.73 36.4258C100.89 36.2178 100.994 35.9848 101.035 35.7421C101.075 35.4995 101.052 35.2526 100.965 35.0178" fill="#81CCAA"/>
<path d="M99.4509 24.4294H98.083V26.7725H99.4509V24.4294Z" fill="#81CCAA"/>
<path d="M118.992 28.4658C118.95 28.3694 118.918 28.2707 118.894 28.1704C118.833 27.9588 118.754 27.6782 118.65 27.3041C118.522 26.8333 118.357 26.3696 118.155 25.916C118.033 25.6502 117.948 25.3499 117.783 25.0496L117.264 24.0947C116.324 22.4815 115.078 20.9967 113.569 19.694C111.588 18.0104 109.189 16.682 106.528 15.7955C105.013 15.2813 103.426 14.9177 101.802 14.7125C100.05 14.5067 98.2729 14.4836 96.5138 14.6436C95.5883 14.7221 94.6702 14.8504 93.7659 15.0276C93.3079 15.1063 92.8621 15.2491 92.398 15.3623C91.932 15.4665 91.4767 15.5998 91.0363 15.761C89.1654 16.3709 87.4243 17.213 85.8763 18.2567C82.4407 20.5402 80.0189 23.6619 78.976 27.1515C78.4268 29.0211 78.2924 30.9542 78.579 32.8615C78.8305 34.8345 79.5411 36.7517 80.6736 38.5125L81.0277 39.049L81.0705 39.1179V39.1918C79.9408 42.1452 78.8416 45.0987 77.7669 47.9192L77.4799 47.7076L86.206 44.0404L86.3099 43.9961L86.4076 44.0551C90.0558 46.323 94.5523 47.5232 99.1587 47.4588C103.765 47.3944 108.207 46.0692 111.756 43.7007C113.575 42.4745 115.125 41.0101 116.342 39.369C117.314 37.9984 118.063 36.5326 118.57 35.0077C118.913 33.8496 119.117 32.6678 119.181 31.4783C119.181 30.9861 119.181 30.5628 119.181 30.1837C119.181 29.8047 119.108 29.5044 119.083 29.2435C119.059 28.9827 119.035 28.8104 119.022 28.6676C119.013 28.6022 119.013 28.5361 119.022 28.4707C119.044 28.5335 119.058 28.5978 119.065 28.6627C119.065 28.8071 119.096 28.9991 119.157 29.2386C119.193 29.4995 119.236 29.8096 119.291 30.1837C119.346 30.5578 119.291 30.9959 119.291 31.4832C119.257 32.6831 119.073 33.8771 118.741 35.0471C118.254 36.5954 117.515 38.085 116.543 39.4773C115.327 41.1542 113.766 42.6522 111.927 43.9075C109.675 45.4227 107.049 46.5338 104.223 47.167C101.396 47.8002 98.4355 47.9408 95.5368 47.5796C92.125 47.1428 88.9004 46.0317 86.1511 44.3456H86.3587L77.6447 48.0226L77.2051 48.2097L77.3516 47.811L80.6491 39.0835V39.2262L80.2889 38.6798C79.1337 36.8802 78.4086 34.9215 78.1516 32.9058C77.8527 30.9539 77.9934 28.9745 78.5668 27.0629C79.635 23.5051 82.1107 20.3241 85.6198 18.0007C87.2038 16.9443 88.9816 16.0924 90.8897 15.4755C91.338 15.3119 91.8014 15.1769 92.2759 15.0719C92.7461 14.9636 93.198 14.8208 93.6682 14.7421C94.5857 14.5601 95.5184 14.4317 96.4589 14.3581C98.2473 14.1994 100.054 14.2292 101.833 14.4467C103.478 14.6666 105.085 15.0433 106.62 15.569C109.309 16.4818 111.728 17.8441 113.716 19.566C115.225 20.8927 116.461 22.4048 117.38 24.0455C117.557 24.39 117.728 24.71 117.88 25.0299C118.033 25.3499 118.125 25.6403 118.241 25.9111C118.439 26.3683 118.592 26.8374 118.699 27.3139C118.784 27.6831 118.857 27.9736 118.906 28.1901C118.942 28.2804 118.971 28.3725 118.992 28.4658Z" fill="#263238"/>
</svg>
