<svg width="486" height="366" viewBox="0 0 486 366" fill="none" xmlns="http://www.w3.org/2000/svg">
<path d="M486 321.58H0V321.826H486V321.58Z" fill="#EBEBEB"/>
<path d="M437.303 337.38H405.11V337.625H437.303V337.38Z" fill="#EBEBEB"/>
<path d="M321.946 340.052H313.499V340.297H321.946V340.052Z" fill="#EBEBEB"/>
<path d="M404.138 328.267H385.486V328.512H404.138V328.267Z" fill="#EBEBEB"/>
<path d="M92.9717 329.917H50.991V330.162H92.9717V329.917Z" fill="#EBEBEB"/>
<path d="M107.785 329.917H101.632V330.162H107.785V329.917Z" fill="#EBEBEB"/>
<path d="M218.846 334.061H127.789V334.306H218.846V334.061Z" fill="#EBEBEB"/>
<path d="M230.364 277.783H42.6808C41.2105 277.78 39.8013 277.188 38.7625 276.137C37.7238 275.086 37.1404 273.661 37.1404 272.176V5.63136C37.1532 4.15446 37.7422 2.7423 38.7796 1.70161C39.817 0.660928 41.2189 0.0757722 42.6808 0.0732422H230.364C231.836 0.0732422 233.248 0.664001 234.289 1.71556C235.33 2.76712 235.914 4.19333 235.914 5.68046V272.176C235.914 273.663 235.33 275.089 234.289 276.141C233.248 277.192 231.836 277.783 230.364 277.783ZM42.6808 0.269643C41.2749 0.272244 39.9275 0.838284 38.9344 1.84352C37.9412 2.84876 37.3834 4.21105 37.3834 5.63136V272.176C37.3834 273.596 37.9412 274.958 38.9344 275.963C39.9275 276.969 41.2749 277.535 42.6808 277.537H230.364C231.771 277.535 233.119 276.969 234.114 275.964C235.109 274.959 235.669 273.597 235.671 272.176V5.63136C235.669 4.21014 235.109 2.84788 234.114 1.84292C233.119 0.837965 231.771 0.272239 230.364 0.269643H42.6808Z" fill="#EBEBEB"/>
<path d="M440.617 277.783H252.924C251.453 277.78 250.043 277.189 249.002 276.138C247.962 275.087 247.377 273.662 247.374 272.176V5.63136C247.389 4.15356 247.981 2.74141 249.019 1.701C250.058 0.660585 251.461 0.0757446 252.924 0.0732422H440.617C442.078 0.078353 443.477 0.664651 444.512 1.70506C445.548 2.74547 446.135 4.15616 446.148 5.63136V272.176C446.148 273.659 445.566 275.083 444.529 276.134C443.493 277.185 442.086 277.778 440.617 277.783ZM252.924 0.269643C251.517 0.272239 250.169 0.837965 249.174 1.84292C248.18 2.84788 247.62 4.21014 247.617 5.63136V272.176C247.62 273.597 248.18 274.959 249.174 275.964C250.169 276.969 251.517 277.535 252.924 277.537H440.617C442.024 277.535 443.372 276.969 444.367 275.964C445.362 274.959 445.922 273.597 445.924 272.176V5.63136C445.922 4.21014 445.362 2.84788 444.367 1.84292C443.372 0.837965 442.024 0.272239 440.617 0.269643H252.924Z" fill="#EBEBEB"/>
<path d="M432.948 61.1348H197.452V290.471H432.948V61.1348Z" fill="#E0E0E0"/>
<path d="M432.948 65.2969H201.233V286.463H432.948V65.2969Z" fill="#F5F5F5"/>
<path d="M202.944 232.905V166.375H209.777V157.586L225.173 150.319V141.324H227.739V166.375H230.305V232.905H233.727V198.339H241.425V180.201H243.991V232.905H249.969V213.03H254.246V207.845H263.655V189.707H268.787V177.609H274.774V159.461H277.34V177.609H283.328V189.707H288.45V207.845H297.859V213.03H302.136V232.905H307.268V207.845H316.677V152.558H319.243V146.509H339.762V152.558H344.039V192.299H361.146V196.61H367.124V199.203H361.146V214.758H379.099V162.918H382.521V152.558H391.074V112.816H393.64V152.558H399.628V162.918H432.948V286.464H201.233V232.905H202.944Z" fill="#E6E6E6"/>
<path d="M415.141 165.629H412.721V168.074H415.141V165.629Z" fill="#F0F0F0"/>
<path d="M415.141 169.732H412.721V172.178H415.141V169.732Z" fill="#F0F0F0"/>
<path d="M415.141 186.152H412.721V188.598H415.141V186.152Z" fill="#F0F0F0"/>
<path d="M415.141 190.247H412.721V192.692H415.141V190.247Z" fill="#F0F0F0"/>
<path d="M415.141 194.353H412.721V196.798H415.141V194.353Z" fill="#F0F0F0"/>
<path d="M415.141 206.667H412.721V209.112H415.141V206.667Z" fill="#F0F0F0"/>
<path d="M415.141 210.771H412.721V213.217H415.141V210.771Z" fill="#F0F0F0"/>
<path d="M411.292 182.048H408.872V184.493H411.292V182.048Z" fill="#F0F0F0"/>
<path d="M411.292 186.152H408.872V188.598H411.292V186.152Z" fill="#F0F0F0"/>
<path d="M411.292 190.247H408.872V192.692H411.292V190.247Z" fill="#F0F0F0"/>
<path d="M411.292 194.353H408.872V196.798H411.292V194.353Z" fill="#F0F0F0"/>
<path d="M411.292 198.456H408.872V200.901H411.292V198.456Z" fill="#F0F0F0"/>
<path d="M411.292 206.667H408.872V209.112H411.292V206.667Z" fill="#F0F0F0"/>
<path d="M411.292 210.771H408.872V213.217H411.292V210.771Z" fill="#F0F0F0"/>
<path d="M407.443 165.629H405.022V168.074H407.443V165.629Z" fill="#F0F0F0"/>
<path d="M407.443 169.732H405.022V172.178H407.443V169.732Z" fill="#F0F0F0"/>
<path d="M407.443 173.84H405.022V176.285H407.443V173.84Z" fill="#F0F0F0"/>
<path d="M407.443 177.942H405.022V180.388H407.443V177.942Z" fill="#F0F0F0"/>
<path d="M407.443 182.048H405.022V184.493H407.443V182.048Z" fill="#F0F0F0"/>
<path d="M407.443 186.152H405.022V188.598H407.443V186.152Z" fill="#F0F0F0"/>
<path d="M407.443 190.247H405.022V192.692H407.443V190.247Z" fill="#F0F0F0"/>
<path d="M407.443 194.353H405.022V196.798H407.443V194.353Z" fill="#F0F0F0"/>
<path d="M407.443 198.456H405.022V200.901H407.443V198.456Z" fill="#F0F0F0"/>
<path d="M407.443 202.562H405.022V205.007H407.443V202.562Z" fill="#F0F0F0"/>
<path d="M407.443 210.771H405.022V213.217H407.443V210.771Z" fill="#F0F0F0"/>
<path d="M403.594 165.629H401.174V168.074H403.594V165.629Z" fill="#F0F0F0"/>
<path d="M403.594 169.732H401.174V172.178H403.594V169.732Z" fill="#F0F0F0"/>
<path d="M403.594 173.84H401.174V176.285H403.594V173.84Z" fill="#F0F0F0"/>
<path d="M403.594 177.942H401.174V180.388H403.594V177.942Z" fill="#F0F0F0"/>
<path d="M403.594 182.048H401.174V184.493H403.594V182.048Z" fill="#F0F0F0"/>
<path d="M403.594 186.152H401.174V188.598H403.594V186.152Z" fill="#F0F0F0"/>
<path d="M403.594 190.247H401.174V192.692H403.594V190.247Z" fill="#F0F0F0"/>
<path d="M403.594 227.189H401.174V229.635H403.594V227.189Z" fill="#F0F0F0"/>
<path d="M399.745 165.629H397.324V168.074H399.745V165.629Z" fill="#F0F0F0"/>
<path d="M399.745 169.732H397.324V172.178H399.745V169.732Z" fill="#F0F0F0"/>
<path d="M399.745 173.84H397.324V176.285H399.745V173.84Z" fill="#F0F0F0"/>
<path d="M399.745 177.942H397.324V180.388H399.745V177.942Z" fill="#F0F0F0"/>
<path d="M399.745 182.048H397.324V184.493H399.745V182.048Z" fill="#F0F0F0"/>
<path d="M399.745 186.152H397.324V188.598H399.745V186.152Z" fill="#F0F0F0"/>
<path d="M399.745 190.247H397.324V192.692H399.745V190.247Z" fill="#F0F0F0"/>
<path d="M399.745 194.353H397.324V196.798H399.745V194.353Z" fill="#F0F0F0"/>
<path d="M399.745 218.981H397.324V221.427H399.745V218.981Z" fill="#F0F0F0"/>
<path d="M399.745 223.084H397.324V225.529H399.745V223.084Z" fill="#F0F0F0"/>
<path d="M399.745 227.189H397.324V229.635H399.745V227.189Z" fill="#F0F0F0"/>
<path d="M399.745 231.284H397.324V233.729H399.745V231.284Z" fill="#F0F0F0"/>
<path d="M399.745 247.704H397.324V250.149H399.745V247.704Z" fill="#F0F0F0"/>
<path d="M395.895 165.629H393.475V168.074H395.895V165.629Z" fill="#F0F0F0"/>
<path d="M395.895 169.732H393.475V172.178H395.895V169.732Z" fill="#F0F0F0"/>
<path d="M395.895 173.84H393.475V176.285H395.895V173.84Z" fill="#F0F0F0"/>
<path d="M395.895 177.942H393.475V180.388H395.895V177.942Z" fill="#F0F0F0"/>
<path d="M395.895 182.048H393.475V184.493H395.895V182.048Z" fill="#F0F0F0"/>
<path d="M395.895 186.152H393.475V188.598H395.895V186.152Z" fill="#F0F0F0"/>
<path d="M395.895 190.247H393.475V192.692H395.895V190.247Z" fill="#F0F0F0"/>
<path d="M395.895 194.353H393.475V196.798H395.895V194.353Z" fill="#F0F0F0"/>
<path d="M395.895 198.456H393.475V200.901H395.895V198.456Z" fill="#F0F0F0"/>
<path d="M395.895 202.562H393.475V205.007H395.895V202.562Z" fill="#F0F0F0"/>
<path d="M395.895 214.877H393.475V217.322H395.895V214.877Z" fill="#F0F0F0"/>
<path d="M395.895 218.981H393.475V221.427H395.895V218.981Z" fill="#F0F0F0"/>
<path d="M395.895 223.084H393.475V225.529H395.895V223.084Z" fill="#F0F0F0"/>
<path d="M395.895 227.189H393.475V229.635H395.895V227.189Z" fill="#F0F0F0"/>
<path d="M395.895 231.284H393.475V233.729H395.895V231.284Z" fill="#F0F0F0"/>
<path d="M395.895 247.704H393.475V250.149H395.895V247.704Z" fill="#F0F0F0"/>
<path d="M392.046 165.629H389.626V168.074H392.046V165.629Z" fill="#F0F0F0"/>
<path d="M392.046 169.732H389.626V172.178H392.046V169.732Z" fill="#F0F0F0"/>
<path d="M392.046 173.84H389.626V176.285H392.046V173.84Z" fill="#F0F0F0"/>
<path d="M392.046 177.942H389.626V180.388H392.046V177.942Z" fill="#F0F0F0"/>
<path d="M392.046 182.048H389.626V184.493H392.046V182.048Z" fill="#F0F0F0"/>
<path d="M392.046 186.152H389.626V188.598H392.046V186.152Z" fill="#F0F0F0"/>
<path d="M392.046 190.247H389.626V192.692H392.046V190.247Z" fill="#F0F0F0"/>
<path d="M392.046 194.353H389.626V196.798H392.046V194.353Z" fill="#F0F0F0"/>
<path d="M392.046 198.456H389.626V200.901H392.046V198.456Z" fill="#F0F0F0"/>
<path d="M392.046 202.562H389.626V205.007H392.046V202.562Z" fill="#F0F0F0"/>
<path d="M392.046 206.667H389.626V209.112H392.046V206.667Z" fill="#F0F0F0"/>
<path d="M392.046 210.771H389.626V213.217H392.046V210.771Z" fill="#F0F0F0"/>
<path d="M392.046 214.877H389.626V217.322H392.046V214.877Z" fill="#F0F0F0"/>
<path d="M392.046 218.981H389.626V221.427H392.046V218.981Z" fill="#F0F0F0"/>
<path d="M392.046 223.084H389.626V225.529H392.046V223.084Z" fill="#F0F0F0"/>
<path d="M392.046 227.189H389.626V229.635H392.046V227.189Z" fill="#F0F0F0"/>
<path d="M392.046 231.284H389.626V233.729H392.046V231.284Z" fill="#F0F0F0"/>
<path d="M392.046 235.39H389.626V237.835H392.046V235.39Z" fill="#F0F0F0"/>
<path d="M388.197 165.629H385.777V168.074H388.197V165.629Z" fill="#F0F0F0"/>
<path d="M388.197 169.732H385.777V172.178H388.197V169.732Z" fill="#F0F0F0"/>
<path d="M388.197 173.84H385.777V176.285H388.197V173.84Z" fill="#F0F0F0"/>
<path d="M388.197 177.942H385.777V180.388H388.197V177.942Z" fill="#F0F0F0"/>
<path d="M388.197 182.048H385.777V184.493H388.197V182.048Z" fill="#F0F0F0"/>
<path d="M388.197 186.152H385.777V188.598H388.197V186.152Z" fill="#F0F0F0"/>
<path d="M388.197 190.247H385.777V192.692H388.197V190.247Z" fill="#F0F0F0"/>
<path d="M388.197 194.353H385.777V196.798H388.197V194.353Z" fill="#F0F0F0"/>
<path d="M388.197 198.456H385.777V200.901H388.197V198.456Z" fill="#F0F0F0"/>
<path d="M388.197 202.562H385.777V205.007H388.197V202.562Z" fill="#F0F0F0"/>
<path d="M388.197 214.877H385.777V217.322H388.197V214.877Z" fill="#F0F0F0"/>
<path d="M388.197 218.981H385.777V221.427H388.197V218.981Z" fill="#F0F0F0"/>
<path d="M388.197 223.084H385.777V225.529H388.197V223.084Z" fill="#F0F0F0"/>
<path d="M388.197 227.189H385.777V229.635H388.197V227.189Z" fill="#F0F0F0"/>
<path d="M384.358 165.629H381.938V168.074H384.358V165.629Z" fill="#F0F0F0"/>
<path d="M384.358 169.732H381.938V172.178H384.358V169.732Z" fill="#F0F0F0"/>
<path d="M384.358 173.84H381.938V176.285H384.358V173.84Z" fill="#F0F0F0"/>
<path d="M384.358 177.942H381.938V180.388H384.358V177.942Z" fill="#F0F0F0"/>
<path d="M384.358 182.048H381.938V184.493H384.358V182.048Z" fill="#F0F0F0"/>
<path d="M384.358 186.152H381.938V188.598H384.358V186.152Z" fill="#F0F0F0"/>
<path d="M384.358 190.247H381.938V192.692H384.358V190.247Z" fill="#F0F0F0"/>
<path d="M384.358 194.353H381.938V196.798H384.358V194.353Z" fill="#F0F0F0"/>
<path d="M384.358 198.456H381.938V200.901H384.358V198.456Z" fill="#F0F0F0"/>
<path d="M384.358 202.562H381.938V205.007H384.358V202.562Z" fill="#F0F0F0"/>
<path d="M384.358 214.877H381.938V217.322H384.358V214.877Z" fill="#F0F0F0"/>
<path d="M384.358 218.981H381.938V221.427H384.358V218.981Z" fill="#F0F0F0"/>
<path d="M384.358 223.084H381.938V225.529H384.358V223.084Z" fill="#F0F0F0"/>
<path d="M341.026 154.975H338.606V157.42H341.026V154.975Z" fill="#F0F0F0"/>
<path d="M341.026 159.08H338.606V161.525H341.026V159.08Z" fill="#F0F0F0"/>
<path d="M341.026 163.183H338.606V165.628H341.026V163.183Z" fill="#F0F0F0"/>
<path d="M341.026 167.288H338.606V169.733H341.026V167.288Z" fill="#F0F0F0"/>
<path d="M341.026 171.394H338.606V173.839H341.026V171.394Z" fill="#F0F0F0"/>
<path d="M341.026 175.499H338.606V177.944H341.026V175.499Z" fill="#F0F0F0"/>
<path d="M341.026 179.592H338.606V182.037H341.026V179.592Z" fill="#F0F0F0"/>
<path d="M341.026 183.698H338.606V186.143H341.026V183.698Z" fill="#F0F0F0"/>
<path d="M341.026 196.012H338.606V198.457H341.026V196.012Z" fill="#F0F0F0"/>
<path d="M341.026 200.115H338.606V202.56H341.026V200.115Z" fill="#F0F0F0"/>
<path d="M337.177 154.975H334.757V157.42H337.177V154.975Z" fill="#F0F0F0"/>
<path d="M337.177 159.08H334.757V161.525H337.177V159.08Z" fill="#F0F0F0"/>
<path d="M337.177 163.183H334.757V165.628H337.177V163.183Z" fill="#F0F0F0"/>
<path d="M337.177 167.288H334.757V169.733H337.177V167.288Z" fill="#F0F0F0"/>
<path d="M337.177 171.394H334.757V173.839H337.177V171.394Z" fill="#F0F0F0"/>
<path d="M337.177 175.499H334.757V177.944H337.177V175.499Z" fill="#F0F0F0"/>
<path d="M337.177 179.592H334.757V182.037H337.177V179.592Z" fill="#F0F0F0"/>
<path d="M337.177 183.698H334.757V186.143H337.177V183.698Z" fill="#F0F0F0"/>
<path d="M337.177 200.115H334.757V202.56H337.177V200.115Z" fill="#F0F0F0"/>
<path d="M333.328 154.975H330.908V157.42H333.328V154.975Z" fill="#F0F0F0"/>
<path d="M333.328 159.08H330.908V161.525H333.328V159.08Z" fill="#F0F0F0"/>
<path d="M333.328 163.183H330.908V165.628H333.328V163.183Z" fill="#F0F0F0"/>
<path d="M333.328 167.288H330.908V169.733H333.328V167.288Z" fill="#F0F0F0"/>
<path d="M333.328 171.394H330.908V173.839H333.328V171.394Z" fill="#F0F0F0"/>
<path d="M333.328 175.499H330.908V177.944H333.328V175.499Z" fill="#F0F0F0"/>
<path d="M333.328 179.592H330.908V182.037H333.328V179.592Z" fill="#F0F0F0"/>
<path d="M333.328 183.698H330.908V186.143H333.328V183.698Z" fill="#F0F0F0"/>
<path d="M329.479 154.975H327.058V157.42H329.479V154.975Z" fill="#F0F0F0"/>
<path d="M329.479 159.08H327.058V161.525H329.479V159.08Z" fill="#F0F0F0"/>
<path d="M329.479 163.183H327.058V165.628H329.479V163.183Z" fill="#F0F0F0"/>
<path d="M329.479 167.288H327.058V169.733H329.479V167.288Z" fill="#F0F0F0"/>
<path d="M329.479 171.394H327.058V173.839H329.479V171.394Z" fill="#F0F0F0"/>
<path d="M329.479 175.499H327.058V177.944H329.479V175.499Z" fill="#F0F0F0"/>
<path d="M329.479 183.698H327.058V186.143H329.479V183.698Z" fill="#F0F0F0"/>
<path d="M329.479 187.803H327.058V190.248H329.479V187.803Z" fill="#F0F0F0"/>
<path d="M329.479 200.115H327.058V202.56H329.479V200.115Z" fill="#F0F0F0"/>
<path d="M329.479 204.222H327.058V206.667H329.479V204.222Z" fill="#F0F0F0"/>
<path d="M329.479 208.327H327.058V210.772H329.479V208.327Z" fill="#F0F0F0"/>
<path d="M329.479 212.431H327.058V214.876H329.479V212.431Z" fill="#F0F0F0"/>
<path d="M329.479 216.534H327.058V218.979H329.479V216.534Z" fill="#F0F0F0"/>
<path d="M329.479 220.631H327.058V223.076H329.479V220.631Z" fill="#F0F0F0"/>
<path d="M329.479 224.735H327.058V227.181H329.479V224.735Z" fill="#F0F0F0"/>
<path d="M325.63 154.975H323.209V157.42H325.63V154.975Z" fill="#F0F0F0"/>
<path d="M325.63 159.08H323.209V161.525H325.63V159.08Z" fill="#F0F0F0"/>
<path d="M325.63 163.183H323.209V165.628H325.63V163.183Z" fill="#F0F0F0"/>
<path d="M325.63 167.288H323.209V169.733H325.63V167.288Z" fill="#F0F0F0"/>
<path d="M325.63 171.394H323.209V173.839H325.63V171.394Z" fill="#F0F0F0"/>
<path d="M325.63 175.499H323.209V177.944H325.63V175.499Z" fill="#F0F0F0"/>
<path d="M325.63 187.803H323.209V190.248H325.63V187.803Z" fill="#F0F0F0"/>
<path d="M325.63 191.907H323.209V194.352H325.63V191.907Z" fill="#F0F0F0"/>
<path d="M325.63 196.012H323.209V198.457H325.63V196.012Z" fill="#F0F0F0"/>
<path d="M325.63 200.115H323.209V202.56H325.63V200.115Z" fill="#F0F0F0"/>
<path d="M325.63 204.222H323.209V206.667H325.63V204.222Z" fill="#F0F0F0"/>
<path d="M325.63 208.327H323.209V210.772H325.63V208.327Z" fill="#F0F0F0"/>
<path d="M325.63 212.431H323.209V214.876H325.63V212.431Z" fill="#F0F0F0"/>
<path d="M325.63 216.534H323.209V218.979H325.63V216.534Z" fill="#F0F0F0"/>
<path d="M325.63 220.631H323.209V223.076H325.63V220.631Z" fill="#F0F0F0"/>
<path d="M325.63 224.735H323.209V227.181H325.63V224.735Z" fill="#F0F0F0"/>
<path d="M325.63 228.84H323.209V231.285H325.63V228.84Z" fill="#F0F0F0"/>
<path d="M325.63 237.049H323.209V239.494H325.63V237.049Z" fill="#F0F0F0"/>
<path d="M321.781 154.975H319.36V157.42H321.781V154.975Z" fill="#F0F0F0"/>
<path d="M321.781 159.08H319.36V161.525H321.781V159.08Z" fill="#F0F0F0"/>
<path d="M321.781 163.183H319.36V165.628H321.781V163.183Z" fill="#F0F0F0"/>
<path d="M321.781 167.288H319.36V169.733H321.781V167.288Z" fill="#F0F0F0"/>
<path d="M321.781 171.394H319.36V173.839H321.781V171.394Z" fill="#F0F0F0"/>
<path d="M321.781 175.499H319.36V177.944H321.781V175.499Z" fill="#F0F0F0"/>
<path d="M321.781 187.803H319.36V190.248H321.781V187.803Z" fill="#F0F0F0"/>
<path d="M321.781 191.907H319.36V194.352H321.781V191.907Z" fill="#F0F0F0"/>
<path d="M321.781 196.012H319.36V198.457H321.781V196.012Z" fill="#F0F0F0"/>
<path d="M321.781 200.115H319.36V202.56H321.781V200.115Z" fill="#F0F0F0"/>
<path d="M321.781 212.431H319.36V214.876H321.781V212.431Z" fill="#F0F0F0"/>
<path d="M321.781 216.534H319.36V218.979H321.781V216.534Z" fill="#F0F0F0"/>
<path d="M321.781 220.631H319.36V223.076H321.781V220.631Z" fill="#F0F0F0"/>
<path d="M321.781 224.735H319.36V227.181H321.781V224.735Z" fill="#F0F0F0"/>
<path d="M321.781 228.84H319.36V231.285H321.781V228.84Z" fill="#F0F0F0"/>
<path d="M321.781 237.049H319.36V239.494H321.781V237.049Z" fill="#F0F0F0"/>
<path d="M321.781 241.155H319.36V243.6H321.781V241.155Z" fill="#F0F0F0"/>
<path d="M286.867 193.134H284.446V195.579H286.867V193.134Z" fill="#F0F0F0"/>
<path d="M286.867 197.238H284.446V199.683H286.867V197.238Z" fill="#F0F0F0"/>
<path d="M286.867 201.345H284.446V203.79H286.867V201.345Z" fill="#F0F0F0"/>
<path d="M286.867 205.438H284.446V207.884H286.867V205.438Z" fill="#F0F0F0"/>
<path d="M286.867 209.544H284.446V211.989H286.867V209.544Z" fill="#F0F0F0"/>
<path d="M286.867 213.648H284.446V216.094H286.867V213.648Z" fill="#F0F0F0"/>
<path d="M286.867 217.754H284.446V220.199H286.867V217.754Z" fill="#F0F0F0"/>
<path d="M286.867 230.065H284.446V232.511H286.867V230.065Z" fill="#F0F0F0"/>
<path d="M286.867 234.173H284.446V236.618H286.867V234.173Z" fill="#F0F0F0"/>
<path d="M286.867 238.277H284.446V240.723H286.867V238.277Z" fill="#F0F0F0"/>
<path d="M283.017 193.134H280.597V195.579H283.017V193.134Z" fill="#F0F0F0"/>
<path d="M283.017 197.238H280.597V199.683H283.017V197.238Z" fill="#F0F0F0"/>
<path d="M283.017 201.345H280.597V203.79H283.017V201.345Z" fill="#F0F0F0"/>
<path d="M283.017 205.438H280.597V207.884H283.017V205.438Z" fill="#F0F0F0"/>
<path d="M283.017 209.544H280.597V211.989H283.017V209.544Z" fill="#F0F0F0"/>
<path d="M283.017 213.648H280.597V216.094H283.017V213.648Z" fill="#F0F0F0"/>
<path d="M283.017 217.754H280.597V220.199H283.017V217.754Z" fill="#F0F0F0"/>
<path d="M279.168 193.134H276.748V195.579H279.168V193.134Z" fill="#F0F0F0"/>
<path d="M279.168 197.238H276.748V199.683H279.168V197.238Z" fill="#F0F0F0"/>
<path d="M279.168 201.345H276.748V203.79H279.168V201.345Z" fill="#F0F0F0"/>
<path d="M279.168 205.438H276.748V207.884H279.168V205.438Z" fill="#F0F0F0"/>
<path d="M279.168 209.544H276.748V211.989H279.168V209.544Z" fill="#F0F0F0"/>
<path d="M279.168 213.648H276.748V216.094H279.168V213.648Z" fill="#F0F0F0"/>
<path d="M279.168 217.754H276.748V220.199H279.168V217.754Z" fill="#F0F0F0"/>
<path d="M275.319 193.134H272.899V195.579H275.319V193.134Z" fill="#F0F0F0"/>
<path d="M275.319 197.238H272.899V199.683H275.319V197.238Z" fill="#F0F0F0"/>
<path d="M275.319 201.345H272.899V203.79H275.319V201.345Z" fill="#F0F0F0"/>
<path d="M275.319 205.438H272.899V207.884H275.319V205.438Z" fill="#F0F0F0"/>
<path d="M275.319 209.544H272.899V211.989H275.319V209.544Z" fill="#F0F0F0"/>
<path d="M275.319 213.648H272.899V216.094H275.319V213.648Z" fill="#F0F0F0"/>
<path d="M275.319 217.754H272.899V220.199H275.319V217.754Z" fill="#F0F0F0"/>
<path d="M275.319 221.857H272.899V224.303H275.319V221.857Z" fill="#F0F0F0"/>
<path d="M275.319 225.964H272.899V228.409H275.319V225.964Z" fill="#F0F0F0"/>
<path d="M275.319 230.065H272.899V232.511H275.319V230.065Z" fill="#F0F0F0"/>
<path d="M275.319 234.173H272.899V236.618H275.319V234.173Z" fill="#F0F0F0"/>
<path d="M271.47 193.134H269.05V195.579H271.47V193.134Z" fill="#F0F0F0"/>
<path d="M271.47 197.238H269.05V199.683H271.47V197.238Z" fill="#F0F0F0"/>
<path d="M271.47 201.345H269.05V203.79H271.47V201.345Z" fill="#F0F0F0"/>
<path d="M271.47 205.438H269.05V207.884H271.47V205.438Z" fill="#F0F0F0"/>
<path d="M271.47 209.544H269.05V211.989H271.47V209.544Z" fill="#F0F0F0"/>
<path d="M271.47 213.648H269.05V216.094H271.47V213.648Z" fill="#F0F0F0"/>
<path d="M271.47 217.754H269.05V220.199H271.47V217.754Z" fill="#F0F0F0"/>
<path d="M271.47 221.857H269.05V224.303H271.47V221.857Z" fill="#F0F0F0"/>
<path d="M271.47 225.964H269.05V228.409H271.47V225.964Z" fill="#F0F0F0"/>
<path d="M271.47 230.065H269.05V232.511H271.47V230.065Z" fill="#F0F0F0"/>
<path d="M271.47 234.173H269.05V236.618H271.47V234.173Z" fill="#F0F0F0"/>
<path d="M271.47 238.277H269.05V240.723H271.47V238.277Z" fill="#F0F0F0"/>
<path d="M271.47 250.581H269.05V253.026H271.47V250.581Z" fill="#F0F0F0"/>
<path d="M271.47 254.687H269.05V257.132H271.47V254.687Z" fill="#F0F0F0"/>
<path d="M267.62 193.134H265.2V195.579H267.62V193.134Z" fill="#F0F0F0"/>
<path d="M267.62 197.238H265.2V199.683H267.62V197.238Z" fill="#F0F0F0"/>
<path d="M267.62 201.345H265.2V203.79H267.62V201.345Z" fill="#F0F0F0"/>
<path d="M267.62 213.648H265.2V216.094H267.62V213.648Z" fill="#F0F0F0"/>
<path d="M267.62 217.754H265.2V220.199H267.62V217.754Z" fill="#F0F0F0"/>
<path d="M267.62 221.857H265.2V224.303H267.62V221.857Z" fill="#F0F0F0"/>
<path d="M267.62 225.964H265.2V228.409H267.62V225.964Z" fill="#F0F0F0"/>
<path d="M267.62 230.065H265.2V232.511H267.62V230.065Z" fill="#F0F0F0"/>
<path d="M267.62 234.173H265.2V236.618H267.62V234.173Z" fill="#F0F0F0"/>
<path d="M267.62 238.277H265.2V240.723H267.62V238.277Z" fill="#F0F0F0"/>
<path d="M267.62 250.581H265.2V253.026H267.62V250.581Z" fill="#F0F0F0"/>
<path d="M267.62 254.687H265.2V257.132H267.62V254.687Z" fill="#F0F0F0"/>
<path d="M267.62 258.791H265.2V261.236H267.62V258.791Z" fill="#F0F0F0"/>
<path d="M227.292 168.505H224.872V170.95H227.292V168.505Z" fill="#F0F0F0"/>
<path d="M227.292 172.609H224.872V175.055H227.292V172.609Z" fill="#F0F0F0"/>
<path d="M227.292 176.715H224.872V179.16H227.292V176.715Z" fill="#F0F0F0"/>
<path d="M227.292 180.822H224.872V183.267H227.292V180.822Z" fill="#F0F0F0"/>
<path d="M227.292 184.924H224.872V187.369H227.292V184.924Z" fill="#F0F0F0"/>
<path d="M227.292 189.029H224.872V191.474H227.292V189.029Z" fill="#F0F0F0"/>
<path d="M227.292 193.134H224.872V195.579H227.292V193.134Z" fill="#F0F0F0"/>
<path d="M227.292 197.238H224.872V199.683H227.292V197.238Z" fill="#F0F0F0"/>
<path d="M227.292 201.345H224.872V203.79H227.292V201.345Z" fill="#F0F0F0"/>
<path d="M227.292 205.438H224.872V207.884H227.292V205.438Z" fill="#F0F0F0"/>
<path d="M227.292 209.544H224.872V211.989H227.292V209.544Z" fill="#F0F0F0"/>
<path d="M227.292 213.648H224.872V216.094H227.292V213.648Z" fill="#F0F0F0"/>
<path d="M227.292 217.754H224.872V220.199H227.292V217.754Z" fill="#F0F0F0"/>
<path d="M227.292 221.857H224.872V224.303H227.292V221.857Z" fill="#F0F0F0"/>
<path d="M227.292 225.964H224.872V228.409H227.292V225.964Z" fill="#F0F0F0"/>
<path d="M227.292 230.065H224.872V232.511H227.292V230.065Z" fill="#F0F0F0"/>
<path d="M227.292 234.173H224.872V236.618H227.292V234.173Z" fill="#F0F0F0"/>
<path d="M227.292 238.277H224.872V240.723H227.292V238.277Z" fill="#F0F0F0"/>
<path d="M227.292 242.382H224.872V244.827H227.292V242.382Z" fill="#F0F0F0"/>
<path d="M227.292 246.477H224.872V248.922H227.292V246.477Z" fill="#F0F0F0"/>
<path d="M227.292 250.581H224.872V253.026H227.292V250.581Z" fill="#F0F0F0"/>
<path d="M227.292 254.687H224.872V257.132H227.292V254.687Z" fill="#F0F0F0"/>
<path d="M227.292 258.791H224.872V261.236H227.292V258.791Z" fill="#F0F0F0"/>
<path d="M223.443 168.505H221.023V170.95H223.443V168.505Z" fill="#F0F0F0"/>
<path d="M223.443 172.609H221.023V175.055H223.443V172.609Z" fill="#F0F0F0"/>
<path d="M223.443 176.715H221.023V179.16H223.443V176.715Z" fill="#F0F0F0"/>
<path d="M223.443 180.822H221.023V183.267H223.443V180.822Z" fill="#F0F0F0"/>
<path d="M223.443 184.924H221.023V187.369H223.443V184.924Z" fill="#F0F0F0"/>
<path d="M223.443 189.029H221.023V191.474H223.443V189.029Z" fill="#F0F0F0"/>
<path d="M223.443 193.134H221.023V195.579H223.443V193.134Z" fill="#F0F0F0"/>
<path d="M223.443 197.238H221.023V199.683H223.443V197.238Z" fill="#F0F0F0"/>
<path d="M223.443 201.345H221.023V203.79H223.443V201.345Z" fill="#F0F0F0"/>
<path d="M223.443 205.438H221.023V207.884H223.443V205.438Z" fill="#F0F0F0"/>
<path d="M223.443 209.544H221.023V211.989H223.443V209.544Z" fill="#F0F0F0"/>
<path d="M223.443 213.648H221.023V216.094H223.443V213.648Z" fill="#F0F0F0"/>
<path d="M223.443 217.754H221.023V220.199H223.443V217.754Z" fill="#F0F0F0"/>
<path d="M223.443 221.857H221.023V224.303H223.443V221.857Z" fill="#F0F0F0"/>
<path d="M223.443 225.964H221.023V228.409H223.443V225.964Z" fill="#F0F0F0"/>
<path d="M223.443 230.065H221.023V232.511H223.443V230.065Z" fill="#F0F0F0"/>
<path d="M223.443 234.173H221.023V236.618H223.443V234.173Z" fill="#F0F0F0"/>
<path d="M223.443 238.277H221.023V240.723H223.443V238.277Z" fill="#F0F0F0"/>
<path d="M223.443 242.382H221.023V244.827H223.443V242.382Z" fill="#F0F0F0"/>
<path d="M219.594 168.505H217.174V170.95H219.594V168.505Z" fill="#F0F0F0"/>
<path d="M219.594 172.609H217.174V175.055H219.594V172.609Z" fill="#F0F0F0"/>
<path d="M219.594 176.715H217.174V179.16H219.594V176.715Z" fill="#F0F0F0"/>
<path d="M219.594 180.822H217.174V183.267H219.594V180.822Z" fill="#F0F0F0"/>
<path d="M219.594 184.924H217.174V187.369H219.594V184.924Z" fill="#F0F0F0"/>
<path d="M219.594 189.029H217.174V191.474H219.594V189.029Z" fill="#F0F0F0"/>
<path d="M219.594 193.134H217.174V195.579H219.594V193.134Z" fill="#F0F0F0"/>
<path d="M219.594 197.238H217.174V199.683H219.594V197.238Z" fill="#F0F0F0"/>
<path d="M219.594 201.345H217.174V203.79H219.594V201.345Z" fill="#F0F0F0"/>
<path d="M219.594 205.438H217.174V207.884H219.594V205.438Z" fill="#F0F0F0"/>
<path d="M219.594 209.544H217.174V211.989H219.594V209.544Z" fill="#F0F0F0"/>
<path d="M219.594 213.648H217.174V216.094H219.594V213.648Z" fill="#F0F0F0"/>
<path d="M219.594 217.754H217.174V220.199H219.594V217.754Z" fill="#F0F0F0"/>
<path d="M219.594 221.857H217.174V224.303H219.594V221.857Z" fill="#F0F0F0"/>
<path d="M219.594 225.964H217.174V228.409H219.594V225.964Z" fill="#F0F0F0"/>
<path d="M219.594 230.065H217.174V232.511H219.594V230.065Z" fill="#F0F0F0"/>
<path d="M219.594 234.173H217.174V236.618H219.594V234.173Z" fill="#F0F0F0"/>
<path d="M219.594 238.277H217.174V240.723H219.594V238.277Z" fill="#F0F0F0"/>
<path d="M219.594 242.382H217.174V244.827H219.594V242.382Z" fill="#F0F0F0"/>
<path d="M215.745 168.505H213.325V170.95H215.745V168.505Z" fill="#F0F0F0"/>
<path d="M215.745 172.609H213.325V175.055H215.745V172.609Z" fill="#F0F0F0"/>
<path d="M215.745 176.715H213.325V179.16H215.745V176.715Z" fill="#F0F0F0"/>
<path d="M215.745 180.822H213.325V183.267H215.745V180.822Z" fill="#F0F0F0"/>
<path d="M215.745 184.924H213.325V187.369H215.745V184.924Z" fill="#F0F0F0"/>
<path d="M215.745 189.029H213.325V191.474H215.745V189.029Z" fill="#F0F0F0"/>
<path d="M215.745 193.134H213.325V195.579H215.745V193.134Z" fill="#F0F0F0"/>
<path d="M215.745 197.238H213.325V199.683H215.745V197.238Z" fill="#F0F0F0"/>
<path d="M215.745 201.345H213.325V203.79H215.745V201.345Z" fill="#F0F0F0"/>
<path d="M215.745 205.438H213.325V207.884H215.745V205.438Z" fill="#F0F0F0"/>
<path d="M215.745 209.544H213.325V211.989H215.745V209.544Z" fill="#F0F0F0"/>
<path d="M215.745 213.648H213.325V216.094H215.745V213.648Z" fill="#F0F0F0"/>
<path d="M215.745 217.754H213.325V220.199H215.745V217.754Z" fill="#F0F0F0"/>
<path d="M215.745 221.857H213.325V224.303H215.745V221.857Z" fill="#F0F0F0"/>
<path d="M215.745 225.964H213.325V228.409H215.745V225.964Z" fill="#F0F0F0"/>
<path d="M211.896 168.505H209.476V170.95H211.896V168.505Z" fill="#F0F0F0"/>
<path d="M211.896 172.609H209.476V175.055H211.896V172.609Z" fill="#F0F0F0"/>
<path d="M211.896 176.715H209.476V179.16H211.896V176.715Z" fill="#F0F0F0"/>
<path d="M211.896 180.822H209.476V183.267H211.896V180.822Z" fill="#F0F0F0"/>
<path d="M211.896 184.924H209.476V187.369H211.896V184.924Z" fill="#F0F0F0"/>
<path d="M211.896 189.029H209.476V191.474H211.896V189.029Z" fill="#F0F0F0"/>
<path d="M211.896 193.134H209.476V195.579H211.896V193.134Z" fill="#F0F0F0"/>
<path d="M211.896 197.238H209.476V199.683H211.896V197.238Z" fill="#F0F0F0"/>
<path d="M211.896 201.345H209.476V203.79H211.896V201.345Z" fill="#F0F0F0"/>
<path d="M211.896 205.438H209.476V207.884H211.896V205.438Z" fill="#F0F0F0"/>
<path d="M211.896 209.544H209.476V211.989H211.896V209.544Z" fill="#F0F0F0"/>
<path d="M211.896 213.648H209.476V216.094H211.896V213.648Z" fill="#F0F0F0"/>
<path d="M211.896 217.754H209.476V220.199H211.896V217.754Z" fill="#F0F0F0"/>
<path d="M208.046 168.505H205.626V170.95H208.046V168.505Z" fill="#F0F0F0"/>
<path d="M208.046 172.609H205.626V175.055H208.046V172.609Z" fill="#F0F0F0"/>
<path d="M208.046 176.715H205.626V179.16H208.046V176.715Z" fill="#F0F0F0"/>
<path d="M208.046 180.822H205.626V183.267H208.046V180.822Z" fill="#F0F0F0"/>
<path d="M208.046 184.924H205.626V187.369H208.046V184.924Z" fill="#F0F0F0"/>
<path d="M208.046 189.029H205.626V191.474H208.046V189.029Z" fill="#F0F0F0"/>
<path d="M208.046 193.134H205.626V195.579H208.046V193.134Z" fill="#F0F0F0"/>
<path d="M208.046 197.238H205.626V199.683H208.046V197.238Z" fill="#F0F0F0"/>
<path d="M208.046 201.345H205.626V203.79H208.046V201.345Z" fill="#F0F0F0"/>
<path d="M208.046 205.438H205.626V207.884H208.046V205.438Z" fill="#F0F0F0"/>
<path d="M208.046 209.544H205.626V211.989H208.046V209.544Z" fill="#F0F0F0"/>
<path d="M208.046 213.648H205.626V216.094H208.046V213.648Z" fill="#F0F0F0"/>
<path d="M432.666 167.288H430.246V169.733H432.666V167.288Z" fill="#F0F0F0"/>
<path d="M432.666 171.394H430.246V173.839H432.666V171.394Z" fill="#F0F0F0"/>
<path d="M432.666 175.499H430.246V177.944H432.666V175.499Z" fill="#F0F0F0"/>
<path d="M432.666 179.592H430.246V182.037H432.666V179.592Z" fill="#F0F0F0"/>
<path d="M432.666 183.698H430.246V186.143H432.666V183.698Z" fill="#F0F0F0"/>
<path d="M432.666 187.803H430.246V190.248H432.666V187.803Z" fill="#F0F0F0"/>
<path d="M432.666 191.907H430.246V194.352H432.666V191.907Z" fill="#F0F0F0"/>
<path d="M432.666 196.012H430.246V198.457H432.666V196.012Z" fill="#F0F0F0"/>
<path d="M432.666 200.115H430.246V202.56H432.666V200.115Z" fill="#F0F0F0"/>
<path d="M432.666 204.222H430.246V206.667H432.666V204.222Z" fill="#F0F0F0"/>
<path d="M432.666 208.327H430.246V210.772H432.666V208.327Z" fill="#F0F0F0"/>
<path d="M432.666 212.431H430.246V214.876H432.666V212.431Z" fill="#F0F0F0"/>
<path d="M432.666 216.534H430.246V218.979H432.666V216.534Z" fill="#F0F0F0"/>
<path d="M432.666 220.631H430.246V223.076H432.666V220.631Z" fill="#F0F0F0"/>
<path d="M432.666 224.735H430.246V227.181H432.666V224.735Z" fill="#F0F0F0"/>
<path d="M432.666 228.84H430.246V231.285H432.666V228.84Z" fill="#F0F0F0"/>
<path d="M432.666 232.945H430.246V235.39H432.666V232.945Z" fill="#F0F0F0"/>
<path d="M432.666 241.155H430.246V243.6H432.666V241.155Z" fill="#F0F0F0"/>
<path d="M432.666 245.259H430.246V247.704H432.666V245.259Z" fill="#F0F0F0"/>
<path d="M432.666 249.363H430.246V251.808H432.666V249.363Z" fill="#F0F0F0"/>
<path d="M432.666 253.469H430.246V255.914H432.666V253.469Z" fill="#F0F0F0"/>
<path d="M432.666 257.562H430.246V260.008H432.666V257.562Z" fill="#F0F0F0"/>
<path d="M428.817 167.288H426.397V169.733H428.817V167.288Z" fill="#F0F0F0"/>
<path d="M428.817 171.394H426.397V173.839H428.817V171.394Z" fill="#F0F0F0"/>
<path d="M428.817 175.499H426.397V177.944H428.817V175.499Z" fill="#F0F0F0"/>
<path d="M428.817 179.592H426.397V182.037H428.817V179.592Z" fill="#F0F0F0"/>
<path d="M428.817 183.698H426.397V186.143H428.817V183.698Z" fill="#F0F0F0"/>
<path d="M428.817 187.803H426.397V190.248H428.817V187.803Z" fill="#F0F0F0"/>
<path d="M428.817 191.907H426.397V194.352H428.817V191.907Z" fill="#F0F0F0"/>
<path d="M428.817 196.012H426.397V198.457H428.817V196.012Z" fill="#F0F0F0"/>
<path d="M428.817 200.115H426.397V202.56H428.817V200.115Z" fill="#F0F0F0"/>
<path d="M428.817 204.222H426.397V206.667H428.817V204.222Z" fill="#F0F0F0"/>
<path d="M428.817 208.327H426.397V210.772H428.817V208.327Z" fill="#F0F0F0"/>
<path d="M428.817 212.431H426.397V214.876H428.817V212.431Z" fill="#F0F0F0"/>
<path d="M428.817 216.534H426.397V218.979H428.817V216.534Z" fill="#F0F0F0"/>
<path d="M428.817 220.631H426.397V223.076H428.817V220.631Z" fill="#F0F0F0"/>
<path d="M428.817 224.735H426.397V227.181H428.817V224.735Z" fill="#F0F0F0"/>
<path d="M428.817 228.84H426.397V231.285H428.817V228.84Z" fill="#F0F0F0"/>
<path d="M428.817 253.469H426.397V255.914H428.817V253.469Z" fill="#F0F0F0"/>
<path d="M428.817 257.562H426.397V260.008H428.817V257.562Z" fill="#F0F0F0"/>
<path d="M424.978 167.288H422.558V169.733H424.978V167.288Z" fill="#F0F0F0"/>
<path d="M424.978 171.394H422.558V173.839H424.978V171.394Z" fill="#F0F0F0"/>
<path d="M424.978 175.499H422.558V177.944H424.978V175.499Z" fill="#F0F0F0"/>
<path d="M424.978 179.592H422.558V182.037H424.978V179.592Z" fill="#F0F0F0"/>
<path d="M424.978 183.698H422.558V186.143H424.978V183.698Z" fill="#F0F0F0"/>
<path d="M424.978 187.803H422.558V190.248H424.978V187.803Z" fill="#F0F0F0"/>
<path d="M424.978 191.907H422.558V194.352H424.978V191.907Z" fill="#F0F0F0"/>
<path d="M424.978 196.012H422.558V198.457H424.978V196.012Z" fill="#F0F0F0"/>
<path d="M424.978 200.115H422.558V202.56H424.978V200.115Z" fill="#F0F0F0"/>
<path d="M424.978 204.222H422.558V206.667H424.978V204.222Z" fill="#F0F0F0"/>
<path d="M424.978 208.327H422.558V210.772H424.978V208.327Z" fill="#F0F0F0"/>
<path d="M424.978 212.431H422.558V214.876H424.978V212.431Z" fill="#F0F0F0"/>
<path d="M424.978 216.534H422.558V218.979H424.978V216.534Z" fill="#F0F0F0"/>
<path d="M424.978 220.631H422.558V223.076H424.978V220.631Z" fill="#F0F0F0"/>
<path d="M424.978 224.735H422.558V227.181H424.978V224.735Z" fill="#F0F0F0"/>
<path d="M424.978 228.84H422.558V231.285H424.978V228.84Z" fill="#F0F0F0"/>
<path d="M424.978 237.049H422.558V239.494H424.978V237.049Z" fill="#F0F0F0"/>
<path d="M424.978 241.155H422.558V243.6H424.978V241.155Z" fill="#F0F0F0"/>
<path d="M424.978 245.259H422.558V247.704H424.978V245.259Z" fill="#F0F0F0"/>
<path d="M424.978 249.363H422.558V251.808H424.978V249.363Z" fill="#F0F0F0"/>
<path d="M424.978 257.562H422.558V260.008H424.978V257.562Z" fill="#F0F0F0"/>
<path d="M357.842 196.012H355.422V198.457H357.842V196.012Z" fill="#F0F0F0"/>
<path d="M357.842 200.115H355.422V202.56H357.842V200.115Z" fill="#F0F0F0"/>
<path d="M357.842 204.222H355.422V206.667H357.842V204.222Z" fill="#F0F0F0"/>
<path d="M357.842 208.327H355.422V210.772H357.842V208.327Z" fill="#F0F0F0"/>
<path d="M357.842 212.431H355.422V214.876H357.842V212.431Z" fill="#F0F0F0"/>
<path d="M357.842 216.534H355.422V218.979H357.842V216.534Z" fill="#F0F0F0"/>
<path d="M357.842 220.631H355.422V223.076H357.842V220.631Z" fill="#F0F0F0"/>
<path d="M357.842 224.735H355.422V227.181H357.842V224.735Z" fill="#F0F0F0"/>
<path d="M357.842 228.84H355.422V231.285H357.842V228.84Z" fill="#F0F0F0"/>
<path d="M357.842 232.945H355.422V235.39H357.842V232.945Z" fill="#F0F0F0"/>
<path d="M357.842 237.049H355.422V239.494H357.842V237.049Z" fill="#F0F0F0"/>
<path d="M357.842 241.155H355.422V243.6H357.842V241.155Z" fill="#F0F0F0"/>
<path d="M357.842 245.259H355.422V247.704H357.842V245.259Z" fill="#F0F0F0"/>
<path d="M357.842 253.469H355.422V255.914H357.842V253.469Z" fill="#F0F0F0"/>
<path d="M357.842 257.562H355.422V260.008H357.842V257.562Z" fill="#F0F0F0"/>
<path d="M357.842 261.67H355.422V264.115H357.842V261.67Z" fill="#F0F0F0"/>
<path d="M357.842 265.772H355.422V268.218H357.842V265.772Z" fill="#F0F0F0"/>
<path d="M357.842 273.983H355.422V276.429H357.842V273.983Z" fill="#F0F0F0"/>
<path d="M357.842 278.088H355.422V280.533H357.842V278.088Z" fill="#F0F0F0"/>
<path d="M357.842 282.191H355.422V284.637H357.842V282.191Z" fill="#F0F0F0"/>
<path d="M353.993 196.012H351.573V198.457H353.993V196.012Z" fill="#F0F0F0"/>
<path d="M353.993 200.115H351.573V202.56H353.993V200.115Z" fill="#F0F0F0"/>
<path d="M353.993 204.222H351.573V206.667H353.993V204.222Z" fill="#F0F0F0"/>
<path d="M353.993 208.327H351.573V210.772H353.993V208.327Z" fill="#F0F0F0"/>
<path d="M353.993 212.431H351.573V214.876H353.993V212.431Z" fill="#F0F0F0"/>
<path d="M353.993 216.534H351.573V218.979H353.993V216.534Z" fill="#F0F0F0"/>
<path d="M353.993 220.631H351.573V223.076H353.993V220.631Z" fill="#F0F0F0"/>
<path d="M353.993 224.735H351.573V227.181H353.993V224.735Z" fill="#F0F0F0"/>
<path d="M353.993 228.84H351.573V231.285H353.993V228.84Z" fill="#F0F0F0"/>
<path d="M353.993 232.945H351.573V235.39H353.993V232.945Z" fill="#F0F0F0"/>
<path d="M353.993 237.049H351.573V239.494H353.993V237.049Z" fill="#F0F0F0"/>
<path d="M353.993 241.155H351.573V243.6H353.993V241.155Z" fill="#F0F0F0"/>
<path d="M353.993 245.259H351.573V247.704H353.993V245.259Z" fill="#F0F0F0"/>
<path d="M353.993 257.562H351.573V260.008H353.993V257.562Z" fill="#F0F0F0"/>
<path d="M353.993 261.67H351.573V264.115H353.993V261.67Z" fill="#F0F0F0"/>
<path d="M353.993 269.879H351.573V272.324H353.993V269.879Z" fill="#F0F0F0"/>
<path d="M353.993 273.983H351.573V276.429H353.993V273.983Z" fill="#F0F0F0"/>
<path d="M353.993 278.088H351.573V280.533H353.993V278.088Z" fill="#F0F0F0"/>
<path d="M353.993 282.191H351.573V284.637H353.993V282.191Z" fill="#F0F0F0"/>
<path d="M350.143 196.012H347.723V198.457H350.143V196.012Z" fill="#F0F0F0"/>
<path d="M350.143 200.115H347.723V202.56H350.143V200.115Z" fill="#F0F0F0"/>
<path d="M350.143 204.222H347.723V206.667H350.143V204.222Z" fill="#F0F0F0"/>
<path d="M350.143 208.327H347.723V210.772H350.143V208.327Z" fill="#F0F0F0"/>
<path d="M350.143 212.431H347.723V214.876H350.143V212.431Z" fill="#F0F0F0"/>
<path d="M350.143 216.534H347.723V218.979H350.143V216.534Z" fill="#F0F0F0"/>
<path d="M350.143 220.631H347.723V223.076H350.143V220.631Z" fill="#F0F0F0"/>
<path d="M350.143 224.735H347.723V227.181H350.143V224.735Z" fill="#F0F0F0"/>
<path d="M350.143 228.84H347.723V231.285H350.143V228.84Z" fill="#F0F0F0"/>
<path d="M350.143 232.945H347.723V235.39H350.143V232.945Z" fill="#F0F0F0"/>
<path d="M350.143 237.049H347.723V239.494H350.143V237.049Z" fill="#F0F0F0"/>
<path d="M350.143 241.155H347.723V243.6H350.143V241.155Z" fill="#F0F0F0"/>
<path d="M350.143 245.259H347.723V247.704H350.143V245.259Z" fill="#F0F0F0"/>
<path d="M350.143 249.363H347.723V251.808H350.143V249.363Z" fill="#F0F0F0"/>
<path d="M350.143 257.562H347.723V260.008H350.143V257.562Z" fill="#F0F0F0"/>
<path d="M350.143 265.772H347.723V268.218H350.143V265.772Z" fill="#F0F0F0"/>
<path d="M350.143 269.879H347.723V272.324H350.143V269.879Z" fill="#F0F0F0"/>
<path d="M350.143 273.983H347.723V276.429H350.143V273.983Z" fill="#F0F0F0"/>
<path d="M350.143 278.088H347.723V280.533H350.143V278.088Z" fill="#F0F0F0"/>
<path d="M350.143 282.191H347.723V284.637H350.143V282.191Z" fill="#F0F0F0"/>
<path d="M373.52 219.412H371.1V221.857H373.52V219.412Z" fill="#F0F0F0"/>
<path d="M373.52 223.517H371.1V225.962H373.52V223.517Z" fill="#F0F0F0"/>
<path d="M373.52 227.622H371.1V230.067H373.52V227.622Z" fill="#F0F0F0"/>
<path d="M373.52 231.717H371.1V234.162H373.52V231.717Z" fill="#F0F0F0"/>
<path d="M373.52 235.823H371.1V238.268H373.52V235.823Z" fill="#F0F0F0"/>
<path d="M373.52 239.927H371.1V242.372H373.52V239.927Z" fill="#F0F0F0"/>
<path d="M373.52 252.24H371.1V254.685H373.52V252.24Z" fill="#F0F0F0"/>
<path d="M373.52 256.345H371.1V258.79H373.52V256.345Z" fill="#F0F0F0"/>
<path d="M373.52 260.45H371.1V262.895H373.52V260.45Z" fill="#F0F0F0"/>
<path d="M373.52 264.557H371.1V267.002H373.52V264.557Z" fill="#F0F0F0"/>
<path d="M373.52 268.66H371.1V271.105H373.52V268.66Z" fill="#F0F0F0"/>
<path d="M373.52 272.755H371.1V275.2H373.52V272.755Z" fill="#F0F0F0"/>
<path d="M373.52 276.859H371.1V279.305H373.52V276.859Z" fill="#F0F0F0"/>
<path d="M369.671 219.412H367.25V221.857H369.671V219.412Z" fill="#F0F0F0"/>
<path d="M369.671 223.517H367.25V225.962H369.671V223.517Z" fill="#F0F0F0"/>
<path d="M369.671 227.622H367.25V230.067H369.671V227.622Z" fill="#F0F0F0"/>
<path d="M369.671 231.717H367.25V234.162H369.671V231.717Z" fill="#F0F0F0"/>
<path d="M369.671 235.823H367.25V238.268H369.671V235.823Z" fill="#F0F0F0"/>
<path d="M369.671 239.927H367.25V242.372H369.671V239.927Z" fill="#F0F0F0"/>
<path d="M369.671 252.24H367.25V254.685H369.671V252.24Z" fill="#F0F0F0"/>
<path d="M369.671 256.345H367.25V258.79H369.671V256.345Z" fill="#F0F0F0"/>
<path d="M369.671 260.45H367.25V262.895H369.671V260.45Z" fill="#F0F0F0"/>
<path d="M369.671 264.557H367.25V267.002H369.671V264.557Z" fill="#F0F0F0"/>
<path d="M369.671 268.66H367.25V271.105H369.671V268.66Z" fill="#F0F0F0"/>
<path d="M369.671 272.755H367.25V275.2H369.671V272.755Z" fill="#F0F0F0"/>
<path d="M369.671 280.965H367.25V283.41H369.671V280.965Z" fill="#F0F0F0"/>
<path d="M241.824 201.345H239.404V203.79H241.824V201.345Z" fill="#F0F0F0"/>
<path d="M241.824 205.438H239.404V207.884H241.824V205.438Z" fill="#F0F0F0"/>
<path d="M241.824 209.544H239.404V211.989H241.824V209.544Z" fill="#F0F0F0"/>
<path d="M241.824 213.648H239.404V216.094H241.824V213.648Z" fill="#F0F0F0"/>
<path d="M241.824 217.754H239.404V220.199H241.824V217.754Z" fill="#F0F0F0"/>
<path d="M241.824 221.857H239.404V224.303H241.824V221.857Z" fill="#F0F0F0"/>
<path d="M241.824 225.964H239.404V228.409H241.824V225.964Z" fill="#F0F0F0"/>
<path d="M241.824 230.065H239.404V232.511H241.824V230.065Z" fill="#F0F0F0"/>
<path d="M241.824 234.173H239.404V236.618H241.824V234.173Z" fill="#F0F0F0"/>
<path d="M241.824 238.277H239.404V240.723H241.824V238.277Z" fill="#F0F0F0"/>
<path d="M241.824 242.382H239.404V244.827H241.824V242.382Z" fill="#F0F0F0"/>
<path d="M241.824 250.581H239.404V253.026H241.824V250.581Z" fill="#F0F0F0"/>
<path d="M241.824 254.687H239.404V257.132H241.824V254.687Z" fill="#F0F0F0"/>
<path d="M241.824 258.791H239.404V261.236H241.824V258.791Z" fill="#F0F0F0"/>
<path d="M241.824 262.896H239.404V265.341H241.824V262.896Z" fill="#F0F0F0"/>
<path d="M241.824 267.002H239.404V269.447H241.824V267.002Z" fill="#F0F0F0"/>
<path d="M241.824 271.105H239.404V273.551H241.824V271.105Z" fill="#F0F0F0"/>
<path d="M241.824 275.209H239.404V277.654H241.824V275.209Z" fill="#F0F0F0"/>
<path d="M241.824 279.314H239.404V281.76H241.824V279.314Z" fill="#F0F0F0"/>
<path d="M237.984 201.345H235.564V203.79H237.984V201.345Z" fill="#F0F0F0"/>
<path d="M237.984 205.438H235.564V207.884H237.984V205.438Z" fill="#F0F0F0"/>
<path d="M237.984 209.544H235.564V211.989H237.984V209.544Z" fill="#F0F0F0"/>
<path d="M237.984 213.648H235.564V216.094H237.984V213.648Z" fill="#F0F0F0"/>
<path d="M237.984 217.754H235.564V220.199H237.984V217.754Z" fill="#F0F0F0"/>
<path d="M237.984 221.857H235.564V224.303H237.984V221.857Z" fill="#F0F0F0"/>
<path d="M237.984 225.964H235.564V228.409H237.984V225.964Z" fill="#F0F0F0"/>
<path d="M237.984 230.065H235.564V232.511H237.984V230.065Z" fill="#F0F0F0"/>
<path d="M237.984 234.173H235.564V236.618H237.984V234.173Z" fill="#F0F0F0"/>
<path d="M237.984 238.277H235.564V240.723H237.984V238.277Z" fill="#F0F0F0"/>
<path d="M237.984 242.382H235.564V244.827H237.984V242.382Z" fill="#F0F0F0"/>
<path d="M237.984 246.477H235.564V248.922H237.984V246.477Z" fill="#F0F0F0"/>
<path d="M237.984 250.581H235.564V253.026H237.984V250.581Z" fill="#F0F0F0"/>
<path d="M237.984 254.687H235.564V257.132H237.984V254.687Z" fill="#F0F0F0"/>
<path d="M237.984 258.791H235.564V261.236H237.984V258.791Z" fill="#F0F0F0"/>
<path d="M237.984 262.896H235.564V265.341H237.984V262.896Z" fill="#F0F0F0"/>
<path d="M237.984 267.002H235.564V269.447H237.984V267.002Z" fill="#F0F0F0"/>
<path d="M237.984 271.105H235.564V273.551H237.984V271.105Z" fill="#F0F0F0"/>
<path d="M237.984 275.209H235.564V277.654H237.984V275.209Z" fill="#F0F0F0"/>
<path d="M237.984 279.314H235.564V281.76H237.984V279.314Z" fill="#F0F0F0"/>
<path d="M260.787 217.32H258.367V219.765H260.787V217.32Z" fill="#F0F0F0"/>
<path d="M260.787 221.426H258.367V223.871H260.787V221.426Z" fill="#F0F0F0"/>
<path d="M260.787 225.53H258.367V227.975H260.787V225.53Z" fill="#F0F0F0"/>
<path d="M260.787 229.636H258.367V232.081H260.787V229.636Z" fill="#F0F0F0"/>
<path d="M260.787 233.74H258.367V236.185H260.787V233.74Z" fill="#F0F0F0"/>
<path d="M260.787 237.844H258.367V240.289H260.787V237.844Z" fill="#F0F0F0"/>
<path d="M260.787 241.95H258.367V244.395H260.787V241.95Z" fill="#F0F0F0"/>
<path d="M260.787 246.044H258.367V248.489H260.787V246.044Z" fill="#F0F0F0"/>
<path d="M260.787 250.15H258.367V252.596H260.787V250.15Z" fill="#F0F0F0"/>
<path d="M260.787 254.253H258.367V256.698H260.787V254.253Z" fill="#F0F0F0"/>
<path d="M256.938 217.32H254.518V219.765H256.938V217.32Z" fill="#F0F0F0"/>
<path d="M256.938 221.426H254.518V223.871H256.938V221.426Z" fill="#F0F0F0"/>
<path d="M256.938 225.53H254.518V227.975H256.938V225.53Z" fill="#F0F0F0"/>
<path d="M256.938 229.636H254.518V232.081H256.938V229.636Z" fill="#F0F0F0"/>
<path d="M256.938 233.74H254.518V236.185H256.938V233.74Z" fill="#F0F0F0"/>
<path d="M256.938 237.844H254.518V240.289H256.938V237.844Z" fill="#F0F0F0"/>
<path d="M256.938 241.95H254.518V244.395H256.938V241.95Z" fill="#F0F0F0"/>
<path d="M256.938 246.044H254.518V248.489H256.938V246.044Z" fill="#F0F0F0"/>
<path d="M256.938 250.15H254.518V252.596H256.938V250.15Z" fill="#F0F0F0"/>
<path d="M279.829 61.5869H275.766V290.471H279.829V61.5869Z" fill="#E0E0E0"/>
<path d="M356.335 61.5869H352.272V290.471H356.335V61.5869Z" fill="#E0E0E0"/>
<path d="M432.832 61.5869H428.769V290.471H432.832V61.5869Z" fill="#E0E0E0"/>
<path d="M143.681 268.159H168.739C169.876 268.159 170.966 268.615 171.77 269.428C172.574 270.24 173.025 271.341 173.025 272.49V321.423H139.404V272.529C139.399 271.958 139.506 271.391 139.718 270.862C139.931 270.333 140.245 269.851 140.642 269.445C141.04 269.039 141.513 268.716 142.034 268.495C142.556 268.275 143.115 268.16 143.681 268.159Z" fill="#F0F0F0"/>
<path d="M173.026 275.406H139.404V279.226H173.026V275.406Z" fill="#E6E6E6"/>
<path d="M158.523 315.01H166.902C167.513 315.01 168.099 315.255 168.531 315.691C168.963 316.128 169.206 316.72 169.206 317.337V321.462H156.21V317.337C156.21 317.031 156.27 316.727 156.386 316.444C156.503 316.161 156.673 315.904 156.888 315.688C157.103 315.472 157.358 315.3 157.639 315.184C157.919 315.068 158.22 315.008 158.523 315.01Z" fill="#E0E0E0"/>
<path d="M169.245 321.463H159.933C159.536 321.463 159.155 321.304 158.874 321.02C158.594 320.736 158.436 320.352 158.436 319.951C158.439 319.551 158.597 319.169 158.878 318.888C159.158 318.606 159.538 318.448 159.933 318.448H169.245C169.64 318.448 170.019 318.606 170.3 318.888C170.58 319.169 170.739 319.551 170.742 319.951C170.742 320.352 170.584 320.736 170.303 321.02C170.022 321.304 169.642 321.463 169.245 321.463Z" fill="#E6E6E6"/>
<path d="M318.538 50.8476C330.842 47.9137 338.462 35.4583 335.558 23.0276C332.654 10.597 320.326 2.89834 308.022 5.83224C295.718 8.76614 288.097 21.2216 291.001 33.6522C293.905 46.0829 306.234 53.7815 318.538 50.8476Z" fill="#E0E0E0"/>
<path d="M316.393 47.728C327.007 45.9874 334.214 35.8838 332.491 25.1611C330.768 14.4383 320.768 7.15672 310.154 8.89727C299.541 10.6378 292.333 20.7414 294.056 31.4642C295.779 42.187 305.779 49.4685 316.393 47.728Z" fill="#F0F0F0"/>
<path d="M314.199 14.8311V28.5791L323.209 23.4236" fill="#F0F0F0"/>
<path d="M314.199 29.5343C314.025 29.5342 313.853 29.4867 313.703 29.3968C313.558 29.3099 313.438 29.1863 313.355 29.0382C313.271 28.8902 313.227 28.7227 313.227 28.5523V14.8043C313.227 14.5438 313.329 14.294 313.512 14.1099C313.694 13.9257 313.941 13.8223 314.199 13.8223C314.457 13.8223 314.704 13.9257 314.886 14.1099C315.069 14.294 315.171 14.5438 315.171 14.8043V26.8927L322.733 22.5719C322.958 22.4447 323.223 22.4125 323.471 22.4825C323.718 22.5524 323.929 22.7188 324.055 22.945C324.182 23.1705 324.215 23.4375 324.148 23.6877C324.08 23.9379 323.918 24.151 323.695 24.2806L314.675 29.4361C314.526 29.5056 314.363 29.5393 314.199 29.5343Z" fill="#E0E0E0"/>
<path d="M94.216 254.058C92.4664 251.112 89.5893 253.675 89.5893 253.675C89.9975 248.098 84.9237 244.288 84.9237 244.288C84.9237 244.288 90.8237 244.288 91.6402 238.602C92.4567 232.916 89.5893 235.558 86.8871 235.518C84.185 235.479 81.3564 243.453 84.9431 247.941C88.5298 252.428 87.5481 260.088 79.3152 267.453C77.3465 269.314 75.8696 271.644 75.019 274.229C75.6411 267.463 75.991 257.928 74.047 251.564C70.7033 240.762 77.0796 237.816 78.907 232.435C80.7344 227.053 74.047 222.458 74.047 222.458C74.047 222.458 80.3747 219.512 77.2838 216.222C74.1928 212.932 67.8165 213.345 67.8165 217.695C67.8165 222.045 72.1419 223.705 72.1419 223.705C72.1419 223.705 77.0796 228.9 77.0796 231.561C77.0796 234.222 72.1419 240.085 72.1419 240.085C72.1419 240.085 74.4066 235.106 69.8771 234.9C65.3476 234.693 63.909 240.713 65.7656 243.414C67.6221 246.114 70.7033 243.836 70.7033 243.836C70.8966 246.988 71.3683 250.117 72.1127 253.184C72.5793 254.746 72.3654 260.844 71.9766 267.188C71.1171 264.898 69.7429 262.84 67.9623 261.178C59.7294 253.813 58.7769 246.153 62.3441 241.666C65.9114 237.178 63.0828 229.204 60.4001 229.243C57.7174 229.283 54.8111 226.631 55.6373 232.317C56.4635 238.003 62.3636 238.013 62.3636 238.013C62.3636 238.013 57.28 241.823 57.6882 247.4C57.6882 247.4 54.7722 244.867 53.0615 247.783C49.9414 252.978 57.1828 256.199 58.3978 253.675C58.3978 253.675 73.7457 264.654 70.0618 280.455L70.9172 281.741C70.8102 283.018 70.7422 283.784 70.7422 283.784L71.9378 283.263L73.3083 285.296C73.2604 287.593 73.3773 289.89 73.6582 292.17L77.3226 286.69C73.6193 270.89 88.9866 259.911 88.9866 259.911C90.1044 262.484 97.3361 259.253 94.216 254.058Z" fill="#E0E0E0"/>
<path opacity="0.2" d="M94.216 254.058C92.4664 251.112 89.5893 253.675 89.5893 253.675C89.9975 248.098 84.9237 244.288 84.9237 244.288C84.9237 244.288 90.8237 244.288 91.6402 238.602C92.4567 232.916 89.5893 235.558 86.8871 235.518C84.185 235.479 81.3564 243.453 84.9431 247.941C88.5298 252.428 87.5481 260.088 79.3152 267.453C77.3465 269.314 75.8696 271.644 75.019 274.229C75.6411 267.463 75.991 257.928 74.047 251.564C70.7033 240.762 77.0796 237.816 78.907 232.435C80.7344 227.053 74.047 222.458 74.047 222.458C74.047 222.458 80.3747 219.512 77.2838 216.222C74.1928 212.932 67.8165 213.345 67.8165 217.695C67.8165 222.045 72.1419 223.705 72.1419 223.705C72.1419 223.705 77.0796 228.9 77.0796 231.561C77.0796 234.222 72.1419 240.085 72.1419 240.085C72.1419 240.085 74.4066 235.106 69.8771 234.9C65.3476 234.693 63.909 240.713 65.7656 243.414C67.6221 246.114 70.7033 243.836 70.7033 243.836C70.8966 246.988 71.3683 250.117 72.1127 253.184C72.5793 254.746 72.3654 260.844 71.9766 267.188C71.1171 264.898 69.7429 262.84 67.9623 261.178C59.7294 253.813 58.7769 246.153 62.3441 241.666C65.9114 237.178 63.0828 229.204 60.4001 229.243C57.7174 229.283 54.8111 226.631 55.6373 232.317C56.4635 238.003 62.3636 238.013 62.3636 238.013C62.3636 238.013 57.28 241.823 57.6882 247.4C57.6882 247.4 54.7722 244.867 53.0615 247.783C49.9414 252.978 57.1828 256.199 58.3978 253.675C58.3978 253.675 73.7457 264.654 70.0618 280.455L70.9172 281.741C70.8102 283.018 70.7422 283.784 70.7422 283.784L71.9378 283.263L73.3083 285.296C73.2604 287.593 73.3773 289.89 73.6582 292.17L77.3226 286.69C73.6193 270.89 88.9866 259.911 88.9866 259.911C90.1044 262.484 97.3361 259.253 94.216 254.058Z" fill="#E0E0E0"/>
<path d="M91.2124 321.463H56.0552L52.2644 282.576H95.013L91.2124 321.463Z" fill="#E6E6E6"/>
<path d="M96.8789 278.284H50.3784V286.867H96.8789V278.284Z" fill="#F0F0F0"/>
<path d="M243 365.928C347.084 365.928 431.461 360.951 431.461 354.812C431.461 348.672 347.084 343.695 243 343.695C138.915 343.695 54.5386 348.672 54.5386 354.812C54.5386 360.951 138.915 365.928 243 365.928Z" fill="#F5F5F5"/>
<path d="M352.953 333.296L324.949 330.517V290.746H313.849V330.497L285.768 333.296C284.421 333.43 283.172 334.065 282.263 335.078C281.354 336.091 280.85 337.409 280.85 338.776V343.028H357.91V338.776C357.91 337.402 357.402 336.077 356.484 335.063C355.567 334.049 354.307 333.419 352.953 333.296Z" fill="#263238"/>
<path opacity="0.2" d="M352.953 333.296L324.949 330.517V290.746H313.849V330.497L285.768 333.296C284.421 333.43 283.172 334.065 282.263 335.078C281.354 336.091 280.85 337.409 280.85 338.776V343.028H357.91V338.776C357.91 337.402 357.402 336.077 356.484 335.063C355.567 334.049 354.307 333.419 352.953 333.296Z" fill="white"/>
<path d="M283.775 355.636C287.786 355.636 291.036 352.352 291.036 348.3C291.036 344.249 287.786 340.965 283.775 340.965C279.765 340.965 276.515 344.249 276.515 348.3C276.515 352.352 279.765 355.636 283.775 355.636Z" fill="#263238"/>
<path d="M354.916 355.636C358.926 355.636 362.177 352.352 362.177 348.3C362.177 344.249 358.926 340.965 354.916 340.965C350.906 340.965 347.655 344.249 347.655 348.3C347.655 352.352 350.906 355.636 354.916 355.636Z" fill="#263238"/>
<path d="M311.944 263.881H326.864V295.236C326.864 296.312 326.441 297.343 325.688 298.104C324.935 298.864 323.914 299.292 322.85 299.292H315.958C314.894 299.292 313.872 298.864 313.12 298.104C312.367 297.343 311.944 296.312 311.944 295.236V263.881Z" fill="#263238"/>
<path opacity="0.3" d="M311.944 263.881H326.864V295.236C326.864 296.312 326.441 297.343 325.688 298.104C324.935 298.864 323.914 299.292 322.85 299.292H315.958C314.894 299.292 313.872 298.864 313.12 298.104C312.367 297.343 311.944 296.312 311.944 295.236V263.881Z" fill="white"/>
<path d="M345.935 201.728C345.935 201.728 348.054 254.756 333.435 263.878H350.124C350.124 263.878 363.052 245.819 359.397 201.728H345.935Z" fill="#263238"/>
<path opacity="0.3" d="M345.935 201.728C345.935 201.728 348.054 254.756 333.435 263.878H350.124C350.124 263.878 363.052 245.819 359.397 201.728H345.935Z" fill="white"/>
<path d="M355.801 267.945H281.035V261.376C281.035 260.074 281.547 258.825 282.458 257.904C283.369 256.983 284.606 256.466 285.895 256.466H350.941C352.23 256.466 353.466 256.983 354.377 257.904C355.289 258.825 355.801 260.074 355.801 261.376V267.945Z" fill="#263238"/>
<path d="M279.868 267.945H356.957C358.036 267.945 358.911 267.062 358.911 265.971V264.184C358.911 263.094 358.036 262.21 356.957 262.21H279.868C278.789 262.21 277.914 263.094 277.914 264.184V265.971C277.914 267.062 278.789 267.945 279.868 267.945Z" fill="#263238"/>
<path opacity="0.6" d="M279.868 267.945H356.957C358.036 267.945 358.911 267.062 358.911 265.971V264.184C358.911 263.094 358.036 262.21 356.957 262.21H279.868C278.789 262.21 277.914 263.094 277.914 264.184V265.971C277.914 267.062 278.789 267.945 279.868 267.945Z" fill="white"/>
<path d="M363.489 173.3H336.759C328.932 173.3 322.587 179.71 322.587 187.617V198.184C322.587 206.091 328.932 212.501 336.759 212.501H363.489C371.316 212.501 377.661 206.091 377.661 198.184V187.617C377.661 179.71 371.316 173.3 363.489 173.3Z" fill="#263238"/>
<path d="M255.684 129.972L250.348 115.763C250.348 115.763 252.642 113.622 251.067 111.452C249.492 109.282 239.656 103.183 237.867 104.254C236.079 105.324 232.084 109.37 234.242 111.619C236.399 113.868 245.906 117.609 245.906 117.609L250.629 136.267L255.684 129.972Z" fill="#E4897B"/>
<path d="M292.941 156.986C292.941 156.986 268.641 151.949 266.046 150.741C263.451 149.533 253.692 120.633 253.692 120.633L246.198 124.168C246.198 124.168 252.224 153.176 258.386 160.07C264.549 166.964 290.851 172.836 290.851 172.836L292.941 156.986Z" fill="#2B7A78"/>
<path opacity="0.2" d="M290.793 172.806L290.346 172.698C289.024 172.394 284.873 171.412 279.945 169.949C271.946 167.602 261.856 164.057 258.338 160.08C252.185 153.206 246.149 124.168 246.149 124.168L253.633 120.633C253.633 120.633 263.402 149.543 266.046 150.741C268.689 151.939 292.941 156.986 292.941 156.986L290.793 172.806Z" fill="black"/>
<path d="M253.759 120.063L255.305 123.078L245.682 126.427L246.051 122.744L253.759 120.063Z" fill="#2B7A78"/>
<path opacity="0.2" d="M290.977 172.403C289.636 172.207 285.427 171.549 280.392 170.439C283.259 165.431 291.658 162.858 291.658 162.858L290.977 172.403Z" fill="black"/>
<path d="M327.155 136.975C327.155 136.975 328.584 150.556 323.607 153.895C318.631 157.234 294.126 153.325 291.347 147.856C288.567 142.386 299.025 127.558 299.025 127.558L327.155 136.975Z" fill="#263238"/>
<path d="M228.021 315.679L234.417 317.241L237.653 308.324L240.589 300.213L233.308 297.08L230.509 306.92L228.021 315.679Z" fill="#E4897B"/>
<path opacity="0.2" d="M230.509 306.92L237.653 308.324L240.589 300.213L233.309 297.08L230.509 306.92Z" fill="black"/>
<path d="M231.151 302.215L240.016 305.544C240.016 305.544 263.665 245.809 268.525 245.642C273.385 245.475 322.869 268.415 335.272 255.668C347.674 242.922 329.741 212.185 329.741 212.185C329.741 212.185 299.91 207.884 297.665 214.69C297.112 216.696 296.69 218.736 296.401 220.798C296.061 222.879 295.828 224.627 295.828 224.627C294.905 224.392 264.957 216.585 253.157 224.627C241.153 232.807 231.151 302.215 231.151 302.215Z" fill="#2B7A78"/>
<path opacity="0.6" d="M231.151 302.215L240.016 305.544C240.016 305.544 263.665 245.809 268.525 245.642C273.385 245.475 322.869 268.415 335.272 255.668C347.674 242.922 329.741 212.185 329.741 212.185C329.741 212.185 299.91 207.884 297.665 214.69C297.112 216.696 296.69 218.736 296.401 220.798C296.061 222.879 295.828 224.627 295.828 224.627C294.905 224.392 264.957 216.585 253.157 224.627C241.153 232.807 231.151 302.215 231.151 302.215Z" fill="white"/>
<path d="M282.142 341.16L288.509 339.52L287.284 330.279L286.147 321.814L278.273 322.531L280.315 332.4L282.142 341.16Z" fill="#E4897B"/>
<path opacity="0.2" d="M280.363 332.598L287.323 330.458L286.166 321.904L278.283 322.582L280.363 332.598Z" fill="black"/>
<path d="M243.68 302.225L230.762 297.796L230.208 303.138L240.006 306.634L243.68 302.225Z" fill="#2B7A78"/>
<path d="M313.849 258.692C313.849 258.692 311.827 258.741 280.538 257.268C280.538 257.268 285.213 296.783 287.77 326.371L278.409 327.981C278.409 327.981 256.053 264.633 256.296 254.567C256.539 244.502 267.96 241.556 267.96 241.556C267.96 241.556 290.248 254.567 313.849 258.692Z" fill="#2B7A78"/>
<path opacity="0.6" d="M313.849 258.692C313.849 258.692 311.827 258.741 280.538 257.268C280.538 257.268 285.213 296.783 287.77 326.371L278.409 327.981C278.409 327.981 256.053 264.633 256.296 254.567C256.539 244.502 267.96 241.556 267.96 241.556C267.96 241.556 290.248 254.567 313.849 258.692Z" fill="white"/>
<path opacity="0.1" d="M313.849 258.692C313.849 258.692 311.827 258.741 280.538 257.268C280.538 257.268 285.213 296.783 287.77 326.371L278.409 327.981C278.409 327.981 256.053 264.633 256.296 254.567C256.539 244.502 267.96 241.556 267.96 241.556C267.96 241.556 290.248 254.567 313.849 258.692Z" fill="black"/>
<path d="M289.13 323.504L276.271 324.987L278.759 330.073L289.169 328.728L289.13 323.504Z" fill="#2B7A78"/>
<path opacity="0.1" d="M295.828 224.628L313.275 228.3C313.275 228.3 303.633 222.919 296.401 220.798C296.061 222.88 295.828 224.628 295.828 224.628Z" fill="black"/>
<path d="M329.022 207.5L329.741 212.184L297.665 214.688L296.819 209.14L329.022 207.5Z" fill="#263238"/>
<path opacity="0.2" d="M329.022 207.5L329.741 212.184L297.665 214.688L296.819 209.14L329.022 207.5Z" fill="black"/>
<path d="M318.905 215.348L320.49 215.184L319.66 207.027L318.075 207.192L318.905 215.348Z" fill="#2B7A78"/>
<path d="M304.654 214.534L311.677 214.078L311.335 208.698L304.312 209.154L304.654 214.534Z" fill="white"/>
<path d="M299.225 216.205L300.81 216.04L299.98 207.883L298.395 208.048L299.225 216.205Z" fill="#2B7A78"/>
<path opacity="0.6" d="M318.905 215.348L320.49 215.184L319.66 207.027L318.075 207.192L318.905 215.348Z" fill="white"/>
<path opacity="0.6" d="M299.225 216.205L300.81 216.04L299.98 207.883L298.395 208.048L299.225 216.205Z" fill="white"/>
<path d="M292.357 156.545C298.365 158.222 304.6 158.915 310.825 158.597C321.128 158.067 333.395 163.085 333.395 163.085L328.982 207.471L296.77 209.111C296.77 209.111 285.991 172.08 292.357 156.545Z" fill="#2B7A78"/>
<path d="M297.538 131.476C297.538 131.476 299.346 109.931 317.172 117.728C339.528 127.548 321.76 153.807 310.825 148.425C299.89 143.044 297.538 131.476 297.538 131.476Z" fill="#263238"/>
<path opacity="0.2" d="M302.534 159.806L303.05 171.982L307.045 166.257C307.045 166.257 305.616 179.721 306.452 187.056C306.452 187.056 307.219 173.907 309.027 166.257L313.275 171.982L319.369 159.884C319.369 159.884 309.504 156.3 302.534 159.806Z" fill="black"/>
<path d="M308.055 162.105L317.28 159.473C311.594 155.545 314.461 146.707 314.461 146.707L305.324 149.948C305.744 151.231 306.069 152.544 306.296 153.876C307.268 159.63 304.683 160.092 304.683 160.092L308.055 162.105Z" fill="#E4897B"/>
<path opacity="0.2" d="M305.324 149.898C305.744 151.181 306.069 152.494 306.296 153.826C310.67 152.049 314.451 146.638 314.451 146.638L305.324 149.898Z" fill="black"/>
<path d="M311.292 122.282C303.196 120.476 299.628 124.246 297.198 132.554C294.156 142.914 294.827 150.908 305.431 150.927C319.836 150.947 324.725 125.287 311.292 122.282Z" fill="#E4897B"/>
<path d="M302.525 133.271C301.613 134.347 300.575 135.306 299.434 136.128C299.597 136.521 299.865 136.861 300.209 137.109C300.552 137.357 300.957 137.504 301.378 137.532L302.525 133.271Z" fill="#DE5753"/>
<path d="M307.628 133.703C307.463 134.371 307.686 135.01 308.133 135.118C308.58 135.226 309.057 134.774 309.222 134.136C309.387 133.497 309.164 132.839 308.716 132.721C308.269 132.604 307.793 133.036 307.628 133.703Z" fill="#263238"/>
<path d="M308.891 132.772L307.599 131.849C307.599 131.849 308.017 133.253 308.891 132.772Z" fill="#263238"/>
<path d="M299.444 131.523C299.278 132.191 299.502 132.829 299.949 132.937C300.396 133.045 300.921 132.593 301.038 131.955C301.154 131.317 300.979 130.659 300.532 130.541C300.085 130.423 299.609 130.855 299.444 131.523Z" fill="#263238"/>
<path d="M300.707 130.591L299.375 129.697C299.375 129.697 299.832 131.062 300.707 130.591Z" fill="#263238"/>
<path d="M312.187 130.454C312.121 130.455 312.057 130.438 312.001 130.406C311.944 130.373 311.898 130.325 311.866 130.267C311.546 129.762 311.118 129.336 310.613 129.02C310.108 128.704 309.54 128.506 308.95 128.441C308.857 128.429 308.772 128.381 308.713 128.308C308.653 128.235 308.623 128.142 308.629 128.048C308.639 127.953 308.685 127.866 308.758 127.806C308.831 127.745 308.924 127.716 309.018 127.724C309.734 127.794 310.425 128.031 311.035 128.416C311.646 128.801 312.16 129.324 312.537 129.943C312.558 129.985 312.571 130.031 312.575 130.078C312.579 130.125 312.574 130.172 312.559 130.217C312.545 130.262 312.521 130.303 312.491 130.339C312.46 130.375 312.423 130.404 312.381 130.425C312.319 130.449 312.253 130.459 312.187 130.454Z" fill="#263238"/>
<path d="M303.137 126.751C303.071 126.75 303.007 126.729 302.953 126.692C302.475 126.46 301.952 126.34 301.422 126.34C300.892 126.34 300.369 126.46 299.891 126.692C299.849 126.709 299.804 126.718 299.758 126.717C299.713 126.717 299.668 126.707 299.626 126.689C299.585 126.671 299.547 126.644 299.516 126.611C299.484 126.578 299.46 126.538 299.444 126.495C299.426 126.452 299.418 126.406 299.418 126.359C299.418 126.313 299.428 126.267 299.446 126.224C299.464 126.181 299.49 126.142 299.523 126.109C299.556 126.077 299.595 126.051 299.638 126.034C300.219 125.761 300.854 125.626 301.494 125.64C302.134 125.653 302.763 125.815 303.332 126.112C303.371 126.137 303.405 126.17 303.431 126.208C303.458 126.247 303.477 126.29 303.487 126.335C303.497 126.381 303.497 126.428 303.489 126.474C303.481 126.52 303.464 126.564 303.439 126.603C303.404 126.651 303.359 126.689 303.306 126.715C303.254 126.74 303.196 126.753 303.137 126.751Z" fill="#263238"/>
<path d="M317.114 138.034C317.114 138.034 314.801 130.473 316.512 125.416C316.512 125.416 301.932 115.213 297.538 131.475C297.538 131.475 299.161 116.529 313.148 119.318C327.136 122.106 322.557 142.64 314.033 147.157C314.033 147.157 318.533 142.758 317.114 138.034Z" fill="#263238"/>
<path d="M315.413 139.517C315.698 138.588 316.335 137.811 317.186 137.356C318.037 136.901 319.032 136.806 319.952 137.091C322.402 137.926 322.45 143.396 315.948 143.248C315.005 143.18 314.694 142.188 315.413 139.517Z" fill="#E4897B"/>
<path d="M299.91 140.636C300.126 141.639 300.269 142.656 300.338 143.68H300.863C303.283 143.886 304.469 143.17 305.052 142.325C305.331 141.905 305.504 141.423 305.557 140.921C305.599 140.637 305.599 140.35 305.557 140.066C303.997 140.609 302.34 140.807 300.697 140.646C300.231 140.675 299.91 140.636 299.91 140.636Z" fill="#263238"/>
<path d="M300.736 140.695L300.882 141.588C303.157 141.775 304.77 141.588 305.557 140.97C305.599 140.686 305.599 140.399 305.557 140.115C304.009 140.653 302.366 140.85 300.736 140.695Z" fill="white"/>
<path d="M300.863 143.729C303.283 143.936 304.469 143.219 305.052 142.374C304.134 142.314 303.213 142.417 302.33 142.679C301.744 142.864 301.23 143.232 300.863 143.729Z" fill="#DE5753"/>
<path d="M311.321 122.942C311.321 122.942 311.632 137.112 320.069 138.821C328.506 140.529 319.292 120.595 319.292 120.595C319.292 120.595 306.753 112.326 298.394 118.159C290.035 123.992 297.558 131.475 297.558 131.475C297.558 131.475 299.298 120.948 311.321 122.942Z" fill="#263238"/>
<path d="M314.539 135.914C314.482 135.913 314.427 135.892 314.384 135.855C308.396 131.102 311.351 122.008 311.38 121.92C311.402 121.859 311.447 121.808 311.505 121.779C311.562 121.75 311.629 121.744 311.691 121.763C311.752 121.785 311.801 121.831 311.828 121.89C311.856 121.949 311.859 122.016 311.837 122.077C311.837 122.166 308.969 130.915 314.685 135.472C314.708 135.494 314.727 135.52 314.739 135.55C314.752 135.579 314.758 135.611 314.758 135.644C314.758 135.676 314.752 135.708 314.739 135.737C314.727 135.767 314.708 135.793 314.685 135.815C314.669 135.841 314.647 135.863 314.622 135.88C314.597 135.897 314.569 135.909 314.539 135.914Z" fill="#263238"/>
<path d="M322.509 141.727C321.44 144.614 318.689 146.235 316.366 145.361C314.043 144.487 313.032 141.433 314.101 138.545C315.17 135.658 317.921 134.038 320.244 134.922C322.567 135.806 323.578 138.85 322.509 141.727Z" fill="#2B7A78"/>
<path opacity="0.4" d="M322.509 141.727C321.44 144.614 318.689 146.235 316.366 145.361C314.043 144.487 313.032 141.433 314.101 138.545C315.17 135.658 317.921 134.038 320.244 134.922C322.567 135.806 323.578 138.85 322.509 141.727Z" fill="black"/>
<path d="M319.788 137.003C319.788 137.003 323.277 121.222 315.453 117.088C316.344 117.206 317.227 117.38 318.096 117.608C319.068 117.903 325.357 124.306 322.198 138.486L319.788 137.003Z" fill="#2B7A78"/>
<path opacity="0.2" d="M319.788 137.003C319.788 137.003 323.277 121.222 315.453 117.088C316.344 117.206 317.227 117.38 318.096 117.608C319.068 117.903 325.357 124.306 322.198 138.486L319.788 137.003Z" fill="black"/>
<path d="M305.207 146.039L304.624 145.951L304.78 144.969C309.072 145.636 313.458 144.696 317.114 142.327L317.688 143.113C314.012 145.574 309.58 146.613 305.207 146.039Z" fill="#2B7A78"/>
<g opacity="0.2">
<path d="M305.207 146.038L304.624 145.95L304.78 144.968C309.073 145.635 313.459 144.695 317.114 142.326L317.688 143.112C314.012 145.573 309.581 146.612 305.207 146.038Z" fill="black"/>
</g>
<path d="M322.179 141.334C321.479 143.239 319.652 144.28 318.126 143.73C316.599 143.18 315.919 141.137 316.629 139.232C317.338 137.327 319.156 136.286 320.682 136.836C322.208 137.386 322.888 139.429 322.179 141.334Z" fill="#2B7A78"/>
<path d="M304.294 146.391L303.507 146.283C303.369 146.265 303.237 146.22 303.117 146.15C302.997 146.08 302.891 145.986 302.807 145.875C302.723 145.763 302.662 145.636 302.627 145.501C302.592 145.365 302.583 145.224 302.603 145.085C302.619 144.946 302.663 144.811 302.732 144.688C302.801 144.566 302.894 144.459 303.004 144.373C303.114 144.287 303.241 144.224 303.375 144.188C303.51 144.152 303.65 144.143 303.788 144.162L304.566 144.27C304.843 144.309 305.094 144.457 305.265 144.681C305.436 144.905 305.513 145.188 305.48 145.468C305.441 145.748 305.295 146.002 305.073 146.175C304.852 146.347 304.572 146.425 304.294 146.391Z" fill="#2B7A78"/>
<path opacity="0.4" d="M304.294 146.391L303.507 146.283C303.369 146.265 303.237 146.22 303.117 146.15C302.997 146.08 302.891 145.986 302.807 145.875C302.723 145.763 302.662 145.636 302.627 145.501C302.592 145.365 302.583 145.224 302.603 145.085C302.619 144.946 302.663 144.811 302.732 144.688C302.801 144.566 302.894 144.459 303.004 144.373C303.114 144.287 303.241 144.224 303.375 144.188C303.51 144.152 303.65 144.143 303.788 144.162L304.566 144.27C304.843 144.309 305.094 144.457 305.265 144.681C305.436 144.905 305.513 145.188 305.48 145.468C305.441 145.748 305.295 146.002 305.073 146.175C304.852 146.347 304.572 146.425 304.294 146.391Z" fill="black"/>
<path d="M314.802 156.065L309.028 161.79L311.341 168.822L319.37 159.885L314.802 156.065Z" fill="#2B7A78"/>
<path d="M306.452 157.262L307.385 161.671L304.401 167.907L302.534 159.805L306.452 157.262Z" fill="#2B7A78"/>
<path d="M313.567 161.033L316.92 148.631C316.92 148.631 315.297 145.547 315.647 144.899C315.997 144.251 317.746 135.923 318.99 135.02C320.235 134.117 325.357 135.658 325.872 136.503C326.387 137.347 320.964 148.631 320.964 148.631L319.02 162.074L313.567 161.033Z" fill="#E4897B"/>
<path d="M333.396 163.085C342.63 172.63 324.133 194.254 313.528 193.331C302.924 192.407 313.8 153.206 313.8 153.206L320.604 154.335C320.604 154.335 318.223 171.304 318.971 172.63C319.72 173.956 330.334 159.913 333.396 163.085Z" fill="#2B7A78"/>
<path opacity="0.2" d="M333.396 163.085C342.63 172.63 324.133 194.254 313.528 193.331C302.924 192.407 313.8 153.206 313.8 153.206L320.604 154.335C320.604 154.335 318.223 171.304 318.971 172.63C319.72 173.956 330.334 159.913 333.396 163.085Z" fill="black"/>
<path d="M313.275 151.979L312.274 155.219L321.732 156.064V153.235L313.275 151.979Z" fill="#2B7A78"/>
<path opacity="0.6" d="M298.938 177.619H295.109C294.685 177.619 294.341 177.966 294.341 178.395V185.701C294.341 186.129 294.685 186.477 295.109 186.477H298.938C299.362 186.477 299.706 186.129 299.706 185.701V178.395C299.706 177.966 299.362 177.619 298.938 177.619Z" fill="white"/>
<path opacity="0.2" d="M299.016 178.208H294.661V184.228H299.016V178.208Z" fill="black"/>
<path d="M297.422 175.488H296.46V179.033H297.422V175.488Z" fill="#263238"/>
<path d="M217.446 328.228C218.415 327.772 219.46 327.502 220.527 327.432C220.527 327.432 224.22 325.243 227.875 316.709H231.987C232.684 316.714 233.363 316.936 233.93 317.346C234.497 317.756 234.925 318.332 235.155 318.997C235.224 319.179 235.263 319.372 235.272 319.567C235.223 320.57 235.116 321.571 234.951 322.562C234.35 325.881 233.548 329.161 232.551 332.382L231.851 332.205L233.114 325.999C233.542 323.897 231.345 325.93 230.334 328.051C229.323 330.172 227.759 332.323 223.21 331.272C217.912 329.956 215.784 329.19 217.446 328.228Z" fill="#2B7A78"/>
<path d="M228.624 314.48C228.624 314.48 223.482 325.341 220.527 327.432C220.527 327.432 224.493 329.819 228.624 324.486C233.96 317.612 235.272 319.527 235.272 319.527C235.16 318.341 234.942 317.168 234.621 316.022C233.824 313.822 228.624 314.48 228.624 314.48Z" fill="#E4897B"/>
<path d="M274.035 354.104C274.875 353.435 275.827 352.923 276.844 352.592C276.844 352.592 279.916 349.577 281.461 340.415L285.456 339.433C286.134 339.275 286.844 339.332 287.489 339.596C288.134 339.859 288.683 340.317 289.062 340.906C289.172 341.07 289.257 341.248 289.315 341.436C289.51 342.409 289.643 343.393 289.714 344.382C289.9 347.739 289.884 351.103 289.665 354.458H288.946L288.722 348.134C288.635 345.983 286.992 348.487 286.496 350.795C286.001 353.103 285 355.548 280.334 355.616C274.9 355.675 272.645 355.44 274.035 354.104Z" fill="#2B7A78"/>
<path d="M281.665 338.067C281.665 338.067 279.226 349.851 276.805 352.591C276.805 352.591 281.218 353.965 283.979 347.808C287.556 339.854 289.276 341.406 289.276 341.406C288.892 340.28 288.407 339.192 287.828 338.155C286.564 336.191 281.665 338.067 281.665 338.067Z" fill="#E4897B"/>
<path d="M372.043 100.386H338.11C335.388 100.386 333.182 102.615 333.182 105.364V120.026C333.182 122.775 335.388 125.004 338.11 125.004H372.043C374.764 125.004 376.971 122.775 376.971 120.026V105.364C376.971 102.615 374.764 100.386 372.043 100.386Z" fill="#2B7A78"/>
<path d="M344.914 122.195L334.689 136.238L351.184 123.138L344.914 122.195Z" fill="#2B7A78"/>
<path d="M345.294 112.69C345.296 112.978 345.213 113.26 345.055 113.501C344.898 113.741 344.673 113.929 344.41 114.04C344.147 114.152 343.857 114.181 343.577 114.125C343.297 114.07 343.04 113.931 342.838 113.727C342.636 113.523 342.499 113.263 342.444 112.981C342.388 112.698 342.418 112.405 342.528 112.139C342.638 111.873 342.824 111.646 343.062 111.487C343.3 111.328 343.579 111.244 343.865 111.246C344.244 111.246 344.607 111.398 344.875 111.669C345.143 111.94 345.294 112.307 345.294 112.69Z" fill="white"/>
<path d="M352.768 112.69C352.77 112.978 352.687 113.26 352.53 113.501C352.372 113.741 352.148 113.929 351.884 114.04C351.621 114.152 351.331 114.181 351.051 114.125C350.771 114.07 350.514 113.931 350.312 113.727C350.11 113.523 349.973 113.263 349.918 112.981C349.863 112.698 349.892 112.405 350.002 112.139C350.112 111.873 350.298 111.646 350.536 111.487C350.774 111.328 351.054 111.244 351.339 111.246C351.718 111.246 352.082 111.398 352.349 111.669C352.617 111.94 352.768 112.307 352.768 112.69Z" fill="white"/>
<path d="M360.243 112.69C360.245 112.978 360.162 113.26 360.004 113.501C359.847 113.741 359.623 113.929 359.359 114.04C359.096 114.152 358.806 114.181 358.526 114.125C358.246 114.07 357.989 113.931 357.787 113.727C357.585 113.523 357.448 113.263 357.393 112.981C357.338 112.698 357.367 112.405 357.477 112.139C357.587 111.873 357.773 111.646 358.011 111.487C358.249 111.328 358.529 111.244 358.814 111.246C359.193 111.246 359.556 111.398 359.824 111.669C360.092 111.94 360.243 112.307 360.243 112.69Z" fill="white"/>
<path d="M367.717 112.69C367.719 112.978 367.636 113.26 367.479 113.501C367.321 113.741 367.097 113.929 366.834 114.04C366.57 114.152 366.28 114.181 366 114.125C365.72 114.07 365.463 113.931 365.261 113.727C365.06 113.523 364.922 113.263 364.867 112.981C364.812 112.698 364.841 112.405 364.951 112.139C365.062 111.873 365.247 111.646 365.485 111.487C365.724 111.328 366.003 111.244 366.288 111.246C366.667 111.246 367.031 111.398 367.299 111.669C367.567 111.94 367.717 112.307 367.717 112.69Z" fill="white"/>
<path d="M244.627 88.7735L220.418 75.5987C219.766 75.2438 218.952 75.4902 218.601 76.1491L210.875 90.6389C210.524 91.2979 210.768 92.1198 211.42 92.4747L235.629 105.65C236.281 106.004 237.094 105.758 237.446 105.099L245.172 90.6093C245.523 89.9504 245.279 89.1285 244.627 88.7735Z" fill="#2B7A78"/>
<path opacity="0.7" d="M244.627 88.7735L220.418 75.5987C219.766 75.2438 218.952 75.4902 218.601 76.1491L210.875 90.6389C210.524 91.2979 210.768 92.1198 211.42 92.4747L235.629 105.65C236.281 106.004 237.094 105.758 237.446 105.099L245.172 90.6093C245.523 89.9504 245.279 89.1285 244.627 88.7735Z" fill="#95BDBC"/>
<path opacity="0.2" d="M217.971 77.3457L225.504 91.6338C225.793 92.1781 226.236 92.6235 226.775 92.9137C227.315 93.2038 227.928 93.3257 228.537 93.2639L244.293 91.6927L228.255 94.079C227.554 94.1837 226.838 94.0567 226.215 93.7169C225.591 93.3771 225.093 92.8428 224.794 92.1935L217.971 77.3457Z" fill="black"/>
<path d="M199.59 74.7048C199.853 69.2449 203.858 58.2367 208.727 54.8684C213.597 51.5001 210.389 56.1646 210.389 56.1646C210.389 56.1646 215.006 51.6278 217.436 51.7653C219.866 51.9028 217.436 54.7113 217.436 54.7113C217.436 54.7113 222.442 51.5983 224.746 51.7653C227.049 51.9322 224.746 54.6229 224.746 54.6229C224.746 54.6229 228.848 51.6769 230.51 53.0615C232.172 54.4461 209.233 69.7555 206.676 75.9814C204.12 82.2073 199.328 80.2138 199.59 74.7048Z" fill="#2B7A78"/>
<path opacity="0.4" d="M199.59 74.7048C199.853 69.2449 203.858 58.2367 208.727 54.8684C213.597 51.5001 210.389 56.1646 210.389 56.1646C210.389 56.1646 215.006 51.6278 217.436 51.7653C219.866 51.9028 217.436 54.7113 217.436 54.7113C217.436 54.7113 222.442 51.5983 224.746 51.7653C227.049 51.9322 224.746 54.6229 224.746 54.6229C224.746 54.6229 228.848 51.6769 230.51 53.0615C232.172 54.4461 209.233 69.7555 206.676 75.9814C204.12 82.2073 199.328 80.2138 199.59 74.7048Z" fill="white"/>
<path d="M219.303 73.8779L222.365 75.8419C222.413 75.8722 222.45 75.9181 222.469 75.9721C222.489 76.0261 222.49 76.0852 222.472 76.1397C222.454 76.1942 222.418 76.241 222.37 76.2725C222.323 76.304 222.266 76.3184 222.209 76.3133L218.992 76.058L219.264 78.5522C219.272 78.6111 219.261 78.6709 219.232 78.7228C219.204 78.7747 219.16 78.8158 219.106 78.8401C219.052 78.8644 218.992 78.8706 218.935 78.8576C218.878 78.8447 218.826 78.8133 218.788 78.7683L216.931 76.6668L219.303 73.8779Z" fill="#2B7A78"/>
<path opacity="0.3" d="M219.303 73.8779L222.365 75.8419C222.413 75.8722 222.45 75.9181 222.469 75.9721C222.489 76.0261 222.49 76.0852 222.472 76.1397C222.454 76.1942 222.418 76.241 222.37 76.2725C222.323 76.304 222.266 76.3184 222.209 76.3133L218.992 76.058L219.264 78.5522C219.272 78.6111 219.261 78.6709 219.232 78.7228C219.204 78.7747 219.16 78.8158 219.106 78.8401C219.052 78.8644 218.992 78.8706 218.935 78.8576C218.878 78.8447 218.826 78.8133 218.788 78.7683L216.931 76.6668L219.303 73.8779Z" fill="white"/>
<path d="M176.292 61.5856C176.292 61.5856 180.529 58.6396 186.935 60.5447C186.935 60.5447 188.772 69.0979 193.817 71.9457C196.587 73.5071 203.362 73.3696 208.727 71.6216C215.094 69.5398 218.204 69.5398 219.361 71.9457C220.518 74.3516 219.234 76.8557 214.365 78.0243C209.495 79.1929 205.617 87.7362 196.801 87.8443C187.985 87.9523 183.3 79.0063 185.526 71.1503C183.418 67.1342 180.213 63.8143 176.292 61.5856Z" fill="#2B7A78"/>
<path opacity="0.5" d="M176.292 61.5856C176.292 61.5856 180.529 58.6396 186.935 60.5447C186.935 60.5447 188.772 69.0979 193.817 71.9457C196.587 73.5071 203.362 73.3696 208.727 71.6216C215.094 69.5398 218.204 69.5398 219.361 71.9457C220.518 74.3516 219.234 76.8557 214.365 78.0243C209.495 79.1929 205.617 87.7362 196.801 87.8443C187.985 87.9523 183.3 79.0063 185.526 71.1503C183.418 67.1342 180.213 63.8143 176.292 61.5856Z" fill="white"/>
<path d="M216.93 73.5649C216.93 73.6523 216.905 73.7378 216.857 73.8105C216.809 73.8831 216.74 73.9398 216.66 73.9732C216.581 74.0067 216.493 74.0154 216.408 73.9984C216.323 73.9813 216.245 73.9392 216.184 73.8774C216.123 73.8156 216.081 73.7369 216.064 73.6512C216.047 73.5654 216.056 73.4766 216.089 73.3958C216.122 73.3151 216.178 73.2461 216.25 73.1975C216.322 73.149 216.407 73.123 216.493 73.123C216.609 73.123 216.72 73.1696 216.802 73.2525C216.884 73.3354 216.93 73.4477 216.93 73.5649Z" fill="#263238"/>
<path d="M194.75 80.754C189.53 82.1877 177.924 81.736 173.259 78.1026C168.593 74.4692 173.959 76.1386 173.959 76.1386C173.959 76.1386 168.272 73.1042 167.641 70.7278C167.009 68.3513 170.44 69.8047 170.44 69.8047C170.44 69.8047 165.969 65.9651 165.386 63.7065C164.802 61.4479 168.068 62.8227 168.068 62.8227C168.068 62.8227 163.996 59.7981 164.822 57.7654C165.648 55.7326 187.119 73.0551 193.758 73.5952C200.397 74.1353 200.037 79.3006 194.75 80.754Z" fill="#2B7A78"/>
<path opacity="0.4" d="M194.75 80.754C189.53 82.1877 177.924 81.736 173.259 78.1026C168.593 74.4692 173.959 76.1386 173.959 76.1386C173.959 76.1386 168.272 73.1042 167.641 70.7278C167.009 68.3513 170.44 69.8047 170.44 69.8047C170.44 69.8047 165.969 65.9651 165.386 63.7065C164.802 61.4479 168.068 62.8227 168.068 62.8227C168.068 62.8227 163.996 59.7981 164.822 57.7654C165.648 55.7326 187.119 73.0551 193.758 73.5952C200.397 74.1353 200.037 79.3006 194.75 80.754Z" fill="white"/>
<path d="M160.535 56.8602C160.497 56.8698 160.457 56.8698 160.419 56.8602C159.515 56.5361 158.591 56.2317 157.658 55.9469C157.566 55.9175 157.489 55.8526 157.443 55.7663C157.398 55.68 157.388 55.5791 157.415 55.4854C157.444 55.3922 157.508 55.3142 157.594 55.2683C157.679 55.2224 157.779 55.2122 157.872 55.2399C158.844 55.5247 159.748 55.8389 160.662 56.2219C160.743 56.25 160.812 56.3066 160.855 56.3816C160.899 56.4565 160.915 56.5447 160.899 56.6303C160.884 56.7158 160.839 56.793 160.772 56.8478C160.705 56.9026 160.621 56.9314 160.535 56.9289V56.8602Z" fill="#2B7A78"/>
<path d="M101.788 136.571C101.691 136.571 101.599 136.533 101.53 136.465C101.461 136.397 101.421 136.305 101.418 136.207C101.418 136.11 101.456 136.016 101.523 135.947C101.59 135.877 101.682 135.837 101.778 135.834C103.712 135.806 105.64 135.616 107.542 135.265C107.637 135.247 107.735 135.268 107.815 135.323C107.895 135.379 107.951 135.463 107.97 135.559C107.979 135.607 107.98 135.656 107.97 135.704C107.961 135.752 107.942 135.797 107.915 135.838C107.887 135.878 107.852 135.912 107.812 135.939C107.771 135.965 107.726 135.983 107.678 135.991C105.734 136.351 103.764 136.544 101.788 136.571ZM95.9557 136.256C93.9943 136.045 92.0469 135.717 90.1237 135.274C90.0285 135.253 89.9454 135.195 89.8926 135.112C89.8398 135.029 89.8216 134.929 89.8418 134.832C89.8649 134.738 89.9235 134.657 90.0052 134.605C90.0869 134.554 90.1852 134.537 90.2792 134.557C92.172 134.988 94.0864 135.316 96.014 135.539C96.1005 135.554 96.1791 135.599 96.2358 135.666C96.2925 135.734 96.3236 135.819 96.3236 135.908C96.3236 135.996 96.2925 136.082 96.2358 136.149C96.1791 136.217 96.1005 136.262 96.014 136.276L95.9557 136.256ZM113.228 134.292C113.158 134.293 113.09 134.272 113.031 134.234C112.972 134.196 112.926 134.141 112.898 134.076C112.877 134.032 112.865 133.984 112.863 133.935C112.861 133.886 112.869 133.837 112.886 133.791C112.903 133.745 112.93 133.703 112.963 133.668C112.997 133.632 113.038 133.604 113.082 133.585C114.848 132.816 116.487 131.78 117.942 130.512C118.017 130.454 118.11 130.428 118.203 130.437C118.296 130.446 118.382 130.491 118.444 130.562C118.506 130.633 118.538 130.725 118.536 130.82C118.533 130.914 118.494 131.004 118.428 131.071C116.914 132.384 115.214 133.46 113.384 134.263C113.33 134.293 113.27 134.31 113.209 134.312L113.228 134.292ZM84.5638 133.625C84.5255 133.634 84.4855 133.634 84.4472 133.625C82.6004 133.006 80.7439 132.279 78.9457 131.484C78.866 131.438 78.8061 131.363 78.7777 131.275C78.7493 131.187 78.7544 131.091 78.792 131.007C78.8296 130.922 78.897 130.855 78.9812 130.818C79.0653 130.781 79.16 130.777 79.247 130.806C81.016 131.592 82.8434 132.309 84.6805 132.927C84.7714 132.961 84.8458 133.029 84.8876 133.117C84.9294 133.205 84.9353 133.306 84.904 133.399C84.8766 133.467 84.8293 133.525 84.7686 133.565C84.7079 133.605 84.6365 133.626 84.5638 133.625ZM73.8718 128.852C73.8148 128.87 73.7539 128.87 73.6969 128.852C71.957 127.87 70.2657 126.809 68.6911 125.7C68.6521 125.672 68.619 125.637 68.5935 125.596C68.5681 125.556 68.5508 125.51 68.5427 125.463C68.5345 125.415 68.5357 125.367 68.5462 125.32C68.5566 125.273 68.5762 125.229 68.6036 125.189C68.631 125.15 68.6659 125.116 68.7061 125.091C68.7464 125.065 68.7913 125.047 68.8382 125.039C68.8851 125.031 68.9332 125.032 68.9797 125.043C69.0262 125.053 69.0701 125.073 69.109 125.101C70.6642 126.191 72.3264 127.242 74.0565 128.214C74.0984 128.237 74.1352 128.269 74.1648 128.307C74.1944 128.345 74.2161 128.389 74.2288 128.435C74.2415 128.482 74.2448 128.531 74.2386 128.579C74.2324 128.627 74.2167 128.673 74.1926 128.715C74.1515 128.778 74.0926 128.828 74.0233 128.858C73.9541 128.888 73.8777 128.896 73.8038 128.882L73.8718 128.852ZM121.928 126.603C121.87 126.621 121.81 126.621 121.753 126.603C121.711 126.58 121.674 126.548 121.644 126.51C121.615 126.472 121.593 126.428 121.58 126.382C121.568 126.335 121.564 126.286 121.57 126.238C121.577 126.19 121.592 126.144 121.616 126.102C121.918 125.572 122.2 125.022 122.452 124.453C122.993 123.25 123.417 121.997 123.716 120.711C123.741 120.616 123.802 120.535 123.885 120.483C123.968 120.432 124.068 120.415 124.163 120.436C124.257 120.462 124.337 120.523 124.386 120.608C124.435 120.692 124.449 120.793 124.426 120.888C124.108 122.216 123.669 123.512 123.113 124.757C122.851 125.346 122.559 125.926 122.248 126.476C122.207 126.538 122.147 126.587 122.078 126.615C122.009 126.643 121.932 126.649 121.859 126.633L121.928 126.603ZM64.2879 122.066C64.2024 122.065 64.1199 122.034 64.0546 121.978C62.5744 120.657 61.1875 119.233 59.9042 117.716C59.8371 117.647 59.7996 117.553 59.7996 117.456C59.7996 117.359 59.8371 117.265 59.9042 117.196C59.9715 117.129 60.0623 117.091 60.1569 117.091C60.2515 117.091 60.3423 117.129 60.4096 117.196C61.6697 118.681 63.0306 120.075 64.4823 121.369C64.5494 121.439 64.5869 121.532 64.5869 121.629C64.5869 121.727 64.5494 121.82 64.4823 121.89C64.4582 121.943 64.4218 121.989 64.3761 122.025C64.3304 122.061 64.2768 122.085 64.2199 122.096L64.2879 122.066ZM124.727 115.251C124.679 115.251 124.631 115.242 124.587 115.223C124.543 115.204 124.503 115.176 124.469 115.141C124.436 115.107 124.409 115.065 124.392 115.02C124.374 114.975 124.366 114.927 124.367 114.878C124.353 112.925 124.174 110.977 123.833 109.055C123.816 108.959 123.836 108.859 123.891 108.779C123.946 108.698 124.029 108.642 124.124 108.623C124.221 108.608 124.319 108.632 124.398 108.689C124.478 108.745 124.533 108.831 124.552 108.927C124.902 110.892 125.084 112.882 125.096 114.878C125.096 114.977 125.057 115.072 124.988 115.142C124.919 115.212 124.825 115.251 124.727 115.251ZM122.783 103.605C122.704 103.604 122.628 103.578 122.565 103.53C122.502 103.483 122.456 103.416 122.433 103.34C121.937 101.621 121.325 99.7947 120.576 97.7521C120.558 97.7065 120.549 97.6575 120.549 97.6081C120.55 97.5588 120.561 97.5101 120.581 97.4651C120.601 97.42 120.63 97.3796 120.666 97.3462C120.702 97.3128 120.744 97.2872 120.79 97.2709C120.881 97.2388 120.98 97.2434 121.067 97.2837C121.154 97.324 121.222 97.3969 121.257 97.487C122.015 99.5492 122.627 101.415 123.133 103.124C123.16 103.217 123.15 103.318 123.105 103.405C123.059 103.491 122.982 103.556 122.89 103.585L122.783 103.605ZM118.759 92.4591C118.691 92.4597 118.625 92.4405 118.568 92.4039C118.511 92.3673 118.466 92.3149 118.438 92.2529C117.816 90.6817 116.97 88.8748 116.086 86.9599V86.8617C116.06 86.7761 116.066 86.6842 116.102 86.6026C116.139 86.5211 116.202 86.4553 116.282 86.4172C116.362 86.3792 116.453 86.3714 116.539 86.3953C116.624 86.4192 116.698 86.4732 116.747 86.5475V86.6457C117.641 88.6097 118.477 90.3871 119.099 91.9288C119.138 92.0214 119.14 92.1258 119.103 92.2196C119.067 92.3133 118.996 92.3888 118.905 92.4297L118.759 92.4591ZM113.899 81.6571C113.827 81.6594 113.757 81.6401 113.696 81.6016C113.635 81.5631 113.588 81.5072 113.559 81.4411C112.684 79.3887 111.984 77.572 111.43 75.8928C111.399 75.8003 111.405 75.6991 111.446 75.611C111.488 75.5228 111.563 75.4548 111.653 75.4214C111.746 75.3903 111.848 75.3977 111.935 75.4418C112.022 75.486 112.089 75.5634 112.12 75.6571C112.664 77.3167 113.354 79.1138 114.229 81.1465C114.248 81.1909 114.258 81.2387 114.259 81.2871C114.259 81.3356 114.25 81.3836 114.232 81.4284C114.214 81.4732 114.187 81.514 114.154 81.5482C114.12 81.5824 114.079 81.6094 114.035 81.6277C114.002 81.6625 113.963 81.6894 113.918 81.7062L113.899 81.6571ZM110.341 70.4034C110.254 70.4022 110.171 70.37 110.105 70.3125C110.039 70.255 109.995 70.176 109.982 70.0892C109.815 69.037 109.73 67.9731 109.729 66.9075C109.721 65.9554 109.806 65.0049 109.982 64.0695C110.01 63.9824 110.068 63.9087 110.147 63.8626C110.225 63.8164 110.317 63.8009 110.406 63.8191C110.495 63.8373 110.574 63.8879 110.629 63.9612C110.683 64.0346 110.709 64.1255 110.701 64.2168C110.533 65.1035 110.451 66.0047 110.458 66.9075C110.461 67.9368 110.542 68.9644 110.701 69.9812C110.713 70.077 110.688 70.1737 110.632 70.252C110.576 70.3302 110.493 70.3843 110.4 70.4034H110.341ZM112.878 59.2479C112.794 59.2502 112.711 59.2224 112.645 59.1693C112.578 59.0997 112.54 59.0063 112.54 58.9091C112.54 58.8119 112.578 58.7185 112.645 58.6489C113.95 57.1087 115.537 55.8382 117.32 54.9075C117.406 54.8616 117.505 54.8514 117.598 54.879C117.691 54.9065 117.769 54.9696 117.816 55.0548C117.858 55.1425 117.865 55.2432 117.836 55.3363C117.808 55.4294 117.745 55.5078 117.66 55.5556C115.963 56.4425 114.451 57.653 113.209 59.1202C113.177 59.1745 113.131 59.2193 113.076 59.2503C113.022 59.2813 112.96 59.2974 112.898 59.297L112.878 59.2479ZM152.069 54.4361H151.991C150.125 54.0433 148.191 53.7094 146.237 53.4541C146.19 53.4481 146.144 53.4326 146.103 53.4085C146.061 53.3844 146.025 53.3522 145.996 53.3138C145.967 53.2754 145.946 53.2316 145.934 53.1848C145.922 53.1381 145.919 53.0894 145.926 53.0417C145.932 52.9938 145.948 52.9475 145.971 52.9057C145.995 52.8639 146.027 52.8273 146.065 52.798C146.103 52.7688 146.146 52.7474 146.193 52.7353C146.239 52.7232 146.287 52.7205 146.334 52.7274C148.278 52.9827 150.222 53.3166 152.166 53.7094C152.254 53.7297 152.331 53.7813 152.383 53.8545C152.435 53.9278 152.46 54.0177 152.451 54.1077C152.443 54.1977 152.403 54.2816 152.338 54.3438C152.273 54.406 152.188 54.4423 152.098 54.4459L152.069 54.4361ZM122.909 53.6014C122.862 53.6066 122.814 53.6023 122.769 53.5888C122.723 53.5753 122.681 53.5528 122.644 53.5228C122.607 53.4927 122.576 53.4555 122.553 53.4134C122.53 53.3713 122.516 53.325 122.511 53.2773C122.506 53.2296 122.51 53.1814 122.523 53.1353C122.537 53.0892 122.559 53.0463 122.589 53.0089C122.618 52.9715 122.655 52.9404 122.697 52.9174C122.738 52.8944 122.784 52.8799 122.831 52.8747C124.751 52.4396 126.701 52.154 128.663 52.0204C128.76 52.0149 128.855 52.0479 128.927 52.1121C129 52.1764 129.045 52.2668 129.052 52.3641C129.056 52.4126 129.051 52.4614 129.035 52.5077C129.02 52.5539 128.996 52.5966 128.965 52.6333C128.933 52.6699 128.894 52.6997 128.851 52.721C128.807 52.7422 128.76 52.7544 128.712 52.7569C126.782 52.883 124.864 53.1621 122.977 53.5916L122.909 53.6014ZM140.405 52.914C138.714 52.7962 136.702 52.6685 134.573 52.6292C134.477 52.6267 134.386 52.5862 134.318 52.5165C134.251 52.4468 134.214 52.3533 134.214 52.2561C134.214 52.2075 134.223 52.1594 134.242 52.1147C134.261 52.07 134.288 52.0295 134.322 51.9956C134.357 51.9617 134.398 51.9352 134.442 51.9175C134.487 51.8998 134.535 51.8914 134.583 51.8927C136.731 51.9418 138.763 52.0597 140.415 52.1775C140.463 52.18 140.51 52.1922 140.554 52.2134C140.597 52.2346 140.636 52.2645 140.667 52.3011C140.699 52.3377 140.723 52.3805 140.738 52.4267C140.753 52.4729 140.759 52.5218 140.755 52.5703C140.762 52.659 140.738 52.7473 140.686 52.8193C140.634 52.8913 140.559 52.9423 140.473 52.9631L140.405 52.914Z" fill="#2B7A78"/>
<path d="M56.7259 113.003C56.6607 113.004 56.5964 112.987 56.5399 112.954C56.4835 112.921 56.4369 112.873 56.4051 112.816C55.9136 111.954 55.4754 111.062 55.093 110.145C55.0739 110.1 55.0638 110.053 55.0633 110.004C55.0627 109.956 55.0718 109.908 55.0899 109.863C55.108 109.818 55.1348 109.777 55.1687 109.743C55.2026 109.709 55.243 109.682 55.2874 109.664C55.3764 109.627 55.476 109.628 55.5649 109.664C55.6538 109.701 55.7251 109.771 55.7636 109.86C56.139 110.748 56.5641 111.614 57.037 112.453C57.0733 112.507 57.0938 112.571 57.0961 112.637C57.0984 112.703 57.0825 112.768 57.0502 112.825C57.0179 112.882 56.9704 112.929 56.9131 112.96C56.8558 112.992 56.791 113.006 56.7259 113.003Z" fill="#2B7A78"/>
<path d="M174.776 190.621H137.878V198.261H174.776V190.621Z" fill="white"/>
<path opacity="0.1" d="M174.776 190.621H137.878V198.261H174.776V190.621Z" fill="black"/>
<path opacity="0.1" d="M153.421 190.621H137.878V198.261H153.421V190.621Z" fill="black"/>
<path opacity="0.1" d="M137.878 191.721H170.722L137.878 192.663V191.721Z" fill="black"/>
<path opacity="0.1" d="M174.776 193.046L146.306 193.763H174.776V193.046Z" fill="black"/>
<path opacity="0.1" d="M139.385 195.186L153.42 194.606L174.056 195.186L153.42 195.51L139.385 195.186Z" fill="black"/>
<path opacity="0.1" d="M137.878 196.808H162.198L137.878 197.387V196.808Z" fill="black"/>
<path opacity="0.1" d="M174.717 197.387L158.475 197.691H174.776L174.717 197.387Z" fill="black"/>
<path d="M169.643 182.979H132.746V190.619H169.643V182.979Z" fill="white"/>
<path opacity="0.1" d="M169.643 182.979H132.746V190.619H169.643V182.979Z" fill="black"/>
<path opacity="0.1" d="M148.289 182.979H132.746V190.619H148.289V182.979Z" fill="black"/>
<path opacity="0.1" d="M132.746 184.079H165.59L132.746 185.012V184.079Z" fill="black"/>
<path opacity="0.1" d="M169.643 185.406L141.174 186.123H169.643V185.406Z" fill="black"/>
<path opacity="0.1" d="M134.243 187.545L148.279 186.956L168.914 187.545L148.279 187.869L134.243 187.545Z" fill="black"/>
<path opacity="0.1" d="M132.746 189.155H157.066L132.746 189.744V189.155Z" fill="black"/>
<path opacity="0.1" d="M169.585 189.746L153.343 190.051H169.643L169.585 189.746Z" fill="black"/>
<path d="M173.852 175.329H136.955V182.969H173.852V175.329Z" fill="white"/>
<path opacity="0.1" d="M173.852 175.329H136.955V182.969H173.852V175.329Z" fill="black"/>
<path opacity="0.1" d="M152.497 175.329H136.955V182.969H152.497V175.329Z" fill="black"/>
<path opacity="0.1" d="M136.955 176.431H169.799L136.955 177.373V176.431Z" fill="black"/>
<path opacity="0.1" d="M173.852 177.755L145.382 178.472H173.852V177.755Z" fill="black"/>
<path opacity="0.1" d="M138.461 179.897L152.497 179.317L173.133 179.897L152.497 180.221L138.461 179.897Z" fill="black"/>
<path opacity="0.1" d="M136.955 181.516H161.275L136.955 182.095V181.516Z" fill="black"/>
<path opacity="0.1" d="M173.803 182.096L157.561 182.4H173.852L173.803 182.096Z" fill="black"/>
<path d="M198.434 198.102L199.386 194.439H238.811L256.958 196.276L257.648 198.102H198.434Z" fill="#263238"/>
<path opacity="0.4" d="M238.811 194.439V198.102H198.434L199.386 194.439H238.811Z" fill="black"/>
<path d="M230.889 176.911C230.942 177.355 230.9 177.806 230.766 178.232C230.632 178.658 230.41 179.051 230.113 179.383C229.817 179.715 229.453 179.979 229.047 180.157C228.641 180.336 228.202 180.424 227.759 180.417H167.379C166.435 180.396 165.53 180.029 164.834 179.384C164.139 178.739 163.699 177.86 163.598 176.911L160.011 137.857C159.972 137.476 159.999 137.09 160.089 136.718C160.256 136.032 160.65 135.424 161.204 134.994C161.759 134.564 162.442 134.337 163.141 134.351H223.56C224.505 134.372 225.409 134.739 226.105 135.384C226.801 136.029 227.24 136.908 227.341 137.857L230.889 176.911Z" fill="#263238"/>
<path opacity="0.4" d="M227.546 180.418H167.379C166.435 180.397 165.53 180.03 164.834 179.385C164.139 178.74 163.699 177.861 163.598 176.912L160.011 137.858C159.972 137.476 159.999 137.091 160.089 136.719H220.256C221.2 136.739 222.104 137.107 222.8 137.752C223.496 138.397 223.935 139.276 224.037 140.224L227.623 179.279C227.662 179.66 227.636 180.045 227.546 180.418Z" fill="black"/>
<path d="M186.061 156.466H198.551L195.227 192.594L214.978 195.589V198.103H173.376V195.589L181.9 192.594L186.061 156.466Z" fill="#263238"/>
<path opacity="0.1" d="M198.551 156.466L189.298 197.533L181.901 197.307L186.061 156.466H198.551Z" fill="white"/>
<path d="M198.492 355.626H192.544L181.842 205.135H189.744L198.492 355.626Z" fill="#263238"/>
<path opacity="0.4" d="M198.502 355.626H192.544L182.367 212.617L181.842 205.38H189.744L190.172 212.617L198.502 355.626Z" fill="white"/>
<path opacity="0.2" d="M190.172 212.254H182.367L181.842 205.38H189.744L190.172 212.254Z" fill="black"/>
<path d="M242.193 355.626H236.244L235.272 205.135H243.165L242.193 355.626Z" fill="#263238"/>
<path opacity="0.5" d="M243.175 205.38L243.019 229.665L242.203 355.626H236.244L235.428 229.665L235.272 205.38H243.175Z" fill="white"/>
<path opacity="0.2" d="M243.175 205.38L243.019 229.93H235.428L235.272 205.38H243.175Z" fill="black"/>
<path d="M305.413 355.626H299.464L288.762 205.135H296.665L305.413 355.626Z" fill="#263238"/>
<path opacity="0.5" d="M305.422 355.626H299.464L289.287 212.617L288.762 205.38H296.665L297.092 212.617L305.422 355.626Z" fill="white"/>
<path opacity="0.2" d="M297.092 212.254H289.287L288.762 205.38H296.665L297.092 212.254Z" fill="black"/>
<path d="M130.374 355.626H124.426L133.174 205.135H141.076L130.374 355.626Z" fill="#263238"/>
<path opacity="0.5" d="M141.076 205.38L140.551 212.617L130.374 355.626H124.426L132.746 212.617L133.174 205.38H141.076Z" fill="white"/>
<path opacity="0.2" d="M133.174 205.38H141.076L140.551 212.254H132.746L133.174 205.38Z" fill="black"/>
<path d="M126.914 201.383H302.924V206.794C302.924 207.072 302.87 207.348 302.764 207.605C302.659 207.863 302.504 208.097 302.309 208.293C302.114 208.49 301.883 208.647 301.628 208.753C301.373 208.86 301.1 208.915 300.825 208.915H129.014C128.457 208.915 127.923 208.691 127.529 208.293C127.136 207.896 126.914 207.356 126.914 206.794V201.383Z" fill="#2B7A78"/>
<path opacity="0.6" d="M126.914 201.383H302.924V206.794C302.924 207.072 302.87 207.348 302.764 207.605C302.659 207.863 302.504 208.097 302.309 208.293C302.114 208.49 301.883 208.647 301.628 208.753C301.373 208.86 301.1 208.915 300.825 208.915H129.014C128.457 208.915 127.923 208.691 127.529 208.293C127.136 207.896 126.914 207.356 126.914 206.794V201.383Z" fill="white"/>
<path opacity="0.2" d="M302.924 201.373H126.914V205.144H302.924V201.373Z" fill="black"/>
<path d="M306.617 202.364H123.22C122.664 202.364 122.13 202.141 121.736 201.743C121.342 201.345 121.121 200.806 121.121 200.243C121.121 199.68 121.342 199.139 121.735 198.74C122.129 198.341 122.663 198.115 123.22 198.112H306.617C307.175 198.115 307.709 198.341 308.103 198.74C308.496 199.139 308.717 199.68 308.717 200.243C308.717 200.806 308.496 201.345 308.102 201.743C307.708 202.141 307.174 202.364 306.617 202.364Z" fill="#2B7A78"/>
<path opacity="0.6" d="M306.617 202.364H123.22C122.664 202.364 122.13 202.141 121.736 201.743C121.342 201.345 121.121 200.806 121.121 200.243C121.121 199.68 121.342 199.139 121.735 198.74C122.129 198.341 122.663 198.115 123.22 198.112H306.617C307.175 198.115 307.709 198.341 308.103 198.74C308.496 199.139 308.717 199.68 308.717 200.243C308.717 200.806 308.496 201.345 308.102 201.743C307.708 202.141 307.174 202.364 306.617 202.364Z" fill="white"/>
<path d="M263.227 191.563L265.482 188.146C265.705 187.81 266.005 187.535 266.358 187.345C266.711 187.155 267.104 187.055 267.504 187.056H270.362C270.599 187.056 270.835 187.093 271.062 187.164L281.258 190.286C281.837 190.461 282.33 190.85 282.638 191.376L284.106 193.861L263.227 191.563Z" fill="#2B7A78"/>
<path opacity="0.2" d="M284.106 193.861L269.244 192.231L263.208 191.563L265.463 188.146C265.685 187.81 265.986 187.535 266.338 187.345C266.691 187.155 267.085 187.055 267.484 187.056H270.342C270.582 187.057 270.821 187.094 271.052 187.164L271.275 187.232L281.238 190.286C281.821 190.46 282.317 190.849 282.628 191.376L284.106 193.861Z" fill="black"/>
<path opacity="0.2" d="M284.106 193.861L269.244 192.231L271.276 187.232L281.239 190.286C281.821 190.46 282.318 190.849 282.629 191.376L284.106 193.861Z" fill="black"/>
<path d="M291.163 197.778V198.102H259.65L260.817 193.497C261.033 192.651 261.522 191.902 262.207 191.368C262.892 190.835 263.733 190.547 264.598 190.551H278.575C279.04 190.549 279.501 190.632 279.936 190.796L281.686 191.454L288.626 194.066C289.375 194.347 290.02 194.854 290.474 195.518C290.928 196.182 291.168 196.971 291.163 197.778Z" fill="#2B7A78"/>
<path opacity="0.2" d="M291.163 197.778V198.102H278.225L278.915 193.124C278.96 192.815 279.072 192.52 279.244 192.261C279.416 192.002 279.643 191.785 279.908 191.626C280.174 191.466 280.471 191.369 280.779 191.341C281.086 191.313 281.396 191.355 281.686 191.464L288.626 194.076C289.373 194.356 290.018 194.861 290.471 195.524C290.925 196.186 291.166 196.973 291.163 197.778Z" fill="black"/>
<path d="M280.238 194.722L284.359 182.241C284.399 182.114 284.466 181.997 284.556 181.899C284.646 181.801 284.755 181.724 284.878 181.673C285 181.623 285.132 181.6 285.264 181.607C285.396 181.613 285.525 181.649 285.642 181.711C285.821 181.815 285.963 181.973 286.047 182.164C286.131 182.355 286.152 182.568 286.108 182.772L282.638 196.087C282.638 196.087 280.335 197.03 280.238 194.722Z" fill="#263238"/>
<path opacity="0.2" d="M263.227 197.074H261.4L261.75 195.257H263.577L263.227 197.074Z" fill="black"/>
<path opacity="0.2" d="M265.949 197.002H264.121L264.471 195.186H266.299L265.949 197.002Z" fill="black"/>
</svg>
