<svg width="326" height="300" viewBox="0 0 326 300" fill="none" xmlns="http://www.w3.org/2000/svg">
<path d="M140.63 299.538C209.204 299.538 264.794 296.259 264.794 292.214C264.794 288.17 209.204 284.891 140.63 284.891C72.056 284.891 16.4658 288.17 16.4658 292.214C16.4658 296.259 72.056 299.538 140.63 299.538Z" fill="#2B7A78"/>
<path opacity="0.8" d="M140.63 299.538C209.204 299.538 264.794 296.259 264.794 292.214C264.794 288.17 209.204 284.891 140.63 284.891C72.056 284.891 16.4658 288.17 16.4658 292.214C16.4658 296.259 72.056 299.538 140.63 299.538Z" fill="white"/>
<path d="M233.934 13.7227H109.087C100.468 13.7227 93.4805 20.3384 93.4805 28.4994V278.053C93.4805 286.214 100.468 292.83 109.087 292.83H233.934C242.554 292.83 249.541 286.214 249.541 278.053V28.4994C249.541 20.3384 242.554 13.7227 233.934 13.7227Z" fill="#263238"/>
<path d="M242.601 44.3711H100.412V262.181H242.601V44.3711Z" fill="white" stroke="#263238" stroke-width="1.33739" stroke-miterlimit="10"/>
<path d="M193.304 132.568C205.34 121.172 205.34 102.695 193.304 91.2996C181.268 79.9038 161.754 79.9038 149.718 91.2996C137.682 102.695 137.682 121.172 149.718 132.568C161.754 143.963 181.268 143.963 193.304 132.568Z" fill="#2B7A78"/>
<path d="M211.974 248.483H131.056C130.874 248.484 130.693 248.451 130.524 248.386C130.356 248.32 130.203 248.224 130.074 248.103C129.944 247.981 129.842 247.837 129.772 247.677C129.702 247.518 129.666 247.347 129.666 247.175C129.665 247.002 129.7 246.83 129.77 246.67C129.839 246.51 129.941 246.365 130.071 246.243C130.2 246.12 130.354 246.023 130.523 245.957C130.692 245.892 130.873 245.858 131.056 245.859H211.974C212.156 245.859 212.336 245.893 212.504 245.96C212.672 246.026 212.825 246.123 212.953 246.245C213.082 246.367 213.183 246.513 213.252 246.672C213.321 246.832 213.356 247.003 213.355 247.175C213.355 247.522 213.21 247.855 212.951 248.1C212.691 248.345 212.34 248.483 211.974 248.483Z" fill="#2B7A78"/>
<path d="M214.609 157.52H128.413C126.634 157.52 125.192 158.885 125.192 160.569V170.19C125.192 171.874 126.634 173.239 128.413 173.239H214.609C216.388 173.239 217.83 171.874 217.83 170.19V160.569C217.83 158.885 216.388 157.52 214.609 157.52Z" fill="#2B7A78"/>
<path d="M214.609 186.922H128.413C126.634 186.922 125.192 188.287 125.192 189.972V199.592C125.192 201.276 126.634 202.642 128.413 202.642H214.609C216.388 202.642 217.83 201.276 217.83 199.592V189.972C217.83 188.287 216.388 186.922 214.609 186.922Z" fill="#2B7A78"/>
<path d="M186.856 126.489L177.788 121.546V117.462C179.101 115.958 180.052 114.201 180.575 112.314C180.887 112.419 181.216 112.473 181.547 112.473C182.672 112.473 183.386 109.173 183.507 106.815C184.816 104.191 183.033 102.655 183.033 102.655C183.033 102.655 183.772 101.955 184.262 99.1491C184.752 96.3428 182.535 97.514 180.808 94.9435C179.081 92.373 177.844 89.5743 172.173 89.5743C170.611 89.5256 169.069 89.9232 167.748 90.7153C166.427 91.5074 165.389 92.6573 164.767 94.0157C163.356 94.0205 161.949 94.1761 160.575 94.4796C158.84 94.9435 158.35 100.32 159.828 102.427C160.489 103.578 160.842 104.866 160.856 106.176C160.462 105.72 160.052 105.598 159.828 106.633C159.338 108.967 161.313 112.238 161.313 112.238L162.334 111.964C162.848 113.981 163.839 115.861 165.233 117.462V121.546L156.165 126.489C155.106 127.068 154.226 127.901 153.614 128.903C153.002 129.906 152.68 131.043 152.679 132.201V135.03C158.072 138.975 164.695 141.115 171.511 141.115C178.326 141.115 184.949 138.975 190.342 135.03V132.201C190.343 131.043 190.021 129.905 189.409 128.902C188.797 127.899 187.917 127.067 186.856 126.489Z" fill="#263238"/>
<path d="M136.928 198.733C136.72 198.73 136.521 198.651 136.374 198.513C136.295 198.446 136.231 198.364 136.189 198.272C136.146 198.18 136.124 198.081 136.125 197.98C136.127 197.843 136.169 197.709 136.245 197.592L137.691 195.402L134.872 195.486C134.765 195.492 134.659 195.477 134.559 195.442C134.459 195.406 134.369 195.351 134.293 195.28C134.162 195.141 134.09 194.961 134.09 194.775C134.09 194.588 134.162 194.408 134.293 194.269C134.367 194.195 134.457 194.138 134.557 194.101C134.657 194.065 134.765 194.049 134.872 194.056L137.651 194.155L136.221 191.972C136.143 191.853 136.101 191.717 136.1 191.577C136.1 191.476 136.122 191.377 136.164 191.285C136.207 191.193 136.27 191.111 136.349 191.044C136.497 190.906 136.696 190.827 136.904 190.824C137.041 190.825 137.174 190.862 137.29 190.932C137.405 191.002 137.497 191.102 137.554 191.219L138.928 193.569L140.285 191.234C140.35 191.11 140.449 191.004 140.572 190.929C140.695 190.854 140.838 190.813 140.984 190.809C141.086 190.809 141.186 190.83 141.279 190.869C141.371 190.908 141.454 190.965 141.522 191.037C141.67 191.182 141.751 191.376 141.747 191.577C141.747 191.707 141.711 191.836 141.643 191.949L140.189 194.155L143.008 194.056C143.115 194.049 143.223 194.065 143.323 194.101C143.422 194.138 143.513 194.195 143.587 194.269C143.724 194.404 143.799 194.584 143.795 194.771C143.795 194.959 143.721 195.141 143.587 195.28C143.511 195.351 143.42 195.406 143.321 195.442C143.221 195.477 143.115 195.492 143.008 195.486L140.173 195.402L141.587 197.57C141.666 197.691 141.708 197.83 141.707 197.973C141.707 198.174 141.622 198.368 141.472 198.51C141.321 198.653 141.117 198.733 140.904 198.733C140.766 198.731 140.632 198.692 140.518 198.619C140.404 198.546 140.314 198.443 140.261 198.322L138.92 196.041L137.586 198.322C137.527 198.442 137.435 198.543 137.318 198.616C137.202 198.688 137.067 198.729 136.928 198.733Z" fill="#263238"/>
<path d="M149.956 198.733C149.748 198.73 149.55 198.651 149.402 198.513C149.323 198.446 149.26 198.364 149.217 198.272C149.174 198.18 149.152 198.081 149.153 197.98C149.155 197.843 149.197 197.709 149.273 197.592L150.719 195.402L147.908 195.486C147.801 195.49 147.694 195.475 147.593 195.439C147.492 195.404 147.4 195.35 147.322 195.28C147.215 195.176 147.144 195.044 147.118 194.901C147.091 194.758 147.111 194.611 147.175 194.479C147.238 194.347 147.342 194.236 147.472 194.161C147.603 194.085 147.755 194.049 147.908 194.056L150.679 194.155L149.249 191.972C149.172 191.853 149.13 191.717 149.129 191.577C149.128 191.476 149.15 191.377 149.193 191.285C149.236 191.193 149.299 191.111 149.378 191.044C149.526 190.906 149.724 190.827 149.932 190.824C150.069 190.825 150.203 190.862 150.318 190.932C150.433 191.002 150.525 191.102 150.583 191.219L151.956 193.569L153.314 191.234C153.378 191.11 153.477 191.004 153.6 190.929C153.724 190.854 153.866 190.813 154.013 190.809C154.114 190.808 154.215 190.828 154.308 190.868C154.4 190.907 154.483 190.965 154.551 191.037C154.625 191.108 154.684 191.192 154.724 191.285C154.764 191.377 154.784 191.477 154.784 191.577C154.781 191.708 154.742 191.836 154.671 191.949L153.217 194.155L156.045 194.071C156.151 194.064 156.257 194.08 156.355 194.117C156.454 194.154 156.543 194.211 156.615 194.284C156.752 194.419 156.827 194.599 156.824 194.786C156.823 194.975 156.749 195.156 156.615 195.296C156.541 195.366 156.452 195.421 156.353 195.457C156.255 195.492 156.15 195.507 156.045 195.501L153.201 195.417L154.615 197.585C154.694 197.706 154.736 197.845 154.735 197.988C154.735 198.19 154.651 198.383 154.5 198.526C154.35 198.668 154.145 198.748 153.932 198.748C153.795 198.747 153.66 198.707 153.546 198.634C153.432 198.561 153.343 198.458 153.29 198.338L151.948 196.056L150.615 198.338C150.554 198.454 150.46 198.552 150.344 198.622C150.228 198.692 150.094 198.73 149.956 198.733Z" fill="#263238"/>
<path d="M162.992 198.733C162.782 198.732 162.58 198.653 162.43 198.513C162.351 198.446 162.288 198.364 162.245 198.272C162.202 198.18 162.18 198.081 162.181 197.98C162.184 197.843 162.225 197.709 162.302 197.592L163.747 195.402L160.936 195.486C160.785 195.491 160.635 195.454 160.506 195.379C160.377 195.304 160.274 195.194 160.211 195.064C160.149 194.933 160.128 194.788 160.153 194.646C160.177 194.505 160.246 194.373 160.35 194.269C160.426 194.196 160.517 194.139 160.618 194.102C160.72 194.065 160.828 194.05 160.936 194.056L163.707 194.155L162.277 191.972C162.2 191.853 162.158 191.717 162.157 191.577C162.16 191.477 162.183 191.378 162.226 191.287C162.268 191.196 162.33 191.113 162.406 191.044C162.556 190.904 162.758 190.825 162.968 190.824C163.104 190.826 163.236 190.864 163.349 190.934C163.463 191.004 163.554 191.103 163.611 191.219L164.984 193.569L166.342 191.234C166.406 191.11 166.505 191.004 166.629 190.929C166.752 190.854 166.894 190.813 167.041 190.809C167.142 190.808 167.243 190.828 167.336 190.868C167.429 190.907 167.511 190.965 167.579 191.037C167.653 191.108 167.712 191.192 167.752 191.285C167.792 191.377 167.812 191.477 167.812 191.577C167.809 191.708 167.77 191.836 167.699 191.949L166.245 194.155L169.073 194.056C169.177 194.046 169.282 194.057 169.381 194.089C169.48 194.121 169.57 194.173 169.646 194.24C169.722 194.308 169.782 194.391 169.822 194.482C169.862 194.574 169.88 194.672 169.876 194.771C169.878 194.958 169.806 195.14 169.675 195.28C169.6 195.351 169.509 195.406 169.409 195.442C169.31 195.477 169.203 195.492 169.097 195.486L166.262 195.402L167.667 197.57C167.746 197.691 167.788 197.83 167.788 197.973C167.785 198.072 167.762 198.171 167.719 198.262C167.676 198.354 167.615 198.436 167.539 198.505C167.469 198.576 167.384 198.633 167.29 198.672C167.197 198.712 167.095 198.732 166.992 198.733C166.856 198.731 166.723 198.691 166.61 198.618C166.497 198.545 166.41 198.442 166.358 198.322L165.008 196.041L163.675 198.322C163.615 198.446 163.519 198.55 163.398 198.623C163.276 198.696 163.136 198.734 162.992 198.733Z" fill="#263238"/>
<path d="M176.021 198.733C175.81 198.732 175.608 198.653 175.459 198.513C175.307 198.372 175.221 198.181 175.218 197.98C175.215 197.843 175.254 197.709 175.33 197.592L176.776 195.402L173.965 195.486C173.857 195.49 173.75 195.475 173.649 195.439C173.549 195.404 173.456 195.35 173.378 195.28C173.247 195.141 173.175 194.961 173.175 194.775C173.175 194.588 173.247 194.408 173.378 194.269C173.456 194.198 173.548 194.143 173.648 194.106C173.749 194.069 173.857 194.052 173.965 194.056L176.744 194.155L175.322 191.972C175.244 191.853 175.203 191.717 175.202 191.577C175.204 191.477 175.227 191.378 175.27 191.287C175.313 191.196 175.374 191.113 175.451 191.044C175.6 190.904 175.802 190.825 176.013 190.824C176.15 190.825 176.283 190.862 176.399 190.932C176.514 191.002 176.606 191.102 176.663 191.219L178.029 193.569L179.386 191.234C179.451 191.11 179.55 191.004 179.673 190.929C179.796 190.854 179.939 190.813 180.085 190.809C180.187 190.808 180.287 190.828 180.38 190.868C180.473 190.907 180.556 190.965 180.623 191.037C180.698 191.108 180.757 191.192 180.797 191.285C180.837 191.377 180.857 191.477 180.856 191.577C180.853 191.708 180.815 191.836 180.744 191.949L179.29 194.155L182.117 194.056C182.221 194.046 182.326 194.057 182.425 194.089C182.524 194.121 182.615 194.173 182.691 194.24C182.767 194.308 182.827 194.391 182.866 194.482C182.906 194.574 182.925 194.672 182.921 194.771C182.922 194.958 182.851 195.14 182.72 195.28C182.644 195.351 182.553 195.406 182.454 195.442C182.354 195.477 182.248 195.492 182.141 195.486L179.306 195.402L180.712 197.57C180.791 197.691 180.833 197.83 180.832 197.973C180.833 198.073 180.811 198.172 180.768 198.264C180.725 198.356 180.662 198.438 180.583 198.505C180.513 198.576 180.429 198.633 180.335 198.672C180.241 198.712 180.14 198.732 180.037 198.733C179.9 198.731 179.767 198.691 179.655 198.618C179.542 198.545 179.454 198.442 179.402 198.322L178.053 196.041L176.72 198.322C176.658 198.448 176.559 198.554 176.435 198.627C176.311 198.7 176.167 198.737 176.021 198.733Z" fill="#263238"/>
<path d="M189.049 198.733C188.838 198.732 188.636 198.653 188.487 198.513C188.362 198.393 188.283 198.238 188.261 198.072C188.24 197.905 188.276 197.737 188.366 197.592L189.804 195.402L186.993 195.486C186.886 195.49 186.778 195.475 186.678 195.439C186.577 195.404 186.485 195.35 186.406 195.28C186.275 195.141 186.203 194.961 186.203 194.775C186.203 194.588 186.275 194.408 186.406 194.269C186.484 194.198 186.576 194.143 186.677 194.106C186.778 194.069 186.885 194.052 186.993 194.056L189.772 194.155L188.342 191.972C188.264 191.853 188.223 191.717 188.222 191.577C188.225 191.376 188.311 191.185 188.463 191.044C188.612 190.904 188.814 190.825 189.025 190.824C189.162 190.825 189.296 190.862 189.411 190.932C189.526 191.002 189.618 191.102 189.676 191.219L191.041 193.569L192.399 191.234C192.463 191.11 192.562 191.004 192.685 190.929C192.808 190.854 192.951 190.813 193.097 190.809C193.2 190.808 193.302 190.828 193.396 190.867C193.49 190.907 193.575 190.964 193.644 191.037C193.791 191.182 193.872 191.376 193.869 191.577C193.866 191.708 193.827 191.836 193.756 191.949L192.302 194.155L195.13 194.056C195.234 194.046 195.339 194.058 195.437 194.089C195.536 194.121 195.627 194.173 195.703 194.24C195.779 194.308 195.839 194.391 195.879 194.482C195.918 194.574 195.937 194.672 195.933 194.771C195.935 194.958 195.863 195.14 195.732 195.28C195.656 195.351 195.566 195.406 195.466 195.442C195.366 195.477 195.26 195.492 195.154 195.486L192.318 195.402L193.724 197.57C193.803 197.691 193.845 197.83 193.844 197.973C193.845 198.073 193.823 198.172 193.78 198.264C193.738 198.356 193.674 198.438 193.595 198.505C193.526 198.576 193.441 198.633 193.347 198.672C193.253 198.712 193.152 198.732 193.049 198.733C192.913 198.731 192.78 198.691 192.667 198.618C192.554 198.545 192.466 198.442 192.415 198.322L191.065 196.041L189.732 198.322C189.672 198.446 189.575 198.55 189.454 198.623C189.333 198.696 189.193 198.734 189.049 198.733Z" fill="#263238"/>
<path d="M202.078 198.733C201.87 198.73 201.672 198.651 201.524 198.513C201.445 198.446 201.382 198.364 201.339 198.272C201.296 198.18 201.274 198.081 201.275 197.98C201.278 197.843 201.319 197.709 201.396 197.592L202.833 195.402L200.022 195.486C199.919 195.493 199.815 195.48 199.717 195.447C199.619 195.415 199.53 195.363 199.454 195.296C199.379 195.229 199.319 195.147 199.278 195.057C199.238 194.966 199.217 194.869 199.219 194.771C199.218 194.678 199.237 194.586 199.274 194.499C199.312 194.413 199.366 194.335 199.436 194.269C199.51 194.195 199.6 194.138 199.7 194.101C199.8 194.065 199.907 194.049 200.014 194.056L202.793 194.155L201.363 191.972C201.286 191.853 201.244 191.717 201.243 191.577C201.246 191.376 201.333 191.185 201.484 191.044C201.634 190.904 201.835 190.825 202.046 190.824C202.183 190.825 202.317 190.862 202.432 190.932C202.547 191.002 202.639 191.102 202.697 191.219L204.062 193.569L205.428 191.234C205.492 191.111 205.589 191.006 205.711 190.931C205.833 190.856 205.974 190.814 206.119 190.809C206.221 190.808 206.323 190.828 206.417 190.867C206.512 190.907 206.596 190.964 206.665 191.037C206.812 191.182 206.893 191.376 206.89 191.577C206.889 191.707 206.853 191.836 206.785 191.949L205.331 194.155L208.151 194.056C208.258 194.049 208.365 194.065 208.465 194.101C208.565 194.138 208.655 194.195 208.729 194.269C208.866 194.404 208.941 194.584 208.938 194.771C208.937 194.959 208.863 195.141 208.729 195.28C208.653 195.351 208.563 195.406 208.463 195.442C208.363 195.477 208.257 195.492 208.151 195.486L205.315 195.402L206.721 197.57C206.8 197.691 206.842 197.83 206.842 197.973C206.839 198.173 206.752 198.365 206.601 198.505C206.454 198.646 206.255 198.728 206.046 198.733C205.91 198.731 205.777 198.691 205.664 198.618C205.551 198.545 205.464 198.442 205.412 198.322L204.062 196.041L202.729 198.322C202.671 198.441 202.58 198.542 202.465 198.615C202.35 198.687 202.216 198.728 202.078 198.733Z" fill="#263238"/>
<g style="mix-blend-mode:multiply">
<path d="M242.601 44.6602H100.412V53.0942H242.601V44.6602Z" fill="#2B7A78"/>
</g>
<path d="M186.969 29.1218H156.045C155.487 29.1218 154.951 28.9119 154.557 28.5382C154.162 28.1645 153.94 27.6577 153.94 27.1293C153.94 26.6008 154.162 26.094 154.557 25.7203C154.951 25.3466 155.487 25.1367 156.045 25.1367H186.969C187.528 25.1367 188.063 25.3466 188.458 25.7203C188.852 26.094 189.074 26.6008 189.074 27.1293C189.074 27.6577 188.852 28.1645 188.458 28.5382C188.063 28.9119 187.528 29.1218 186.969 29.1218Z" fill="#2B7A78" stroke="#263238" stroke-width="1.33739" stroke-linecap="round" stroke-linejoin="round"/>
<path d="M179.941 274.485C179.943 272.905 179.449 271.36 178.523 270.046C177.597 268.732 176.28 267.707 174.738 267.101C173.197 266.496 171.501 266.337 169.864 266.645C168.227 266.953 166.723 267.714 165.543 268.831C164.363 269.948 163.56 271.372 163.235 272.922C162.91 274.471 163.077 276.077 163.717 277.537C164.356 278.996 165.438 280.243 166.827 281.12C168.215 281.997 169.846 282.464 171.515 282.463C173.749 282.461 175.891 281.62 177.471 280.124C179.051 278.628 179.939 276.6 179.941 274.485Z" fill="#2B7A78"/>
<path d="M175.789 270.441H167.242V278.533H175.789V270.441Z" fill="#2B7A78" stroke="#263238" stroke-width="1.33739" stroke-linecap="round" stroke-linejoin="round"/>
<path d="M273.318 182.662C273.318 182.662 262.121 155.724 272.089 152.523C282.467 149.184 282.009 166.972 281.607 175.642C280.764 194.168 278.603 197.613 276.989 193.088L273.318 182.662ZM269.952 203.674C273.029 207.477 273.896 203.538 268.346 185.749C265.743 177.384 260.088 160.462 251.413 166.813C243.084 172.897 262.908 194.951 262.908 194.951L269.952 203.674ZM264.008 219.113C266.94 221.577 266.996 218.466 260.032 205.621C256.763 199.606 249.847 187.43 244.184 193.453C238.746 199.264 257.277 213.386 257.277 213.386L264.008 219.113ZM257.582 237.472C260.514 239.943 260.57 236.825 253.606 223.988C250.337 217.972 243.421 205.789 237.758 211.82C232.353 217.645 250.827 231.768 250.827 231.768L257.582 237.472ZM276.137 200.1C271.446 201.834 275.173 203.72 294.764 203.667C303.953 203.667 322.717 203.271 318.717 193.605C314.885 184.32 286.981 196.145 286.981 196.145L276.137 200.1ZM270.796 212.451C265.832 213.265 269.093 215.82 288.306 219.455C297.31 221.166 315.777 224.322 313.889 214.132C312.082 204.306 282.25 210.648 282.25 210.648L270.796 212.451ZM264.819 227.532C260.594 228.11 263.293 230.338 279.446 233.836C287.021 235.479 302.564 238.559 301.214 229.867C299.929 221.501 274.547 226.231 274.547 226.231L264.819 227.532ZM260.281 241.502C256.145 242.499 259.076 244.445 275.543 246.301C283.254 247.168 299.053 248.674 296.748 240.164C294.523 231.996 269.816 239.228 269.816 239.228L260.281 241.502ZM284.491 184.943C282.081 190.054 287.085 189.278 304.098 175.224C312.066 168.63 328.05 154.834 315.391 147.967C303.238 141.366 290.17 173.216 290.17 173.216L284.491 184.943ZM260.908 259.701C258.361 261.108 260.86 261.656 272.539 259.45C278.017 258.424 289.158 256.142 285.39 251.64C281.744 247.305 266.803 256.431 266.803 256.431L260.908 259.701Z" fill="#2B7A78"/>
<path opacity="0.3" d="M273.318 182.662C273.318 182.662 262.121 155.724 272.089 152.523C282.467 149.184 282.009 166.972 281.607 175.642C280.764 194.168 278.603 197.613 276.989 193.088L273.318 182.662ZM269.952 203.674C273.029 207.477 273.896 203.538 268.346 185.749C265.743 177.384 260.088 160.462 251.413 166.813C243.084 172.897 262.908 194.951 262.908 194.951L269.952 203.674ZM264.008 219.113C266.94 221.577 266.996 218.466 260.032 205.621C256.763 199.606 249.847 187.43 244.184 193.453C238.746 199.264 257.277 213.386 257.277 213.386L264.008 219.113ZM257.582 237.472C260.514 239.943 260.57 236.825 253.606 223.988C250.337 217.972 243.421 205.789 237.758 211.82C232.353 217.645 250.827 231.768 250.827 231.768L257.582 237.472ZM276.137 200.1C271.446 201.834 275.173 203.72 294.764 203.667C303.953 203.667 322.717 203.271 318.717 193.605C314.885 184.32 286.981 196.145 286.981 196.145L276.137 200.1ZM270.796 212.451C265.832 213.265 269.093 215.82 288.306 219.455C297.31 221.166 315.777 224.322 313.889 214.132C312.082 204.306 282.25 210.648 282.25 210.648L270.796 212.451ZM264.819 227.532C260.594 228.11 263.293 230.338 279.446 233.836C287.021 235.479 302.564 238.559 301.214 229.867C299.929 221.501 274.547 226.231 274.547 226.231L264.819 227.532ZM260.281 241.502C256.145 242.499 259.076 244.445 275.543 246.301C283.254 247.168 299.053 248.674 296.748 240.164C294.523 231.996 269.816 239.228 269.816 239.228L260.281 241.502ZM284.491 184.943C282.081 190.054 287.085 189.278 304.098 175.224C312.066 168.63 328.05 154.834 315.391 147.967C303.238 141.366 290.17 173.216 290.17 173.216L284.491 184.943ZM260.908 259.701C258.361 261.108 260.86 261.656 272.539 259.45C278.017 258.424 289.158 256.142 285.39 251.64C281.744 247.305 266.803 256.431 266.803 256.431L260.908 259.701Z" fill="white"/>
<path d="M278.258 195.203L276.306 164.456L278.258 195.203ZM272.081 205.349L259.743 178.906L272.081 205.349ZM303.921 197.66L274.354 201.675L303.921 197.66ZM265.687 219.6L249.679 200.154L265.687 219.6ZM268.499 213.638L290.556 214.688L268.499 213.638ZM263.278 228.552L280.146 230.134L263.278 228.552ZM259.205 238.028L250.828 226.095L259.205 238.028ZM258.241 242.241L278.073 242.416L258.241 242.241ZM254.225 277.468C254.358 277.458 254.482 277.399 254.569 277.304C254.656 277.208 254.7 277.084 254.691 276.958C253.43 259.025 260.756 229.654 272.507 205.546C280.017 190.138 309.456 159.855 309.769 159.551C309.864 159.461 309.917 159.339 309.917 159.212C309.917 159.085 309.864 158.964 309.769 158.874C309.723 158.83 309.668 158.795 309.607 158.771C309.546 158.747 309.481 158.734 309.416 158.734C309.35 158.734 309.285 158.747 309.224 158.771C309.163 158.795 309.108 158.83 309.062 158.874C308.765 159.178 279.206 189.576 271.631 205.12C259.663 229.814 252.434 258.653 253.719 277.019C253.729 277.14 253.787 277.253 253.88 277.336C253.974 277.419 254.097 277.466 254.225 277.468ZM278.25 195.675C278.383 195.667 278.507 195.61 278.596 195.516C278.684 195.422 278.731 195.299 278.724 195.173L276.804 164.41C276.801 164.348 276.785 164.286 276.756 164.23C276.728 164.173 276.688 164.122 276.639 164.08C276.589 164.039 276.532 164.007 276.469 163.986C276.406 163.966 276.34 163.957 276.274 163.962C276.141 163.969 276.017 164.026 275.928 164.12C275.84 164.214 275.794 164.338 275.8 164.463L277.752 195.211C277.758 195.332 277.813 195.446 277.906 195.53C277.999 195.613 278.122 195.66 278.25 195.66V195.675ZM272.258 205.782C272.378 205.73 272.472 205.636 272.52 205.52C272.569 205.403 272.567 205.274 272.515 205.158L260.169 178.715C260.116 178.6 260.017 178.51 259.893 178.465C259.77 178.419 259.632 178.422 259.511 178.472C259.389 178.522 259.294 178.617 259.246 178.733C259.197 178.85 259.2 178.981 259.253 179.096L271.591 205.539C271.63 205.623 271.694 205.696 271.775 205.747C271.856 205.798 271.951 205.826 272.049 205.828C272.132 205.832 272.215 205.816 272.29 205.782H272.258ZM274.394 202.132L303.946 198.131C304.017 198.13 304.087 198.114 304.152 198.085C304.216 198.056 304.273 198.015 304.32 197.963C304.366 197.912 304.401 197.852 304.421 197.787C304.441 197.722 304.446 197.654 304.436 197.587C304.427 197.52 304.402 197.456 304.364 197.399C304.327 197.341 304.276 197.292 304.217 197.255C304.158 197.217 304.091 197.191 304.021 197.18C303.95 197.169 303.878 197.171 303.809 197.188L274.258 201.189C274.126 201.197 274.003 201.254 273.915 201.348C273.828 201.442 273.784 201.565 273.792 201.69C273.801 201.816 273.861 201.932 273.961 202.015C274.06 202.098 274.19 202.14 274.322 202.132H274.394ZM265.969 219.981C266.073 219.903 266.142 219.789 266.158 219.663C266.175 219.538 266.138 219.412 266.057 219.312L250.04 199.827C249.958 199.726 249.837 199.66 249.704 199.644C249.571 199.628 249.436 199.662 249.329 199.74C249.223 199.817 249.153 199.932 249.136 200.058C249.119 200.184 249.155 200.312 249.237 200.413L265.286 219.928C265.332 219.984 265.392 220.03 265.46 220.062C265.528 220.094 265.603 220.11 265.679 220.11C265.799 220.104 265.913 220.059 266.001 219.981H265.969ZM290.997 214.71C291.002 214.585 290.954 214.462 290.863 214.37C290.773 214.277 290.648 214.222 290.515 214.216L268.499 213.159C268.375 213.167 268.259 213.218 268.172 213.302C268.085 213.386 268.034 213.497 268.028 213.614C268.022 213.731 268.062 213.847 268.14 213.938C268.218 214.029 268.328 214.09 268.451 214.11L290.507 215.167C290.64 215.171 290.77 215.125 290.867 215.04C290.965 214.955 291.023 214.836 291.029 214.71H290.997ZM280.612 230.179C280.619 230.117 280.614 230.053 280.595 229.993C280.577 229.932 280.546 229.876 280.504 229.827C280.462 229.778 280.41 229.738 280.351 229.708C280.292 229.678 280.228 229.66 280.162 229.654L263.294 228.08C263.228 228.074 263.162 228.08 263.099 228.098C263.036 228.116 262.978 228.146 262.927 228.185C262.876 228.225 262.834 228.274 262.803 228.329C262.773 228.384 262.754 228.444 262.748 228.506C262.736 228.631 262.777 228.755 262.861 228.851C262.945 228.948 263.066 229.01 263.197 229.023L280.065 230.605H280.114C280.243 230.614 280.371 230.574 280.47 230.494C280.569 230.415 280.631 230.302 280.644 230.179H280.612ZM259.446 238.423C259.558 238.353 259.636 238.245 259.663 238.121C259.69 237.997 259.664 237.868 259.591 237.762L251.253 225.829C251.177 225.726 251.062 225.655 250.931 225.631C250.801 225.607 250.666 225.632 250.554 225.7C250.443 225.77 250.365 225.878 250.338 226.002C250.311 226.126 250.337 226.255 250.41 226.361L258.747 238.294C258.795 238.359 258.859 238.412 258.933 238.45C259.007 238.487 259.089 238.506 259.173 238.507C259.282 238.512 259.39 238.483 259.478 238.423H259.446ZM278.579 242.416C278.577 242.291 278.524 242.171 278.432 242.082C278.339 241.993 278.213 241.941 278.081 241.937L258.249 241.762C258.117 241.762 257.991 241.811 257.897 241.9C257.804 241.988 257.751 242.108 257.751 242.233C257.749 242.296 257.761 242.359 257.785 242.417C257.809 242.476 257.845 242.529 257.892 242.574C257.938 242.619 257.994 242.654 258.056 242.678C258.117 242.702 258.183 242.713 258.249 242.712L278.081 242.887C278.149 242.89 278.217 242.881 278.281 242.858C278.344 242.836 278.402 242.802 278.452 242.758C278.501 242.714 278.541 242.661 278.568 242.602C278.596 242.543 278.61 242.48 278.611 242.416H278.579ZM251.968 270.494C252.008 270.41 255.39 261.588 265.559 259.482C265.69 259.454 265.804 259.379 265.876 259.272C265.949 259.165 265.973 259.035 265.944 258.911C265.912 258.79 265.831 258.685 265.719 258.618C265.607 258.551 265.472 258.528 265.342 258.554C254.619 260.775 251.06 270.091 251.02 270.182C250.979 270.302 250.988 270.433 251.047 270.546C251.105 270.66 251.208 270.747 251.334 270.79H251.494C251.601 270.799 251.708 270.775 251.799 270.722C251.89 270.668 251.961 270.588 252 270.494H251.968ZM254.225 277.468C254.358 277.458 254.482 277.399 254.569 277.304C254.656 277.208 254.7 277.084 254.691 276.958C253.43 259.025 260.756 229.654 272.507 205.546C280.017 190.138 309.456 159.855 309.769 159.551C309.864 159.461 309.917 159.339 309.917 159.212C309.917 159.085 309.864 158.964 309.769 158.874C309.723 158.83 309.668 158.795 309.607 158.771C309.546 158.747 309.481 158.734 309.416 158.734C309.35 158.734 309.285 158.747 309.224 158.771C309.163 158.795 309.108 158.83 309.062 158.874C308.765 159.178 279.206 189.576 271.631 205.12C259.663 229.814 252.434 258.653 253.719 277.019C253.729 277.14 253.787 277.253 253.88 277.336C253.974 277.419 254.097 277.466 254.225 277.468ZM278.25 195.675C278.383 195.667 278.507 195.61 278.596 195.516C278.684 195.422 278.731 195.299 278.724 195.173L276.804 164.41C276.801 164.348 276.785 164.286 276.756 164.23C276.728 164.173 276.688 164.122 276.639 164.08C276.589 164.039 276.532 164.007 276.469 163.986C276.406 163.966 276.34 163.957 276.274 163.962C276.141 163.969 276.017 164.026 275.928 164.12C275.84 164.214 275.794 164.338 275.8 164.463L277.752 195.211C277.758 195.332 277.813 195.446 277.906 195.53C277.999 195.613 278.122 195.66 278.25 195.66V195.675ZM272.258 205.782C272.378 205.73 272.472 205.636 272.52 205.52C272.569 205.403 272.567 205.274 272.515 205.158L260.169 178.715C260.116 178.6 260.017 178.51 259.893 178.465C259.77 178.419 259.632 178.422 259.511 178.472C259.389 178.522 259.294 178.617 259.246 178.733C259.197 178.85 259.2 178.981 259.253 179.096L271.591 205.539C271.63 205.623 271.694 205.696 271.775 205.747C271.856 205.798 271.951 205.826 272.049 205.828C272.132 205.832 272.215 205.816 272.29 205.782H272.258ZM274.394 202.132L303.946 198.131C304.017 198.13 304.087 198.114 304.152 198.085C304.216 198.056 304.273 198.015 304.32 197.963C304.366 197.912 304.401 197.852 304.421 197.787C304.441 197.722 304.446 197.654 304.436 197.587C304.427 197.52 304.402 197.456 304.364 197.399C304.327 197.341 304.276 197.292 304.217 197.255C304.158 197.217 304.091 197.191 304.021 197.18C303.95 197.169 303.878 197.171 303.809 197.188L274.258 201.189C274.126 201.197 274.003 201.254 273.915 201.348C273.828 201.442 273.784 201.565 273.792 201.69C273.801 201.816 273.861 201.932 273.961 202.015C274.06 202.098 274.19 202.14 274.322 202.132H274.394ZM265.969 219.981C266.073 219.903 266.142 219.789 266.158 219.663C266.175 219.538 266.138 219.412 266.057 219.312L250.04 199.827C250 199.777 249.949 199.735 249.891 199.704C249.834 199.673 249.77 199.652 249.704 199.644C249.638 199.636 249.571 199.64 249.507 199.657C249.442 199.673 249.382 199.701 249.329 199.74C249.277 199.778 249.233 199.826 249.199 199.881C249.166 199.935 249.145 199.996 249.136 200.058C249.127 200.121 249.132 200.184 249.149 200.245C249.167 200.306 249.196 200.363 249.237 200.413L265.286 219.928C265.332 219.984 265.392 220.03 265.46 220.062C265.528 220.094 265.603 220.11 265.679 220.11C265.799 220.104 265.913 220.059 266.001 219.981H265.969ZM290.997 214.71C291.002 214.585 290.954 214.462 290.863 214.37C290.773 214.277 290.648 214.222 290.515 214.216L268.499 213.159C268.375 213.167 268.259 213.218 268.172 213.302C268.085 213.386 268.034 213.497 268.028 213.614C268.022 213.731 268.062 213.847 268.14 213.938C268.218 214.029 268.328 214.09 268.451 214.11L290.507 215.167C290.64 215.171 290.77 215.125 290.867 215.04C290.965 214.955 291.023 214.836 291.029 214.71H290.997ZM280.612 230.179C280.619 230.117 280.614 230.053 280.595 229.993C280.577 229.932 280.546 229.876 280.504 229.827C280.462 229.778 280.41 229.738 280.351 229.708C280.292 229.678 280.228 229.66 280.162 229.654L263.294 228.08C263.228 228.074 263.162 228.08 263.099 228.098C263.036 228.116 262.978 228.146 262.927 228.185C262.876 228.225 262.834 228.274 262.803 228.329C262.773 228.384 262.754 228.444 262.748 228.506C262.736 228.631 262.777 228.755 262.861 228.851C262.945 228.948 263.066 229.01 263.197 229.023L280.065 230.605H280.114C280.243 230.614 280.371 230.574 280.47 230.494C280.569 230.415 280.631 230.302 280.644 230.179H280.612ZM259.446 238.423C259.558 238.353 259.636 238.245 259.663 238.121C259.69 237.997 259.664 237.868 259.591 237.762L251.253 225.829C251.177 225.726 251.062 225.655 250.931 225.631C250.801 225.607 250.666 225.632 250.554 225.7C250.443 225.77 250.365 225.878 250.338 226.002C250.311 226.126 250.337 226.255 250.41 226.361L258.747 238.294C258.795 238.359 258.859 238.412 258.933 238.45C259.007 238.487 259.089 238.506 259.173 238.507C259.282 238.512 259.39 238.483 259.478 238.423H259.446ZM278.579 242.416C278.577 242.291 278.524 242.171 278.432 242.082C278.339 241.993 278.213 241.941 278.081 241.937L258.249 241.762C258.117 241.762 257.991 241.811 257.897 241.9C257.804 241.988 257.751 242.108 257.751 242.233C257.749 242.296 257.761 242.359 257.785 242.417C257.809 242.476 257.845 242.529 257.892 242.574C257.938 242.619 257.994 242.654 258.056 242.678C258.117 242.702 258.183 242.713 258.249 242.712L278.081 242.887C278.149 242.89 278.217 242.881 278.281 242.858C278.344 242.836 278.402 242.802 278.452 242.758C278.501 242.714 278.541 242.661 278.568 242.602C278.596 242.543 278.61 242.48 278.611 242.416H278.579ZM251.968 270.494C252.008 270.41 255.39 261.588 265.559 259.482C265.69 259.454 265.804 259.379 265.876 259.272C265.949 259.165 265.973 259.035 265.944 258.911C265.912 258.79 265.831 258.685 265.719 258.618C265.607 258.551 265.472 258.528 265.342 258.554C254.619 260.775 251.06 270.091 251.02 270.182C250.979 270.302 250.988 270.433 251.047 270.546C251.105 270.66 251.208 270.747 251.334 270.79H251.494C251.601 270.799 251.708 270.775 251.799 270.722C251.89 270.668 251.961 270.588 252 270.494H251.968Z" fill="#2B7A78"/>
<path opacity="0.2" d="M278.258 195.203L276.306 164.456L278.258 195.203ZM272.081 205.349L259.743 178.906L272.081 205.349ZM303.921 197.66L274.354 201.675L303.921 197.66ZM265.687 219.6L249.679 200.154L265.687 219.6ZM268.499 213.638L290.556 214.688L268.499 213.638ZM263.278 228.552L280.146 230.134L263.278 228.552ZM259.205 238.028L250.828 226.095L259.205 238.028ZM258.241 242.241L278.073 242.416L258.241 242.241ZM254.225 277.468C254.358 277.458 254.482 277.399 254.569 277.304C254.656 277.208 254.7 277.084 254.691 276.958C253.43 259.025 260.756 229.654 272.507 205.546C280.017 190.138 309.456 159.855 309.769 159.551C309.864 159.461 309.917 159.339 309.917 159.212C309.917 159.085 309.864 158.964 309.769 158.874C309.723 158.83 309.668 158.795 309.607 158.771C309.546 158.747 309.481 158.734 309.416 158.734C309.35 158.734 309.285 158.747 309.224 158.771C309.163 158.795 309.108 158.83 309.062 158.874C308.765 159.178 279.206 189.576 271.631 205.12C259.663 229.814 252.434 258.653 253.719 277.019C253.729 277.14 253.787 277.253 253.88 277.336C253.974 277.419 254.097 277.466 254.225 277.468ZM278.25 195.675C278.383 195.667 278.507 195.61 278.596 195.516C278.684 195.422 278.731 195.299 278.724 195.173L276.804 164.41C276.801 164.348 276.785 164.286 276.756 164.23C276.728 164.173 276.688 164.122 276.639 164.08C276.589 164.039 276.532 164.007 276.469 163.986C276.406 163.966 276.34 163.957 276.274 163.962C276.141 163.969 276.017 164.026 275.928 164.12C275.84 164.214 275.794 164.338 275.8 164.463L277.752 195.211C277.758 195.332 277.813 195.446 277.906 195.53C277.999 195.613 278.122 195.66 278.25 195.66V195.675ZM272.258 205.782C272.378 205.73 272.472 205.636 272.52 205.52C272.569 205.403 272.567 205.274 272.515 205.158L260.169 178.715C260.116 178.6 260.017 178.51 259.893 178.465C259.77 178.419 259.632 178.422 259.511 178.472C259.389 178.522 259.294 178.617 259.246 178.733C259.197 178.85 259.2 178.981 259.253 179.096L271.591 205.539C271.63 205.623 271.694 205.696 271.775 205.747C271.856 205.798 271.951 205.826 272.049 205.828C272.132 205.832 272.215 205.816 272.29 205.782H272.258ZM274.394 202.132L303.946 198.131C304.017 198.13 304.087 198.114 304.152 198.085C304.216 198.056 304.273 198.015 304.32 197.963C304.366 197.912 304.401 197.852 304.421 197.787C304.441 197.722 304.446 197.654 304.436 197.587C304.427 197.52 304.402 197.456 304.364 197.399C304.327 197.341 304.276 197.292 304.217 197.255C304.158 197.217 304.091 197.191 304.021 197.18C303.95 197.169 303.878 197.171 303.809 197.188L274.258 201.189C274.126 201.197 274.003 201.254 273.915 201.348C273.828 201.442 273.784 201.565 273.792 201.69C273.801 201.816 273.861 201.932 273.961 202.015C274.06 202.098 274.19 202.14 274.322 202.132H274.394ZM265.969 219.981C266.073 219.903 266.142 219.789 266.158 219.663C266.175 219.538 266.138 219.412 266.057 219.312L250.04 199.827C249.958 199.726 249.837 199.66 249.704 199.644C249.571 199.628 249.436 199.662 249.329 199.74C249.223 199.817 249.153 199.932 249.136 200.058C249.119 200.184 249.155 200.312 249.237 200.413L265.286 219.928C265.332 219.984 265.392 220.03 265.46 220.062C265.528 220.094 265.603 220.11 265.679 220.11C265.799 220.104 265.913 220.059 266.001 219.981H265.969ZM290.997 214.71C291.002 214.585 290.954 214.462 290.863 214.37C290.773 214.277 290.648 214.222 290.515 214.216L268.499 213.159C268.375 213.167 268.259 213.218 268.172 213.302C268.085 213.386 268.034 213.497 268.028 213.614C268.022 213.731 268.062 213.847 268.14 213.938C268.218 214.029 268.328 214.09 268.451 214.11L290.507 215.167C290.64 215.171 290.77 215.125 290.867 215.04C290.965 214.955 291.023 214.836 291.029 214.71H290.997ZM280.612 230.179C280.619 230.117 280.614 230.053 280.595 229.993C280.577 229.932 280.546 229.876 280.504 229.827C280.462 229.778 280.41 229.738 280.351 229.708C280.292 229.678 280.228 229.66 280.162 229.654L263.294 228.08C263.228 228.074 263.162 228.08 263.099 228.098C263.036 228.116 262.978 228.146 262.927 228.185C262.876 228.225 262.834 228.274 262.803 228.329C262.773 228.384 262.754 228.444 262.748 228.506C262.736 228.631 262.777 228.755 262.861 228.851C262.945 228.948 263.066 229.01 263.197 229.023L280.065 230.605H280.114C280.243 230.614 280.371 230.574 280.47 230.494C280.569 230.415 280.631 230.302 280.644 230.179H280.612ZM259.446 238.423C259.558 238.353 259.636 238.245 259.663 238.121C259.69 237.997 259.664 237.868 259.591 237.762L251.253 225.829C251.177 225.726 251.062 225.655 250.931 225.631C250.801 225.607 250.666 225.632 250.554 225.7C250.443 225.77 250.365 225.878 250.338 226.002C250.311 226.126 250.337 226.255 250.41 226.361L258.747 238.294C258.795 238.359 258.859 238.412 258.933 238.45C259.007 238.487 259.089 238.506 259.173 238.507C259.282 238.512 259.39 238.483 259.478 238.423H259.446ZM278.579 242.416C278.577 242.291 278.524 242.171 278.432 242.082C278.339 241.993 278.213 241.941 278.081 241.937L258.249 241.762C258.117 241.762 257.991 241.811 257.897 241.9C257.804 241.988 257.751 242.108 257.751 242.233C257.749 242.296 257.761 242.359 257.785 242.417C257.809 242.476 257.845 242.529 257.892 242.574C257.938 242.619 257.994 242.654 258.056 242.678C258.117 242.702 258.183 242.713 258.249 242.712L278.081 242.887C278.149 242.89 278.217 242.881 278.281 242.858C278.344 242.836 278.402 242.802 278.452 242.758C278.501 242.714 278.541 242.661 278.568 242.602C278.596 242.543 278.61 242.48 278.611 242.416H278.579ZM251.968 270.494C252.008 270.41 255.39 261.588 265.559 259.482C265.69 259.454 265.804 259.379 265.876 259.272C265.949 259.165 265.973 259.035 265.944 258.911C265.912 258.79 265.831 258.685 265.719 258.618C265.607 258.551 265.472 258.528 265.342 258.554C254.619 260.775 251.06 270.091 251.02 270.182C250.979 270.302 250.988 270.433 251.047 270.546C251.105 270.66 251.208 270.747 251.334 270.79H251.494C251.601 270.799 251.708 270.775 251.799 270.722C251.89 270.668 251.961 270.588 252 270.494H251.968ZM254.225 277.468C254.358 277.458 254.482 277.399 254.569 277.304C254.656 277.208 254.7 277.084 254.691 276.958C253.43 259.025 260.756 229.654 272.507 205.546C280.017 190.138 309.456 159.855 309.769 159.551C309.864 159.461 309.917 159.339 309.917 159.212C309.917 159.085 309.864 158.964 309.769 158.874C309.723 158.83 309.668 158.795 309.607 158.771C309.546 158.747 309.481 158.734 309.416 158.734C309.35 158.734 309.285 158.747 309.224 158.771C309.163 158.795 309.108 158.83 309.062 158.874C308.765 159.178 279.206 189.576 271.631 205.12C259.663 229.814 252.434 258.653 253.719 277.019C253.729 277.14 253.787 277.253 253.88 277.336C253.974 277.419 254.097 277.466 254.225 277.468ZM278.25 195.675C278.383 195.667 278.507 195.61 278.596 195.516C278.684 195.422 278.731 195.299 278.724 195.173L276.804 164.41C276.801 164.348 276.785 164.286 276.756 164.23C276.728 164.173 276.688 164.122 276.639 164.08C276.589 164.039 276.532 164.007 276.469 163.986C276.406 163.966 276.34 163.957 276.274 163.962C276.141 163.969 276.017 164.026 275.928 164.12C275.84 164.214 275.794 164.338 275.8 164.463L277.752 195.211C277.758 195.332 277.813 195.446 277.906 195.53C277.999 195.613 278.122 195.66 278.25 195.66V195.675ZM272.258 205.782C272.378 205.73 272.472 205.636 272.52 205.52C272.569 205.403 272.567 205.274 272.515 205.158L260.169 178.715C260.116 178.6 260.017 178.51 259.893 178.465C259.77 178.419 259.632 178.422 259.511 178.472C259.389 178.522 259.294 178.617 259.246 178.733C259.197 178.85 259.2 178.981 259.253 179.096L271.591 205.539C271.63 205.623 271.694 205.696 271.775 205.747C271.856 205.798 271.951 205.826 272.049 205.828C272.132 205.832 272.215 205.816 272.29 205.782H272.258ZM274.394 202.132L303.946 198.131C304.017 198.13 304.087 198.114 304.152 198.085C304.216 198.056 304.273 198.015 304.32 197.963C304.366 197.912 304.401 197.852 304.421 197.787C304.441 197.722 304.446 197.654 304.436 197.587C304.427 197.52 304.402 197.456 304.364 197.399C304.327 197.341 304.276 197.292 304.217 197.255C304.158 197.217 304.091 197.191 304.021 197.18C303.95 197.169 303.878 197.171 303.809 197.188L274.258 201.189C274.126 201.197 274.003 201.254 273.915 201.348C273.828 201.442 273.784 201.565 273.792 201.69C273.801 201.816 273.861 201.932 273.961 202.015C274.06 202.098 274.19 202.14 274.322 202.132H274.394ZM265.969 219.981C266.073 219.903 266.142 219.789 266.158 219.663C266.175 219.538 266.138 219.412 266.057 219.312L250.04 199.827C250 199.777 249.949 199.735 249.891 199.704C249.834 199.673 249.77 199.652 249.704 199.644C249.638 199.636 249.571 199.64 249.507 199.657C249.442 199.673 249.382 199.701 249.329 199.74C249.277 199.778 249.233 199.826 249.199 199.881C249.166 199.935 249.145 199.996 249.136 200.058C249.127 200.121 249.132 200.184 249.149 200.245C249.167 200.306 249.196 200.363 249.237 200.413L265.286 219.928C265.332 219.984 265.392 220.03 265.46 220.062C265.528 220.094 265.603 220.11 265.679 220.11C265.799 220.104 265.913 220.059 266.001 219.981H265.969ZM290.997 214.71C291.002 214.585 290.954 214.462 290.863 214.37C290.773 214.277 290.648 214.222 290.515 214.216L268.499 213.159C268.375 213.167 268.259 213.218 268.172 213.302C268.085 213.386 268.034 213.497 268.028 213.614C268.022 213.731 268.062 213.847 268.14 213.938C268.218 214.029 268.328 214.09 268.451 214.11L290.507 215.167C290.64 215.171 290.77 215.125 290.867 215.04C290.965 214.955 291.023 214.836 291.029 214.71H290.997ZM280.612 230.179C280.619 230.117 280.614 230.053 280.595 229.993C280.577 229.932 280.546 229.876 280.504 229.827C280.462 229.778 280.41 229.738 280.351 229.708C280.292 229.678 280.228 229.66 280.162 229.654L263.294 228.08C263.228 228.074 263.162 228.08 263.099 228.098C263.036 228.116 262.978 228.146 262.927 228.185C262.876 228.225 262.834 228.274 262.803 228.329C262.773 228.384 262.754 228.444 262.748 228.506C262.736 228.631 262.777 228.755 262.861 228.851C262.945 228.948 263.066 229.01 263.197 229.023L280.065 230.605H280.114C280.243 230.614 280.371 230.574 280.47 230.494C280.569 230.415 280.631 230.302 280.644 230.179H280.612ZM259.446 238.423C259.558 238.353 259.636 238.245 259.663 238.121C259.69 237.997 259.664 237.868 259.591 237.762L251.253 225.829C251.177 225.726 251.062 225.655 250.931 225.631C250.801 225.607 250.666 225.632 250.554 225.7C250.443 225.77 250.365 225.878 250.338 226.002C250.311 226.126 250.337 226.255 250.41 226.361L258.747 238.294C258.795 238.359 258.859 238.412 258.933 238.45C259.007 238.487 259.089 238.506 259.173 238.507C259.282 238.512 259.39 238.483 259.478 238.423H259.446ZM278.579 242.416C278.577 242.291 278.524 242.171 278.432 242.082C278.339 241.993 278.213 241.941 278.081 241.937L258.249 241.762C258.117 241.762 257.991 241.811 257.897 241.9C257.804 241.988 257.751 242.108 257.751 242.233C257.749 242.296 257.761 242.359 257.785 242.417C257.809 242.476 257.845 242.529 257.892 242.574C257.938 242.619 257.994 242.654 258.056 242.678C258.117 242.702 258.183 242.713 258.249 242.712L278.081 242.887C278.149 242.89 278.217 242.881 278.281 242.858C278.344 242.836 278.402 242.802 278.452 242.758C278.501 242.714 278.541 242.661 278.568 242.602C278.596 242.543 278.61 242.48 278.611 242.416H278.579ZM251.968 270.494C252.008 270.41 255.39 261.588 265.559 259.482C265.69 259.454 265.804 259.379 265.876 259.272C265.949 259.165 265.973 259.035 265.944 258.911C265.912 258.79 265.831 258.685 265.719 258.618C265.607 258.551 265.472 258.528 265.342 258.554C254.619 260.775 251.06 270.091 251.02 270.182C250.979 270.302 250.988 270.433 251.047 270.546C251.105 270.66 251.208 270.747 251.334 270.79H251.494C251.601 270.799 251.708 270.775 251.799 270.722C251.89 270.668 251.961 270.588 252 270.494H251.968Z" fill="black"/>
<path d="M267.342 264.059H244.603V268.515H246.587L250.691 292.829H261.254L265.358 268.515H267.342V264.059Z" fill="#2B7A78"/>
<path opacity="0.3" d="M267.342 264.059H244.603V268.515H246.587L250.691 292.829H261.254L265.358 268.515H267.342V264.059Z" fill="white"/>
<path d="M62.6116 129.299L36.161 121.123L33.8076 115.237L28.4339 115.077L18.6826 113.328L19.8553 115.237L32.1288 123.671L35.157 125.101L62.8204 138.782L62.6116 129.299Z" fill="white" stroke="#263238" stroke-width="1.00396" stroke-miterlimit="10"/>
<path d="M33.8075 115.234L31.2853 113.805L26.249 115.554L27.0844 116.504L33.8075 115.234Z" fill="white" stroke="#263238" stroke-width="1.00396" stroke-linejoin="round"/>
<path d="M62.6116 129.299L36.161 121.123L33.8076 115.237L28.4339 115.077L18.6826 113.328L19.8553 115.237L32.1288 123.671L35.157 125.101L62.8204 138.782L62.6116 129.299Z" fill="white"/>
<path opacity="0.5" d="M62.6116 129.299L36.161 121.123L33.8076 115.237L28.4339 115.077L18.6826 113.328L19.8553 115.237L32.1288 123.671L35.157 125.101L62.8204 138.782L62.6116 129.299Z" fill="#2B7A78" stroke="#263238" stroke-width="1.00396" stroke-miterlimit="10"/>
<path d="M62.6116 129.299L36.161 121.123L33.8076 115.237L28.4339 115.077L18.6826 113.328L19.8553 115.237L32.1288 123.671L35.157 125.101L62.8204 138.782L62.6116 129.299Z" stroke="#263238" stroke-width="1.00396" stroke-miterlimit="10"/>
<path d="M33.8075 115.234L31.2853 113.805L26.249 115.554L27.0844 116.504L33.8075 115.234Z" fill="white"/>
<path opacity="0.5" d="M33.8075 115.234L31.2853 113.805L26.249 115.554L27.0844 116.504L33.8075 115.234Z" fill="#2B7A78" stroke="#263238" stroke-width="1.00396" stroke-linejoin="round"/>
<path d="M33.8075 115.234L31.2853 113.805L26.249 115.554L27.0844 116.504L33.8075 115.234Z" stroke="#263238" stroke-width="1.00396" stroke-linejoin="round"/>
<path d="M68.2262 76.2358C68.2262 76.2358 67.8165 79.6581 68.8366 81.8559C69.8567 84.0538 75.5196 91.4992 75.5196 91.4992L64.949 99.5226C64.949 99.5226 60.5633 91.157 59.7279 89.8033C58.8926 88.4496 57.8885 82.6241 60.6115 78.4488C63.3345 74.2736 67.2543 73.1481 68.2262 76.2358Z" fill="white"/>
<g style="mix-blend-mode:multiply" opacity="0.5">
<path d="M62.796 87.2344L67.3825 96.2388L64.9407 99.5318L60.3301 91.7366L62.796 87.2344Z" fill="#2B7A78"/>
</g>
<path d="M68.2262 76.2358C68.2262 76.2358 67.8165 79.6581 68.8366 81.8559C69.8567 84.0538 75.5196 91.4992 75.5196 91.4992L64.949 99.5226C64.949 99.5226 60.5633 91.157 59.7279 89.8033C58.8926 88.4496 57.8885 82.6241 60.6115 78.4488C63.3345 74.2736 67.2543 73.1481 68.2262 76.2358Z" stroke="#263238" stroke-width="1.00396" stroke-miterlimit="10"/>
<path d="M71.5032 69.9713C70.8526 66.1688 66.25 58.4343 58.9486 58.7309C54.2095 58.9287 51.9926 59.8337 49.9363 60.9364C48.2601 61.8714 46.6978 62.9783 45.2775 64.237C41.7112 68.2906 40.4581 69.4009 41.1489 72.5038C41.0922 73.7414 41.297 74.9773 41.7513 76.139C42.8437 78.8997 43.5907 80.7021 44.5385 82.0178C44.2494 83.3031 43.4943 86.6949 43.4542 87.4707C43.414 88.2464 45.8639 87.7064 47.1009 87.4098C49.3981 92.2771 53.6071 95.6538 54.9164 96.0416C57.1975 96.7185 60.8041 93.1669 62.7158 90.4138C64.6275 87.6608 63.1817 84.5655 63.1897 83.3335C63.1977 82.1014 67.487 79.394 69.0774 78.5347C70.6678 77.6753 72.1458 73.7663 71.5032 69.9713Z" fill="white"/>
<g style="mix-blend-mode:multiply" opacity="0.5">
<path d="M41.1816 72.5031C41.1249 73.7408 41.3297 74.9767 41.784 76.1384C42.8764 78.899 43.6234 80.7015 44.5712 82.0171C44.2821 83.3024 43.527 86.6943 43.4869 87.47C43.4467 88.2457 45.8966 87.7058 47.1336 87.4092C49.4308 92.2764 53.6398 95.6531 54.949 96.041C57.2302 96.7178 60.8368 93.1662 62.7485 90.4132C63.2261 89.7258 63.5361 88.9465 63.6561 88.1316C63.5517 87.7742 63.4794 87.5537 63.4794 87.5537C63.4794 87.5537 62.4031 91.4703 60.2665 90.9607C58.1299 90.4512 54.8607 86.3977 53.0373 84.9983C51.214 83.599 51.961 81.7586 51.5996 79.6748C51.2381 77.591 45.8403 75.7581 45.4789 74.5641C45.1174 73.3701 46.3785 68.4268 46.3785 68.4268C46.3785 68.4268 48.4268 65.8411 47.985 66.9058C47.6727 67.829 47.5595 68.8021 47.6519 69.7676C47.7444 70.733 48.0406 71.671 48.5232 72.5259C48.8617 73.2006 49.3989 73.7683 50.07 74.1609C50.7411 74.5535 51.5177 74.7542 52.3064 74.739L54.2663 65.5445L50.1296 62.3047L45.3102 64.206C41.7117 68.2899 40.4828 69.4003 41.1816 72.5031Z" fill="#2B7A78"/>
</g>
<path d="M71.5032 69.9713C70.8526 66.1688 66.25 58.4343 58.9486 58.7309C54.2095 58.9287 51.9926 59.8337 49.9363 60.9364C48.2601 61.8714 46.6978 62.9783 45.2775 64.237C41.7112 68.2906 40.4581 69.4009 41.1489 72.5038C41.0922 73.7414 41.297 74.9773 41.7513 76.139C42.8437 78.8997 43.5907 80.7021 44.5385 82.0178C44.2494 83.3031 43.4943 86.6949 43.4542 87.4707C43.414 88.2464 45.8639 87.7064 47.1009 87.4098C49.3981 92.2771 53.6071 95.6538 54.9164 96.0416C57.1975 96.7185 60.8041 93.1669 62.7158 90.4138C64.6275 87.6608 63.1817 84.5655 63.1897 83.3335C63.1977 82.1014 67.487 79.394 69.0774 78.5347C70.6678 77.6753 72.1458 73.7663 71.5032 69.9713Z" stroke="#263238" stroke-miterlimit="10"/>
<path d="M45.5352 79.7188L46.3384 81.8938C46.3384 81.8938 48.0654 82.4338 50.1698 80.2587" stroke="#263238" stroke-miterlimit="10" stroke-linecap="round"/>
<path d="M51.4707 89.8789C51.4707 89.8789 53.3824 89.6964 54.1535 87.1562" stroke="#263238" stroke-miterlimit="10" stroke-linecap="round"/>
<path d="M44.1934 77.9007C44.1934 77.9007 44.7637 76.2656 48.2095 76.2656" stroke="#263238" stroke-miterlimit="10" stroke-linecap="round"/>
<path d="M61.8565 55.7029C59.3526 55.362 56.8276 55.179 54.2981 55.1553C54.2981 55.1553 46.7316 51.0257 39.4623 55.4291C32.193 59.8324 35.6871 67.544 35.6871 69.4681C35.6871 71.3922 33.3577 71.3998 34.8116 73.8791C36.2654 76.3583 41.1812 74.9894 41.1812 74.9894C41.2332 74.0543 41.4942 73.1403 41.9469 72.3078C42.3997 71.4753 43.034 70.7433 43.8078 70.1602C46.4263 68.2361 48.5148 67.8178 49.3823 68.373C49.3823 68.373 48.8039 72.5026 49.6714 74.1529C49.6714 74.1529 52.5791 75.5294 53.4547 75.5294C54.3302 75.5294 52.8844 76.693 55.784 77.7273C56.3123 77.9069 56.8774 77.9681 57.4349 77.9061C57.9924 77.8441 58.5271 77.6605 58.997 77.3698C59.4227 75.6967 60.3545 73.1794 62.0894 73.765C64.6357 74.6244 66.9571 80.5564 63.5112 82.5793C67.6559 83.2942 72.6761 76.3507 72.9733 70.0233C73.2705 63.6958 66.1619 56.4177 61.8565 55.7029Z" fill="#263238"/>
<path d="M49.5107 65.6562C49.5107 65.6562 51.6473 64.5686 54.2659 66.8958C56.8844 69.223 61.977 72.3334 68.7241 70.6223" stroke="white" stroke-width="0.5" stroke-linecap="round" stroke-linejoin="round"/>
<path d="M49.2139 63.7962C49.2139 63.7962 50.6838 61.6211 53.1417 61.6211C55.5996 61.6211 61.3427 64.8837 65.9292 64.8837" stroke="white" stroke-width="0.5" stroke-linecap="round" stroke-linejoin="round"/>
<path d="M47.5432 67.984C47.5432 67.984 44.756 64.729 42.1374 67.368C39.5189 70.0069 41.1815 72.5014 41.1815 72.5014" stroke="white" stroke-width="0.5" stroke-linecap="round" stroke-linejoin="round"/>
<path d="M36.4023 70.1586C37.9996 68.7948 38.9925 66.9092 39.1815 64.8807C39.5109 61.466 44.4347 58.5152 47.5432 61.3139" stroke="white" stroke-width="0.5" stroke-linecap="round" stroke-linejoin="round"/>
<path d="M41.4785 57.7412C41.4785 57.7412 46.4023 53.239 50.4989 58.9808" stroke="white" stroke-width="0.5" stroke-linecap="round" stroke-linejoin="round"/>
<path d="M81.5519 279.102C81.5519 279.102 84.5801 283.558 84.2428 286.425L83.9134 289.292C83.9134 289.292 72.8047 292.175 70.4512 292.175C68.0977 292.175 55.6395 291.057 55.6395 291.057L55.1014 289.034C55.0637 288.884 55.0814 288.727 55.1516 288.589C55.2218 288.45 55.3402 288.339 55.4869 288.273L66.5957 283.368L70.0978 279.74L81.5519 279.102Z" fill="white" stroke="#263238" stroke-width="1.00396" stroke-miterlimit="10"/>
<path d="M72.1379 289.932C75.1501 290.153 80.8691 288.411 84.1865 287.301L83.9535 289.293C83.9535 289.293 72.8046 292.176 70.4511 292.176C68.0977 292.176 55.6395 291.058 55.6395 291.058L55.2539 289.613C57.2459 289.62 68.1539 289.643 72.1379 289.932Z" fill="#2B7A78" stroke="#263238" stroke-width="1.00396" stroke-miterlimit="10"/>
<path d="M66.6113 283.369L50.4422 290.032C50.4422 290.032 49.0606 293.309 50.4422 293.963C51.8237 294.617 81.9451 293.963 81.9451 293.963C81.9451 293.963 84.0255 288.784 80.7402 285.309C77.455 281.833 66.6113 283.369 66.6113 283.369Z" fill="white" stroke="#263238" stroke-width="1.00396" stroke-miterlimit="10"/>
<path d="M81.9454 293.962C81.9454 293.962 51.824 294.616 50.4424 293.962C49.7757 293.642 49.7516 292.722 49.9043 291.848H82.4755C82.3691 292.567 82.1916 293.274 81.9454 293.962Z" fill="#2B7A78" stroke="#263238" stroke-width="1.00396" stroke-miterlimit="10"/>
<path d="M58.9647 167.613C58.9647 167.613 54.7397 185.34 53.1413 196.428C51.5428 207.517 50.603 229.731 50.9404 232.279C51.2778 234.827 68.0975 277.514 68.0975 277.514L69.7763 281.317L81.5517 279.088C81.5517 279.088 76.17 262.844 74.1539 253.923C72.1378 245.002 67.728 230.347 67.728 227.799C67.728 225.252 78.1701 176.594 78.9171 173.4C79.6641 170.206 83.0538 165.301 83.0538 165.301L60.5069 164.867L58.9647 167.613Z" fill="#2B7A78" stroke="#263238" stroke-width="1.00396" stroke-miterlimit="10"/>
<path d="M58.9652 167.611C58.9652 167.611 56.4912 183.802 57.5113 195.058C58.5314 206.313 60.7242 230.277 60.7242 233.844C60.7242 237.411 66.8047 258.713 67.1501 265.405C67.6883 275.071 66.9333 279.855 66.9333 279.855L66.5718 283.361C66.5718 283.361 73.6644 284.319 75.2146 284.737C77.0051 285.174 78.8529 285.364 80.7007 285.3C80.7007 285.3 83.2791 274.554 83.2791 265.397C83.2791 256.241 81.1345 237.395 80.0662 229.76C78.9979 222.124 82.3634 192.67 84.2751 187.171C86.1868 181.673 90.3636 170.029 87.5523 164.082C84.741 158.135 58.9652 167.611 58.9652 167.611Z" fill="#2B7A78" stroke="#263238" stroke-width="1.00396" stroke-miterlimit="10"/>
<path d="M90.6769 161.102L90.4198 168.342C90.4198 168.342 85.8414 169.201 79.6725 170.212C74.58 171.049 61.7925 169.992 57.4872 169.596C57.0948 169.564 56.7321 169.385 56.4779 169.1C56.2236 168.816 56.0985 168.447 56.1297 168.075L56.5474 161.535L90.6769 161.102Z" fill="#263238"/>
<path d="M72.7803 88.9297C72.7803 88.9297 65.5512 96.3295 62.8282 100.931C60.1052 105.532 59.0289 112.582 58.0088 118.133C56.9887 123.685 59.7518 136.72 58.9727 142.705L56.5067 161.558C56.5067 161.558 55.9766 162.836 57.7518 164.235C59.5269 165.635 68.1938 166.144 76.0254 166.517C78.8849 166.654 87.4233 164.912 88.8209 164.829C90.5077 164.73 90.564 162.699 90.6363 161.102C90.9736 153.596 92.4034 133.587 93.3432 124.871C95.279 107.098 84.6843 89.9412 72.7803 88.9297Z" fill="white" stroke="#263238" stroke-width="1.00396" stroke-miterlimit="10"/>
<g style="mix-blend-mode:multiply">
<path d="M92.4601 134.979C92.7814 131.032 93.1027 127.45 93.3838 124.872C93.4641 124.111 93.5123 123.351 93.5525 122.59L74.3471 125.632L57.8486 120.309C57.8504 123.541 58.0435 126.77 58.427 129.982L74.6122 134.272L92.4601 134.979Z" fill="#2B7A78"/>
</g>
<g style="mix-blend-mode:multiply">
<path d="M72.0657 89.6758C70.9733 90.8242 68.8046 93.1589 66.7402 95.6382L78.9334 107.373L82.9495 105.852L72.0657 89.6758Z" fill="#2B7A78"/>
</g>
<path d="M72.7809 88.9297C72.7809 88.9297 65.5518 96.3295 62.8288 100.931C62.0214 102.329 61.3674 103.802 60.877 105.326L75.4155 89.424C74.5566 89.1777 73.6741 89.0121 72.7809 88.9297Z" fill="#263238"/>
<g style="mix-blend-mode:multiply">
<path d="M58.5713 115.138L74.3468 120.051L93.504 117.967C93.2038 113.449 92.1435 109.005 90.3634 104.803L74.9171 110.667L61.1095 104.742C59.9805 108.14 59.1319 111.616 58.5713 115.138Z" fill="#2B7A78"/>
</g>
<g style="mix-blend-mode:multiply">
<path d="M85.7285 153.595C77.7272 154.867 69.5173 154.232 61.8402 151.747L57.9927 150.5L56.7959 159.626L61.1816 160.79C69.5189 162.997 78.2329 163.632 86.8289 162.661L90.3712 162.258C90.5555 161.888 90.6593 161.487 90.6764 161.079C90.7728 159.048 90.9415 156.097 91.1583 152.713L85.7285 153.595Z" fill="#2B7A78"/>
</g>
<g style="mix-blend-mode:multiply">
<path d="M87.8739 141.168C79.8723 142.445 71.6605 141.807 63.9857 139.312L59.086 137.723C59.2075 139.38 59.1833 141.043 59.0137 142.696L58.4434 147.085L63.327 148.377C71.6612 150.587 80.3724 151.225 88.9663 150.256L91.376 149.982C91.5769 146.94 91.8098 143.7 92.0588 140.499L87.8739 141.168Z" fill="#2B7A78"/>
</g>
<path d="M12.515 109.009L28.0459 120.832L28.7153 120.044L13.1844 108.221L12.515 109.009Z" fill="#263238"/>
<path d="M80.2583 97.1367C80.2583 97.1367 85.9533 100.81 86.0818 109.487C86.138 113.29 85.7204 116.842 84.7966 123.07C83.8729 129.299 78.1378 149.582 73.6718 152.046C69.2058 154.51 62.2739 149.855 62.2739 149.855L28.7468 128.782L20.6422 122.583L16.626 115.404L17.8871 113.123L27.7749 120.302L22.4494 115.64L23.4936 114.385L25.4214 115.655L31.0441 117.648L32.273 125.253L34.008 126.378L66.0812 137.474C66.0812 137.474 65.6796 121.131 65.9768 118.005C66.274 114.879 66.6836 107.023 70.2179 101.327" fill="white"/>
<g style="mix-blend-mode:multiply" opacity="0.5">
<path d="M65.8565 125.122C65.8565 130.765 66.0573 137.473 66.0573 137.473L34.0162 126.422L32.2812 125.297L31.0523 117.692L25.4296 115.699L23.5099 114.406L22.4657 115.661L27.7751 120.3L17.8872 113.121L16.6904 115.365L20.7066 122.544L28.8113 128.78L30.8515 130.065L75.1499 143.58L65.8565 125.122Z" fill="#2B7A78"/>
</g>
<path d="M80.2583 97.1367C80.2583 97.1367 85.9533 100.81 86.0818 109.487C86.138 113.29 85.7204 116.842 84.7966 123.07C83.8729 129.299 78.1378 149.582 73.6718 152.046C69.2058 154.51 62.2739 149.855 62.2739 149.855L28.7468 128.782L20.6422 122.583L16.626 115.404L17.8871 113.123L27.7749 120.302L22.4494 115.64L23.4936 114.385L25.4214 115.655L31.0441 117.648L32.273 125.253L34.008 126.378L66.0812 137.474C66.0812 137.474 65.6796 121.131 65.9768 118.005C66.274 114.879 66.6836 107.023 70.2179 101.327" stroke="#263238" stroke-width="1.00396" stroke-miterlimit="10"/>
<path d="M66.0818 137.473L78.3231 145.839L81.4959 140.515C81.4959 140.515 83.6887 138.88 84.01 137.648C84.3313 136.416 83.9216 134.416 84.251 133.184C84.5803 131.952 86.2189 130.796 86.3715 127.815C86.5241 124.833 86.3715 122.347 86.3715 122.347C86.3715 122.347 89.0222 112.026 88.733 107.539C88.4438 103.052 83.8734 95.1203 80.2107 94.9454C76.5479 94.7705 71.7847 95.2952 68.0898 100.588C64.395 105.882 65.15 121.335 64.5717 122.301C63.9933 123.267 64.7966 128.035 64.7966 128.035C64.4756 128.262 64.2092 128.551 64.0153 128.883C63.8214 129.214 63.7044 129.581 63.672 129.959C63.6078 131.199 65.0215 134.249 65.0215 134.249L66.0818 137.473Z" fill="white" stroke="#263238" stroke-width="1.00396" stroke-miterlimit="10"/>
<g style="mix-blend-mode:multiply">
<path d="M64.893 118.332C64.9182 119.659 64.8133 120.986 64.5797 122.294C64.0657 123.161 64.652 127.078 64.7805 127.876C71.6657 129.901 78.9462 130.421 86.0743 129.397C86.2275 128.869 86.319 128.325 86.3474 127.778C86.5081 124.804 86.3474 122.309 86.3474 122.309C86.3474 122.309 86.5804 121.389 86.9017 119.99C79.5195 120.434 72.1081 119.876 64.893 118.332Z" fill="#2B7A78"/>
</g>
<g style="mix-blend-mode:multiply">
<path d="M67.5914 101.434C66.4427 103.616 65.8002 106.894 65.4307 110.217C72.7225 112.852 80.5844 113.758 88.3309 112.856C88.64 111.098 88.7771 109.316 88.7406 107.533C88.6015 106.124 88.2498 104.741 87.6964 103.426C80.9324 103.576 74.176 102.906 67.5914 101.434Z" fill="#2B7A78"/>
</g>
<path d="M65.0215 134.332L66.0577 137.473L78.299 145.839L81.4718 140.515C81.4718 140.515 83.6646 138.88 83.9859 137.648C84.0432 137.434 84.0782 137.215 84.0903 136.994C77.6394 136.888 71.23 135.994 65.0215 134.332Z" fill="#263238"/>
<path d="M73.8806 284.638C73.8806 284.638 74.1537 278.052 75.4871 268.424C76.8204 258.796 73.6155 245.122 73.0774 242.84C72.5392 240.559 73.3505 235.494 72.8123 233.714C72.2741 231.935 69.6716 224.345 71.2058 215.538C72.74 206.731 73.985 183.452 73.985 183.452C73.985 183.452 70.1215 180.478 68.9889 176.607C67.8563 172.736 68.7238 171.52 68.7238 171.52" stroke="#263238" stroke-width="1.00396" stroke-miterlimit="10"/>
<path d="M75.6725 171.879L74.1865 179.667" stroke="#263238" stroke-width="1.00396" stroke-miterlimit="10"/>
</svg>
