<svg width="327" height="260" viewBox="0 0 327 260" fill="none" xmlns="http://www.w3.org/2000/svg">
<path d="M260.778 254.942C249.5 248.776 249.5 238.782 260.778 232.616C272.057 226.451 290.344 226.451 301.623 232.616C312.902 238.782 312.902 248.776 301.623 254.942C290.344 261.107 272.057 261.107 260.778 254.942Z" fill="#E0E0E0"/>
<path d="M31.3769 255.798L1.70889 239.583C0.0371418 238.67 0.0371418 237.184 1.70889 236.272L174.278 141.938C175.216 141.488 176.253 141.254 177.304 141.254C178.356 141.254 179.392 141.488 180.33 141.938L210.005 158.154C211.677 159.066 211.677 160.552 210.005 161.464L37.4361 255.798C36.4969 256.248 35.4591 256.482 34.4065 256.482C33.3539 256.482 32.3161 256.248 31.3769 255.798Z" fill="#E0E0E0"/>
<path d="M138.016 226.891L163.522 212.929C166.151 211.491 167.465 209.611 167.465 207.724C167.465 205.837 167.465 204.365 167.465 204.365L141.009 190.237C140.27 189.785 139.654 189.173 139.213 188.452C138.771 187.731 138.516 186.922 138.468 186.09V156.307L93.937 180.678V210.447C93.9883 211.279 94.2449 212.087 94.6861 212.807C95.1273 213.527 95.7409 214.14 96.4775 214.595L118.991 226.87C124.233 229.766 132.759 229.766 138.016 226.891Z" fill="#2B7A78"/>
<g opacity="0.6">
<path d="M138.015 226.891L163.522 212.929C166.15 211.491 167.464 209.611 167.464 207.724C167.464 205.837 167.464 204.365 167.464 204.365L141.008 190.237C140.269 189.785 139.653 189.173 139.212 188.452C138.77 187.731 138.515 186.922 138.467 186.09V156.307L93.936 180.678V210.447C93.9873 211.279 94.2439 212.087 94.6851 212.807C95.1264 213.527 95.7399 214.14 96.4765 214.595L118.99 226.87C124.232 229.766 132.758 229.766 138.015 226.891Z" fill="black"/>
</g>
<path opacity="0.3" d="M104.617 215.722V219.068L96.455 214.609C95.7186 214.155 95.1056 213.543 94.6655 212.822C94.2254 212.102 93.9706 211.293 93.9219 210.462V180.679L102.405 176.041C102.58 178.08 102.77 180.188 102.952 182.262L96.988 185.51V208.769C97.0352 209.601 97.2901 210.411 97.7317 211.131C98.1733 211.852 98.789 212.464 99.5284 212.916L104.617 215.722Z" fill="black"/>
<path d="M96.9888 208.775C97.0389 209.607 97.295 210.416 97.7364 211.136C98.1777 211.856 98.7919 212.468 99.5292 212.923L118.962 223.525C124.219 226.394 132.745 226.401 138.009 223.525L163.559 209.563C168.823 206.688 168.823 202.029 163.559 199.154L144.112 188.551C143.376 188.096 142.763 187.483 142.324 186.763C141.884 186.043 141.628 185.235 141.578 184.404V161.139L97.0472 185.51L96.9888 208.775Z" fill="#2B7A78"/>
<path opacity="0.3" d="M96.9888 208.775C97.0389 209.607 97.295 210.416 97.7364 211.136C98.1777 211.856 98.7919 212.468 99.5292 212.923L118.962 223.525C124.219 226.394 132.745 226.401 138.009 223.525L163.559 209.563C168.823 206.688 168.823 202.029 163.559 199.154L144.112 188.551C143.376 188.096 142.763 187.483 142.324 186.763C141.884 186.043 141.628 185.235 141.578 184.404V161.139L97.0472 185.51L96.9888 208.775Z" fill="black"/>
<path opacity="0.5" d="M149.258 191.392L144.082 188.565C143.346 188.11 142.734 187.497 142.294 186.777C141.854 186.057 141.599 185.249 141.549 184.418V161.139L97.0176 185.51V208.775C97.0677 209.607 97.3238 210.416 97.7652 211.136C98.2065 211.856 98.8207 212.468 99.5581 212.923L104.668 215.687L149.258 191.392Z" fill="black"/>
<path d="M167.472 204.373V207.732C167.472 209.619 166.151 211.492 163.53 212.937L137.979 226.892C135.183 228.305 132.06 229.039 128.891 229.028V225.682C132.06 225.694 135.183 224.96 137.979 223.547L163.53 209.578C166.151 208.147 167.472 206.26 167.472 204.373Z" fill="#2B7A78"/>
<path opacity="0.5" d="M167.472 204.373V207.732C167.472 209.619 166.151 211.492 163.53 212.937L137.979 226.892C135.183 228.305 132.06 229.039 128.891 229.028V225.682C132.06 225.694 135.183 224.96 137.979 223.547L163.53 209.578C166.151 208.147 167.472 206.26 167.472 204.373Z" fill="black"/>
<path d="M25.4464 237.687C26.4091 238.127 27.4676 238.347 28.5365 238.329C29.6055 238.311 30.655 238.056 31.6005 237.584L203.885 143.409C204.809 142.839 205.578 142.07 206.13 141.166C206.681 140.262 207 139.247 207.061 138.204V6.24259C207.028 5.22818 206.742 4.23551 206.227 3.34546C205.712 2.45541 204.982 1.69318 204.097 1.12088C203.135 0.680147 202.078 0.46046 201.01 0.479676C199.941 0.498892 198.893 0.75647 197.95 1.23147L25.6655 95.4336C24.7449 96.0077 23.9807 96.7796 23.4351 97.6865C22.8896 98.5934 22.5782 99.6096 22.5264 100.652V232.593C22.5589 233.599 22.84 234.584 23.3471 235.469C23.8542 236.353 24.5732 237.113 25.4464 237.687Z" fill="#2B7A78"/>
<path d="M31.6229 237.576L203.908 143.401C204.833 142.832 205.602 142.064 206.154 141.159C206.706 140.255 207.024 139.24 207.083 138.197V6.24182C207.083 4.32723 205.66 3.54619 203.908 4.50694L31.6229 98.6814C30.6987 99.2515 29.9295 100.02 29.3777 100.924C28.8259 101.829 28.5072 102.843 28.4473 103.886V235.841C28.4473 237.756 29.8708 238.537 31.6229 237.576Z" fill="#2B7A78"/>
<path opacity="0.5" d="M31.6229 237.576L203.908 143.401C204.833 142.832 205.602 142.064 206.154 141.159C206.706 140.255 207.024 139.24 207.083 138.197V6.24182C207.083 4.32723 205.66 3.54619 203.908 4.50694L31.6229 98.6814C30.6987 99.2515 29.9295 100.02 29.3777 100.924C28.8259 101.829 28.5072 102.843 28.4473 103.886V235.841C28.4473 237.756 29.8708 238.537 31.6229 237.576Z" fill="black"/>
<path d="M31.1552 241.005C30.2518 241.378 29.2736 241.562 28.288 241.543C27.3025 241.523 26.333 241.302 25.4464 240.894C24.5713 240.319 23.8511 239.557 23.3439 238.67C22.8367 237.782 22.5567 236.795 22.5264 235.786V223.773L28.476 227.036V239.049C28.4395 240.797 29.6149 241.592 31.1552 241.005Z" fill="#2B7A78"/>
<path opacity="0.5" d="M31.1552 241.005C30.2518 241.378 29.2736 241.562 28.288 241.543C27.3025 241.523 26.333 241.302 25.4464 240.894C24.5713 240.319 23.8511 239.557 23.3439 238.67C22.8367 237.782 22.5567 236.795 22.5264 235.786V223.773L28.476 227.036V239.049C28.4395 240.797 29.6149 241.592 31.1552 241.005Z" fill="black"/>
<path d="M28.4399 227.035V239.048C28.4399 240.963 29.9 241.737 31.6155 240.783L203.9 146.608C204.82 146.041 205.587 145.277 206.138 144.377C206.69 143.478 207.011 142.469 207.076 141.431V129.363L28.4399 227.035Z" fill="#2B7A78"/>
<path opacity="0.3" d="M28.4473 227.008V239.048C28.4473 240.963 29.9073 241.737 31.6229 240.783L203.908 146.608C204.826 146.04 205.591 145.275 206.141 144.376C206.692 143.477 207.012 142.469 207.076 141.431V129.363L28.4473 227.008Z" fill="black"/>
<path d="M34.3965 211.934V105.76C34.4305 105.135 34.6201 104.526 34.95 103.983C35.2798 103.44 35.7405 102.978 36.2945 102.636L199.191 13.5625C200.242 12.9888 201.097 13.4519 201.097 14.5993V120.828C201.061 121.454 200.87 122.063 200.539 122.606C200.208 123.149 199.746 123.61 199.191 123.952L36.3018 213.005C35.2506 213.579 34.3965 213.109 34.3965 211.934Z" fill="#2B7A78"/>
<path d="M34.3965 211.934V105.76C34.4305 105.135 34.6201 104.526 34.95 103.983C35.2798 103.44 35.7405 102.978 36.2945 102.636L199.191 13.5625C200.242 12.9888 201.097 13.4519 201.097 14.5993V120.828C201.061 121.454 200.87 122.063 200.539 122.606C200.208 123.149 199.746 123.61 199.191 123.952L36.3018 213.005C35.2506 213.579 34.3965 213.109 34.3965 211.934Z" fill="#263238"/>
<path d="M117.757 182.026C116.89 182.56 116.168 183.28 115.651 184.128C115.133 184.976 114.835 185.928 114.779 186.906C114.779 188.703 116.115 189.436 117.757 188.537C118.625 188.002 119.348 187.281 119.865 186.432C120.383 185.583 120.681 184.629 120.736 183.65C120.736 181.853 119.4 181.127 117.757 182.026Z" fill="#2B7A78"/>
<path opacity="0.7" d="M29.3813 100.914C28.8155 101.815 28.4921 102.833 28.4395 103.88V227.036L22.5264 223.773V100.652C22.5647 99.6018 22.8864 98.5786 23.4608 97.6797L29.3813 100.914Z" fill="black"/>
<path opacity="0.3" d="M207.046 5.74471C206.82 4.19644 205.499 3.67114 203.9 4.50748L31.6151 98.682C30.681 99.2351 29.91 100.003 29.374 100.915L23.417 97.659C23.9566 96.7479 24.7299 95.9801 25.6655 95.4265L197.95 1.25889C198.895 0.783824 199.944 0.526234 201.013 0.50702C202.082 0.487805 203.141 0.707507 204.104 1.1483C204.914 1.6704 205.595 2.35094 206.103 3.14392C206.61 3.93689 206.932 4.82382 207.046 5.74471Z" fill="black"/>
<path d="M216.35 21.9847C216.094 21.8631 215.808 21.8098 215.522 21.8305C215.237 21.8512 214.962 21.9452 214.729 22.1022L52.1682 111.017C51.5267 111.419 50.9942 111.958 50.6138 112.59C50.2333 113.223 50.0155 113.932 49.9781 114.659V220.183C49.9553 220.539 50.0301 220.895 50.195 221.216C50.36 221.537 50.6097 221.812 50.9198 222.015C51.2776 222.201 53.1902 223.252 53.7596 223.542C53.9611 223.64 54.1862 223.684 54.4119 223.672C54.6376 223.66 54.8559 223.591 55.0445 223.473L217.569 134.559C218.21 134.157 218.743 133.618 219.123 132.985C219.504 132.352 219.721 131.643 219.759 130.916V24.8462C219.791 24.5782 219.745 24.3069 219.623 24.0627C219.502 23.8185 219.311 23.6111 219.073 23.4639C218.708 23.2358 216.758 22.2128 216.35 21.9847Z" fill="#2B7A78"/>
<path d="M55.0084 112.51L217.577 23.6297C218.803 22.9385 219.767 23.5053 219.767 24.8462V130.916C219.729 131.643 219.511 132.352 219.131 132.985C218.75 133.618 218.218 134.157 217.577 134.559L55.0084 223.473C53.782 224.164 52.8184 223.052 52.8184 221.711V116.152C52.8569 115.425 53.0751 114.717 53.4555 114.084C53.8359 113.452 54.3678 112.912 55.0084 112.51Z" fill="#FAFAFA"/>
<path d="M218.569 24.031C219 24.031 219.066 24.5425 219.066 24.8466V130.916C219.026 131.526 218.838 132.117 218.515 132.645C218.191 133.173 217.743 133.623 217.204 133.958L54.658 222.872C54.5489 222.939 54.4229 222.977 54.293 222.983C53.8842 222.983 53.563 222.388 53.563 221.711V116.153C53.5982 115.544 53.7812 114.951 54.0977 114.42C54.4142 113.889 54.8558 113.434 55.388 113.091L217.942 24.2246C218.13 24.1097 218.346 24.043 218.569 24.031ZM218.569 23.3398C218.218 23.354 217.876 23.454 217.577 23.6301L55.0084 112.51C54.3678 112.913 53.8359 113.452 53.4555 114.085C53.0751 114.717 52.8569 115.426 52.8184 116.153V221.711C52.8184 222.776 53.4462 223.674 54.2784 223.674C54.5362 223.669 54.788 223.6 55.0084 223.474L217.569 134.559C218.211 134.157 218.743 133.618 219.124 132.985C219.504 132.353 219.722 131.644 219.759 130.916V24.8466C219.759 23.8928 219.263 23.3398 218.533 23.3398H218.569Z" fill="#E0E0E0"/>
<path d="M50.8762 222.016C51.1171 222.134 52.8473 223.067 53.6065 223.481C53.3339 223.267 53.118 222.996 52.976 222.688C52.834 222.381 52.7699 222.047 52.7889 221.712V123.045L49.9418 121.469V220.184C49.9182 220.54 49.9918 220.895 50.1555 221.216C50.3192 221.537 50.5674 221.812 50.8762 222.016Z" fill="#F0F0F0"/>
<path d="M219.796 24.826C219.796 23.4989 218.796 22.9598 217.606 23.6302L55.0084 112.51C54.3678 112.913 53.8359 113.452 53.4555 114.085C53.0751 114.717 52.8569 115.426 52.8184 116.153V123.065L219.796 31.7379V24.826Z" fill="#2B7A78"/>
<g opacity="0.4">
<path d="M217.577 23.6299L55.009 112.503C54.3565 112.893 53.8191 113.432 53.4468 114.072L50.6216 112.517C50.9932 111.9 51.5262 111.383 52.1692 111.017L214.73 22.1024C214.963 21.9442 215.237 21.8491 215.522 21.8271C215.808 21.8052 216.094 21.8574 216.351 21.978C216.745 22.213 218.592 23.2014 219.066 23.4433C218.821 23.3571 218.557 23.3291 218.297 23.3616C218.038 23.3941 217.79 23.4862 217.577 23.6299Z" fill="white"/>
</g>
<path opacity="0.15" d="M49.9424 121.475V114.626C49.9724 113.879 50.2063 113.153 50.6213 112.518L53.4538 114.066C53.0447 114.69 52.8157 115.405 52.7895 116.139V123.051L49.9424 121.475Z" fill="black"/>
<path d="M185.51 104.397L88.147 157.619C87.6735 157.91 87.2793 158.302 86.9964 158.765C86.7135 159.227 86.55 159.746 86.519 160.28V186.711C86.55 187.245 86.7135 187.764 86.9964 188.226C87.2793 188.689 87.6735 189.081 88.147 189.372L90.9868 190.92C91.4915 191.162 92.0491 191.288 92.6147 191.288C93.1803 191.288 93.738 191.162 94.2427 190.92L191.591 137.699C192.064 137.406 192.459 137.012 192.741 136.549C193.024 136.085 193.188 135.565 193.219 135.031V108.593C193.188 108.059 193.024 107.54 192.741 107.078C192.459 106.615 192.064 106.223 191.591 105.932L188.744 104.383C188.241 104.146 187.687 104.023 187.125 104.025C186.563 104.028 186.01 104.155 185.51 104.397Z" fill="#2B7A78"/>
<path opacity="0.5" d="M193.219 108.357C193.102 107.562 192.423 107.272 191.606 107.721L94.2428 160.943C93.7626 161.225 93.3678 161.621 93.0966 162.09L87.001 158.759C87.2742 158.296 87.6658 157.907 88.1398 157.625L185.51 104.404C186.013 104.161 186.57 104.035 187.134 104.035C187.699 104.035 188.255 104.161 188.758 104.404L191.606 105.952C192.04 106.221 192.408 106.575 192.686 106.99C192.964 107.405 193.146 107.871 193.219 108.357Z" fill="white"/>
<path d="M93.9653 191.052C93.4885 191.23 92.9776 191.311 92.4657 191.289C91.9538 191.268 91.4523 191.145 90.9941 190.928L88.147 189.379C87.6743 189.088 87.2807 188.695 86.9979 188.233C86.7151 187.77 86.5511 187.252 86.519 186.718V160.287C86.541 159.748 86.7067 159.222 87.0009 158.76L93.0965 162.091C92.8003 162.548 92.6343 163.069 92.6147 163.605V190.043C92.6147 190.921 93.1987 191.329 93.9653 191.052Z" fill="#263238"/>
<path d="M94.2432 160.944L191.606 107.723C192.504 107.232 193.234 107.626 193.234 108.607V135.045C193.203 135.58 193.039 136.1 192.757 136.564C192.474 137.027 192.08 137.421 191.606 137.713L94.2578 190.935C93.3599 191.426 92.6299 191.025 92.6299 190.043V163.612C92.6592 163.079 92.8205 162.56 93.1007 162.096C93.3809 161.633 93.7723 161.238 94.2432 160.944Z" fill="#2B7A78"/>
<path d="M159.697 118.512L88.1549 157.626C87.6809 157.908 87.2893 158.297 87.0161 158.76L93.1118 162.091C93.3829 161.622 93.7778 161.226 94.2579 160.944L165.8 121.836L159.697 118.512Z" fill="#455A64"/>
<path d="M165.785 121.836L94.2427 160.943C93.7691 161.236 93.3749 161.63 93.092 162.093C92.8092 162.557 92.6457 163.077 92.6147 163.611V190.036C92.6147 191.017 93.3448 191.418 94.2427 190.927L165.785 151.82V121.836Z" fill="#37474F"/>
<path d="M110.741 157.723L147.658 137.547C149.184 136.711 150.425 137.305 150.425 138.874C150.357 139.755 150.07 140.609 149.588 141.365C149.106 142.122 148.442 142.76 147.651 143.228L110.741 163.411C109.215 164.248 107.967 163.653 107.967 162.084C108.036 161.202 108.323 160.348 108.804 159.59C109.286 158.833 109.95 158.193 110.741 157.723Z" fill="#2B7A78"/>
<path d="M118.305 164.406C118.311 164.399 118.32 164.393 118.329 164.389C118.339 164.385 118.349 164.383 118.359 164.383C118.37 164.383 118.38 164.385 118.389 164.389C118.399 164.393 118.407 164.399 118.414 164.406C118.447 164.453 118.462 164.509 118.458 164.565V168.498C118.458 168.878 118.424 169.257 118.356 169.632C118.295 169.974 118.192 170.308 118.049 170.627C117.918 170.919 117.746 171.194 117.538 171.443C117.333 171.673 117.085 171.868 116.808 172.016C116.591 172.15 116.337 172.222 116.078 172.224C115.979 172.216 115.882 172.19 115.795 172.146C115.707 172.102 115.629 172.041 115.567 171.968C115.407 171.765 115.301 171.527 115.26 171.277C115.19 170.942 115.159 170.601 115.165 170.261V166.321C115.165 166.252 115.18 166.184 115.209 166.12C115.227 166.063 115.266 166.014 115.319 165.982L115.779 165.726C115.794 165.713 115.813 165.706 115.833 165.706C115.854 165.706 115.873 165.713 115.888 165.726C115.922 165.773 115.937 165.829 115.932 165.885V169.77C115.926 169.984 115.948 170.197 115.998 170.406C116.018 170.539 116.079 170.664 116.173 170.765C116.206 170.802 116.247 170.831 116.294 170.851C116.341 170.87 116.392 170.878 116.443 170.876C116.568 170.868 116.689 170.83 116.793 170.765C116.923 170.692 117.041 170.601 117.144 170.496C117.258 170.371 117.351 170.232 117.421 170.081C117.504 169.904 117.565 169.718 117.604 169.528C117.646 169.3 117.666 169.068 117.662 168.837V164.945C117.664 164.876 117.682 164.808 117.713 164.745C117.731 164.688 117.77 164.639 117.823 164.607L118.305 164.406Z" fill="#FAFAFA"/>
<path d="M121.166 168.125C121.17 168.074 121.158 168.023 121.13 167.98C121.113 167.962 121.091 167.948 121.067 167.94C121.043 167.931 121.017 167.928 120.991 167.931C120.902 167.92 120.811 167.92 120.721 167.931L120.298 168.007C120.161 168.04 120.018 168.04 119.882 168.007C119.774 167.975 119.682 167.909 119.619 167.821C119.547 167.709 119.5 167.584 119.48 167.454C119.409 167.084 119.409 166.705 119.48 166.335C119.535 166.122 119.613 165.916 119.714 165.72C119.814 165.523 119.936 165.338 120.079 165.167C120.217 165.003 120.385 164.865 120.575 164.759C120.729 164.67 120.9 164.614 121.079 164.593C121.208 164.58 121.339 164.607 121.451 164.669C121.558 164.731 121.642 164.823 121.692 164.932C121.751 165.061 121.783 165.199 121.787 165.339C121.795 165.409 121.779 165.479 121.743 165.54C121.725 165.597 121.686 165.646 121.634 165.678L121.196 165.92C121.176 165.931 121.153 165.937 121.13 165.937C121.107 165.937 121.084 165.931 121.064 165.92L120.969 165.851C120.932 165.823 120.886 165.806 120.838 165.803C120.744 165.812 120.654 165.843 120.575 165.892C120.461 165.958 120.359 166.042 120.276 166.141C120.187 166.25 120.141 166.384 120.144 166.521C120.134 166.574 120.134 166.628 120.144 166.68C120.158 166.7 120.177 166.716 120.198 166.728C120.22 166.74 120.244 166.747 120.269 166.749C120.348 166.762 120.43 166.762 120.509 166.749L120.918 166.68C121.261 166.618 121.495 166.68 121.648 166.86C121.809 167.116 121.883 167.413 121.86 167.71C121.858 167.916 121.829 168.12 121.772 168.318C121.715 168.534 121.631 168.743 121.524 168.941C121.417 169.145 121.282 169.336 121.123 169.507C120.971 169.675 120.791 169.818 120.59 169.929C120.429 170.026 120.247 170.085 120.057 170.102C119.92 170.106 119.784 170.07 119.67 169.998C119.557 169.925 119.471 169.821 119.422 169.701C119.363 169.57 119.333 169.429 119.334 169.286C119.327 169.214 119.343 169.142 119.378 169.079C119.396 169.022 119.435 168.973 119.487 168.941L119.925 168.699C119.984 168.699 120.028 168.664 120.057 168.699L120.152 168.795C120.171 168.816 120.195 168.833 120.221 168.845C120.247 168.856 120.276 168.863 120.305 168.864C120.408 168.865 120.508 168.833 120.59 168.775C120.722 168.704 120.84 168.613 120.94 168.505C120.99 168.448 121.032 168.385 121.064 168.318C121.116 168.264 121.151 168.197 121.166 168.125Z" fill="#FAFAFA"/>
<path d="M122.656 166.253C122.654 165.894 122.686 165.535 122.75 165.182C122.811 164.849 122.907 164.522 123.035 164.207C123.142 163.924 123.29 163.657 123.473 163.412C123.626 163.202 123.825 163.025 124.057 162.894C124.226 162.786 124.433 162.744 124.634 162.776C124.812 162.815 124.969 162.916 125.072 163.06C125.209 163.247 125.306 163.459 125.357 163.682C125.427 163.972 125.461 164.269 125.459 164.566V164.995C125.461 165.067 125.443 165.139 125.408 165.202C125.39 165.259 125.351 165.308 125.298 165.341L123.4 166.384C123.396 166.506 123.413 166.627 123.451 166.744C123.479 166.822 123.53 166.891 123.597 166.944C123.657 166.989 123.733 167.011 123.809 167.006C123.897 166.996 123.982 166.968 124.057 166.923C124.168 166.867 124.266 166.792 124.349 166.702C124.424 166.623 124.488 166.534 124.539 166.44C124.57 166.385 124.604 166.332 124.641 166.281C124.672 166.245 124.709 166.215 124.751 166.191L125.203 165.942C125.219 165.93 125.238 165.924 125.258 165.924C125.278 165.924 125.297 165.93 125.313 165.942C125.332 165.964 125.346 165.989 125.353 166.017C125.361 166.044 125.362 166.073 125.357 166.101C125.349 166.236 125.319 166.368 125.269 166.495C125.206 166.687 125.123 166.872 125.021 167.048C124.907 167.25 124.769 167.44 124.612 167.615C124.455 167.793 124.267 167.944 124.057 168.064C123.885 168.171 123.678 168.217 123.473 168.195C123.294 168.154 123.137 168.051 123.035 167.905C122.891 167.695 122.795 167.46 122.75 167.214C122.684 166.897 122.652 166.575 122.656 166.253ZM124.057 164.048C123.945 164.105 123.848 164.186 123.772 164.283C123.691 164.38 123.625 164.487 123.575 164.601C123.524 164.715 123.483 164.833 123.451 164.953C123.426 165.063 123.408 165.174 123.4 165.285L124.685 164.594C124.678 164.499 124.663 164.404 124.641 164.311C124.63 164.227 124.595 164.148 124.539 164.083C124.517 164.053 124.489 164.027 124.456 164.008C124.424 163.989 124.387 163.977 124.349 163.972C124.245 163.964 124.142 163.991 124.057 164.048Z" fill="#FAFAFA"/>
<path d="M127.752 162.12C127.53 162.239 127.356 162.424 127.255 162.645C127.141 162.937 127.089 163.247 127.102 163.557V166.053C127.103 166.124 127.088 166.194 127.058 166.26C127.04 166.317 127.001 166.366 126.948 166.398L126.518 166.633C126.511 166.64 126.502 166.646 126.493 166.65C126.484 166.654 126.473 166.657 126.463 166.657C126.453 166.657 126.442 166.654 126.433 166.65C126.424 166.646 126.415 166.64 126.408 166.633C126.376 166.586 126.36 166.53 126.364 166.474V162.002C126.365 161.931 126.38 161.861 126.408 161.795C126.429 161.739 126.467 161.691 126.518 161.657L126.948 161.422C126.963 161.408 126.983 161.401 127.003 161.401C127.024 161.401 127.043 161.408 127.058 161.422C127.092 161.465 127.107 161.52 127.102 161.574V161.795C127.189 161.609 127.296 161.433 127.423 161.27C127.538 161.118 127.688 160.993 127.861 160.903L128.124 160.758C128.137 160.745 128.156 160.738 128.175 160.738C128.194 160.738 128.212 160.745 128.226 160.758C128.261 160.804 128.279 160.86 128.277 160.917V161.546C128.276 161.618 128.258 161.688 128.226 161.753C128.208 161.808 128.172 161.856 128.124 161.892L127.752 162.12Z" fill="#FAFAFA"/>
<path d="M133.197 161.787C133.203 161.78 133.212 161.774 133.221 161.77C133.231 161.766 133.241 161.764 133.251 161.764C133.262 161.764 133.272 161.766 133.281 161.77C133.291 161.774 133.299 161.78 133.306 161.787C133.339 161.834 133.354 161.89 133.35 161.946V162.638C133.35 162.709 133.335 162.779 133.306 162.845C133.281 162.896 133.243 162.941 133.197 162.976L130.7 164.359C130.685 164.372 130.665 164.379 130.645 164.379C130.625 164.379 130.605 164.372 130.59 164.359C130.558 164.314 130.542 164.261 130.547 164.207V157.986C130.547 157.915 130.562 157.844 130.59 157.779C130.611 157.725 130.649 157.679 130.7 157.647L131.16 157.392C131.175 157.378 131.194 157.371 131.215 157.371C131.235 157.371 131.254 157.378 131.269 157.392C131.302 157.436 131.317 157.49 131.313 157.544V162.804L133.197 161.787Z" fill="#FAFAFA"/>
<path d="M135.438 156.673C135.602 156.565 135.8 156.514 136 156.528C136.171 156.54 136.33 156.615 136.445 156.735C136.581 156.883 136.681 157.058 136.737 157.246C136.815 157.491 136.859 157.744 136.869 158C136.869 158.055 136.869 158.131 136.869 158.221V158.753C136.869 158.836 136.869 158.912 136.869 158.974C136.854 159.275 136.81 159.573 136.737 159.866C136.67 160.151 136.572 160.429 136.445 160.695C136.329 160.943 136.18 161.176 136 161.387C135.846 161.578 135.655 161.74 135.438 161.864C135.269 161.968 135.069 162.018 134.868 162.009C134.7 161.995 134.543 161.921 134.43 161.801C134.29 161.659 134.19 161.485 134.138 161.297C134.06 161.052 134.016 160.799 134.007 160.543C134.007 160.488 134.007 160.419 134.007 160.329V159.797C134.007 159.707 134.007 159.631 134.007 159.576C134.015 159.273 134.057 158.972 134.131 158.677C134.202 158.39 134.302 158.11 134.43 157.841C134.546 157.595 134.693 157.362 134.868 157.15C135.023 156.957 135.217 156.795 135.438 156.673ZM136.124 158.456C136.124 158.303 136.096 158.151 136.044 158.007C136.016 157.919 135.96 157.841 135.883 157.786C135.821 157.746 135.746 157.729 135.671 157.737C135.588 157.752 135.508 157.783 135.438 157.827C135.352 157.872 135.273 157.927 135.204 157.993C135.12 158.075 135.049 158.168 134.992 158.269C134.919 158.395 134.865 158.53 134.832 158.67C134.784 158.847 134.755 159.027 134.744 159.209C134.744 159.265 134.744 159.327 134.744 159.403V159.894C134.744 159.97 134.744 160.032 134.744 160.073C134.751 160.226 134.78 160.378 134.832 160.523C134.858 160.611 134.915 160.689 134.992 160.744C135.023 160.764 135.057 160.778 135.094 160.786C135.13 160.793 135.168 160.793 135.204 160.785C135.287 160.772 135.366 160.744 135.438 160.702C135.522 160.656 135.601 160.6 135.671 160.536C135.753 160.452 135.824 160.359 135.883 160.26C135.953 160.133 136.007 159.998 136.044 159.859C136.091 159.683 136.118 159.502 136.124 159.32C136.128 159.256 136.128 159.191 136.124 159.126V158.643C136.128 158.58 136.128 158.518 136.124 158.456Z" fill="#FAFAFA"/>
<path d="M139.103 160.716C139.197 160.662 139.28 160.594 139.351 160.515C139.439 160.418 139.515 160.311 139.578 160.197C139.65 160.058 139.707 159.912 139.746 159.762C139.791 159.592 139.813 159.418 139.811 159.243V158.891C139.811 158.96 139.738 159.043 139.687 159.14C139.637 159.241 139.579 159.338 139.512 159.43C139.436 159.527 139.353 159.62 139.264 159.706C139.172 159.797 139.066 159.874 138.95 159.935C138.875 159.983 138.79 160.017 138.701 160.033C138.612 160.05 138.52 160.049 138.432 160.031C138.269 159.983 138.13 159.883 138.037 159.748C137.918 159.569 137.832 159.373 137.782 159.167C137.72 158.906 137.685 158.64 137.68 158.373C137.68 158.283 137.68 158.172 137.68 158.041C137.68 157.909 137.68 157.799 137.68 157.702C137.689 157.398 137.723 157.095 137.782 156.797C137.842 156.502 137.927 156.213 138.037 155.933C138.141 155.689 138.273 155.457 138.432 155.241C138.566 155.051 138.743 154.891 138.95 154.771C139.047 154.716 139.153 154.676 139.264 154.654C139.346 154.639 139.43 154.639 139.512 154.654C139.577 154.671 139.637 154.702 139.687 154.744C139.734 154.778 139.776 154.817 139.811 154.861V154.64C139.812 154.569 139.827 154.499 139.855 154.433C139.876 154.379 139.914 154.333 139.965 154.301L140.395 154.059C140.41 154.046 140.43 154.039 140.45 154.039C140.47 154.039 140.49 154.046 140.505 154.059C140.54 154.106 140.558 154.162 140.556 154.218V158.711C140.576 159.384 140.444 160.053 140.169 160.674C139.954 161.162 139.58 161.574 139.103 161.849C138.94 161.945 138.754 162 138.563 162.008C138.412 162.017 138.261 161.981 138.132 161.904C138.009 161.817 137.909 161.703 137.84 161.573C137.769 161.415 137.729 161.246 137.723 161.075C137.717 161.003 137.732 160.931 137.767 160.868C137.785 160.811 137.824 160.762 137.877 160.729L138.264 160.522C138.273 160.513 138.283 160.506 138.295 160.501C138.307 160.496 138.32 160.494 138.333 160.494C138.346 160.494 138.359 160.496 138.371 160.501C138.383 160.506 138.394 160.513 138.402 160.522C138.438 160.558 138.47 160.597 138.497 160.64C138.542 160.714 138.615 160.768 138.702 160.792C138.789 160.854 138.921 160.785 139.103 160.716ZM138.417 157.363C138.417 157.548 138.417 157.727 138.417 157.902C138.396 158.179 138.479 158.453 138.651 158.677C138.716 158.73 138.798 158.759 138.884 158.759C138.97 158.759 139.053 158.73 139.118 158.677C139.33 158.546 139.495 158.358 139.592 158.138C139.725 157.849 139.8 157.54 139.811 157.225C139.811 157.121 139.811 156.997 139.811 156.852C139.811 156.707 139.811 156.582 139.811 156.492C139.826 156.245 139.749 156 139.592 155.801C139.528 155.745 139.443 155.714 139.355 155.714C139.267 155.714 139.183 155.745 139.118 155.801C138.91 155.931 138.748 156.116 138.651 156.333C138.501 156.658 138.421 157.009 138.417 157.363Z" fill="#FAFAFA"/>
<path d="M142.257 151.224C142.271 151.213 142.289 151.207 142.308 151.207C142.327 151.207 142.345 151.213 142.359 151.224C142.397 151.269 142.416 151.326 142.41 151.383V152.137C142.411 152.209 142.393 152.28 142.359 152.344C142.338 152.396 142.303 152.442 142.257 152.475L141.768 152.745C141.761 152.752 141.752 152.758 141.743 152.762C141.733 152.766 141.723 152.768 141.713 152.768C141.703 152.768 141.692 152.766 141.683 152.762C141.673 152.758 141.665 152.752 141.658 152.745C141.639 152.724 141.625 152.7 141.616 152.674C141.607 152.648 141.604 152.62 141.607 152.593V151.84C141.607 151.768 141.624 151.697 141.658 151.632C141.679 151.578 141.717 151.532 141.768 151.501L142.257 151.224ZM142.381 157.715C142.381 157.784 142.366 157.852 142.337 157.915C142.314 157.969 142.276 158.017 142.228 158.053L141.79 158.288C141.783 158.296 141.776 158.301 141.767 158.305C141.758 158.309 141.748 158.311 141.738 158.311C141.729 158.311 141.719 158.309 141.71 158.305C141.701 158.301 141.694 158.296 141.687 158.288C141.649 158.244 141.631 158.187 141.636 158.129V153.657C141.636 153.585 141.653 153.514 141.687 153.45C141.708 153.396 141.743 153.349 141.79 153.312L142.228 153.077C142.242 153.064 142.262 153.056 142.282 153.056C142.303 153.056 142.322 153.064 142.337 153.077C142.37 153.121 142.385 153.175 142.381 153.229V157.715Z" fill="#FAFAFA"/>
<path d="M146.22 155.608C146.22 155.679 146.205 155.749 146.177 155.815C146.156 155.869 146.118 155.915 146.067 155.946L145.629 156.188C145.616 156.201 145.597 156.208 145.578 156.208C145.559 156.208 145.541 156.201 145.527 156.188C145.489 156.144 145.47 156.086 145.476 156.029V153.596C145.498 153.309 145.443 153.021 145.315 152.76C145.213 152.587 145.052 152.559 144.826 152.684C144.6 152.827 144.433 153.04 144.352 153.285C144.23 153.611 144.17 153.955 144.176 154.301V156.741C144.176 156.812 144.161 156.883 144.133 156.949C144.115 157.005 144.076 157.055 144.023 157.087L143.592 157.322C143.586 157.329 143.577 157.335 143.568 157.339C143.558 157.343 143.548 157.345 143.538 157.345C143.527 157.345 143.517 157.343 143.508 157.339C143.498 157.335 143.49 157.329 143.483 157.322C143.449 157.278 143.433 157.224 143.439 157.17V152.698C143.438 152.626 143.453 152.556 143.483 152.49C143.501 152.433 143.54 152.384 143.592 152.352L144.023 152.117C144.03 152.11 144.038 152.104 144.048 152.1C144.057 152.096 144.068 152.094 144.078 152.094C144.088 152.094 144.098 152.096 144.108 152.1C144.117 152.104 144.126 152.11 144.133 152.117C144.165 152.164 144.181 152.22 144.176 152.276V152.49C144.272 152.28 144.39 152.078 144.527 151.889C144.647 151.714 144.81 151.57 145.001 151.467C145.167 151.352 145.374 151.303 145.578 151.329C145.659 151.348 145.734 151.384 145.8 151.432C145.865 151.481 145.919 151.543 145.958 151.613C146.064 151.8 146.133 152.003 146.162 152.214C146.201 152.489 146.221 152.766 146.22 153.043V155.608Z" fill="#FAFAFA"/>
<path d="M183.043 135.488L175.955 139.358L177.057 129.944C176.203 129.516 175.663 128.472 175.663 126.972C175.663 124.297 177.385 121.194 179.502 120.06C181.62 118.927 183.335 120.129 183.335 122.825C183.291 124.411 182.813 125.959 181.948 127.318L183.043 135.488Z" fill="#455A64"/>
<path d="M183.049 135.488L176.808 132.08L175.954 139.365L183.049 135.488Z" fill="#37474F"/>
<path d="M179.487 120.038C177.944 121.026 176.792 122.473 176.217 124.151L181.933 127.275C182.798 125.916 183.276 124.368 183.32 122.782C183.334 120.107 181.619 118.884 179.487 120.038Z" fill="#37474F"/>
<path d="M145.03 88.6927C142.599 87.3656 139.248 87.5522 135.54 89.5774C128.137 93.6278 122.137 103.463 122.137 111.557C122.137 115.621 123.655 118.469 126.093 119.782L130.817 122.381C133.24 123.708 136.591 123.515 140.307 121.49C147.709 117.446 153.71 107.604 153.71 99.5098C153.71 95.4664 152.206 92.5979 149.783 91.3054" fill="#2B7A78"/>
<path d="M140.3 92.1833C132.897 96.2336 126.896 106.076 126.896 114.163C126.896 122.25 132.897 125.54 140.3 121.49C147.702 117.439 153.71 107.604 153.703 99.5099C153.696 91.416 147.695 88.1398 140.3 92.1833Z" fill="#2B7A78"/>
<path d="M147.695 110.141V111.068C145.922 114.065 143.378 116.589 140.3 118.408C137.416 119.977 134.81 120.15 132.897 119.148V117.24C132.995 115.255 133.594 113.321 134.643 111.601C135.692 109.88 137.161 108.422 138.927 107.349L140.877 106.285C142.599 105.345 144.278 105.22 145.593 105.946C146.907 106.672 147.695 108.199 147.695 110.141Z" fill="#2B7A78"/>
<path opacity="0.4" d="M145.031 88.6945L149.776 91.3072C147.352 89.9732 144.001 90.1598 140.286 92.185C135.438 94.8392 131.19 99.9747 128.839 105.477L124.086 102.871C126.444 97.3413 130.657 92.2334 135.533 89.5792C139.256 87.5609 142.607 87.3674 145.031 88.6945Z" fill="white"/>
<path opacity="0.2" d="M130.649 122.279L126.101 119.784C123.663 118.47 122.145 115.637 122.145 111.559L126.897 114.171C126.926 118.111 128.328 120.917 130.649 122.279Z" fill="black"/>
<path opacity="0.1" d="M124.101 102.869L128.853 105.475C127.635 108.229 126.981 111.178 126.926 114.163L122.173 111.55C122.232 108.568 122.886 105.622 124.101 102.869Z" fill="black"/>
<path d="M138.607 105.849C138.154 105.854 137.708 105.744 137.314 105.531C136.84 105.232 136.461 104.817 136.215 104.331C135.97 103.844 135.868 103.303 135.92 102.766C135.982 101.507 136.362 100.28 137.027 99.1883C137.693 98.0964 138.625 97.1713 139.745 96.4904C140.196 96.1502 140.744 95.9465 141.318 95.9059C141.892 95.8654 142.466 95.9899 142.965 96.2632C143.463 96.5365 143.863 96.9459 144.112 97.4378C144.361 97.9297 144.447 98.4812 144.359 99.0202C144.296 100.279 143.916 101.506 143.25 102.597C142.585 103.689 141.654 104.614 140.534 105.296C139.954 105.639 139.289 105.829 138.607 105.849Z" fill="white"/>
<path d="M145.593 105.938C144.278 105.212 142.599 105.337 140.877 106.277L138.927 107.341C137.16 108.415 135.69 109.874 134.641 111.596C133.592 113.318 132.994 115.253 132.897 117.239V119.154C134.81 120.156 137.416 119.983 140.3 118.414C143.378 116.595 145.922 114.071 147.695 111.074V110.147C147.695 108.198 146.936 106.671 145.593 105.938Z" fill="white"/>
<path d="M295.669 225.515C295.669 225.515 296.64 217.442 300.882 211.173C305.123 204.904 310.949 200.999 316.387 200.591C321.826 200.183 326.221 204.925 320.403 208.194C314.584 211.463 304.247 214.767 299.487 226.932L295.669 225.515Z" fill="#2B7A78"/>
<path opacity="0.1" d="M295.669 225.515C295.669 225.515 296.64 217.442 300.882 211.173C305.123 204.904 310.949 200.999 316.387 200.591C321.826 200.183 326.221 204.925 320.403 208.194C314.584 211.463 304.247 214.767 299.487 226.932L295.669 225.515Z" fill="black"/>
<path d="M297.268 223.413H297.21C297.138 223.385 297.081 223.332 297.051 223.265C297.021 223.197 297.02 223.121 297.049 223.054C302.787 209.679 313.708 204.087 318.687 203.009C318.724 203.001 318.763 203 318.801 203.006C318.839 203.012 318.875 203.025 318.907 203.044C318.94 203.063 318.968 203.088 318.99 203.118C319.013 203.148 319.029 203.181 319.037 203.216C319.046 203.252 319.047 203.288 319.041 203.324C319.034 203.36 319.021 203.394 319 203.425C318.98 203.456 318.953 203.483 318.922 203.504C318.891 203.525 318.856 203.54 318.818 203.548C313.942 204.613 303.232 210.101 297.589 223.268C297.561 223.323 297.514 223.367 297.456 223.394C297.397 223.42 297.331 223.427 297.268 223.413Z" fill="white"/>
<path d="M326.308 223.572C325.819 224.623 324.607 225.176 323.483 225.604C322.359 226.033 321.132 226.496 320.519 227.491C319.293 229.496 321.308 232.33 319.994 234.272C319.684 234.663 319.294 234.991 318.848 235.235C318.401 235.48 317.907 235.637 317.395 235.696C316.555 235.841 315.701 235.841 314.854 235.91C314.449 235.905 314.044 235.875 313.642 235.82C312.463 235.571 311.229 235.695 310.131 236.173C308.445 237.071 307.941 239.083 306.904 240.638C306.271 241.553 305.436 242.329 304.457 242.911C303.478 243.493 302.378 243.868 301.232 244.011C300.502 244.101 299.042 244.232 298.312 243.824C298.255 243.798 298.201 243.765 298.151 243.727C298.042 243.617 297.91 243.472 297.852 243.396C297.848 243.38 297.848 243.363 297.852 243.347C297.553 242.303 298.042 241.225 298.064 240.147V239.953C298.013 238.702 297.976 237.458 297.947 236.214C297.884 233.91 297.859 231.606 297.874 229.302C297.874 227.809 297.699 226.178 298.37 224.775C299.1 223.227 300.94 223.192 301.634 221.678C301.911 221.07 302.057 220.427 302.327 219.812C302.744 218.918 303.413 218.149 304.26 217.59C305.107 217.03 306.1 216.702 307.131 216.64C310.335 216.488 313.204 218.941 316.409 218.713C317.234 218.651 318.044 218.409 318.862 218.271C321.454 217.808 324.454 218.506 325.914 220.586C326.234 221.015 326.438 221.512 326.507 222.032C326.576 222.553 326.507 223.082 326.308 223.572Z" fill="#2B7A78"/>
<path d="M297.531 238.557C297.462 238.538 297.404 238.494 297.368 238.435C297.333 238.375 297.323 238.305 297.341 238.239C301.765 222.522 319.242 220.268 323.352 220.531C323.388 220.533 323.424 220.541 323.456 220.556C323.489 220.571 323.518 220.592 323.542 220.618C323.565 220.644 323.584 220.674 323.595 220.706C323.606 220.739 323.611 220.773 323.608 220.807C323.6 220.875 323.566 220.937 323.511 220.98C323.457 221.024 323.387 221.046 323.316 221.042C319.308 220.773 302.196 222.992 297.867 238.377C297.847 238.443 297.8 238.498 297.738 238.532C297.675 238.565 297.601 238.574 297.531 238.557Z" fill="white"/>
<path d="M316.972 230.595C316.916 230.588 316.865 230.563 316.826 230.526C315.21 229.2 313.305 228.228 311.247 227.68C309.189 227.131 307.028 227.02 304.919 227.353C304.848 227.36 304.777 227.34 304.72 227.299C304.663 227.258 304.625 227.199 304.612 227.132C304.602 227.064 304.62 226.995 304.662 226.94C304.704 226.884 304.768 226.847 304.839 226.835C307.038 226.488 309.292 226.607 311.437 227.181C313.583 227.756 315.567 228.773 317.249 230.16C317.275 230.183 317.295 230.212 317.309 230.243C317.323 230.275 317.331 230.309 317.331 230.343C317.331 230.377 317.323 230.411 317.309 230.442C317.295 230.474 317.275 230.502 317.249 230.526C317.216 230.563 317.172 230.59 317.122 230.602C317.072 230.615 317.02 230.612 316.972 230.595Z" fill="white"/>
<path d="M255.495 35.6805L257.817 36.5238V31.6854C257.817 27.8424 261.051 26.9231 264.562 28.8446C268.081 30.7661 270.928 35.4317 270.928 39.2747V39.9659C271.417 39.8243 271.934 39.7893 272.44 39.8635C272.946 39.9377 273.427 40.1192 273.848 40.3944C275.182 41.2176 276.291 42.327 277.086 43.6325C277.882 44.938 278.34 46.4027 278.425 47.9076V48.2256L281.667 49.995C282.544 50.537 283.273 51.2668 283.797 52.1253C284.321 52.9838 284.624 53.9471 284.682 54.937C284.682 56.7618 283.331 57.5013 281.667 56.589L255.495 42.2744C254.618 41.7338 253.888 41.0041 253.365 40.1452C252.842 39.2863 252.542 38.3224 252.488 37.3324C252.488 35.5146 253.824 34.775 255.495 35.6805Z" fill="#E6E6E6"/>
<path d="M286.587 31.8512L290.799 34.1528C290.776 33.9786 290.764 33.8032 290.763 33.6275V32.4733C290.763 30.3997 292.281 29.5841 294.165 30.614C294.974 31.0831 295.666 31.7127 296.194 32.4594C296.501 29.8744 298.647 28.9136 301.246 30.3306C302.731 31.2455 303.968 32.4789 304.855 33.9307C305.743 35.3825 306.257 37.012 306.356 38.687V40.415C306.375 41.1054 306.227 41.7909 305.925 42.4195L309.429 44.3271C309.975 44.6701 310.429 45.1295 310.754 45.6684C311.078 46.2074 311.265 46.811 311.298 47.4306C311.298 48.571 310.451 49.0341 309.407 48.4674L286.587 36.026C286.035 35.6855 285.576 35.2262 285.247 34.6856C284.919 34.145 284.73 33.5385 284.696 32.9156C284.696 31.7475 285.543 31.2844 286.587 31.8512Z" fill="#E6E6E6"/>
<path d="M270.276 136.752C267.21 141.66 264.26 145.924 262.187 147.97C258.252 149.698 249.01 152.366 245.397 152.809C244.762 152.885 244.119 152.743 243.586 152.408C242.163 151.523 241.06 151.378 239.564 150.887C238.388 150.507 237.892 149.975 237.673 150.196C237.447 150.447 237.333 150.772 237.356 151.101C237.379 151.43 237.538 151.738 237.797 151.958C238.359 152.464 238.981 152.904 239.651 153.272C238.048 153.648 236.376 153.677 234.76 153.355C231.628 152.574 230.154 153.997 232.271 157.218C233.001 158.366 236.008 160.211 242.053 159.714C244.209 159.604 246.357 159.373 248.485 159.022C254.281 157.847 260.727 156.714 264.691 155.566C266.166 155.018 267.485 154.151 268.545 153.037C275.211 145.841 277.423 140.713 280.343 136.054L280.094 128.451C275.364 128.299 272.838 132.647 270.276 136.752Z" fill="#FFA8A7"/>
<path d="M280.905 128.299C279.533 128.116 278.135 128.292 276.861 128.807C275.588 129.322 274.487 130.158 273.678 131.222C270.437 135.155 264.699 144.597 264.699 144.597C264.699 144.597 266.575 149.331 271.641 150.126L279.781 139.717C279.781 139.717 283.635 132.487 280.905 128.299Z" fill="#455A64"/>
<path d="M298.506 234.424H293.199V243.382H298.506V234.424Z" fill="#FFA8A7"/>
<path d="M280.11 233.946L274.81 234.126L274.54 224.643L280.11 224.463V233.946Z" fill="#FFA8A7"/>
<path d="M299.251 156.879C299.251 161.87 298.477 202.076 298.477 202.076C298.594 203.514 299.937 206.168 299.667 211.691C299.265 219.19 298.732 238.903 298.732 238.903C297.821 239.344 296.816 239.584 295.793 239.603C294.77 239.622 293.755 239.42 292.827 239.013C292.827 239.013 288.519 211.366 287.57 203.963C286.738 197.473 284.607 175.991 284.607 175.991L281.738 201.385C282.346 204.11 282.567 206.899 282.395 209.679C282.146 213.135 280.438 231.023 280.438 231.023C279.521 231.535 278.493 231.843 277.432 231.923C276.371 232.004 275.304 231.854 274.313 231.486C274.313 231.486 271.291 204.53 271.233 201.364C271.16 197.77 272.999 156.838 272.999 156.838L299.251 156.879Z" fill="#37474F"/>
<path d="M293.199 240.796V240.05C292.688 240.264 291.513 244.702 289.403 246.595C287.731 248.102 285.454 249.837 284.87 251.517C284.286 253.196 288.045 254.226 289.615 253.957C291.425 253.639 294.579 252.374 295.367 251.192C296.156 250.01 296.528 248.296 297.17 247.439C297.813 246.582 299.295 245.628 299.638 244.632C299.745 243.701 299.643 242.759 299.339 241.868C299.09 240.942 298.828 239.925 298.506 240.015V240.582C297.758 241.164 296.817 241.477 295.849 241.467C295.075 241.529 293.192 241.377 293.199 240.796Z" fill="#263238"/>
<path d="M274.751 232.509C274.474 232.509 274.247 232.903 273.641 233.553C272.741 234.45 271.687 235.198 270.524 235.765C268.539 236.746 264.684 238.253 262.925 239.034C261.83 239.518 261.881 240.817 263.012 241.557C264.144 242.297 266.867 242.829 270.137 242.11C271.919 241.716 274.24 240.092 275.715 240.181C277.189 240.271 279.927 240.244 281.015 239.49C282.102 238.737 281.664 237.175 281.358 235.827C281.022 234.348 280.628 232.046 280.109 232.15V232.668C279.474 233.622 276.182 234.009 274.78 233.311L274.751 232.509Z" fill="#263238"/>
<path d="M284.606 175.99C281.845 175.135 279.321 173.706 277.218 171.809C277.218 171.809 278.678 174.442 282.883 176.896L281.977 199.574L284.606 175.99Z" fill="#263238"/>
<path d="M296.286 129.032C296.286 129.032 300.666 129.985 300.352 137.478L299.44 149.401V167.303C295.541 171.491 278.269 171.187 272.319 166.971C272.319 166.971 272.991 145.786 273.392 137.63C273.677 131.838 275.086 128.921 281.101 128.285L288.497 128.589L296.286 129.032Z" fill="#2B7A78"/>
<path d="M290.708 113.465C290.734 114.469 290.549 115.466 290.165 116.402C289.781 117.337 289.205 118.191 288.471 118.914C287.736 119.638 286.858 120.216 285.887 120.617C284.915 121.018 283.869 121.232 282.81 121.248C278.429 121.248 275.86 117.668 274.911 113.465C273.159 105.773 278.444 105.676 282.81 105.676C284.948 105.718 286.981 106.562 288.462 108.022C289.944 109.483 290.751 111.441 290.708 113.465Z" fill="#263238"/>
<path d="M294.739 116.609C294.739 116.609 293.527 122.222 293.038 123.148C292.731 123.705 292.208 124.129 291.578 124.33L291.666 120.383L294.739 116.609Z" fill="#263238"/>
<path d="M293.214 108.572C293.214 108.572 294.083 108.364 295.01 109.733C295.798 110.901 295.981 113.528 294.74 116.645L292.455 116.908L293.214 108.572Z" fill="#263238"/>
<path d="M294.053 109.713L296.856 109.761C296.875 109.59 296.857 109.416 296.802 109.252C296.747 109.087 296.656 108.935 296.536 108.806C296.416 108.676 296.269 108.571 296.105 108.497C295.94 108.424 295.761 108.384 295.578 108.379C295.195 108.384 294.828 108.523 294.546 108.769C294.264 109.016 294.089 109.352 294.053 109.713Z" fill="#263238"/>
<path d="M294.396 109.084L296.469 107.197C296.349 107.063 296.202 106.955 296.036 106.878C295.87 106.801 295.689 106.758 295.505 106.751C295.32 106.744 295.136 106.773 294.964 106.837C294.792 106.9 294.636 106.997 294.505 107.121C294.23 107.375 294.066 107.718 294.046 108.082C294.026 108.446 294.151 108.803 294.396 109.084Z" fill="#263238"/>
<path d="M291.768 116.874C292.228 117.143 292.877 116.279 293.447 115.692C294.016 115.104 295.783 114.565 296.703 116.473C297.622 118.381 296.053 120.267 294.739 120.89C292.381 121.995 291.636 120.385 291.636 120.385L291.439 129.274C288.125 134.112 280.606 133.96 283.314 129.039V126.336C282.2 126.511 281.069 126.567 279.941 126.502C278.102 126.226 276.948 124.795 276.386 122.832C275.495 119.68 275.152 117.136 275.912 110.936C276.744 104.149 284.759 104.073 289.052 106.789C293.344 109.506 291.768 116.874 291.768 116.874Z" fill="#FFA8A7"/>
<path d="M281.781 109.878C283.694 109.698 285.584 109.325 287.504 109.187C287.918 109.139 288.338 109.158 288.745 109.242C290.205 109.622 290.03 111.24 290.264 112.366C290.665 114.316 290.994 117.613 291.768 117.626C292.001 117.626 292.877 116.196 293.447 115.684C293.76 115.243 293.937 114.729 293.958 114.198C294.104 113.396 294.177 112.574 294.242 111.758C294.301 111.067 294.374 110.376 294.374 109.685C294.407 108.904 294.341 108.121 294.177 107.355C293.994 106.704 293.642 106.105 293.155 105.614L293.009 105.461C292.046 104.509 290.879 103.764 289.585 103.277C287.723 102.617 285.771 102.214 283.788 102.082C281.808 101.949 279.837 101.718 277.883 101.39C277.771 101.359 277.651 101.359 277.539 101.39C277.46 101.432 277.393 101.492 277.345 101.564C277.296 101.637 277.268 101.719 277.262 101.805C277.182 102.235 277.232 102.677 277.406 103.08C277.581 103.484 277.872 103.833 278.248 104.086C276.926 104.183 275.408 103.533 274.138 103.201C274.035 103.16 273.924 103.139 273.813 103.139C273.701 103.139 273.591 103.16 273.488 103.201C273.36 103.286 273.27 103.411 273.232 103.554C273.14 103.879 273.127 104.219 273.196 104.549C273.312 105.549 273.705 106.503 274.335 107.314C275.319 108.527 276.709 109.387 278.277 109.754C279.431 109.964 280.613 110.006 281.781 109.878Z" fill="#263238"/>
<path d="M283.321 126.334C283.321 126.334 287.424 125.519 288.855 124.765C289.707 124.324 290.399 123.649 290.841 122.83C290.625 123.653 290.241 124.428 289.709 125.111C288.665 126.438 283.321 127.406 283.321 127.406V126.334Z" fill="#F28F8F"/>
<path d="M284.306 115.857C284.298 116.07 284.38 116.278 284.533 116.435C284.686 116.591 284.899 116.684 285.124 116.693C285.303 116.707 285.482 116.67 285.638 116.586C285.794 116.502 285.919 116.375 285.998 116.222C286.076 116.069 286.104 115.898 286.078 115.73C286.052 115.562 285.972 115.405 285.85 115.28C285.729 115.156 285.57 115.069 285.395 115.031C285.22 114.993 285.037 115.006 284.87 115.069C284.703 115.131 284.56 115.24 284.459 115.38C284.359 115.521 284.305 115.687 284.306 115.857Z" fill="#263238"/>
<path d="M285.62 112.505L287.379 113.466C287.507 113.229 287.537 112.955 287.461 112.699C287.385 112.443 287.21 112.223 286.971 112.084C286.854 112.022 286.725 111.983 286.592 111.971C286.459 111.959 286.324 111.973 286.197 112.013C286.07 112.052 285.953 112.117 285.854 112.201C285.755 112.286 285.675 112.39 285.62 112.505Z" fill="#263238"/>
<path d="M283.687 121.463L281.811 122.154C281.848 122.276 281.912 122.389 281.998 122.487C282.084 122.584 282.19 122.664 282.31 122.721C282.43 122.778 282.56 122.811 282.694 122.818C282.828 122.825 282.962 122.806 283.088 122.762C283.343 122.658 283.547 122.466 283.659 122.225C283.77 121.983 283.78 121.711 283.687 121.463Z" fill="#F28F8F"/>
<path d="M276.758 113.218L278.364 112.001C278.292 111.895 278.198 111.804 278.086 111.735C277.975 111.666 277.849 111.62 277.718 111.599C277.586 111.579 277.451 111.586 277.323 111.618C277.194 111.65 277.074 111.708 276.97 111.787C276.755 111.959 276.615 112.2 276.576 112.464C276.537 112.728 276.602 112.996 276.758 113.218Z" fill="#263238"/>
<path d="M277.467 115.628C277.479 115.78 277.538 115.924 277.636 116.044C277.734 116.164 277.867 116.254 278.019 116.304C278.17 116.354 278.334 116.361 278.489 116.324C278.644 116.287 278.785 116.208 278.894 116.097C279.003 115.986 279.075 115.847 279.102 115.697C279.129 115.548 279.109 115.394 279.045 115.255C278.981 115.116 278.876 114.997 278.742 114.914C278.608 114.83 278.452 114.786 278.292 114.785C278.179 114.789 278.068 114.813 277.965 114.858C277.862 114.902 277.77 114.965 277.693 115.044C277.617 115.122 277.557 115.214 277.518 115.315C277.479 115.415 277.462 115.522 277.467 115.628Z" fill="#263238"/>
<path d="M281.869 114.979L281.774 119.893L278.825 119.257L281.869 114.979Z" fill="#F28F8F"/>
<path d="M211.831 156.139L216.408 153.637L218.218 151.557L213.648 154.059L211.831 156.139Z" fill="#2B7A78"/>
<path opacity="0.4" d="M211.831 156.139L216.408 153.637L218.218 151.557L213.648 154.059L211.831 156.139Z" fill="black"/>
<path d="M224.277 162.941L228.854 160.438L232.672 157.238L228.102 159.733L224.277 162.941Z" fill="#2B7A78"/>
<path opacity="0.4" d="M224.277 162.941L228.854 160.438L232.672 157.238L228.102 159.733L224.277 162.941Z" fill="black"/>
<path d="M263.158 171.574C264.241 172.948 264.895 174.58 265.049 176.288C263.971 174.912 263.317 173.28 263.158 171.574ZM273.795 171.705C272.254 161.787 266.626 151.979 259.924 148.309C256.705 146.546 253.726 146.484 251.339 147.804L247.032 150.154L246.791 150.292C246.599 150.392 246.414 150.503 246.236 150.624C245.883 150.855 245.55 151.114 245.244 151.398L245.098 151.529C244.966 151.654 244.827 151.799 244.703 151.937C244.579 152.076 244.389 152.29 244.243 152.476C243.934 152.863 243.653 153.269 243.404 153.693C243.272 153.907 243.148 154.135 243.032 154.384L205.414 133.828L200.844 136.323V139.088L201.231 139.295L201.596 139.496V140.049L200.866 140.457V142.06L206.392 153.119L211.852 156.112L213.67 154.038L218.488 156.769L221.255 161.255L224.307 162.92L228.125 159.713L232.811 162.277L234.388 168.436L242.265 172.749C242.654 174.316 243.142 175.86 243.725 177.373C243.776 177.525 243.842 177.684 243.908 177.857C246.521 184.354 250.675 189.918 255.362 192.482C255.923 192.798 256.512 193.068 257.121 193.291C257.443 193.412 257.772 193.516 258.107 193.602C258.399 193.676 258.691 193.738 258.983 193.789C259.904 193.948 260.849 193.948 261.771 193.789L262.151 193.699C262.332 193.664 262.511 193.616 262.684 193.554L263.093 193.402C263.237 193.352 263.377 193.29 263.509 193.215C263.644 193.16 263.775 193.098 263.903 193.028L264.093 192.918C264.127 192.907 264.159 192.891 264.188 192.87C265.231 192.303 267.801 190.893 268.502 190.519C271.977 188.612 274.225 183.787 274.225 176.965C274.219 175.204 274.076 173.446 273.795 171.705Z" fill="#2B7A78"/>
<path d="M261.822 179.943C260.012 178.955 258.552 176.024 258.552 173.398C258.552 170.771 260.012 169.437 261.822 170.419C263.633 171.4 265.085 174.338 265.085 176.971C265.085 179.605 263.625 180.932 261.822 179.943ZM269.217 174.199C267.684 164.288 262.056 154.473 255.347 150.81C252.237 149.109 249.361 148.985 247.025 150.153L246.784 150.291C246.592 150.391 246.407 150.502 246.229 150.623C245.875 150.854 245.543 151.113 245.236 151.397L245.09 151.528C244.959 151.653 244.82 151.798 244.696 151.936C244.572 152.074 244.382 152.289 244.236 152.475C243.926 152.862 243.646 153.268 243.397 153.692C243.265 153.906 243.141 154.134 243.024 154.383C242.344 155.719 241.853 157.134 241.564 158.592L200.836 136.322V139.087L201.223 139.294L201.588 139.495V140.048L200.858 140.456V142.059L206.385 153.118L211.845 156.111L213.663 154.037L218.481 156.768L221.248 161.253L224.299 162.919L228.117 159.712L232.804 162.276L234.381 168.435L242.265 172.748C242.654 174.315 243.142 175.859 243.725 177.372C243.776 177.524 243.842 177.683 243.908 177.856C246.521 184.353 250.675 189.917 255.362 192.481C255.923 192.797 256.512 193.067 257.121 193.29C257.443 193.411 257.772 193.515 258.106 193.601C258.399 193.675 258.691 193.737 258.983 193.788C259.904 193.947 260.849 193.947 261.771 193.788L262.151 193.698C262.332 193.663 262.511 193.615 262.684 193.553L263.093 193.401C263.237 193.351 263.377 193.289 263.509 193.214C263.644 193.159 263.775 193.096 263.903 193.027L264.093 192.917C264.127 192.906 264.159 192.89 264.188 192.868C267.516 190.878 269.655 186.122 269.655 179.466C269.643 177.703 269.497 175.943 269.217 174.199Z" fill="#2B7A78"/>
<path opacity="0.4" d="M265.086 176.965C265.086 179.599 263.626 180.933 261.823 179.944C260.02 178.956 258.552 176.032 258.552 173.399C258.552 170.765 260.012 169.431 261.823 170.42C262.344 170.72 262.798 171.115 263.159 171.581C263.316 173.288 263.97 174.92 265.049 176.295C265.076 176.518 265.088 176.741 265.086 176.965Z" fill="black"/>
<path opacity="0.4" d="M274.211 176.959C274.211 183.781 271.962 188.605 268.488 190.513C267.757 190.886 265.217 192.296 264.173 192.863C267.502 190.872 269.641 186.117 269.641 179.461C269.633 177.7 269.492 175.942 269.218 174.201C267.684 164.289 262.056 154.474 255.347 150.811C252.237 149.111 249.361 148.986 247.025 150.154L251.332 147.804C253.719 146.484 256.698 146.546 259.917 148.309C266.626 151.979 272.254 161.787 273.787 171.705C274.066 173.444 274.207 175.2 274.211 176.959Z" fill="white"/>
<path d="M269.64 179.446C269.64 186.102 267.501 190.858 264.172 192.848C265.216 192.281 267.786 190.871 268.487 190.498C271.962 188.59 274.21 183.766 274.21 176.944C274.21 176.695 274.21 176.439 274.21 176.184L269.64 178.686C269.633 178.955 269.64 179.204 269.64 179.446Z" fill="#2B7A78"/>
<path opacity="0.1" d="M269.64 179.446C269.64 186.102 267.501 190.858 264.172 192.848C265.216 192.281 267.786 190.871 268.487 190.498C271.962 188.59 274.21 183.766 274.21 176.944C274.21 176.695 274.21 176.439 274.21 176.184L269.64 178.686C269.633 178.955 269.64 179.204 269.64 179.446Z" fill="black"/>
<path opacity="0.15" d="M241.739 161.42V162.823L200.844 140.47L201.596 140.055V139.475L241.739 161.42Z" fill="black"/>
<path opacity="0.15" d="M241.739 162.001V162.824L200.844 140.47L201.596 140.056V140.049L241.739 162.001Z" fill="black"/>
<path opacity="0.15" d="M259.523 190.506C257.973 190.468 256.462 190.041 255.143 189.269C248.478 185.626 243.054 174.788 243.054 165.112C243.054 159.465 244.857 155.248 248.003 153.527C250.193 152.325 252.785 152.477 255.508 153.963C262.166 157.605 267.59 168.478 267.59 178.154C267.59 183.794 265.787 188.018 262.64 189.732C261.691 190.245 260.616 190.512 259.523 190.506ZM251.164 153.424C250.191 153.418 249.234 153.657 248.39 154.115C245.521 155.684 243.806 159.796 243.806 165.105C243.806 174.56 249.062 185.149 255.53 188.66C258.005 190.043 260.348 190.167 262.297 189.103C265.166 187.534 266.882 183.428 266.882 178.12C266.882 168.657 261.625 158.075 255.165 154.557C253.957 153.862 252.577 153.48 251.164 153.451V153.424Z" fill="black"/>
<path opacity="0.4" d="M242.995 154.37C242.314 155.706 241.823 157.122 241.535 158.58L200.807 136.31L205.377 133.814L242.995 154.37Z" fill="white"/>
<path d="M295.929 156.533C298.061 152.711 300.499 144.126 301.711 139.793C303.434 133.641 300.645 129.77 297.477 129.611C295.499 129.902 288.98 152.345 288.98 152.345C288.25 152.891 278.343 157.653 275.16 158.849C274.591 159.052 273.963 159.052 273.394 158.849C271.868 158.323 270.824 158.42 269.328 158.282C268.152 158.171 267.561 157.777 267.408 158.012C267.268 158.304 267.25 158.635 267.357 158.938C267.464 159.242 267.688 159.496 267.984 159.65C268.629 160.006 269.315 160.289 270.028 160.494C268.749 160.861 267.415 161.031 266.079 160.998C263.013 160.936 261.911 162.194 264.29 165.145C265.75 166.984 268.167 167.565 273.562 165.802C275.109 165.291 277.212 164.302 279.176 163.632C283.22 162.249 284.286 162.083 287.366 161.095C291.856 159.657 294.98 158.233 295.929 156.533Z" fill="#FFA8A7"/>
<path d="M296.287 129.031C298.148 129.273 299.937 129.667 301.039 131.105C302.142 132.542 303.025 134.561 301.945 140.056C301.117 143.92 300.01 147.726 298.63 151.447C298.63 151.447 294.294 153.202 289.688 148.751L292.856 137.153C292.856 137.153 293.367 129.612 296.287 129.031Z" fill="#455A64"/>
</svg>
