<svg width="64" height="64" viewBox="0 0 64 64" fill="none" xmlns="http://www.w3.org/2000/svg">
<path d="M45.3333 9.33398H18.6666C10.6666 9.33398 5.33325 13.334 5.33325 22.6673V41.334C5.33325 50.6673 10.6666 54.6673 18.6666 54.6673H45.3333C53.3333 54.6673 58.6666 50.6673 58.6666 41.334V22.6673C58.6666 13.334 53.3333 9.33398 45.3333 9.33398ZM46.5866 25.574L38.2399 32.2407C36.4799 33.654 34.2399 34.3473 31.9999 34.3473C29.7599 34.3473 27.4933 33.654 25.7599 32.2407L17.4133 25.574C16.5599 24.8807 16.4266 23.6007 17.0933 22.7473C17.7866 21.894 19.0399 21.734 19.8933 22.4273L28.2399 29.094C30.2666 30.7207 33.7066 30.7207 35.7333 29.094L44.0799 22.4273C44.9333 21.734 46.2133 21.8673 46.8799 22.7473C47.5733 23.6007 47.4399 24.8807 46.5866 25.574Z" fill="#2B7A78"/>
</svg>
