<svg width="21" height="20" viewBox="0 0 21 20" fill="none" xmlns="http://www.w3.org/2000/svg">
<path d="M11.9421 2.92495L13.4087 5.85828C13.6087 6.26662 14.1421 6.65828 14.5921 6.73328L17.2504 7.17495C18.9504 7.45828 19.3504 8.69162 18.1254 9.90828L16.0587 11.975C15.7087 12.325 15.5171 13 15.6254 13.4833L16.2171 16.0416C16.6837 18.0666 15.6087 18.85 13.8171 17.7916L11.3254 16.3166C10.8754 16.05 10.1337 16.05 9.67541 16.3166L7.18375 17.7916C5.40041 18.85 4.31708 18.0583 4.78375 16.0416L5.37541 13.4833C5.48375 13 5.29208 12.325 4.94208 11.975L2.87541 9.90828C1.65875 8.69162 2.05041 7.45828 3.75041 7.17495L6.40875 6.73328C6.85041 6.65828 7.38375 6.26662 7.58375 5.85828L9.05041 2.92495C9.85041 1.33328 11.1504 1.33328 11.9421 2.92495Z" fill="#F9FD22"/>
</svg>
