<svg width="360" height="269" viewBox="0 0 360 269" fill="none" xmlns="http://www.w3.org/2000/svg">
<path d="M360 236.223H0V236.403H360V236.223Z" fill="#EBEBEB"/>
<path d="M323.928 247.808H300.082V247.988H323.928V247.808Z" fill="#EBEBEB"/>
<path d="M238.478 249.766H232.222V249.946H238.478V249.766Z" fill="#EBEBEB"/>
<path d="M299.362 241.126H285.545V241.306H299.362V241.126Z" fill="#EBEBEB"/>
<path d="M68.8683 242.336H37.7715V242.516H68.8683V242.336Z" fill="#EBEBEB"/>
<path d="M79.8408 242.336H75.2832V242.516H79.8408V242.336Z" fill="#EBEBEB"/>
<path d="M162.108 245.374H94.6582V245.554H162.108V245.374Z" fill="#EBEBEB"/>
<path d="M170.64 204.111H31.6147C30.5256 204.109 29.4818 203.675 28.7123 202.905C27.9429 202.134 27.5107 201.089 27.5107 200V4.57044C27.5202 3.48758 27.9566 2.45218 28.725 1.68916C29.4934 0.926129 30.5318 0.497094 31.6147 0.495239H170.64C171.73 0.495239 172.776 0.928382 173.547 1.69938C174.318 2.47038 174.751 3.51608 174.751 4.60644V200C174.751 201.09 174.318 202.136 173.547 202.907C172.776 203.678 171.73 204.111 170.64 204.111ZM31.6147 0.63924C30.5734 0.641147 29.5753 1.05617 28.8396 1.7932C28.1039 2.53024 27.6907 3.52907 27.6907 4.57044V200C27.6907 201.041 28.1039 202.04 28.8396 202.777C29.5753 203.514 30.5734 203.929 31.6147 203.931H170.64C171.682 203.929 172.68 203.515 173.417 202.778C174.154 202.041 174.569 201.042 174.571 200V4.57044C174.569 3.5284 174.154 2.52959 173.417 1.79276C172.68 1.05593 171.682 0.641143 170.64 0.63924H31.6147Z" fill="#EBEBEB"/>
<path d="M326.383 204.111H187.351C186.262 204.109 185.217 203.676 184.446 202.905C183.676 202.134 183.242 201.09 183.24 200V4.57044C183.252 3.48692 183.69 2.45153 184.459 1.68871C185.229 0.925878 186.268 0.497074 187.351 0.495239H326.383C327.465 0.498986 328.502 0.928859 329.269 1.69168C330.035 2.45451 330.471 3.48882 330.48 4.57044V200C330.48 201.088 330.049 202.131 329.281 202.902C328.513 203.673 327.471 204.107 326.383 204.111ZM187.351 0.63924C186.309 0.641143 185.311 1.05593 184.574 1.79276C183.837 2.52959 183.422 3.5284 183.42 4.57044V200C183.422 201.042 183.837 202.041 184.574 202.778C185.311 203.515 186.309 203.929 187.351 203.931H326.383C327.425 203.929 328.424 203.515 329.161 202.778C329.898 202.041 330.313 201.042 330.315 200V4.57044C330.313 3.5284 329.898 2.52959 329.161 1.79276C328.424 1.05593 327.425 0.641143 326.383 0.63924H187.351Z" fill="#EBEBEB"/>
<path d="M85.6364 190.136V200.36L81.3164 203.499H101.476L95.0396 201.109V190.849L85.6364 190.136Z" fill="#E0E0E0"/>
<path d="M50.0186 203.204V235.41H140.019V203.204H50.0186ZM138.399 215.818H67.9538V205.292H138.399V215.818Z" fill="#E0E0E0"/>
<path d="M65.7861 203.204V235.41H140.018V203.204H65.7861ZM138.398 215.818H67.9533V205.292H138.398V215.818Z" fill="#EBEBEB"/>
<path d="M138.398 205.292H123.876V215.818H138.398V205.292Z" fill="#E0E0E0"/>
<path d="M85.9171 210.555H67.9531V215.818H85.9171V210.555Z" fill="#E0E0E0"/>
<path d="M100.764 212.686H87.2422V215.811H100.764V212.686Z" fill="#E0E0E0"/>
<path d="M116.769 209.425H103.889V215.818H116.769V209.425Z" fill="#E0E0E0"/>
<path d="M80.7187 218.108L80.3371 219.368H75.1675L74.7787 218.108H67.9531V232.083H90.6115V218.108H80.7187Z" fill="#E0E0E0"/>
<path d="M107.647 218.108L107.258 219.368H102.089L101.7 218.108H91.8145V232.083H114.473V218.108H107.647Z" fill="#E0E0E0"/>
<path d="M128.44 218.108L128.059 219.368H122.889L122.5 218.108H115.675V232.083H138.333V218.108H128.44Z" fill="#E0E0E0"/>
<path d="M126.857 152.718H59.9039C58.5002 152.718 57.3623 153.856 57.3623 155.259V193.7C57.3623 195.104 58.5002 196.242 59.9039 196.242H126.857C128.26 196.242 129.398 195.104 129.398 193.7V155.259C129.398 153.856 128.26 152.718 126.857 152.718Z" fill="#E0E0E0"/>
<path d="M128.549 152.718H61.5963C60.1926 152.718 59.0547 153.856 59.0547 155.259V193.7C59.0547 195.104 60.1926 196.242 61.5963 196.242H128.549C129.953 196.242 131.091 195.104 131.091 193.7V155.259C131.091 153.856 129.953 152.718 128.549 152.718Z" fill="#E6E6E6"/>
<path d="M128.974 194.132V154.834H61.1712V194.132H128.974Z" fill="#F0F0F0"/>
<path d="M223.827 148.945H288.295C289.958 148.944 291.605 149.271 293.141 149.906C294.678 150.542 296.074 151.474 297.25 152.65C298.426 153.825 299.359 155.221 299.996 156.757C300.633 158.293 300.96 159.94 300.96 161.602V211.945H211.169V161.602C211.169 158.245 212.502 155.026 214.876 152.652C217.25 150.278 220.47 148.945 223.827 148.945Z" fill="#E6E6E6"/>
<path d="M192.11 186.255H203.63C205.625 186.255 207.539 187.048 208.95 188.459C210.361 189.87 211.154 191.784 211.154 193.779V235.41H184.586V193.779C184.586 191.784 185.379 189.87 186.79 188.459C188.201 187.048 190.114 186.255 192.11 186.255Z" fill="#E0E0E0"/>
<path d="M192.11 186.255H192.348C194.343 186.255 196.257 187.048 197.668 188.459C199.079 189.87 199.872 191.784 199.872 193.779V235.41H184.586V193.779C184.586 191.784 185.379 189.87 186.79 188.459C188.201 187.048 190.114 186.255 192.11 186.255Z" fill="#EBEBEB"/>
<path d="M291.564 216.286H203.091V235.41H291.564V216.286Z" fill="#E6E6E6"/>
<path d="M288.295 198.798H202.968C198.745 198.798 195.321 202.221 195.321 206.444V211.218C195.321 215.441 198.745 218.864 202.968 218.864H288.295C292.518 218.864 295.941 215.441 295.941 211.218V206.444C295.941 202.221 292.518 198.798 288.295 198.798Z" fill="#F5F5F5"/>
<path d="M288.158 198.798H277.567C273.344 198.798 269.921 202.221 269.921 206.444V211.218C269.921 215.441 273.344 218.864 277.567 218.864H288.158C292.381 218.864 295.805 215.441 295.805 211.218V206.444C295.805 202.221 292.381 198.798 288.158 198.798Z" fill="#E0E0E0"/>
<path d="M289.289 186.255H300.809C302.804 186.255 304.718 187.048 306.129 188.459C307.54 189.87 308.333 191.784 308.333 193.779V235.41H281.765V193.779C281.765 192.791 281.959 191.813 282.337 190.9C282.716 189.987 283.27 189.158 283.968 188.459C284.667 187.76 285.496 187.206 286.409 186.828C287.322 186.45 288.301 186.255 289.289 186.255Z" fill="#E0E0E0"/>
<path d="M289.289 186.255H289.533C291.529 186.255 293.443 187.048 294.854 188.459C296.265 189.87 297.057 191.784 297.057 193.779V235.41H281.765V193.779C281.765 192.791 281.959 191.813 282.337 190.9C282.716 189.987 283.27 189.158 283.968 188.459C284.667 187.76 285.496 187.206 286.409 186.828C287.322 186.45 288.301 186.255 289.289 186.255Z" fill="#F0F0F0"/>
<path d="M220.371 125.746L305.784 125.746V37.4888L220.371 37.4888V125.746Z" fill="#EBEBEB"/>
<path d="M217.382 125.746L302.796 125.746V37.4888L217.382 37.4888V125.746Z" fill="#F0F0F0"/>
<path d="M300.644 39.5768H219.644V123.694H300.644V39.5768Z" fill="#E0E0E0"/>
<path d="M300.643 39.5768H221.666V123.694H300.643V39.5768Z" fill="#F5F5F5"/>
<path d="M260.338 123.702H261.943V39.5841H260.338V123.702Z" fill="#EBEBEB"/>
<path d="M251.136 39.5768L228.629 123.694H226.469L248.976 39.5768H251.136Z" fill="white"/>
<path d="M259.654 125.307H261.029V38.2808H259.654V125.307Z" fill="#F0F0F0"/>
<path d="M242.964 39.5768L221.666 119.18V75.4256L231.256 39.5768H242.964Z" fill="white"/>
<path d="M300.643 47.2089V55.2873L282.334 123.694H280.174L300.643 47.2089Z" fill="white"/>
<path d="M300.643 63.5168V107.271L296.251 123.694H284.544L300.643 63.5168Z" fill="white"/>
<path d="M70.3156 105.45H122.033L122.033 42.5217L70.3156 42.5217V105.45Z" fill="#E6E6E6"/>
<path d="M82.1516 89.8616L109.324 63.1496L79.9268 58.2968L82.1516 89.8616Z" fill="#E0E0E0"/>
<path d="M108.67 83.5256L110.016 63.0416L89.5535 68.0672L88.0703 83.7416L108.67 83.5256Z" fill="#F0F0F0"/>
<path d="M87.7414 60.5476C90.9665 57.3225 90.9665 52.0935 87.7414 48.8684C84.5163 45.6433 79.2873 45.6433 76.0622 48.8684C72.8371 52.0935 72.8371 57.3225 76.0622 60.5476C79.2873 63.7727 84.5163 63.7727 87.7414 60.5476Z" fill="#FAFAFA"/>
<path d="M105.998 90.8264C105.998 90.033 106.233 89.2573 106.674 88.5976C107.115 87.938 107.742 87.4239 108.475 87.1206C109.209 86.8173 110.015 86.7383 110.793 86.8936C111.572 87.049 112.286 87.4316 112.847 87.9932C113.407 88.5548 113.789 89.27 113.943 90.0485C114.097 90.8269 114.016 91.6335 113.712 92.3661C113.407 93.0988 112.892 93.7247 112.231 94.1645C111.571 94.6043 110.795 94.8383 110.001 94.8368C109.475 94.8368 108.954 94.7331 108.468 94.5314C107.981 94.3298 107.54 94.0343 107.168 93.6618C106.796 93.2893 106.501 92.8471 106.301 92.3606C106.1 91.8741 105.997 91.3528 105.998 90.8264Z" fill="#E0E0E0"/>
<path d="M109.051 97.868L97.4883 90.8264L107.208 82.82L109.051 97.868Z" fill="#F5F5F5"/>
<path d="M95.3924 50.5209H93.1172V100.77H95.3924V50.5209Z" fill="#E0E0E0"/>
<path d="M117.18 50.5209H114.235V98.5449H117.18V50.5209Z" fill="#EBEBEB"/>
<path d="M90.5404 83.7416H75.5068V98.7752H90.5404V83.7416Z" fill="#EBEBEB"/>
<path d="M179.999 268.739C257.099 268.739 319.6 265.089 319.6 260.588C319.6 256.087 257.099 252.438 179.999 252.438C102.9 252.438 40.3984 256.087 40.3984 260.588C40.3984 265.089 102.9 268.739 179.999 268.739Z" fill="#F5F5F5"/>
<path d="M143.539 130.815H293.559C293.962 130.815 294.362 130.895 294.735 131.049C295.108 131.204 295.447 131.43 295.732 131.716C296.018 132.001 296.244 132.34 296.399 132.713C296.553 133.086 296.633 133.486 296.633 133.89V242.415H140.465V133.918C140.461 133.512 140.538 133.109 140.691 132.733C140.843 132.357 141.069 132.014 141.355 131.726C141.641 131.437 141.981 131.208 142.356 131.052C142.731 130.896 143.133 130.815 143.539 130.815Z" fill="#263238"/>
<path d="M293.559 137.734H143.54V233.617H293.559V137.734Z" fill="#CDEADD"/>
<path opacity="0.2" d="M217.181 136.057C218.008 136.057 218.679 135.386 218.679 134.559C218.679 133.732 218.008 133.062 217.181 133.062C216.354 133.062 215.684 133.732 215.684 134.559C215.684 135.386 216.354 136.057 217.181 136.057Z" fill="white"/>
<path opacity="0.2" d="M220.284 135.682C220.905 135.682 221.408 135.179 221.408 134.559C221.408 133.939 220.905 133.436 220.284 133.436C219.664 133.436 219.161 133.939 219.161 134.559C219.161 135.179 219.664 135.682 220.284 135.682Z" fill="white"/>
<path opacity="0.2" d="M219.162 235.582C218.965 235.513 218.758 235.477 218.55 235.474C218.161 235.474 217.781 235.59 217.458 235.806C217.134 236.022 216.882 236.329 216.734 236.688C216.585 237.047 216.546 237.442 216.622 237.823C216.698 238.205 216.885 238.555 217.16 238.83C217.435 239.105 217.785 239.292 218.166 239.368C218.547 239.444 218.943 239.405 219.302 239.256C219.661 239.107 219.968 238.855 220.184 238.532C220.4 238.209 220.515 237.829 220.515 237.44C220.519 237.404 220.519 237.368 220.515 237.332C220.14 237.211 219.809 236.979 219.568 236.667C219.326 236.354 219.185 235.976 219.162 235.582Z" fill="white"/>
<path d="M308.276 240.889V242.329C308.273 242.775 308.128 243.209 307.861 243.566C307.594 243.924 307.22 244.187 306.792 244.316L295.92 247.498C294.57 247.901 293.168 248.105 291.759 248.103H145.354C143.947 248.104 142.548 247.9 141.2 247.498L130.32 244.287C129.892 244.159 129.516 243.897 129.248 243.539C128.979 243.182 128.833 242.747 128.83 242.3V240.86L308.276 240.889Z" fill="#263238"/>
<path opacity="0.2" d="M308.276 240.889V242.329C308.273 242.775 308.128 243.209 307.861 243.566C307.594 243.924 307.22 244.187 306.792 244.316L295.92 247.498C294.57 247.901 293.168 248.105 291.759 248.103H145.354C143.947 248.104 142.548 247.9 141.2 247.498L130.32 244.287C129.892 244.159 129.516 243.897 129.248 243.539C128.979 243.182 128.833 242.747 128.83 242.3V240.86L308.276 240.889Z" fill="white"/>
<path opacity="0.2" d="M308.276 240.889V242.329C308.275 242.702 308.173 243.068 307.98 243.387H129.125C128.932 243.068 128.83 242.702 128.83 242.329V240.889H308.276Z" fill="white"/>
<path opacity="0.2" d="M231.178 240.889V241.508C231.178 241.588 231.162 241.668 231.132 241.742C231.101 241.816 231.056 241.884 230.999 241.941C230.942 241.998 230.875 242.043 230.8 242.073C230.726 242.104 230.647 242.12 230.566 242.12H206.547C206.466 242.121 206.386 242.106 206.311 242.075C206.235 242.045 206.167 242 206.11 241.943C206.052 241.886 206.006 241.819 205.975 241.744C205.944 241.669 205.928 241.589 205.928 241.508V240.889H231.178Z" fill="black"/>
<path opacity="0.1" d="M293.559 137.734C293.559 137.734 272.816 220.095 143.54 233.617V137.734H293.559Z" fill="white"/>
<path d="M279.36 100.194V190.381L264.34 205.4H204.955C204.341 205.398 203.753 205.153 203.32 204.718C202.887 204.284 202.644 203.695 202.644 203.082V100.194C202.644 99.58 202.887 98.9914 203.32 98.5568C203.753 98.1222 204.341 97.8771 204.955 97.8752H277.027C277.332 97.8733 277.635 97.9319 277.918 98.0476C278.201 98.1632 278.459 98.3337 278.675 98.5492C278.892 98.7646 279.064 99.0209 279.182 99.3031C279.299 99.5853 279.36 99.888 279.36 100.194Z" fill="#81CCAA"/>
<path opacity="0.6" d="M279.36 104.132V190.381L264.34 205.4H204.955C204.341 205.398 203.753 205.153 203.32 204.718C202.887 204.284 202.644 203.695 202.644 203.082V104.132H279.36Z" fill="white"/>
<path opacity="0.6" d="M277.343 100.741C277.344 100.963 277.28 101.181 277.157 101.367C277.035 101.552 276.86 101.697 276.655 101.784C276.45 101.87 276.224 101.893 276.005 101.85C275.787 101.808 275.586 101.702 275.428 101.545C275.27 101.388 275.163 101.188 275.119 100.97C275.075 100.752 275.097 100.525 275.181 100.32C275.266 100.114 275.41 99.9383 275.595 99.8146C275.78 99.6908 275.997 99.6248 276.22 99.6248C276.367 99.6238 276.513 99.652 276.649 99.7077C276.785 99.7633 276.909 99.8454 277.014 99.9491C277.118 100.053 277.201 100.176 277.257 100.312C277.314 100.448 277.343 100.594 277.343 100.741Z" fill="white"/>
<path opacity="0.6" d="M273.067 100.741C273.067 100.962 273.002 101.177 272.879 101.361C272.756 101.544 272.582 101.687 272.378 101.772C272.174 101.856 271.95 101.878 271.733 101.835C271.517 101.792 271.318 101.686 271.162 101.53C271.006 101.374 270.899 101.175 270.856 100.959C270.813 100.742 270.835 100.518 270.92 100.314C271.004 100.11 271.147 99.9355 271.331 99.8129C271.514 99.6902 271.73 99.6248 271.951 99.6248C272.098 99.6238 272.243 99.652 272.379 99.7078C272.515 99.7635 272.638 99.8457 272.742 99.9495C272.846 100.053 272.928 100.177 272.984 100.313C273.04 100.448 273.068 100.594 273.067 100.741Z" fill="white"/>
<path opacity="0.6" d="M268.797 100.741C268.799 100.964 268.734 101.182 268.611 101.367C268.488 101.553 268.313 101.698 268.107 101.784C267.902 101.87 267.675 101.893 267.457 101.85C267.238 101.807 267.037 101.7 266.88 101.542C266.722 101.385 266.615 101.184 266.572 100.965C266.529 100.747 266.552 100.52 266.638 100.315C266.724 100.109 266.869 99.9339 267.054 99.8111C267.24 99.6882 267.458 99.6234 267.681 99.6248C267.977 99.6248 268.261 99.7424 268.47 99.9517C268.68 100.161 268.797 100.445 268.797 100.741Z" fill="white"/>
<path d="M249.264 111.08H208.152C207.961 111.08 207.778 111.004 207.643 110.869C207.507 110.734 207.432 110.551 207.432 110.36C207.432 110.169 207.507 109.986 207.643 109.851C207.778 109.716 207.961 109.64 208.152 109.64H249.264C249.455 109.64 249.638 109.716 249.773 109.851C249.908 109.986 249.984 110.169 249.984 110.36C249.984 110.551 249.908 110.734 249.773 110.869C249.638 111.004 249.455 111.08 249.264 111.08Z" fill="#81CCAA"/>
<path d="M237.642 115.018H208.122C207.931 115.018 207.748 114.943 207.613 114.808C207.478 114.673 207.402 114.489 207.402 114.298C207.402 114.107 207.478 113.924 207.613 113.789C207.748 113.654 207.931 113.578 208.122 113.578H237.642C237.833 113.578 238.016 113.654 238.151 113.789C238.286 113.924 238.362 114.107 238.362 114.298C238.362 114.489 238.286 114.673 238.151 114.808C238.016 114.943 237.833 115.018 237.642 115.018Z" fill="#81CCAA"/>
<path d="M269.516 175.83H216.956C216.765 175.83 216.582 175.754 216.447 175.619C216.312 175.484 216.236 175.301 216.236 175.11C216.236 174.919 216.312 174.736 216.447 174.601C216.582 174.466 216.765 174.39 216.956 174.39H269.516C269.707 174.39 269.89 174.466 270.025 174.601C270.16 174.736 270.236 174.919 270.236 175.11C270.236 175.301 270.16 175.484 270.025 175.619C269.89 175.754 269.707 175.83 269.516 175.83Z" fill="#81CCAA"/>
<path d="M260.726 191.562H208.166C207.975 191.562 207.792 191.486 207.657 191.351C207.522 191.216 207.446 191.033 207.446 190.842C207.446 190.651 207.522 190.468 207.657 190.332C207.792 190.197 207.975 190.122 208.166 190.122H260.726C260.917 190.122 261.1 190.197 261.235 190.332C261.37 190.468 261.446 190.651 261.446 190.842C261.446 191.033 261.37 191.216 261.235 191.351C261.1 191.486 260.917 191.562 260.726 191.562Z" fill="#81CCAA"/>
<path d="M269.517 179.775H208.152C207.961 179.775 207.778 179.699 207.643 179.564C207.507 179.429 207.432 179.246 207.432 179.055C207.432 178.864 207.507 178.681 207.643 178.546C207.778 178.411 207.961 178.335 208.152 178.335H269.517C269.708 178.335 269.891 178.411 270.026 178.546C270.161 178.681 270.237 178.864 270.237 179.055C270.237 179.246 270.161 179.429 270.026 179.564C269.891 179.699 269.708 179.775 269.517 179.775Z" fill="#81CCAA"/>
<path d="M269.517 183.699H208.152C207.961 183.699 207.778 183.623 207.643 183.488C207.507 183.353 207.432 183.17 207.432 182.979C207.432 182.788 207.507 182.605 207.643 182.47C207.778 182.335 207.961 182.259 208.152 182.259H269.517C269.708 182.259 269.891 182.335 270.026 182.47C270.161 182.605 270.237 182.788 270.237 182.979C270.237 183.17 270.161 183.353 270.026 183.488C269.891 183.623 269.708 183.699 269.517 183.699Z" fill="#81CCAA"/>
<path d="M269.517 187.63H208.152C207.961 187.63 207.778 187.555 207.643 187.42C207.507 187.285 207.432 187.101 207.432 186.91C207.432 186.719 207.507 186.536 207.643 186.401C207.778 186.266 207.961 186.19 208.152 186.19H269.517C269.708 186.19 269.891 186.266 270.026 186.401C270.161 186.536 270.237 186.719 270.237 186.91C270.237 187.101 270.161 187.285 270.026 187.42C269.891 187.555 269.708 187.63 269.517 187.63Z" fill="#81CCAA"/>
<path opacity="0.5" d="M279.345 190.381L264.326 205.4V190.381H279.345Z" fill="#81CCAA"/>
<path opacity="0.4" d="M279.345 104.132H275.104V190.381H279.345V104.132Z" fill="black"/>
<path d="M277.199 149.197C276.785 149.197 276.387 149.032 276.094 148.739C275.801 148.446 275.637 148.049 275.637 147.634V138.822C275.646 138.413 275.815 138.025 276.107 137.74C276.399 137.455 276.791 137.295 277.199 137.295C277.404 137.295 277.607 137.336 277.797 137.414C277.987 137.493 278.159 137.608 278.304 137.753C278.449 137.898 278.564 138.07 278.643 138.26C278.721 138.449 278.762 138.652 278.762 138.858V147.67C278.752 148.078 278.583 148.467 278.291 148.752C277.999 149.037 277.607 149.197 277.199 149.197Z" fill="#81CCAA"/>
<path d="M269.517 154.23H216.957C216.766 154.23 216.583 154.154 216.448 154.019C216.313 153.884 216.237 153.701 216.237 153.51C216.237 153.319 216.313 153.136 216.448 153.001C216.583 152.865 216.766 152.79 216.957 152.79H269.517C269.708 152.79 269.891 152.865 270.026 153.001C270.161 153.136 270.237 153.319 270.237 153.51C270.237 153.701 270.161 153.884 270.026 154.019C269.891 154.154 269.708 154.23 269.517 154.23Z" fill="#81CCAA"/>
<path d="M260.726 169.962H208.166C207.975 169.962 207.792 169.886 207.657 169.751C207.522 169.616 207.446 169.433 207.446 169.242C207.446 169.051 207.522 168.868 207.657 168.733C207.792 168.597 207.975 168.522 208.166 168.522H260.726C260.917 168.522 261.1 168.597 261.235 168.733C261.37 168.868 261.446 169.051 261.446 169.242C261.446 169.433 261.37 169.616 261.235 169.751C261.1 169.886 260.917 169.962 260.726 169.962Z" fill="#81CCAA"/>
<path d="M269.517 158.175H208.152C207.961 158.175 207.778 158.099 207.643 157.964C207.507 157.829 207.432 157.646 207.432 157.455C207.432 157.264 207.507 157.081 207.643 156.946C207.778 156.811 207.961 156.735 208.152 156.735H269.517C269.708 156.735 269.891 156.811 270.026 156.946C270.161 157.081 270.237 157.264 270.237 157.455C270.237 157.646 270.161 157.829 270.026 157.964C269.891 158.099 269.708 158.175 269.517 158.175Z" fill="#81CCAA"/>
<path d="M269.517 162.099H208.152C207.961 162.099 207.778 162.023 207.643 161.888C207.507 161.753 207.432 161.57 207.432 161.379C207.432 161.188 207.507 161.005 207.643 160.87C207.778 160.735 207.961 160.659 208.152 160.659H269.517C269.708 160.659 269.891 160.735 270.026 160.87C270.161 161.005 270.237 161.188 270.237 161.379C270.237 161.57 270.161 161.753 270.026 161.888C269.891 162.023 269.708 162.099 269.517 162.099Z" fill="#81CCAA"/>
<path d="M269.517 166.03H208.152C207.961 166.03 207.778 165.955 207.643 165.819C207.507 165.684 207.432 165.501 207.432 165.31C207.432 165.119 207.507 164.936 207.643 164.801C207.778 164.666 207.961 164.59 208.152 164.59H269.517C269.708 164.59 269.891 164.666 270.026 164.801C270.161 164.936 270.237 165.119 270.237 165.31C270.237 165.501 270.161 165.684 270.026 165.819C269.891 165.955 269.708 166.03 269.517 166.03Z" fill="#81CCAA"/>
<path d="M269.509 119.706H207.964V142.674H269.509V119.706Z" fill="#81CCAA"/>
<path opacity="0.2" d="M207.964 138.987H209.641V134.811H211.571V126.567H214.264V131.643H217.965V138.39H222.378V133.688H226.029L228.441 131.269V125.674H229.917V133.688H233.632V136.539H237.477V121.995L238.542 120.93V124.918H240.997V126.711L243.352 129.073V133.328H246.736V129.958H255.563V127.446H257.557V123.054H258.27V129.958H259.393L261.935 127.417H264.325V125.12H265.535V127.446H267.097V136.964H268.797V132.212L269.517 132.255V119.706H207.964V138.987Z" fill="black"/>
<path d="M269.517 146.31H252.957C252.766 146.31 252.583 146.234 252.448 146.099C252.313 145.964 252.237 145.781 252.237 145.59C252.237 145.399 252.313 145.216 252.448 145.081C252.583 144.945 252.766 144.87 252.957 144.87H269.517C269.708 144.87 269.891 144.945 270.026 145.081C270.161 145.216 270.237 145.399 270.237 145.59C270.237 145.781 270.161 145.964 270.026 146.099C269.891 146.234 269.708 146.31 269.517 146.31Z" fill="#81CCAA"/>
<path opacity="0.2" d="M232.344 97.8752V172.41L221.04 183.742H202.644V100.222C202.644 99.6087 202.887 99.0201 203.32 98.5856C203.753 98.151 204.341 97.9059 204.955 97.904L232.344 97.8752Z" fill="black"/>
<path opacity="0.4" d="M277.199 149.197C276.785 149.197 276.387 149.032 276.094 148.739C275.801 148.446 275.637 148.049 275.637 147.634V138.822C275.646 138.413 275.815 138.025 276.107 137.74C276.399 137.455 276.791 137.295 277.199 137.295C277.404 137.295 277.607 137.336 277.797 137.414C277.987 137.493 278.159 137.608 278.304 137.753C278.449 137.898 278.564 138.07 278.643 138.26C278.721 138.449 278.762 138.652 278.762 138.858V147.67C278.752 148.078 278.583 148.467 278.291 148.752C277.999 149.037 277.607 149.197 277.199 149.197Z" fill="white"/>
<path d="M188.453 111.433V201.62L173.433 216.639H114.062C113.449 216.637 112.861 216.392 112.427 215.957C111.994 215.523 111.751 214.934 111.751 214.321V111.433C111.751 110.819 111.994 110.23 112.427 109.796C112.861 109.361 113.449 109.116 114.062 109.114H186.134C186.749 109.114 187.339 109.358 187.774 109.793C188.208 110.228 188.453 110.818 188.453 111.433Z" fill="#81CCAA"/>
<path opacity="0.6" d="M188.453 115.378V201.627L173.433 216.646H114.062C113.449 216.644 112.861 216.399 112.427 215.965C111.994 215.53 111.751 214.941 111.751 214.328V115.378H188.453Z" fill="white"/>
<path opacity="0.6" d="M186.48 111.987C186.481 112.209 186.417 112.427 186.294 112.613C186.171 112.799 185.997 112.944 185.791 113.03C185.586 113.116 185.36 113.139 185.142 113.097C184.924 113.054 184.723 112.948 184.565 112.791C184.407 112.634 184.299 112.434 184.256 112.216C184.212 111.998 184.233 111.772 184.318 111.566C184.403 111.36 184.547 111.185 184.732 111.061C184.917 110.937 185.134 110.871 185.357 110.871C185.504 110.87 185.65 110.898 185.786 110.954C185.922 111.01 186.046 111.092 186.15 111.195C186.255 111.299 186.338 111.422 186.394 111.558C186.451 111.694 186.48 111.84 186.48 111.987Z" fill="white"/>
<path opacity="0.6" d="M182.159 111.987C182.161 112.21 182.096 112.428 181.973 112.614C181.85 112.8 181.675 112.945 181.469 113.03C181.264 113.116 181.037 113.139 180.819 113.096C180.6 113.053 180.4 112.946 180.242 112.788C180.085 112.631 179.977 112.43 179.934 112.212C179.891 111.993 179.914 111.767 180 111.561C180.086 111.355 180.231 111.18 180.417 111.057C180.603 110.934 180.821 110.87 181.043 110.871C181.19 110.87 181.336 110.898 181.472 110.954C181.607 111.01 181.731 111.092 181.835 111.196C181.939 111.3 182.021 111.423 182.076 111.559C182.132 111.695 182.16 111.84 182.159 111.987Z" fill="white"/>
<path opacity="0.6" d="M177.905 111.987C177.906 112.209 177.841 112.427 177.719 112.613C177.596 112.799 177.421 112.944 177.216 113.03C177.011 113.116 176.785 113.139 176.567 113.097C176.348 113.054 176.148 112.948 175.99 112.791C175.832 112.634 175.724 112.434 175.68 112.216C175.636 111.998 175.658 111.772 175.743 111.566C175.828 111.36 175.972 111.185 176.157 111.061C176.341 110.937 176.559 110.871 176.781 110.871C176.929 110.87 177.074 110.898 177.211 110.954C177.347 111.01 177.471 111.092 177.575 111.195C177.68 111.299 177.762 111.422 177.819 111.558C177.875 111.694 177.905 111.84 177.905 111.987Z" fill="white"/>
<path d="M130.032 122.715H117.259C117.068 122.715 116.885 122.639 116.75 122.504C116.615 122.369 116.539 122.186 116.539 121.995C116.539 121.804 116.615 121.621 116.75 121.486C116.885 121.351 117.068 121.275 117.259 121.275H130.032C130.223 121.275 130.406 121.351 130.541 121.486C130.676 121.621 130.752 121.804 130.752 121.995C130.752 122.186 130.676 122.369 130.541 122.504C130.406 122.639 130.223 122.715 130.032 122.715Z" fill="#81CCAA"/>
<path d="M136.079 126.646H117.287C117.096 126.646 116.913 126.57 116.778 126.435C116.643 126.3 116.567 126.117 116.567 125.926C116.567 125.735 116.643 125.552 116.778 125.417C116.913 125.282 117.096 125.206 117.287 125.206H136.079C136.27 125.206 136.453 125.282 136.589 125.417C136.724 125.552 136.799 125.735 136.799 125.926C136.799 126.117 136.724 126.3 136.589 126.435C136.453 126.57 136.27 126.646 136.079 126.646Z" fill="#81CCAA"/>
<path d="M130.241 130.577H117.281C117.09 130.577 116.906 130.502 116.771 130.367C116.636 130.231 116.561 130.048 116.561 129.857C116.561 129.666 116.636 129.483 116.771 129.348C116.906 129.213 117.09 129.137 117.281 129.137H130.241C130.432 129.137 130.615 129.213 130.75 129.348C130.885 129.483 130.961 129.666 130.961 129.857C130.961 130.048 130.885 130.231 130.75 130.367C130.615 130.502 130.432 130.577 130.241 130.577Z" fill="#81CCAA"/>
<path d="M178.618 194.996H126.058C125.867 194.996 125.684 194.92 125.549 194.785C125.414 194.65 125.338 194.467 125.338 194.276C125.338 194.085 125.414 193.902 125.549 193.767C125.684 193.632 125.867 193.556 126.058 193.556H178.618C178.809 193.556 178.992 193.632 179.127 193.767C179.262 193.902 179.338 194.085 179.338 194.276C179.338 194.467 179.262 194.65 179.127 194.785C178.992 194.92 178.809 194.996 178.618 194.996Z" fill="#81CCAA"/>
<path d="M149.817 198.927H117.259C117.068 198.927 116.885 198.851 116.75 198.716C116.615 198.581 116.539 198.398 116.539 198.207C116.539 198.016 116.615 197.833 116.75 197.698C116.885 197.563 117.068 197.487 117.259 197.487H149.817C150.008 197.487 150.192 197.563 150.327 197.698C150.462 197.833 150.537 198.016 150.537 198.207C150.537 198.398 150.462 198.581 150.327 198.716C150.192 198.851 150.008 198.927 149.817 198.927Z" fill="#81CCAA"/>
<path opacity="0.5" d="M188.453 201.627L173.434 216.646V201.627H188.453Z" fill="#81CCAA"/>
<path opacity="0.4" d="M188.453 115.378H184.212V201.627H188.453V115.378Z" fill="black"/>
<path d="M186.329 195.723C185.915 195.723 185.517 195.558 185.224 195.265C184.931 194.972 184.767 194.575 184.767 194.161V185.348C184.767 184.933 184.931 184.536 185.224 184.243C185.517 183.95 185.915 183.785 186.329 183.785C186.534 183.785 186.737 183.826 186.927 183.904C187.116 183.983 187.289 184.098 187.434 184.243C187.579 184.388 187.694 184.56 187.772 184.75C187.851 184.939 187.891 185.143 187.891 185.348V194.175C187.888 194.587 187.721 194.981 187.429 195.27C187.136 195.56 186.741 195.723 186.329 195.723Z" fill="#81CCAA"/>
<path d="M178.617 122.715H168.732C168.541 122.715 168.358 122.639 168.223 122.504C168.088 122.369 168.012 122.186 168.012 121.995C168.012 121.804 168.088 121.621 168.223 121.486C168.358 121.351 168.541 121.275 168.732 121.275H178.617C178.808 121.275 178.991 121.351 179.126 121.486C179.261 121.621 179.337 121.804 179.337 121.995C179.337 122.186 179.261 122.369 179.126 122.504C178.991 122.639 178.808 122.715 178.617 122.715Z" fill="#81CCAA"/>
<path d="M178.617 126.646H173.52C173.329 126.646 173.146 126.57 173.011 126.435C172.876 126.3 172.8 126.117 172.8 125.926C172.8 125.735 172.876 125.552 173.011 125.417C173.146 125.282 173.329 125.206 173.52 125.206H178.632C178.823 125.206 179.006 125.282 179.141 125.417C179.276 125.552 179.352 125.735 179.352 125.926C179.352 126.117 179.276 126.3 179.141 126.435C179.006 126.57 178.823 126.646 178.632 126.646H178.617Z" fill="#81CCAA"/>
<path d="M178.618 140.996H126.058C125.867 140.996 125.684 140.92 125.549 140.785C125.414 140.65 125.338 140.467 125.338 140.276C125.338 140.085 125.414 139.902 125.549 139.767C125.684 139.632 125.867 139.556 126.058 139.556H178.618C178.809 139.556 178.992 139.632 179.127 139.767C179.262 139.902 179.338 140.085 179.338 140.276C179.338 140.467 179.262 140.65 179.127 140.785C178.992 140.92 178.809 140.996 178.618 140.996Z" fill="#81CCAA"/>
<path d="M178.617 144.927H117.259C117.068 144.927 116.885 144.851 116.75 144.716C116.615 144.581 116.539 144.398 116.539 144.207C116.539 144.016 116.615 143.833 116.75 143.698C116.885 143.563 117.068 143.487 117.259 143.487H178.617C178.808 143.487 178.992 143.563 179.127 143.698C179.262 143.833 179.337 144.016 179.337 144.207C179.337 144.398 179.262 144.581 179.127 144.716C178.992 144.851 178.808 144.927 178.617 144.927Z" fill="#81CCAA"/>
<path d="M142.617 148.858H117.259C117.068 148.858 116.885 148.782 116.75 148.647C116.615 148.512 116.539 148.329 116.539 148.138C116.539 147.947 116.615 147.764 116.75 147.629C116.885 147.494 117.068 147.418 117.259 147.418H142.617C142.808 147.418 142.992 147.494 143.127 147.629C143.262 147.764 143.337 147.947 143.337 148.138C143.337 148.329 143.262 148.512 143.127 148.647C142.992 148.782 142.808 148.858 142.617 148.858Z" fill="#81CCAA"/>
<path opacity="0.7" d="M151.617 154.078H127.439V160.558H151.617V154.078Z" fill="#81CCAA"/>
<path opacity="0.3" d="M138.391 161.998H127.439V185.924H138.391V161.998Z" fill="#81CCAA"/>
<path opacity="0.3" d="M165.628 161.998H153.05V185.924H165.628V161.998Z" fill="#81CCAA"/>
<path opacity="0.7" d="M178.617 154.078H153.05V160.558H178.617V154.078Z" fill="#81CCAA"/>
<path opacity="0.3" d="M178.625 161.998H167.076V185.924H178.625V161.998Z" fill="#81CCAA"/>
<path opacity="0.5" d="M126.001 161.998H117.26V185.924H126.001V161.998Z" fill="#81CCAA"/>
<path d="M126.001 154.078H117.26V160.558H126.001V154.078Z" fill="#81CCAA"/>
<path opacity="0.3" d="M151.61 161.998H139.831V185.924H151.61V161.998Z" fill="#81CCAA"/>
<path opacity="0.4" d="M186.329 195.723C185.915 195.723 185.517 195.558 185.224 195.265C184.931 194.972 184.767 194.575 184.767 194.161V185.348C184.767 184.933 184.931 184.536 185.224 184.243C185.517 183.95 185.915 183.785 186.329 183.785C186.534 183.785 186.737 183.826 186.927 183.904C187.116 183.983 187.289 184.098 187.434 184.243C187.579 184.388 187.694 184.56 187.772 184.75C187.851 184.939 187.891 185.143 187.891 185.348V194.175C187.888 194.587 187.721 194.981 187.429 195.27C187.136 195.56 186.741 195.723 186.329 195.723Z" fill="white"/>
<path opacity="0.2" d="M188.453 111.433V186.457H145.015C144.402 186.455 143.814 186.21 143.381 185.775C142.947 185.34 142.704 184.752 142.704 184.138V109.114H186.134C186.749 109.114 187.339 109.358 187.774 109.793C188.209 110.228 188.453 110.818 188.453 111.433Z" fill="black"/>
<path d="M226.591 70.5509V160.738L211.572 175.757H152.201C151.587 175.755 150.999 175.51 150.566 175.076C150.133 174.641 149.89 174.053 149.89 173.439V70.5509C149.89 69.9373 150.133 69.3487 150.566 68.9141C150.999 68.4795 151.587 68.2344 152.201 68.2325H224.273C224.888 68.2325 225.477 68.4768 225.912 68.9116C226.347 69.3464 226.591 69.9361 226.591 70.5509Z" fill="#81CCAA"/>
<path opacity="0.6" d="M226.591 74.4894V160.738L211.572 175.757H152.201C151.587 175.755 150.999 175.51 150.566 175.076C150.133 174.641 149.89 174.053 149.89 173.439V74.4894H226.591Z" fill="white"/>
<path opacity="0.6" d="M223.467 72.2142C224.083 72.2142 224.583 71.7145 224.583 71.0982C224.583 70.4818 224.083 69.9822 223.467 69.9822C222.85 69.9822 222.351 70.4818 222.351 71.0982C222.351 71.7145 222.85 72.2142 223.467 72.2142Z" fill="white"/>
<path opacity="0.6" d="M219.189 72.2142C219.806 72.2142 220.305 71.7145 220.305 71.0982C220.305 70.4818 219.806 69.9822 219.189 69.9822C218.573 69.9822 218.073 70.4818 218.073 71.0982C218.073 71.7145 218.573 72.2142 219.189 72.2142Z" fill="white"/>
<path opacity="0.6" d="M216.036 71.0981C216.038 71.3209 215.973 71.539 215.85 71.7249C215.727 71.9107 215.552 72.0557 215.346 72.1416C215.141 72.2275 214.914 72.2504 214.696 72.2073C214.477 72.1642 214.277 72.0571 214.119 71.8995C213.961 71.742 213.854 71.5412 213.811 71.3227C213.768 71.1041 213.791 70.8777 213.877 70.6722C213.963 70.4667 214.108 70.2913 214.294 70.1684C214.48 70.0456 214.698 69.9807 214.92 69.9821C215.067 69.9812 215.213 70.0094 215.349 70.0651C215.484 70.1209 215.608 70.2031 215.712 70.3069C215.815 70.4107 215.898 70.5341 215.953 70.6699C216.009 70.8058 216.037 70.9513 216.036 71.0981Z" fill="white"/>
<path d="M193.407 81.8549H178.741C178.55 81.8549 178.366 81.7791 178.231 81.644C178.096 81.509 178.021 81.3259 178.021 81.1349C178.021 80.944 178.096 80.7608 178.231 80.6258C178.366 80.4908 178.55 80.4149 178.741 80.4149H193.407C193.598 80.4149 193.781 80.4908 193.916 80.6258C194.051 80.7608 194.127 80.944 194.127 81.1349C194.127 81.3259 194.051 81.509 193.916 81.644C193.781 81.7791 193.598 81.8549 193.407 81.8549Z" fill="#81CCAA"/>
<path d="M199.44 85.7573H172.728C172.537 85.7573 172.354 85.6815 172.219 85.5464C172.084 85.4114 172.008 85.2283 172.008 85.0373C172.008 84.8464 172.084 84.6632 172.219 84.5282C172.354 84.3932 172.537 84.3173 172.728 84.3173H199.44C199.631 84.3173 199.814 84.3932 199.949 84.5282C200.084 84.6632 200.16 84.8464 200.16 85.0373C200.16 85.2283 200.084 85.4114 199.949 85.5464C199.814 85.6815 199.631 85.7573 199.44 85.7573Z" fill="#81CCAA"/>
<path d="M193.622 89.6957H178.56C178.369 89.6957 178.186 89.6199 178.051 89.4849C177.916 89.3498 177.84 89.1667 177.84 88.9757C177.84 88.7848 177.916 88.6016 178.051 88.4666C178.186 88.3316 178.369 88.2557 178.56 88.2557H193.68C193.871 88.2557 194.054 88.3316 194.189 88.4666C194.324 88.6016 194.4 88.7848 194.4 88.9757C194.4 89.1667 194.324 89.3498 194.189 89.4849C194.054 89.6199 193.871 89.6957 193.68 89.6957H193.622Z" fill="#81CCAA"/>
<path d="M216.756 100.107H164.16C163.969 100.107 163.786 100.031 163.651 99.896C163.516 99.761 163.44 99.5779 163.44 99.3869C163.44 99.196 163.516 99.0128 163.651 98.8778C163.786 98.7428 163.969 98.6669 164.16 98.6669H216.72C216.911 98.6669 217.095 98.7428 217.23 98.8778C217.365 99.0128 217.44 99.196 217.44 99.3869C217.44 99.5779 217.365 99.761 217.23 99.896C217.095 100.031 216.911 100.107 216.72 100.107H216.756Z" fill="#81CCAA"/>
<path d="M207.965 115.839H155.405C155.214 115.839 155.03 115.763 154.895 115.628C154.76 115.493 154.685 115.31 154.685 115.119C154.685 114.928 154.76 114.745 154.895 114.61C155.03 114.475 155.214 114.399 155.405 114.399H207.965C208.156 114.399 208.339 114.475 208.474 114.61C208.609 114.745 208.685 114.928 208.685 115.119C208.685 115.31 208.609 115.493 208.474 115.628C208.339 115.763 208.156 115.839 207.965 115.839Z" fill="#81CCAA"/>
<path d="M216.756 104.038H155.391C155.2 104.038 155.017 103.962 154.882 103.827C154.747 103.692 154.671 103.509 154.671 103.318C154.671 103.127 154.747 102.944 154.882 102.809C155.017 102.674 155.2 102.598 155.391 102.598H216.756C216.947 102.598 217.131 102.674 217.266 102.809C217.401 102.944 217.476 103.127 217.476 103.318C217.476 103.509 217.401 103.692 217.266 103.827C217.131 103.962 216.947 104.038 216.756 104.038Z" fill="#81CCAA"/>
<path d="M216.756 107.977H155.391C155.2 107.977 155.017 107.901 154.882 107.766C154.747 107.631 154.671 107.448 154.671 107.257C154.671 107.066 154.747 106.882 154.882 106.747C155.017 106.612 155.2 106.537 155.391 106.537H216.756C216.947 106.537 217.131 106.612 217.266 106.747C217.401 106.882 217.476 107.066 217.476 107.257C217.476 107.448 217.401 107.631 217.266 107.766C217.131 107.901 216.947 107.977 216.756 107.977Z" fill="#81CCAA"/>
<path d="M216.756 111.908H155.391C155.2 111.908 155.017 111.832 154.882 111.697C154.747 111.562 154.671 111.379 154.671 111.188C154.671 110.997 154.747 110.814 154.882 110.679C155.017 110.544 155.2 110.468 155.391 110.468H216.756C216.947 110.468 217.131 110.544 217.266 110.679C217.401 110.814 217.476 110.997 217.476 111.188C217.476 111.379 217.401 111.562 217.266 111.697C217.131 111.832 216.947 111.908 216.756 111.908Z" fill="#81CCAA"/>
<path d="M216.756 139.707H164.16C163.969 139.707 163.786 139.631 163.651 139.496C163.516 139.361 163.44 139.178 163.44 138.987C163.44 138.796 163.516 138.613 163.651 138.478C163.786 138.343 163.969 138.267 164.16 138.267H216.72C216.911 138.267 217.095 138.343 217.23 138.478C217.365 138.613 217.44 138.796 217.44 138.987C217.44 139.178 217.365 139.361 217.23 139.496C217.095 139.631 216.911 139.707 216.72 139.707H216.756Z" fill="#81CCAA"/>
<path d="M207.965 155.439H155.405C155.214 155.439 155.03 155.363 154.895 155.228C154.76 155.093 154.685 154.91 154.685 154.719C154.685 154.528 154.76 154.345 154.895 154.21C155.03 154.075 155.214 153.999 155.405 153.999H207.965C208.156 153.999 208.339 154.075 208.474 154.21C208.609 154.345 208.685 154.528 208.685 154.719C208.685 154.91 208.609 155.093 208.474 155.228C208.339 155.363 208.156 155.439 207.965 155.439Z" fill="#81CCAA"/>
<path d="M216.756 143.638H155.391C155.2 143.638 155.017 143.562 154.882 143.427C154.747 143.292 154.671 143.109 154.671 142.918C154.671 142.727 154.747 142.544 154.882 142.409C155.017 142.274 155.2 142.198 155.391 142.198H216.756C216.947 142.198 217.131 142.274 217.266 142.409C217.401 142.544 217.476 142.727 217.476 142.918C217.476 143.109 217.401 143.292 217.266 143.427C217.131 143.562 216.947 143.638 216.756 143.638Z" fill="#81CCAA"/>
<path d="M216.756 147.577H155.391C155.2 147.577 155.017 147.501 154.882 147.366C154.747 147.231 154.671 147.047 154.671 146.857C154.671 146.666 154.747 146.482 154.882 146.347C155.017 146.212 155.2 146.137 155.391 146.137H216.756C216.947 146.137 217.131 146.212 217.266 146.347C217.401 146.482 217.476 146.666 217.476 146.857C217.476 147.047 217.401 147.231 217.266 147.366C217.131 147.501 216.947 147.577 216.756 147.577Z" fill="#81CCAA"/>
<path d="M216.756 151.508H155.391C155.2 151.508 155.017 151.432 154.882 151.297C154.747 151.162 154.671 150.979 154.671 150.788C154.671 150.597 154.747 150.414 154.882 150.279C155.017 150.144 155.2 150.068 155.391 150.068H216.756C216.947 150.068 217.131 150.144 217.266 150.279C217.401 150.414 217.476 150.597 217.476 150.788C217.476 150.979 217.401 151.162 217.266 151.297C217.131 151.432 216.947 151.508 216.756 151.508Z" fill="#81CCAA"/>
<path d="M216.756 80.2421H209.391V90.0485H216.756V80.2421Z" fill="#81CCAA"/>
<path d="M159.48 88.4069C161.735 88.4069 163.562 86.5792 163.562 84.3245C163.562 82.0699 161.735 80.2421 159.48 80.2421C157.225 80.2421 155.397 82.0699 155.397 84.3245C155.397 86.5792 157.225 88.4069 159.48 88.4069Z" fill="#81CCAA"/>
<path d="M155.16 120.987C155.18 121.202 155.279 121.401 155.438 121.546C155.597 121.692 155.805 121.772 156.02 121.772C156.236 121.772 156.443 121.692 156.603 121.546C156.762 121.401 156.861 121.202 156.881 120.987C156.892 120.867 156.878 120.747 156.839 120.633C156.801 120.519 156.739 120.414 156.658 120.326C156.577 120.237 156.479 120.166 156.369 120.118C156.259 120.069 156.14 120.044 156.02 120.044C155.9 120.044 155.781 120.069 155.671 120.118C155.562 120.166 155.463 120.237 155.382 120.326C155.301 120.414 155.24 120.519 155.201 120.633C155.163 120.747 155.149 120.867 155.16 120.987Z" fill="#81CCAA"/>
<path d="M155.16 124.918C155.159 125.09 155.208 125.258 155.303 125.401C155.397 125.544 155.532 125.656 155.69 125.722C155.848 125.788 156.023 125.806 156.191 125.773C156.359 125.74 156.514 125.658 156.635 125.536C156.756 125.415 156.839 125.26 156.872 125.092C156.905 124.924 156.887 124.75 156.821 124.591C156.755 124.433 156.643 124.298 156.5 124.204C156.357 124.11 156.188 124.06 156.017 124.061C155.79 124.061 155.572 124.152 155.411 124.312C155.25 124.473 155.16 124.691 155.16 124.918Z" fill="#81CCAA"/>
<path d="M155.16 128.857C155.18 129.071 155.279 129.271 155.438 129.416C155.597 129.561 155.805 129.642 156.02 129.642C156.236 129.642 156.443 129.561 156.603 129.416C156.762 129.271 156.861 129.071 156.881 128.857C156.892 128.737 156.878 128.616 156.839 128.503C156.801 128.389 156.739 128.284 156.658 128.195C156.577 128.107 156.479 128.036 156.369 127.987C156.259 127.939 156.14 127.914 156.02 127.914C155.9 127.914 155.781 127.939 155.671 127.987C155.562 128.036 155.463 128.107 155.382 128.195C155.301 128.284 155.24 128.389 155.201 128.503C155.163 128.616 155.149 128.737 155.16 128.857Z" fill="#81CCAA"/>
<path d="M155.16 132.788C155.18 133.002 155.279 133.202 155.438 133.347C155.597 133.492 155.805 133.573 156.02 133.573C156.236 133.573 156.443 133.492 156.603 133.347C156.762 133.202 156.861 133.002 156.881 132.788C156.892 132.668 156.878 132.548 156.839 132.434C156.801 132.32 156.739 132.215 156.658 132.127C156.577 132.038 156.479 131.967 156.369 131.918C156.259 131.87 156.14 131.845 156.02 131.845C155.9 131.845 155.781 131.87 155.671 131.918C155.562 131.967 155.463 132.038 155.382 132.127C155.301 132.215 155.24 132.32 155.201 132.434C155.163 132.548 155.149 132.668 155.16 132.788Z" fill="#81CCAA"/>
<path d="M168.365 121.707H159.005C158.814 121.707 158.631 121.631 158.496 121.496C158.361 121.361 158.285 121.178 158.285 120.987C158.285 120.796 158.361 120.613 158.496 120.478C158.631 120.343 158.814 120.267 159.005 120.267H168.365C168.556 120.267 168.739 120.343 168.874 120.478C169.009 120.613 169.085 120.796 169.085 120.987C169.085 121.178 169.009 121.361 168.874 121.496C168.739 121.631 168.556 121.707 168.365 121.707Z" fill="#81CCAA"/>
<path d="M177.156 125.638H158.991C158.8 125.638 158.616 125.562 158.481 125.427C158.346 125.292 158.271 125.109 158.271 124.918C158.271 124.727 158.346 124.544 158.481 124.409C158.616 124.274 158.8 124.198 158.991 124.198H177.156C177.347 124.198 177.53 124.274 177.665 124.409C177.8 124.544 177.876 124.727 177.876 124.918C177.876 125.109 177.8 125.292 177.665 125.427C177.53 125.562 177.347 125.638 177.156 125.638Z" fill="#81CCAA"/>
<path d="M166.356 129.577H158.991C158.8 129.577 158.616 129.501 158.481 129.366C158.346 129.231 158.271 129.047 158.271 128.857C158.271 128.666 158.346 128.482 158.481 128.347C158.616 128.212 158.8 128.137 158.991 128.137H166.356C166.547 128.137 166.73 128.212 166.865 128.347C167 128.482 167.076 128.666 167.076 128.857C167.076 129.047 167 129.231 166.865 129.366C166.73 129.501 166.547 129.577 166.356 129.577Z" fill="#81CCAA"/>
<path d="M174.276 133.508H158.991C158.8 133.508 158.616 133.432 158.481 133.297C158.346 133.162 158.271 132.979 158.271 132.788C158.271 132.597 158.346 132.414 158.481 132.279C158.616 132.144 158.8 132.068 158.991 132.068H174.276C174.467 132.068 174.65 132.144 174.785 132.279C174.92 132.414 174.996 132.597 174.996 132.788C174.996 132.979 174.92 133.162 174.785 133.297C174.65 133.432 174.467 133.508 174.276 133.508Z" fill="#81CCAA"/>
<path opacity="0.5" d="M226.591 160.738L211.572 175.757V160.738H226.591Z" fill="#81CCAA"/>
<path opacity="0.2" d="M216.756 80.2421L209.391 90.0485H216.756V80.2421Z" fill="black"/>
<path opacity="0.2" d="M161.863 81.9413H157.09V86.7149H161.863V81.9413Z" fill="black"/>
<path opacity="0.4" d="M226.585 74.4894H222.344V160.738H226.585V74.4894Z" fill="black"/>
<path d="M224.468 90.7541C224.053 90.7541 223.656 90.5895 223.363 90.2965C223.07 90.0035 222.905 89.6061 222.905 89.1917V80.4149C222.905 80.0006 223.07 79.6032 223.363 79.3102C223.656 79.0171 224.053 78.8525 224.468 78.8525C224.882 78.8525 225.279 79.0171 225.572 79.3102C225.865 79.6032 226.03 80.0006 226.03 80.4149V89.2277C226.021 89.6358 225.852 90.0241 225.56 90.3093C225.268 90.5946 224.876 90.7542 224.468 90.7541Z" fill="#81CCAA"/>
<path opacity="0.4" d="M224.468 90.7541C224.053 90.7541 223.656 90.5895 223.363 90.2965C223.07 90.0035 222.905 89.6061 222.905 89.1917V80.4149C222.905 80.0006 223.07 79.6032 223.363 79.3102C223.656 79.0171 224.053 78.8525 224.468 78.8525C224.882 78.8525 225.279 79.0171 225.572 79.3102C225.865 79.6032 226.03 80.0006 226.03 80.4149V89.2277C226.021 89.6358 225.852 90.0241 225.56 90.3093C225.268 90.5946 224.876 90.7542 224.468 90.7541Z" fill="white"/>
<path d="M60.3581 111.325H85.5005C86.4674 111.327 87.394 111.712 88.077 112.397C88.7601 113.081 89.1437 114.009 89.1437 114.975V139.412C89.1437 140.379 88.7598 141.305 88.0766 141.988C87.3934 142.672 86.4667 143.055 85.5005 143.055H75.2909L76.3925 150.421L71.3525 143.055H60.3581C59.8794 143.056 59.4052 142.963 58.9627 142.78C58.5203 142.597 58.1183 142.329 57.7798 141.991C57.4413 141.652 57.173 141.25 56.9902 140.808C56.8075 140.365 56.7139 139.891 56.7149 139.412V114.975C56.7139 114.496 56.8074 114.022 56.9901 113.579C57.1728 113.136 57.441 112.734 57.7794 112.395C58.1178 112.056 58.5197 111.787 58.9622 111.603C59.4047 111.42 59.879 111.325 60.3581 111.325Z" fill="#CDEADD"/>
<path opacity="0.6" d="M60.3581 111.325H85.5005C86.4674 111.327 87.394 111.712 88.077 112.397C88.7601 113.081 89.1437 114.009 89.1437 114.975V139.412C89.1437 140.379 88.7598 141.305 88.0766 141.988C87.3934 142.672 86.4667 143.055 85.5005 143.055H75.2909L76.3925 150.421L71.3525 143.055H60.3581C59.8794 143.056 59.4052 142.963 58.9627 142.78C58.5203 142.597 58.1183 142.329 57.7798 141.991C57.4413 141.652 57.173 141.25 56.9902 140.808C56.8075 140.365 56.7139 139.891 56.7149 139.412V114.975C56.7139 114.496 56.8074 114.022 56.9901 113.579C57.1728 113.136 57.441 112.734 57.7794 112.395C58.1178 112.056 58.5197 111.787 58.9622 111.603C59.4047 111.42 59.879 111.325 60.3581 111.325Z" fill="white"/>
<path d="M70.8555 122.111V124.062L71.8635 124.155C71.9861 124.796 72.2305 125.407 72.5835 125.955L71.9427 126.733L73.3179 128.108L74.1027 127.467C74.6521 127.819 75.2627 128.063 75.9027 128.187L75.9963 129.188H77.9403L78.0411 128.187C78.6802 128.06 79.2904 127.816 79.8411 127.467L80.6187 128.108L81.9939 126.733L81.3531 125.955C81.7029 125.405 81.9471 124.795 82.0731 124.155L83.0739 124.062V122.111L82.0731 122.017C81.9471 121.378 81.7029 120.767 81.3531 120.217L81.9939 119.439L80.6403 118.057L79.8627 118.705C79.312 118.357 78.7018 118.112 78.0627 117.985L77.9619 116.977H76.0179L75.9243 117.985C75.2843 118.11 74.6736 118.354 74.1243 118.705L73.3395 118.057L72.0003 119.439L72.6411 120.217C72.2881 120.765 72.0437 121.377 71.9211 122.017L70.8555 122.111ZM76.9899 120.447C77.5131 120.446 78.025 120.6 78.4606 120.89C78.8962 121.18 79.236 121.592 79.4369 122.075C79.6378 122.558 79.6908 123.09 79.589 123.604C79.4873 124.117 79.2355 124.588 78.8655 124.958C78.4955 125.328 78.024 125.58 77.5108 125.682C76.9976 125.784 76.4657 125.731 75.9825 125.53C75.4994 125.329 75.0868 124.989 74.797 124.553C74.5072 124.118 74.3532 123.606 74.3547 123.083C74.3566 122.384 74.6348 121.715 75.1286 121.221C75.6224 120.728 76.2916 120.449 76.9899 120.447Z" fill="#F5F5F5"/>
<path d="M72.116 136.331C72.628 136.227 73.1163 136.029 73.556 135.747L74.168 136.251L75.248 135.171L74.744 134.559C75.026 134.12 75.2238 133.631 75.3272 133.119L76.112 133.047V131.535L75.3272 131.463C75.2266 130.951 75.0286 130.462 74.744 130.023L75.248 129.411L74.168 128.331L73.556 128.835C73.1195 128.547 72.6299 128.349 72.116 128.252L72.044 127.46H70.5176L70.4384 128.252C69.9244 128.349 69.4349 128.547 68.9984 128.835L68.3936 128.331L67.3136 129.411L67.8176 130.023C67.5276 130.46 67.327 130.949 67.2272 131.463L66.4424 131.535V133.062L67.2272 133.134C67.3298 133.647 67.5303 134.136 67.8176 134.574L67.3136 135.186L68.3936 136.266L68.9984 135.762C69.4381 136.044 69.9264 136.242 70.4384 136.345L70.5176 137.13H72.044L72.116 136.331ZM69.236 132.313C69.2417 131.903 69.3689 131.504 69.6015 131.166C69.8341 130.828 70.1616 130.567 70.5426 130.415C70.9237 130.264 71.3411 130.229 71.7422 130.314C72.1432 130.4 72.5099 130.602 72.7959 130.896C73.0818 131.19 73.2741 131.562 73.3485 131.966C73.423 132.369 73.3761 132.785 73.214 133.162C73.0518 133.539 72.7816 133.859 72.4375 134.082C72.0934 134.305 71.6908 134.421 71.2808 134.415C71.0058 134.416 70.7333 134.363 70.4794 134.257C70.2255 134.151 69.9952 133.996 69.8021 133.8C69.6089 133.604 69.4568 133.372 69.3547 133.117C69.2525 132.861 69.2024 132.588 69.2072 132.313H69.236Z" fill="#F5F5F5"/>
<path d="M68.1416 127.72L68.5664 128.231L69.6248 127.511L69.3008 126.928C69.6089 126.621 69.8535 126.256 70.0208 125.855L70.6832 125.92L70.9208 124.66L70.28 124.472C70.2718 124.042 70.1839 123.617 70.0208 123.22L70.532 122.795L69.812 121.736L69.2288 122.053C68.9223 121.745 68.5576 121.5 68.156 121.333L68.2208 120.671L66.9608 120.448L66.7736 121.081C66.3427 121.088 65.9172 121.179 65.5208 121.348L65.096 120.836L64.0376 121.556L64.3544 122.14C64.0489 122.449 63.8047 122.813 63.6344 123.212L62.972 123.155L62.7344 124.415L63.368 124.595C63.3758 125.028 63.4662 125.455 63.6344 125.855L63.1232 126.28L63.8432 127.338L64.4264 127.014C64.7358 127.319 65.0997 127.563 65.4992 127.734L65.4416 128.396L66.7016 128.634L66.8816 127.993C67.3148 127.98 67.7418 127.887 68.1416 127.72ZM65.1104 124.213C65.1954 123.761 65.4566 123.36 65.8367 123.1C66.2168 122.84 66.6846 122.742 67.1372 122.827C67.5897 122.912 67.99 123.173 68.2499 123.553C68.5099 123.934 68.6082 124.401 68.5232 124.854C68.4811 125.078 68.3953 125.292 68.2707 125.483C68.146 125.673 67.985 125.838 67.7968 125.967C67.6086 126.095 67.3969 126.186 67.1738 126.233C66.9506 126.28 66.7205 126.282 66.4964 126.24C66.2723 126.198 66.0587 126.112 65.8678 125.987C65.6768 125.863 65.5123 125.702 65.3836 125.514C65.2549 125.325 65.1645 125.114 65.1177 124.891C65.0708 124.667 65.0683 124.437 65.1104 124.213Z" fill="#F5F5F5"/>
<path d="M101.779 200.742C101.779 200.742 103.55 216.683 104.126 218.583C104.702 220.484 112.817 230.636 112.817 230.636L110.52 231.839C110.52 231.839 101.88 222.954 100.505 220.319C99.1295 217.683 97.0703 203.931 97.0703 203.931L101.779 200.742Z" fill="#EBB376"/>
<path d="M100.159 193.643C103.147 195.227 104.126 217.352 104.126 217.352L105.638 219.678L101.045 222.975C99.9388 221.152 98.9759 219.245 98.1646 217.273C97.2502 214.81 95.083 202.657 95.083 202.657L100.159 193.643Z" fill="#263238"/>
<path opacity="0.1" d="M100.159 193.643C103.147 195.227 104.126 217.352 104.126 217.352L105.638 219.678L101.045 222.975C99.9388 221.152 98.9759 219.245 98.1646 217.273C97.2502 214.81 95.083 202.657 95.083 202.657L100.159 193.643Z" fill="white"/>
<path d="M100.368 222.954L105.639 218.778L106.769 221.146L101.909 224.61L100.368 222.954Z" fill="#CDEADD"/>
<path opacity="0.4" d="M100.368 222.954L105.639 218.778L106.769 221.146L101.909 224.61L100.368 222.954Z" fill="white"/>
<path d="M88.3801 222.169L93.7657 230.687C104.443 228.203 138.665 222.983 142.863 234.726C148.09 249.313 110.34 260.948 89.4529 261.661C68.5657 262.374 51.7969 250.479 65.0089 220.023L88.3801 222.169Z" fill="#CDEADD"/>
<path opacity="0.2" d="M88.3801 222.169L93.7657 230.687C104.443 228.203 138.665 222.983 142.863 234.726C148.09 249.313 110.34 260.948 89.4529 261.661C68.5657 262.374 51.7969 250.479 65.0089 220.023L88.3801 222.169Z" fill="black"/>
<path d="M136.8 255.375C136.778 255.389 136.751 255.397 136.725 255.397C136.698 255.397 136.672 255.389 136.649 255.375C136.629 255.361 136.615 255.34 136.608 255.317C136.602 255.293 136.604 255.268 136.613 255.246C136.678 255.008 137.369 252.999 138.053 252.791C138.127 252.772 138.205 252.774 138.278 252.795C138.352 252.817 138.418 252.857 138.471 252.913C138.569 252.994 138.643 253.099 138.688 253.218C138.732 253.336 138.744 253.465 138.723 253.59C138.607 253.964 138.378 254.294 138.067 254.533C137.673 254.853 137.248 255.135 136.8 255.375ZM136.98 254.987C137.632 254.698 138.16 254.188 138.471 253.547C138.488 253.461 138.48 253.372 138.448 253.29C138.416 253.208 138.361 253.138 138.291 253.086C138.271 253.062 138.245 253.045 138.215 253.036C138.186 253.027 138.155 253.027 138.125 253.035C138.068 253.06 138.015 253.091 137.967 253.129C137.536 253.679 137.207 254.3 136.995 254.965L136.98 254.987Z" fill="#CDEADD"/>
<path d="M136.801 255.375C136.778 255.386 136.753 255.389 136.729 255.382C136.705 255.375 136.684 255.36 136.671 255.339C136.606 255.282 135.641 254.065 135.8 253.244C135.818 253.142 135.857 253.045 135.913 252.958C135.97 252.871 136.044 252.797 136.131 252.74C136.204 252.67 136.299 252.627 136.399 252.618C136.5 252.609 136.601 252.634 136.685 252.69C137.197 253.043 137.132 254.677 136.887 255.289V255.354L136.801 255.375ZM136.253 252.992C136.168 253.067 136.109 253.168 136.088 253.28C136.114 253.894 136.338 254.483 136.729 254.958C136.887 254.238 136.837 253.122 136.541 252.913C136.541 252.913 136.448 252.848 136.297 252.956L136.253 252.992Z" fill="#CDEADD"/>
<path d="M100.08 258.774C100.093 258.75 100.114 258.731 100.138 258.719C100.163 258.708 100.19 258.704 100.217 258.709C100.241 258.712 100.263 258.723 100.28 258.74C100.297 258.757 100.308 258.779 100.311 258.803C100.361 259.04 100.728 261.135 100.217 261.683C100.163 261.736 100.095 261.773 100.022 261.789C99.9478 261.806 99.8707 261.801 99.7994 261.776C99.6751 261.753 99.5591 261.698 99.4631 261.615C99.367 261.533 99.2943 261.427 99.2522 261.308C99.1705 260.926 99.2108 260.528 99.3674 260.171C99.5584 259.683 99.7971 259.215 100.08 258.774ZM100.08 259.199C99.6498 259.763 99.433 260.462 99.4682 261.171C99.4949 261.255 99.5451 261.329 99.6127 261.385C99.6803 261.442 99.7626 261.477 99.8498 261.488C99.8774 261.502 99.9088 261.505 99.9388 261.499C99.9689 261.492 99.9958 261.476 100.015 261.452C100.057 261.407 100.089 261.353 100.109 261.294C100.24 260.602 100.245 259.892 100.123 259.199H100.08Z" fill="#CDEADD"/>
<path d="M113.767 248.204L105.171 251.264L101.045 252.733L102.103 257.255L106.099 256.398L115.863 254.317L113.767 248.204Z" fill="#EBB376"/>
<path d="M103.226 257.463L102.506 252.135C102.497 252.064 102.473 251.996 102.436 251.934C102.4 251.873 102.351 251.819 102.293 251.777C102.235 251.734 102.17 251.704 102.1 251.688C102.03 251.672 101.958 251.669 101.887 251.682L99.2591 252.121C99.2591 252.121 95.6591 252.459 94.9391 253.374C92.8583 256.059 94.1543 267.882 95.5439 268.299C96.0479 268.451 96.5807 267.759 96.8039 267.277C97.5239 265.75 98.7407 261.769 99.3383 260.502C100.058 259.026 101.959 258.306 102.823 258.046C102.95 258.016 103.061 257.939 103.136 257.832C103.21 257.724 103.242 257.593 103.226 257.463Z" fill="#263238"/>
<path d="M100.117 258.73C100.136 258.718 100.159 258.712 100.181 258.712C100.204 258.712 100.227 258.718 100.246 258.73C100.333 258.73 101.765 259.35 102.025 260.17C102.088 260.371 102.07 260.588 101.974 260.775C101.944 260.872 101.882 260.956 101.798 261.013C101.715 261.071 101.615 261.098 101.513 261.092C100.901 261.027 100.16 259.566 100.073 258.932V258.867C100.066 258.843 100.067 258.817 100.074 258.792C100.082 258.768 100.097 258.746 100.117 258.73ZM101.751 260.559C101.787 260.449 101.787 260.331 101.751 260.221C101.585 259.717 100.786 259.27 100.376 259.069C100.577 259.753 101.175 260.732 101.535 260.768C101.535 260.768 101.643 260.768 101.722 260.617V260.559H101.751Z" fill="#CDEADD"/>
<path opacity="0.2" d="M113.768 248.204L105.171 251.264L106.1 256.398L115.863 254.317L113.768 248.204Z" fill="black"/>
<path d="M107.619 257.175L110.095 257.348L108.439 248.845L105.639 250.4L107.619 257.175Z" fill="#CDEADD"/>
<path opacity="0.6" d="M107.619 257.175L110.095 257.348L108.439 248.845L105.639 250.4L107.619 257.175Z" fill="white"/>
<path opacity="0.2" d="M71.7695 224.127L84.6431 238.405C84.6431 238.405 98.8775 238.088 116.158 246.534C116.158 246.534 134.698 238.873 136.404 232.508C138.636 224.171 93.7655 230.687 93.7655 230.687L71.7695 224.127Z" fill="black"/>
<path d="M132.149 234.207V236.324C132.149 236.864 131.508 237.087 130.975 237.087H88.704C88.164 237.087 87.5088 236.864 87.5088 236.324V234.207H132.149Z" fill="#263238"/>
<path opacity="0.4" d="M132.149 234.207V236.324C132.149 236.864 131.508 237.087 130.975 237.087H88.704C88.164 237.087 87.5088 236.864 87.5088 236.324V234.207H132.149Z" fill="white"/>
<path opacity="0.2" d="M132.149 234.207V236.324C132.149 236.864 131.508 237.087 130.976 237.087H103.097C102.557 237.087 101.909 236.864 101.909 236.324V234.207H132.149Z" fill="black"/>
<path d="M139.22 212.247L134.18 235.071C134.087 235.436 133.877 235.761 133.581 235.995C133.286 236.229 132.922 236.36 132.545 236.367H105.07C104.898 236.364 104.729 236.321 104.577 236.241C104.424 236.161 104.293 236.047 104.193 235.907C104.093 235.767 104.027 235.605 104 235.435C103.974 235.265 103.988 235.091 104.041 234.927L109.081 212.276C109.182 211.931 109.399 211.632 109.696 211.429C109.992 211.225 110.35 211.131 110.708 211.16H138.197C138.961 211.167 139.385 211.506 139.22 212.247Z" fill="#263238"/>
<path opacity="0.4" d="M139.22 212.247L134.18 235.071C134.087 235.437 133.877 235.761 133.581 235.995C133.286 236.229 132.922 236.36 132.545 236.367H106.006C105.834 236.364 105.665 236.32 105.512 236.24C105.36 236.16 105.228 236.046 105.127 235.907C105.025 235.767 104.958 235.606 104.929 235.436C104.901 235.266 104.912 235.092 104.962 234.927L110.002 212.276C110.106 211.939 110.32 211.647 110.61 211.446C110.9 211.245 111.249 211.147 111.601 211.167H138.154C138.961 211.167 139.385 211.506 139.22 212.247Z" fill="white"/>
<path opacity="0.2" d="M125.669 223.847C125.669 225.805 123.574 227.389 122.069 227.389C120.564 227.389 119.621 225.805 120.06 223.847C120.5 221.888 122.026 220.369 123.531 220.311C123.092 222.27 124.028 223.847 125.561 223.847C125.597 223.849 125.633 223.849 125.669 223.847Z" fill="black"/>
<path d="M119.736 257.982L128.736 259.465L133.056 260.178L134.316 255.714L130.407 254.519L120.86 251.617L119.736 257.982Z" fill="#EBB376"/>
<path d="M133.437 254.979L131.493 260.019C131.462 260.087 131.446 260.16 131.445 260.235C131.445 260.309 131.46 260.383 131.49 260.451C131.52 260.519 131.564 260.58 131.619 260.629C131.674 260.679 131.739 260.717 131.81 260.739L134.323 261.625C134.323 261.625 137.613 263.065 138.679 262.604C141.797 261.265 146.383 250.285 145.375 249.255C145.008 248.874 144.201 249.255 143.777 249.536C142.423 250.53 139.413 253.424 138.283 254.238C136.951 255.188 134.921 254.893 134.042 254.706C133.925 254.673 133.801 254.683 133.69 254.733C133.58 254.783 133.49 254.87 133.437 254.979Z" fill="#263238"/>
<path opacity="0.2" d="M119.736 257.982L128.736 259.465L130.407 254.519L120.86 251.617L119.736 257.982Z" fill="black"/>
<path d="M128.88 253.59C128.88 253.59 92.1604 232.955 79.5172 233.545C66.874 234.135 65.0236 245.295 70.2508 252.265C75.478 259.235 85.126 260.948 85.126 260.948C85.126 260.948 78.5524 251.667 79.5028 249.054C80.4532 246.44 84.1684 250.091 84.1684 250.091C84.1684 250.091 107.237 257.535 127.44 259.278L128.88 253.59Z" fill="#CDEADD"/>
<path d="M129.449 253.021L127.375 251.624L124.704 259.825H127.908L129.449 253.021Z" fill="#CDEADD"/>
<path opacity="0.6" d="M129.449 253.021L127.375 251.624L124.704 259.825H127.908L129.449 253.021Z" fill="white"/>
<path d="M65.0088 220.023L88.3872 222.183C88.3872 222.183 92.052 214.594 94.8672 211.635C97.6824 208.676 100.166 193.635 100.166 193.635C98.2653 192.715 96.3078 191.917 94.3056 191.245C88.5383 189.311 82.5032 188.296 76.4208 188.235H76.32C74.5776 188.235 73.5696 188.322 73.5696 188.322C72.8616 188.799 72.2888 189.452 71.9064 190.215C69.4008 194.535 67.4064 204.615 66.2256 211.851C65.4264 216.531 65.0088 220.023 65.0088 220.023Z" fill="#263238"/>
<path opacity="0.2" d="M66.1895 211.859C71.3447 209.497 78.3791 205.501 78.0119 201.447C77.6159 196.998 74.0087 192.519 71.8703 190.223C69.3647 194.543 67.3703 204.623 66.1895 211.859Z" fill="black"/>
<path d="M77.5586 188.264C77.5586 188.264 80.2226 197.034 87.509 197.984C94.7954 198.935 96.005 191.864 96.005 191.864C96.005 191.864 86.6234 186.716 77.5586 188.264Z" fill="#263238"/>
<path opacity="0.1" d="M77.5586 188.264C77.5586 188.264 80.2226 197.034 87.509 197.984C94.7954 198.935 96.005 191.864 96.005 191.864C96.005 191.864 86.6234 186.716 77.5586 188.264Z" fill="white"/>
<path d="M79.085 188.509C79.085 188.509 82.5194 196.631 88.7114 196.631C94.9034 196.631 95.0978 192.073 95.0978 192.073C95.0978 192.073 88.9058 188.012 79.085 188.509Z" fill="#CDEADD"/>
<path opacity="0.4" d="M79.085 188.509C79.085 188.509 82.5194 196.631 88.7114 196.631C94.9034 196.631 95.0978 192.073 95.0978 192.073C95.0978 192.073 88.9058 188.012 79.085 188.509Z" fill="white"/>
<path d="M90.2951 189.776C90.3383 191.216 91.1663 191.576 91.1663 191.576C91.2379 192.022 91.2062 192.479 91.0736 192.91C90.941 193.342 90.7112 193.738 90.4017 194.067C90.0922 194.396 89.7113 194.649 89.2884 194.808C88.8655 194.967 88.4118 195.026 87.9623 194.982C83.3759 194.514 81.9287 188.991 81.9287 188.991C85.2623 187.667 86.0111 183.987 86.1551 181.791C86.1956 181.221 86.1956 180.648 86.1551 180.078L92.3903 184.002C91.8638 184.878 91.3995 185.79 91.0007 186.731C90.5625 187.688 90.3225 188.724 90.2951 189.776Z" fill="#EBB376"/>
<path opacity="0.2" d="M92.0091 183.519C91.5745 184.453 91.204 185.415 90.9003 186.399C90.5627 187.392 90.4304 188.443 90.5115 189.488C87.0051 189.762 85.6083 182.022 85.6083 182.022V181.971C85.5925 181.399 85.5348 180.829 85.4355 180.265L92.0091 183.519Z" fill="black"/>
<path d="M95.9983 166.225C95.9983 166.225 100.577 160.955 95.0983 156.541C89.6191 152.127 78.7975 154.115 76.8031 164.087C74.8087 174.059 77.5231 178.271 77.5231 178.271C77.5231 178.271 77.5231 171.92 79.3519 170.07C79.3519 170.07 78.8047 173.108 79.3519 174.93C79.8991 176.751 79.3519 175.599 79.3519 175.599C79.3519 175.599 81.0367 167.643 89.1583 169.926C97.2799 172.208 95.9983 166.225 95.9983 166.225Z" fill="#263238"/>
<path d="M97.0919 167.939C103.125 169.782 104.083 173.598 102.629 179.948C100.814 187.868 97.4087 192.908 90.3887 188.919C80.8127 183.541 87.0767 164.886 97.0919 167.939Z" fill="#EBB376"/>
<path d="M98.8347 178.422C99.0402 179.471 99.3714 180.491 99.8211 181.46C99.5699 181.656 99.2695 181.778 98.9531 181.813C98.6368 181.849 98.3167 181.797 98.0283 181.662L98.8347 178.422Z" fill="#D58745"/>
<path d="M95.292 176.809C95.148 177.306 94.7664 177.637 94.4352 177.529C94.104 177.421 93.9456 176.953 94.0824 176.456C94.2192 175.959 94.608 175.628 94.9392 175.736C95.2704 175.844 95.4288 176.305 95.292 176.809Z" fill="#263238"/>
<path d="M94.7959 175.722L95.9983 175.599C95.9983 175.599 95.2063 176.363 94.7959 175.722Z" fill="#263238"/>
<path d="M101.52 178.436C101.383 178.933 101.002 179.264 100.671 179.156C100.339 179.048 100.181 178.58 100.318 178.083C100.455 177.586 100.843 177.255 101.175 177.363C101.506 177.471 101.664 177.939 101.52 178.436Z" fill="#263238"/>
<path d="M101.03 177.349L102.233 177.227C102.233 177.227 101.433 177.99 101.03 177.349Z" fill="#263238"/>
<path d="M93.6005 173C93.5452 172.998 93.492 172.978 93.4483 172.944C93.4047 172.91 93.3727 172.863 93.3568 172.81C93.341 172.757 93.3421 172.7 93.3599 172.648C93.3778 172.596 93.4116 172.55 93.4565 172.518C93.9342 172.251 94.4678 172.101 95.0143 172.078C95.5608 172.056 96.105 172.162 96.6029 172.388C96.6645 172.416 96.7125 172.468 96.7367 172.531C96.7609 172.594 96.7594 172.664 96.7325 172.727C96.7192 172.759 96.6996 172.788 96.6749 172.812C96.6502 172.836 96.6208 172.855 96.5886 172.868C96.5564 172.881 96.5219 172.887 96.4873 172.886C96.4527 172.885 96.4185 172.878 96.3869 172.863C95.9684 172.678 95.5134 172.589 95.0558 172.604C94.5983 172.619 94.15 172.737 93.7445 172.95C93.7039 172.983 93.653 173.001 93.6005 173Z" fill="#263238"/>
<path d="M103.212 175.196C103.174 175.195 103.137 175.186 103.102 175.17C103.067 175.154 103.036 175.131 103.011 175.102C102.78 174.77 102.477 174.495 102.124 174.298C101.771 174.101 101.377 173.987 100.973 173.965C100.905 173.967 100.838 173.943 100.788 173.897C100.737 173.852 100.705 173.788 100.7 173.72C100.698 173.686 100.702 173.652 100.714 173.62C100.725 173.588 100.743 173.558 100.765 173.532C100.788 173.507 100.816 173.486 100.846 173.472C100.877 173.457 100.91 173.448 100.944 173.446C101.43 173.46 101.906 173.586 102.334 173.815C102.763 174.043 103.132 174.368 103.414 174.764C103.463 174.814 103.491 174.881 103.491 174.951C103.491 175.021 103.463 175.089 103.414 175.138C103.386 175.161 103.354 175.177 103.319 175.187C103.284 175.197 103.248 175.2 103.212 175.196Z" fill="#263238"/>
<path d="M87.4011 176.096C87.4011 176.096 91.7211 171.999 92.4411 168.047C92.4411 168.047 105.884 166.808 102.773 179.12C102.773 179.12 107.23 168.702 96.9339 165.303C86.6379 161.905 82.0803 177.083 86.0619 183.231C86.0619 183.231 84.7155 178.659 87.4011 176.096Z" fill="#263238"/>
<path d="M96.6384 184.376C95.8355 184.384 95.0566 184.102 94.4444 183.582C93.8322 183.063 93.4277 182.34 93.3048 181.547C93.2985 181.477 93.3188 181.408 93.3616 181.353C93.4044 181.299 93.4665 181.262 93.5352 181.251C93.6037 181.245 93.6719 181.266 93.7256 181.309C93.7792 181.352 93.8142 181.414 93.8232 181.482C93.9233 182.155 94.2663 182.768 94.7876 183.206C95.3089 183.644 95.9724 183.876 96.6528 183.858C96.7216 183.858 96.7875 183.885 96.8361 183.934C96.8847 183.982 96.912 184.048 96.912 184.117C96.912 184.186 96.8847 184.252 96.8361 184.3C96.7875 184.349 96.7216 184.376 96.6528 184.376H96.6384Z" fill="#263238"/>
<path d="M86.3573 174.887C86.3481 174.926 86.3523 174.967 86.3693 175.004C86.3862 175.04 86.415 175.07 86.4509 175.088H86.4941L92.6357 176.528C92.537 177.112 92.6356 177.712 92.9159 178.234C93.1962 178.755 93.6423 179.168 94.1837 179.408C94.8877 179.759 95.6959 179.839 96.4551 179.633C97.2142 179.427 97.8714 178.95 98.3021 178.292C98.3776 178.164 98.4403 178.029 98.4893 177.889C98.599 177.799 98.7257 177.732 98.8618 177.693C98.9979 177.653 99.1406 177.642 99.2813 177.659C99.3579 177.693 99.426 177.743 99.4808 177.807C99.5356 177.87 99.5756 177.945 99.5981 178.026C99.5143 178.602 99.6207 179.191 99.9014 179.701C100.182 180.212 100.622 180.617 101.153 180.855C101.858 181.204 102.667 181.282 103.426 181.075C104.184 180.868 104.841 180.39 105.272 179.732C105.457 179.412 105.573 179.056 105.61 178.687C105.648 178.319 105.607 177.947 105.49 177.595C105.373 177.244 105.182 176.922 104.931 176.65C104.68 176.378 104.374 176.162 104.033 176.017C103.329 175.666 102.521 175.586 101.762 175.792C101.003 175.998 100.346 176.475 99.9149 177.133C99.8395 177.261 99.7768 177.396 99.7277 177.536C99.641 177.446 99.5352 177.378 99.4181 177.335C99.15 177.266 98.8661 177.296 98.6189 177.421C98.7158 176.836 98.6156 176.236 98.3341 175.715C98.0525 175.193 97.6056 174.781 97.0637 174.541C96.3597 174.19 95.5515 174.11 94.7924 174.316C94.0332 174.522 93.376 174.999 92.9453 175.657C92.847 175.825 92.7673 176.004 92.7077 176.19L86.5949 174.75C86.5453 174.737 86.4924 174.743 86.4479 174.769C86.4034 174.795 86.3708 174.837 86.3573 174.887ZM100.253 177.27C100.63 176.695 101.205 176.279 101.868 176.098C102.531 175.918 103.237 175.986 103.853 176.291C104.151 176.418 104.419 176.607 104.638 176.846C104.858 177.084 105.024 177.367 105.126 177.675C105.228 177.982 105.264 178.308 105.231 178.63C105.197 178.953 105.096 179.265 104.933 179.545C104.556 180.119 103.981 180.536 103.318 180.715C102.654 180.894 101.948 180.824 101.333 180.517C101.036 180.39 100.768 180.202 100.549 179.964C100.329 179.726 100.163 179.444 100.061 179.137C99.9587 178.83 99.9231 178.505 99.9563 178.183C99.9894 177.861 100.091 177.55 100.253 177.27ZM93.2837 175.83C93.6608 175.255 94.2351 174.839 94.8982 174.658C95.5613 174.478 96.2675 174.546 96.8837 174.851C97.1817 174.978 97.4493 175.167 97.6687 175.406C97.8881 175.644 98.0544 175.927 98.1565 176.235C98.2586 176.542 98.2942 176.868 98.261 177.19C98.2277 177.513 98.1264 177.825 97.9637 178.105C97.5876 178.681 97.0134 179.098 96.3498 179.279C95.6863 179.459 94.9796 179.39 94.3637 179.084C94.0655 178.956 93.7978 178.766 93.5783 178.527C93.3589 178.287 93.1926 178.004 93.0906 177.696C92.9885 177.388 92.953 177.062 92.9863 176.739C93.0196 176.416 93.1209 176.103 93.2837 175.823V175.83Z" fill="#263238"/>
<g opacity="0.3">
<path d="M86.3563 174.886C86.3471 174.926 86.3513 174.967 86.3683 175.003C86.3853 175.04 86.414 175.07 86.4499 175.088H86.4931L92.6347 176.528C92.536 177.112 92.6346 177.712 92.9149 178.233C93.1953 178.755 93.6413 179.168 94.1827 179.408C94.8868 179.759 95.695 179.839 96.4541 179.633C97.2132 179.427 97.8704 178.95 98.3011 178.292C98.3766 178.164 98.4393 178.029 98.4883 177.889C98.598 177.799 98.7247 177.732 98.8608 177.693C98.9969 177.653 99.1396 177.641 99.2803 177.658C99.3569 177.692 99.4251 177.743 99.4798 177.806C99.5346 177.87 99.5747 177.945 99.5971 178.026C99.5133 178.602 99.6198 179.19 99.9004 179.701C100.181 180.212 100.621 180.617 101.152 180.855C101.857 181.203 102.666 181.282 103.425 181.075C104.183 180.868 104.84 180.39 105.271 179.732C105.456 179.412 105.572 179.055 105.609 178.687C105.647 178.319 105.606 177.947 105.489 177.595C105.372 177.244 105.181 176.922 104.93 176.65C104.679 176.377 104.373 176.162 104.032 176.017C103.328 175.666 102.52 175.586 101.761 175.792C101.002 175.998 100.345 176.475 99.9139 177.133C99.8385 177.261 99.7758 177.396 99.7267 177.536C99.64 177.446 99.5342 177.377 99.4171 177.334C99.1491 177.266 98.8651 177.296 98.6179 177.421C98.7148 176.836 98.6146 176.236 98.3331 175.715C98.0516 175.193 97.6047 174.78 97.0627 174.541C96.3587 174.19 95.5505 174.11 94.7914 174.316C94.0323 174.522 93.375 174.999 92.9443 175.657C92.846 175.825 92.7663 176.004 92.7067 176.19L86.5939 174.75C86.5443 174.736 86.4914 174.743 86.4469 174.769C86.4024 174.795 86.3698 174.837 86.3563 174.886ZM100.252 177.27C100.629 176.695 101.204 176.278 101.867 176.098C102.53 175.918 103.236 175.986 103.852 176.29C104.15 176.418 104.418 176.607 104.637 176.846C104.857 177.084 105.023 177.367 105.125 177.674C105.227 177.982 105.263 178.308 105.23 178.63C105.196 178.953 105.095 179.264 104.932 179.545C104.555 180.119 103.98 180.535 103.317 180.715C102.653 180.894 101.947 180.823 101.332 180.517C101.035 180.39 100.767 180.202 100.548 179.964C100.328 179.726 100.162 179.444 100.06 179.137C99.9578 178.83 99.9221 178.504 99.9553 178.182C99.9885 177.861 100.09 177.549 100.252 177.27ZM93.2827 175.83C93.6599 175.255 94.2341 174.838 94.8972 174.658C95.5604 174.478 96.2666 174.546 96.8827 174.85C97.1808 174.978 97.4483 175.167 97.6677 175.406C97.8872 175.644 98.0534 175.927 98.1555 176.234C98.2576 176.542 98.2932 176.868 98.26 177.19C98.2267 177.513 98.1254 177.824 97.9627 178.105C97.5867 178.68 97.0124 179.098 96.3489 179.279C95.6853 179.459 94.9786 179.39 94.3627 179.084C94.0645 178.956 93.7968 178.766 93.5773 178.526C93.3579 178.287 93.1917 178.004 93.0896 177.696C92.9875 177.388 92.952 177.061 92.9853 176.738C93.0186 176.415 93.12 176.103 93.2827 175.822V175.83Z" fill="white"/>
</g>
<path d="M87.9985 177.666C88.1527 176.951 88.0173 176.204 87.6219 175.588C87.2265 174.973 86.6034 174.539 85.8889 174.383C83.9593 174.015 81.8929 177.579 86.2633 179.919C86.8897 180.258 87.4657 179.718 87.9985 177.666Z" fill="#EBB376"/>
<path d="M76.3202 196.206C76.3202 196.206 77.0402 211.599 78.3434 215.055C79.6466 218.511 93.2402 231.241 93.2402 231.241C93.2402 231.241 97.0346 230.399 97.661 230.643C98.2874 230.888 101.909 234.243 101.909 234.243H91.4402L90.5258 232.631C90.5258 232.631 76.457 222.205 74.909 219.721C73.7642 217.885 70.085 199.187 70.085 199.187L76.3202 196.206Z" fill="#EBB376"/>
<path d="M73.5336 188.329C75.9744 187.062 77.1336 191.144 78.624 199.403C79.5104 204.622 79.9177 209.913 79.8408 215.207L81.9288 218.915L76.6584 223.767C74.1802 221.374 72.2815 218.446 71.1072 215.207C69.48 210.239 64.9944 192.786 73.5336 188.329Z" fill="#263238"/>
<path opacity="0.1" d="M73.5336 188.329C75.9744 187.062 77.1336 191.144 78.624 199.403C79.5104 204.622 79.9177 209.913 79.8408 215.207L81.9288 218.915L76.6584 223.767C74.1802 221.374 72.2815 218.446 71.1072 215.207C69.48 210.239 64.9944 192.786 73.5336 188.329Z" fill="white"/>
<path d="M75.2832 223.767L81.9288 217.827L83.4984 220.023L77.5584 225.855L75.2832 223.767Z" fill="#CDEADD"/>
<path opacity="0.4" d="M75.2832 223.767L81.9288 217.827L83.4984 220.023L77.5584 225.855L75.2832 223.767Z" fill="white"/>
</svg>
