<svg width="48" height="48" viewBox="0 0 48 48" fill="none" xmlns="http://www.w3.org/2000/svg">
<g clip-path="url(#clip0_2356_57160)">
<path d="M43.4044 12.0564C43.4334 12.4772 43.4334 12.898 43.4334 13.3227C43.4334 26.2632 33.6012 41.1876 15.6225 41.1876V41.1798C10.3115 41.1876 5.11086 39.6633 0.639893 36.7894C1.41215 36.8825 2.18828 36.929 2.96634 36.931C7.36763 36.9348 11.6431 35.4552 15.1057 32.7306C10.9231 32.6511 7.25538 29.9187 5.97409 25.9297C7.43925 26.2128 8.94893 26.1546 10.387 25.761C5.82699 24.8379 2.54634 20.8237 2.54634 16.1617C2.54634 16.1191 2.54634 16.0783 2.54634 16.0376C3.90505 16.7959 5.42634 17.2167 6.98247 17.2632C2.68763 14.3873 1.36376 8.6627 3.95731 4.18694C8.91989 10.3052 16.2418 14.0247 24.1018 14.4184C23.3141 11.0169 24.3902 7.45261 26.9296 5.06153C30.8663 1.35371 37.058 1.54376 40.7586 5.48623C42.9476 5.05378 45.0457 4.24899 46.9657 3.10872C46.236 5.37569 44.7089 7.30135 42.6689 8.52501C44.6063 8.29618 46.4992 7.77646 48.2818 6.98332C46.9696 8.95358 45.3167 10.6698 43.4044 12.0564Z" fill="#1D9BF0"/>
</g>
<defs>
<clipPath id="clip0_2356_57160">
<rect width="48" height="48" fill="white"/>
</clipPath>
</defs>
</svg>
