<svg width="49" height="55" viewBox="0 0 49 55" fill="none" xmlns="http://www.w3.org/2000/svg">
<path d="M40.5 0.927734H8.5C4.07333 0.927734 0.5 4.4744 0.5 8.84773V37.9411C0.5 42.3144 4.07333 45.8611 8.5 45.8611H10.5267C12.66 45.8611 14.6867 46.6877 16.18 48.1811L20.74 52.6877C22.82 54.7411 26.2067 54.7411 28.2867 52.6877L32.8467 48.1811C34.34 46.6877 36.3933 45.8611 38.5 45.8611H40.5C44.9267 45.8611 48.5 42.3144 48.5 37.9411V8.84773C48.5 4.4744 44.9267 0.927734 40.5 0.927734ZM24.5 10.9277C27.94 10.9277 30.7133 13.7011 30.7133 17.1411C30.7133 20.5811 27.94 23.3544 24.5 23.3544C21.06 23.3544 18.2867 20.5544 18.2867 17.1411C18.2867 13.7011 21.06 10.9277 24.5 10.9277ZM31.6467 35.7544H17.3533C15.1933 35.7544 13.94 33.3544 15.14 31.5677C16.9533 28.8744 20.4733 27.0611 24.5 27.0611C28.5267 27.0611 32.0467 28.8744 33.86 31.5677C35.06 33.3544 33.78 35.7544 31.6467 35.7544Z" fill="#2B7A78"/>
</svg>
