<svg width="54" height="54" viewBox="0 0 54 54" fill="none" xmlns="http://www.w3.org/2000/svg">
<path d="M48.44 13.1872L33.08 2.44048C28.8933 -0.492849 22.4666 -0.332848 18.44 2.78715L5.07997 13.2138C2.41331 15.2938 0.306641 19.5605 0.306641 22.9205V41.3205C0.306641 48.1205 5.82664 53.6671 12.6266 53.6671H41.3733C48.1733 53.6671 53.6933 48.1471 53.6933 41.3471V23.2672C53.6933 19.6672 51.3733 15.2405 48.44 13.1872ZM29 43.0005C29 44.0938 28.0933 45.0005 27 45.0005C25.9066 45.0005 25 44.0938 25 43.0005V35.0005C25 33.9072 25.9066 33.0005 27 33.0005C28.0933 33.0005 29 33.9072 29 35.0005V43.0005Z" fill="#2B7A78"/>
</svg>
