<svg width="46" height="38" viewBox="0 0 46 38" fill="none" xmlns="http://www.w3.org/2000/svg">
<path d="M14.6481 37.2879C31.6221 37.2879 40.9101 23.2119 40.9101 11.0259C40.9101 10.6299 40.9101 10.2339 40.8921 9.83792C42.6921 8.54192 44.2581 6.90391 45.5001 5.04991C43.8441 5.78791 42.0621 6.27392 40.1901 6.50792C42.0981 5.37392 43.5561 3.55591 44.2581 1.39591C42.4761 2.45791 40.4961 3.21391 38.3901 3.62791C36.6981 1.82791 34.3041 0.711914 31.6581 0.711914C26.5641 0.711914 22.4241 4.85191 22.4241 9.94591C22.4241 10.6659 22.5141 11.3679 22.6581 12.0519C14.9901 11.6739 8.18607 7.98391 3.63207 2.40391C2.84007 3.77191 2.39007 5.35592 2.39007 7.04791C2.39007 10.2519 4.02807 13.0779 6.49407 14.7339C4.98207 14.6799 3.56007 14.2659 2.31807 13.5819C2.31807 13.6179 2.31807 13.6539 2.31807 13.7079C2.31807 18.1719 5.50407 21.9159 9.71607 22.7619C8.94207 22.9779 8.13207 23.0859 7.28607 23.0859C6.69207 23.0859 6.11607 23.0319 5.55807 22.9239C6.72807 26.5959 10.1481 29.2599 14.1801 29.3319C11.0121 31.8159 7.03407 33.2919 2.71407 33.2919C1.97607 33.2919 1.23807 33.2559 0.518066 33.1659C4.58607 35.7579 9.44607 37.2879 14.6481 37.2879Z" fill="white"/>
</svg>
