<svg width="15" height="16" viewBox="0 0 15 16" fill="none" xmlns="http://www.w3.org/2000/svg">
<path d="M7.86 0.84C9.22 0.84 10.4267 1.14667 11.48 1.76C12.5467 2.36 13.3733 3.20667 13.96 4.3C14.56 5.38 14.86 6.61333 14.86 8C14.86 9.38667 14.56 10.6267 13.96 11.72C13.3733 12.8 12.5467 13.6467 11.48 14.26C10.4267 14.86 9.22 15.16 7.86 15.16C6.48667 15.16 5.26667 14.86 4.2 14.26C3.14667 13.6467 2.32 12.8 1.72 11.72C1.13333 10.6267 0.84 9.38667 0.84 8C0.84 6.61333 1.13333 5.38 1.72 4.3C2.32 3.20667 3.14667 2.36 4.2 1.76C5.26667 1.14667 6.48667 0.84 7.86 0.84ZM7.86 1.86C6.66 1.86 5.61333 2.11333 4.72 2.62C3.82667 3.11333 3.14 3.82667 2.66 4.76C2.18 5.68 1.94 6.76 1.94 8C1.94 9.22667 2.18 10.3067 2.66 11.24C3.14 12.16 3.82667 12.88 4.72 13.4C5.61333 13.9067 6.66 14.16 7.86 14.16C9.04667 14.16 10.0867 13.9067 10.98 13.4C11.8733 12.88 12.56 12.16 13.04 11.24C13.52 10.3067 13.76 9.22667 13.76 8C13.76 6.76 13.52 5.68 13.04 4.76C12.56 3.82667 11.8733 3.11333 10.98 2.62C10.1 2.11333 9.06 1.86 7.86 1.86ZM7.84 3.44C7 3.44 6.24667 3.62667 5.58 4C4.91333 4.37333 4.38667 4.90667 4 5.6C3.62667 6.28 3.44 7.07333 3.44 7.98C3.44 8.88667 3.62667 9.68667 4 10.38C4.38667 11.0733 4.91333 11.6067 5.58 11.98C6.24667 12.3533 7 12.54 7.84 12.54C8.86667 12.54 9.75333 12.26 10.5 11.7C11.2467 11.1267 11.7333 10.3733 11.96 9.44H9.5C9.35333 9.81333 9.14 10.1 8.86 10.3C8.59333 10.5 8.23333 10.6 7.78 10.6C7.16667 10.6 6.68 10.38 6.32 9.94C5.97333 9.48667 5.8 8.83333 5.8 7.98C5.8 7.12667 5.97333 6.48 6.32 6.04C6.68 5.6 7.16667 5.38 7.78 5.38C8.20667 5.38 8.56667 5.48 8.86 5.68C9.16667 5.88 9.38 6.16667 9.5 6.54H11.96C11.7333 5.58 11.2467 4.82667 10.5 4.28C9.76667 3.72 8.88 3.44 7.84 3.44Z" fill="#FEFEFE"/>
</svg>
